<?xml version="1.0" standalone="no"?>
<!DOCTYPE svg PUBLIC "-//W3C//DTD SVG 1.1//EN" "http://www.w3.org/Graphics/SVG/1.1/DTD/svg11.dtd">
<svg xmlns="http://www.w3.org/2000/svg" viewBox="0 0 1623.48 1793.53" width="1623.47998046875" height="1793.530029296875"><defs><style>.cls-1{fill:#c3ccbc;}.cls-2{fill:#e5e2dc;}.cls-3{fill:#b9b6b2;}.cls-4{fill:#212121;}.cls-5{opacity:0.15;}.cls-6{fill:#fff;}.cls-7{opacity:0.5;}.cls-8{fill:#697f58;}.cls-9{opacity:0.4;}.cls-10{fill:#cecbc6;}.cls-11{fill:#407c7f;}.cls-12{opacity:0.2;}.cls-13{opacity:0.08;}.cls-14{fill:#262626;}.cls-15{fill:#02a864;}.cls-16{opacity:0.1;}</style></defs><g id="Layer_2" data-name="Layer 2"><g id="OBJECT"><path class="cls-1" d="M1068,168.08h0a75.9,75.9,0,0,1,75.9,75.9V1381.46a75.9,75.9,0,0,1-75.9,75.89h0a75.89,75.89,0,0,1-75.89-75.89V244A75.9,75.9,0,0,1,1068,168.08Z"/><path class="cls-1" d="M229.82,347.8h0a38,38,0,0,1,37.95,37.95v1366a38,38,0,0,1-37.95,38h0a38,38,0,0,1-37.95-38v-1366A38,38,0,0,1,229.82,347.8Z"/><path class="cls-1" d="M889.52,154.12h0a21.17,21.17,0,0,1,21.17,21.17v1463a21.16,21.16,0,0,1-21.17,21.16h0a21.16,21.16,0,0,1-21.16-21.16v-1463A21.16,21.16,0,0,1,889.52,154.12Z"/><path class="cls-1" d="M563.82,135.89h0A21.16,21.16,0,0,1,585,157.06V1587.22a21.16,21.16,0,0,1-21.16,21.17h0a21.17,21.17,0,0,1-21.17-21.17V157.06A21.17,21.17,0,0,1,563.82,135.89Z"/><rect class="cls-1" x="1389.28" width="42.33" height="1318.62" rx="9.88" transform="translate(2820.89 1318.62) rotate(180)"/><path class="cls-1" d="M718.33,205.7h0a75.9,75.9,0,0,1,75.9,75.89V1481.9a75.9,75.9,0,0,1-75.9,75.89h0a75.89,75.89,0,0,1-75.89-75.89V281.59A75.89,75.89,0,0,1,718.33,205.7Z"/><path class="cls-1" d="M414.68,593.34h0a75.9,75.9,0,0,1,75.9,75.89V1632.6a75.9,75.9,0,0,1-75.9,75.9h0a75.9,75.9,0,0,1-75.89-75.9V669.23A75.89,75.89,0,0,1,414.68,593.34Z"/><circle class="cls-1" cx="414.68" cy="422.65" r="76.26" transform="translate(-91.93 729.13) rotate(-76.72)"/><path class="cls-1" d="M1260.56,1390.54h0a75.9,75.9,0,0,1-75.9-75.89V260.5a75.9,75.9,0,0,1,75.9-75.89h0a75.89,75.89,0,0,1,75.89,75.89V1314.65A75.89,75.89,0,0,1,1260.56,1390.54Z"/><circle class="cls-1" cx="718.33" cy="1717.63" r="75.9" transform="translate(-1004.15 1011.02) rotate(-45)"/><path class="cls-2" d="M1607.39,777.55c-16.52,15.82-256.16,210.05-756,484.92S143.79,1568.41,80.72,1556.93s-87.81-89.13-63.33-109.68c0,0-28.62-117.74,55.41-144,0,0,277.69-208.54,439.45-514.93,119.63-226.6,98.88-298.44,80-320.49a74.7,74.7,0,0,1-17.57-38.06c-6.94-49-18.25-150.93-5.8-227,.73-21,34.73-18.35,45.07-19.19,0,0,57.15,1.21,81.35,2.65s95.6.67,131.45,74.61l-4.61,4.37c177.81-35.88,232.36-83,258.16-99.45,28.12-17.95,34.72,14.73,34.72,14.73s13.46-2.36,35.58,23.36c4.63,5.39,11.48,12.81,19.43,21.16,29.92,31.52,75.24,76.41,75.24,76.41l5.53-3.77s14.14,18.08,18.12,20.05c.78.37,2.31,1.11,4.42,2.29,8.83,4.89,27.86,17.26,44.7,42,0,0,9.16-9.56,16.82-1.73s27.39,27.95,36.89,48.11c0,0,6.1-3.52,10.23,4.37S1505.68,581.15,1508,614.86c0,0,22.35-7.21,31.21,29.86L1610,746.44S1623.92,761.74,1607.39,777.55Z"/><path class="cls-3" d="M1272.51,319.49l-3,1.49c-15,4.06-76.48,19-201.71,29.77q-6.1.53-12.46,1c-13.63-18.51.49-45.26,61.52-59.36,46.95-10.84,69.21-26.24,79.27-40.4,24.75,25.26,49,49.33,49,49.33l5.53-3.77s14.14,18.08,18.12,20.05C1269.55,318,1270.79,318.56,1272.51,319.49Z"/><path class="cls-4" d="M346.72,1165.86c1,1.73.09,4.11-2,5.33s-4.63.81-5.63-.92-.09-4.11,2-5.33S345.72,1164.13,346.72,1165.86Z"/><path class="cls-4" d="M327.35,1150c1,1.73.09,4.12-2,5.33s-4.63.81-5.63-.92-.09-4.11,2-5.33S326.35,1148.23,327.35,1150Z"/><path class="cls-4" d="M309.21,1136.2c1,1.73.09,4.12-2,5.34s-4.63.8-5.63-.93-.09-4.11,2-5.33S308.21,1134.47,309.21,1136.2Z"/><path class="cls-4" d="M296.93,1125.62c1,1.72.1,4.11-2,5.33s-4.63.81-5.63-.92-.1-4.12,2-5.33S295.94,1123.89,296.93,1125.62Z"/><path class="cls-4" d="M286.82,1116.92c1,1.73.09,4.11-2,5.33s-4.63.81-5.63-.92-.09-4.11,2-5.33S285.82,1115.19,286.82,1116.92Z"/><path class="cls-4" d="M281.6,1191.77c1,1.72.09,4.11-2,5.33s-4.63.81-5.63-.92-.09-4.11,2-5.33S280.6,1190,281.6,1191.77Z"/><path class="cls-4" d="M265.92,1173.45c1,1.73.1,4.11-2,5.33s-4.63.81-5.63-.92-.09-4.11,2-5.33S264.93,1171.72,265.92,1173.45Z"/><path class="cls-4" d="M256.87,1160.72c1,1.73.09,4.12-2,5.33s-4.63.81-5.63-.92-.09-4.11,2-5.33S255.87,1159,256.87,1160.72Z"/><path class="cls-4" d="M251.68,1151.74c1,1.73.1,4.12-2,5.33s-4.63.81-5.62-.92-.1-4.11,2-5.33S250.68,1150,251.68,1151.74Z"/><path class="cls-4" d="M235.44,1218.41c1,1.73.1,4.12-2,5.34s-4.63.8-5.63-.92-.1-4.12,2-5.34S234.45,1216.69,235.44,1218.41Z"/><path class="cls-4" d="M243.57,1190.52c1,1.73.09,4.12-2,5.34s-4.63.8-5.62-.92-.1-4.12,2-5.34S242.57,1188.8,243.57,1190.52Z"/><path class="cls-4" d="M233.8,1175.57c1,1.73.09,4.12-2,5.33s-4.63.81-5.63-.92-.09-4.11,2-5.33S232.8,1173.84,233.8,1175.57Z"/><path class="cls-4" d="M216.12,1198.28c1,1.73.1,4.12-2,5.34s-4.63.8-5.63-.92-.1-4.12,2-5.34S215.13,1196.56,216.12,1198.28Z"/><path class="cls-4" d="M201.54,1224.38c1,1.72.09,4.11-2,5.33s-4.63.81-5.62-.92-.1-4.12,2-5.33S200.54,1222.65,201.54,1224.38Z"/><path class="cls-4" d="M188.83,1252.24c1,1.72.1,4.11-2,5.33s-4.63.81-5.63-.92-.09-4.12,2-5.33S187.84,1250.51,188.83,1252.24Z"/><path class="cls-4" d="M132.06,1289.18c1,1.73.09,4.12-2,5.34s-4.63.81-5.63-.92-.09-4.12,2-5.34S131.06,1287.46,132.06,1289.18Z"/><path class="cls-4" d="M95,1307.82c1,1.73.1,4.12-2,5.34s-4.63.8-5.63-.92-.09-4.12,2-5.34S94,1306.1,95,1307.82Z"/><path class="cls-4" d="M125,1272.76c1,1.73.1,4.12-2,5.34s-4.63.8-5.63-.92-.1-4.12,2-5.34S124,1271,125,1272.76Z"/><path class="cls-4" d="M154,1256c1,1.72.09,4.11-2,5.33s-4.63.81-5.63-.92-.09-4.11,2-5.33S153,1254.29,154,1256Z"/><path class="cls-4" d="M179,1223.88c1,1.72.09,4.11-2,5.33s-4.63.81-5.63-.92-.09-4.12,2-5.33S178,1222.15,179,1223.88Z"/><g class="cls-5"><path d="M646.49,344.75s-6.14-55.63,32.58-73,124.17-33.31,149.91-8C829,263.74,634.34,297,646.49,344.75Z"/></g><g class="cls-5"><path d="M1077,900.82c3.63,5.65-56.16,50.58-133.55,100.35s-143.08,85.54-146.71,79.9,56.16-50.58,133.55-100.35S1073.34,895.17,1077,900.82Z"/></g><g class="cls-5"><path d="M1076,685.31c.45,6.7-73.62,17.05-165.44,23.12S744,714,743.54,707.28s73.63-17,165.45-23.12S1075.59,678.61,1076,685.31Z"/></g><g class="cls-5"><path d="M1342.58,389.52s-35.78,11.13-76.76,64.57-104.21,175-104.21,175,99.43-98.85,135.83-155.78S1342.58,389.52,1342.58,389.52Z"/></g><path class="cls-6" d="M757.45,763s-17.2,17.07-35.07,55.08S678.7,932.44,678.7,932.44s44.74-78.25,60.19-116.3S757.45,763,757.45,763Z"/><g class="cls-5"><path d="M1483.49,671.36s-99.38,36.32-263.51,186.5C1220,857.86,1373,798,1483.49,671.36Z"/></g><g class="cls-7"><path d="M775.43,670.55s-73,21.93-83.95,87.31c0,0,10.78-8.71,15.39-15.64C716.75,729.24,714.12,713.21,775.43,670.55Z"/></g><path class="cls-4" d="M1609.94,746.44l-7.6-11S1566.06,782.75,1385,900.13s-558.5,348.74-888.79,493.57c-192.4,84.47-369.39,118.08-472.72,124.58h0c12.23,18.3,31.56,34,57.26,38.64,63.07,11.48,270.91-19.58,770.71-294.46s739.43-469.1,756-484.91S1609.94,746.44,1609.94,746.44Z"/><path d="M1006.42,1181.77q-71.35,41.19-152.21,85.75c-220,121-405,206.78-550.09,255-136.76,45.49-199.31,44.62-224.43,40-24.63-4.49-46.3-19.09-61-41.11a5.76,5.76,0,0,1,4.43-9c51.5-3.25,237.67-21.78,470.76-124.11,364.83-160,771.9-417.9,888-493.13,177.35-115,215.58-162.86,216-163.33a5.77,5.77,0,0,1,9.29.24l7.4,10.65c6.08,6.93,13,23.51-3.1,38.86-6.7,6.41-68,57.56-197.49,145.91C1325.93,987.62,1189.88,1075.85,1006.42,1181.77Zm-972,341.51c12.5,14.83,29,24.64,47.34,28,19.35,3.52,79.39,6.71,218.73-39.64,144.38-48,328.81-133.55,548.17-254.19,261.53-143.84,448.2-263.92,558.74-339.32,127.21-86.78,189.79-138.76,196-144.71,11.69-11.2,3.93-21.22,2.25-23.11a4.81,4.81,0,0,1-.44-.57l-3.42-4.91c-14.92,15.87-66.82,65-213.7,160.15-116.26,75.36-524,333.69-889.61,494C277.5,1496,98.1,1518.27,34.41,1523.28Z"/><g class="cls-7"><path d="M1610.32,749.31s-34.08,35.87-209.79,150.42-271,179.42-346.47,227c0,0,176-92.89,346.4-207.55S1610.32,749.31,1610.32,749.31Z"/></g><path class="cls-8" d="M428.27,1116s.78,10.39,14.72,19.73c8.72,5.23,49.72,39.71,16.88,63.8s-50.26-22.86-110.88,6.44-144,83.41-215.59,111.93-114.55,29.64-60.61-14.61c-84,26.28-55.39,144-55.39,144,152.77-5,377.84-105.84,607-235.73-34-32.3-140.4-74.58-196.29-95.24"/><g class="cls-9"><path class="cls-6" d="M319.93,1239.07s-37.25,23.37-74.53,39.77-74.89,48.09-74.89,48.09,31.13.55,88-40.25S319.93,1239.07,319.93,1239.07Z"/></g><path class="cls-10" d="M1273.29,319.93s-1.22.37-3.74,1.05c-15,4.06-76.48,19-201.71,29.77q-6.1.53-12.46,1C907.13,364.07,657.2,376.92,657.2,376.92l2.1-23.51c24.89-10.48,57-18.32,96.41-25.38,57.07-10.2,129.53-18.76,217.86-31.29C1077,282.07,1136.84,250.66,1170,225c8,8.44,17.13,17.84,26.19,27.08,24.75,25.26,49,49.33,49,49.33l5.53-3.77s14.14,18.08,18.12,20.05c.68.32,1.92.92,3.64,1.85C1272.76,319.62,1273,319.78,1273.29,319.93Z"/><path class="cls-4" d="M657.89,420.67c-24.23-96.77-21.51-126.12,113.17-146.15,218.79-36.53,281.06-90.87,309.19-108.81S1115,180.43,1115,180.43s-82.25,83.69-338.37,123c-100.52,17-111.93,35.3-111.49,71.09Z"/><path class="cls-11" d="M1381.92,412.72c-4.12-7.89-10.21-4.37-10.21-4.37S1274.34,533,1198.2,641.08s-9.56,208.41-9.56,208.41C1377.28,716.87,1508,614.85,1508,614.85,1505.68,581.15,1386.05,420.6,1381.92,412.72Z"/><g class="cls-12"><path d="M1371.89,425.77s93.21,98.42,123.92,167.92c11.08,30.28-13.86,40.68-249.39,197.1,0,0,53.75-49.09,129.43-115s76.78-86.23,48.24-141.59S1371.89,425.77,1371.89,425.77Z"/></g><g class="cls-9"><path class="cls-6" d="M1198.74,762.19a39.19,39.19,0,0,1-4.91-10.4,69.79,69.79,0,0,1-2.6-11.25,92.4,92.4,0,0,1-.37-23.08,118.29,118.29,0,0,1,4.62-22.52,150.55,150.55,0,0,1,8.4-21.2,165.35,165.35,0,0,1,25.22-37.14c2.54-2.73,5.11-5.42,7.77-8s5.48-5.05,8.32-7.45,5.82-4.66,8.88-6.82,6.23-4.17,9.57-6c-1.43,3.57-3,6.92-4.7,10.2s-3.26,6.58-5,9.76-3.3,6.42-5,9.52-3.33,6.28-5.06,9.35c-6.7,12.4-13.24,24.53-19.32,36.76-3,6.14-5.85,12.29-8.57,18.5s-5.17,12.51-7.47,18.91-4.34,12.93-6,19.68A126.57,126.57,0,0,0,1198.74,762.19Z"/></g><path class="cls-8" d="M607.82,208.11c-18.66-.09-34.35,0-39.91.54h0c-11,75.41,0,173.35,6.72,221.1l52.61-.79,0,0C575.66,344.14,607.82,208.11,607.82,208.11Z"/><g class="cls-9"><path class="cls-6" d="M577.52,377.42S566,284.26,574.26,270C574.26,270,586.86,328.48,577.52,377.42Z"/></g><g class="cls-9"><path class="cls-6" d="M31.9,1415s-9.62-52.91,14.33-74.71c0,0,3,5.23-4.25,23.71S31.9,1415,31.9,1415Z"/></g><path d="M1023.3,1127.92C864,1219.91,676.26,1321,498.49,1399c-234.82,103.1-422.68,121.78-474.67,125a5.76,5.76,0,1,1-.72-11.5c51.5-3.24,237.67-21.76,470.76-124.1,364.83-160,771.9-417.9,888-493.13,177.35-115,215.58-162.86,216-163.33a5.76,5.76,0,0,1,9.13,7c-1.51,2-39,49.38-218.81,166C1328.37,943.68,1191.68,1030.71,1023.3,1127.92Z"/><path class="cls-11" d="M683.3,1231.36h0c-16.89,9.72-33.78,19.3-50.19,28.48a5.76,5.76,0,0,1-5.69-10l.07,0c16.37-9.15,33.21-18.71,50.07-28.4a5.76,5.76,0,0,1,5.75,10Zm24.94-14.45a5.76,5.76,0,0,1-5.78-10c16.29-9.5,33-19.35,49.61-29.29l.08,0a5.76,5.76,0,0,1,5.83,9.93c-16.66,10-33.39,19.83-49.72,29.35ZM607.93,1273.8l-.11.06c-17.08,9.4-34.15,18.64-50.74,27.47a5.76,5.76,0,1,1-5.41-10.17c16.54-8.8,33.57-18,50.6-27.39a5.76,5.76,0,0,1,5.66,10Zm174.7-101.06a5.76,5.76,0,0,1-5.86-9.92c16.12-9.74,32.65-19.84,49.12-30a5.77,5.77,0,0,1,6.06,9.81c-16.51,10.19-33.07,20.3-49.22,30.06Zm73.61-45.2a5.76,5.76,0,0,1-5.92-9.88c16.06-10,32.46-20.33,48.75-30.68l.21-.13a5.76,5.76,0,0,1,6,9.85c-16.31,10.37-32.74,20.71-48.83,30.74ZM531.77,1314.66l-.22.12c-17.33,9-34.62,17.89-51.39,26.27a5.76,5.76,0,0,1-5.15-10.3c16.7-8.36,33.93-17.17,51.21-26.18a5.76,5.76,0,0,1,5.55,10.09Zm397.55-233.33a5.76,5.76,0,0,1-6-9.84c16-10.24,32.25-20.76,48.38-31.28a5.76,5.76,0,0,1,6.29,9.66c-16.16,10.53-32.46,21.06-48.45,31.32ZM454.65,1353.65l-.36.19c-17.65,8.62-35.19,17-52.13,24.81a5.76,5.76,0,1,1-4.84-10.45c16.87-7.81,34.34-16.12,51.91-24.71a5.76,5.76,0,0,1,5.42,10.16Zm547.2-319.4a5.76,5.76,0,0,1-6-9.81c15.78-10.37,31.94-21.07,48-31.81a5.76,5.76,0,0,1,6.4,9.58c-16.11,10.76-32.3,21.48-48.1,31.86ZM376.41,1390.36a5.28,5.28,0,0,1-.53.27c-18,8.07-35.81,15.79-53,23a5.76,5.76,0,0,1-4.43-10.63c17.1-7.13,34.84-14.82,52.73-22.84a5.76,5.76,0,0,1,5.24,10.24Zm697.45-404a5.76,5.76,0,0,1-6.09-9.77c15.69-10.54,31.74-21.41,47.71-32.3a5.76,5.76,0,1,1,6.49,9.52c-16,10.9-32.06,21.78-47.77,32.34A2.39,2.39,0,0,1,1073.86,986.37Zm71.53-48.6a5.76,5.76,0,0,1-6.14-9.74c15.74-10.8,31.68-21.83,47.4-32.76a5.76,5.76,0,1,1,6.58,9.45c-15.73,10.95-31.7,22-47.46,32.81A3,3,0,0,1,1145.39,937.77ZM296.87,1424.15a5.17,5.17,0,0,1-.75.36c-18.41,7.36-36.6,14.26-54,20.53a5.76,5.76,0,0,1-3.9-10.84c17.32-6.22,35.38-13.08,53.67-20.39a5.76,5.76,0,0,1,5,10.34Zm919.58-535.66a5.76,5.76,0,0,1-6.18-9.71c15.65-11,31.49-22.14,47.1-33.21A5.76,5.76,0,0,1,1264,855c-15.63,11.08-31.5,22.27-47.16,33.24Zm70.61-49.94a5.76,5.76,0,0,1-6.22-9.68c15.62-11.15,31.37-22.46,46.81-33.62a5.76,5.76,0,1,1,6.75,9.33c-15.46,11.18-31.22,22.5-46.86,33.67Q1287.3,838.42,1287.06,838.55ZM215.81,1454.07a6.25,6.25,0,0,1-1.05.48c-18.95,6.37-37.55,12.14-55.29,17.15a5.76,5.76,0,0,1-3.14-11.08c17.57-5,36-10.68,54.75-17a5.76,5.76,0,0,1,4.73,10.44ZM1357.24,788a5.76,5.76,0,0,1-6.26-9.65c15.44-11.23,31.09-22.69,46.51-34a5.76,5.76,0,0,1,6.83,9.27c-15.44,11.37-31.1,22.84-46.57,34.09A5.54,5.54,0,0,1,1357.24,788Zm69.73-51.2a5.76,5.76,0,0,1-6.3-9.62c15.63-11.6,31.17-23.2,46.18-34.49a5.76,5.76,0,0,1,6.93,9.21c-15,11.3-30.59,22.92-46.25,34.53C1427.35,736.54,1427.16,736.67,1427,736.78ZM133,1478.58a6,6,0,0,1-1.48.6c-19.64,4.92-38.73,9-56.74,12.12a5.76,5.76,0,0,1-2-11.36c17.74-3.07,36.55-7.08,55.91-11.94a5.76,5.76,0,0,1,4.28,10.58Zm1363.27-793.7a5.76,5.76,0,0,1-6.35-9.59c29.17-22.11,45.67-35,45.83-35.11a5.76,5.76,0,1,1,7.09,9.08c-.16.13-16.72,13-46,35.21A5.91,5.91,0,0,1,1496.22,684.88Zm-1448.08,810a5.87,5.87,0,0,1-2.17.73c-11.74,1.46-23.26,2.51-34.24,3.13a5.76,5.76,0,0,1-.65-11.5c10.73-.6,22-1.63,33.47-3.07a5.76,5.76,0,0,1,3.59,10.71Z"/><path d="M1203,827.33l-.32.17a4,4,0,0,1-5.35-2c-2.45-5.24-4.68-10.76-6.65-16.38a4,4,0,1,1,7.61-2.66c1.88,5.37,4,10.63,6.35,15.64A4,4,0,0,1,1203,827.33Zm-11.41-32.57a4.12,4.12,0,0,1-1.06.42,4,4,0,0,1-4.87-3c-.94-3.86-1.76-7.78-2.43-11.64-.34-1.91-.64-3.84-.91-5.72a4,4,0,0,1,8-1.12c.25,1.79.54,3.63.86,5.46.64,3.68,1.42,7.42,2.32,11.11A4,4,0,0,1,1191.61,794.76Zm-4.79-34.17a3.91,3.91,0,0,1-1.86.53,4,4,0,0,1-4.18-3.88,163,163,0,0,1,.32-17.7,4,4,0,1,1,8,.59,157,157,0,0,0-.3,16.82A4,4,0,0,1,1186.82,760.59Zm2.53-34.39a4,4,0,0,1-6-4.23,162.56,162.56,0,0,1,4.19-17.2,4,4,0,1,1,7.72,2.33,151.45,151.45,0,0,0-4,16.35A4,4,0,0,1,1189.35,726.2Zm10-33a4,4,0,0,1-5.74-5c2.25-5.34,4.82-10.7,7.65-15.92a4,4,0,1,1,7.09,3.83c-2.7,5-5.16,10.12-7.3,15.22A4,4,0,0,1,1199.3,693.17Zm16.37-30.37a4,4,0,0,1-5.38-5.72c1.12-1.68,2.28-3.38,3.45-5.05q3.24-4.59,6.52-9.22a4,4,0,1,1,6.58,4.66l-6.5,9.2c-1.13,1.61-2.25,3.24-3.32,4.86A4,4,0,0,1,1215.67,662.8Zm19.94-28.25a4,4,0,0,1-5.3-5.84q5-7,10.11-14.06a4,4,0,0,1,6.54,4.72q-5.09,7-10.09,14A4.16,4.16,0,0,1,1235.61,634.55Zm20.25-28.06a4,4,0,0,1-5.28-5.86l10.2-14a4,4,0,1,1,6.51,4.77q-5.1,7-10.18,14A4,4,0,0,1,1255.86,606.49Zm20.44-27.9a4,4,0,0,1-5.27-5.88q5.17-7,10.29-13.92a4,4,0,1,1,6.48,4.8l-10.28,13.9A3.87,3.87,0,0,1,1276.3,578.59Zm20.6-27.79a4,4,0,0,1-5.25-5.9q5.24-7,10.36-13.86a4,4,0,0,1,6.46,4.83q-5.12,6.82-10.35,13.85A4,4,0,0,1,1296.9,550.8Zm20.74-27.69a4,4,0,0,1-5.24-5.91q5.32-7.08,10.43-13.82a4,4,0,1,1,6.43,4.86q-5.1,6.74-10.41,13.81A4.06,4.06,0,0,1,1317.64,523.11Zm20.87-27.6a4,4,0,0,1-5.23-5.93q5.43-7.15,10.48-13.77a4,4,0,0,1,6.41,4.89q-5,6.6-10.47,13.76A4,4,0,0,1,1338.51,495.51Zm21-27.51a4,4,0,0,1-5.22-5.94c3.79-4.95,7.32-9.54,10.54-13.73a4,4,0,0,1,6.4,4.91c-3.23,4.19-6.75,8.78-10.54,13.72A3.89,3.89,0,0,1,1359.49,468Zm21.11-27.43a4,4,0,0,1-5.21-6c5.5-7.11,9.2-11.86,10.64-13.71a4,4,0,0,1,6.36,5c-1.43,1.84-5.13,6.58-10.62,13.69A4,4,0,0,1,1380.6,440.57Z"/><path d="M1188.64,849.49a155.11,155.11,0,0,1-15.41-28.14,189.19,189.19,0,0,1-15.11-62.75A180.73,180.73,0,0,1,1159,726c.37-2.7.69-5.42,1.12-8.11l1.51-8.06c.54-2.69,1.28-5.32,1.92-8s1.47-5.27,2.27-7.88,1.58-5.25,2.58-7.79,1.87-5.15,2.9-7.68l3.29-7.52.82-1.88c.29-.62.61-1.22.92-1.84l1.85-3.66c2.34-5,5.22-9.59,8-14.33,1.39-2.35,3-4.58,4.44-6.88s3-4.6,4.53-6.75c6.15-8.71,12.27-17.45,18.5-26.11q37.35-52,76.87-102.28c26.29-33.58,53.17-66.7,81.22-98.87-24.26,35.11-49.12,69.72-74,104.27L1223,616.22c-6.26,8.6-12.38,17.3-18.58,25.94-1.6,2.16-3,4.31-4.46,6.47s-3,4.27-4.31,6.49c-2.64,4.46-5.43,8.85-7.76,13.48L1186,672c-.3.57-.62,1.14-.9,1.72l-.82,1.76-3.27,7.06c-1,2.38-1.93,4.8-2.92,7.2s-1.83,4.84-2.66,7.3a179,179,0,0,0-7.58,30.14,190,190,0,0,0,.62,62.36c.83,5.19,2,10.33,3.23,15.45s2.78,10.18,4.46,15.2,3.5,10,5.58,14.87A148.09,148.09,0,0,0,1188.64,849.49Z"/><path class="cls-11" d="M468.39,1226.15l-.05,0a59.22,59.22,0,0,1-17.3,6.47,4,4,0,0,1-1.56-7.91,51.23,51.23,0,0,0,14.92-5.6,4,4,0,0,1,4,7Zm13.83-10.25a4,4,0,0,1-4.82-6.39,48.41,48.41,0,0,0,9.49-12.73,4,4,0,1,1,7.19,3.65A56.17,56.17,0,0,1,483,1215.29,3.94,3.94,0,0,1,482.22,1215.9Zm-47.14,16.85a4,4,0,0,1-2.49.51,98,98,0,0,1-17.55-4,4,4,0,0,1,2.41-7.7,90,90,0,0,0,16.09,3.71,4,4,0,0,1,1.54,7.49Zm62.2-47.14a4,4,0,0,1-6-3.87,43.24,43.24,0,0,0,.13-5.92,46.12,46.12,0,0,0-1.54-9.79,4,4,0,1,1,7.8-2.08,55,55,0,0,1,1.8,11.49,51.54,51.54,0,0,1-.16,7A4.07,4.07,0,0,1,497.28,1185.61Zm-95.56,38.31a4,4,0,0,1-2.91.44A46.4,46.4,0,0,0,383,1223.3a4,4,0,0,1-.88-8,54.36,54.36,0,0,1,18.48,1.22,4,4,0,0,1,1.12,7.42Zm-33.8,3.2a3.36,3.36,0,0,1-.54.26c-2.11.84-4.34,1.82-6.61,2.91-2.78,1.35-5.7,2.79-8.69,4.29a4,4,0,1,1-3.62-7.2c3-1.52,6-3,8.8-4.35,2.45-1.18,4.86-2.24,7.16-3.15a4,4,0,0,1,3.5,7.24Zm-31,15.29-.13.08c-4.77,2.52-9.73,5.19-15.17,8.16a4,4,0,0,1-3.87-7.08c5.47-3,10.47-5.67,15.27-8.21a4,4,0,0,1,3.9,7.05ZM306.59,1259l-.06,0q-7.44,4.13-15.08,8.41a4,4,0,0,1-5.49-1.54,4.08,4.08,0,0,1,1.55-5.49q7.65-4.29,15.1-8.43a4,4,0,0,1,4,7Zm-30.17,16.87,0,0-15.1,8.44a4,4,0,0,1-3.92-7c5-2.8,10.06-5.62,15.07-8.42a4,4,0,0,1,4,7ZM489,1152.62a4,4,0,0,1-5.5-1.46,87.48,87.48,0,0,0-9.67-13.36,4,4,0,1,1,6.08-5.3,95.74,95.74,0,0,1,10.56,14.6,4,4,0,0,1-1.46,5.51Zm-242.82,140-.07,0q-7.6,4.17-15.21,8.28a4,4,0,0,1-5.46-1.64,4,4,0,0,1,1.63-5.46q7.58-4.08,15.15-8.25a4,4,0,0,1,4,7ZM215.77,1309l-.15.08c-5.27,2.76-10.46,5.43-15.42,7.94a4,4,0,1,1-3.64-7.19c4.93-2.49,10.08-5.15,15.32-7.9a4,4,0,0,1,3.89,7.07Zm-30.87,15.58-.26.14c-5.39,2.6-10.68,5.08-15.74,7.38a4,4,0,0,1-3.33-7.34c5-2.28,10.23-4.73,15.56-7.3a4,4,0,0,1,3.77,7.12Zm-31.47,14.27a4,4,0,0,1-.46.23c-3.22,1.36-6.44,2.68-9.56,3.92-2.22.88-4.41,1.75-6.59,2.58a4,4,0,0,1-2.89-7.53q3.21-1.23,6.5-2.54c3.07-1.22,6.24-2.52,9.42-3.86a4,4,0,0,1,3.58,7.2Zm-32.26,12.41a4,4,0,0,1-.7.31c-5.76,2-11.35,3.82-16.6,5.39a4,4,0,0,1-2.31-7.73c5.14-1.53,10.61-3.31,16.27-5.28a4,4,0,0,1,3.34,7.31ZM88,1361.06a4.13,4.13,0,0,1-1.11.43c-1.85.43-3.69.83-5.45,1.18-2.84.58-7.12,1.44-12,2a4,4,0,0,1-.89-8c4.55-.5,8.47-1.29,11.33-1.86,1.69-.34,3.45-.72,5.23-1.13a4,4,0,0,1,2.92,7.42ZM53.78,1364a4,4,0,0,1-2.66.49,37.49,37.49,0,0,1-17.64-7.38,4,4,0,1,1,5-6.31,29.46,29.46,0,0,0,13.91,5.72,4,4,0,0,1,1.37,7.48Z"/><path d="M428.84,1115.9a22.49,22.49,0,0,0,4,7.85A33.72,33.72,0,0,0,439,1130a21.24,21.24,0,0,0,1.76,1.32,19.88,19.88,0,0,0,1.81,1.23l1.85,1.14c.7.38,1.41.8,2.1,1.24a76.62,76.62,0,0,1,7.75,5.67,80.28,80.28,0,0,1,13.41,13.83c3.92,5.2,7.33,11.19,8.74,18.22a27.37,27.37,0,0,1-4.13,21.12A36.68,36.68,0,0,1,469,1198c-.59.66-1.24,1.25-1.86,1.87a19.8,19.8,0,0,1-1.93,1.75l-2,1.64c-.67.54-1.4,1-2.1,1.49a45.34,45.34,0,0,1-4.42,2.71,37.38,37.38,0,0,1-10.05,3.66,36.81,36.81,0,0,1-10.71.42,52.14,52.14,0,0,1-9.9-2.07c-3.12-.91-6.1-2-9-3a140.08,140.08,0,0,0-17.09-5.37,66.43,66.43,0,0,0-17.46-1.77,76.19,76.19,0,0,0-17.64,2.73,103.12,103.12,0,0,0-17,6.47c-22.25,10.51-43.55,23-64.55,36l-15.76,9.72-7.89,4.85-7.94,4.78c-10.6,6.37-21.34,12.49-32.13,18.57-5.42,3-10.81,6-16.27,9s-10.92,5.88-16.46,8.68l-8.29,4.24c-2.78,1.39-5.6,2.71-8.4,4.07-5.59,2.72-11.29,5.25-17,7.74-1.43.62-2.85,1.26-4.29,1.86l-4.34,1.76-8.7,3.47c-5.82,2.22-11.68,4.36-17.61,6.31s-11.89,3.84-17.92,5.55-12.15,3.15-18.34,4.39a108.54,108.54,0,0,1-19.08,2.29,47.59,47.59,0,0,1-5-.17,24.84,24.84,0,0,1-5.29-1,13.88,13.88,0,0,1-2.8-1.24,8.83,8.83,0,0,1-2.68-2.34,7.37,7.37,0,0,1-1.49-3.53,8.92,8.92,0,0,1,.17-3.38,16.69,16.69,0,0,1,2.21-5.07,32.09,32.09,0,0,1,3-4,73.08,73.08,0,0,1,6.72-6.79,153.89,153.89,0,0,1,14.75-11.47l.73.89c-4.43,4.3-8.79,8.66-12.78,13.25a68.92,68.92,0,0,0-5.51,7.09,31.08,31.08,0,0,0-2.15,3.68,11,11,0,0,0-1.16,3.5,2.86,2.86,0,0,0,.07,1.22,1.15,1.15,0,0,0,.41.62,5.1,5.1,0,0,0,2.38,1,28.26,28.26,0,0,0,8.06.14,117.13,117.13,0,0,0,17.44-3.51c5.82-1.56,11.61-3.41,17.36-5.37s11.48-4,17.17-6.23,11.35-4.49,17-6.84l8.4-3.63,4.2-1.79c1.4-.61,2.78-1.27,4.17-1.9,22.27-10,44.34-20.78,66.22-32l32.78-17.05c10.94-5.69,22-11.19,33-16.79,22.09-11.1,44-22.58,66-33.82,11-5.72,22.92-10.56,35.75-12.2a72.85,72.85,0,0,1,19.4.08,125.34,125.34,0,0,1,18.62,4.26c5.93,1.7,11.61,3.51,16.93,4a26.07,26.07,0,0,0,15-2.89,35.79,35.79,0,0,0,3.5-2.08c.56-.39,1.16-.74,1.7-1.16l1.62-1.25a13.87,13.87,0,0,0,1.53-1.31c.48-.46,1-.89,1.45-1.36a26.16,26.16,0,0,0,2.45-3,19.52,19.52,0,0,0,3.13-6.64,20.7,20.7,0,0,0,.26-7.47,39.26,39.26,0,0,0-6.23-15.3,76.38,76.38,0,0,0-5.22-7.09,86.84,86.84,0,0,0-6-6.63c-2.1-2.12-4.34-4.12-6.6-6-.57-.46-1.14-.9-1.75-1.33l-1.92-1.54c-.66-.5-1.25-1.06-1.84-1.6s-1.2-1.09-1.75-1.69a35.43,35.43,0,0,1-5.78-7.78,24.22,24.22,0,0,1-1.9-4.45,17.61,17.61,0,0,1-.92-4.77Z"/><path d="M1115.39,180.84c-1,1-1.94,1.87-2.92,2.78s-2,1.79-3,2.66l-3,2.61-3.14,2.48c-4.15,3.38-8.54,6.43-12.87,9.56l-1.64,1.17-1.67,1.09-3.36,2.19-6.71,4.39c-4.55,2.79-9.18,5.47-13.77,8.22-2.27,1.41-4.65,2.62-7,3.9l-7.06,3.8c-2.35,1.26-4.69,2.57-7.07,3.78l-7.21,3.51c-4.81,2.31-9.59,4.72-14.44,7l-14.7,6.42c-39.36,16.76-80.23,29.77-121.62,40.44l-15.53,4.05c-2.57.72-5.19,1.27-7.8,1.85L853,294.46c-10.44,2.32-20.85,4.79-31.31,7-10.5,2-21,3.88-31.53,5.68L774.4,309.8c-5.19.82-10.4,1.72-15.59,2.66-10.41,1.78-20.75,3.84-30.94,6.28-5.11,1.16-10.14,2.55-15.14,4s-9.87,3.2-14.63,5.15a76.15,76.15,0,0,0-13.47,7,40.51,40.51,0,0,0-10.75,10.16,35.68,35.68,0,0,0-3.67,6.5,49.89,49.89,0,0,0-2.39,7.27,69.58,69.58,0,0,0-1.36,7.7c-.37,2.61-.57,5.26-.76,7.91h0a.58.58,0,0,1-1.16,0,82,82,0,0,1-.07-16.21,46.64,46.64,0,0,1,1.64-8.16,40.28,40.28,0,0,1,3.32-7.82,45.89,45.89,0,0,1,11.14-12.83,78.58,78.58,0,0,1,14.13-8.92c9.85-5,20.2-8.5,30.55-11.61s20.87-5.51,31.36-7.77c5.26-1.07,10.52-2.1,15.83-3.07s10.48-1.83,15.72-2.75q15.69-2.65,31.43-5.07c2.63-.35,5.21-.93,7.82-1.39l7.82-1.46,15.63-2.94,7.81-1.49c2.6-.49,5.21-1,7.79-1.59l15.5-3.54c41.31-9.46,82.17-21.26,121.63-36.81l14.78-5.86c4.89-2.06,9.7-4.28,14.55-6.41l7.27-3.23c2.41-1.12,4.76-2.34,7.14-3.5l7.13-3.53c2.37-1.19,4.78-2.31,7.08-3.63,4.64-2.56,9.32-5.06,13.93-7.68l6.8-4.11,3.41-2.06,1.7-1,1.66-1.1c4.42-2.92,8.9-5.78,13.14-9l3.22-2.34,3.12-2.46c2.09-1.61,4.11-3.35,6-5.11l0,0a.58.58,0,0,1,.82,0A.6.6,0,0,1,1115.39,180.84Z"/><path class="cls-8" d="M1105.57,643.09a4,4,0,0,1-4.17-6.9c4.4-2.79,9.07-6.06,13.88-9.71a4,4,0,1,1,4.87,6.43c-5,3.78-9.84,7.18-14.43,10.09Zm-15.12,8.31a2.31,2.31,0,0,1-.35.18c-1.17.53-2.33,1-3.45,1.49-4,1.61-8.45,3.18-13.27,4.66A4,4,0,0,1,1071,650c4.59-1.41,8.83-2.9,12.6-4.43,1-.42,2.08-.87,3.14-1.35a4,4,0,0,1,3.69,7.16Zm42.72-29.06a4,4,0,0,1-4.63-6.56c4.12-3.51,8.42-7.34,12.79-11.38a4,4,0,0,1,5.48,5.92c-4.45,4.12-8.84,8-13,11.6A4,4,0,0,1,1133.17,622.34Zm-75.67,39.5a4.2,4.2,0,0,1-1.1.43c-5.32,1.25-11.08,2.45-17.13,3.58a4,4,0,0,1-1.48-7.93c5.93-1.11,11.57-2.28,16.77-3.5a4,4,0,0,1,2.94,7.42Zm101.08-62.92a4,4,0,0,1-4.84-6.37c3.9-3.84,8-7.94,12.09-12.2a4,4,0,0,1,5.8,5.61c-4.17,4.31-8.29,8.46-12.24,12.34A3.64,3.64,0,0,1,1158.58,598.92Zm-135.11,69.34a3.71,3.71,0,0,1-1.4.49c-5.46.84-11.26,1.65-17.25,2.41a4,4,0,0,1-1-8c5.92-.75,11.66-1.55,17.05-2.38a4,4,0,0,1,2.62,7.48Zm159.17-94.15a4,4,0,0,1-5-6.24c3.78-4.06,7.69-8.34,11.62-12.7a4,4,0,1,1,6,5.4c-4,4.39-7.89,8.7-11.7,12.8A4.09,4.09,0,0,1,1182.64,574.11Zm23.13-25.67a4,4,0,0,1-5-6.15c3.65-4.16,7.44-8.55,11.27-13a4,4,0,0,1,6.13,5.24c-3.85,4.52-7.66,8.93-11.33,13.11A4.27,4.27,0,0,1,1205.77,548.44ZM989.13,672.67a4,4,0,0,1-1.59.51c-5.58.6-11.4,1.17-17.29,1.71a4,4,0,0,1-.73-8c5.85-.52,11.63-1.09,17.17-1.69a4,4,0,0,1,2.44,7.51Zm239.1-150.5a4,4,0,0,1-5.11-6.08c3.61-4.31,7.31-8.77,11-13.28a4,4,0,1,1,6.23,5.12c-3.72,4.52-7.43,9-11,13.33A4,4,0,0,1,1228.23,522.17ZM954.65,675.8a4,4,0,0,1-1.71.52c-5.63.43-11.46.84-17.33,1.22a4,4,0,1,1-.51-8c5.83-.37,11.63-.78,17.23-1.21a4,4,0,0,1,2.32,7.52Zm295.52-180.34a4,4,0,0,1-5.15-6q5.48-6.79,10.78-13.47a4,4,0,0,1,6.32,5q-5.32,6.7-10.83,13.52A3.92,3.92,0,0,1,1250.17,495.46ZM920.08,678a4.15,4.15,0,0,1-1.79.53c-5.7.3-11.53.58-17.34.84a4,4,0,0,1-.35-8.06c5.78-.25,11.59-.53,17.26-.83a4,4,0,0,1,2.22,7.52Zm351.6-209.63a4,4,0,0,1-5.19-6q5.43-6.95,10.59-13.63a4,4,0,1,1,6.39,4.93q-5.17,6.69-10.63,13.67A4,4,0,0,1,1271.68,468.39ZM885.49,679.53a4,4,0,0,1-1.87.54c-5.9.2-11.69.38-17.34.53a4,4,0,0,1-.22-8.06c5.63-.15,11.4-.33,17.28-.53a4,4,0,0,1,2.15,7.52ZM1292.81,441a4,4,0,0,1-5.22-5.94q5.45-7.15,10.42-13.77a4,4,0,1,1,6.44,4.85c-3.31,4.4-6.8,9-10.45,13.81A4,4,0,0,1,1292.81,441Zm20.79-27.64a4,4,0,0,1-5.26-5.9c3.79-5.1,7.22-9.76,10.25-13.9a4,4,0,0,1,6.51,4.76c-3,4.15-6.49,8.83-10.28,14A4.2,4.2,0,0,1,1313.6,413.38ZM850.87,680.47a4,4,0,0,1-1.94.53c-6,.12-11.83.21-17.34.28a4,4,0,0,1-.1-8.07c5.5-.06,11.28-.15,17.29-.27a4,4,0,0,1,2.09,7.53Zm483.16-295a4,4,0,0,1-5.29-5.85c2.36-3.28,3.9-5.44,4.49-6.28l.1-.12,5.82-7.57a4,4,0,1,1,6.39,4.92l-5.78,7.51c-.63.89-2.16,3-4.48,6.25A4,4,0,0,1,1334,385.46ZM816.23,680.89a4.09,4.09,0,0,1-2,.53c-6.4,0-12.23,0-17.35,0a4,4,0,0,1,0-8.06c5.11,0,10.91,0,17.29,0a4,4,0,0,1,2,7.53Zm-34.68-.1a4,4,0,0,1-2.06.53c-3.12,0-5.24-.07-6.22-.08l-11,.08a4,4,0,1,1-.07-8.06l11.13-.09,6.28.09a4,4,0,0,1,2,7.53Z"/><path d="M1318,362c-14.58,22.62-30,44.66-45.74,66.53q-11.85,16.33-24,32.46c-8.08,10.77-16.41,21.36-24.76,31.93s-16.85,21-25.59,31.31-17.55,20.5-26.6,30.53q-6.78,7.54-13.82,14.85t-14.25,14.49q-7.23,7.17-14.77,14c-5,4.59-10.17,9.09-15.51,13.4s-10.89,8.41-16.73,12.21c-2.91,1.92-5.94,3.71-9,5.41-1.56.86-3.19,1.62-4.79,2.42l-2.49,1.09-1.25.55-1.24.46c-13.15,5-26.5,8.12-39.9,10.62s-26.84,4.25-40.28,5.74l-10.09,1L977,652l-10.1.77-10.09.67c-13.47.83-26.93,1.52-40.4,1.91S889.5,656,876,656c-26.92.05-53.84-.35-80.72-1.69,26.89-1.22,53.74-2.33,80.55-4,13.4-.75,26.8-1.59,40.18-2.6s26.74-2,40.07-3.33c26.64-2.69,53.29-5.61,79.3-10.91l4.87-1,4.83-1.08c3.24-.68,6.41-1.54,9.61-2.33,1.59-.4,3.15-.89,4.72-1.32s3.16-.89,4.69-1.42l4.62-1.52,4.5-1.7a89.32,89.32,0,0,0,16.71-9c5.4-3.56,10.63-7.52,15.75-11.65,10.28-8.23,20.08-17.22,29.63-26.5s18.78-18.94,27.94-28.68c18.34-19.45,35.83-39.78,53.27-60.15,8.69-10.22,17.22-20.57,25.78-30.91s17-20.76,25.45-31.22C1284.7,404.21,1301.34,383.11,1318,362Z"/><path class="cls-11" d="M1090.65,914.44a4,4,0,0,1-1.19.46,4,4,0,0,1-4.77-3.12l-3.53-16.92a4,4,0,0,1,7.9-1.65l3.52,16.92A4,4,0,0,1,1090.65,914.44Zm-7.05-33.83a4,4,0,0,1-1.19.45,4,4,0,0,1-4.77-3.12L1074.11,861a4,4,0,0,1,7.9-1.64l3.52,16.91A4,4,0,0,1,1083.6,880.61Zm-7-33.84a4.15,4.15,0,0,1-1.2.46,4,4,0,0,1-4.77-3.13l-3.52-16.92a4,4,0,1,1,7.89-1.64l3.53,16.92A4,4,0,0,1,1076.56,846.77Zm-7-33.83a3.92,3.92,0,0,1-1.2.45,4,4,0,0,1-4.77-3.12L1060,793.35a4,4,0,1,1,7.89-1.65l3.53,16.92A4,4,0,0,1,1069.51,812.94Zm-7-33.84a4,4,0,0,1-1.19.46,4,4,0,0,1-4.77-3.13L1053,759.51a4,4,0,0,1,7.9-1.64l3.52,16.92A4,4,0,0,1,1062.46,779.1Zm-9.51-33a4,4,0,0,1-5.43-1.34,37.06,37.06,0,0,0-10.81-11,4,4,0,1,1,4.45-6.72,45.22,45.22,0,0,1,13.18,13.46,4,4,0,0,1-1.25,5.56Zm-28-18.5a4,4,0,0,1-2.66.49,36.76,36.76,0,0,0-7-.45l-9.43.29a4,4,0,1,1-.25-8.06l9.42-.29a44.94,44.94,0,0,1,8.6.55,4,4,0,0,1,3.33,4.63A4,4,0,0,1,1025,727.59Zm-34.52.34a4,4,0,0,1-1.89.53l-17.27.54a4,4,0,0,1-.25-8.06l17.27-.54a4,4,0,0,1,2.14,7.53ZM955.91,729a4,4,0,0,1-1.89.53l-17.27.54a4,4,0,1,1-.26-8.05l17.28-.55a4,4,0,0,1,2.14,7.53Zm-34.55,1.08a4,4,0,0,1-1.89.53l-17.27.55a4,4,0,0,1-.25-8.06l17.27-.55a4,4,0,0,1,2.14,7.53Zm-34.54,1.08a4,4,0,0,1-1.89.54l-17.27.54a4,4,0,0,1-.26-8.06l17.28-.54a4,4,0,0,1,2.14,7.52Zm-34.55,1.08a4,4,0,0,1-1.89.54l-17.27.54a4,4,0,0,1-.25-8.06l17.27-.54a4,4,0,0,1,2.14,7.52Zm-34.54,1.08a4,4,0,0,1-1.89.54l-17.27.54a4,4,0,0,1-.26-8.06l17.28-.54a4,4,0,0,1,2.14,7.52Zm-34.55,1.08a4,4,0,0,1-1.89.54l-17.27.54a4,4,0,1,1-.25-8.06l17.27-.54a4,4,0,0,1,2.14,7.52Zm-34.54,1.08a3.92,3.92,0,0,1-1.89.54l-17.27.54a4,4,0,0,1-.26-8.06L746.5,728a4,4,0,0,1,2.14,7.52Zm-34.55,1.08a3.92,3.92,0,0,1-1.89.54l-17.27.54a4,4,0,1,1-.25-8.06l17.27-.54a4,4,0,0,1,2.14,7.52Z"/><path d="M799.71,271.18a104.4,104.4,0,0,0-17.1-25.5,91.51,91.51,0,0,0-24.25-18.83A112.65,112.65,0,0,0,729,216.24a203.27,203.27,0,0,0-31.6-4c-21.51-.94-43.15-1.76-64.72-2.49q-16.2-.56-32.39-1-8.1-.19-16.19-.3c-2.7,0-5.41-.08-8.1,0l-4,0-4.05.15,4-.33,4-.21c2.7-.16,5.4-.22,8.1-.32q8.1-.25,16.2-.42,16.22-.33,32.42-.48c21.63-.23,43.2-.37,64.87-.39a210,210,0,0,1,32.8,2.67,120.47,120.47,0,0,1,31.88,10,101.1,101.1,0,0,1,27.6,19.53A115.42,115.42,0,0,1,810,266a5.76,5.76,0,0,1-10.13,5.5l-.1-.2Z"/><path d="M607.82,208.11c-.26,2.61-.53,5.21-.75,7.81s-.48,5.19-.7,7.79c-.4,5.19-.84,10.37-1.18,15.55-.71,10.35-1.27,20.68-1.57,31s-.41,20.61-.22,30.88.61,20.53,1.52,30.72a312.24,312.24,0,0,0,10.5,60.21,218.05,218.05,0,0,0,10.49,28.76c1,2.35,2.26,4.59,3.37,6.92.58,1.15,1.09,2.34,1.73,3.46l1.91,3.36c2.41,4.6,5.38,8.83,8.13,13.32-1.88-1.81-3.7-3.69-5.58-5.56a33.24,33.24,0,0,1-2.65-2.92l-2.54-3-2.53-3.06c-.83-1-1.54-2.14-2.32-3.21l-2.28-3.26c-.74-1.11-1.56-2.16-2.21-3.32a163.6,163.6,0,0,1-14.11-28.58c-7.52-19.95-11.66-41-13.38-62.12-.46-5.28-.69-10.57-.91-15.85-.07-5.28-.2-10.57,0-15.84.22-10.55.92-21.08,2.11-31.53s2.85-20.84,5-31.12c1.09-5.14,2.27-10.25,3.63-15.32S606.05,213.05,607.82,208.11Z"/><path d="M574.54,424l52.7,5-52.52,6.55a5.79,5.79,0,0,1-1.44-11.5A5.91,5.91,0,0,1,574.54,424Z"/><path d="M507.88,1388.55,534.42,1423a5.81,5.81,0,1,1-10,5.76Z"/><path d="M558.68,1365.54l26.24,33.93a5.81,5.81,0,1,1-9.19,7.12,6,6,0,0,1-.78-1.36Z"/><path d="M610.27,1341.26l26,33.41a5.82,5.82,0,0,1-9.19,7.13,6.49,6.49,0,0,1-.79-1.37Z"/><path d="M661.37,1316.37,687,1349.24a5.81,5.81,0,1,1-9.17,7.15A5.93,5.93,0,0,1,677,1355Z"/><path d="M712.4,1290.75l25.35,32.39a5.82,5.82,0,1,1-9.16,7.17,5.54,5.54,0,0,1-.81-1.41Z"/><path d="M765.55,1263.33l25.06,31.89a5.82,5.82,0,0,1-9.15,7.19,6,6,0,0,1-.82-1.43Z"/><path d="M824.93,1231.87l24.79,31.4a5.82,5.82,0,1,1-10,5.76Z"/><path d="M882.86,1200.41l24.52,30.94a5.82,5.82,0,0,1-9.13,7.23,6.23,6.23,0,0,1-.85-1.47Z"/><path d="M938.67,1169.42,963,1200a5.83,5.83,0,0,1-9.12,7.25,6.4,6.4,0,0,1-.86-1.49Z"/><path d="M995,1137.49l24.06,30.15a5.83,5.83,0,0,1-9.11,7.27,6.36,6.36,0,0,1-.87-1.51Z"/><path d="M1058.15,1101l23.95,30a5.83,5.83,0,0,1-9.11,7.28,5.92,5.92,0,0,1-.87-1.52Z"/><path d="M1112.08,1070l23.43,29.06a5.83,5.83,0,1,1-10,5.76Z"/><path d="M1165.93,1037l23.51,29.21a5.83,5.83,0,0,1-9.08,7.32,6.09,6.09,0,0,1-.89-1.56Z"/><path d="M1219.31,1004.46l23.21,28.69a5.83,5.83,0,1,1-9.06,7.33,5.94,5.94,0,0,1-.91-1.57Z"/><path d="M1273.47,971l22.82,28a5.84,5.84,0,0,1-9,7.37,6.07,6.07,0,0,1-.93-1.61Z"/><path d="M1327.66,936.87,1350,964a5.84,5.84,0,0,1-9,7.42,6,6,0,0,1-1-1.66Z"/><path d="M1380.94,902.74l21.7,26.07a5.84,5.84,0,0,1-9,7.48,6,6,0,0,1-1-1.72Z"/><path d="M1433.37,868.14l21.11,25a5.85,5.85,0,1,1-10,5.76Z"/><path d="M1513.51,811.52l20.74,24.41a5.86,5.86,0,1,1-8.92,7.59,5.91,5.91,0,0,1-1-1.83Z"/><path d="M1549.57,785.82l18.66,20.79a5.89,5.89,0,0,1-8.77,7.86,6,6,0,0,1-1.21-2.1Z"/><path d="M1577.5,760.06,1599,785.82a5.85,5.85,0,0,1-9,7.5,6.09,6.09,0,0,1-1-1.74Z"/><path d="M515.84,1403.2h0a3.45,3.45,0,0,1-4.55-1.76h0a3.46,3.46,0,0,1,1.75-4.56h0a3.48,3.48,0,0,1,4.57,1.75h0a3.47,3.47,0,0,1-1.43,4.4h0A1.8,1.8,0,0,1,515.84,1403.2Zm-9.49,4.18h0a3.46,3.46,0,0,1-4.56-1.77h0a3.47,3.47,0,0,1,1.77-4.55h0a3.47,3.47,0,0,1,4.57,1.77h0a3.46,3.46,0,0,1-1.44,4.38h0A1.54,1.54,0,0,1,506.35,1407.38Zm-9.52,4.16a3.45,3.45,0,0,1-4.55-1.8h0a3.45,3.45,0,0,1,1.81-4.54h0a3.45,3.45,0,0,1,4.54,1.8h0a3.46,3.46,0,0,1-1.44,4.37h0Zm-9.55,4.1a3.47,3.47,0,0,1-4.53-1.83h0a3.45,3.45,0,0,1,1.83-4.53h0a3.46,3.46,0,0,1,4.53,1.83h0a3.46,3.46,0,0,1-1.45,4.34h0C487.54,1415.51,487.41,1415.59,487.28,1415.64Zm-9.58,4a3.46,3.46,0,0,1-4.52-1.86h0a3.46,3.46,0,0,1,1.86-4.52h0a3.45,3.45,0,0,1,4.52,1.86h0a3.46,3.46,0,0,1-1.47,4.32h0A3.55,3.55,0,0,1,477.7,1419.68Zm-9.6,4h0a3.44,3.44,0,0,1-4.5-1.88h0a3.46,3.46,0,0,1,1.87-4.52h0a3.47,3.47,0,0,1,4.51,1.88h0a3.47,3.47,0,0,1-1.47,4.31h0A3.29,3.29,0,0,1,468.1,1423.65Zm-9.62,3.92a3.45,3.45,0,0,1-4.5-1.91h0a3.45,3.45,0,0,1,1.91-4.5h0a3.47,3.47,0,0,1,4.5,1.92h0a3.44,3.44,0,0,1-1.47,4.27h0A2.26,2.26,0,0,1,458.48,1427.57Zm-9.65,3.85a3.46,3.46,0,0,1-4.49-1.94h0a3.45,3.45,0,0,1,1.94-4.48h0a3.46,3.46,0,0,1,4.49,1.94h0a3.45,3.45,0,0,1-1.48,4.26h0A3.21,3.21,0,0,1,448.83,1431.42Zm-9.67,3.8h0a3.47,3.47,0,0,1-4.48-2h0a3.47,3.47,0,0,1,2-4.48h0a3.46,3.46,0,0,1,4.47,2h0a3.47,3.47,0,0,1-1.48,4.25h0A3,3,0,0,1,439.16,1435.22Zm-9.7,3.73h0a3.44,3.44,0,0,1-4.46-2h0a3.44,3.44,0,0,1,2-4.46h0a3.45,3.45,0,0,1,4.46,2h0a3.46,3.46,0,0,1-1.5,4.23h0A2.3,2.3,0,0,1,429.46,1439Zm-9.72,3.67a3.45,3.45,0,0,1-4.45-2h0a3.46,3.46,0,0,1,2-4.45h0a3.46,3.46,0,0,1,4.45,2h0a3.46,3.46,0,0,1-1.49,4.2h0A3.18,3.18,0,0,1,419.74,1442.62Zm-9.75,3.62a3.45,3.45,0,0,1-4.43-2.06h0a3.45,3.45,0,0,1,2.05-4.43h0a3.46,3.46,0,0,1,4.44,2.06h0a3.43,3.43,0,0,1-1.52,4.17h0A3,3,0,0,1,410,1446.24Zm-9.77,3.55h0a3.44,3.44,0,0,1-4.41-2.08h0a3.44,3.44,0,0,1,2.08-4.42h0a3.45,3.45,0,0,1,4.42,2.07h0a3.46,3.46,0,0,1-1.52,4.17h0A2.69,2.69,0,0,1,400.22,1449.79Zm-9.78,3.49a3.46,3.46,0,0,1-4.41-2.11h0a3.46,3.46,0,0,1,2.11-4.41h0a3.46,3.46,0,0,1,4.41,2.11h0A3.47,3.47,0,0,1,391,1453h0A4.42,4.42,0,0,1,390.44,1453.28Zm-9.81,3.43h0a3.46,3.46,0,0,1-4.39-2.13h0a3.45,3.45,0,0,1,2.13-4.4h0a3.45,3.45,0,0,1,4.4,2.13h0a3.46,3.46,0,0,1-1.53,4.13h0A3.05,3.05,0,0,1,380.63,1456.71Zm-9.82,3.37h0a3.44,3.44,0,0,1-4.38-2.15h0a3.46,3.46,0,0,1,2.16-4.39h0a3.47,3.47,0,0,1,4.39,2.16h0a3.47,3.47,0,0,1-1.56,4.11h0A2.76,2.76,0,0,1,370.81,1460.08Zm-9.86,3.3a3.45,3.45,0,0,1-4.37-2.19h0a3.46,3.46,0,0,1,2.2-4.37h0a3.46,3.46,0,0,1,4.36,2.19h0a3.46,3.46,0,0,1-1.54,4.09h0A3.44,3.44,0,0,1,361,1463.38Zm-9.87,3.25a3.45,3.45,0,0,1-4.35-2.22h0a3.45,3.45,0,0,1,2.22-4.36h0a3.44,3.44,0,0,1,4.34,2.23h0a3.45,3.45,0,0,1-1.55,4.06h0A3.57,3.57,0,0,1,351.08,1466.63Zm-9.89,3.18a3.45,3.45,0,0,1-4.34-2.24h0a3.44,3.44,0,0,1,2.25-4.35h0a3.45,3.45,0,0,1,4.33,2.25h0a3.45,3.45,0,0,1-1.55,4h0A3.52,3.52,0,0,1,341.19,1469.81Zm-9.91,3.12h0a3.46,3.46,0,0,1-4.33-2.27h0a3.46,3.46,0,0,1,2.27-4.33h0a3.46,3.46,0,0,1,4.33,2.28h0a3.46,3.46,0,0,1-1.57,4h0A4,4,0,0,1,331.28,1472.93Zm-9.94,3.06h0a3.46,3.46,0,0,1-4.31-2.3h0a3.47,3.47,0,0,1,2.3-4.32h0a3.46,3.46,0,0,1,4.31,2.31h0a3.45,3.45,0,0,1-1.58,4h0A3.33,3.33,0,0,1,321.34,1476Zm-9.95,3a3.46,3.46,0,0,1-4.3-2.33h0a3.47,3.47,0,0,1,2.33-4.3h0a3.47,3.47,0,0,1,4.3,2.33h0a3.45,3.45,0,0,1-1.59,4h0A3.07,3.07,0,0,1,311.39,1479Zm-10,2.93a3.45,3.45,0,0,1-4.29-2.35h0a3.46,3.46,0,0,1,2.36-4.29h0a3.46,3.46,0,0,1,4.28,2.36h0a3.46,3.46,0,0,1-1.59,3.95h0A3.64,3.64,0,0,1,301.43,1481.91Zm-10,2.86a3.45,3.45,0,0,1-4.27-2.38h0a3.45,3.45,0,0,1,2.38-4.26h0a3.47,3.47,0,0,1,4.28,2.39h0a3.47,3.47,0,0,1-1.6,3.94h0A3,3,0,0,1,291.43,1484.77Zm-10,2.81a3.45,3.45,0,0,1-4.25-2.41h0a3.43,3.43,0,0,1,2.4-4.25h0a3.45,3.45,0,0,1,4.26,2.41h0a3.46,3.46,0,0,1-1.61,3.91h0A4.37,4.37,0,0,1,281.43,1487.58Zm-10,2.73a3.43,3.43,0,0,1-4.22-2.44h0a3.44,3.44,0,0,1,2.44-4.23h0a3.45,3.45,0,0,1,4.23,2.44h0a3.44,3.44,0,0,1-1.61,3.88h0A3.47,3.47,0,0,1,271.39,1490.31Zm-10,2.68a3.46,3.46,0,0,1-4.21-2.47h0a3.47,3.47,0,0,1,2.46-4.23h0a3.46,3.46,0,0,1,4.22,2.47h0a3.46,3.46,0,0,1-1.61,3.87h0A3.64,3.64,0,0,1,261.35,1493Zm-10.06,2.6h0a3.45,3.45,0,0,1-4.2-2.5h0a3.45,3.45,0,0,1,2.49-4.19h0a3.44,3.44,0,0,1,4.21,2.48h0a3.46,3.46,0,0,1-1.63,3.85h0A3.19,3.19,0,0,1,251.29,1495.59Zm-10.07,2.54a3.46,3.46,0,0,1-4.19-2.53h0a3.45,3.45,0,0,1,2.52-4.18h0a3.45,3.45,0,0,1,4.19,2.51h0a3.46,3.46,0,0,1-1.63,3.84h0A3.69,3.69,0,0,1,241.22,1498.13Zm-10.1,2.47h0a3.47,3.47,0,0,1-4.18-2.56h0a3.46,3.46,0,0,1,2.56-4.16h0a3.45,3.45,0,0,1,4.17,2.54h0a3.47,3.47,0,0,1-1.63,3.82h0A3.39,3.39,0,0,1,231.12,1500.6ZM221,1503a3.46,3.46,0,0,1-4.16-2.57h0a3.45,3.45,0,0,1,2.59-4.16h0a3.45,3.45,0,0,1,4.14,2.57h0a3.46,3.46,0,0,1-1.63,3.79h0A3.35,3.35,0,0,1,221,1503Zm-10.14,2.33h0a3.47,3.47,0,0,1-4.14-2.61h0a3.48,3.48,0,0,1,2.61-4.15h0a3.46,3.46,0,0,1,4.14,2.61h0a3.45,3.45,0,0,1-1.65,3.75h0A3.33,3.33,0,0,1,210.87,1505.33Zm-10.13,2.26a3.46,3.46,0,0,1-4.13-2.64h0a3.47,3.47,0,0,1,2.64-4.11h0a3.46,3.46,0,0,1,4.12,2.64h0a3.47,3.47,0,0,1-1.65,3.73h0A3.51,3.51,0,0,1,200.74,1507.59Zm-10.16,2.19a3.47,3.47,0,0,1-4.11-2.66h0a3.46,3.46,0,0,1,2.67-4.1h0a3.47,3.47,0,0,1,4.1,2.67h0a3.47,3.47,0,0,1-1.66,3.72h0A3.45,3.45,0,0,1,190.58,1509.78Zm-10.19,2.12a3.43,3.43,0,0,1-4.07-2.69h0a3.46,3.46,0,0,1,2.7-4.09h0a3.46,3.46,0,0,1,4.07,2.71h0a3.47,3.47,0,0,1-1.66,3.68h0A3.25,3.25,0,0,1,180.39,1511.9Zm-10.19,2a3.46,3.46,0,0,1-4.06-2.73h0a3.45,3.45,0,0,1,2.73-4h0a3.46,3.46,0,0,1,4.06,2.73h0a3.47,3.47,0,0,1-1.66,3.66h0A3.8,3.8,0,0,1,170.2,1513.94Zm-10.21,2h0a3.45,3.45,0,0,1-4-2.75h0a3.44,3.44,0,0,1,2.75-4h0a3.44,3.44,0,0,1,4,2.75h0a3.45,3.45,0,0,1-1.66,3.64h0A3.31,3.31,0,0,1,160,1515.91Zm-10.22,1.88v0h0a3.46,3.46,0,0,1-4-2.79h0a3.46,3.46,0,0,1,2.79-4h0a3.45,3.45,0,0,1,4,2.78h0a3.45,3.45,0,0,1-1.67,3.61h0A3.51,3.51,0,0,1,149.77,1517.79Zm-10.24,1.82a3.47,3.47,0,0,1-4-2.82h0a3.47,3.47,0,0,1,2.83-4h0a3.45,3.45,0,0,1,4,2.82h0a3.45,3.45,0,0,1-1.67,3.59h0A3.46,3.46,0,0,1,139.53,1519.61Zm-10.25,1.72a3.44,3.44,0,0,1-4-2.85h0a3.45,3.45,0,0,1,2.84-4h0a3.48,3.48,0,0,1,4,2.86h0a3.46,3.46,0,0,1-1.69,3.56h0A3.28,3.28,0,0,1,129.28,1521.33ZM119,1523a3.44,3.44,0,0,1-3.94-2.88h0a3.46,3.46,0,0,1,2.89-3.95h0a3.46,3.46,0,0,1,3.94,2.89h0a3.45,3.45,0,0,1-1.68,3.52h0A3.48,3.48,0,0,1,119,1523Zm-10.28,1.56a3.45,3.45,0,0,1-3.92-2.93h0a3.45,3.45,0,0,1,2.91-3.91h0a3.46,3.46,0,0,1,3.93,2.92h0a3.45,3.45,0,0,1-1.7,3.49h0A3.42,3.42,0,0,1,108.72,1524.53ZM98.42,1526a3.45,3.45,0,0,1-3.89-3h0a3.45,3.45,0,0,1,3-3.9h0a3.45,3.45,0,0,1,3.89,2.95h0a3.45,3.45,0,0,1-1.69,3.47h0A3.49,3.49,0,0,1,98.42,1526Zm-10.31,1.36h0a3.45,3.45,0,0,1-3.85-3h0a3.43,3.43,0,0,1,3-3.86h0a3.44,3.44,0,0,1,3.87,3h0a3.45,3.45,0,0,1-1.71,3.43h0A3.29,3.29,0,0,1,88.11,1527.35Zm-10.33,1.28h0a3.48,3.48,0,0,1-3.84-3h0a3.46,3.46,0,0,1,3-3.84h0a3.46,3.46,0,0,1,3.84,3h0a3.47,3.47,0,0,1-1.71,3.41h0A3.54,3.54,0,0,1,77.78,1528.63Zm-10.35,1.15h0a3.45,3.45,0,0,1-3.8-3.06h0a3.47,3.47,0,0,1,3.07-3.81h0a3.47,3.47,0,0,1,3.81,3.07h0a3.46,3.46,0,0,1-1.71,3.36h0A3.3,3.3,0,0,1,67.43,1529.78Zm-10.35,1.06a3.45,3.45,0,0,1-3.76-3.11h0a3.45,3.45,0,0,1,3.1-3.77h0a3.46,3.46,0,0,1,3.78,3.11h0a3.47,3.47,0,0,1-1.73,3.32h0A3.26,3.26,0,0,1,57.08,1530.84Zm-10.37.93a3.45,3.45,0,0,1-3.73-3.16h0a3.45,3.45,0,0,1,3.16-3.73h0a3.44,3.44,0,0,1,3.72,3.15h0a3.42,3.42,0,0,1-1.71,3.28h0A3.54,3.54,0,0,1,46.71,1531.77Zm-10.38.79a3.44,3.44,0,0,1-3.69-3.2h0a3.45,3.45,0,0,1,3.21-3.69h0a3.47,3.47,0,0,1,3.68,3.21h0a3.45,3.45,0,0,1-1.72,3.24h0A3.36,3.36,0,0,1,36.33,1532.56Z"/><path d="M522.38,1414.41a3.45,3.45,0,0,1-4.55-1.76h0a3.45,3.45,0,0,1,1.75-4.57h0a3.47,3.47,0,0,1,4.56,1.76h0a3.47,3.47,0,0,1-1.44,4.4h0A3.1,3.1,0,0,1,522.38,1414.41Zm-9.5,4.18h0a3.46,3.46,0,0,1-4.56-1.77h0a3.45,3.45,0,0,1,1.77-4.55h0a3.46,3.46,0,0,1,4.56,1.77h0a3.47,3.47,0,0,1-1.43,4.38h0Zm-9.52,4.15a3.44,3.44,0,0,1-4.54-1.79h0a3.45,3.45,0,0,1,1.8-4.55h0a3.45,3.45,0,0,1,4.54,1.8h0a3.46,3.46,0,0,1-1.44,4.37h0A2,2,0,0,1,503.36,1422.74Zm-9.55,4.1a3.44,3.44,0,0,1-4.53-1.83h0a3.46,3.46,0,0,1,1.83-4.53h0a3.46,3.46,0,0,1,4.53,1.83h0a3.47,3.47,0,0,1-1.45,4.34h0A1.93,1.93,0,0,1,493.81,1426.84Zm-9.58,4a3.45,3.45,0,0,1-4.52-1.86h0a3.47,3.47,0,0,1,1.86-4.52h0a3.46,3.46,0,0,1,4.52,1.86h0a3.47,3.47,0,0,1-1.45,4.33h0A3,3,0,0,1,484.23,1430.87Zm-9.6,4h0a3.43,3.43,0,0,1-4.5-1.89h0a3.43,3.43,0,0,1,1.88-4.5h0a3.46,3.46,0,0,1,4.51,1.88h0a3.44,3.44,0,0,1-1.47,4.3h0A2.74,2.74,0,0,1,474.63,1434.85Zm-9.62,3.92h0a3.46,3.46,0,0,1-4.5-1.92h0a3.44,3.44,0,0,1,1.91-4.49h0a3.46,3.46,0,0,1,4.49,1.92h0a3.45,3.45,0,0,1-1.47,4.28h0A4.51,4.51,0,0,1,465,1438.77Zm-9.65,3.85a3.47,3.47,0,0,1-4.49-1.95h0a3.45,3.45,0,0,1,1.94-4.48h0a3.46,3.46,0,0,1,4.49,2h0a3.45,3.45,0,0,1-1.48,4.26h0Zm-9.67,3.79h0a3.46,3.46,0,0,1-4.48-2h0a3.45,3.45,0,0,1,2-4.47h0a3.44,3.44,0,0,1,4.47,2h0a3.45,3.45,0,0,1-1.49,4.24h0Zm-9.71,3.73a3.46,3.46,0,0,1-4.46-2h0a3.46,3.46,0,0,1,2-4.47h0a3.47,3.47,0,0,1,4.47,2h0a3.48,3.48,0,0,1-1.5,4.22h0A4,4,0,0,1,436,1450.14Zm-9.71,3.68a3.48,3.48,0,0,1-4.46-2h0a3.46,3.46,0,0,1,2-4.45h0a3.45,3.45,0,0,1,4.44,2h0a3.45,3.45,0,0,1-1.5,4.21h0A3.11,3.11,0,0,1,426.27,1453.82Zm-9.75,3.6a3.46,3.46,0,0,1-4.44-2.05h0a3.46,3.46,0,0,1,2.06-4.43h0a3.45,3.45,0,0,1,4.44,2h0a3.48,3.48,0,0,1-1.52,4.19h0A3.28,3.28,0,0,1,416.52,1457.42Zm-9.77,3.56h0a3.45,3.45,0,0,1-4.43-2.07h0a3.48,3.48,0,0,1,2.08-4.44h0a3.46,3.46,0,0,1,4.42,2.08h0a3.47,3.47,0,0,1-1.52,4.16h0A3.72,3.72,0,0,1,406.75,1461Zm-9.79,3.48a3.44,3.44,0,0,1-4.4-2.1h0a3.45,3.45,0,0,1,2.11-4.41h0a3.45,3.45,0,0,1,4.41,2.11h0a3.47,3.47,0,0,1-1.53,4.14h0A3.91,3.91,0,0,1,397,1464.46Zm-9.8,3.44a3.47,3.47,0,0,1-4.4-2.15h0a3.45,3.45,0,0,1,2.14-4.39h0a3.48,3.48,0,0,1,4.4,2.14h0a3.49,3.49,0,0,1-1.54,4.13h0A4.75,4.75,0,0,1,387.16,1467.9Zm-9.83,3.36h0a3.46,3.46,0,0,1-4.39-2.16h0a3.46,3.46,0,0,1,2.16-4.39h0a3.45,3.45,0,0,1,4.38,2.15h0A3.48,3.48,0,0,1,378,1471h0A3.89,3.89,0,0,1,377.33,1471.26Zm-9.85,3.3a3.44,3.44,0,0,1-4.37-2.2h0a3.44,3.44,0,0,1,2.19-4.36h0a3.45,3.45,0,0,1,4.36,2.19h0a3.46,3.46,0,0,1-1.54,4.08h0A3.07,3.07,0,0,1,367.48,1474.56Zm-9.88,3.24a3.46,3.46,0,0,1-4.36-2.22h0a3.46,3.46,0,0,1,2.23-4.35h0a3.45,3.45,0,0,1,4.35,2.22h0a3.47,3.47,0,0,1-1.56,4.07h0A3.28,3.28,0,0,1,357.6,1477.8Zm-9.88,3.18a3.45,3.45,0,0,1-4.35-2.25h0a3.42,3.42,0,0,1,2.25-4.33h0a3.45,3.45,0,0,1,4.34,2.24h0a3.47,3.47,0,0,1-1.57,4h0A3.35,3.35,0,0,1,347.72,1481Zm-9.92,3.12a3.47,3.47,0,0,1-4.34-2.27h0a3.46,3.46,0,0,1,2.28-4.33h0a3.45,3.45,0,0,1,4.33,2.26h0a3.46,3.46,0,0,1-1.58,4h0A2.86,2.86,0,0,1,337.8,1484.1Zm-9.94,3.05a3.46,3.46,0,0,1-4.32-2.29h0a3.48,3.48,0,0,1,2.32-4.32h0a3.44,3.44,0,0,1,4.3,2.3h0a3.45,3.45,0,0,1-1.57,4h0A2.82,2.82,0,0,1,327.86,1487.15Zm-9.95,3a3.43,3.43,0,0,1-4.29-2.32h0a3.42,3.42,0,0,1,2.32-4.29h0a3.42,3.42,0,0,1,4.29,2.32h0a3.45,3.45,0,0,1-1.57,4h0A3.29,3.29,0,0,1,317.91,1490.14Zm-10,2.94a3.46,3.46,0,0,1-4.28-2.36h0a3.47,3.47,0,0,1,2.36-4.29h0a3.45,3.45,0,0,1,4.27,2.36h0a3.45,3.45,0,0,1-1.59,4h0A3.71,3.71,0,0,1,307.94,1493.08Zm-10,2.86a3.44,3.44,0,0,1-4.26-2.39h0a3.43,3.43,0,0,1,2.38-4.26h0a3.44,3.44,0,0,1,4.26,2.38h0a3.46,3.46,0,0,1-1.59,3.94h0A3.46,3.46,0,0,1,298,1495.94Zm-10,2.79a3.43,3.43,0,0,1-4.25-2.4h0a3.44,3.44,0,0,1,2.41-4.25h0a3.45,3.45,0,0,1,4.25,2.4h0a3.46,3.46,0,0,1-1.6,3.92h0A3.21,3.21,0,0,1,287.94,1498.73Zm-10,2.74h0a3.45,3.45,0,0,1-4.24-2.43h0a3.47,3.47,0,0,1,2.44-4.25h0a3.45,3.45,0,0,1,4.23,2.44h0a3.45,3.45,0,0,1-1.61,3.9h0A3.53,3.53,0,0,1,277.92,1501.47Zm-10.05,2.67a3.45,3.45,0,0,1-4.22-2.47h0a3.47,3.47,0,0,1,2.48-4.22h0a3.47,3.47,0,0,1,4.21,2.46h0a3.45,3.45,0,0,1-1.61,3.87h0A3.26,3.26,0,0,1,267.87,1504.14Zm-10.06,2.6a3.44,3.44,0,0,1-4.2-2.49h0a3.45,3.45,0,0,1,2.49-4.2h0a3.45,3.45,0,0,1,4.21,2.49h0a3.47,3.47,0,0,1-1.62,3.85h0A3.37,3.37,0,0,1,257.81,1506.74Zm-10.08,2.54a3.46,3.46,0,0,1-4.19-2.53h0a3.46,3.46,0,0,1,2.52-4.18h0a3.46,3.46,0,0,1,4.19,2.53h0a3.43,3.43,0,0,1-1.62,3.82h0A3.26,3.26,0,0,1,247.73,1509.28Zm-10.1,2.47a3.45,3.45,0,0,1-4.16-2.56h0A3.44,3.44,0,0,1,236,1505h0a3.45,3.45,0,0,1,4.17,2.54h0a3.47,3.47,0,0,1-1.64,3.81h0A3.55,3.55,0,0,1,237.63,1511.75Zm-10.1,2.4h0a3.44,3.44,0,0,1-4.15-2.58h0a3.46,3.46,0,0,1,2.58-4.15h0a3.47,3.47,0,0,1,4.15,2.58h0a3.47,3.47,0,0,1-1.63,3.79h0A3.83,3.83,0,0,1,227.53,1514.15Zm-10.14,2.33a3.45,3.45,0,0,1-4.12-2.61h0a3.46,3.46,0,0,1,2.6-4.14h0a3.46,3.46,0,0,1,4.13,2.61h0a3.44,3.44,0,0,1-1.64,3.76h0A3.77,3.77,0,0,1,217.39,1516.48Zm-10.13,2.26h0a3.44,3.44,0,0,1-4.11-2.63h0a3.44,3.44,0,0,1,2.63-4.11h0a3.45,3.45,0,0,1,4.11,2.64h0a3.44,3.44,0,0,1-1.65,3.73h0A3.92,3.92,0,0,1,207.26,1518.74Zm-10.18,2.19h0a3.46,3.46,0,0,1-4.09-2.67h0a3.45,3.45,0,0,1,2.66-4.09h0a3.45,3.45,0,0,1,4.1,2.66h0a3.46,3.46,0,0,1-1.66,3.71h0A3.6,3.6,0,0,1,197.08,1520.93Zm-10.17,2.1a3.45,3.45,0,0,1-4.08-2.68h0a3.47,3.47,0,0,1,2.7-4.09h0a3.45,3.45,0,0,1,4.07,2.71h0a3.47,3.47,0,0,1-1.65,3.68h0A3.17,3.17,0,0,1,186.91,1523Zm-10.2,2a3.46,3.46,0,0,1-4.06-2.73h0a3.47,3.47,0,0,1,2.73-4.06h0a3.45,3.45,0,0,1,4.06,2.73h0a3.45,3.45,0,0,1-1.67,3.65h0A3.64,3.64,0,0,1,176.71,1525.08Zm-10.21,2a3.48,3.48,0,0,1-4-2.77h0a3.46,3.46,0,0,1,2.77-4h0a3.45,3.45,0,0,1,4,2.75h0a3.49,3.49,0,0,1-1.67,3.65h0A3.72,3.72,0,0,1,166.5,1527.05Zm-10.22,1.88a3.45,3.45,0,0,1-4-2.79h0a3.45,3.45,0,0,1,2.78-4h0a3.47,3.47,0,0,1,4,2.79h0a3.47,3.47,0,0,1-1.68,3.62h0A3.42,3.42,0,0,1,156.28,1528.93Zm-10.24,1.8h0a3.45,3.45,0,0,1-4-2.81h0a3.45,3.45,0,0,1,2.81-4h0a3.47,3.47,0,0,1,4,2.82h0a3.48,3.48,0,0,1-1.68,3.59h0A3.29,3.29,0,0,1,146,1530.73Zm-10.25,1.73h0a3.47,3.47,0,0,1-4-2.85h0a3.48,3.48,0,0,1,2.85-4h0a3.48,3.48,0,0,1,4,2.86h0A3.47,3.47,0,0,1,137,1532h0A3.42,3.42,0,0,1,135.79,1532.46Zm-10.27,1.64a3.46,3.46,0,0,1-4-2.89h0a3.46,3.46,0,0,1,2.89-3.94h0a3.44,3.44,0,0,1,3.94,2.88h0a3.45,3.45,0,0,1-1.69,3.53h0A3.45,3.45,0,0,1,125.52,1534.1Zm-10.29,1.54a3.42,3.42,0,0,1-3.91-2.91h0a3.45,3.45,0,0,1,2.91-3.92h0a3.46,3.46,0,0,1,3.92,2.91h0a3.48,3.48,0,0,1-1.69,3.51h0A3.37,3.37,0,0,1,115.23,1535.64Zm-10.3,1.47h0a3.47,3.47,0,0,1-3.9-2.95h0a3.47,3.47,0,0,1,3-3.9h0a3.46,3.46,0,0,1,3.89,3h0a3.44,3.44,0,0,1-1.7,3.46h0A3.55,3.55,0,0,1,104.93,1537.11Zm-10.32,1.36h0a3.44,3.44,0,0,1-3.85-3h0a3.46,3.46,0,0,1,3-3.87h0a3.46,3.46,0,0,1,3.87,3h0a3.49,3.49,0,0,1-1.7,3.45h0A3.37,3.37,0,0,1,94.61,1538.47Zm-10.32,1.27a3.47,3.47,0,0,1-3.84-3h0a3.48,3.48,0,0,1,3-3.84h0a3.45,3.45,0,0,1,3.83,3h0a3.44,3.44,0,0,1-1.7,3.4h0A3.48,3.48,0,0,1,84.29,1539.74Zm-10.35,1.16h0a3.46,3.46,0,0,1-3.8-3.08h0a3.46,3.46,0,0,1,3.08-3.8h0a3.47,3.47,0,0,1,3.8,3.08h0a3.44,3.44,0,0,1-1.71,3.35h0A3.36,3.36,0,0,1,73.94,1540.9Zm-10.36,1a3.45,3.45,0,0,1-3.76-3.11h0a3.47,3.47,0,0,1,3.12-3.77h0a3.44,3.44,0,0,1,3.76,3.11h0A3.44,3.44,0,0,1,65,1541.5h0A3.34,3.34,0,0,1,63.58,1541.94Zm-10.36.93a3.47,3.47,0,0,1-3.73-3.15h0a3.44,3.44,0,0,1,3.15-3.74h0a3.45,3.45,0,0,1,3.73,3.15h0a3.45,3.45,0,0,1-1.72,3.29h0A3.64,3.64,0,0,1,53.22,1542.87Z"/><path d="M528.35,1424.87a3.45,3.45,0,0,1-4.55-1.77h0a3.42,3.42,0,0,1,1.76-4.55h0a3.45,3.45,0,0,1,4.56,1.75h0a3.45,3.45,0,0,1-1.43,4.39h0A3.65,3.65,0,0,1,528.35,1424.87Zm-9.49,4.18h0a3.44,3.44,0,0,1-4.55-1.77h0a3.43,3.43,0,0,1,1.77-4.55h0a3.45,3.45,0,0,1,4.56,1.77h0a3.46,3.46,0,0,1-1.44,4.38h0A2.16,2.16,0,0,1,518.86,1429.05Zm-9.52,4.16a3.46,3.46,0,0,1-4.55-1.8h0a3.45,3.45,0,0,1,1.8-4.54h0a3.46,3.46,0,0,1,4.55,1.8h0a3.44,3.44,0,0,1-1.45,4.36h0A3.84,3.84,0,0,1,509.34,1433.21Zm-9.55,4.1a3.46,3.46,0,0,1-4.53-1.83h0a3.45,3.45,0,0,1,1.83-4.53h0a3.46,3.46,0,0,1,4.53,1.83h0a3.48,3.48,0,0,1-1.44,4.35h0A2.76,2.76,0,0,1,499.79,1437.31Zm-9.57,4a3.47,3.47,0,0,1-4.52-1.86h0a3.45,3.45,0,0,1,1.85-4.52h0a3.47,3.47,0,0,1,4.53,1.85h0a3.46,3.46,0,0,1-1.46,4.32h0C490.49,1441.23,490.36,1441.29,490.22,1441.36Zm-9.6,4h0a3.45,3.45,0,0,1-4.51-1.88h0a3.44,3.44,0,0,1,1.89-4.51h0a3.45,3.45,0,0,1,4.5,1.88h0a3.46,3.46,0,0,1-1.46,4.31h0A3.23,3.23,0,0,1,480.62,1445.33Zm-9.63,3.92h0a3.44,3.44,0,0,1-4.49-1.91h0a3.45,3.45,0,0,1,1.91-4.5h0a3.47,3.47,0,0,1,4.5,1.92h0a3.45,3.45,0,0,1-1.47,4.28h0A3.1,3.1,0,0,1,471,1449.25Zm-9.63,3.86h0a3.46,3.46,0,0,1-4.5-1.94h0a3.45,3.45,0,0,1,1.94-4.48h0a3.46,3.46,0,0,1,4.49,1.94h0a3.46,3.46,0,0,1-1.49,4.27h0A3.55,3.55,0,0,1,461.36,1453.11Zm-9.68,3.81h0a3.46,3.46,0,0,1-4.47-2h0a3.45,3.45,0,0,1,2-4.48h0a3.47,3.47,0,0,1,4.48,2h0a3.47,3.47,0,0,1-1.5,4.25h0A5.14,5.14,0,0,1,451.68,1456.92Zm-9.69,3.73a3.46,3.46,0,0,1-4.47-2h0a3.46,3.46,0,0,1,2-4.46h0a3.47,3.47,0,0,1,4.47,2h0a3.46,3.46,0,0,1-1.51,4.22h0A3.58,3.58,0,0,1,442,1460.65Zm-9.73,3.69h0a3.44,3.44,0,0,1-4.45-2h0a3.45,3.45,0,0,1,2-4.44h0a3.46,3.46,0,0,1,4.45,2h0a3.47,3.47,0,0,1-1.5,4.21h0A5.12,5.12,0,0,1,432.26,1464.34Zm-9.74,3.61a3.46,3.46,0,0,1-4.43-2.06h0a3.45,3.45,0,0,1,2-4.43h0a3.46,3.46,0,0,1,4.44,2h0a3.44,3.44,0,0,1-1.5,4.18h0A3.1,3.1,0,0,1,422.52,1468Zm-9.76,3.55a3.45,3.45,0,0,1-4.42-2.08h0a3.45,3.45,0,0,1,2.08-4.42h0a3.48,3.48,0,0,1,4.43,2.09h0a3.46,3.46,0,0,1-1.52,4.16h0A3.2,3.2,0,0,1,412.76,1471.5ZM403,1475a3.46,3.46,0,0,1-4.42-2.09h0a3.47,3.47,0,0,1,2.11-4.42h0a3.46,3.46,0,0,1,4.41,2.11h0a3.46,3.46,0,0,1-1.53,4.14h0A2.94,2.94,0,0,1,403,1475Zm-9.82,3.45a3.47,3.47,0,0,1-4.39-2.13h0a3.46,3.46,0,0,1,2.14-4.41h0a3.47,3.47,0,0,1,4.4,2.13h0a3.48,3.48,0,0,1-1.55,4.13h0A5.62,5.62,0,0,1,393.16,1478.44Zm-9.82,3.37a3.48,3.48,0,0,1-4.39-2.16h0a3.46,3.46,0,0,1,2.16-4.39h0a3.46,3.46,0,0,1,4.39,2.16h0a3.46,3.46,0,0,1-1.54,4.1h0A4.39,4.39,0,0,1,383.34,1481.81Zm-9.85,3.3a3.44,3.44,0,0,1-4.37-2.19h0a3.45,3.45,0,0,1,2.19-4.37h0a3.45,3.45,0,0,1,4.36,2.19h0a3.46,3.46,0,0,1-1.55,4.09h0A3.55,3.55,0,0,1,373.49,1485.11Zm-9.87,3.26a3.47,3.47,0,0,1-4.36-2.23h0a3.45,3.45,0,0,1,2.21-4.35h0a3.46,3.46,0,0,1,4.37,2.22h0a3.46,3.46,0,0,1-1.57,4.06h0A5.56,5.56,0,0,1,363.62,1488.37Zm-9.9,3.18h0a3.46,3.46,0,0,1-4.34-2.24h0a3.46,3.46,0,0,1,2.24-4.34h0a3.46,3.46,0,0,1,4.36,2.23h0a3.49,3.49,0,0,1-1.57,4h0A3.89,3.89,0,0,1,353.72,1491.55Zm-9.9,3.12h0a3.44,3.44,0,0,1-4.33-2.27h0a3.47,3.47,0,0,1,2.26-4.33h0a3.46,3.46,0,0,1,4.33,2.28h0a3.43,3.43,0,0,1-1.56,4h0A2.93,2.93,0,0,1,343.82,1494.67Zm-9.93,3.06a3.45,3.45,0,0,1-4.32-2.29h0a3.46,3.46,0,0,1,2.3-4.32h0a3.45,3.45,0,0,1,4.31,2.3h0a3.47,3.47,0,0,1-1.57,4h0A4.19,4.19,0,0,1,333.89,1497.73Zm-9.95,3h0a3.46,3.46,0,0,1-4.3-2.32h0a3.47,3.47,0,0,1,2.33-4.3h0a3.45,3.45,0,0,1,4.3,2.32h0a3.46,3.46,0,0,1-1.58,4h0A4.46,4.46,0,0,1,323.94,1500.74Zm-10,2.92a3.44,3.44,0,0,1-4.28-2.34h0A3.44,3.44,0,0,1,312,1497h0a3.45,3.45,0,0,1,4.28,2.36h0a3.45,3.45,0,0,1-1.59,3.95h0A3.69,3.69,0,0,1,314,1503.66Zm-10,2.88a3.47,3.47,0,0,1-4.27-2.39h0a3.45,3.45,0,0,1,2.38-4.26h0a3.45,3.45,0,0,1,4.27,2.37h0a3.46,3.46,0,0,1-1.59,3.94h0A3.49,3.49,0,0,1,304,1506.54Zm-10,2.8a3.46,3.46,0,0,1-4.25-2.4h0a3.45,3.45,0,0,1,2.41-4.26h0a3.45,3.45,0,0,1,4.25,2.41h0a3.45,3.45,0,0,1-1.6,3.91h0A2.9,2.9,0,0,1,294,1509.34Zm-10,2.74h0a3.47,3.47,0,0,1-4.24-2.43h0a3.44,3.44,0,0,1,2.44-4.23v0a3.47,3.47,0,0,1,4.24,2.44h0a3.47,3.47,0,0,1-1.6,3.91h0A3.35,3.35,0,0,1,284,1512.08Zm-10,2.68a3.46,3.46,0,0,1-4.23-2.46h0a3.47,3.47,0,0,1,2.47-4.23h0a3.45,3.45,0,0,1,4.22,2.47h0a3.46,3.46,0,0,1-1.61,3.87h0A3.54,3.54,0,0,1,273.91,1514.76Zm-10.07,2.61a3.46,3.46,0,0,1-4.2-2.5h0a3.47,3.47,0,0,1,2.49-4.2h0a3.47,3.47,0,0,1,4.21,2.49h0a3.45,3.45,0,0,1-1.63,3.85h0A3.39,3.39,0,0,1,263.84,1517.37Zm-10.07,2.54h0a3.44,3.44,0,0,1-4.18-2.52h0a3.46,3.46,0,0,1,2.52-4.19h0a3.47,3.47,0,0,1,4.19,2.52h0a3.46,3.46,0,0,1-1.62,3.83h0A3.53,3.53,0,0,1,253.77,1519.91Zm-10.1,2.48a3.47,3.47,0,0,1-4.17-2.55h0a3.49,3.49,0,0,1,2.55-4.18h0a3.44,3.44,0,0,1,4.16,2.54h0a3.45,3.45,0,0,1-1.63,3.81h0A3.55,3.55,0,0,1,243.67,1522.39Zm-10.1,2.4h0a3.44,3.44,0,0,1-4.15-2.58h0a3.42,3.42,0,0,1,2.57-4.14h0a3.44,3.44,0,0,1,4.15,2.57h0a3.45,3.45,0,0,1-1.63,3.78h0A3.35,3.35,0,0,1,233.57,1524.79Zm-10.14,2.34h0a3.45,3.45,0,0,1-4.13-2.6h0a3.45,3.45,0,0,1,2.61-4.14h0A3.45,3.45,0,0,1,226,1523h0a3.47,3.47,0,0,1-1.64,3.77h0A3.62,3.62,0,0,1,223.43,1527.13Zm-10.14,2.26a3.43,3.43,0,0,1-4.11-2.62h0a3.47,3.47,0,0,1,2.63-4.13h0a3.46,3.46,0,0,1,4.12,2.64h0a3.46,3.46,0,0,1-1.65,3.73h0A3.28,3.28,0,0,1,213.29,1529.39Zm-10.16,2.2h0a3.45,3.45,0,0,1-4.09-2.68h0a3.43,3.43,0,0,1,2.66-4.09h0a3.45,3.45,0,0,1,4.09,2.67h0a3.44,3.44,0,0,1-1.65,3.7h0A3.42,3.42,0,0,1,203.13,1531.59ZM193,1533.71h0a3.46,3.46,0,0,1-4.08-2.68h0a3.46,3.46,0,0,1,2.7-4.09h0a3.45,3.45,0,0,1,4.07,2.69h0a3.44,3.44,0,0,1-1.65,3.69h0A3.11,3.11,0,0,1,193,1533.71Zm-10.19,2h0a3.46,3.46,0,0,1-4.06-2.72h0a3.46,3.46,0,0,1,2.73-4.06h0a3.46,3.46,0,0,1,4.06,2.72h0a3.47,3.47,0,0,1-1.67,3.66h0A3.15,3.15,0,0,1,182.76,1535.76Zm-10.21,2a3.45,3.45,0,0,1-4-2.75h0a3.44,3.44,0,0,1,2.75-4h0a3.44,3.44,0,0,1,4,2.75h0a3.44,3.44,0,0,1-1.67,3.63h0A3.55,3.55,0,0,1,172.55,1537.73Zm-10.21,1.9a3.47,3.47,0,0,1-4-2.79h0a3.45,3.45,0,0,1,2.79-4h0a3.46,3.46,0,0,1,4,2.78h0a3.48,3.48,0,0,1-1.67,3.61h0A3.52,3.52,0,0,1,162.34,1539.63Zm-10.25,1.82a3.47,3.47,0,0,1-4-2.82h0a3.44,3.44,0,0,1,2.82-4h0a3.45,3.45,0,0,1,4,2.81h0a3.45,3.45,0,0,1-1.68,3.58h0A3.62,3.62,0,0,1,152.09,1541.45Zm-10.25,1.73a3.47,3.47,0,0,1-4-2.85h0a3.48,3.48,0,0,1,2.85-4h0a3.46,3.46,0,0,1,4,2.85h0a3.47,3.47,0,0,1-1.68,3.55h0A3.57,3.57,0,0,1,141.84,1543.18Zm-10.27,1.64a3.46,3.46,0,0,1-3.95-2.88h0a3.46,3.46,0,0,1,2.89-3.94h0a3.44,3.44,0,0,1,4,2.88h0a3.46,3.46,0,0,1-1.69,3.53h0A3.48,3.48,0,0,1,131.57,1544.82Zm-10.28,1.56a3.45,3.45,0,0,1-3.92-2.91h0a3.44,3.44,0,0,1,2.91-3.92h0a3.45,3.45,0,0,1,3.92,2.91h0a3.45,3.45,0,0,1-1.69,3.51h0A3.52,3.52,0,0,1,121.29,1546.38Zm-10.3,1.48a3.48,3.48,0,0,1-3.9-2.95h0a3.47,3.47,0,0,1,3-3.9h0a3.45,3.45,0,0,1,3.9,3h0a3.44,3.44,0,0,1-1.69,3.46h0A3.57,3.57,0,0,1,111,1547.86Zm-10.32,1.36h0a3.45,3.45,0,0,1-3.87-3h0a3.46,3.46,0,0,1,3-3.87h0a3.46,3.46,0,0,1,3.87,3h0a3.46,3.46,0,0,1-1.7,3.44h0A3.33,3.33,0,0,1,100.67,1549.22Zm-10.32,1.28a3.43,3.43,0,0,1-3.83-3h0a3.44,3.44,0,0,1,3-3.83h0a3.45,3.45,0,0,1,3.83,3h0a3.48,3.48,0,0,1-1.7,3.41h0A3.36,3.36,0,0,1,90.35,1550.5ZM80,1551.67a3.46,3.46,0,0,1-3.81-3.06h0a3.47,3.47,0,0,1,3.07-3.81h0a3.45,3.45,0,0,1,3.8,3.06h0a3.44,3.44,0,0,1-1.7,3.37h0A3.46,3.46,0,0,1,80,1551.67Zm-10.35,1.07h0a3.45,3.45,0,0,1-3.76-3.11h0a3.45,3.45,0,0,1,3.1-3.77h0a3.46,3.46,0,0,1,3.78,3.11h0a3.48,3.48,0,0,1-1.72,3.33h0A3.56,3.56,0,0,1,69.66,1552.74Z"/><path class="cls-6" d="M934.26,284.2c14.83-6.91,29.64-13.1,44.39-19.38s29.44-12.44,44-18.91c3.66-1.56,7.25-3.24,10.87-4.87s7.22-3.31,10.8-5,7.14-3.44,10.73-5.12,7.12-3.5,10.63-5.33a415.73,415.73,0,0,0,41.51-24.1,118.45,118.45,0,0,1-16.54,18.22,178.84,178.84,0,0,1-19.4,15.21,233.49,233.49,0,0,1-21,12.82c-3.59,2-7.25,3.79-10.9,5.65s-7.38,3.52-11.11,5.17a344.16,344.16,0,0,1-46,16.49c-7.84,2.19-15.75,4.11-23.74,5.69A204.55,204.55,0,0,1,934.26,284.2Z"/><g class="cls-13"><path d="M1270.69,702.8s-10.43-37.23,22.64-68.82,71.71-69.3,77.22-106.69,21,19.54,21.48,37.2,8.59,65.71-36.71,89.46S1276.67,730.84,1270.69,702.8Z"/></g><g class="cls-5"><path d="M1542,718.38s-73.82,25.51-239.59,138.32-539.36,364.87-539.36,364.87S1162,1016.28,1326.72,901.74,1542,718.38,1542,718.38Z"/></g><g class="cls-12"><path d="M512.75,1239.72s-47,3.83-104.46,33.16-193,101.17-237.16,120.25,199.41-63.44,248.41-87.43S512.75,1239.72,512.75,1239.72Z"/></g><path class="cls-6" d="M614.25,219.24s103.09-5.64,125,11.63C739.28,230.87,677.89,244.07,614.25,219.24Z"/><path d="M1007.62,1183.73q-71.39,41.22-152.3,85.8c-220.09,121-405.3,206.91-550.47,255.21-137.25,45.65-200.24,44.73-225.58,40.12-41.53-7.56-68.34-42-76.49-72.72-5.21-19.65-3-36.92,5.82-47.45-1.91-9.71-5.75-33.89-3-60.41,4.68-45.71,26.61-76.21,63.46-88.3,9.08-7,75.05-58.17,157.34-141.21,81.33-82.08,195.72-212.93,278.76-370.22,51.77-98.07,82.42-176.93,91.09-234.39,7.29-48.31-3.22-69-10.13-77.09a82.82,82.82,0,0,1-19.44-42.18c-7.49-52.91-18.19-152.92-5.85-229,.38-6.62,3.66-17.85,20.51-23,9.11-2.76,19.71-3,26.72-3.21,2.14-.06,4-.1,5.23-.21a7.54,7.54,0,0,1,.82,0c2.34,0,57.58,1.23,81.65,2.66l4.33.22c23.53,1.14,72.5,3.52,109.85,43.44a141.6,141.6,0,0,1,22.8,33c148.52-31.33,205.06-69.92,234-89.65,3.48-2.37,6.48-4.41,9.25-6.18,10.66-6.81,20.43-8.43,29-4.79,9.21,3.92,14,12.77,16.21,18.79,7.5,1.64,19.86,7.38,35.55,25.62,18.4,21.41,73.09,76.07,89.52,92.42l0,0a8,8,0,0,1,10.9,1.7c.08.1,7.86,10,13.17,15.56a26.75,26.75,0,0,0,2.48,2.37c10.42,5.15,29.56,17,47.22,40.34a19.73,19.73,0,0,1,8-1.81,17.33,17.33,0,0,1,12.65,5.51l.25.26c7.72,7.91,24.93,25.54,35.44,44.7a14.41,14.41,0,0,1,2.69.51c2.93.86,7.07,3.09,10.11,8.91.89,1.56,7.64,11.06,14.78,21.12,52.15,73.44,101,144.82,110.57,176.19a28.26,28.26,0,0,1,12,3.61c9.53,5.35,16.36,15.93,20.33,31.44l69.57,100.1c7.55,8.67,12.7,26.61-3.33,41.94-6.71,6.43-68.09,57.68-197.78,146.15C1327.21,989.54,1191.12,1077.79,1007.62,1183.73ZM59.83,1317.61C3,1350.45,25,1444.32,25.23,1445.35a8.07,8.07,0,0,1-2.65,8.08c-6.65,5.57-8.3,19.15-4.21,34.58,6.84,25.82,29.22,54.69,63.79,61,19.17,3.49,78.76,6.61,217.6-39.57,144.25-48,328.55-133.45,547.79-254C1109,1111.61,1295.6,991.58,1406.09,916.2c127.14-86.72,189.53-138.54,195.72-144.47,4.69-4.48,6.39-9,5.22-13.74a16.78,16.78,0,0,0-3-6.12,9,9,0,0,1-.67-.83l-70.69-101.71a7.9,7.9,0,0,1-1.22-2.73c-2.73-11.42-7.1-19.19-12.64-22.48a11.7,11.7,0,0,0-8.34-1.56,7.73,7.73,0,0,1-6.93-.86,8,8,0,0,1-3.51-6.28c-.4-5.69-6.42-23.47-42.31-78.66-23.21-35.68-50.61-74.27-67-97.33-11-15.5-14.86-21-15.92-23-.11-.22-.21-.39-.3-.54a8,8,0,0,1-10.07-4.13c-8.82-18.72-27.93-38.3-35.12-45.67l-.25-.25c-.64-.65-.92-.65-1-.65-1.31,0-3.54,1.64-4.2,2.33a8.08,8.08,0,0,1-12.5-1.05c-16.84-24.81-35.93-36.67-45.82-41.54l-.19-.09c-1.88-.95-3.86-2.59-6.66-5.51-3.05-3.18-6.69-7.48-9.53-10.94a8.07,8.07,0,0,1-9.56-1.33c-3-2.95-73-72.37-95.11-98-16.42-19.09-26.65-20.5-28.33-20.6a7,7,0,0,1-5.75-1c-1.95-1.17-2.84-3.22-3.29-5.45-.57-2.68-3.37-10.93-8.5-13.07-4.2-1.77-9.92.95-14,3.54-2.57,1.64-5.47,3.62-8.83,5.92-33.63,22.94-103.59,70.7-303.38,104.06l-.14,0c-65.58,9.75-97.56,21.45-110.37,40.38-11.76,17.38-8.65,43.59.7,83,.91,3.85,2.83,11.61,3.11,12.73l3,10.66a8.06,8.06,0,0,1-15.51,4.42l-3.08-10.79c0-.09,0-.18-.07-.27s-2.19-8.83-3.18-13c-10.39-43.76-13.45-73.46,1.63-95.75,15.84-23.4,49.85-36.66,121.28-47.28q24.54-4.1,46.46-8.46a123.53,123.53,0,0,0-18.12-25.29c-32.9-35.16-77.45-37.32-98.86-38.36-1.63-.08-3.14-.15-4.49-.23-22.75-1.35-75.61-2.52-80.66-2.63-1.61.12-3.51.17-5.69.22-16.19.41-31.22,2.05-31.54,11.18a8.8,8.8,0,0,1-.1,1c-12.12,74-1.55,172.51,5.82,224.62a66.72,66.72,0,0,0,15.71,33.94C609,475,620,500.63,612.16,552.56,603.22,611.82,572,692.4,519.38,792.08c-84,159.15-199.61,291.37-281.79,374.27-89,89.81-159.25,142.81-159.95,143.34a8,8,0,0,1-2.44,1.24A76.38,76.38,0,0,0,59.83,1317.61Z"/><path class="cls-14" d="M566.49,828.69a13.59,13.59,0,0,1-8.72,1.69c-22.56-3.2-58.85-6.4-68.9-3.53a13.64,13.64,0,0,1-7.5-26.22c19.19-5.49,70.2,1.32,80.23,2.74a13.64,13.64,0,0,1,4.89,25.32Z"/><path d="M569.37,833.68a19.45,19.45,0,0,1-12.41,2.4c-25.65-3.63-58.5-6-66.5-3.69a19.4,19.4,0,1,1-10.67-37.3c19.81-5.66,68.24.54,82.62,2.58a19.4,19.4,0,0,1,7,36Zm-88.2-26.75a7.89,7.89,0,0,0-3.62,9,7.88,7.88,0,0,0,9.74,5.41c12.91-3.7,55.84,1.17,71.29,3.35a7.74,7.74,0,0,0,5-1,7.87,7.87,0,0,0-2.82-14.62c-27.14-3.85-63.81-6.92-77.84-2.91A7.83,7.83,0,0,0,481.17,806.93Z"/><path class="cls-14" d="M614.16,746.13a13.56,13.56,0,0,1-9.43,1.57c-17.86-3.47-51.59-6.92-66.13-1.38a13.64,13.64,0,1,1-9.72-25.48c26.56-10.13,75.58-1,81.08.1a13.63,13.63,0,0,1,4.2,25.19Z"/><path d="M617,751.12a19.4,19.4,0,0,1-13.42,2.24c-18.49-3.61-50.25-6.5-63-1.65a19.4,19.4,0,1,1-13.81-36.25c28.06-10.71,78.56-1.29,84.23-.17a19.39,19.39,0,0,1,6,35.83Zm-87.26-24.35a7.88,7.88,0,0,0,6.77,14.17c17.64-6.73,56-1.48,69.28,1.11a7.88,7.88,0,1,0,3-15.46c-19.36-3.79-57.56-8.13-77.93-.36A7.56,7.56,0,0,0,529.78,726.77Z"/><path class="cls-14" d="M668.7,638.94a13.64,13.64,0,0,1-12.05.79c-1.58-.64-35.51-13.92-64.84,10.47a13.64,13.64,0,0,1-17.44-21c42.38-35.24,90.74-15.53,92.78-14.67a13.64,13.64,0,0,1,1.55,24.38Z"/><path d="M671.58,643.92a19.23,19.23,0,0,1-17.13,1.13c-1.27-.51-32.19-12.67-59,9.58a19.4,19.4,0,1,1-24.81-29.83c45-37.42,96.52-16.47,98.69-15.56a19.39,19.39,0,0,1,2.2,34.68Zm-73.61-5c29.31-16.92,59.44-5.07,60.85-4.5a7.87,7.87,0,1,0,6.1-14.52c-1.91-.8-47.17-19.21-86.87,13.79a7.88,7.88,0,1,0,10.09,12.1A71.24,71.24,0,0,1,598,638.89Z"/><polygon class="cls-15" points="530.12 828.68 530.13 828.68 530.12 828.68 530.12 828.68"/><path class="cls-11" d="M732.77,547.42s12.06,33.72-29.58,47.5-97.8,42.21-104.74,98.67-22.26,109.49-68.32,135.09c30.49-3,39.21,35.17,56,83.21,2.13,6.08,6.78,13.5,13.31,21.87h0c65.2-56.86,72.1-110.21,81.41-151.35s11.77-79.35,97.81-119.18c69.92-30.94,68.69-85.55,63.47-111.49C802,551.32,761,550.39,732.77,547.42Z"/><g class="cls-9"><path class="cls-6" d="M655.42,765.87s4.08,37.24-26.73,72.79C628.69,838.66,622.93,799.16,655.42,765.87Z"/></g><g class="cls-9"><path class="cls-6" d="M667.3,648.45s-8.15,25.53-41,40.3C626.3,688.75,633.91,661.27,667.3,648.45Z"/></g><path d="M732.77,547.42a36.16,36.16,0,0,1,1.08,23.41,33.26,33.26,0,0,1-5.58,10.9,43.1,43.1,0,0,1-8.85,8.58,58.15,58.15,0,0,1-10.63,6.08c-.92.45-1.87.79-2.8,1.18s-1.9.76-2.78,1.09c-1.79.68-3.58,1.37-5.36,2.09Q687.17,605,676.92,610c-13.62,6.77-26.63,14.68-38,24.34-2.85,2.41-5.56,4.94-8.19,7.54a108,108,0,0,0-7.35,8.25,89.17,89.17,0,0,0-11.72,18.42,84.53,84.53,0,0,0-6.78,20.62l-.88,5.41-.81,5.82c-.57,3.88-1.14,7.77-1.84,11.63-2.73,15.48-6.34,30.91-11.82,45.81s-12.74,29.27-22.68,41.72a109.51,109.51,0,0,1-16.75,16.8c-1.57,1.19-3.1,2.43-4.74,3.52l-2.42,1.69-2.49,1.56a98.41,98.41,0,0,1-10.33,5.51c1.59-1.14,3.21-2.19,4.76-3.36s3.1-2.3,4.56-3.57l2.23-1.83,2.15-1.93c1.45-1.25,2.78-2.64,4.15-4a113.06,113.06,0,0,0,14.31-17.75c8.31-12.69,14.27-26.75,18.66-41.27a308.44,308.44,0,0,0,9.62-44.67c.55-3.78,1.08-7.58,1.56-11.38l.69-5.72c.27-2,.56-4.06.88-6.09a95,95,0,0,1,7.58-23.51c7.12-15,18.16-27.6,30.71-37.66s26.64-17.9,41.16-24.13c7.28-3.09,14.68-5.84,22.18-8.19,1.87-.6,3.75-1.17,5.63-1.73,1-.28,1.84-.56,2.72-.83s1.79-.52,2.64-.86a54.68,54.68,0,0,0,10-4.61,37.73,37.73,0,0,0,8.55-6.74,31.7,31.7,0,0,0,6-9.13,34.2,34.2,0,0,0,2.67-10.87A37.88,37.88,0,0,0,732.77,547.42Z"/><g class="cls-7"><path d="M1093.78,625.31s.09-102.35-210-87.14-213.34-48.9-213.34-48.9.31,73,103.24,79.22S1052.43,548.08,1093.78,625.31Z"/></g><path class="cls-8" d="M1318,362s-36.51,51.6-83,109.65c-36.46,45.47-79.06,94.89-115,126.49h0a242.1,242.1,0,0,1-28,21.62c-35.52-72-89.46-64.47-143.33-66.67-47.35-2-151.75.23-210.23-5.1-8.07-.74-15.26-1.62-21.31-2.67-46.42-8.09-55.16-89.23-58.46-118.84-.25-2.25-.47-4.19-.67-5.78-2.85-22.73-9.86-48.19,38-63,6.47-2,18.61-4.05,34.92-6.09,104.32-13.07,378.91-26.1,427.58-28.25,56.29-2.5,86.8-22,86.8-22l5.53-3.77s14.14,18.08,18.12,20.05c.78.37,2.31,1.11,4.42,2.29C1282.12,324.82,1301.15,337.19,1318,362Z"/><g class="cls-12"><path d="M1318,362s-36.51,51.6-83,109.65c-36.46,45.47-79.06,94.89-115,126.49,219.24-245.53,160-244.08,144.73-254.95s-100.88,16.35-170.81,17.45-312.25,26.29-363.08,28.8-38.07,40.69-31.6,85.25C703.86,507,726.35,535,738.33,548c-8.07-.74-15.26-1.62-21.31-2.67-49.92-8.7-56.27-101.9-59.13-124.62s-9.86-48.19,38-63,406.21-31.85,462.5-34.34,86.8-22,86.8-22l5.53-3.77s14.14,18.08,18.12,20.05S1297.13,331.25,1318,362Z"/></g><g class="cls-9"><path class="cls-6" d="M749.06,380.6c5.2-2.27,10.42-4.12,15.66-5.85s10.48-3.29,15.73-4.72q15.76-4.27,31.62-7.23a538.29,538.29,0,0,1,63.66-8,532.09,532.09,0,0,1,64.16-.62q16.11.84,32.3,3,8.1,1.08,16.23,2.6c5.41,1,10.84,2.17,16.3,3.74-5.2,2.28-10.43,4.14-15.66,5.87s-10.48,3.31-15.73,4.74q-15.76,4.29-31.62,7.24a536,536,0,0,1-63.67,8,540.45,540.45,0,0,1-64.16.56q-16.11-.84-32.3-3c-5.4-.72-10.8-1.57-16.22-2.59S754.51,382.16,749.06,380.6Z"/></g><path class="cls-8" d="M589,917.53a4,4,0,0,1-4.7-6.5c4.32-3.87,8.46-7.81,12.31-11.73a4,4,0,0,1,5.76,5.64c-4,4-8.24,8.12-12.69,12.1A4.49,4.49,0,0,1,589,917.53Zm24.13-24.69a4,4,0,0,1-5.1-6.09c3.68-4.38,7.16-8.88,10.34-13.39A4,4,0,1,1,625,878c-3.31,4.7-6.93,9.39-10.76,13.94A4.14,4.14,0,0,1,613.14,892.84ZM633,864.61a4,4,0,0,1-5.52-5.5c2.77-4.85,5.35-9.91,7.66-15a4,4,0,1,1,7.35,3.31c-2.41,5.36-5.11,10.65-8,15.73A4.07,4.07,0,0,1,633,864.61Zm14.2-31.44a4,4,0,0,1-5.83-4.81c1.77-5.11,3.38-10.42,4.94-16.25a4,4,0,0,1,7.79,2.08c-1.61,6-3.28,11.52-5.11,16.81A4,4,0,0,1,647.17,833.17Zm9.08-33.32a4,4,0,0,1-6-4.37c.61-2.73,1.19-5.43,1.77-8.11l.11-.48c.6-2.81,1.2-5.58,1.81-8.29a4,4,0,1,1,7.87,1.75q-.9,4-1.8,8.24l-.11.48q-.87,4-1.78,8.17A4,4,0,0,1,656.25,799.85Zm7.39-33.76a4,4,0,0,1-2.89.44,4,4,0,0,1-3.06-4.8c1-4.66,2.44-10.79,4.23-17a4,4,0,0,1,7.75,2.22c-1.72,6-3.1,12-4.11,16.53A4,4,0,0,1,663.64,766.09Zm9.8-33.09a4,4,0,0,1-5.75-5,127.39,127.39,0,0,1,7.91-16,4,4,0,0,1,7,4.08,118.27,118.27,0,0,0-7.41,15A4.09,4.09,0,0,1,673.44,733Zm17.41-29.69a4,4,0,0,1-5.18-6,145.22,145.22,0,0,1,11.88-13.19,4,4,0,0,1,5.66,5.75A134.72,134.72,0,0,0,692,702.32,4.11,4.11,0,0,1,690.85,703.31Zm24.47-24.25a4,4,0,0,1-4.52-6.65c4.4-3.51,9.18-7,14.21-10.37a4,4,0,1,1,4.49,6.69c-4.85,3.25-9.45,6.61-13.67,10A3.48,3.48,0,0,1,715.32,679.06ZM784,639.29c-3,1.73-6.21,3.4-9.54,5A4,4,0,0,1,771,637a116.3,116.3,0,0,0,14.56-8.15,4,4,0,0,1,4.46,6.72C788.1,636.83,786.07,638.09,784,639.29Zm-24.84,12.27-.19.11c-5.23,2.64-10.28,5.37-15,8.1a4,4,0,0,1-4-7h0c4.87-2.8,10.05-5.6,15.4-8.31a4,4,0,0,1,3.84,7.09Zm44.09-26.69a4,4,0,0,1-4.84-6.37,66,66,0,0,0,10.11-12.71,4,4,0,0,1,6.9,4.18,74.13,74.13,0,0,1-11.35,14.27A3.81,3.81,0,0,1,803.24,624.87Zm17.56-29.3a4,4,0,0,1-5.9-4.57,64.09,64.09,0,0,0,1.67-8.07,72.11,72.11,0,0,0,.65-8,4,4,0,1,1,8.06.2,81.09,81.09,0,0,1-.72,8.92,72.94,72.94,0,0,1-1.89,9.12A4,4,0,0,1,820.8,595.57Zm1.07-34.26a4,4,0,0,1-6-2.76c-.38-2.07-.83-4.12-1.35-6.11a4,4,0,0,1,7.8-2.05c.57,2.18,1.07,4.44,1.48,6.7A4,4,0,0,1,821.87,561.31Z"/><path class="cls-8" d="M569,833.52a4,4,0,0,1-4.78-6.42,129,129,0,0,0,11.38-12.27,4,4,0,1,1,6.25,5.08A136.53,136.53,0,0,1,569.79,833,3.72,3.72,0,0,1,569,833.52Zm21.79-26.69a4,4,0,0,1-5.43-5.64,158.08,158.08,0,0,0,8.18-14.72,4,4,0,0,1,7.24,3.55,168.33,168.33,0,0,1-8.6,15.47A4,4,0,0,1,590.82,806.83Zm15.26-30.94A4,4,0,0,1,600.3,771c2-5.1,3.78-10.51,5.44-16.08a4,4,0,1,1,7.73,2.31c-1.72,5.76-3.61,11.36-5.64,16.65A3.94,3.94,0,0,1,606.08,775.89ZM616,742.82a4,4,0,0,1-5.95-4.4c1.23-5.31,2.38-10.94,3.42-16.73a4,4,0,1,1,7.93,1.42c-1.06,5.92-2.23,11.68-3.49,17.12A4,4,0,0,1,616,742.82Zm6.14-34a4,4,0,0,1-6-4.05c.41-3,.8-5.94,1.15-8.86a69.28,69.28,0,0,1,1.63-8.64,4,4,0,0,1,7.81,2,62.74,62.74,0,0,0-1.43,7.64c-.37,3-.75,6-1.17,9A4,4,0,0,1,622.16,708.82Zm9.12-33.05a4,4,0,0,1-5.54-5.46,82.32,82.32,0,0,1,10.58-14.71,4,4,0,0,1,6,5.37,74.26,74.26,0,0,0-9.56,13.28A4.13,4.13,0,0,1,631.28,675.77Zm97.47-62.71a87.49,87.49,0,0,1-13.91,6.46,4,4,0,0,1-2.78-7.57,81.25,81.25,0,0,0,12.58-5.83c.76-.45,1.48-.88,2.19-1.32a4,4,0,1,1,4.29,6.83C730.35,612.11,729.56,612.59,728.75,613.06Zm15.56-12.28a4,4,0,0,1-5-6.24,52.63,52.63,0,0,0,8.75-12.68l.25-.52a4,4,0,0,1,7.29,3.44l-.3.62A60.36,60.36,0,0,1,745.25,600,4.19,4.19,0,0,1,744.31,600.78ZM699.2,625.05a3.94,3.94,0,0,1-.55.26c-5.44,2.13-10.68,4.4-15.57,6.75a4,4,0,1,1-3.5-7.26c5.08-2.45,10.51-4.8,16.13-7a4,4,0,0,1,3.49,7.25ZM653.94,650a4,4,0,0,1-4.52-6.65A139.6,139.6,0,0,1,664,633.19a4,4,0,0,1,4.18,6.9,131.23,131.23,0,0,0-13.78,9.55A5.5,5.5,0,0,1,653.94,650Zm104.94-79.93a4,4,0,0,1-6-4,57.93,57.93,0,0,0-.12-16.1,4,4,0,0,1,8-1.17,66.08,66.08,0,0,1,.13,18.36A4.05,4.05,0,0,1,758.88,570.05Z"/><path class="cls-11" d="M1112.43,608.82l-.15.09a4,4,0,0,1-5.44-1.71c-1.22-2.34-2.49-4.65-3.76-6.85-1.54-2.66-3.13-5.26-4.75-7.74a4,4,0,0,1,6.76-4.4c1.69,2.59,3.36,5.32,5,8.1,1.33,2.31,2.65,4.71,3.93,7.15A4,4,0,0,1,1112.43,608.82ZM1093.49,580a4,4,0,0,1-5.11-.91A124.32,124.32,0,0,0,1076.86,567a4,4,0,1,1,5.45-6,133.5,133.5,0,0,1,12.27,12.91,4,4,0,0,1-.52,5.68A3.6,3.6,0,0,1,1093.49,580Zm-25.44-23.21a4,4,0,0,1-4.27-.14,110.88,110.88,0,0,0-14.47-8.24,4,4,0,0,1,3.44-7.29,118.82,118.82,0,0,1,15.54,8.84,4,4,0,0,1,1.09,5.6A4,4,0,0,1,1068.05,556.78ZM1037,542a4.05,4.05,0,0,1-3.21.36,139.92,139.92,0,0,0-16.31-4,4,4,0,0,1,1.46-7.93,146.81,146.81,0,0,1,17.24,4.21A4,4,0,0,1,1037,542Zm-33.89-6.43a4,4,0,0,1-2.39.53c-5.1-.48-10.67-.84-17-1.09A4,4,0,1,1,984,527c6.5.26,12.22.62,17.46,1.12a4,4,0,0,1,1.64,7.5Zm-36.62-1c-5.7-.12-11.49-.25-17.1-.48h-.18a4.06,4.06,0,0,1-3.9-4.19,4,4,0,0,1,4.15-3.87h.2c5.59.23,11.34.36,16.9.48l0,4ZM934,533a4,4,0,0,1-2.09.53c-5-.1-10.69-.19-17.25-.26a4,4,0,0,1,.1-8.07c6.58.08,12.25.17,17.31.27A4,4,0,0,1,934,533Zm-34.56-.43a4,4,0,0,1-2,.54L880.11,533a4,4,0,1,1,0-8.06l17.29.11a4,4,0,0,1,2,7.53Zm358.49-207.3c-1.45.84-3.09,1.73-4.87,2.64a4,4,0,0,1-3.67-7.19c2.06-1.05,3.59-1.9,4.51-2.43s1.4-.83,1.55-.93l8.13-5.55a4,4,0,0,1,4.55,6.66l-8.23,5.62C1259.62,324.29,1259,324.69,1257.92,325.3Zm-20.5,9.5a3.43,3.43,0,0,1-.58.27c-5.33,2-10.95,3.92-16.7,5.59a4,4,0,1,1-2.25-7.74c5.54-1.61,10.95-3.42,16.07-5.38a4,4,0,0,1,3.46,7.26Zm-33.15,9.68a4.3,4.3,0,0,1-1.18.45c-5.64,1.19-11.45,2.21-17.29,3a4,4,0,1,1-1.13-8c5.66-.8,11.29-1.79,16.75-2.94a4,4,0,0,1,2.85,7.44ZM864.86,532.37a4,4,0,0,1-2,.53l-17.3-.14a4,4,0,0,1,.08-8.07l17.28.15a4,4,0,0,1,2,7.53Zm305.21-183a4.13,4.13,0,0,1-1.71.53c-2.89.21-5.84.39-8.74.52l-8.65.39a4,4,0,0,1-.36-8.06l8.65-.39c2.82-.12,5.68-.29,8.49-.51a4,4,0,0,1,2.32,7.52ZM830.27,532a4,4,0,0,1-2.07.54c-5.79-.08-11.58-.18-17.31-.29a4,4,0,0,1,.16-8.07c5.71.12,11.48.21,17.26.29a4,4,0,0,1,2,7.53Zm305.25-181a4,4,0,0,1-1.83.53l-17.28.82a4,4,0,0,1-.38-8.06l17.28-.82a4,4,0,0,1,2.21,7.53ZM795.7,531.32a4,4,0,0,1-2.13.53c-6.05-.17-11.88-.37-17.33-.59a4,4,0,0,1,.33-8.06c5.41.22,11.21.42,17.23.59a4,4,0,0,1,1.9,7.53ZM1101,352.68a4.11,4.11,0,0,1-1.82.53l-17.27.86a4,4,0,0,1-.41-8.05l17.29-.87a4,4,0,0,1,2.21,7.53Zm-34.56,1.74a4.07,4.07,0,0,1-1.8.54l-17.28.9a4,4,0,1,1-.42-8.05l17.28-.91a4,4,0,0,1,2.22,7.52ZM761.15,529.89a4,4,0,0,1-2.25.53c-6.33-.37-12.17-.79-17.37-1.25a4,4,0,0,1,.71-8c5.12.45,10.88.86,17.13,1.23a4,4,0,0,1,1.78,7.52Zm270.69-173.63a4.15,4.15,0,0,1-1.8.53l-17.22.94a4,4,0,1,1-.45-8.05l17.24-.94a4,4,0,0,1,2.23,7.52ZM726.72,526.69a4,4,0,0,1-2.61.49c-1.33-.2-2.61-.4-3.84-.62A25.89,25.89,0,0,1,706.53,519a4,4,0,1,1,5.68-5.73,18,18,0,0,0,9.45,5.37c1.16.2,2.38.4,3.64.59a4,4,0,0,1,1.42,7.48ZM997.34,358.17a4,4,0,0,1-1.78.54q-8.64.48-17.29,1a4,4,0,1,1-.46-8.05l17.29-1a4,4,0,0,1,2.24,7.52Zm-34.56,2a4,4,0,0,1-1.77.53l-17.26,1a4,4,0,0,1-.5-8.05l17.28-1a4,4,0,0,1,2.25,7.52ZM701.69,505.4l-.23.13a4,4,0,0,1-5.4-1.83,122.94,122.94,0,0,1-6.58-16.6,4,4,0,1,1,7.68-2.47,114.34,114.34,0,0,0,6.13,15.5A4,4,0,0,1,701.69,505.4ZM928.25,362.3a4,4,0,0,1-1.76.53l-17.26,1.1a4,4,0,1,1-.52-8L926,354.78a4,4,0,0,1,2.27,7.52Zm-34.53,2.24a4.12,4.12,0,0,1-1.75.53q-8.72.57-17.25,1.17a4,4,0,0,1-.56-8.05L891.44,357a4,4,0,0,1,2.28,7.52ZM690.8,472.69a4.51,4.51,0,0,1-1.11.44,4,4,0,0,1-4.83-3c-1.23-5.32-2.39-11.1-3.43-17.16a4,4,0,1,1,7.94-1.37c1,5.92,2.15,11.54,3.34,16.72A4,4,0,0,1,690.8,472.69ZM859.19,366.92a4.13,4.13,0,0,1-1.72.53q-8.78.62-17.25,1.25a4,4,0,1,1-.6-8l17.27-1.26a4,4,0,0,1,2.3,7.52Zm-34.51,2.57a4,4,0,0,1-1.7.53q-8.84.68-17.24,1.37a4,4,0,0,1-.66-8q8.42-.69,17.27-1.38a4,4,0,0,1,2.33,7.52ZM684.83,438.67a4,4,0,0,1-6-3c-.46-3.49-.9-7.12-1.31-10.81-.27-2.47-.51-4.62-.73-6.38a4,4,0,0,1,8-1c.22,1.79.47,4,.75,6.49.4,3.63.83,7.22,1.29,10.65A4.07,4.07,0,0,1,684.83,438.67Zm105.35-66.34a4,4,0,0,1-1.66.52c-6,.52-11.72,1-17.21,1.56a4,4,0,1,1-.76-8q8.28-.78,17.27-1.57a4,4,0,0,1,2.36,7.52Zm-34.47,3.27a4,4,0,0,1-1.59.51c-6.24.65-12,1.3-17.15,1.92a4,4,0,1,1-1-8c5.19-.62,11-1.27,17.28-1.93a4,4,0,0,1,2.43,7.51Zm-74.85,28.74a4.06,4.06,0,0,1-1.9.53,4,4,0,0,1-4.14-3.91c-.12-4,.31-7,1.34-9.35,1.3-3,4.06-5.82,8.23-8.43a4,4,0,1,1,4.28,6.84c-3.62,2.26-4.76,4-5.11,4.8a14.84,14.84,0,0,0-.68,5.91A4.05,4.05,0,0,1,680.86,404.34Zm40.48-24.51a4.14,4.14,0,0,1-1.41.49,126.35,126.35,0,0,0-16,3.21l-.36.11a4,4,0,1,1-2.39-7.7l.36-.11a129,129,0,0,1,17.18-3.48,4,4,0,0,1,2.63,7.48Z"/><path d="M599.47,933.76c14.14-14.09,27.37-29,38.07-45.59a211.27,211.27,0,0,0,25.26-52.86c3-9.33,5.38-18.81,7.47-28.46l6.09-29.21c2-9.68,3.94-19.63,6.89-29.56A115.54,115.54,0,0,1,696,719.46a113.63,113.63,0,0,1,9.42-12.64,127.1,127.1,0,0,1,10.94-11.19,179.88,179.88,0,0,1,24.76-18.4,269.83,269.83,0,0,1,26.8-14.48c2.29-1.09,4.61-2.12,6.91-3.18l3.4-1.54,3.34-1.49c2.24-1,4.35-2.1,6.54-3.14s4.24-2.3,6.35-3.47a112.69,112.69,0,0,0,22.84-17.44,84,84,0,0,0,9.34-10.93,80.36,80.36,0,0,0,7.4-12.36,89,89,0,0,0,8.3-27.84,103.58,103.58,0,0,0,.87-14.75,116,116,0,0,0-1.07-14.87A103.06,103.06,0,0,1,845,566.5a104.51,104.51,0,0,1,.57,15.13,90.14,90.14,0,0,1-6.31,29.87,83.5,83.5,0,0,1-7.08,13.75,91.61,91.61,0,0,1-9.32,12.41l-1.29,1.46-1.34,1.4c-.91.92-1.8,1.87-2.74,2.76-1.91,1.73-3.78,3.54-5.8,5.15a130.9,130.9,0,0,1-12.47,9.16c-2.19,1.35-4.38,2.71-6.61,4s-4.48,2.54-6.77,3.65l-6.8,3.34c-2.19,1.09-4.39,2.16-6.57,3.28A288.06,288.06,0,0,0,747,686.46c-16.25,10.59-31.21,23.22-41.25,39.16a105.13,105.13,0,0,0-11.63,25.78c-2.89,9.16-4.85,18.8-7.12,28.58l-3.38,14.56c-1.09,4.86-2.28,9.75-3.49,14.63a269.1,269.1,0,0,1-8.86,29.06A198.4,198.4,0,0,1,658.72,866L655,872.61c-1.29,2.19-2.73,4.28-4.09,6.41-2.65,4.32-5.74,8.34-8.73,12.41A230.4,230.4,0,0,1,599.47,933.76Z"/><g class="cls-13"><path d="M1228.56,377.1S1155.4,583.66,980.7,501c-103.35-50.13-55.25-107.21,89-81.29C1154,427.87,1247.5,337.46,1228.56,377.1Z"/></g><g class="cls-16"><path class="cls-6" d="M494.35,805s36.68-1.65,54.8,4.56C549.15,809.56,516.27,812.23,494.35,805Z"/></g><g class="cls-7"><path d="M625.4,858.58s-20.59,17.76-48.13-10S522.43,789.91,518,774.27c0,0,8.84-18.54,18-9.55S578.85,835.12,625.4,858.58Z"/></g><path d="M1091.38,620a176.56,176.56,0,0,0-9.75-15.65l-1.3-1.89-1.39-1.83c-.93-1.21-1.84-2.44-2.79-3.63l-3-3.49c-1-1.18-2.06-2.24-3.07-3.37a97.51,97.51,0,0,0-13.51-12,92.89,92.89,0,0,0-15.47-9.09c-10.87-5-22.66-7.75-34.64-9.19s-24.24-1.55-36.57-1.72c-6.17-.06-12.37-.1-18.6-.24s-12.3-.3-18.48-.35c-12.31-.21-24.67-.23-37-.27s-24.72-.09-37.09-.23c-6.19-.06-12.38-.11-18.56-.28l-18.57-.47c-24.76-.83-49.53-2-74.28-4.4-3.09-.33-6.18-.61-9.27-1l-9.28-1.17c-1.54-.17-3.09-.44-4.63-.7l-4.63-.77a43.47,43.47,0,0,1-4.68-.93,33,33,0,0,1-4.7-1.39,47.59,47.59,0,0,1-16.43-10.16,71.67,71.67,0,0,1-11.85-14.89A112.68,112.68,0,0,1,673.46,504c-2.32-5.81-4.27-11.75-6-17.73a304,304,0,0,1-7.89-36.46c-1-6.13-1.83-12.29-2.59-18.44l-1.19-9.18c-.4-3-.9-6.06-1.35-9.15-.9-6.16-1.64-12.53-1.06-19.11a37,37,0,0,1,2.14-9.75,39,39,0,0,1,2-4.64,41.21,41.21,0,0,1,2.76-4.25,42.45,42.45,0,0,1,6.89-7.27,63.77,63.77,0,0,1,8.08-5.61,97,97,0,0,1,17.55-7.91c1.48-.55,3-1,4.63-1.42s3.16-.91,4.69-1.21l4.65-1c1.55-.34,3.08-.59,4.63-.88l4.62-.83,4.62-.73c3.08-.48,6.16-1,9.24-1.39,24.63-3.46,49.29-5.84,74-8.12,49.33-4.51,98.69-8,148.09-10.92,49.41-2.67,98.83-4.93,148.29-6.46,12.36-.43,24.72-.75,37.09-1.07l18.55-.46c6.17-.1,12.23-.34,18.33-.85a231.31,231.31,0,0,0,36.2-5.81c5.95-1.46,11.84-3.19,17.63-5.23a118.4,118.4,0,0,0,16.88-7.26l0,0a.57.57,0,0,1,.78.23.56.56,0,0,1-.2.76c-10.57,6.72-22.22,11.38-34.1,15.18a219.39,219.39,0,0,1-36.6,8c-6.18.83-12.47,1.4-18.65,1.82l-18.5,1.25-37,2.51c-49.34,3.38-98.68,6.44-148,9.67l-74,4.58q-37,2.28-73.93,4.92c-24.62,1.84-49.24,3.81-73.69,6.45-3.06.3-6.1.69-9.14,1.06l-4.57.57-4.52.66c-1.5.23-3,.4-4.52.67l-4.45.78c-1.51.23-2.91.59-4.32.92s-2.84.65-4.29,1.11a89.51,89.51,0,0,0-16.51,6.62,57,57,0,0,0-7.35,4.64,36.63,36.63,0,0,0-6.09,5.9,34.27,34.27,0,0,0-2.43,3.43,31.54,31.54,0,0,0-4,12,54.62,54.62,0,0,0-.37,8.8c.14,3,.4,6,.75,9.06s.75,6.12,1.07,9.23l.9,9.25c.63,6.13,1.34,12.25,2.19,18.34a262.56,262.56,0,0,0,7.39,36.08c3.33,11.77,7.81,23.3,14.24,33.57a63.6,63.6,0,0,0,11.49,13.77,41.88,41.88,0,0,0,15.13,8.77,27.85,27.85,0,0,0,4.23,1.06,37.82,37.82,0,0,0,4.44.69l4.54.57c1.52.19,3,.38,4.56.49l9.17.76c3.07.2,6.15.33,9.21.5l4.61.24,4.62.15,9.23.29c6.16.12,12.32.25,18.49.31,12.33.13,24.67.16,37,.16s24.7,0,37.06.08,24.72.09,37.08.29,24.75.33,37.16.68c3.1.06,6.21.2,9.32.35l9.28.42c6.12.29,12.28.48,18.47.69,12.38.39,24.92,1,37.42,3a138.71,138.71,0,0,1,18.58,4.15,104,104,0,0,1,17.72,7.21A91.5,91.5,0,0,1,1059.79,574a101.58,101.58,0,0,1,13.36,13.44c8.09,9.69,14.2,20.71,19.26,32a.58.58,0,0,1-.29.76.57.57,0,0,1-.73-.24Z"/><path class="cls-14" d="M623.12,859.9a13.62,13.62,0,0,1-15.89-1.63c-2.07-1.84-50.82-45.41-71.45-73.24a609.36,609.36,0,0,1-34.86-52.53,13.64,13.64,0,0,1,5-18.63h0a13.65,13.65,0,0,1,18.63,5,592.17,592.17,0,0,0,33.15,49.93c19,25.6,67.2,68.69,67.68,69.12a13.63,13.63,0,0,1,1.11,19.25A13.39,13.39,0,0,1,623.12,859.9Z"/><path d="M626,864.89a19.36,19.36,0,0,1-22.61-2.32c-2.08-1.85-51.2-45.73-72.24-74.11a616.69,616.69,0,0,1-35.22-53.08A19.39,19.39,0,0,1,529.52,716a591.93,591.93,0,0,0,32.8,49.38c18.5,25,66.41,67.82,66.89,68.25A19.4,19.4,0,0,1,626,864.89Zm-117.21-146a7.89,7.89,0,0,0-2.88,10.76,602.8,602.8,0,0,0,34.5,52C560.74,809,609,852.15,611.06,854a7.86,7.86,0,0,0,9.18.95,8,8,0,0,0,1.94-1.59,7.88,7.88,0,0,0-.64-11.12c-2-1.79-49.28-44.09-68.48-70a599.75,599.75,0,0,1-33.51-50.48A7.89,7.89,0,0,0,508.79,718.86Z"/><g class="cls-16"><path class="cls-6" d="M587,724.47s-29.36-5.31-50.13,1.06C536.84,725.53,572.7,727.41,587,724.47Z"/></g><g class="cls-7"><path d="M653.52,760s-45.16,27.93-93.42-63.93l15.41-27.81S602.57,730.24,653.52,760Z"/></g><path class="cls-14" d="M650.25,762.62a13.64,13.64,0,0,1-16-1.72c-8.21-7.47-80.18-74.59-77-130a13.64,13.64,0,0,1,27.23,1.53c-2,36.09,48.52,90.45,68.17,108.35a13.63,13.63,0,0,1,.91,19.26A13.37,13.37,0,0,1,650.25,762.62Z"/><path d="M653.13,767.61a19.32,19.32,0,0,1-22.74-2.45c-8.43-7.66-82.21-76.5-78.93-134.64a19.4,19.4,0,1,1,38.73,2.19c-1.7,30,39.77,79.59,66.3,103.76a19.4,19.4,0,0,1-3.36,31.14ZM566.9,624.78a7.67,7.67,0,0,0-1.32,1,7.83,7.83,0,0,0-2.62,5.43c-3,52.81,67.17,118.19,75.18,125.47A7.88,7.88,0,0,0,648.74,745c-.73-.67-72.66-66.74-70.06-112.93a7.88,7.88,0,0,0-11.78-7.28Z"/><path class="cls-14" d="M729.67,662.78a13.62,13.62,0,0,1-17.7-3.63c-.28-.37-28.33-37.54-50.51-54.35l-2.89-2.19c-53.32-40.4-68.79-54.29-72-64.64a13.63,13.63,0,0,1,25.71-9c5.84,8.83,47.08,40.07,62.71,51.91l2.89,2.2c25.24,19.12,54.6,58.06,55.84,59.7a13.64,13.64,0,0,1-2.71,19.09A12.37,12.37,0,0,1,729.67,662.78ZM612.69,530h0Z"/><path d="M732.55,667.77a19.4,19.4,0,0,1-25.19-5.16c-.27-.36-27.88-36.92-49.38-53.22l-2.89-2.19c-55.79-42.26-70.31-55.52-74-67.54a19.4,19.4,0,0,1,36.3-13.49c4.21,5.72,24.75,22.57,61.11,50.11l2.89,2.2c25.9,19.62,55.71,59.16,57,60.83a19.43,19.43,0,0,1-3.86,27.16A20.28,20.28,0,0,1,732.55,667.77ZM595.72,527.16a7.91,7.91,0,0,0-3.6,9.13c2.67,8.73,19,23.15,69.93,61.73l2.89,2.19c22.8,17.28,51.35,55.1,51.63,55.48a7.87,7.87,0,0,0,10.22,2.1,8.27,8.27,0,0,0,.82-.54,7.88,7.88,0,0,0,1.55-11c-1.21-1.62-30.08-39.91-54.71-58.57l-2.89-2.2c-28.51-21.59-58.41-44.82-64-53.33l-.15-.23-.11,0-.29-.86a7.92,7.92,0,0,0-9.63-4.63A8.2,8.2,0,0,0,595.72,527.16ZM612.8,530l5.6-.8Zm-5.64,1.61h0Z"/><path class="cls-14" d="M619.51,501.16a13.64,13.64,0,0,1-17.46-20.35c18.58-23.15,103.3-76.28,112.89-82.27l.41-.24a13.64,13.64,0,0,1,14,23.39c-34.74,21.65-94.25,61.49-106,76.19A13.6,13.6,0,0,1,619.51,501.16Z"/><path d="M622.39,506.15a19.4,19.4,0,0,1-24.83-28.94c18.78-23.41,98.54-73.71,114.34-83.55.16-.11.36-.23.57-.35a19.4,19.4,0,0,1,19.95,33.27c-37,23-93.85,61.51-104.61,74.91A19.36,19.36,0,0,1,622.39,506.15Zm95.84-102.86-.2.12c-34.56,21.54-96.88,62.8-111.49,81a7.88,7.88,0,0,0,10.09,11.75,8,8,0,0,0,2.2-1.89c13.79-17.19,82.27-61.76,107.49-77.48a7.87,7.87,0,0,0-8.09-13.51Z"/><path class="cls-14" d="M746.48,506.3a13.66,13.66,0,0,1-3.92,1.52c-1.16.25-28.62,6.18-60.44,9.62-45.63,4.93-75.55,2.21-91.5-8.31a13.64,13.64,0,0,1,15-22.76c18.29,12.08,87.68,4.23,131.11-5.2a13.64,13.64,0,0,1,9.72,25.13Z"/><path d="M749.36,511.29a19.42,19.42,0,0,1-5.58,2.16c-1.17.25-29.06,6.26-61,9.72-47,5.08-78.19,2.06-95.29-9.24a19.4,19.4,0,1,1,21.38-32.37c14.64,9.67,77.34,4.7,126.71-6a19.4,19.4,0,0,1,13.82,35.75ZM594.19,490.92a8,8,0,0,0-2.63,2.49,7.87,7.87,0,0,0,2.24,10.91c14.57,9.62,44.08,12.11,87.7,7.39,31.38-3.39,58.69-9.27,59.84-9.52a8,8,0,0,0,2.26-.88A7.88,7.88,0,0,0,738,486.79c-29.76,6.47-112.1,19.84-135.51,4.39a7.8,7.8,0,0,0-5.92-1.15A8.05,8.05,0,0,0,594.19,490.92Z"/><path class="cls-14" d="M475.76,977.24a13.59,13.59,0,0,1-10,1.46l-69-16.48a13.64,13.64,0,1,1,6.34-26.53l69,16.48a13.63,13.63,0,0,1,3.65,25.07Z"/><path d="M478.64,982.23a19.3,19.3,0,0,1-14.2,2.07l-69-16.48a19.4,19.4,0,1,1,9-37.73l69,16.48a19.39,19.39,0,0,1,14.36,23.37A19.47,19.47,0,0,1,478.64,982.23ZM396,942.14a7.88,7.88,0,0,0,2.11,14.48l69,16.47a7.88,7.88,0,0,0,3.66-15.32l-69-16.47A7.86,7.86,0,0,0,396,942.14Z"/><path class="cls-14" d="M437,1021.79a13.63,13.63,0,0,1-15-.91c-5.95-4.49-57.83-45-44.73-84.47A13.64,13.64,0,0,1,403.08,945c-5.49,16.54,21.39,43.59,35.27,54.1a13.64,13.64,0,0,1-1.4,22.69Z"/><path d="M439.83,1026.78a19.37,19.37,0,0,1-21.37-1.3c-6.3-4.75-61.1-47.6-46.74-90.88a19.4,19.4,0,0,1,36.82,12.22c-3.84,11.57,17.25,35.54,33.29,47.69a19.43,19.43,0,0,1,3.77,27.16A19.19,19.19,0,0,1,439.83,1026.78Zm-53.64-92.89a7.82,7.82,0,0,0-3.53,4.34c-12,36.26,40.49,76.36,42.73,78a7.85,7.85,0,0,0,8.68.53,7.72,7.72,0,0,0,2.34-2.07,7.91,7.91,0,0,0-1.54-11c-12.74-9.65-44.29-39.33-37.26-60.5a7.87,7.87,0,0,0-11.42-9.3Z"/><path class="cls-14" d="M500.57,899.65a13.62,13.62,0,0,1-12.62.54c-4.84-.94-22.36.48-38.22,3.15a13.64,13.64,0,0,1-4.52-26.9c43.51-7.31,52.46-2.09,55.4-.37a13.63,13.63,0,0,1,0,23.58Zm-12.27.62h0Zm-1.43-.64h0Z"/><path d="M503.45,904.64a19.42,19.42,0,0,1-17.14,1.13c-4.17-.47-19.22.49-35.63,3.25a19.4,19.4,0,0,1-6.43-38.26c40.39-6.78,52.89-3.38,59.27.33a19.4,19.4,0,0,1-.07,33.55Zm-13.81-10,.11,0,.65.3a7.87,7.87,0,0,0,7.31-13.93c-8.34-4.87-32.63-2.1-51.54,1.07a7.87,7.87,0,0,0-3.27,14.18,7.79,7.79,0,0,0,5.88,1.36c14.86-2.5,34-4.35,40.27-3.12l.31.06.06-.13.25.13Z"/><g class="cls-7"><path d="M804.94,1104.19S647.44,979.8,612.14,912.74c-12.26-30.13-54.47-116.77-96.58-71,0,0,32.48-1,43,36.12,16.1,57.17,28.68,103.91,233.91,233.57C797.14,1114.4,800,1101.1,804.94,1104.19Z"/></g><path class="cls-11" d="M798.16,1108.39S604,962.74,586.16,911.89s-26.53-90.65-61.6-82.26-26,45.74-43.66,81.38-54.49,77.46-104.18,126.67c-35.55,34.21,5.79,63.36,17.26,66.44,14.28,4.63,185.48,64.73,230.45,107.4,58-32.87,116.29-67.61,173.73-103.13Z"/><path d="M797.73,1108.77s-.19-.11-.33-.2l-.4-.28-.81-.55-1.62-1.12-3.23-2.25-6.45-4.51-12.79-9.18q-12.75-9.24-25.33-18.71t-25-19.17q-12.4-9.72-24.63-19.65c-8.18-6.6-16.23-13.35-24.23-20.17S657,999.25,649.16,992.2s-15.49-14.28-23-21.68-15-14.95-22-23c-3.5-4-6.92-8.13-10.17-12.44a102,102,0,0,1-9-13.76,54.79,54.79,0,0,1-3.53-7.93L579,905.88q-2.47-7.49-4.83-15c-3.19-9.95-6.4-19.86-10.24-29.35a106.21,106.21,0,0,0-6.61-13.65,54.3,54.3,0,0,0-4.18-6.07,32.29,32.29,0,0,0-5-5.12,23.15,23.15,0,0,0-6-3.61,21.79,21.79,0,0,0-6.76-1.68,31.65,31.65,0,0,0-7.2.18,46,46,0,0,0-7.21,1.68,33.75,33.75,0,0,0-6.7,3,29.61,29.61,0,0,0-5.74,4.47,33.78,33.78,0,0,0-4.52,5.8,49.08,49.08,0,0,0-3.4,6.71c-1,2.35-1.8,4.77-2.57,7.23s-1.41,5-2,7.5l-3.68,15.29c-2.57,10.2-5.69,20.47-10.57,30-2.38,4.74-5,9.35-7.69,13.88-1.39,2.24-2.72,4.53-4.16,6.74l-4.35,6.61-4.53,6.49-4.66,6.38c-1.53,2.15-3.17,4.21-4.75,6.32s-3.2,4.19-4.85,6.23c-13.06,16.54-27,32.34-41.22,47.82-7.16,7.71-14.33,15.36-21.67,22.93l-2.75,2.84-1.37,1.41-1.27,1.35a36.7,36.7,0,0,0-2.45,2.74,34.93,34.93,0,0,0-2.21,2.84,34.13,34.13,0,0,0-5.82,12.37,24.51,24.51,0,0,0,.76,12.93,29.62,29.62,0,0,0,2.84,6.11,39,39,0,0,0,4.1,5.64,54.59,54.59,0,0,0,10.69,9.46,45.16,45.16,0,0,0,6.07,3.5,20.72,20.72,0,0,0,2.91,1.11l3.92,1.27c20,6.72,39.73,13.88,59.4,21.35,9.82,3.74,19.64,7.52,29.39,11.47s19.46,8,29.13,12.19q29,12.43,57.2,27.11c9.36,5,18.65,10.1,27.66,15.84s17.86,11.89,26,19.55l-6.25-.76L666,1182.45l44-24.73,43.95-24.89,22-12.47,11-6.24,5.5-3.11,2.75-1.55,1.37-.78.69-.39.34-.19.17-.1.09,0,0,0C797.77,1108.31,798,1107,797.73,1108.77Zm.86-.76c-.27,1.75-.1.5-.17.9l0,0-.08,0-.17.11-.32.22-.66.44-1.31.88-2.63,1.76-5.24,3.52-10.54,7q-10.54,7-21.17,13.81c-14.13,9.17-28.38,18.17-42.66,27.13s-28.63,17.79-43.08,26.46-28.9,17.37-43.48,25.82a5.24,5.24,0,0,1-6.11-.63l-.15-.14c-7.3-6.58-15.87-12.29-24.64-17.6s-17.9-10.27-27.14-15c-18.5-9.42-37.54-17.93-56.65-26.3-38.33-16.44-77.27-31.93-116.55-46l-3.53-1.22a31.77,31.77,0,0,1-4.4-1.76,55,55,0,0,1-7.47-4.46,64.1,64.1,0,0,1-12.58-11.56,48.46,48.46,0,0,1-5-7.18,40,40,0,0,1-3.57-8.19,34.36,34.36,0,0,1-.63-18.11,43,43,0,0,1,7.88-15.67,41.1,41.1,0,0,1,2.73-3.27,41.56,41.56,0,0,1,2.89-3l1.47-1.47,1.41-1.36,2.81-2.71c7.56-7.19,15-14.53,22.45-21.89s14.72-14.84,21.84-22.48,14.19-15.34,20.88-23.34,13.25-16.13,19.25-24.64l4.42-6.43c1.47-2.15,2.82-4.37,4.24-6.56q4.09-6.63,7.65-13.56a104.24,104.24,0,0,0,6.07-14.22c1.72-4.88,3-9.91,4.25-15l3.54-15.32a127.32,127.32,0,0,1,4.49-15.34,52.37,52.37,0,0,1,3.5-7.39,38.2,38.2,0,0,1,4.95-6.71,35.93,35.93,0,0,1,6.48-5.37,38.16,38.16,0,0,1,7.51-3.68,50.94,50.94,0,0,1,8-2.22,37.27,37.27,0,0,1,8.47-.55A29.35,29.35,0,0,1,552,831.67a38.51,38.51,0,0,1,6.26,5.81,59.1,59.1,0,0,1,5.06,6.64,114,114,0,0,1,7.79,14.27c4.53,9.73,8.12,19.69,11.72,29.56,1.8,4.94,3.55,9.87,5.29,14.8l2.64,7.37a45.22,45.22,0,0,0,3,6.35,113.72,113.72,0,0,0,8.37,12.39c3.09,4,6.39,8,9.79,11.85,13.66,15.46,28.56,30.09,43.83,44.29q11.44,10.66,23.12,21.14c7.79,7,15.67,13.84,23.53,20.74s15.83,13.69,23.81,20.47,15.94,13.58,24,20.3,16,13.47,24.1,20.18Z"/><g class="cls-7"><path d="M535.1,919s-21,13.21-40.44-7.65-36.86-52.59-13.76-58.5C480.9,852.8,509.24,910.14,535.1,919Z"/></g><g class="cls-12"><path d="M509.89,1045.23s-11.46,23.31-36.27,45.73c-8.56,5.16-1.13,11.48,35.79,23.41s48.16,15.52,56.68,22.5-28.2-28.19-75-39.44C479.89,1094.67,513.8,1069,509.89,1045.23Z"/></g><g class="cls-9"><path class="cls-6" d="M596,989.49s26.39,6.43,54.84,28.36,89.6,78,89.6,78-47.86-25-90.11-57.81S596,989.49,596,989.49Z"/></g><path class="cls-8" d="M647.13,1203.22a4,4,0,0,1-5.06-.85c-.27-.31-.56-.64-.88-1a4,4,0,1,1,6-5.43c.36.39.69.77,1,1.12a4,4,0,0,1-.4,5.69A4.53,4.53,0,0,1,647.13,1203.22Zm132-78.38a4,4,0,0,1-4.46-.29c-3.51-2.67-8.17-6.24-13.74-10.56a4,4,0,0,1,4.94-6.37c5.55,4.3,10.2,7.86,13.69,10.52a4,4,0,0,1,.76,5.65A4.08,4.08,0,0,1,779.13,1124.84Zm-145.7,65.75a4,4,0,0,1-4.49-.31c-4-3.11-8.65-6.39-13.82-9.75a4,4,0,1,1,4.39-6.77c5.36,3.49,10.2,6.9,14.38,10.15a4.05,4.05,0,0,1-.46,6.68Zm118.35-86.92a4,4,0,0,1-4.5-.32c-4.27-3.34-8.82-6.93-13.59-10.73a4,4,0,1,1,5-6.31c4.76,3.78,9.29,7.36,13.55,10.69a4,4,0,0,1-.48,6.67Zm-147.18,68a4,4,0,0,1-4,0c-4.66-2.7-9.7-5.49-15-8.29a4,4,0,1,1,3.78-7.12c5.37,2.85,10.49,5.68,15.24,8.43a4,4,0,0,1,0,7Zm120.11-89.48a4,4,0,0,1-4.54-.35q-6.57-5.28-13.45-10.91a4,4,0,0,1,5.1-6.24q6.84,5.6,13.4,10.87a4,4,0,0,1,.62,5.67A4.1,4.1,0,0,1,724.71,1082.16Zm-150.59,73.23a4,4,0,0,1-3.81.12c-4.91-2.45-10.11-5-15.47-7.49a4,4,0,1,1,3.44-7.3c5.41,2.56,10.67,5.1,15.62,7.57a4,4,0,0,1,1.81,5.4A4,4,0,0,1,574.12,1155.39Zm123.82-95.1a4,4,0,0,1-4.6-.39q-5.93-4.92-11.94-10l-1.34-1.12a4,4,0,0,1,5.2-6.17l1.33,1.13q6,5,11.9,9.94a4,4,0,0,1,.53,5.68A3.92,3.92,0,0,1,697.94,1060.29Zm-155.05,80.34a4,4,0,0,1-3.68.19c-5.08-2.3-10.38-4.64-15.74-7a4,4,0,1,1,3.21-7.4c5.39,2.34,10.72,4.7,15.85,7a4,4,0,0,1,2,5.34A4,4,0,0,1,542.89,1140.63ZM671.53,1038a4,4,0,0,1-4.65-.44c-4.46-3.83-8.86-7.66-13.07-11.37a4,4,0,1,1,5.32-6.05c4.19,3.69,8.57,7.49,13,11.31a4,4,0,0,1,.43,5.68A4.26,4.26,0,0,1,671.53,1038ZM511.2,1126.87a4,4,0,0,1-3.58.23c-5.2-2.18-10.56-4.39-15.94-6.58a4,4,0,1,1,3-7.47c5.4,2.2,10.79,4.42,16,6.62a4,4,0,0,1,2.16,5.27A4,4,0,0,1,511.2,1126.87Zm-32-13a4,4,0,0,1-3.5.26c-5.3-2.09-10.71-4.2-16.08-6.27a4,4,0,0,1,2.9-7.52c5.39,2.07,10.82,4.19,16.14,6.29a4,4,0,0,1,.54,7.24Zm166.42-98.67a4,4,0,0,1-4.72-.5c-4.44-4-8.74-8-12.78-11.73a4,4,0,0,1,5.51-5.89c4,3.73,8.27,7.65,12.68,11.63a4.05,4.05,0,0,1-.69,6.49ZM446.9,1101.42a4,4,0,0,1-3.44.29c-5.38-2-10.82-4-16.18-6a4,4,0,0,1,2.76-7.58c5.38,2,10.85,4,16.25,6a4,4,0,0,1,2.36,5.2A4,4,0,0,1,446.9,1101.42ZM620.35,991.58a4,4,0,0,1-4.83-.61c-4.35-4.23-8.49-8.36-12.3-12.28a4,4,0,1,1,5.78-5.62c3.76,3.86,7.85,7.94,12.15,12.12a4,4,0,0,1,.07,5.7A3.78,3.78,0,0,1,620.35,991.58Zm-206,98a4,4,0,0,1-3.36.31c-5.86-2.07-9.69-3.37-11.19-3.85l-.68-.22a3.59,3.59,0,0,1-.35-.12,26.88,26.88,0,0,1-4.74-2.76,4,4,0,1,1,4.65-6.59,19.66,19.66,0,0,0,3,1.84l.52.16c1.6.52,5.5,1.84,11.43,3.93a4,4,0,0,1,2.47,5.15A4.11,4.11,0,0,1,414.4,1089.58ZM596.29,966.79a4,4,0,0,1-5-.8c-4.2-4.65-8-9.13-11.37-13.31a4,4,0,0,1,6.29-5c3.25,4.06,7,8.42,11.07,13a4,4,0,0,1-.3,5.7A3.8,3.8,0,0,1,596.29,966.79ZM387.72,1070a4,4,0,0,1-1.41.5,4,4,0,0,1-4.59-3.39c-.69-4.56,2.06-9.85,8.18-15.74l1.9-1.88a4,4,0,0,1,5.69,5.72l-2,2c-4.92,4.74-6,7.73-5.82,8.75A4,4,0,0,1,387.72,1070Zm21.14-26.39a4,4,0,0,1-4.89-6.33c4.13-4.18,8.18-8.33,12-12.33a4,4,0,1,1,5.81,5.59c-3.87,4-7.95,8.2-12.1,12.41A4.42,4.42,0,0,1,408.86,1043.62Zm166-103.91a4,4,0,0,1-5.4-1.31c-1-1.6-2-3.19-2.9-4.73a77.34,77.34,0,0,1-5.45-11.32,4,4,0,1,1,7.54-2.85,70,70,0,0,0,4.9,10.13c.82,1.43,1.73,2.91,2.69,4.4a4,4,0,0,1-1.2,5.57Zm-142.09,79a4,4,0,0,1-5-6.25c4-4.32,7.94-8.58,11.63-12.67a4,4,0,0,1,6,5.39c-3.71,4.13-7.66,8.43-11.73,12.79A4.32,4.32,0,0,1,432.82,1018.72ZM455.91,993a4,4,0,0,1-5.08-6.11c3.87-4.51,7.57-8.95,11-13.18a4,4,0,1,1,6.27,5.06c-3.47,4.3-7.22,8.8-11.14,13.37A4,4,0,0,1,455.91,993Zm21.67-26.91a4,4,0,0,1-5.25-5.9c3.54-4.74,6.86-9.42,9.88-13.92a4,4,0,1,1,6.7,4.49c-3.1,4.61-6.5,9.41-10.12,14.25A3.76,3.76,0,0,1,477.58,966.1Zm83.74-58a4.39,4.39,0,0,1-.73.33,4,4,0,0,1-5.11-2.53l-.62-1.82c-1.64-4.85-3.34-9.86-5-14.49a4,4,0,1,1,7.61-2.67c1.64,4.67,3.34,9.7,5,14.57l.62,1.82A4.06,4.06,0,0,1,561.32,908.08Zm-64.57,29.3a4,4,0,0,1-5.5-5.52c2.43-4.18,4.68-8.36,6.69-12.42.41-.84.82-1.68,1.21-2.52a4,4,0,0,1,7.31,3.4c-.42.9-.85,1.79-1.29,2.69-2.09,4.23-4.43,8.57-6.95,12.91A4,4,0,0,1,496.75,937.38ZM511.07,906a4,4,0,0,1-5.86-4.72c2-6.08,3.41-11.94,4.46-16.37a4,4,0,1,1,7.85,1.87c-1.09,4.57-2.6,10.62-4.63,17A4,4,0,0,1,511.07,906Zm38.58-30.46c-.16.08-.31.16-.48.23a4,4,0,0,1-5.27-2.18,99.27,99.27,0,0,0-5.5-11.49c-.63-1.1-1.27-2.12-1.89-3l-.11-.16a4,4,0,1,1,6.73-4.44c.77,1.11,1.52,2.31,2.26,3.59a107.5,107.5,0,0,1,6,12.44A4.05,4.05,0,0,1,549.65,875.55Zm-30-3a4,4,0,0,1-3.06.4,4,4,0,0,1-2.85-4.94c2.45-9.09,4.63-14.57,9.16-17.52a4,4,0,1,1,4.4,6.76c-1.68,1.09-3.31,3.7-5.77,12.86A4,4,0,0,1,519.66,872.55Z"/><path class="cls-8" d="M463,1107.54a4,4,0,0,1-5.19-6L468.53,1088a4,4,0,0,1,6.33,5l-10.7,13.57A4,4,0,0,1,463,1107.54Zm21.4-27.14a4,4,0,0,1-5.18-6l10.7-13.57a4,4,0,0,1,6.33,5l-10.7,13.57A4,4,0,0,1,484.41,1080.4Zm21.4-27.13a4,4,0,0,1-5.18-6l10.7-13.57a4,4,0,1,1,6.33,5L507,1052.27A4,4,0,0,1,505.81,1053.27Zm21.4-27.14a4,4,0,0,1-5.18-6l10.7-13.57a4,4,0,1,1,6.33,5l-10.7,13.57A3.9,3.9,0,0,1,527.21,1026.13ZM548.62,999a4,4,0,0,1-5.19-6l10.7-13.57a4,4,0,0,1,6.34,5L549.77,998A4,4,0,0,1,548.62,999ZM570,971.85a4,4,0,0,1-5.19-6l10.71-13.57a4,4,0,1,1,6.33,5l-10.7,13.57A4.15,4.15,0,0,1,570,971.85Z"/><g class="cls-16"><path class="cls-6" d="M418.05,989.09S393.2,968,395.2,942.35C395.2,942.35,383.91,974.38,418.05,989.09Z"/></g><g class="cls-16"><path class="cls-6" d="M410.1,944a50.16,50.16,0,0,0,33,8.23Z"/></g><g class="cls-7"><path d="M502.63,999.69S480.7,1019.84,450.7,976s-26-58.92-9.7-70.06C441,906,446.91,951.69,502.63,999.69Z"/></g><g class="cls-16"><path class="cls-6" d="M454.59,883.26s15.24-8.16,27.17-.83C481.76,882.43,463.8,886.33,454.59,883.26Z"/></g><g class="cls-7"><path d="M448.81,1059.86s-32.14,27.75-90.74-40C352.81,1010.73,413,1015.78,448.81,1059.86Z"/></g><path class="cls-14" d="M502.63,999.69a13.63,13.63,0,0,1-16.25-2c-1-1-24.43-23.54-36.17-46.25-1.08-2.09-2.23-4.31-3.44-6.62-20.78-39.94-27.32-55-25.09-65.21a13.63,13.63,0,0,1,26.89,4.26c1.25,7.74,15.49,35.08,22.4,48.36l3.47,6.69c9.68,18.72,30.6,38.88,30.81,39.08a13.63,13.63,0,0,1,.42,19.28A13.47,13.47,0,0,1,502.63,999.69Zm-54.3-114.27v0Z"/><path d="M505.51,1004.68a19.49,19.49,0,0,1-23.11-2.8c-2.57-2.46-25.38-24.7-37.3-47.76-.86-1.65-1.75-3.38-2.69-5.17l-.75-1.44c-21.86-42-28.24-57-25.61-69.1a19.4,19.4,0,0,1,38.32,5.15c1.78,7.74,16.17,35.41,21.68,46L471,932.33l5.11-2.66c1.21,2.31,2.37,4.54,3.45,6.64,9.19,17.78,29.48,37.37,29.68,37.56a19.43,19.43,0,0,1,.58,27.43A19,19,0,0,1,505.51,1004.68Zm-74.44-129-.33.2a7.8,7.8,0,0,0-3.43,5c-1.87,8.57,5.72,25.1,24.57,61.33l.76,1.44c.93,1.8,1.84,3.54,2.69,5.2,11.26,21.78,34.08,43.81,35,44.74a7.92,7.92,0,0,0,9.38,1.13,7.77,7.77,0,0,0,1.76-1.38,7.89,7.89,0,0,0-.24-11.13c-.22-.21-21.81-21-31.95-40.6-1.07-2.08-2.23-4.3-3.43-6.6l-.06-.12c-12.93-24.85-21.78-42.88-22.95-50v0l-.27,0,.15-.82h0l.06-.62a7.88,7.88,0,0,0-11.77-7.61Z"/><path class="cls-14" d="M448.81,1059.86a13.57,13.57,0,0,1-11.85.87c-2.44-1-60-24.19-90.69-68a13.64,13.64,0,1,1,22.34-15.65c26,37,77.91,58.11,78.43,58.32a13.64,13.64,0,0,1,1.77,24.47Z"/><path d="M451.69,1064.85a19.25,19.25,0,0,1-16.86,1.23c-2.5-1-61.56-24.8-93.28-70.06a19.42,19.42,0,0,1,4.76-27,19.39,19.39,0,0,1,27,4.75c24.89,35.51,75.35,56.08,75.85,56.28a19.4,19.4,0,0,1,2.52,34.81Zm-98.18-86.79c-.2.12-.39.24-.59.38a7.88,7.88,0,0,0-1.93,11c29.76,42.46,85.72,65,88.09,66a7.88,7.88,0,0,0,5.82-14.64c-.53-.21-53.95-21.75-81-60.37a7.91,7.91,0,0,0-10.38-2.31Z"/><g class="cls-16"><path class="cls-6" d="M426.92,1031.86s-25.88-6.16-65.07-50C361.85,981.85,391,1029.7,426.92,1031.86Z"/></g><g class="cls-16"><path class="cls-6" d="M500.59,982.7s-36.22-31.14-58.6-94.13C442,888.57,455.12,951.38,500.59,982.7Z"/></g><path class="cls-14" d="M535.1,919a13.64,13.64,0,0,1-16.59-2.31c-1.27-1.3-31.28-32.31-43.64-58.4-12.25-25.87-15-43.71-15.14-44.46a13.64,13.64,0,0,1,27-4c0,.1,2.44,14.93,12.81,36.84,8.66,18.29,30.76,43,38.54,51a13.66,13.66,0,0,1-3,21.33Z"/><path d="M538,923.94a19.39,19.39,0,0,1-23.6-3.28c-1.3-1.34-32-33-44.72-59.95-12.31-26-15.32-44.08-15.62-46.05a19.4,19.4,0,1,1,38.36-5.79c0,.08,2.45,14.38,12.33,35.23,8.32,17.58,29.86,41.7,37.46,49.51a19.39,19.39,0,0,1-.38,27.42A19.56,19.56,0,0,1,538,923.94Zm-68.69-119a7.89,7.89,0,0,0-3.86,8c.11.7,2.83,17.88,14.65,42.85C492,881,521.4,911.35,522.64,912.63a7.88,7.88,0,0,0,9.58,1.33,8,8,0,0,0,1.56-1.18,7.89,7.89,0,0,0,.15-11.14c-8-8.19-30.62-33.61-39.61-52.61-10.8-22.8-13.28-38.26-13.31-38.42a7.88,7.88,0,0,0-11.72-5.68Z"/><g class="cls-16"><path class="cls-6" d="M534.2,903.15s-44-36.65-55.46-96.06C478.74,807.09,481.64,870.48,534.2,903.15Z"/></g><path d="M659.62,1198Q542,1265.95,439.46,1316.26C261.24,1403.67,119.3,1449.68,17.58,1453a5.76,5.76,0,0,1-.37-11.52c100.07-3.27,240.43-48.89,417.17-135.58,141.78-69.54,307-165.47,491.07-285.12C1239,817,1501.87,612.35,1504.49,610.31a5.76,5.76,0,1,1,7.09,9.08c-2.63,2.05-265.91,207-579.85,411.06Q787.7,1124.08,659.62,1198Z"/><g class="cls-16"><path class="cls-6" d="M620.66,842s-63.86-50.28-100.11-116.5C520.55,725.45,542.48,798,620.66,842Z"/></g><g class="cls-16"><path class="cls-6" d="M643.23,742.16s-61.84-60.44-66.69-106.36C576.54,635.8,567.21,690.24,643.23,742.16Z"/></g><g class="cls-16"><path class="cls-6" d="M642.79,615.12s-36.13-4.42-53,10.91C589.75,626,618.91,623.41,642.79,615.12Z"/></g><g class="cls-16"><path class="cls-6" d="M728.77,648.16S689.44,597.44,660.29,578c-20-13.15-54.08-44.3-54.08-44.3s3.23,12.54,63.19,60.16C681.75,602.45,728.77,648.16,728.77,648.16Z"/></g><g class="cls-16"><path class="cls-6" d="M742.29,487.4s-89.83,18.21-136.88,8.47C605.41,495.87,659.44,513.83,742.29,487.4Z"/></g><g class="cls-16"><path class="cls-6" d="M718.58,403.13l-56.13,38S701.81,436.3,718.58,403.13Z"/></g><g class="cls-16"><path class="cls-6" d="M1039.33,203s-74.17,41.38-189.62,66.57C849.71,269.58,961.53,266.74,1039.33,203Z"/></g><g class="cls-7"><path d="M437,1060.73A13.64,13.64,0,0,0,447,1035.39c-.09,0-1.68-.68-4.34-1.89-1.58,7.22-8.15,15.93-30.93,14.9A231.07,231.07,0,0,0,437,1060.73Z"/></g></g></g></svg>