<?xml version="1.0" standalone="no"?>
<!DOCTYPE svg PUBLIC "-//W3C//DTD SVG 1.1//EN" "http://www.w3.org/Graphics/SVG/1.1/DTD/svg11.dtd">
<svg xmlns="http://www.w3.org/2000/svg" viewBox="0 0 1510.1 1806.57" width="1510.0999755859375" height="1806.5699462890625"><defs><style>.cls-1{fill:#9acaf4;}.cls-2{fill:#e5e2dc;}.cls-3{fill:#b9b6b2;}.cls-4{fill:#212121;}.cls-5{opacity:0.15;}.cls-6{fill:#fff;}.cls-7{opacity:0.5;}.cls-8{fill:#027be4;}.cls-9{opacity:0.4;}.cls-10{fill:#cecbc6;}.cls-11{opacity:0.2;}.cls-12{opacity:0.08;}.cls-13{fill:#262626;}.cls-14{opacity:0.1;}</style></defs><g id="Layer_2" data-name="Layer 2"><g id="OBJECT"><path class="cls-1" d="M492.46,1500h0a70.59,70.59,0,0,1-70.59-70.6V344.16a70.58,70.58,0,0,1,70.59-70.59h0a70.59,70.59,0,0,1,70.6,70.59V1429.41A70.6,70.6,0,0,1,492.46,1500Z"/><path class="cls-1" d="M299.36,1575.36h0a35.31,35.31,0,0,1-35.3-35.3V35.3A35.3,35.3,0,0,1,299.36,0h0a35.29,35.29,0,0,1,35.3,35.3V1540.06A35.3,35.3,0,0,1,299.36,1575.36Z"/><path class="cls-1" d="M658.49,1514.83h0a19.69,19.69,0,0,1-19.69-19.69V134.29a19.68,19.68,0,0,1,19.69-19.69h0a19.69,19.69,0,0,1,19.69,19.69V1495.14A19.69,19.69,0,0,1,658.49,1514.83Z"/><path class="cls-1" d="M961.45,1680.17h0a19.69,19.69,0,0,1-19.69-19.69V330.19a19.68,19.68,0,0,1,19.69-19.69h0a19.69,19.69,0,0,1,19.69,19.69V1660.48A19.7,19.7,0,0,1,961.45,1680.17Z"/><rect class="cls-1" x="154.26" y="580.03" width="39.38" height="1226.54" rx="9.88"/><path class="cls-1" d="M817.72,1615.24h0a70.59,70.59,0,0,1-70.59-70.6V428.16a70.58,70.58,0,0,1,70.59-70.59h0a70.59,70.59,0,0,1,70.6,70.59V1544.64A70.6,70.6,0,0,1,817.72,1615.24Z"/><rect class="cls-1" x="1029.57" y="286.23" width="141.19" height="1107.96" rx="34.51"/><circle class="cls-1" cx="1100.17" cy="159.44" r="70.93" transform="translate(692.23 1193.54) rotate(-76.72)"/><path class="cls-1" d="M1285.25,153h0a70.59,70.59,0,0,1,70.6,70.59v981.84a70.59,70.59,0,0,1-70.6,70.59h0a70.59,70.59,0,0,1-70.6-70.59V223.6A70.59,70.59,0,0,1,1285.25,153Z"/><circle class="cls-1" cx="492.46" cy="1621.29" r="70.6" transform="translate(-1002.19 823.09) rotate(-45)"/><path class="cls-2" d="M1495.13,792.4c-15.36,14.71-238.26,195.37-703.16,451.05S133.75,1528,75.08,1517.35s-81.67-82.91-58.9-102c0,0-26.63-109.52,51.53-134,0,0,258.3-194,408.77-479,111.27-210.78,92-277.6,74.36-298.11a69.55,69.55,0,0,1-16.34-35.41c-6.46-45.6-17-140.38-5.4-211.19.68-19.49,32.31-17.07,41.93-17.85,0,0,53.15,1.13,75.66,2.46s88.93.63,122.28,69.41l-4.29,4.06c165.39-33.37,216.13-77.19,240.13-92.5,26.16-16.7,32.3,13.7,32.3,13.7s12.52-2.19,33.09,21.72c4.31,5,10.68,11.92,18.08,19.69,27.83,29.32,70,71.07,70,71.07l5.15-3.5s13.14,16.81,16.85,18.64c.72.35,2.14,1,4.11,2.13,8.21,4.55,25.92,16.06,41.57,39.11,0,0,8.53-8.9,15.65-1.62s25.48,26,34.32,44.76c0,0,5.67-3.27,9.51,4.06s115.11,156.67,117.3,188c0,0,20.79-6.7,29,27.79l65.75,94.61S1510.51,777.69,1495.13,792.4Z"/><path class="cls-3" d="M1183.64,366.32l-2.75,1.39c-14,3.77-71.14,17.66-187.63,27.69q-5.67.5-11.59,1c-12.67-17.22.46-42.1,57.23-55.21,43.68-10.08,64.37-24.41,73.73-37.58,23,23.49,45.63,45.88,45.63,45.88l5.15-3.5s13.14,16.81,16.85,18.64C1180.89,364.9,1182,365.46,1183.64,366.32Z"/><path class="cls-4" d="M322.5,1153.59c.93,1.6.09,3.82-1.87,5s-4.31.75-5.24-.86-.09-3.83,1.88-5S321.58,1152,322.5,1153.59Z"/><path class="cls-4" d="M304.48,1138.8c.93,1.61.09,3.83-1.87,5s-4.31.75-5.24-.86-.08-3.82,1.88-5S303.56,1137.19,304.48,1138.8Z"/><path class="cls-4" d="M287.61,1126c.93,1.61.09,3.83-1.87,5s-4.31.75-5.24-.85-.08-3.83,1.88-5S286.69,1124.39,287.61,1126Z"/><path class="cls-4" d="M276.2,1116.15c.92,1.61.08,3.83-1.88,5s-4.31.75-5.23-.85-.09-3.83,1.87-5S275.27,1114.55,276.2,1116.15Z"/><path class="cls-4" d="M266.79,1108.06c.92,1.61.08,3.83-1.88,5s-4.31.76-5.24-.85-.08-3.83,1.88-5S265.86,1106.46,266.79,1108.06Z"/><path class="cls-4" d="M261.93,1177.69c.93,1.6.09,3.82-1.87,5s-4.31.75-5.24-.86-.09-3.83,1.88-5S261,1176.08,261.93,1177.69Z"/><path class="cls-4" d="M247.35,1160.65c.93,1.6.09,3.82-1.87,5s-4.31.75-5.24-.86-.08-3.83,1.88-5S246.43,1159,247.35,1160.65Z"/><path class="cls-4" d="M238.93,1148.81c.92,1.6.08,3.82-1.88,5s-4.31.75-5.23-.86-.09-3.82,1.87-5S238,1147.2,238.93,1148.81Z"/><path class="cls-4" d="M234.1,1140.45c.93,1.61.09,3.83-1.87,5s-4.31.75-5.24-.86-.08-3.83,1.88-5S233.18,1138.85,234.1,1140.45Z"/><path class="cls-4" d="M219,1202.47c.93,1.61.09,3.83-1.88,5s-4.3.75-5.23-.85-.09-3.83,1.88-5S218.07,1200.87,219,1202.47Z"/><path class="cls-4" d="M226.56,1176.53c.93,1.61.09,3.83-1.88,5s-4.3.75-5.23-.85-.09-3.83,1.88-5S225.63,1174.92,226.56,1176.53Z"/><path class="cls-4" d="M217.47,1162.62c.93,1.61.09,3.83-1.88,5s-4.3.75-5.23-.85-.09-3.83,1.88-5S216.54,1161,217.47,1162.62Z"/><path class="cls-4" d="M201,1183.75c.93,1.6.09,3.82-1.88,5s-4.3.75-5.23-.86-.09-3.83,1.88-5S200.1,1182.14,201,1183.75Z"/><path class="cls-4" d="M187.47,1208c.92,1.6.08,3.82-1.88,5s-4.31.75-5.23-.86-.09-3.83,1.87-5S186.54,1206.41,187.47,1208Z"/><path class="cls-4" d="M175.65,1233.93c.92,1.61.08,3.83-1.88,5s-4.31.75-5.23-.85-.09-3.83,1.87-5S174.72,1232.33,175.65,1233.93Z"/><path class="cls-4" d="M122.84,1268.3c.92,1.61.08,3.83-1.88,5s-4.31.75-5.23-.85-.09-3.83,1.87-5S121.91,1266.69,122.84,1268.3Z"/><path class="cls-4" d="M88.39,1285.64c.93,1.6.09,3.82-1.88,5s-4.31.75-5.23-.86-.09-3.83,1.87-5S87.46,1284,88.39,1285.64Z"/><path class="cls-4" d="M116.23,1253c.92,1.61.08,3.83-1.88,5s-4.31.75-5.23-.86-.09-3.83,1.87-5S115.3,1251.42,116.23,1253Z"/><path class="cls-4" d="M143.21,1237.45c.92,1.6.08,3.83-1.88,5s-4.31.75-5.23-.86-.09-3.82,1.87-5S142.28,1235.84,143.21,1237.45Z"/><path class="cls-4" d="M166.51,1207.55c.93,1.61.09,3.83-1.87,5s-4.31.75-5.24-.85-.08-3.83,1.88-5S165.59,1206,166.51,1207.55Z"/><g class="cls-5"><path d="M601.34,389.82s-5.71-51.75,30.31-67.9,115.5-31,139.44-7.45C771.09,314.47,590,345.44,601.34,389.82Z"/></g><g class="cls-5"><ellipse cx="871.42" cy="990.89" rx="154.97" ry="11.31" transform="translate(-397.5 628.84) rotate(-32.75)"/></g><g class="cls-5"><path d="M1000.89,706.6c.41,6.23-68.49,15.86-153.89,21.5S692,733.27,691.62,727s68.48-15.87,153.89-21.51S1000.48,700.37,1000.89,706.6Z"/></g><g class="cls-5"><path d="M1248.82,431.47s-33.28,10.34-71.4,60-96.93,162.78-96.93,162.78,92.48-91.94,126.34-144.9S1248.82,431.47,1248.82,431.47Z"/></g><path class="cls-6" d="M704.55,778.84s-16,15.88-32.62,51.24S631.3,936.46,631.3,936.46s41.62-72.78,56-108.17S704.55,778.84,704.55,778.84Z"/><g class="cls-5"><path d="M1379.89,693.62s-92.44,33.79-245.11,173.48C1134.78,867.1,1277.14,811.41,1379.89,693.62Z"/></g><g class="cls-7"><path d="M721.28,692.87s-67.95,20.4-78.09,81.21c0,0,10-8.1,14.31-14.55C666.69,747.46,664.25,732.55,721.28,692.87Z"/></g><path class="cls-4" d="M1497.51,763.45l-7.07-10.17s-33.75,44-202.19,153.14-519.5,324.38-826.72,459.1c-179,78.57-343.59,109.83-439.71,115.88h0c11.38,17,29.36,31.6,53.26,35.95,58.67,10.67,252-18.22,716.89-273.9s687.79-436.34,703.17-451.05S1497.51,763.45,1497.51,763.45Z"/><path d="M936.13,1168.38q-66.36,38.31-141.58,79.77c-204.61,112.53-376.76,192.34-511.67,237.22-127.21,42.31-185.39,41.5-208.76,37.25-22.91-4.17-43.06-17.75-56.75-38.24a5.36,5.36,0,0,1,4.11-8.33c47.91-3,221.08-20.25,437.89-115.44,339.37-148.81,718-388.71,826-458.69C1450.3,795,1485.86,750.44,1486.2,750a5.37,5.37,0,0,1,8.64.22l6.89,9.91c5.65,6.44,12,21.86-2.89,36.15-6.23,6-63.24,53.54-183.7,135.71C1233.34,987.79,1106.78,1069.86,936.13,1168.38ZM32,1486.05c11.63,13.79,27,22.92,44,26,18,3.28,73.85,6.24,203.46-36.87,134.3-44.67,305.85-124.23,509.89-236.44C1032.65,1105,1206.28,993.28,1309.1,923.14c118.33-80.72,176.54-129.07,182.33-134.61,10.88-10.41,3.66-19.73,2.1-21.49-.14-.16-.3-.36-.42-.53l-3.17-4.57c-13.88,14.76-62.16,60.42-198.78,149C1183,981,803.78,1221.29,463.68,1370.43,258.12,1460.68,91.25,1481.38,32,1486.05Z"/><g class="cls-7"><path d="M1497.86,766.13s-31.7,33.36-195.13,139.91-252.11,166.9-322.28,211.15c0,0,163.74-86.41,322.21-193.06S1497.86,766.13,1497.86,766.13Z"/></g><path class="cls-8" d="M398.36,1107.16s.72,9.67,13.69,18.36c8.11,4.86,46.25,36.93,15.71,59.34s-46.75-21.27-103.14,6S190.7,1268.43,124.08,1295s-106.55,27.57-56.37-13.59c-78.16,24.44-51.53,134-51.53,134,142.11-4.65,351.45-98.45,564.64-219.27-31.66-30-130.59-69.37-182.58-88.59"/><g class="cls-9"><path class="cls-6" d="M297.59,1221.69s-34.65,21.74-69.33,37-69.66,44.72-69.66,44.72,29,.52,81.83-37.43S297.59,1221.69,297.59,1221.69Z"/></g><path class="cls-10" d="M1184.37,366.73s-1.14.35-3.48,1c-14,3.77-71.14,17.66-187.63,27.69q-5.67.5-11.59,1C843.78,407.79,611.3,419.75,611.3,419.75l2-21.87c23.16-9.75,53-17.05,89.68-23.61,53.09-9.49,120.48-17.46,202.65-29.11,96.2-13.64,151.87-42.86,182.7-66.77,7.45,7.85,15.92,16.59,24.35,25.19,23,23.49,45.63,45.88,45.63,45.88l5.15-3.5s13.14,16.81,16.85,18.64c.63.3,1.78.86,3.38,1.72Z"/><path class="cls-4" d="M612,460.44c-22.54-90-20-117.32,105.26-135.95,203.52-34,261.44-84.52,287.6-101.21s32.3,13.7,32.3,13.7-76.5,77.84-314.74,114.36c-93.49,15.8-104.11,32.83-103.7,66.12Z"/><path class="cls-8" d="M1285.42,453c-3.84-7.33-9.51-4.06-9.51-4.06s-90.57,115.93-161.38,216.48-8.9,193.85-8.9,193.85C1281.1,736,1402.72,641.06,1402.72,641.06,1400.53,609.71,1289.25,460.37,1285.42,453Z"/><g class="cls-11"><path d="M1276.08,465.18s86.71,91.55,115.27,156.19c10.3,28.17-12.9,37.85-232,183.34,0,0,50-45.66,120.4-107s71.42-80.22,44.87-131.71S1276.08,465.18,1276.08,465.18Z"/></g><g class="cls-9"><path class="cls-6" d="M1115,778.11a37.12,37.12,0,0,1-4.57-9.67A64.6,64.6,0,0,1,1108,758a85.26,85.26,0,0,1-.34-21.47,110.18,110.18,0,0,1,4.29-21,140.55,140.55,0,0,1,7.81-19.71,153.67,153.67,0,0,1,23.47-34.55c2.36-2.54,4.75-5,7.23-7.46s5.09-4.69,7.73-6.93,5.41-4.34,8.26-6.34a105,105,0,0,1,8.9-5.59c-1.32,3.31-2.82,6.43-4.37,9.48s-3,6.12-4.61,9.08-3.07,6-4.7,8.85-3.09,5.85-4.7,8.7c-6.23,11.53-12.31,22.82-18,34.2-2.76,5.71-5.44,11.42-8,17.21s-4.81,11.63-7,17.59-4,12-5.61,18.3A117.77,117.77,0,0,0,1115,778.11Z"/></g><path class="cls-8" d="M565.38,262.73c-17.37-.09-32,0-37.13.5h0c-10.19,70.15,0,161.25,6.25,205.67l48.94-.74,0,0C535.46,389.25,565.38,262.73,565.38,262.73Z"/><g class="cls-9"><path class="cls-6" d="M537.19,420.21s-10.74-86.65-3-99.9C534.15,320.31,545.88,374.68,537.19,420.21Z"/></g><g class="cls-9"><path class="cls-6" d="M29.67,1385.29s-9-49.21,13.33-69.49c0,0,2.81,4.86-4,22S29.67,1385.29,29.67,1385.29Z"/></g><path d="M951.84,1118.3c-148.21,85.56-322.8,179.61-488.16,252.13C245.25,1466.32,70.51,1483.7,22.16,1486.75a5.36,5.36,0,1,1-.67-10.7c47.9-3,221.07-20.25,437.88-115.44,339.37-148.81,718-388.71,826-458.69C1450.3,795,1485.86,750.44,1486.2,750a5.36,5.36,0,0,1,8.49,6.54c-1.4,1.82-36.23,45.93-203.53,154.37C1235.6,946.92,1108.46,1027.87,951.84,1118.3Z"/><path d="M635.58,1214.51h0c-15.72,9-31.43,18-46.69,26.49a5.36,5.36,0,1,1-5.23-9.35c15.22-8.51,30.89-17.4,46.57-26.42a5.36,5.36,0,1,1,5.35,9.28Zm23.2-13.44a5.36,5.36,0,0,1-5.38-9.27c15.16-8.83,30.68-18,46.15-27.23l.07,0a5.36,5.36,0,0,1,5.42,9.24c-15.49,9.26-31,18.45-46.24,27.3ZM565.47,1254l-.1.06c-15.88,8.74-31.76,17.34-47.19,25.54a5.36,5.36,0,0,1-5-9.46c15.39-8.18,31.23-16.75,47.07-25.47a5.36,5.36,0,0,1,5.26,9.33ZM728,1160a5.36,5.36,0,0,1-5.45-9.23c15-9.06,30.37-18.45,45.7-27.91a5.36,5.36,0,0,1,5.63,9.12c-15.36,9.47-30.76,18.88-45.78,28Zm68.48-42a5.35,5.35,0,0,1-5.51-9.18c14.93-9.32,30.19-18.92,45.34-28.54a5.36,5.36,0,1,1,5.75,9c-15.18,9.64-30.46,19.26-45.42,28.59ZM494.64,1292l-.21.11c-16.12,8.42-32.21,16.64-47.8,24.44a5.36,5.36,0,1,1-4.79-9.58c15.54-7.77,31.56-16,47.63-24.35a5.36,5.36,0,0,1,5.17,9.38Zm369.78-217a5.35,5.35,0,0,1-5.56-9.15c14.85-9.53,30-19.31,45-29.09a5.35,5.35,0,1,1,5.85,9c-15,9.8-30.19,19.6-45.07,29.14ZM422.9,1328.27l-.33.17c-16.42,8-32.74,15.78-48.5,23.08a5.36,5.36,0,0,1-4.5-9.73c15.7-7.26,31.94-15,48.29-23a5.36,5.36,0,0,1,5,9.46Zm509-297.1a5.36,5.36,0,0,1-5.62-9.12C941,1012.4,956,1002.45,971,992.46a5.36,5.36,0,1,1,5.95,8.91c-15,10-30,20-44.75,29.63ZM350.12,1362.41c-.15.09-.32.17-.49.25-16.72,7.5-33.31,14.69-49.3,21.36a5.36,5.36,0,0,1-4.13-9.89c15.91-6.64,32.41-13.78,49.05-21.25a5.36,5.36,0,0,1,4.87,9.53ZM998.87,986.64a5.36,5.36,0,0,1-5.67-9.09c14.6-9.81,29.53-19.92,44.38-30a5.36,5.36,0,1,1,6,8.85c-14.87,10.14-29.83,20.27-44.44,30.09Zm66.53-45.21a5.36,5.36,0,0,1-5.71-9.06c14.64-10,29.47-20.31,44.09-30.48a5.36,5.36,0,1,1,6.12,8.8c-14.64,10.18-29.49,20.45-44.14,30.51ZM276.14,1393.84a5,5,0,0,1-.7.34c-17.11,6.83-34,13.26-50.27,19.09a5.36,5.36,0,0,1-3.62-10.08c16.12-5.79,32.92-12.17,49.92-19a5.36,5.36,0,0,1,4.67,9.62ZM1131.5,895.58a5.36,5.36,0,0,1-5.75-9c14.55-10.19,29.29-20.58,43.81-30.88a5.36,5.36,0,0,1,6.2,8.74c-14.53,10.31-29.29,20.71-43.86,30.92A4.37,4.37,0,0,1,1131.5,895.58Zm65.68-46.44a5.36,5.36,0,0,1-5.79-9c14.53-10.37,29.18-20.89,43.54-31.27a5.36,5.36,0,1,1,6.28,8.68c-14.38,10.39-29,20.93-43.59,31.31A4.17,4.17,0,0,1,1197.18,849.14ZM200.74,1421.67a4.81,4.81,0,0,1-1,.44c-17.62,5.93-34.92,11.3-51.43,16a5.36,5.36,0,1,1-2.91-10.31c16.33-4.62,33.47-9.93,50.92-15.8a5.36,5.36,0,0,1,4.4,9.71ZM1262.46,802.1a5.36,5.36,0,0,1-5.83-9c14.37-10.45,28.92-21.1,43.26-31.66a5.36,5.36,0,0,1,6.36,8.62c-14.36,10.58-28.93,21.25-43.32,31.71C1262.78,801.9,1262.62,802,1262.46,802.1Zm64.86-47.63a5.36,5.36,0,0,1-5.87-9c14.55-10.78,29-21.58,43-32.08a5.36,5.36,0,0,1,6.45,8.57c-14,10.51-28.46,21.32-43,32.12A5.65,5.65,0,0,1,1327.32,754.47Zm-1203.65,690a5.38,5.38,0,0,1-1.38.55c-18.27,4.58-36,8.38-52.78,11.28a5.36,5.36,0,1,1-1.83-10.56c16.5-2.86,34-6.6,52-11.11a5.36,5.36,0,0,1,4,9.84ZM1391.73,706.19a5.36,5.36,0,0,1-5.91-8.91c27.13-20.57,42.48-32.54,42.64-32.66a5.36,5.36,0,1,1,6.59,8.45c-.15.12-15.55,12.13-42.75,32.75A5,5,0,0,1,1391.73,706.19ZM44.78,1459.62a5.55,5.55,0,0,1-2,.68c-10.92,1.36-21.64,2.34-31.85,2.91a5.36,5.36,0,0,1-.6-10.7c10-.56,20.44-1.52,31.12-2.85a5.36,5.36,0,0,1,3.35,10Z"/><path d="M1119,838.7l-.3.16a3.75,3.75,0,0,1-5-1.82c-2.27-4.89-4.35-10-6.18-15.24a3.75,3.75,0,1,1,7.08-2.48c1.75,5,3.73,9.89,5.9,14.55A3.75,3.75,0,0,1,1119,838.7Zm-10.61-30.3a3.77,3.77,0,0,1-5.52-2.36c-.88-3.58-1.64-7.23-2.27-10.83-.31-1.78-.59-3.57-.84-5.32a3.75,3.75,0,0,1,7.43-1c.24,1.67.51,3.38.8,5.08.6,3.43,1.33,6.91,2.16,10.33A3.75,3.75,0,0,1,1108.4,808.4Zm-4.46-31.78a3.64,3.64,0,0,1-1.74.5,3.75,3.75,0,0,1-3.88-3.61,150.57,150.57,0,0,1,.3-16.47,3.75,3.75,0,1,1,7.48.55,142.91,142.91,0,0,0-.28,15.64A3.75,3.75,0,0,1,1103.94,776.62Zm2.35-32a3.76,3.76,0,0,1-5.56-3.94,150.44,150.44,0,0,1,3.89-16,3.76,3.76,0,0,1,7.19,2.17,141,141,0,0,0-3.71,15.21A3.78,3.78,0,0,1,1106.29,744.64Zm9.26-30.73a3.75,3.75,0,0,1-5.34-4.7c2.09-5,4.48-10,7.11-14.81a3.75,3.75,0,1,1,6.6,3.57c-2.51,4.65-4.8,9.41-6.79,14.15A3.8,3.8,0,0,1,1115.55,713.91Zm15.23-28.25a3.75,3.75,0,0,1-5-5.32c1-1.57,2.12-3.15,3.21-4.7l6.06-8.58a3.75,3.75,0,1,1,6.12,4.34q-3,4.3-6.05,8.56c-1,1.49-2.09,3-3.09,4.52A3.76,3.76,0,0,1,1130.78,685.66Zm18.54-26.28a3.75,3.75,0,0,1-4.93-5.43q4.66-6.53,9.4-13.08a3.75,3.75,0,0,1,6.08,4.4q-4.71,6.53-9.38,13.05A3.68,3.68,0,0,1,1149.32,659.38Zm18.84-26.1a3.75,3.75,0,0,1-4.91-5.45q4.74-6.51,9.49-13a3.75,3.75,0,1,1,6,4.44q-4.74,6.47-9.48,13A3.55,3.55,0,0,1,1168.16,633.28Zm19-25.95a3.75,3.75,0,0,1-4.9-5.47l9.57-13a3.75,3.75,0,1,1,6,4.47q-4.75,6.4-9.56,12.93A3.8,3.8,0,0,1,1187.17,607.33Zm19.16-25.85a3.75,3.75,0,0,1-4.88-5.49q4.88-6.54,9.63-12.89a3.75,3.75,0,1,1,6,4.5q-4.75,6.33-9.63,12.88A3.58,3.58,0,0,1,1206.33,581.48Zm19.29-25.75a3.75,3.75,0,0,1-4.87-5.51l9.7-12.85a3.75,3.75,0,1,1,6,4.52l-9.69,12.84A3.67,3.67,0,0,1,1225.62,555.73ZM1245,530.06a3.75,3.75,0,0,1-4.86-5.52q5.05-6.66,9.75-12.81a3.75,3.75,0,1,1,6,4.55q-4.68,6.13-9.74,12.8A3.83,3.83,0,0,1,1245,530.06Zm19.52-25.6a3.75,3.75,0,0,1-4.85-5.52l9.8-12.78a3.75,3.75,0,0,1,6,4.58c-3,3.9-6.28,8.16-9.8,12.76A3.58,3.58,0,0,1,1264.55,504.46ZM1284.18,479a3.75,3.75,0,0,1-4.84-5.54c5.12-6.62,8.56-11,9.89-12.75a3.75,3.75,0,1,1,5.92,4.61c-1.33,1.71-4.77,6.12-9.88,12.73A3.79,3.79,0,0,1,1284.18,479Z"/><path d="M1105.63,859.31a143.2,143.2,0,0,1-14.33-26.18,175.72,175.72,0,0,1-14.06-58.36,167.41,167.41,0,0,1,.84-30.35c.34-2.51.64-5,1-7.55l1.4-7.5c.5-2.49,1.2-4.94,1.79-7.41s1.37-4.9,2.11-7.34,1.47-4.88,2.4-7.24,1.75-4.79,2.7-7.15l3.06-7,.77-1.75c.26-.58.56-1.14.85-1.71l1.72-3.4c2.18-4.6,4.86-8.93,7.4-13.33,1.29-2.19,2.75-4.26,4.12-6.4s2.78-4.28,4.21-6.28c5.72-8.11,11.42-16.23,17.22-24.29q34.74-48.35,71.5-95.14c24.45-31.23,49.45-62,75.54-92-22.56,32.66-45.68,64.85-68.85,97l-69.49,96.36c-5.82,8-11.51,16.09-17.28,24.13-1.49,2-2.79,4-4.15,6s-2.75,4-4,6c-2.46,4.15-5.06,8.23-7.23,12.54l-1.7,3.19c-.28.54-.58,1.06-.84,1.61l-.76,1.64-3,6.56c-1,2.21-1.79,4.46-2.71,6.69s-1.71,4.51-2.48,6.79a166.58,166.58,0,0,0-7.05,28,177.08,177.08,0,0,0,.57,58c.78,4.82,1.85,9.6,3,14.37s2.59,9.47,4.15,14.13,3.25,9.3,5.19,13.84A135.47,135.47,0,0,0,1105.63,859.31Z"/><path d="M435.68,1209.67l-.05,0a55.2,55.2,0,0,1-16.08,6,3.75,3.75,0,0,1-1.46-7.36,47.35,47.35,0,0,0,13.88-5.2,3.75,3.75,0,0,1,3.71,6.52Zm12.87-9.54a3.75,3.75,0,0,1-4.49-5.94,44.67,44.67,0,0,0,8.82-11.84,3.75,3.75,0,1,1,6.69,3.39,52.39,52.39,0,0,1-10.28,13.83A3.9,3.9,0,0,1,448.55,1200.13Zm-43.85,15.68a3.74,3.74,0,0,1-2.32.47,90.55,90.55,0,0,1-16.32-3.73,3.75,3.75,0,0,1,2.23-7.16,83.85,83.85,0,0,0,15,3.45,3.75,3.75,0,0,1,3.29,4.16A3.79,3.79,0,0,1,404.7,1215.81ZM462.55,1172a3.75,3.75,0,0,1-5.61-3.59,40.41,40.41,0,0,0,.13-5.51,42.93,42.93,0,0,0-1.44-9.11,3.75,3.75,0,0,1,7.25-1.93,50.66,50.66,0,0,1,1.68,10.69,47.58,47.58,0,0,1-.15,6.55A3.7,3.7,0,0,1,462.55,1172Zm-88.88,35.64a3.72,3.72,0,0,1-2.71.41,43.46,43.46,0,0,0-14.71-1,3.75,3.75,0,1,1-.81-7.45,50.31,50.31,0,0,1,17.19,1.13,3.75,3.75,0,0,1,1,6.9Zm-31.44,3a4.59,4.59,0,0,1-.5.24c-2,.78-4,1.69-6.16,2.71-2.55,1.24-5.2,2.54-8.07,4a3.75,3.75,0,1,1-3.37-6.7c2.91-1.47,5.59-2.79,8.18-4,2.29-1.11,4.53-2.09,6.66-2.93a3.75,3.75,0,0,1,3.26,6.73Zm-28.82,14.23-.12.06c-4.44,2.35-9.05,4.84-14.11,7.6a3.75,3.75,0,0,1-3.6-6.58c5.09-2.78,9.73-5.28,14.2-7.65a3.75,3.75,0,0,1,3.63,6.57Zm-28.23,15.37-.06,0-14,7.83a3.75,3.75,0,1,1-3.67-6.54q7.11-4,14.05-7.84a3.75,3.75,0,0,1,3.7,6.52Zm-28.06,15.69,0,0-14,7.84a3.76,3.76,0,0,1-5.11-1.45,3.71,3.71,0,0,1,1.45-5.1q7-3.92,14-7.84a3.75,3.75,0,0,1,3.71,6.52Zm197.76-114.59a3.75,3.75,0,0,1-5.12-1.36,80.07,80.07,0,0,0-9-12.42,3.75,3.75,0,1,1,5.66-4.93,88.6,88.6,0,0,1,9.83,13.58,3.76,3.76,0,0,1-1.36,5.13ZM229,1271.49l-.07,0q-7.06,3.88-14.15,7.7a3.75,3.75,0,0,1-3.56-6.6c4.7-2.53,9.4-5.1,14.1-7.67a3.75,3.75,0,0,1,3.68,6.53Zm-28.32,15.24-.13.07c-4.91,2.57-9.73,5.06-14.35,7.39a3.75,3.75,0,1,1-3.38-6.69c4.58-2.32,9.37-4.79,14.24-7.34a3.75,3.75,0,0,1,3.62,6.57ZM172,1301.22l-.25.13c-5,2.42-9.93,4.73-14.63,6.86a3.75,3.75,0,1,1-3.1-6.82c4.65-2.12,9.52-4.4,14.47-6.79a3.75,3.75,0,0,1,3.51,6.62Zm-29.28,13.28a2.74,2.74,0,0,1-.42.21c-3,1.27-6,2.49-8.89,3.65q-3.1,1.23-6.13,2.4a3.75,3.75,0,1,1-2.69-7c2-.77,4-1.56,6-2.37,2.85-1.14,5.8-2.34,8.76-3.59a3.75,3.75,0,0,1,3.33,6.7Zm-30,11.54a4.27,4.27,0,0,1-.65.29c-5.36,1.86-10.56,3.55-15.44,5a3.75,3.75,0,0,1-2.16-7.18c4.79-1.44,9.88-3.09,15.14-4.91a3.75,3.75,0,0,1,3.11,6.79Zm-30.82,9.12a3.56,3.56,0,0,1-1,.4c-1.74.4-3.44.77-5.07,1.1-2.65.53-6.64,1.33-11.19,1.83a3.75,3.75,0,1,1-.82-7.45c4.22-.47,7.86-1.2,10.53-1.73,1.56-.32,3.2-.67,4.86-1.06a3.75,3.75,0,0,1,2.72,6.91ZM50,1337.86a3.66,3.66,0,0,1-2.47.45,34.79,34.79,0,0,1-16.41-6.85,3.75,3.75,0,0,1,4.67-5.87,27.53,27.53,0,0,0,12.94,5.32,3.75,3.75,0,0,1,3.1,4.3A3.69,3.69,0,0,1,50,1337.86Z"/><path d="M398.89,1107.12a20.9,20.9,0,0,0,3.69,7.3,31.48,31.48,0,0,0,5.77,5.82,38.5,38.5,0,0,0,3.32,2.37l1.72,1.07c.65.35,1.31.74,2,1.14a71.19,71.19,0,0,1,7.2,5.28A74.94,74.94,0,0,1,435,1143a42.05,42.05,0,0,1,8.13,17,25.45,25.45,0,0,1-3.85,19.65,33.18,33.18,0,0,1-3.07,4c-.55.62-1.15,1.16-1.73,1.74a18.17,18.17,0,0,1-1.79,1.63l-1.86,1.52c-.62.51-1.3.92-1.95,1.38a40.34,40.34,0,0,1-4.11,2.53,34.72,34.72,0,0,1-9.35,3.4,33.79,33.79,0,0,1-10,.39,48.31,48.31,0,0,1-9.21-1.92c-2.9-.85-5.68-1.83-8.37-2.8a128.6,128.6,0,0,0-15.89-5,61.92,61.92,0,0,0-16.24-1.66,71.13,71.13,0,0,0-16.41,2.55,95.63,95.63,0,0,0-15.81,6c-20.7,9.79-40.51,21.41-60,33.48l-14.67,9-7.34,4.52-7.38,4.45c-9.86,5.92-19.85,11.61-29.88,17.26-5.05,2.78-10.06,5.61-15.14,8.35s-10.15,5.47-15.31,8.07l-7.71,4c-2.59,1.29-5.21,2.52-7.81,3.78-5.2,2.53-10.5,4.88-15.81,7.2-1.33.58-2.65,1.17-4,1.73l-4,1.64-8.09,3.23c-5.41,2.06-10.86,4-16.38,5.87s-11.06,3.56-16.67,5.15S82,1314,76.24,1315.11a101.22,101.22,0,0,1-17.74,2.13,43.57,43.57,0,0,1-4.68-.16,23.13,23.13,0,0,1-4.92-.94,12.77,12.77,0,0,1-2.61-1.15,8.23,8.23,0,0,1-2.49-2.17,7,7,0,0,1-1.39-3.29,8.49,8.49,0,0,1,.16-3.14,15.71,15.71,0,0,1,2.06-4.72,30.32,30.32,0,0,1,2.77-3.73,67.75,67.75,0,0,1,6.25-6.31A143.82,143.82,0,0,1,67.37,1281l.68.82c-4.12,4-8.18,8.06-11.88,12.33A63.29,63.29,0,0,0,51,1300.7a31.09,31.09,0,0,0-2,3.43,10.54,10.54,0,0,0-1.07,3.25,2.86,2.86,0,0,0,.06,1.14,1.25,1.25,0,0,0,.38.58,4.88,4.88,0,0,0,2.22.92,25.84,25.84,0,0,0,7.5.13,109.9,109.9,0,0,0,16.22-3.26c5.42-1.45,10.79-3.17,16.14-5s10.69-3.75,16-5.8,10.56-4.17,15.8-6.36l7.81-3.37,3.91-1.67c1.3-.56,2.59-1.17,3.88-1.76,20.71-9.34,41.24-19.33,61.59-29.8l30.49-15.86c10.18-5.28,20.47-10.4,30.72-15.61,20.54-10.32,40.88-21,61.39-31.47,10.25-5.31,21.32-9.81,33.26-11.34a68.11,68.11,0,0,1,18,.08,116.25,116.25,0,0,1,17.32,4c5.52,1.58,10.8,3.26,15.75,3.67a27.12,27.12,0,0,0,7.17-.3,26.7,26.7,0,0,0,6.79-2.39,31.9,31.9,0,0,0,3.25-1.93c.53-.36,1.09-.69,1.59-1.08l1.5-1.16a12.11,12.11,0,0,0,1.42-1.22c.45-.43.94-.83,1.35-1.27a23.5,23.5,0,0,0,2.28-2.76,18,18,0,0,0,2.91-6.18,19.21,19.21,0,0,0,.25-7,36.64,36.64,0,0,0-5.8-14.23,71,71,0,0,0-4.85-6.59c-1.74-2.14-3.6-4.21-5.56-6.18s-4-3.83-6.15-5.58c-.53-.42-1.05-.84-1.62-1.24l-1.79-1.42c-.61-.47-1.16-1-1.72-1.5s-1.11-1-1.62-1.57a32.48,32.48,0,0,1-5.37-7.24,22.44,22.44,0,0,1-1.77-4.13,16,16,0,0,1-.85-4.44Z"/><path d="M1037.49,237.35c-.88.92-1.8,1.74-2.71,2.59s-1.86,1.67-2.8,2.47l-2.84,2.43-2.92,2.31c-3.86,3.15-7.94,6-12,8.89l-1.52,1.09-1.56,1-3.12,2-6.25,4.07c-4.23,2.6-8.53,5.1-12.8,7.65-2.12,1.31-4.33,2.44-6.51,3.63l-6.57,3.54c-2.19,1.16-4.36,2.38-6.58,3.51l-6.7,3.26c-4.48,2.16-8.93,4.4-13.44,6.48l-13.67,6C898.92,313.9,860.9,326,822.4,335.92L808,339.7c-2.4.66-4.83,1.18-7.25,1.72L793.43,343c-9.71,2.16-19.39,4.46-29.12,6.53-9.77,1.82-19.54,3.6-29.34,5.28l-14.65,2.46c-4.82.77-9.67,1.61-14.51,2.47-9.67,1.66-19.29,3.57-28.77,5.85-4.76,1.08-9.43,2.37-14.09,3.72s-9.18,3-13.6,4.78a70.61,70.61,0,0,0-12.53,6.55,37.53,37.53,0,0,0-10,9.45,33.73,33.73,0,0,0-3.42,6,46.47,46.47,0,0,0-2.21,6.76,62.84,62.84,0,0,0-1.28,7.17c-.34,2.43-.53,4.89-.7,7.36h0a.54.54,0,0,1-1.08,0,77.48,77.48,0,0,1-.07-15.08,44.7,44.7,0,0,1,1.53-7.6,37.63,37.63,0,0,1,3.09-7.27,42.85,42.85,0,0,1,10.37-11.93,72.58,72.58,0,0,1,13.14-8.3c9.16-4.66,18.79-7.9,28.41-10.8s19.41-5.12,29.18-7.23c4.89-1,9.78-1.95,14.71-2.85s9.75-1.7,14.63-2.56c9.73-1.65,19.47-3.2,29.23-4.71,2.45-.33,4.85-.87,7.28-1.3l7.27-1.36,14.54-2.73,7.26-1.38c2.42-.46,4.85-.9,7.25-1.48l14.41-3.3c38.43-8.8,76.44-19.77,113.14-34.24l13.75-5.45c4.55-1.91,9-4,13.54-6l6.76-3c2.24-1,4.43-2.17,6.64-3.25l6.63-3.29c2.21-1.1,4.45-2.14,6.58-3.37,4.32-2.38,8.67-4.71,13-7.14l6.33-3.83,3.17-1.91,1.58-1,1.54-1c4.11-2.72,8.28-5.38,12.23-8.34l3-2.17,2.9-2.29c2-1.5,3.83-3.12,5.63-4.76h0a.53.53,0,0,1,.74.76Z"/><path d="M1028.36,667.33a3.75,3.75,0,0,1-3.88-6.42c4.1-2.6,8.44-5.64,12.91-9a3.75,3.75,0,0,1,4.54,6c-4.64,3.53-9.16,6.68-13.43,9.39Zm-14.06,7.73-.33.17c-1.08.49-2.16.95-3.2,1.38-3.71,1.5-7.86,3-12.35,4.34a3.75,3.75,0,0,1-2.2-7.17c4.28-1.32,8.22-2.7,11.73-4.13,1-.38,1.93-.8,2.91-1.25a3.75,3.75,0,0,1,3.44,6.66ZM1054,648a3.75,3.75,0,0,1-4.31-6.11c3.83-3.26,7.83-6.82,11.9-10.58a3.75,3.75,0,1,1,5.09,5.51c-4.14,3.82-8.22,7.45-12.12,10.78A5.23,5.23,0,0,1,1054,648Zm-70.4,36.74a3.8,3.8,0,0,1-1,.4c-4.94,1.16-10.3,2.27-15.93,3.32a3.75,3.75,0,0,1-1.38-7.37c5.52-1,10.77-2.12,15.6-3.25a3.75,3.75,0,0,1,2.73,6.9Zm94-58.53a3.75,3.75,0,0,1-4.5-5.92c3.63-3.57,7.41-7.39,11.25-11.35a3.75,3.75,0,1,1,5.38,5.22c-3.87,4-7.7,7.86-11.37,11.48A3.68,3.68,0,0,1,1077.67,626.24ZM952,690.74a3.59,3.59,0,0,1-1.31.46c-5.08.77-10.47,1.53-16,2.24a3.75,3.75,0,1,1-.95-7.44c5.51-.7,10.84-1.45,15.86-2.22a3.75,3.75,0,0,1,2.44,7Zm148-87.57a3.75,3.75,0,0,1-4.62-5.81c3.52-3.78,7.15-7.75,10.81-11.81a3.75,3.75,0,1,1,5.57,5c-3.68,4.09-7.34,8.09-10.89,11.9A3.82,3.82,0,0,1,1100.05,603.17Zm21.52-23.89a3.75,3.75,0,0,1-4.7-5.72c3.4-3.87,6.92-7.95,10.48-12.12a3.75,3.75,0,0,1,5.71,4.87c-3.58,4.19-7.13,8.29-10.55,12.19A3.65,3.65,0,0,1,1121.57,579.28ZM920.05,694.84a3.8,3.8,0,0,1-1.47.48c-5.19.55-10.6,1.09-16.09,1.58a3.75,3.75,0,1,1-.67-7.47c5.44-.49,10.81-1,16-1.57a3.75,3.75,0,0,1,2.27,7Zm222.41-140a3.75,3.75,0,0,1-4.76-5.66c3.36-4,6.8-8.16,10.24-12.35a3.75,3.75,0,0,1,5.8,4.77c-3.46,4.2-6.92,8.38-10.28,12.4A3.61,3.61,0,0,1,1142.46,554.85ZM888,697.75a3.85,3.85,0,0,1-1.59.49c-5.24.4-10.66.78-16.12,1.13a3.75,3.75,0,0,1-.48-7.49c5.43-.35,10.82-.72,16-1.12a3.75,3.75,0,0,1,2.16,7ZM1162.87,530a3.75,3.75,0,0,1-4.8-5.61c3.4-4.2,6.75-8.39,10-12.53a3.75,3.75,0,0,1,5.88,4.67q-4.95,6.24-10.07,12.58A4,4,0,0,1,1162.87,530Zm-307,169.8a3.66,3.66,0,0,1-1.67.5c-5.3.28-10.73.54-16.13.78a3.75,3.75,0,0,1-.32-7.5c5.37-.23,10.77-.49,16-.77a3.75,3.75,0,0,1,2.07,7Zm327-195a3.75,3.75,0,0,1-4.83-5.56q5.07-6.47,9.86-12.68a3.75,3.75,0,1,1,5.94,4.58q-4.81,6.22-9.89,12.72A3.72,3.72,0,0,1,1182.87,504.83ZM823.65,701.22a3.67,3.67,0,0,1-1.74.5c-5.49.19-10.88.36-16.13.5a3.75,3.75,0,1,1-.2-7.5c5.23-.14,10.6-.3,16.07-.49a3.75,3.75,0,0,1,2,7Zm378.88-221.85a3.75,3.75,0,0,1-4.86-5.52c3.38-4.44,6.62-8.73,9.69-12.81a3.75,3.75,0,1,1,6,4.51c-3.09,4.09-6.33,8.39-9.72,12.84A3.81,3.81,0,0,1,1202.53,479.37Zm19.33-25.72a3.75,3.75,0,0,1-4.89-5.48c3.52-4.74,6.72-9.08,9.53-12.93a3.75,3.75,0,0,1,6.06,4.43c-2.83,3.86-6,8.21-9.56,13A3.63,3.63,0,0,1,1221.86,453.65ZM791.45,702.09a3.71,3.71,0,0,1-1.8.5c-5.61.11-11,.19-16.14.26a3.76,3.76,0,1,1-.09-7.51c5.12-.06,10.49-.14,16.08-.25a3.75,3.75,0,0,1,2,7Zm449.42-274.4a3.75,3.75,0,0,1-4.92-5.44l4.18-5.84.08-.12,5.42-7a3.75,3.75,0,0,1,5.95,4.58l-5.38,7c-.58.83-2,2.83-4.17,5.82A3.76,3.76,0,0,1,1240.87,427.69ZM759.23,702.48a3.67,3.67,0,0,1-1.86.5c-6,0-11.37,0-16.14,0a3.75,3.75,0,0,1,0-7.5c4.75,0,10.15,0,16.08,0a3.75,3.75,0,0,1,1.9,7ZM727,702.39a3.66,3.66,0,0,1-1.91.5c-2.91,0-4.88-.07-5.79-.08l-10.26.08a3.75,3.75,0,1,1,0-7.5l10.34-.08,5.84.08a3.75,3.75,0,0,1,1.83,7Z"/><path d="M1226,405.84c-13.57,21-28,41.54-42.55,61.88q-11,15.19-22.34,30.2c-7.52,10-15.26,19.86-23,29.69s-15.68,19.57-23.8,29.13-16.33,19.07-24.75,28.4c-4.2,4.68-8.5,9.27-12.85,13.81s-8.77,9-13.26,13.48-9.06,8.79-13.74,13.06-9.46,8.45-14.42,12.46-10.13,7.82-15.57,11.36c-2.7,1.78-5.52,3.45-8.42,5-1.44.8-3,1.51-4.44,2.26l-2.33,1-1.16.5-1.15.43c-12.23,4.68-24.65,7.56-37.11,9.88s-25,4-37.47,5.34l-9.38,1-9.39.86-9.39.71-9.4.63c-12.52.76-25,1.41-37.57,1.77s-25,.58-37.57.66c-25.05,0-50.08-.32-75.09-1.57,25-1.14,50-2.17,74.92-3.68,12.47-.71,24.93-1.48,37.37-2.43s24.88-1.87,37.28-3.09c24.78-2.5,49.57-5.22,73.76-10.14l4.53-.94,4.5-1c3-.63,6-1.44,8.93-2.17,1.48-.37,2.93-.82,4.4-1.23s2.93-.82,4.35-1.32l4.3-1.41,4.19-1.59a83,83,0,0,0,15.54-8.36c5-3.31,9.89-7,14.65-10.83,9.56-7.65,18.68-16,27.56-24.65s17.47-17.62,26-26.67c17.06-18.11,33.33-37,49.55-56,8.08-9.5,16-19.13,24-28.75s15.84-19.31,23.67-29C1195,445.13,1210.46,425.5,1226,405.84Z"/><path d="M1014.49,919.73a3.51,3.51,0,0,1-1.12.42,3.73,3.73,0,0,1-4.43-2.9l-3.28-15.74A3.75,3.75,0,1,1,1013,900l3.28,15.74A3.75,3.75,0,0,1,1014.49,919.73Zm-6.56-31.47a3.81,3.81,0,0,1-1.11.42,3.75,3.75,0,0,1-4.44-2.91L999.1,870a3.75,3.75,0,1,1,7.35-1.53l3.27,15.73A3.76,3.76,0,0,1,1007.93,888.26Zm-6.56-31.47a3.7,3.7,0,0,1-1.11.42,3.74,3.74,0,0,1-4.43-2.91l-3.28-15.73a3.75,3.75,0,0,1,7.34-1.54l3.28,15.74A3.75,3.75,0,0,1,1001.37,856.79Zm-6.55-31.48a3.54,3.54,0,0,1-1.11.42,3.74,3.74,0,0,1-4.44-2.9L986,807.09a3.75,3.75,0,0,1,7.35-1.53l3.27,15.74A3.75,3.75,0,0,1,994.82,825.31Zm-6.56-31.47a3.7,3.7,0,0,1-1.11.42,3.76,3.76,0,0,1-4.44-2.9l-3.27-15.74a3.75,3.75,0,1,1,7.34-1.53l3.28,15.73A3.75,3.75,0,0,1,988.26,793.84Zm-8.85-30.7a3.75,3.75,0,0,1-5-1.25,34.56,34.56,0,0,0-10.06-10.27,3.75,3.75,0,1,1,4.14-6.26,42.17,42.17,0,0,1,12.26,12.52,3.76,3.76,0,0,1-1.17,5.18Zm-26-17.21a3.82,3.82,0,0,1-2.48.45,34.18,34.18,0,0,0-6.56-.42l-8.77.27a3.75,3.75,0,0,1-.23-7.49l8.77-.28a41.82,41.82,0,0,1,8,.52,3.75,3.75,0,0,1,1.28,6.95Zm-32.12.31a3.68,3.68,0,0,1-1.75.5l-16.07.5a3.75,3.75,0,0,1-.23-7.5l16.06-.5a3.75,3.75,0,0,1,2,7Zm-32.13,1a3.71,3.71,0,0,1-1.75.5l-16.07.5a3.75,3.75,0,1,1-.24-7.49l16.07-.51a3.75,3.75,0,0,1,2,7Zm-32.13,1a3.75,3.75,0,0,1-1.76.5l-16.06.5a3.75,3.75,0,0,1-.24-7.5l16.07-.5a3.75,3.75,0,0,1,2,7Zm-32.13,1a3.86,3.86,0,0,1-1.76.49l-16.07.51a3.75,3.75,0,0,1-.23-7.5l16.06-.5a3.75,3.75,0,0,1,2,7Zm-32.14,1a3.71,3.71,0,0,1-1.75.5l-16.07.5a3.75,3.75,0,1,1-.23-7.5l16.06-.5a3.75,3.75,0,0,1,2,7Zm-32.13,1a3.86,3.86,0,0,1-1.76.49l-16.06.51a3.75,3.75,0,0,1-.24-7.5l16.07-.5a3.75,3.75,0,0,1,2,7Zm-32.13,1a3.75,3.75,0,0,1-1.76.5l-16.07.5a3.75,3.75,0,0,1-.23-7.49l16.07-.51a3.75,3.75,0,0,1,2,7Zm-32.14,1a3.56,3.56,0,0,1-1.75.49l-16.07.51a3.75,3.75,0,0,1-.23-7.5l16.06-.5a3.75,3.75,0,0,1,2,7Zm-32.13,1a3.71,3.71,0,0,1-1.75.5l-16.07.5a3.75,3.75,0,1,1-.24-7.49l16.07-.51a3.75,3.75,0,0,1,2,7Z"/><path d="M743.86,321.39A97.46,97.46,0,0,0,728,297.67a85.49,85.49,0,0,0-22.56-17.52,104.92,104.92,0,0,0-27.3-9.87,189.83,189.83,0,0,0-29.39-3.7c-20-.87-40.14-1.64-60.21-2.32q-15.06-.5-30.12-.88-7.53-.19-15.07-.29c-2.51,0-5-.07-7.53,0l-3.77,0-3.76.15,3.76-.31,3.76-.2c2.51-.14,5-.2,7.54-.3q7.53-.24,15.07-.38,15.07-.32,30.15-.45c20.12-.22,40.18-.34,60.35-.37a195.25,195.25,0,0,1,30.51,2.49A111.84,111.84,0,0,1,709,273a94.25,94.25,0,0,1,25.67,18.16,107.71,107.71,0,0,1,18.7,25.37,5.36,5.36,0,0,1-9.42,5.12,1.74,1.74,0,0,1-.1-.19Z"/><path d="M565.38,262.73c-.25,2.42-.5,4.84-.7,7.26s-.45,4.83-.66,7.24c-.37,4.83-.77,9.65-1.09,14.46-.67,9.63-1.18,19.24-1.47,28.84s-.38,19.17-.2,28.73.57,19.09,1.42,28.57a290.12,290.12,0,0,0,9.76,56,203.3,203.3,0,0,0,9.76,26.74c.95,2.2,2.1,4.28,3.13,6.44.54,1.07,1,2.18,1.61,3.22l1.77,3.13c2.25,4.28,5,8.21,7.58,12.39-1.76-1.69-3.45-3.44-5.19-5.17a31.85,31.85,0,0,1-2.48-2.72l-2.36-2.82-2.35-2.85c-.77-1-1.44-2-2.16-3l-2.12-3c-.68-1-1.45-2-2.06-3.08a152.67,152.67,0,0,1-13.12-26.58c-7-18.56-10.84-38.17-12.45-57.79-.42-4.91-.64-9.82-.84-14.74s-.19-9.83,0-14.73q.32-14.73,2-29.33c1.11-9.73,2.64-19.39,4.65-28.95,1-4.77,2.11-9.53,3.37-14.24S563.72,267.32,565.38,262.73Z"/><path d="M534.42,463.53l49,4.62-48.86,6.1a5.39,5.39,0,1,1-1.33-10.7A5.72,5.72,0,0,1,534.42,463.53Z"/><path d="M472.41,1360.72l24.69,32a5.41,5.41,0,1,1-8.57,6.6,5.72,5.72,0,0,1-.72-1.24Z"/><path d="M519.67,1339.33l24.41,31.56a5.41,5.41,0,0,1-8.56,6.61,5.31,5.31,0,0,1-.72-1.26Z"/><path d="M567.65,1316.73l24.14,31.09a5.41,5.41,0,0,1-8.55,6.63,5.79,5.79,0,0,1-.73-1.27Z"/><path d="M615.18,1293.58,639,1324.16a5.41,5.41,0,1,1-8.53,6.65,5.78,5.78,0,0,1-.75-1.29Z"/><path d="M662.65,1269.76l23.58,30.12a5.41,5.41,0,0,1-8.52,6.68,5.85,5.85,0,0,1-.76-1.32Z"/><path d="M712.09,1244.25l23.31,29.67a5.41,5.41,0,1,1-8.51,6.69,5.81,5.81,0,0,1-.77-1.34Z"/><path d="M767.32,1215l23,29.21a5.41,5.41,0,0,1-8.5,6.71,6.14,6.14,0,0,1-.78-1.35Z"/><path d="M821.21,1185.72,844,1214.5a5.42,5.42,0,1,1-8.49,6.73,5.73,5.73,0,0,1-.79-1.37Z"/><path d="M873.11,1156.9l22.62,28.45a5.42,5.42,0,1,1-8.48,6.74,5.33,5.33,0,0,1-.8-1.38Z"/><path d="M925.51,1127.2l22.37,28a5.42,5.42,0,1,1-8.47,6.76,5.79,5.79,0,0,1-.81-1.4Z"/><path d="M984.25,1093.24l22.28,27.86a5.42,5.42,0,0,1-8.47,6.77,5.54,5.54,0,0,1-.81-1.41Z"/><path d="M1034.42,1064.39l21.79,27a5.42,5.42,0,1,1-8.44,6.81,5.59,5.59,0,0,1-.84-1.45Z"/><path d="M1084.5,1033.68l21.88,27.17a5.43,5.43,0,1,1-9.28,5.36Z"/><path d="M1134.16,1003.46l21.59,26.68a5.42,5.42,0,0,1-8.43,6.83,5.73,5.73,0,0,1-.85-1.47Z"/><path d="M1184.54,972.3l21.22,26a5.43,5.43,0,1,1-8.41,6.86,5.69,5.69,0,0,1-.87-1.5Z"/><path d="M1234.94,940.59l20.76,25.24a5.43,5.43,0,0,1-8.39,6.9,5.37,5.37,0,0,1-.89-1.55Z"/><path d="M1284.5,908.84l20.19,24.25a5.44,5.44,0,1,1-8.36,7,5.36,5.36,0,0,1-.92-1.6Z"/><path d="M1333.27,876.66,1352.91,900a5.45,5.45,0,0,1-8.33,7,5.53,5.53,0,0,1-.95-1.66Z"/><path d="M1407.81,824l19.3,22.71a5.45,5.45,0,1,1-9.28,5.36Z"/><path d="M1441.35,800.09l17.36,19.33a5.48,5.48,0,1,1-8.15,7.32,5.54,5.54,0,0,1-1.13-2Z"/><path d="M1467.34,776.13l20,24a5.44,5.44,0,1,1-8.35,7,5.57,5.57,0,0,1-.93-1.61Z"/><path d="M479.82,1374.35h0a3.23,3.23,0,0,1-4.25-1.65h0a3.2,3.2,0,0,1,1.63-4.23h0a3.23,3.23,0,0,1,4.24,1.64h0a3.22,3.22,0,0,1-1.33,4.08h0A2.25,2.25,0,0,1,479.82,1374.35Zm-8.83,3.9a3.22,3.22,0,0,1-4.24-1.66h0a3.22,3.22,0,0,1,1.65-4.23h0a3.23,3.23,0,0,1,4.24,1.65h0a3.23,3.23,0,0,1-1.34,4.08h0A1.82,1.82,0,0,1,471,1378.25Zm-8.86,3.86h0a3.21,3.21,0,0,1-4.22-1.67h0a3.2,3.2,0,0,1,1.67-4.23h0a3.21,3.21,0,0,1,4.23,1.67h0a3.22,3.22,0,0,1-1.35,4.06h0A2.06,2.06,0,0,1,462.13,1382.11Zm-8.88,3.82a3.23,3.23,0,0,1-4.22-1.71h0a3.21,3.21,0,0,1,1.7-4.21h0a3.19,3.19,0,0,1,4.21,1.7h0a3.22,3.22,0,0,1-1.34,4h0Zm-8.91,3.75a3.21,3.21,0,0,1-4.2-1.73h0a3.2,3.2,0,0,1,1.73-4.2h0a3.21,3.21,0,0,1,4.2,1.72h0a3.22,3.22,0,0,1-1.36,4h0Zm-8.93,3.7h0a3.22,3.22,0,0,1-4.19-1.75h0a3.2,3.2,0,0,1,1.75-4.2h0a3.2,3.2,0,0,1,4.19,1.76h0a3.22,3.22,0,0,1-1.35,4h0Zm-9,3.64a3.21,3.21,0,0,1-4.18-1.79h0a3.2,3.2,0,0,1,1.78-4.18h0a3.21,3.21,0,0,1,4.18,1.79h0a3.21,3.21,0,0,1-1.37,4h0A2,2,0,0,1,426.46,1397Zm-9,3.59a3.23,3.23,0,0,1-4.18-1.81h0a3.21,3.21,0,0,1,1.81-4.17h0a3.2,3.2,0,0,1,4.17,1.8h0a3.22,3.22,0,0,1-1.38,4h0A2.74,2.74,0,0,1,417.49,1400.61Zm-9,3.53a3.22,3.22,0,0,1-4.16-1.83h0a3.22,3.22,0,0,1,1.84-4.17h0a3.22,3.22,0,0,1,4.15,1.83h0a3.22,3.22,0,0,1-1.38,4h0A4.71,4.71,0,0,1,408.48,1404.14Zm-9,3.47a3.23,3.23,0,0,1-4.16-1.86h0a3.22,3.22,0,0,1,1.86-4.15h0a3.21,3.21,0,0,1,4.15,1.86h0a3.21,3.21,0,0,1-1.39,3.93h0A4.81,4.81,0,0,1,399.47,1407.61Zm-9.05,3.41a3.2,3.2,0,0,1-4.13-1.88h0a3.2,3.2,0,0,1,1.88-4.14h0a3.22,3.22,0,0,1,4.13,1.88h0a3.19,3.19,0,0,1-1.39,3.91h0A2.75,2.75,0,0,1,390.42,1411Zm-9.06,3.37a3.23,3.23,0,0,1-4.13-1.91h0a3.22,3.22,0,0,1,1.91-4.12h0a3.22,3.22,0,0,1,4.14,1.9h0a3.24,3.24,0,0,1-1.42,3.89h0A3.85,3.85,0,0,1,381.36,1414.39Zm-9.08,3.3a3.22,3.22,0,0,1-4.12-1.93h0a3.23,3.23,0,0,1,1.94-4.12h0a3.21,3.21,0,0,1,4.11,1.94h0a3.21,3.21,0,0,1-1.41,3.87h0A3.48,3.48,0,0,1,372.28,1417.69Zm-9.11,3.25a3.23,3.23,0,0,1-4.1-2h0a3.21,3.21,0,0,1,2-4.1h0a3.19,3.19,0,0,1,4.1,2h0a3.21,3.21,0,0,1-1.41,3.85h0A3.87,3.87,0,0,1,363.17,1420.94Zm-9.12,3.19a3.22,3.22,0,0,1-4.09-2h0a3.21,3.21,0,0,1,2-4.08h0a3.23,3.23,0,0,1,4.09,2h0a3.23,3.23,0,0,1-1.43,3.84h0A2.61,2.61,0,0,1,354.05,1424.13Zm-9.15,3.13h0a3.21,3.21,0,0,1-4.07-2h0a3.22,3.22,0,0,1,2-4.09h0a3.22,3.22,0,0,1,4.08,2h0a3.23,3.23,0,0,1-1.44,3.81h0A3.08,3.08,0,0,1,344.9,1427.26Zm-9.16,3.07a3.21,3.21,0,0,1-4.06-2h0a3.2,3.2,0,0,1,2-4.06h0a3.2,3.2,0,0,1,4.06,2h0a3.2,3.2,0,0,1-1.44,3.79h0A3.24,3.24,0,0,1,335.74,1430.33Zm-9.18,3a3.23,3.23,0,0,1-4.05-2.07h0a3.2,3.2,0,0,1,2.07-4h0a3.22,3.22,0,0,1,4.05,2.06h0a3.22,3.22,0,0,1-1.45,3.77h0A3.5,3.5,0,0,1,326.56,1433.36Zm-9.2,3a3.23,3.23,0,0,1-4-2.1h0a3.23,3.23,0,0,1,2.09-4h0a3.22,3.22,0,0,1,4,2.09h0A3.22,3.22,0,0,1,318,1436h0A4.06,4.06,0,0,1,317.36,1436.32Zm-9.22,2.89a3.22,3.22,0,0,1-4-2.11h0a3.21,3.21,0,0,1,2.12-4h0a3.21,3.21,0,0,1,4,2.1h0a3.24,3.24,0,0,1-1.47,3.75h0A3.44,3.44,0,0,1,308.14,1439.21Zm-9.23,2.85a3.22,3.22,0,0,1-4-2.14h0a3.21,3.21,0,0,1,2.13-4h0a3.21,3.21,0,0,1,4,2.13h0a3.21,3.21,0,0,1-1.47,3.72h0A3.27,3.27,0,0,1,298.91,1442.06Zm-9.26,2.78a3.21,3.21,0,0,1-4-2.17h0a3.2,3.2,0,0,1,2.16-4h0a3.22,3.22,0,0,1,4,2.17h0a3.22,3.22,0,0,1-1.47,3.69h0A3.27,3.27,0,0,1,289.65,1444.84Zm-9.28,2.72a3.21,3.21,0,0,1-4-2.19h0a3.21,3.21,0,0,1,2.2-4h0a3.2,3.2,0,0,1,4,2.19h0a3.2,3.2,0,0,1-1.48,3.67h0A3,3,0,0,1,280.37,1447.56Zm-9.29,2.67a3.21,3.21,0,0,1-4-2.21h0a3.23,3.23,0,0,1,2.21-4h0a3.21,3.21,0,0,1,4,2.23h0a3.18,3.18,0,0,1-1.48,3.65h0A3.34,3.34,0,0,1,271.08,1450.23Zm-9.31,2.6h0a3.19,3.19,0,0,1-3.95-2.23h0a3.21,3.21,0,0,1,2.24-4h0a3.21,3.21,0,0,1,3.95,2.24h0a3.21,3.21,0,0,1-1.49,3.65h0A3.36,3.36,0,0,1,261.77,1452.83Zm-9.32,2.55a3.22,3.22,0,0,1-3.95-2.26h0a3.24,3.24,0,0,1,2.27-3.95h0a3.23,3.23,0,0,1,3.95,2.28h0a3.22,3.22,0,0,1-1.5,3.61h0A2.91,2.91,0,0,1,252.45,1455.38Zm-9.34,2.49a3.24,3.24,0,0,1-3.94-2.3h0a3.22,3.22,0,0,1,2.3-3.92h0a3.22,3.22,0,0,1,3.93,2.3h0a3.24,3.24,0,0,1-1.5,3.6h0A3.44,3.44,0,0,1,243.11,1457.87Zm-9.37,2.42a3.21,3.21,0,0,1-3.9-2.32h0a3.2,3.2,0,0,1,2.31-3.91h0a3.22,3.22,0,0,1,3.9,2.33h0a3.2,3.2,0,0,1-1.51,3.58h0A3.06,3.06,0,0,1,233.74,1460.29Zm-9.37,2.36a3.22,3.22,0,0,1-3.9-2.34h0a3.21,3.21,0,0,1,2.35-3.89h0a3.22,3.22,0,0,1,3.9,2.34h0a3.23,3.23,0,0,1-1.51,3.56h0A3.22,3.22,0,0,1,224.37,1462.65ZM215,1465a3.23,3.23,0,0,1-3.88-2.38h0a3.21,3.21,0,0,1,2.37-3.87h0a3.21,3.21,0,0,1,3.88,2.37h0a3.2,3.2,0,0,1-1.51,3.53h0A3.24,3.24,0,0,1,215,1465Zm-9.41,2.24a3.22,3.22,0,0,1-3.86-2.41h0a3.21,3.21,0,0,1,2.4-3.86h0a3.22,3.22,0,0,1,3.86,2.4h0a3.22,3.22,0,0,1-1.52,3.51h0A3.26,3.26,0,0,1,205.57,1467.19Zm-9.43,2.16h0a3.21,3.21,0,0,1-3.84-2.42h0a3.22,3.22,0,0,1,2.42-3.85h0a3.22,3.22,0,0,1,3.85,2.43h0a3.24,3.24,0,0,1-1.53,3.49h0A2.92,2.92,0,0,1,196.14,1469.35Zm-9.42,2.1a3.2,3.2,0,0,1-3.83-2.45h0a3.2,3.2,0,0,1,2.44-3.82h0a3.22,3.22,0,0,1,3.83,2.45h0a3.23,3.23,0,0,1-1.53,3.48h0A2.92,2.92,0,0,1,186.72,1471.45Zm-9.46,2h0a3.23,3.23,0,0,1-3.82-2.48h0a3.24,3.24,0,0,1,2.49-3.81h0a3.21,3.21,0,0,1,3.81,2.48h0a3.22,3.22,0,0,1-1.54,3.45h0A3.11,3.11,0,0,1,177.26,1473.49Zm-9.46,2A3.21,3.21,0,0,1,164,1473h0a3.21,3.21,0,0,1,2.51-3.79h0a3.21,3.21,0,0,1,3.79,2.5h0a3.21,3.21,0,0,1-1.54,3.43h0A3.3,3.3,0,0,1,167.8,1475.46Zm-9.49,1.9a3.22,3.22,0,0,1-3.77-2.53h0a3.22,3.22,0,0,1,2.53-3.78h0a3.22,3.22,0,0,1,3.78,2.53h0a3.22,3.22,0,0,1-1.55,3.41h0A3.27,3.27,0,0,1,158.31,1477.36Zm-9.49,1.83h0a3.22,3.22,0,0,1-3.76-2.56h0a3.22,3.22,0,0,1,2.57-3.76h0a3.24,3.24,0,0,1,3.76,2.56h0a3.23,3.23,0,0,1-1.55,3.38h0A3.3,3.3,0,0,1,148.82,1479.19Zm-9.51,1.75a3.21,3.21,0,0,1-3.74-2.59h0a3.21,3.21,0,0,1,2.59-3.73h0a3.22,3.22,0,0,1,3.74,2.59h0a3.22,3.22,0,0,1-1.56,3.36h0A3,3,0,0,1,139.31,1480.94Zm-9.53,1.69a3.21,3.21,0,0,1-3.71-2.63h0a3.2,3.2,0,0,1,2.62-3.7h0a3.21,3.21,0,0,1,3.72,2.61h0a3.23,3.23,0,0,1-1.57,3.33h0A3.06,3.06,0,0,1,129.78,1482.63Zm-9.54,1.6a3.21,3.21,0,0,1-3.69-2.64h0a3.22,3.22,0,0,1,2.66-3.7h0a3.21,3.21,0,0,1,3.69,2.66h0a3.22,3.22,0,0,1-1.56,3.3h0A3.12,3.12,0,0,1,120.24,1484.23Zm-9.54,1.53a3.22,3.22,0,0,1-3.68-2.68h0a3.23,3.23,0,0,1,2.69-3.67h0a3.22,3.22,0,0,1,3.67,2.68h0a3.23,3.23,0,0,1-1.57,3.28h0A3.26,3.26,0,0,1,110.7,1485.76Zm-9.57,1.45a3.22,3.22,0,0,1-3.65-2.72h0a3.22,3.22,0,0,1,2.72-3.65h0a3.24,3.24,0,0,1,3.65,2.72h0a3.24,3.24,0,0,1-1.58,3.25h0A3.16,3.16,0,0,1,101.13,1487.21Zm-9.58,1.36a3.21,3.21,0,0,1-3.62-2.75h0a3.2,3.2,0,0,1,2.74-3.62h0a3.22,3.22,0,0,1,3.63,2.74h0a3.23,3.23,0,0,1-1.58,3.23h0A3.25,3.25,0,0,1,91.55,1488.57ZM82,1489.84h0a3.21,3.21,0,0,1-3.6-2.78h0a3.19,3.19,0,0,1,2.79-3.59h0a3.23,3.23,0,0,1,3.6,2.78h0a3.24,3.24,0,0,1-1.59,3.2h0A3.35,3.35,0,0,1,82,1489.84ZM72.35,1491a3.22,3.22,0,0,1-3.57-2.81h0a3.21,3.21,0,0,1,2.82-3.58h0a3.22,3.22,0,0,1,3.57,2.82h0a3.24,3.24,0,0,1-1.59,3.16h0A3.2,3.2,0,0,1,72.35,1491Zm-9.62,1.07a3.2,3.2,0,0,1-3.54-2.84h0a3.21,3.21,0,0,1,2.86-3.54h0a3.21,3.21,0,0,1,3.53,2.86h0a3.19,3.19,0,0,1-1.59,3.12h0A3,3,0,0,1,62.73,1492.09Zm-9.64,1h0a3.22,3.22,0,0,1-3.51-2.9h0a3.22,3.22,0,0,1,2.9-3.51h0a3.22,3.22,0,0,1,3.5,2.91h0a3.21,3.21,0,0,1-1.59,3.08h0A3.21,3.21,0,0,1,53.09,1493.08Zm-9.64.87h0A3.21,3.21,0,0,1,40,1491h0a3.19,3.19,0,0,1,2.93-3.46h0a3.22,3.22,0,0,1,3.48,2.93h0a3.2,3.2,0,0,1-1.61,3h0A3.31,3.31,0,0,1,43.45,1494Zm-9.66.74a3.21,3.21,0,0,1-3.43-3h0a3.21,3.21,0,0,1,3-3.43h0a3.21,3.21,0,0,1,3.43,3h0a3.23,3.23,0,0,1-1.61,3h0A3.07,3.07,0,0,1,33.79,1494.69Z"/><path d="M485.9,1384.77h0a3.22,3.22,0,0,1-4.25-1.63h0a3.23,3.23,0,0,1,1.65-4.25h0a3.23,3.23,0,0,1,4.24,1.64h0a3.24,3.24,0,0,1-1.33,4.09h0Zm-8.83,3.9h0a3.22,3.22,0,0,1-4.24-1.65h0a3.22,3.22,0,0,1,1.65-4.24h0a3.23,3.23,0,0,1,4.24,1.66h0a3.22,3.22,0,0,1-1.34,4.07h0Zm-8.86,3.86h0a3.21,3.21,0,0,1-4.23-1.67h0a3.22,3.22,0,0,1,1.68-4.23h0a3.21,3.21,0,0,1,4.22,1.68h0a3.19,3.19,0,0,1-1.34,4h0A2.59,2.59,0,0,1,468.21,1392.53Zm-8.89,3.81a3.21,3.21,0,0,1-4.21-1.7h0a3.2,3.2,0,0,1,1.7-4.21h0a3.19,3.19,0,0,1,4.21,1.7h0a3.19,3.19,0,0,1-1.35,4h0A1.92,1.92,0,0,1,459.32,1396.34Zm-8.91,3.76h0a3.22,3.22,0,0,1-4.2-1.73h0a3.22,3.22,0,0,1,1.73-4.21h0a3.21,3.21,0,0,1,4.2,1.73h0a3.21,3.21,0,0,1-1.35,4h0A2.69,2.69,0,0,1,450.41,1400.1Zm-8.92,3.69h0a3.22,3.22,0,0,1-4.2-1.76h0a3.19,3.19,0,0,1,1.76-4.18h0a3.24,3.24,0,0,1,4.21,1.76h0a3.25,3.25,0,0,1-1.38,4h0A2.22,2.22,0,0,1,441.49,1403.79Zm-9,3.64a3.2,3.2,0,0,1-4.18-1.78h0a3.22,3.22,0,0,1,1.78-4.19h0a3.2,3.2,0,0,1,4.17,1.77h0a3.23,3.23,0,0,1-1.37,4h0Zm-9,3.58h0a3.22,3.22,0,0,1-4.17-1.8h0a3.22,3.22,0,0,1,1.81-4.17h0a3.21,3.21,0,0,1,4.17,1.8h0a3.22,3.22,0,0,1-1.38,4h0Zm-9,3.53a3.19,3.19,0,0,1-4.15-1.83h0a3.21,3.21,0,0,1,1.83-4.16h0a3.23,3.23,0,0,1,4.17,1.83h0a3.23,3.23,0,0,1-1.4,3.95h0A2.67,2.67,0,0,1,414.55,1414.54Zm-9,3.48a3.21,3.21,0,0,1-4.14-1.87h0a3.21,3.21,0,0,1,1.85-4.14h0a3.22,3.22,0,0,1,4.16,1.86h0a3.21,3.21,0,0,1-1.4,3.92h0A2.56,2.56,0,0,1,405.53,1418Zm-9,3.42a3.22,3.22,0,0,1-4.14-1.9h0a3.21,3.21,0,0,1,1.88-4.13h0a3.2,3.2,0,0,1,4.14,1.89h0a3.21,3.21,0,0,1-1.4,3.91h0A4.23,4.23,0,0,1,396.5,1421.44Zm-9.07,3.35a3.21,3.21,0,0,1-4.12-1.91h0a3.2,3.2,0,0,1,1.9-4.12h0a3.23,3.23,0,0,1,4.13,1.92h0a3.21,3.21,0,0,1-1.41,3.88h0A3,3,0,0,1,387.43,1424.79Zm-9.08,3.3h0a3.21,3.21,0,0,1-4.11-1.93h0a3.21,3.21,0,0,1,1.93-4.12h0a3.21,3.21,0,0,1,4.11,1.94h0a3.19,3.19,0,0,1-1.41,3.87h0A3.48,3.48,0,0,1,378.35,1428.09Zm-9.1,3.24a3.21,3.21,0,0,1-4.11-2h0a3.2,3.2,0,0,1,2-4.09h0a3.22,3.22,0,0,1,4.1,2h0a3.22,3.22,0,0,1-1.43,3.85h0A2.57,2.57,0,0,1,369.25,1431.33Zm-9.14,3.19a3.19,3.19,0,0,1-4.08-2h0a3.21,3.21,0,0,1,2-4.09h0a3.2,3.2,0,0,1,4.08,2h0a3.21,3.21,0,0,1-1.42,3.84h0A3,3,0,0,1,360.11,1434.52Zm-9.14,3.14a3.22,3.22,0,0,1-4.07-2h0a3.21,3.21,0,0,1,2-4.08h0a3.22,3.22,0,0,1,4.07,2h0a3.2,3.2,0,0,1-1.43,3.81h0A3.43,3.43,0,0,1,351,1437.66Zm-9.16,3.07a3.21,3.21,0,0,1-4.06-2h0a3.21,3.21,0,0,1,2-4.06h0a3.21,3.21,0,0,1,4.07,2h0a3.25,3.25,0,0,1-1.44,3.81h0A3.62,3.62,0,0,1,341.81,1440.73Zm-9.18,3h0a3.23,3.23,0,0,1-4.05-2.06h0a3.23,3.23,0,0,1,2.07-4.06h0a3.21,3.21,0,0,1,4.05,2.07h0a3.2,3.2,0,0,1-1.45,3.77h0A3.42,3.42,0,0,1,332.63,1443.75Zm-9.21,3a3.2,3.2,0,0,1-4-2.09h0a3.22,3.22,0,0,1,2.08-4h0a3.23,3.23,0,0,1,4,2.1h0a3.22,3.22,0,0,1-1.46,3.75h0A3.35,3.35,0,0,1,323.42,1446.7Zm-9.21,2.9h0a3.22,3.22,0,0,1-4-2.12h0a3.22,3.22,0,0,1,2.12-4h0a3.22,3.22,0,0,1,4,2.12h0a3.22,3.22,0,0,1-1.46,3.74h0A4.24,4.24,0,0,1,314.21,1449.6Zm-9.25,2.84a3.21,3.21,0,0,1-4-2.14h0a3.2,3.2,0,0,1,2.14-4h0a3.19,3.19,0,0,1,4,2.14h0a3.19,3.19,0,0,1-1.46,3.71h0A3.16,3.16,0,0,1,305,1452.44Zm-9.25,2.79h0a3.22,3.22,0,0,1-4-2.16h0a3.24,3.24,0,0,1,2.17-4h0a3.22,3.22,0,0,1,4,2.16h0a3.22,3.22,0,0,1-1.48,3.7h0A3.06,3.06,0,0,1,295.71,1455.23Zm-9.27,2.72a3.22,3.22,0,0,1-4-2.19h0a3.21,3.21,0,0,1,2.19-4h0a3.21,3.21,0,0,1,4,2.19h0a3.21,3.21,0,0,1-1.48,3.67h0A3.47,3.47,0,0,1,286.44,1458Zm-9.29,2.66a3.22,3.22,0,0,1-4-2.21h0a3.23,3.23,0,0,1,2.22-4h0a3.19,3.19,0,0,1,4,2.22h0a3.19,3.19,0,0,1-1.49,3.65h0A3.07,3.07,0,0,1,277.15,1460.61Zm-9.31,2.61h0a3.21,3.21,0,0,1-4-2.25h0a3.22,3.22,0,0,1,2.24-4h0a3.22,3.22,0,0,1,3.95,2.25h0a3.22,3.22,0,0,1-1.49,3.65h0A3.22,3.22,0,0,1,267.84,1463.22Zm-9.33,2.55a3.22,3.22,0,0,1-3.94-2.27h0a3.21,3.21,0,0,1,2.27-4h0a3.23,3.23,0,0,1,3.94,2.27h0a3.23,3.23,0,0,1-1.5,3.62h0A4.06,4.06,0,0,1,258.51,1465.77Zm-9.34,2.47a3.21,3.21,0,0,1-3.93-2.29h0a3.21,3.21,0,0,1,2.3-3.92h0a3.2,3.2,0,0,1,3.92,2.29h0a3.21,3.21,0,0,1-1.5,3.6h0A3,3,0,0,1,249.17,1468.24Zm-9.37,2.42a3.21,3.21,0,0,1-3.9-2.32h0a3.21,3.21,0,0,1,2.31-3.9h0a3.21,3.21,0,0,1,3.92,2.32h0a3.23,3.23,0,0,1-1.51,3.58h0A3,3,0,0,1,239.8,1470.66Zm-9.38,2.36a3.21,3.21,0,0,1-3.89-2.34h0a3.23,3.23,0,0,1,2.36-3.9h0a3.22,3.22,0,0,1,3.89,2.35h0a3.22,3.22,0,0,1-1.51,3.55h0A3,3,0,0,1,230.42,1473Zm-9.37,2.3a3.23,3.23,0,0,1-3.89-2.38h0a3.21,3.21,0,0,1,2.38-3.87h0a3.2,3.2,0,0,1,3.87,2.37h0a3.2,3.2,0,0,1-1.52,3.54h0A3.44,3.44,0,0,1,221.05,1475.32Zm-9.41,2.24h0a3.23,3.23,0,0,1-3.87-2.41h0a3.22,3.22,0,0,1,2.4-3.86h0a3.22,3.22,0,0,1,3.86,2.4h0a3.22,3.22,0,0,1-1.52,3.51h0A3.33,3.33,0,0,1,211.64,1477.56Zm-9.43,2.16a3.23,3.23,0,0,1-3.85-2.43h0a3.21,3.21,0,0,1,2.43-3.84h0a3.21,3.21,0,0,1,3.85,2.42h0a3.22,3.22,0,0,1-1.53,3.49h0A3.2,3.2,0,0,1,202.21,1479.72Zm-9.44,2.1h0a3.22,3.22,0,0,1-3.83-2.46h0a3.22,3.22,0,0,1,2.46-3.82h0a3.22,3.22,0,0,1,3.83,2.46h0a3.24,3.24,0,0,1-1.53,3.48h0A3.14,3.14,0,0,1,192.77,1481.82Zm-9.45,2a3.21,3.21,0,0,1-3.8-2.48h0a3.21,3.21,0,0,1,2.47-3.82h0a3.23,3.23,0,0,1,3.81,2.48h0a3.22,3.22,0,0,1-1.53,3.46h0A3.73,3.73,0,0,1,183.32,1483.86Zm-9.47,2a3.21,3.21,0,0,1-3.79-2.51h0a3.21,3.21,0,0,1,2.51-3.79h0a3.23,3.23,0,0,1,3.79,2.5h0a3.2,3.2,0,0,1-1.55,3.43h0A2.91,2.91,0,0,1,173.85,1485.82Zm-9.48,1.9a3.22,3.22,0,0,1-3.78-2.53h0a3.22,3.22,0,0,1,2.55-3.78h0a3.21,3.21,0,0,1,3.76,2.53h0a3.2,3.2,0,0,1-1.54,3.41h0A3.27,3.27,0,0,1,164.37,1487.72Zm-9.49,1.83h0a3.23,3.23,0,0,1-3.76-2.57h0a3.22,3.22,0,0,1,2.56-3.75h0a3.22,3.22,0,0,1,3.76,2.56h0a3.23,3.23,0,0,1-1.55,3.39h0A3.39,3.39,0,0,1,154.88,1489.55Zm-9.51,1.76a3.22,3.22,0,0,1-3.74-2.6h0a3.22,3.22,0,0,1,2.59-3.74h0a3.23,3.23,0,0,1,3.74,2.6h0a3.2,3.2,0,0,1-1.56,3.35h0A3.19,3.19,0,0,1,145.37,1491.31Zm-9.53,1.67a3.2,3.2,0,0,1-3.71-2.62h0a3.21,3.21,0,0,1,2.63-3.72h0a3.21,3.21,0,0,1,3.7,2.63h0a3.19,3.19,0,0,1-1.55,3.33h0A3,3,0,0,1,135.84,1493Zm-9.54,1.6h0a3.22,3.22,0,0,1-3.69-2.66h0a3.21,3.21,0,0,1,2.65-3.69h0a3.23,3.23,0,0,1,3.7,2.65h0a3.24,3.24,0,0,1-1.57,3.31h0A3.07,3.07,0,0,1,126.3,1494.58Zm-9.55,1.53h0a3.22,3.22,0,0,1-3.67-2.68h0a3.23,3.23,0,0,1,2.68-3.68h0a3.2,3.2,0,0,1,3.66,2.69h0a3.19,3.19,0,0,1-1.56,3.26h0A3.06,3.06,0,0,1,116.75,1496.11Zm-9.57,1.44h0a3.21,3.21,0,0,1-3.64-2.71h0a3.19,3.19,0,0,1,2.71-3.64h0a3.2,3.2,0,0,1,3.63,2.72h0a3.17,3.17,0,0,1-1.57,3.25h0A2.86,2.86,0,0,1,107.18,1497.55Zm-9.58,1.36h0a3.21,3.21,0,0,1-3.62-2.75h0a3.21,3.21,0,0,1,2.75-3.62h0a3.21,3.21,0,0,1,3.62,2.75h0a3.22,3.22,0,0,1-1.58,3.22h0A3.25,3.25,0,0,1,97.6,1498.91ZM88,1500.18h0a3.23,3.23,0,0,1-3.6-2.79h0a3.23,3.23,0,0,1,2.79-3.59h0a3.21,3.21,0,0,1,3.59,2.78h0a3.22,3.22,0,0,1-1.59,3.2h0A3.16,3.16,0,0,1,88,1500.18Zm-9.6,1.18a3.22,3.22,0,0,1-3.57-2.82h0a3.2,3.2,0,0,1,2.82-3.57h0a3.21,3.21,0,0,1,3.56,2.82h0a3.22,3.22,0,0,1-1.59,3.16h0A3.39,3.39,0,0,1,78.41,1501.36Zm-9.63,1.07h0a3.22,3.22,0,0,1-3.54-2.85h0A3.23,3.23,0,0,1,68.1,1496h0a3.24,3.24,0,0,1,3.54,2.86h0a3.22,3.22,0,0,1-1.59,3.13h0A3,3,0,0,1,68.78,1502.43Zm-9.63,1a3.2,3.2,0,0,1-3.5-2.89h0a3.2,3.2,0,0,1,2.89-3.5h0a3.2,3.2,0,0,1,3.5,2.89h0a3.21,3.21,0,0,1-1.59,3.09h0A3,3,0,0,1,59.15,1503.4Zm-9.65.86h0a3.22,3.22,0,0,1-3.47-3h0a3.22,3.22,0,0,1,2.94-3.46h0a3.22,3.22,0,0,1,3.47,2.94h0a3.21,3.21,0,0,1-1.6,3h0A3,3,0,0,1,49.5,1504.26Z"/><path d="M491.46,1394.5h0a3.22,3.22,0,0,1-4.25-1.63h0a3.23,3.23,0,0,1,1.64-4.25h0a3.24,3.24,0,0,1,4.25,1.65h0a3.23,3.23,0,0,1-1.33,4.08h0Zm-8.84,3.9h0a3.21,3.21,0,0,1-4.23-1.65h0a3.21,3.21,0,0,1,1.65-4.24h0a3.22,3.22,0,0,1,4.23,1.65h0a3.23,3.23,0,0,1-1.33,4.09h0Zm-8.85,3.87h0a3.23,3.23,0,0,1-4.23-1.67h0a3.21,3.21,0,0,1,1.67-4.23h0a3.2,3.2,0,0,1,4.22,1.67h0a3.2,3.2,0,0,1-1.33,4.06h0Zm-8.88,3.81a3.21,3.21,0,0,1-4.22-1.7h0a3.21,3.21,0,0,1,1.7-4.22h0a3.21,3.21,0,0,1,4.21,1.7h0a3.19,3.19,0,0,1-1.34,4h0A1.92,1.92,0,0,1,464.89,1406.08Zm-8.9,3.75a3.21,3.21,0,0,1-4.21-1.71h0a3.21,3.21,0,0,1,1.72-4.21h0a3.21,3.21,0,0,1,4.21,1.73h0a3.22,3.22,0,0,1-1.35,4h0A2.39,2.39,0,0,1,456,1409.83Zm-8.94,3.71a3.21,3.21,0,0,1-4.19-1.75h0a3.23,3.23,0,0,1,1.75-4.2h0a3.22,3.22,0,0,1,4.19,1.76h0a3.2,3.2,0,0,1-1.35,4h0A1.84,1.84,0,0,1,447.05,1413.54Zm-8.94,3.65a3.21,3.21,0,0,1-4.19-1.78h0a3.21,3.21,0,0,1,1.78-4.18h0a3.23,3.23,0,0,1,4.19,1.77h0a3.23,3.23,0,0,1-1.38,4h0A3,3,0,0,1,438.11,1417.19Zm-9,3.59h0A3.21,3.21,0,0,1,425,1419h0a3.2,3.2,0,0,1,1.8-4.17h0a3.2,3.2,0,0,1,4.16,1.81h0a3.21,3.21,0,0,1-1.37,4h0A3.36,3.36,0,0,1,429.13,1420.78Zm-9,3.53h0a3.21,3.21,0,0,1-4.16-1.83h0a3.21,3.21,0,0,1,1.83-4.16h0a3.2,3.2,0,0,1,4.16,1.83h0a3.2,3.2,0,0,1-1.38,3.95h0A2.31,2.31,0,0,1,420.13,1424.31Zm-9,3.49a3.24,3.24,0,0,1-4.16-1.86h0a3.23,3.23,0,0,1,1.86-4.16h0a3.23,3.23,0,0,1,4.16,1.86h0a3.24,3.24,0,0,1-1.4,3.93h0Zm-9,3.41a3.2,3.2,0,0,1-4.14-1.88h0a3.21,3.21,0,0,1,1.87-4.14h0a3.22,3.22,0,0,1,4.15,1.89h0a3.21,3.21,0,0,1-1.41,3.9h0A2.92,2.92,0,0,1,402.08,1431.21Zm-9.06,3.36a3.2,3.2,0,0,1-4.13-1.9h0a3.21,3.21,0,0,1,1.91-4.13h0a3.21,3.21,0,0,1,4.12,1.91h0a3.2,3.2,0,0,1-1.4,3.89h0A2.5,2.5,0,0,1,393,1434.57Zm-9.09,3.32h0a3.22,3.22,0,0,1-4.11-1.94h0a3.23,3.23,0,0,1,1.93-4.12h0a3.22,3.22,0,0,1,4.12,1.94h0a3.23,3.23,0,0,1-1.42,3.88h0A4.12,4.12,0,0,1,383.93,1437.89Zm-9.1,3.25a3.21,3.21,0,0,1-4.1-2h0a3.21,3.21,0,0,1,2-4.1h0a3.22,3.22,0,0,1,4.1,2h0a3.22,3.22,0,0,1-1.42,3.86h0A5.29,5.29,0,0,1,374.83,1441.14Zm-9.12,3.19a3.22,3.22,0,0,1-4.09-2h0a3.22,3.22,0,0,1,2-4.09h0a3.23,3.23,0,0,1,4.1,2h0a3.23,3.23,0,0,1-1.43,3.83h0A2.85,2.85,0,0,1,365.71,1444.33Zm-9.14,3.13a3.2,3.2,0,0,1-4.08-2h0a3.2,3.2,0,0,1,2-4.08h0a3.21,3.21,0,0,1,4.08,2h0a3.23,3.23,0,0,1-1.44,3.82h0A2.9,2.9,0,0,1,356.57,1447.46Zm-9.17,3.09a3.22,3.22,0,0,1-4.06-2h0a3.2,3.2,0,0,1,2-4h0a3.21,3.21,0,0,1,4.07,2h0a3.23,3.23,0,0,1-1.44,3.8h0A3,3,0,0,1,347.4,1450.55Zm-9.18,3a3.22,3.22,0,0,1-4.05-2.06h0a3.22,3.22,0,0,1,2.07-4h0a3.2,3.2,0,0,1,4,2h0a3.22,3.22,0,0,1-1.44,3.78h0A3.46,3.46,0,0,1,338.22,1453.57Zm-9.19,3h0a3.2,3.2,0,0,1-4-2.09h0a3.2,3.2,0,0,1,2.09-4h0a3.19,3.19,0,0,1,4,2.08h0a3.21,3.21,0,0,1-1.45,3.76h0A3,3,0,0,1,329,1456.53Zm-9.22,2.91a3.21,3.21,0,0,1-4-2.11h0a3.21,3.21,0,0,1,2.11-4h0a3.21,3.21,0,0,1,4,2.12h0a3.2,3.2,0,0,1-1.45,3.73h0A4.17,4.17,0,0,1,319.81,1459.44Zm-9.24,2.85a3.22,3.22,0,0,1-4-2.14h0a3.22,3.22,0,0,1,2.13-4h0a3.23,3.23,0,0,1,4,2.14h0a3.23,3.23,0,0,1-1.47,3.73h0A4,4,0,0,1,310.57,1462.29Zm-9.26,2.78h0a3.2,3.2,0,0,1-4-2.16h0a3.2,3.2,0,0,1,2.16-4h0a3.2,3.2,0,0,1,4,2.17h0a3.19,3.19,0,0,1-1.46,3.69h0A3.36,3.36,0,0,1,301.31,1465.07ZM292,1467.8h0a3.23,3.23,0,0,1-4-2.19h0a3.23,3.23,0,0,1,2.19-4h0a3.23,3.23,0,0,1,4,2.2h0a3.21,3.21,0,0,1-1.47,3.68h0A3.23,3.23,0,0,1,292,1467.8Zm-9.29,2.67a3.2,3.2,0,0,1-4-2.21h0a3.21,3.21,0,0,1,2.21-4h0a3.22,3.22,0,0,1,4,2.21h0a3.24,3.24,0,0,1-1.49,3.67h0A3,3,0,0,1,282.75,1470.47Zm-9.3,2.61h0a3.23,3.23,0,0,1-4-2.24h0a3.23,3.23,0,0,1,2.24-4h0a3.22,3.22,0,0,1,4,2.25h0a3.21,3.21,0,0,1-1.49,3.64h0A3.22,3.22,0,0,1,273.45,1473.08Zm-9.33,2.55a3.23,3.23,0,0,1-3.95-2.26h0a3.23,3.23,0,0,1,2.27-3.95h0a3.2,3.2,0,0,1,3.93,2.27h0a3.22,3.22,0,0,1-1.49,3.62h0A3.06,3.06,0,0,1,264.12,1475.63Zm-9.35,2.49a3.2,3.2,0,0,1-3.92-2.29h0a3.2,3.2,0,0,1,2.29-3.92h0a3.21,3.21,0,0,1,3.92,2.3h0a3.22,3.22,0,0,1-1.49,3.6h0A3,3,0,0,1,254.77,1478.12Zm-9.35,2.43a3.22,3.22,0,0,1-3.91-2.32h0a3.22,3.22,0,0,1,2.32-3.91h0a3.2,3.2,0,0,1,3.9,2.32h0a3.21,3.21,0,0,1-1.5,3.58h0A3.62,3.62,0,0,1,245.42,1480.55Zm-9.37,2.37a3.21,3.21,0,0,1-3.9-2.34h0a3.21,3.21,0,0,1,2.34-3.9h0a3.21,3.21,0,0,1,3.9,2.34h0a3.22,3.22,0,0,1-1.51,3.55h0A3.57,3.57,0,0,1,236.05,1482.92Zm-9.39,2.3a3.22,3.22,0,0,1-3.88-2.38h0a3.19,3.19,0,0,1,2.36-3.87h0a3.22,3.22,0,0,1,3.89,2.37h0a3.22,3.22,0,0,1-1.51,3.53h0A3.61,3.61,0,0,1,226.66,1485.22Zm-9.41,2.24a3.23,3.23,0,0,1-3.86-2.4h0a3.22,3.22,0,0,1,2.39-3.87h0a3.22,3.22,0,0,1,3.86,2.4h0a3.22,3.22,0,0,1-1.52,3.52h0A3.37,3.37,0,0,1,217.25,1487.46Zm-9.42,2.17a3.2,3.2,0,0,1-3.84-2.42h0a3.22,3.22,0,0,1,2.42-3.85h0a3.22,3.22,0,0,1,3.85,2.42h0a3.21,3.21,0,0,1-1.54,3.49h0A3.2,3.2,0,0,1,207.83,1489.63Zm-9.43,2.1h0a3.22,3.22,0,0,1-3.83-2.45h0a3.23,3.23,0,0,1,2.46-3.84h0a3.21,3.21,0,0,1,3.82,2.46h0a3.18,3.18,0,0,1-1.53,3.47h0A2.87,2.87,0,0,1,198.4,1491.73Zm-9.45,2a3.21,3.21,0,0,1-3.82-2.47h0a3.21,3.21,0,0,1,2.48-3.81h0a3.22,3.22,0,0,1,3.81,2.48h0a3.23,3.23,0,0,1-1.54,3.46h0A2.89,2.89,0,0,1,189,1493.77Zm-9.47,2h0a3.2,3.2,0,0,1-3.79-2.51h0a3.19,3.19,0,0,1,2.5-3.78h0A3.2,3.2,0,0,1,182,1492h0a3.19,3.19,0,0,1-1.54,3.42h0A3.09,3.09,0,0,1,179.48,1495.75Zm-9.48,1.91a3.23,3.23,0,0,1-3.78-2.53h0a3.22,3.22,0,0,1,2.53-3.78h0a3.21,3.21,0,0,1,3.78,2.54h0a3.21,3.21,0,0,1-1.55,3.4h0A3.38,3.38,0,0,1,170,1497.66Zm-9.5,1.84a3.23,3.23,0,0,1-3.75-2.56h0a3.22,3.22,0,0,1,2.56-3.77h0a3.21,3.21,0,0,1,3.75,2.56h0a3.24,3.24,0,0,1-1.56,3.38h0A3.58,3.58,0,0,1,160.5,1499.5Zm-9.5,1.76h0a3.22,3.22,0,0,1-3.73-2.59h0a3.21,3.21,0,0,1,2.59-3.73h0a3.21,3.21,0,0,1,3.73,2.59h0a3.2,3.2,0,0,1-1.55,3.35h0A3.38,3.38,0,0,1,151,1501.26Zm-9.53,1.69h0a3.22,3.22,0,0,1-3.71-2.62h0a3.23,3.23,0,0,1,2.63-3.72h0a3.21,3.21,0,0,1,3.71,2.63h0a3.22,3.22,0,0,1-1.56,3.33h0A3.45,3.45,0,0,1,141.47,1503Zm-9.53,1.6a3.23,3.23,0,0,1-3.7-2.65h0a3.21,3.21,0,0,1,2.65-3.69h0a3.23,3.23,0,0,1,3.7,2.65h0a3.24,3.24,0,0,1-1.57,3.31h0A3.31,3.31,0,0,1,131.94,1504.55Zm-9.56,1.54a3.22,3.22,0,0,1-3.67-2.68h0a3.23,3.23,0,0,1,2.68-3.68h0a3.21,3.21,0,0,1,3.67,2.68h0a3.21,3.21,0,0,1-1.57,3.28h0A3.13,3.13,0,0,1,122.38,1506.09Zm-9.57,1.45h0a3.21,3.21,0,0,1-3.64-2.71h0a3.22,3.22,0,0,1,2.72-3.66h0a3.23,3.23,0,0,1,3.64,2.72h0a3.21,3.21,0,0,1-1.57,3.25h0A3.42,3.42,0,0,1,112.81,1507.54Zm-9.56,1.37a3.22,3.22,0,0,1-3.63-2.75h0a3.21,3.21,0,0,1,2.75-3.63h0a3.21,3.21,0,0,1,3.61,2.75h0a3.21,3.21,0,0,1-1.58,3.23h0A3.15,3.15,0,0,1,103.25,1508.91Zm-9.6,1.27h0a3.23,3.23,0,0,1-3.6-2.79h0a3.21,3.21,0,0,1,2.78-3.59h0a3.2,3.2,0,0,1,3.59,2.77h0a3.19,3.19,0,0,1-1.57,3.2h0A3.21,3.21,0,0,1,93.65,1510.18ZM84,1511.37h0a3.22,3.22,0,0,1-3.57-2.82h0a3.22,3.22,0,0,1,2.82-3.57h0a3.22,3.22,0,0,1,3.57,2.82h0a3.23,3.23,0,0,1-1.59,3.16h0A3.37,3.37,0,0,1,84,1511.37Zm-9.62,1.08a3.2,3.2,0,0,1-3.54-2.85h0a3.2,3.2,0,0,1,2.86-3.53h0a3.2,3.2,0,0,1,3.55,2.84h0a3.26,3.26,0,0,1-1.59,3.14h0A3.06,3.06,0,0,1,74.42,1512.45Zm-9.63,1h0a3.23,3.23,0,0,1-3.51-2.89h0a3.22,3.22,0,0,1,2.89-3.51h0a3.21,3.21,0,0,1,3.51,2.89h0a3.2,3.2,0,0,1-1.59,3.09h0A3,3,0,0,1,64.79,1513.44Z"/><path class="cls-6" d="M869,333.5c13.79-6.42,27.57-12.19,41.29-18s27.38-11.57,40.89-17.59c3.4-1.45,6.74-3,10.11-4.53s6.71-3.07,10-4.65,6.64-3.21,10-4.77,6.61-3.26,9.88-5a387.37,387.37,0,0,0,38.61-22.41,109.71,109.71,0,0,1-15.38,16.94,165,165,0,0,1-18.05,14.15,216.68,216.68,0,0,1-19.53,11.92c-3.33,1.85-6.74,3.53-10.13,5.26s-6.86,3.28-10.34,4.81A319.13,319.13,0,0,1,913.63,325c-7.29,2-14.65,3.83-22.08,5.29A190.65,190.65,0,0,1,869,333.5Z"/><g class="cls-12"><path d="M1182,722.87s-9.7-34.63,21.06-64,66.71-64.46,71.83-99.24,19.5,18.18,20,34.61,8,61.12-34.15,83.2S1187.52,749,1182,722.87Z"/></g><g class="cls-5"><path d="M1434.33,737.36S1365.67,761.09,1211.47,866s-501.69,339.39-501.69,339.39,371-191,524.29-297.5S1434.33,737.36,1434.33,737.36Z"/></g><g class="cls-11"><path d="M476.94,1222.29s-43.71,3.56-97.16,30.84S200.24,1347.24,159.18,1365s185.48-59,231.06-81.32S476.94,1222.29,476.94,1222.29Z"/></g><path class="cls-6" d="M571.35,273.08s95.89-5.25,116.3,10.81C687.65,283.89,630.55,296.17,571.35,273.08Z"/><path d="M937.25,1170.21q-66.4,38.34-141.66,79.81c-204.72,112.6-377,192.46-512,237.38C155.89,1529.87,97.3,1529,73.74,1524.73c-38.64-7-63.57-39-71.16-67.65C-2.26,1438.8-.21,1422.74,8,1413c-1.78-9-5.35-31.53-2.83-56.2,4.35-42.51,24.74-70.88,59-82.13,8.45-6.46,69.81-54.11,146.35-131.35,75.65-76.34,182.05-198.06,259.3-344.37,48.15-91.22,76.66-164.57,84.72-218,6.78-44.93-3-64.21-9.42-71.7a77.06,77.06,0,0,1-18.08-39.24c-7-49.21-16.92-142.24-5.44-213,.36-6.16,3.4-16.6,19.07-21.36,8.47-2.58,18.33-2.83,24.86-3,2-.05,3.7-.09,4.86-.18.26,0,.51,0,.77,0,2.17.05,53.55,1.15,75.95,2.47l4,.21c21.89,1.06,67.43,3.27,102.18,40.41a131.75,131.75,0,0,1,21.21,30.65c138.15-29.14,190.74-65,217.62-83.38,3.23-2.2,6-4.11,8.6-5.75,9.92-6.34,19-7.84,27-4.45,8.56,3.64,13,11.87,15.08,17.47,7,1.53,18.47,6.87,33.06,23.83,17.12,19.91,68,70.76,83.27,86h0a7.48,7.48,0,0,1,10.13,1.58c.07.09,7.31,9.34,12.25,14.48a25.26,25.26,0,0,0,2.3,2.2c9.69,4.79,27.5,15.78,43.93,37.52a18.13,18.13,0,0,1,7.39-1.68A16.1,16.1,0,0,1,1247,399l.25.25c7.18,7.36,23.18,23.76,33,41.58a13,13,0,0,1,2.5.47c2.73.79,6.57,2.87,9.41,8.28.83,1.45,7.1,10.29,13.74,19.65,48.51,68.32,93.91,134.7,102.85,163.89a26.16,26.16,0,0,1,11.13,3.35c8.86,5,15.22,14.82,18.92,29.25l64.71,93.11c7,8.06,11.81,24.75-3.1,39-6.24,6-63.32,53.64-184,135.94C1234.53,989.58,1107.94,1071.67,937.25,1170.21ZM55.34,1294.87c-20.22,11.67-32,32.81-35.21,63.05-3,28.84,3.27,55.37,3.34,55.64a7.5,7.5,0,0,1-2.47,7.51c-6.18,5.19-7.72,17.82-3.91,32.17,6.36,24,27.18,50.87,59.33,56.73,17.84,3.24,73.26,6.15,202.4-36.8C413,1428.53,584.43,1349,788.36,1236.88c243.19-133.75,416.76-245.4,519.54-315.51,118.26-80.68,176.29-128.88,182-134.39,9.17-8.77,3.83-16.4,2-18.53a5.46,5.46,0,0,1-.56-.71l-65.76-94.61a7.46,7.46,0,0,1-1.14-2.54c-2.59-10.81-6.74-18.1-12-21.06a10.91,10.91,0,0,0-7.41-1.33,7.49,7.49,0,0,1-9.79-6.62c-.37-5.28-6-21.82-39.36-73.16-21.59-33.19-47.07-69.08-62.3-90.53-10.24-14.42-13.83-19.5-14.81-21.37-.09-.17-.17-.32-.25-.44a7.2,7.2,0,0,1-4.83.2,7.37,7.37,0,0,1-4.57-4.1c-8.2-17.41-26-35.61-32.65-42.47l-.24-.25c-.59-.6-.86-.6-1-.6-1.08,0-3,1.29-4,2.22a7.45,7.45,0,0,1-11.57-1c-15.67-23.07-33.43-34.11-42.62-38.63l-.18-.09c-1.75-.88-3.59-2.4-6.2-5.13-2.84-2.95-6.22-6.95-8.86-10.17a7.51,7.51,0,0,1-8.89-1.24c-2.77-2.74-68-67.32-88.47-91.2-15.27-17.75-24.79-19.06-26.35-19.16a6.51,6.51,0,0,1-5.35-.9,7.1,7.1,0,0,1-3.06-5.07c-.53-2.49-3.14-10.16-7.91-12.16-3.91-1.64-9.23.88-13,3.3-2.39,1.52-5.09,3.37-8.22,5.5-31.28,21.35-96.36,65.77-282.18,96.8l-.14,0c-61,9.06-90.74,19.95-102.66,37.56-10.94,16.16-8,40.54.65,77.19.84,3.54,2.63,10.79,2.89,11.84l2.83,9.92a7.5,7.5,0,0,1-14.43,4.11l-2.86-10-.06-.25c-.09-.33-2-8.25-3-12.12-9.66-40.71-12.51-68.33,1.52-89.06C618,339.3,649.59,327,716,317.09q22.83-3.81,43.21-7.87a115,115,0,0,0-16.86-23.52c-30.6-32.71-72-34.72-92-35.69l-4.18-.21c-21.15-1.25-70.3-2.34-75-2.44-1.49.11-3.26.15-5.29.2-15.06.39-29,1.91-29.34,10.4a7.45,7.45,0,0,1-.09,1c-11.27,68.87-1.44,160.46,5.41,208.93a62.08,62.08,0,0,0,14.62,31.57c9.89,11.53,20.16,35.41,12.87,83.71-8.32,55.12-37.35,130.07-86.3,222.79C405,953.94,297.44,1076.93,221,1154c-82.81,83.54-148.13,132.84-148.78,133.33a7.51,7.51,0,0,1-2.27,1.16A72.44,72.44,0,0,0,55.34,1294.87Z"/><path class="cls-13" d="M526.93,840a12.56,12.56,0,0,1-8.11,1.57c-21-3-54.74-5.95-64.09-3.27a12.68,12.68,0,0,1-7-24.39c17.86-5.11,65.3,1.22,74.63,2.55A12.68,12.68,0,0,1,526.93,840Z"/><path d="M529.61,844.6a18.08,18.08,0,0,1-11.54,2.24c-23.86-3.38-54.42-5.56-61.87-3.43a18,18,0,1,1-9.91-34.7c18.41-5.26,63.47.51,76.84,2.4a18,18,0,0,1,6.48,33.49Zm-82.05-24.88a7.34,7.34,0,0,0-3.36,8.36,7.33,7.33,0,0,0,9.06,5c12-3.44,51.94,1.08,66.31,3.12a7.34,7.34,0,0,0,8.28-6.23,7.33,7.33,0,0,0-6.22-8.28c-25.26-3.58-59.37-6.43-72.4-2.7A7.46,7.46,0,0,0,447.56,819.72Z"/><path class="cls-13" d="M571.27,763.17a12.6,12.6,0,0,1-8.78,1.46c-16.6-3.23-48-6.44-61.5-1.28a12.68,12.68,0,0,1-9.05-23.7c24.71-9.42,70.31-.92,75.42.09a12.68,12.68,0,0,1,3.91,23.43Z"/><path d="M574,767.81a18,18,0,0,1-12.49,2.08c-17.2-3.35-46.74-6-58.56-1.53a18,18,0,1,1-12.85-33.72c25.54-9.75,69.74-1.84,78.34-.16A18,18,0,0,1,574,767.81Zm-81.17-22.64a7.35,7.35,0,0,0-3.16,8.94,7.31,7.31,0,0,0,9.46,4.23c16.4-6.25,52.08-1.37,64.44,1a7.24,7.24,0,0,0,5.07-.84A7.33,7.33,0,0,0,566.34,745c-18-3.52-53.55-7.56-72.49-.33A7,7,0,0,0,492.78,745.17Z"/><path class="cls-13" d="M622,663.46a12.66,12.66,0,0,1-11.21.74c-1.47-.6-33-13-60.31,9.74a12.69,12.69,0,0,1-16.22-19.51c39.42-32.77,84.4-14.44,86.3-13.64A12.69,12.69,0,0,1,622,663.46Z"/><path d="M624.68,668.1a18,18,0,0,1-15.94,1c-1.17-.47-30-11.78-54.83,8.91a18,18,0,0,1-23.08-27.74c41.88-34.84,89.78-15.32,91.8-14.47a18,18,0,0,1,2,32.25Zm-68.48-4.68c27.26-15.73,55.3-4.72,56.6-4.19a7.3,7.3,0,0,0,6.52-.41,7.2,7.2,0,0,0,3.08-3.5,7.31,7.31,0,0,0-3.92-9.59c-1.77-.75-43.85-17.89-80.8,12.82a7.33,7.33,0,1,0,9.39,11.26A67,67,0,0,1,556.2,663.42Z"/><polygon class="cls-8" points="493.1 839.96 493.11 839.95 493.1 839.95 493.1 839.96"/><path class="cls-8" d="M681.6,578.33s11.22,31.37-27.52,44.19-91,39.26-97.43,91.78S536,816.15,493.11,840c28.36-2.8,36.47,32.72,52.12,77.41,2,5.65,6.3,12.55,12.37,20.34h0c60.65-52.89,67.07-102.51,75.73-140.78s10.95-73.81,91-110.86c65-28.78,63.89-79.58,59-103.71C746,582,707.85,581.1,681.6,578.33Z"/><g class="cls-9"><path class="cls-6" d="M609.65,781.53s3.79,34.64-24.86,67.71C584.79,849.24,579.43,812.5,609.65,781.53Z"/></g><g class="cls-9"><path class="cls-6" d="M620.7,672.31s-7.58,23.75-38.14,37.48C582.56,709.79,589.64,684.23,620.7,672.31Z"/></g><path d="M681.6,578.33a33.64,33.64,0,0,1,1,21.78,31,31,0,0,1-5.19,10.14,40.16,40.16,0,0,1-8.23,8,53.67,53.67,0,0,1-9.89,5.66c-.85.42-1.73.73-2.61,1.1s-1.76.7-2.58,1c-1.67.63-3.33,1.27-5,1.94q-9.95,3.94-19.48,8.64c-12.66,6.3-24.77,13.65-35.34,22.64-2.65,2.24-5.17,4.6-7.62,7a101.25,101.25,0,0,0-6.84,7.67A82.67,82.67,0,0,0,569,691.05a78.39,78.39,0,0,0-6.31,19.17l-.82,5-.75,5.42c-.53,3.61-1.07,7.22-1.72,10.82a248.59,248.59,0,0,1-11,42.61c-5.05,13.83-11.85,27.23-21.09,38.81a102.28,102.28,0,0,1-15.58,15.62c-1.47,1.11-2.89,2.27-4.41,3.28L505,833.37l-2.32,1.46A92.33,92.33,0,0,1,493.1,840c1.47-1.06,3-2.05,4.43-3.13s2.88-2.14,4.24-3.32l2.08-1.7,2-1.79c1.35-1.17,2.59-2.47,3.86-3.7A104.62,104.62,0,0,0,523,809.81c7.74-11.81,13.27-24.88,17.36-38.39a287.86,287.86,0,0,0,9-41.55q.76-5.28,1.45-10.59l.64-5.31c.25-1.86.52-3.79.82-5.67a88.15,88.15,0,0,1,7-21.87c6.62-13.91,16.89-25.67,28.56-35A163.23,163.23,0,0,1,626.13,629c6.77-2.87,13.65-5.44,20.63-7.63q2.61-.83,5.24-1.6c.9-.26,1.71-.52,2.53-.78s1.66-.48,2.46-.8a50.52,50.52,0,0,0,9.29-4.28,35.3,35.3,0,0,0,8-6.27,29.76,29.76,0,0,0,5.58-8.49A31.45,31.45,0,0,0,682.3,589,35.57,35.57,0,0,0,681.6,578.33Z"/><g class="cls-7"><path d="M1017.39,650.79s.09-95.21-195.38-81.06-198.44-45.48-198.44-45.48.29,67.88,96,73.69S978.93,579,1017.39,650.79Z"/></g><path class="cls-8" d="M1225.94,405.84s-34,48-77.23,102c-33.91,42.29-73.53,88.26-107,117.66h0a225,225,0,0,1-26.05,20.11c-33-67-83.21-60-133.33-62-44-1.81-141.14.22-195.54-4.74-7.51-.69-14.2-1.5-19.83-2.49-43.17-7.52-51.3-83-54.37-110.53-.24-2.1-.44-3.9-.63-5.39-2.65-21.13-9.17-44.82,35.38-58.6,6-1.87,17.31-3.77,32.48-5.67,97-12.16,352.45-24.27,397.72-26.28,52.36-2.32,80.74-20.43,80.74-20.43l5.15-3.5s13.14,16.81,16.85,18.64c.72.35,2.14,1,4.11,2.13C1192.58,371.28,1210.29,382.79,1225.94,405.84Z"/><g class="cls-11"><path d="M1225.94,405.84s-34,48-77.23,102c-33.91,42.29-73.53,88.26-107,117.66,203.93-228.38,148.81-227,134.62-237.15s-93.83,15.21-158.88,16.24S727,429,679.72,431.36s-35.42,37.85-29.39,79.3c4.37,30.08,25.3,56.16,36.44,68.19-7.51-.69-14.2-1.5-19.83-2.49-46.43-8.08-52.33-94.78-55-115.92s-9.17-44.82,35.38-58.6,377.85-29.63,430.2-31.95,80.74-20.43,80.74-20.43l5.15-3.5s13.14,16.81,16.85,18.64S1206.54,377.27,1225.94,405.84Z"/></g><g class="cls-9"><path class="cls-6" d="M696.75,423.17c4.83-2.11,9.69-3.84,14.56-5.44s9.75-3.06,14.64-4.4q14.65-4,29.41-6.72a517.32,517.32,0,0,1,118.89-8q15,.78,30,2.75,7.53,1,15.09,2.42c5,1,10.09,2,15.16,3.48-4.83,2.12-9.69,3.86-14.56,5.47s-9.75,3.07-14.64,4.41q-14.65,4-29.4,6.73a499.12,499.12,0,0,1-59.23,7.39,503.27,503.27,0,0,1-59.68.52q-15-.78-30-2.74-7.53-1-15.09-2.41C706.87,425.68,701.82,424.62,696.75,423.17Z"/></g><path d="M547.88,922.6a3.75,3.75,0,0,1-4.37-6.05c4-3.59,7.87-7.26,11.44-10.91a3.75,3.75,0,0,1,5.36,5.25c-3.69,3.76-7.66,7.55-11.8,11.26A4.53,4.53,0,0,1,547.88,922.6Zm22.44-23a3.76,3.76,0,0,1-4.75-5.67c3.43-4.07,6.67-8.26,9.62-12.46a3.75,3.75,0,0,1,6.13,4.32c-3.07,4.37-6.44,8.74-10,13A3.75,3.75,0,0,1,570.32,899.64Zm18.44-26.27a3.75,3.75,0,0,1-5.13-5.11c2.58-4.51,5-9.22,7.13-14a3.75,3.75,0,0,1,6.84,3.08c-2.25,5-4.76,9.91-7.46,14.63A3.66,3.66,0,0,1,588.76,873.37ZM602,844.13a3.75,3.75,0,0,1-5.42-4.47c1.65-4.75,3.15-9.69,4.6-15.11a3.75,3.75,0,1,1,7.24,1.93c-1.49,5.6-3,10.71-4.75,15.63A3.7,3.7,0,0,1,602,844.13Zm8.45-31a3.75,3.75,0,0,1-5.54-4.06c.6-2.7,1.18-5.36,1.75-8s1.12-5.18,1.69-7.71a3.75,3.75,0,0,1,7.32,1.63c-.56,2.51-1.11,5.07-1.68,7.67s-1.15,5.33-1.75,8A3.74,3.74,0,0,1,610.42,813.14Zm6.88-31.4a3.75,3.75,0,0,1-5.54-4.06c1-4.33,2.27-10,3.93-15.82a3.75,3.75,0,1,1,7.21,2.07c-1.6,5.58-2.88,11.15-3.82,15.37A3.72,3.72,0,0,1,617.3,781.74ZM626.41,751a3.75,3.75,0,0,1-5.35-4.68,118.57,118.57,0,0,1,7.36-14.85,3.75,3.75,0,1,1,6.47,3.8A111.08,111.08,0,0,0,628,749.14,3.74,3.74,0,0,1,626.41,751Zm16.19-27.62a3.75,3.75,0,0,1-4.82-5.58,133.74,133.74,0,0,1,11.06-12.27,3.75,3.75,0,0,1,5.26,5.35,124.18,124.18,0,0,0-10.43,11.58A3.88,3.88,0,0,1,642.6,723.34Zm22.77-22.56a3.75,3.75,0,0,1-4.21-6.18c4.09-3.26,8.54-6.51,13.22-9.65a3.75,3.75,0,0,1,4.18,6.23c-4.51,3-8.79,6.15-12.72,9.29A4.76,4.76,0,0,1,665.37,700.78Zm63.87-37c-2.8,1.61-5.79,3.17-8.87,4.63a3.75,3.75,0,1,1-3.21-6.78,108,108,0,0,0,13.54-7.58,3.75,3.75,0,0,1,4.15,6.25C733.05,661.5,731.17,662.67,729.24,663.79Zm-23.1,11.41-.19.1c-4.86,2.46-9.56,5-14,7.54a3.75,3.75,0,0,1-3.75-6.5h0c4.52-2.61,9.34-5.21,14.32-7.73a3.75,3.75,0,0,1,3.58,6.59Zm41-24.83a3.75,3.75,0,0,1-4.51-5.91,61.78,61.78,0,0,0,9.4-11.82,3.75,3.75,0,1,1,6.42,3.88,69.12,69.12,0,0,1-10.55,13.27A3.48,3.48,0,0,1,747.15,650.37Zm16.33-27.25a3.75,3.75,0,0,1-5.49-4.25,58.76,58.76,0,0,0,1.55-7.51,66.65,66.65,0,0,0,.61-7.44,3.75,3.75,0,1,1,7.5.18,72.39,72.39,0,0,1-.68,8.3,65.34,65.34,0,0,1-1.75,8.48A3.76,3.76,0,0,1,763.48,623.12Zm1-31.86a3.76,3.76,0,0,1-5.57-2.57c-.35-1.93-.77-3.84-1.26-5.68a3.75,3.75,0,0,1,7.26-1.91c.53,2,1,4.12,1.38,6.24A3.74,3.74,0,0,1,764.48,591.26Z"/><path d="M529.3,844.46a3.75,3.75,0,0,1-4.45-6,118.48,118.48,0,0,0,10.58-11.41,3.75,3.75,0,0,1,5.82,4.73A127.49,127.49,0,0,1,530,843.94,4.23,4.23,0,0,1,529.3,844.46Zm20.26-24.83a3.76,3.76,0,0,1-5.06-5.25,147.9,147.9,0,0,0,7.62-13.68,3.75,3.75,0,1,1,6.73,3.3,154.68,154.68,0,0,1-8,14.38A3.75,3.75,0,0,1,549.56,819.63Zm14.2-28.78a3.75,3.75,0,0,1-5.38-4.58c1.81-4.75,3.52-9.78,5.06-15a3.75,3.75,0,0,1,7.19,2.14c-1.6,5.36-3.36,10.57-5.24,15.5A3.73,3.73,0,0,1,563.76,790.85ZM573,760.09a3.75,3.75,0,0,1-5.53-4.09c1.14-4.94,2.21-10.18,3.17-15.56a3.75,3.75,0,1,1,7.39,1.32c-1,5.51-2.08,10.86-3.25,15.93A3.73,3.73,0,0,1,573,760.09Zm5.71-31.63a3.66,3.66,0,0,1-2.38.47,3.74,3.74,0,0,1-3.2-4.23q.57-4.17,1.07-8.24a65.85,65.85,0,0,1,1.51-8,3.75,3.75,0,0,1,7.27,1.85,56.57,56.57,0,0,0-1.33,7.1q-.51,4.14-1.09,8.36A3.74,3.74,0,0,1,578.71,728.46Zm8.48-30.74a3.75,3.75,0,0,1-5.15-5.07A76.52,76.52,0,0,1,591.89,679a3.75,3.75,0,1,1,5.59,5,69.08,69.08,0,0,0-8.89,12.35A3.72,3.72,0,0,1,587.19,697.72Zm90.6-58.29a83.58,83.58,0,0,1-12.87,6,3.75,3.75,0,0,1-2.59-7,73.92,73.92,0,0,0,13.74-6.65,3.75,3.75,0,0,1,4,6.36C679.32,638.52,678.57,639,677.79,639.43ZM692.33,628a3.75,3.75,0,0,1-4.63-5.8,48.79,48.79,0,0,0,8.14-11.8l.24-.48a3.75,3.75,0,0,1,6.78,3.2l-.27.56a56,56,0,0,1-9.39,13.62A3.62,3.62,0,0,1,692.33,628Zm-42,22.57a3,3,0,0,1-.51.25c-5.06,2-9.93,4.09-14.48,6.28a3.75,3.75,0,0,1-3.26-6.76c4.72-2.28,9.77-4.47,15-6.51a3.75,3.75,0,0,1,3.24,6.74Zm-42.1,23.19a3.75,3.75,0,0,1-4.2-6.18,130.82,130.82,0,0,1,13.59-9.43,3.75,3.75,0,0,1,3.9,6.41,123.75,123.75,0,0,0-12.82,8.88A3.55,3.55,0,0,1,608.27,673.73Zm97.61-74.35a3.66,3.66,0,0,1-2.38.47,3.75,3.75,0,0,1-3.21-4.22,53.36,53.36,0,0,0-.11-15,3.75,3.75,0,1,1,7.42-1.08,61,61,0,0,1,.12,17.07A3.72,3.72,0,0,1,705.88,599.38Z"/><path d="M1034.75,635.45l-.15.08a3.75,3.75,0,0,1-5.06-1.59c-1.13-2.17-2.31-4.32-3.5-6.38-1.42-2.47-2.91-4.89-4.41-7.19a3.75,3.75,0,1,1,6.28-4.09c1.58,2.41,3.13,4.94,4.63,7.53,1.24,2.15,2.47,4.39,3.65,6.66A3.74,3.74,0,0,1,1034.75,635.45Zm-17.62-26.81a3.76,3.76,0,0,1-4.76-.86,114.92,114.92,0,0,0-10.71-11.27,3.75,3.75,0,1,1,5.07-5.53,123,123,0,0,1,11.41,12,3.74,3.74,0,0,1-.48,5.28A4.6,4.6,0,0,1,1017.13,608.64Zm-23.66-21.59a3.77,3.77,0,0,1-4-.14A101.82,101.82,0,0,0,976,579.25a3.75,3.75,0,1,1,3.21-6.78,109.88,109.88,0,0,1,14.45,8.22,3.76,3.76,0,0,1,1,5.21A4,4,0,0,1,993.47,587.05ZM964.53,573.3a3.73,3.73,0,0,1-3,.34,130.26,130.26,0,0,0-15.16-3.7,3.75,3.75,0,0,1,1.36-7.38,140.72,140.72,0,0,1,16,3.91,3.76,3.76,0,0,1,2.47,4.7A3.7,3.7,0,0,1,964.53,573.3Zm-31.52-6a3.73,3.73,0,0,1-2.22.48c-4.75-.44-9.93-.77-15.84-1a3.75,3.75,0,1,1,.3-7.49c6,.24,11.36.58,16.24,1a3.76,3.76,0,0,1,1.52,7Zm-32.1-1.46a3.84,3.84,0,0,1-2,.5c-5.22-.11-10.61-.23-15.91-.45h-.22a3.75,3.75,0,1,1,.29-7.49h.24c5.22.21,10.58.33,15.76.44a3.75,3.75,0,0,1,1.8,7ZM868.77,565a3.78,3.78,0,0,1-1.95.5c-5-.1-10.38-.18-16-.25a3.75,3.75,0,1,1,.09-7.5c5.68.07,11.07.15,16.1.25a3.75,3.75,0,0,1,1.8,7Zm-32.15-.4a3.72,3.72,0,0,1-1.9.5l-16.07-.11a3.75,3.75,0,1,1,.05-7.5l16.08.11a3.75,3.75,0,0,1,1.84,7Zm333.45-192.81c-1.36.78-2.88,1.6-4.53,2.44a3.75,3.75,0,1,1-3.41-6.68c1.92-1,3.33-1.77,4.19-2.26s1.31-.78,1.44-.87l7.57-5.16a3.75,3.75,0,1,1,4.23,6.19l-7.66,5.23C1171.65,370.79,1171.06,371.16,1170.07,371.74ZM1151,380.56a3.36,3.36,0,0,1-.54.26c-5,1.9-10.19,3.65-15.54,5.2a3.75,3.75,0,1,1-2.09-7.2c5.15-1.5,10.18-3.18,15-5a3.75,3.75,0,0,1,3.22,6.75Zm-30.84,9a4,4,0,0,1-1.1.42c-5.25,1.11-10.66,2.06-16.08,2.82a3.75,3.75,0,1,1-1-7.43c5.26-.74,10.5-1.66,15.57-2.73a3.75,3.75,0,0,1,2.66,6.92ZM804.46,564.33a3.57,3.57,0,0,1-1.9.5q-7.95,0-16.09-.13a3.75,3.75,0,0,1,.08-7.5l16.07.13a3.75,3.75,0,0,1,1.84,7Zm283.9-170.26a3.75,3.75,0,0,1-1.59.49c-2.69.2-5.42.37-8.13.49l-8,.36a3.75,3.75,0,0,1-.34-7.5l8-.36c2.64-.12,5.3-.27,7.9-.47a3.75,3.75,0,0,1,2.16,7ZM772.29,564a3.73,3.73,0,0,1-1.93.5c-5.39-.07-10.77-.16-16.1-.27a3.75,3.75,0,0,1,.15-7.5q8,.16,16.06.27a3.75,3.75,0,0,1,1.82,7Zm283.93-168.36a3.75,3.75,0,0,1-1.7.5l-16.07.76a3.75,3.75,0,1,1-.36-7.5l16.08-.76a3.75,3.75,0,0,1,2,7ZM740.13,563.36a3.79,3.79,0,0,1-2,.5c-5.63-.16-11-.35-16.12-.55a3.75,3.75,0,0,1,.31-7.5c5,.21,10.42.39,16,.55a3.75,3.75,0,0,1,1.77,7Zm283.94-166.17a3.74,3.74,0,0,1-1.69.5l-16.07.8a3.75,3.75,0,1,1-.38-7.49l16.08-.8a3.75,3.75,0,0,1,2.06,7Zm-32.15,1.63a3.69,3.69,0,0,1-1.68.49l-16.07.85a3.75,3.75,0,1,1-.39-7.49l16.07-.85a3.75,3.75,0,0,1,2.07,7ZM708,562a3.7,3.7,0,0,1-2.09.49c-5.88-.34-11.32-.73-16.15-1.16a3.75,3.75,0,0,1,.65-7.47c4.77.42,10.13.8,15.94,1.14a3.76,3.76,0,0,1,1.65,7ZM959.78,400.52a3.63,3.63,0,0,1-1.67.5l-16,.88a3.75,3.75,0,1,1-.42-7.49l16-.88a3.75,3.75,0,0,1,2.08,7ZM676,559.05a3.74,3.74,0,0,1-2.43.46q-1.86-.27-3.57-.57a24.14,24.14,0,0,1-12.78-7.05,3.75,3.75,0,1,1,5.28-5.33,16.84,16.84,0,0,0,8.79,5q1.62.29,3.39.54a3.75,3.75,0,0,1,1.32,7ZM927.69,402.31a3.7,3.7,0,0,1-1.66.49c-5.36.31-10.72.61-16.07.93a3.75,3.75,0,1,1-.44-7.49l16.09-.93a3.75,3.75,0,0,1,2.08,7Zm-32.14,1.87a3.69,3.69,0,0,1-1.65.49l-16.06,1a3.75,3.75,0,0,1-.46-7.48l16.07-1a3.75,3.75,0,0,1,2.1,7ZM652.69,539.25l-.22.12a3.74,3.74,0,0,1-5-1.7,115,115,0,0,1-6.12-15.44,3.75,3.75,0,0,1,7.14-2.3,107,107,0,0,0,5.7,14.42A3.73,3.73,0,0,1,652.69,539.25Zm210.73-133.1a3.74,3.74,0,0,1-1.63.49l-16.06,1a3.75,3.75,0,0,1-.48-7.48l16.07-1a3.75,3.75,0,0,1,2.1,7Zm-32.12,2.08a3.84,3.84,0,0,1-1.62.49q-8.11.54-16,1.09a3.75,3.75,0,1,1-.51-7.49l16.06-1.09a3.76,3.76,0,0,1,2.12,7ZM642.56,508.82a3.7,3.7,0,0,1-1,.41,3.74,3.74,0,0,1-4.5-2.81c-1.15-4.95-2.22-10.33-3.19-16a3.75,3.75,0,1,1,7.39-1.28c.95,5.5,2,10.74,3.11,15.55A3.75,3.75,0,0,1,642.56,508.82Zm156.63-98.38a3.61,3.61,0,0,1-1.6.49l-16.05,1.17a3.75,3.75,0,1,1-.55-7.48l16.06-1.17a3.75,3.75,0,0,1,2.14,7Zm-32.1,2.39a3.71,3.71,0,0,1-1.58.49l-16,1.28a3.75,3.75,0,1,1-.61-7.47q7.83-.64,16.06-1.29a3.75,3.75,0,0,1,2.17,7ZM637,477.18a3.81,3.81,0,0,1-1.39.47,3.75,3.75,0,0,1-4.2-3.23c-.43-3.24-.84-6.62-1.22-10.06-.26-2.3-.48-4.29-.69-5.93a3.75,3.75,0,0,1,7.45-.93c.21,1.67.43,3.7.69,6,.38,3.39.78,6.72,1.2,9.91A3.75,3.75,0,0,1,637,477.18Zm98-61.71a3.67,3.67,0,0,1-1.55.49q-8.33.72-16,1.45a3.75,3.75,0,0,1-.7-7.47q7.69-.72,16.06-1.46a3.75,3.75,0,0,1,2.2,7Zm-32.06,3a3.63,3.63,0,0,1-1.49.48c-5.8.61-11.16,1.21-16,1.79a3.75,3.75,0,0,1-.9-7.45c4.83-.58,10.24-1.19,16.07-1.8a3.75,3.75,0,0,1,2.27,7Zm-69.63,26.74a3.75,3.75,0,0,1-5.62-3.15,20.25,20.25,0,0,1,1.25-8.69c1.21-2.78,3.78-5.42,7.65-7.84a3.75,3.75,0,1,1,4,6.36c-3.36,2.1-4.42,3.7-4.75,4.46a14,14,0,0,0-.63,5.5A3.75,3.75,0,0,1,633.31,445.25ZM671,422.45a3.8,3.8,0,0,1-1.3.46,116.14,116.14,0,0,0-14.9,3l-.34.11a3.75,3.75,0,0,1-2.22-7.17l.34-.1a120.85,120.85,0,0,1,16-3.24,3.75,3.75,0,0,1,2.44,7Z"/><path d="M557.6,937.7c13.16-13.11,25.46-27,35.42-42.41a197,197,0,0,0,23.49-49.17c2.75-8.67,5-17.5,7-26.47l5.66-27.17c1.87-9,3.67-18.26,6.42-27.49a107.63,107.63,0,0,1,11.87-26.63,105.32,105.32,0,0,1,8.77-11.76,119,119,0,0,1,10.17-10.41,167.06,167.06,0,0,1,23-17.1,251.23,251.23,0,0,1,24.93-13.48c2.13-1,4.29-2,6.43-3l3.16-1.43,3.11-1.38c2.08-.9,4-2,6.08-2.93s3.95-2.13,5.91-3.22a104.78,104.78,0,0,0,21.24-16.23,77.3,77.3,0,0,0,8.69-10.16,75.38,75.38,0,0,0,6.88-11.5,82.48,82.48,0,0,0,7.72-25.9,94.93,94.93,0,0,0,.81-13.72,109,109,0,0,0-1-13.83,93.5,93.5,0,0,1,3.14,27.81,83.84,83.84,0,0,1-5.87,27.78,77.81,77.81,0,0,1-6.59,12.8,84.55,84.55,0,0,1-8.67,11.53l-1.19,1.37-1.25,1.29c-.84.86-1.67,1.74-2.55,2.57-1.78,1.61-3.51,3.3-5.39,4.79a120.51,120.51,0,0,1-11.61,8.52c-2,1.26-4.07,2.53-6.14,3.72s-4.17,2.36-6.3,3.4l-6.32,3.1c-2,1-4.09,2-6.12,3.06a267.5,267.5,0,0,0-23.66,13.58c-15.11,9.85-29,21.6-38.37,36.42a98.1,98.1,0,0,0-10.82,24c-2.69,8.51-4.51,17.48-6.61,26.58l-3.15,13.54c-1,4.52-2.12,9.07-3.25,13.61a248.63,248.63,0,0,1-8.24,27,184.84,184.84,0,0,1-11.67,25.82l-3.51,6.16c-1.2,2-2.54,4-3.8,6-2.47,4-5.34,7.76-8.13,11.55A214.34,214.34,0,0,1,557.6,937.7Z"/><g class="cls-12"><path d="M1142.77,419.91S1074.71,612,912.21,535.18c-96.13-46.63-51.39-99.73,82.82-75.62C1073.38,467.13,1160.38,383,1142.77,419.91Z"/></g><g class="cls-14"><path class="cls-6" d="M459.83,817.93s34.11-1.53,51,4.24C510.8,822.17,480.22,824.65,459.83,817.93Z"/></g><g class="cls-7"><path d="M581.73,867.77s-19.15,16.52-44.77-9.26-51-54.61-55.18-69.17c0,0,8.22-17.24,16.76-8.87S538.42,846,581.73,867.77Z"/></g><path d="M1015.16,645.85a161.9,161.9,0,0,0-9.07-14.56l-1.21-1.76-1.29-1.7c-.87-1.13-1.71-2.27-2.59-3.38l-2.75-3.24c-.89-1.1-1.91-2.09-2.86-3.14a90.63,90.63,0,0,0-12.56-11.2,87,87,0,0,0-14.39-8.45c-10.11-4.67-21.08-7.21-32.22-8.55s-22.55-1.44-34-1.59c-5.73-.06-11.5-.1-17.3-.23s-11.43-.28-17.19-.33c-11.45-.2-23-.21-34.43-.25s-23-.09-34.51-.21c-5.75-.06-11.5-.11-17.26-.27l-17.27-.43c-23-.77-46.07-1.83-69.09-4.1-2.88-.3-5.75-.56-8.63-.89l-8.62-1.1c-1.44-.16-2.88-.4-4.32-.65l-4.3-.71a40,40,0,0,1-4.36-.87,30.4,30.4,0,0,1-4.37-1.29,44,44,0,0,1-15.27-9.45,66.86,66.86,0,0,1-11-13.85A105,105,0,0,1,626.43,538c-2.16-5.41-4-10.93-5.61-16.49a282.34,282.34,0,0,1-7.34-33.92c-.92-5.7-1.7-11.43-2.41-17.15l-1.1-8.54c-.38-2.81-.85-5.64-1.26-8.51a75.78,75.78,0,0,1-1-17.78,35,35,0,0,1,2-9.06,29.66,29.66,0,0,1,4.48-8.28,39.53,39.53,0,0,1,6.41-6.76,59.28,59.28,0,0,1,7.51-5.21,89.22,89.22,0,0,1,16.32-7.36c1.38-.51,2.84-.92,4.31-1.32s2.94-.85,4.37-1.13l4.32-1c1.44-.32,2.87-.55,4.3-.82l4.31-.77,4.29-.68c2.87-.44,5.73-.91,8.6-1.29,22.91-3.22,45.84-5.44,68.78-7.55,45.88-4.2,91.8-7.48,137.75-10.16,46-2.49,91.93-4.59,137.93-6,11.5-.4,23-.7,34.5-1l17.26-.42c5.74-.1,11.37-.32,17-.79a214.68,214.68,0,0,0,33.67-5.41c5.54-1.35,11-3,16.4-4.86A111.94,111.94,0,0,0,1158,349l0,0a.53.53,0,0,1,.54.92c-9.83,6.24-20.67,10.58-31.72,14.12a204.62,204.62,0,0,1-34,7.45c-5.76.77-11.6,1.3-17.36,1.69l-17.2,1.16-34.42,2.34c-45.89,3.14-91.79,6-137.67,9l-68.82,4.27q-34.41,2.11-68.77,4.57c-22.9,1.71-45.8,3.54-68.54,6-2.85.28-5.68.64-8.51,1l-4.24.52-4.21.62c-1.4.21-2.83.37-4.2.62l-4.14.73c-1.41.21-2.71.54-4,.85s-2.64.61-4,1A83.77,83.77,0,0,0,631.34,412a53.36,53.36,0,0,0-6.84,4.32,33.85,33.85,0,0,0-5.66,5.49,24.24,24.24,0,0,0-4,6.68,29.81,29.81,0,0,0-2,7.66,50.51,50.51,0,0,0-.33,8.19c.12,2.78.36,5.59.69,8.42s.7,5.7,1,8.59L615,470c.59,5.71,1.25,11.39,2,17.06A244.7,244.7,0,0,0,624,520.59c3.1,10.95,7.27,21.67,13.25,31.23a59.2,59.2,0,0,0,10.69,12.8A38.77,38.77,0,0,0,662,572.78a25.12,25.12,0,0,0,3.93,1,37.35,37.35,0,0,0,4.14.64l4.22.53c1.41.18,2.82.36,4.24.46l8.53.7c2.85.19,5.72.31,8.57.47l4.28.22,4.3.14,8.58.28c5.74.1,11.47.23,17.2.28,11.47.12,22.95.15,34.44.15s23,0,34.46.08,23,.08,34.5.26,23,.31,34.56.64c2.88.06,5.77.18,8.66.32l8.64.39c5.69.27,11.42.44,17.18.64a283.34,283.34,0,0,1,34.81,2.77,125.94,125.94,0,0,1,17.28,3.86A96.5,96.5,0,0,1,971,593.3a85.2,85.2,0,0,1,14.82,9.78,95.39,95.39,0,0,1,12.43,12.51c7.52,9,13.2,19.26,17.91,29.78a.54.54,0,0,1-.27.71.52.52,0,0,1-.68-.22Z"/><path class="cls-13" d="M579.6,869a12.68,12.68,0,0,1-14.78-1.52c-1.92-1.71-47.27-42.24-66.46-68.13a564.52,564.52,0,0,1-32.42-48.86,12.66,12.66,0,0,1,4.64-17.32h0a12.7,12.7,0,0,1,17.33,4.64,549.15,549.15,0,0,0,30.83,46.44c17.65,23.82,62.51,63.9,63,64.3A12.69,12.69,0,0,1,579.6,869Z"/><path d="M582.28,873.64a18,18,0,0,1-21-2.16c-1.93-1.73-47.65-42.57-67.19-68.94a573.79,573.79,0,0,1-32.76-49.37,18,18,0,0,1,31.24-18,548.43,548.43,0,0,0,30.51,45.93c17.21,23.23,61.77,63.1,62.22,63.5a18,18,0,0,1-3,29.09Zm-109-135.84a7.34,7.34,0,0,0-2.68,10,561.34,561.34,0,0,0,32.09,48.35c18.89,25.49,63.81,65.62,65.71,67.32a7.33,7.33,0,0,0,9.76-10.94c-1.87-1.66-45.84-41-63.7-65.11a557.59,557.59,0,0,1-31.18-46.95A7.34,7.34,0,0,0,473.26,737.8Z"/><g class="cls-14"><path class="cls-6" d="M546,743s-27.31-4.94-46.63,1C499.35,744,532.71,745.76,546,743Z"/></g><g class="cls-7"><path d="M607.88,776.06s-42,26-86.9-59.46l14.34-25.87S560.49,748.39,607.88,776.06Z"/></g><path class="cls-13" d="M604.84,778.51a12.68,12.68,0,0,1-14.87-1.6c-7.64-6.95-74.59-69.39-71.68-121a12.69,12.69,0,1,1,25.33,1.43c-1.89,33.56,45.14,84.12,63.42,100.77a12.69,12.69,0,0,1-2.2,20.37Z"/><path d="M607.52,783.15a18,18,0,0,1-21.16-2.28c-7.83-7.12-76.47-71.16-73.42-125.23a18,18,0,1,1,36,2c-1.58,28,37,74,61.68,96.51a18,18,0,0,1-3.13,29ZM527.31,650.3a7.13,7.13,0,0,0-1.23.89,7.28,7.28,0,0,0-2.44,5c-2.77,49.12,62.48,109.93,69.93,116.7a7.33,7.33,0,1,0,9.86-10.84c-.68-.61-67.58-62.07-65.16-105a7.33,7.33,0,0,0-11-6.76Z"/><path class="cls-13" d="M678.72,685.64a12.69,12.69,0,0,1-16.47-3.37c-.27-.35-26.35-34.92-47-50.56l-2.68-2c-49.6-37.58-64-50.51-66.93-60.13a12.68,12.68,0,0,1,23.92-8.39c5.43,8.21,43.79,37.28,58.33,48.29l2.69,2c23.47,17.79,50.79,54,51.94,55.54A12.68,12.68,0,0,1,680,684.79,13,13,0,0,1,678.72,685.64ZM569.91,562.12h0Z"/><path d="M681.39,690.28A18.06,18.06,0,0,1,658,685.49C657.71,685.15,632,651.15,612,636l-2.69-2c-51.89-39.32-65.4-51.65-68.82-62.83a18,18,0,0,1,33.77-12.55c3.92,5.32,23,21,56.85,46.61l2.69,2c24.08,18.26,51.81,55,53,56.59a18.07,18.07,0,0,1-3.58,25.26A18.77,18.77,0,0,1,681.39,690.28ZM554.12,559.5a7.33,7.33,0,0,0-3.35,8.48c2.49,8.13,17.68,21.54,65.05,57.43l2.68,2c21.25,16.11,47.76,51.26,48,51.61a7.32,7.32,0,0,0,9.51,2c.25-.15.51-.32.76-.5a7.34,7.34,0,0,0,1.44-10.25c-1.13-1.51-28-37.13-50.89-54.49l-2.69-2c-37.58-28.47-55.4-43.3-59.56-49.61l-.16-.24-.09,0-.1-.3h0l-.18-.46a7.35,7.35,0,0,0-9-4.29A6.66,6.66,0,0,0,554.12,559.5Zm15.73,2.64-5.29.31Zm0,0-5.29.31Z"/><path class="cls-13" d="M576.25,535.31A12.69,12.69,0,0,1,560,516.38c17.28-21.53,96.08-71,105-76.52l.37-.23a12.69,12.69,0,0,1,13.05,21.76c-32.32,20.14-87.67,57.19-98.65,70.87A12.79,12.79,0,0,1,576.25,535.31Z"/><path d="M578.92,540A18,18,0,0,1,555.83,513c17.49-21.8,91.66-68.56,106.35-77.72l.53-.32a18,18,0,0,1,18.56,30.94c-34.38,21.43-87.3,57.22-97.3,69.68A17.94,17.94,0,0,1,578.92,540Zm89.15-95.68-.18.11c-32.14,20-90.1,58.4-103.7,75.35a7.33,7.33,0,0,0,9.38,10.94,7.34,7.34,0,0,0,2-1.77c12.83-16,76.53-57.44,100-72.06a7.33,7.33,0,0,0-7.53-12.57Z"/><path class="cls-13" d="M694.35,540.09a12.76,12.76,0,0,1-3.65,1.41c-1.07.23-26.62,5.75-56.22,9-42.44,4.59-70.27,2.06-85.1-7.73a12.68,12.68,0,1,1,14-21.17c17,11.23,81.56,3.93,122-4.84a12.69,12.69,0,0,1,9,23.38Z"/><path d="M697,544.73a17.8,17.8,0,0,1-5.19,2c-1.09.24-27,5.83-56.78,9-43.73,4.73-72.72,1.92-88.64-8.59a18,18,0,0,1,19.89-30.11c13.62,9,71.94,4.36,117.86-5.61A18,18,0,0,1,697,544.73ZM552.7,525.79a7.33,7.33,0,0,0-.37,12.46c13.55,9,41,11.26,81.58,6.87,29.19-3.15,54.59-8.63,55.65-8.86a7.1,7.1,0,0,0,2.11-.81,7.33,7.33,0,0,0-5.22-13.51C658.77,528,582.18,540.4,560.4,526a7.36,7.36,0,0,0-7.7-.23Z"/><path class="cls-13" d="M442.53,978.14a12.63,12.63,0,0,1-9.28,1.36l-64.17-15.33A12.69,12.69,0,0,1,375,939.49l64.17,15.33a12.68,12.68,0,0,1,3.39,23.32Z"/><path d="M445.21,982.78A18,18,0,0,1,432,984.71l-64.16-15.33a18,18,0,1,1,8.38-35.1l64.16,15.33a18,18,0,0,1,4.83,33.17Zm-76.84-37.29A7.32,7.32,0,0,0,370.32,959l64.17,15.32a7.3,7.3,0,0,0,5.37-.78,7.22,7.22,0,0,0,3.46-4.64,7.34,7.34,0,0,0-5.43-8.83l-64.16-15.32A7.22,7.22,0,0,0,368.37,945.49Z"/><path class="cls-13" d="M406.43,1019.58a12.66,12.66,0,0,1-14-.85c-5.54-4.18-53.8-41.86-41.61-78.57a12.69,12.69,0,1,1,24.08,8c-5.11,15.38,19.9,40.54,32.81,50.32a12.68,12.68,0,0,1-1.31,21.1Z"/><path d="M409.11,1024.22a18,18,0,0,1-19.88-1.21c-5.85-4.42-56.83-44.29-43.47-84.54A18,18,0,1,1,380,949.84c-3.57,10.77,16,33.07,31,44.36a18.08,18.08,0,0,1,3.51,25.27A17.83,17.83,0,0,1,409.11,1024.22Zm-49.89-86.4a7.28,7.28,0,0,0-3.29,4c-11.19,33.72,37.67,71,39.75,72.6a7.33,7.33,0,0,0,8.82-11.7c-11.85-9-41.19-36.59-34.66-56.28a7.33,7.33,0,0,0-10.62-8.65Z"/><path class="cls-13" d="M465.61,906a12.64,12.64,0,0,1-11.74.5c-4.5-.88-20.8.45-35.55,2.93a12.69,12.69,0,0,1-4.2-25c40.47-6.8,48.8-1.94,51.53-.34a12.68,12.68,0,0,1,0,21.93Zm-11.42.58h0Zm-1.32-.6h0Z"/><path d="M468.29,910.61a18.05,18.05,0,0,1-15.94,1c-3.88-.44-17.88.46-33.14,3a18,18,0,0,1-6-35.58c37.57-6.31,49.19-3.15,55.12.31a18,18,0,0,1-.06,31.2Zm-12.85-9.29.11,0,.6.29a7.3,7.3,0,0,0,6.78-.3,7.19,7.19,0,0,0,2.66-2.65,7.34,7.34,0,0,0-2.64-10c-7.76-4.52-30.35-1.95-47.94,1a7.33,7.33,0,0,0,2.42,14.45c13.83-2.33,31.62-4,37.47-2.9l.28,0,.06-.12.23.12Z"/><g class="cls-7"><path d="M748.73,1096.22s-146.5-115.7-179.34-178.08c-11.4-28-50.67-108.61-89.84-66,0,0,30.22-1,40,33.6,15,53.18,26.67,96.65,217.57,217.26C741.47,1105.72,744.15,1093.35,748.73,1096.22Z"/></g><path class="cls-8" d="M742.42,1100.13S561.8,964.65,545.23,917.36s-24.69-84.32-57.3-76.52-24.23,42.54-40.62,75.7-50.68,72-96.9,117.82c-33.07,31.82,5.39,58.94,16.06,61.8,13.28,4.31,172.52,60.21,214.35,99.9,54-30.58,108.17-62.89,161.6-95.93Z"/><path d="M742,1100.49s-.18-.11-.3-.19l-.38-.26-.75-.52-1.51-1-3-2.09-6-4.2-11.89-8.53c-7.91-5.73-15.74-11.55-23.56-17.4s-15.53-11.84-23.24-17.84-15.31-12.13-22.9-18.28-15.1-12.42-22.55-18.76-14.82-12.77-22.1-19.32-14.41-13.29-21.43-20.17S568.48,958,562,950.48c-3.26-3.74-6.44-7.56-9.47-11.57a96.21,96.21,0,0,1-8.39-12.81,50.78,50.78,0,0,1-3.27-7.37l-2.32-7q-2.31-7-4.49-13.92c-3-9.26-5.95-18.47-9.53-27.31a100.49,100.49,0,0,0-6.15-12.69,50,50,0,0,0-3.89-5.65,30.33,30.33,0,0,0-4.64-4.76,21.51,21.51,0,0,0-5.53-3.35,20.4,20.4,0,0,0-6.29-1.57,30.14,30.14,0,0,0-6.7.17,41.78,41.78,0,0,0-6.7,1.57,30.78,30.78,0,0,0-6.24,2.74,27.46,27.46,0,0,0-5.33,4.15,31.79,31.79,0,0,0-4.21,5.4,45.05,45.05,0,0,0-3.16,6.24c-.9,2.18-1.68,4.44-2.4,6.73s-1.31,4.62-1.89,7L458,890.71c-2.39,9.49-5.29,19-9.84,27.87-2.21,4.4-4.63,8.69-7.15,12.9-1.29,2.09-2.53,4.22-3.87,6.27l-4.05,6.15-4.21,6-4.33,5.94c-1.42,2-2.95,3.91-4.42,5.87s-3,3.89-4.51,5.8c-12.15,15.38-25.1,30.08-38.34,44.47-6.66,7.17-13.34,14.29-20.16,21.34l-2.56,2.63-1.27,1.32-1.18,1.26a31.87,31.87,0,0,0-2.28,2.54c-.7.88-1.46,1.72-2.06,2.64a31.86,31.86,0,0,0-5.41,11.51,22.75,22.75,0,0,0,.71,12,27.63,27.63,0,0,0,2.64,5.69,36.13,36.13,0,0,0,3.81,5.25,51,51,0,0,0,9.95,8.8,42,42,0,0,0,5.64,3.25,19.08,19.08,0,0,0,2.71,1l3.65,1.19c18.6,6.25,36.95,12.91,55.24,19.85,9.14,3.49,18.27,7,27.34,10.67s18.11,7.45,27.1,11.34q27,11.57,53.21,25.21c8.7,4.62,17.34,9.4,25.72,14.74s16.62,11.06,24.16,18.19l-5.82-.71L619.45,1169l40.93-23,40.88-23.15,20.43-11.61,10.22-5.8,5.11-2.89,2.56-1.45,1.28-.72.64-.36.32-.18.16-.09.08,0,0,0C742.06,1100.05,742.24,1098.88,742,1100.49Zm.8-.71c-.25,1.63-.09.46-.16.83l0,0-.07,0-.15.1-.31.21-.61.41-1.22.82-2.44,1.63-4.88,3.28-9.8,6.49c-6.54,4.33-13.11,8.59-19.69,12.85q-19.73,12.8-39.68,25.23c-13.32,8.27-26.63,16.55-40.08,24.62s-26.87,16.15-40.44,24a4.88,4.88,0,0,1-5.69-.59l-.13-.13c-6.79-6.12-14.77-11.43-22.92-16.37s-16.65-9.55-25.25-13.94c-17.21-8.76-34.91-16.68-52.69-24.47-35.66-15.28-71.88-29.7-108.41-42.78l-3.29-1.14a28.83,28.83,0,0,1-4.09-1.64,51.25,51.25,0,0,1-6.95-4.15,60.14,60.14,0,0,1-11.7-10.74,46.08,46.08,0,0,1-4.62-6.68,36.64,36.64,0,0,1-3.32-7.63,32,32,0,0,1-.59-16.84,40.25,40.25,0,0,1,7.33-14.58c.78-1.09,1.68-2,2.54-3a37.86,37.86,0,0,1,2.69-2.82l1.37-1.36,1.31-1.26,2.62-2.53c7-6.69,14-13.52,20.88-20.36s13.69-13.8,20.31-20.91,13.2-14.26,19.42-21.71,12.32-15,17.91-22.92l4.11-6c1.37-2,2.62-4.07,3.94-6.1q3.81-6.16,7.12-12.61a97,97,0,0,0,5.64-13.23c1.6-4.54,2.81-9.22,4-13.93L458,875.67a116.39,116.39,0,0,1,4.18-14.27,49.55,49.55,0,0,1,3.25-6.88,35.23,35.23,0,0,1,4.6-6.24,34,34,0,0,1,6-5,36,36,0,0,1,7-3.43,47.36,47.36,0,0,1,7.44-2.06,35,35,0,0,1,7.88-.51,27.25,27.25,0,0,1,15,5.45,36.57,36.57,0,0,1,5.83,5.4,56.15,56.15,0,0,1,4.7,6.17,106.65,106.65,0,0,1,7.24,13.28c4.22,9,7.56,18.31,10.91,27.49,1.68,4.6,3.3,9.19,4.92,13.77l2.46,6.86a41.6,41.6,0,0,0,2.81,5.9,104.67,104.67,0,0,0,7.79,11.53c2.87,3.76,5.94,7.42,9.1,11,12.71,14.38,26.57,28,40.78,41.19q10.63,9.95,21.5,19.67c7.25,6.48,14.57,12.88,21.89,19.29s14.72,12.74,22.14,19,14.83,12.64,22.3,18.89,14.93,12.53,22.42,18.77Z"/><g class="cls-7"><path d="M497.73,923.92s-19.57,12.29-37.62-7.12-34.29-48.92-12.8-54.41C447.31,862.39,473.68,915.73,497.73,923.92Z"/></g><g class="cls-11"><path d="M474.28,1041.39s-10.66,21.67-33.73,42.53c-8,4.8-1.06,10.68,33.28,21.77s44.8,14.44,52.73,20.93-26.23-26.22-69.79-36.68C446.38,1087.37,477.92,1063.45,474.28,1041.39Z"/></g><g class="cls-9"><path class="cls-6" d="M554.36,989.54s24.54,6,51,26.37,83.34,72.54,83.34,72.54-44.52-23.25-83.82-53.77S554.36,989.54,554.36,989.54Z"/></g><path d="M601.94,1188.34a3.76,3.76,0,0,1-4.7-.78l-.82-.93a3.75,3.75,0,0,1,5.54-5.05c.34.37.64.71.93,1a3.75,3.75,0,0,1-.36,5.29A3.07,3.07,0,0,1,601.94,1188.34Zm122.78-72.91a3.75,3.75,0,0,1-4.15-.26c-3.26-2.49-7.6-5.81-12.78-9.83a3.75,3.75,0,1,1,4.6-5.92c5.16,4,9.48,7.31,12.73,9.78a3.76,3.76,0,0,1,.7,5.26A3.62,3.62,0,0,1,724.72,1115.43ZM589.2,1176.59a3.74,3.74,0,0,1-4.18-.29c-3.72-2.89-8-5.94-12.86-9.07a3.75,3.75,0,0,1,4.09-6.29c5,3.24,9.49,6.42,13.37,9.44a3.74,3.74,0,0,1,.66,5.26A3.87,3.87,0,0,1,589.2,1176.59Zm110.08-80.85a3.74,3.74,0,0,1-4.19-.3c-4-3.11-8.2-6.44-12.64-10a3.75,3.75,0,0,1,4.67-5.88c4.43,3.52,8.65,6.85,12.6,10a3.75,3.75,0,0,1,.64,5.27A3.66,3.66,0,0,1,699.28,1095.74ZM562.38,1159a3.74,3.74,0,0,1-3.76,0c-4.33-2.5-9-5.09-13.94-7.71a3.75,3.75,0,1,1,3.52-6.62c5,2.65,9.77,5.29,14.18,7.84a3.74,3.74,0,0,1,1.36,5.12A3.65,3.65,0,0,1,562.38,1159Zm111.72-83.23a3.78,3.78,0,0,1-4.23-.32c-4.06-3.28-8.25-6.67-12.51-10.15a3.75,3.75,0,0,1,4.75-5.81c4.24,3.47,8.41,6.85,12.47,10.11a3.76,3.76,0,0,1,.57,5.28A3.69,3.69,0,0,1,674.1,1075.73ZM534,1143.85a3.77,3.77,0,0,1-3.55.11c-4.56-2.27-9.4-4.62-14.39-7a3.75,3.75,0,0,1,3.2-6.78c5,2.37,9.93,4.74,14.53,7a3.75,3.75,0,0,1,1.69,5A3.71,3.71,0,0,1,534,1143.85Zm115.16-88.46a3.76,3.76,0,0,1-4.27-.36q-5.52-4.59-11.11-9.29l-1.24-1a3.75,3.75,0,0,1,4.83-5.73l1.25,1c3.7,3.13,7.4,6.21,11.06,9.25a3.76,3.76,0,0,1,.5,5.29A3.92,3.92,0,0,1,649.19,1055.39ZM505,1130.12a3.74,3.74,0,0,1-3.42.17c-4.73-2.13-9.66-4.31-14.65-6.47a3.75,3.75,0,1,1,3-6.88c5,2.17,10,4.37,14.74,6.51a3.76,3.76,0,0,1,.34,6.67Zm119.65-95.47a3.74,3.74,0,0,1-4.32-.4c-4.15-3.57-8.24-7.13-12.16-10.57a3.75,3.75,0,0,1,5-5.64c3.9,3.43,8,7,12.1,10.52a3.75,3.75,0,0,1,.4,5.29A3.66,3.66,0,0,1,624.63,1034.65ZM475.5,1117.32a3.74,3.74,0,0,1-3.33.22c-4.83-2-9.82-4.09-14.83-6.12a3.75,3.75,0,1,1,2.83-7c5,2,10,4.11,14.9,6.15a3.75,3.75,0,0,1,2,4.91A3.7,3.7,0,0,1,475.5,1117.32Zm-29.79-12.11a3.79,3.79,0,0,1-3.26.24c-4.93-2-10-3.91-14.95-5.84a3.75,3.75,0,0,1,2.69-7c5,1.93,10.07,3.9,15,5.86a3.75,3.75,0,0,1,.5,6.74Zm154.79-91.79a3.74,3.74,0,0,1-4.38-.47c-4.13-3.73-8.13-7.4-11.89-10.9a3.75,3.75,0,0,1,5.12-5.49c3.73,3.48,7.69,7.12,11.79,10.83a3.76,3.76,0,0,1-.64,6Zm-184.81,80.23a3.76,3.76,0,0,1-3.2.26c-5-1.87-10.07-3.75-15.05-5.57a3.75,3.75,0,1,1,2.57-7c5,1.82,10.09,3.7,15.12,5.59a3.76,3.76,0,0,1,.56,6.76ZM577,991.48a3.76,3.76,0,0,1-4.49-.57c-4.06-3.94-7.91-7.78-11.45-11.42a3.75,3.75,0,0,1,5.38-5.23c3.49,3.59,7.29,7.38,11.3,11.28a3.78,3.78,0,0,1-.74,5.94Zm-191.57,91.15a3.73,3.73,0,0,1-3.12.29c-5.45-1.92-9-3.13-10.41-3.58l-.65-.2c-.1,0-.21-.07-.31-.12a24.25,24.25,0,0,1-4.41-2.56,3.75,3.75,0,0,1,4.32-6.13,18.84,18.84,0,0,0,2.83,1.71l.49.15c1.48.48,5.12,1.72,10.63,3.66a3.75,3.75,0,0,1,.63,6.78ZM554.65,968.42a3.76,3.76,0,0,1-4.66-.74c-3.9-4.32-7.45-8.49-10.57-12.38a3.75,3.75,0,0,1,5.85-4.69c3,3.78,6.49,7.83,10.3,12a3.76,3.76,0,0,1-.28,5.3A3.63,3.63,0,0,1,554.65,968.42Zm-194,96a3.89,3.89,0,0,1-1.32.45,3.75,3.75,0,0,1-4.27-3.14c-.64-4.25,1.92-9.17,7.61-14.65l1.77-1.75a3.75,3.75,0,1,1,5.28,5.33l-1.83,1.81c-4.58,4.41-5.55,7.18-5.41,8.14A3.76,3.76,0,0,1,360.65,1064.44Zm19.65-24.56a3.75,3.75,0,0,1-4.54-5.88c3.84-3.89,7.61-7.75,11.19-11.47a3.75,3.75,0,0,1,5.4,5.2c-3.6,3.75-7.39,7.63-11.25,11.54A3.61,3.61,0,0,1,380.3,1039.88Zm154.46-96.65a3.75,3.75,0,0,1-5-1.22c-1-1.49-1.87-3-2.7-4.4A72.74,72.74,0,0,1,522,927.08a3.75,3.75,0,0,1,7-2.65,64.88,64.88,0,0,0,4.55,9.43c.76,1.32,1.61,2.7,2.5,4.09a3.73,3.73,0,0,1-1.12,5.18Zm-132.17,73.49a3.75,3.75,0,0,1-4.61-5.81c3.75-4,7.39-8,10.81-11.79a3.75,3.75,0,0,1,5.58,5c-3.46,3.84-7.13,7.84-10.91,11.89A3.78,3.78,0,0,1,402.59,1016.72Zm21.48-23.91a3.75,3.75,0,0,1-4.72-5.69c3.6-4.19,7-8.31,10.22-12.26a3.75,3.75,0,1,1,5.83,4.72c-3.22,4-6.71,8.18-10.36,12.43A3.51,3.51,0,0,1,424.07,992.81Zm20.16-25a3.75,3.75,0,0,1-4.89-5.49c3.29-4.41,6.38-8.76,9.19-12.95a3.75,3.75,0,1,1,6.23,4.18c-2.88,4.29-6,8.75-9.4,13.26A3.83,3.83,0,0,1,444.23,967.78Zm77.89-54a3.79,3.79,0,0,1-.68.3,3.74,3.74,0,0,1-4.75-2.35l-.57-1.69c-1.53-4.51-3.11-9.17-4.62-13.48a3.75,3.75,0,1,1,7.08-2.48c1.52,4.34,3.11,9,4.64,13.55l.57,1.7A3.74,3.74,0,0,1,522.12,913.81Zm-60.06,27.26a3.76,3.76,0,0,1-5.12-5.14c2.26-3.88,4.35-7.77,6.22-11.56.39-.78.77-1.56,1.13-2.34a3.75,3.75,0,0,1,6.8,3.17c-.39.83-.79,1.66-1.2,2.5-1.95,3.93-4.12,8-6.47,12A3.72,3.72,0,0,1,462.06,941.07Zm13.31-29.18a3.75,3.75,0,0,1-5.44-4.39c1.81-5.66,3.17-11.11,4.15-15.23a3.75,3.75,0,1,1,7.3,1.74c-1,4.25-2.42,9.88-4.31,15.78A3.76,3.76,0,0,1,475.37,911.89Zm35.89-28.34-.44.22a3.75,3.75,0,0,1-4.9-2A92.7,92.7,0,0,0,500.8,871c-.59-1-1.18-2-1.76-2.8l-.11-.16a3.76,3.76,0,0,1,6.28-4.12c.7,1,1.4,2.13,2.09,3.33a99.72,99.72,0,0,1,5.55,11.58A3.75,3.75,0,0,1,511.26,883.55Zm-27.89-2.79a3.74,3.74,0,0,1-5.49-4.22c2.27-8.45,4.3-13.55,8.51-16.3a3.8,3.8,0,0,1,5.19,1.1,3.75,3.75,0,0,1-1.1,5.19c-1.56,1-3.07,3.44-5.36,12A3.74,3.74,0,0,1,483.37,880.76Z"/><path d="M430.67,1099.34a3.75,3.75,0,0,1-4.82-5.57l10-12.62a3.75,3.75,0,0,1,5.89,4.65l-10,12.62A3.74,3.74,0,0,1,430.67,1099.34Zm19.91-25.24a3.75,3.75,0,0,1-4.82-5.57l9.95-12.62a3.75,3.75,0,0,1,5.89,4.64l-10,12.62A3.76,3.76,0,0,1,450.58,1074.1Zm19.91-25.24a3.75,3.75,0,0,1-4.82-5.57l9.95-12.63a3.75,3.75,0,0,1,5.89,4.65l-9.95,12.62A3.76,3.76,0,0,1,470.49,1048.86Zm19.91-25.25a3.75,3.75,0,0,1-4.83-5.57l10-12.62a3.75,3.75,0,0,1,5.89,4.65l-10,12.62A3.71,3.71,0,0,1,490.4,1023.61Zm19.9-25.24a3.75,3.75,0,0,1-4.82-5.57l9.95-12.62a3.75,3.75,0,0,1,5.9,4.64l-10,12.62A3.63,3.63,0,0,1,510.3,998.37Zm19.91-25.24a3.75,3.75,0,0,1-4.82-5.57l10-12.63a3.75,3.75,0,0,1,5.89,4.65l-10,12.62A3.76,3.76,0,0,1,530.21,973.13Z"/><g class="cls-14"><path class="cls-6" d="M388.86,989.16s-23.12-19.6-21.26-43.47C367.6,945.69,357.1,975.48,388.86,989.16Z"/></g><g class="cls-14"><path class="cls-6" d="M381.46,947.19a46.68,46.68,0,0,0,30.67,7.65Z"/></g><g class="cls-7"><path d="M467.53,999s-20.4,18.73-48.31-22-24.15-54.8-9-65.16C410.2,911.84,415.7,954.38,467.53,999Z"/></g><g class="cls-14"><path class="cls-6" d="M422.84,890.72s14.18-7.59,25.27-.77C448.11,890,431.41,893.58,422.84,890.72Z"/></g><g class="cls-7"><path d="M417.47,1055s-29.9,25.81-84.41-37.23C328.17,1009.29,384.17,1014,417.47,1055Z"/></g><path class="cls-13" d="M467.53,999a12.69,12.69,0,0,1-15.11-1.84c-.93-.88-22.73-21.9-33.65-43-1-1.94-2.08-4-3.2-6.16-19.33-37.15-25.42-51.12-23.34-60.66a12.68,12.68,0,0,1,25,4c1.17,7.2,14.41,32.64,20.84,45l3.23,6.22c9,17.42,28.46,36.17,28.66,36.36A12.71,12.71,0,0,1,467.53,999ZM417,892.74h0Z"/><path d="M470.21,1003.67a18.14,18.14,0,0,1-21.5-2.61c-2.39-2.29-23.62-23-34.7-44.43l-2.48-4.78-.71-1.37c-20.33-39.06-26.27-53-23.83-64.26A18,18,0,0,1,422.64,891c1.65,7.21,15.05,33,20.18,42.8,1.16,2.24,2.24,4.31,3.25,6.27,8.55,16.54,27.42,34.76,27.61,34.94a18.06,18.06,0,0,1-3.47,28.66ZM412.5,930.32c2.33,4.6,4.94,9.66,7.83,15.22l.71,1.37c.87,1.66,1.7,3.27,2.49,4.81,10.47,20.23,31.7,40.75,32.6,41.61a7.36,7.36,0,0,0,8.72,1.06,7.24,7.24,0,0,0,1.63-1.29,7.33,7.33,0,0,0-.22-10.36c-.2-.19-20.29-19.52-29.71-37.76l-3.19-6.14C427.18,927,422,916.77,418.28,908.75ZM401,883.7l-.3.19a7.28,7.28,0,0,0-3.2,4.6c-1.38,6.38,2.86,17.51,13.61,39l.61-35.54.16-.59h0l.05-.57a7.33,7.33,0,0,0-11-7.08Z"/><path class="cls-13" d="M417.47,1055a12.63,12.63,0,0,1-11,.81c-2.26-.9-55.78-22.5-84.35-63.26A12.68,12.68,0,1,1,342.86,978c24.15,34.46,72.47,54,73,54.25a12.69,12.69,0,0,1,1.65,22.76Z"/><path d="M420.14,1059.63a17.92,17.92,0,0,1-15.68,1.15c-2.32-.92-57.28-23.1-86.76-65.17a18,18,0,0,1,29.55-20.71c23.15,33,70.08,52.16,70.56,52.35a18,18,0,0,1,2.33,32.38ZM328.83,978.9c-.19.11-.37.23-.55.35a7.33,7.33,0,0,0-1.8,10.21c27.66,39.47,79.74,60.49,81.94,61.36a7.33,7.33,0,0,0,5.41-13.62c-.49-.19-50.18-20.23-75.35-56.15a7.37,7.37,0,0,0-9.65-2.15Z"/><g class="cls-14"><path class="cls-6" d="M397.11,1028.94s-24.08-5.72-60.53-46.52C336.58,982.42,363.73,1026.94,397.11,1028.94Z"/></g><g class="cls-14"><path class="cls-6" d="M465.63,983.22s-33.69-29-54.5-87.56C411.13,895.66,423.34,954.09,465.63,983.22Z"/></g><path class="cls-13" d="M497.73,923.92a12.68,12.68,0,0,1-15.43-2.15c-1.18-1.21-29.1-30-40.59-54.32-11.39-24.06-14-40.66-14.08-41.35a12.69,12.69,0,0,1,25.09-3.77c0,.09,2.27,13.89,11.92,34.27,8.05,17,28.6,40,35.84,47.48a12.68,12.68,0,0,1-.24,17.94A12.86,12.86,0,0,1,497.73,923.92Z"/><path d="M500.41,928.56a18,18,0,0,1-22-3c-1.21-1.24-29.73-30.7-41.6-55.77-11.49-24.27-14.25-41-14.53-42.84A18,18,0,1,1,458,821.53c0,.07,2.29,13.37,11.47,32.77,7.74,16.35,27.78,38.78,34.84,46.05a18.06,18.06,0,0,1-3.91,28.21Zm-63.89-110.7a7.34,7.34,0,0,0-3.59,7.44c.1.66,2.6,16.57,13.62,39.86C457.67,888.63,485,916.85,486.14,918a7.33,7.33,0,1,0,10.5-10.22c-7.41-7.62-28.48-31.26-36.85-48.93-10-21.21-12.35-35.6-12.37-35.74a7.33,7.33,0,0,0-10.9-5.29Z"/><g class="cls-14"><path class="cls-6" d="M496.89,909.22S456,875.14,445.31,819.87C445.31,819.87,448,878.83,496.89,909.22Z"/></g><path d="M613.55,1183.51q-109.44,63.18-204.78,110C243,1374.79,111,1417.59,16.36,1420.68A5.36,5.36,0,1,1,16,1410c93.08-3,223.64-45.47,388-126.11C535.92,1219.17,689.6,1130,860.82,1018.65c291.64-189.56,536.17-379.91,538.6-381.82a5.36,5.36,0,1,1,6.59,8.45c-2.43,1.91-247.33,192.54-539.35,382.36Q732.68,1114.73,613.55,1183.51Z"/><g class="cls-14"><path class="cls-6" d="M577.32,852.3s-59.4-46.77-93.13-108.37C484.19,743.93,504.59,811.41,577.32,852.3Z"/></g><g class="cls-14"><path class="cls-6" d="M598.31,759.47s-57.52-56.21-62-98.92C536.28,660.55,527.6,711.19,598.31,759.47Z"/></g><g class="cls-14"><path class="cls-6" d="M597.9,641.3s-33.6-4.1-49.34,10.16C548.56,651.46,575.69,649,597.9,641.3Z"/></g><g class="cls-14"><path class="cls-6" d="M677.88,672s-36.59-47.18-63.71-65.22c-18.6-12.24-50.29-41.2-50.29-41.2s3,11.66,58.77,56C634.14,629.53,677.88,672,677.88,672Z"/></g><g class="cls-14"><path class="cls-6" d="M690.45,522.51s-83.56,16.94-127.32,7.87C563.13,530.38,613.39,547.09,690.45,522.51Z"/></g><g class="cls-14"><path class="cls-6" d="M668.4,444.13l-52.21,35.34S652.8,475,668.4,444.13Z"/></g><g class="cls-14"><path class="cls-6" d="M966.75,258s-69,38.49-176.38,61.92C790.37,319.9,894.38,317.26,966.75,258Z"/></g><g class="cls-7"><path d="M406.44,1055.8a12.68,12.68,0,0,0,9.38-23.57c-.08,0-1.56-.64-4-1.76-1.48,6.72-7.59,14.81-28.78,13.86A214,214,0,0,0,406.44,1055.8Z"/></g></g></g></svg>