<?xml version="1.0" standalone="no"?>
<!DOCTYPE svg PUBLIC "-//W3C//DTD SVG 1.1//EN" "http://www.w3.org/Graphics/SVG/1.1/DTD/svg11.dtd">
<svg xmlns="http://www.w3.org/2000/svg" viewBox="0 0 1587.02 1874.66" width="1587.02001953125" height="1874.6600341796875"><defs><style>.cls-1{fill:#e9d1d4;}.cls-2{fill:#e5e2dc;}.cls-3{fill:#b9b6b2;}.cls-4{fill:#212121;}.cls-5{opacity:0.15;}.cls-6{fill:#fff;}.cls-7{opacity:0.5;}.cls-8{fill:#c8596a;}.cls-9{opacity:0.4;}.cls-10{fill:#cecbc6;}.cls-11{opacity:0.2;}.cls-12{opacity:0.08;}.cls-13{fill:#262626;}.cls-14{fill:#ffb200;}.cls-15{opacity:0.1;}</style></defs><g id="Layer_2" data-name="Layer 2"><g id="OBJECT"><path class="cls-1" d="M586.52,1603.68h0a74.19,74.19,0,0,1-74.19-74.19V389a74.2,74.2,0,0,1,74.19-74.2h0A74.19,74.19,0,0,1,660.71,389V1529.49A74.18,74.18,0,0,1,586.52,1603.68Z"/><rect class="cls-1" x="713.45" width="74.19" height="1836.42" rx="17.72"/><path class="cls-1" d="M1091.06,1619.26h0a20.7,20.7,0,0,1-20.69-20.69V168.4a20.69,20.69,0,0,1,20.69-20.69h0a20.69,20.69,0,0,1,20.7,20.69V1598.57A20.7,20.7,0,0,1,1091.06,1619.26Z"/><path class="cls-1" d="M1422.25,1793h0a20.7,20.7,0,0,1-20.7-20.69v-1398a20.69,20.69,0,0,1,20.7-20.69h0a20.69,20.69,0,0,1,20.69,20.69V1772.33A20.7,20.7,0,0,1,1422.25,1793Z"/><path class="cls-1" d="M178.82,1719.45h0a20.69,20.69,0,0,1-20.69-20.69V451.14a20.69,20.69,0,0,1,20.69-20.69h0a20.69,20.69,0,0,1,20.69,20.69V1698.76A20.69,20.69,0,0,1,178.82,1719.45Z"/><path class="cls-1" d="M357.15,1874.66h0a74.19,74.19,0,0,1-74.19-74.2V768.62a74.19,74.19,0,0,1,74.19-74.19h0a74.2,74.2,0,0,1,74.19,74.19V1800.46A74.2,74.2,0,0,1,357.15,1874.66Z"/><path class="cls-1" d="M934.35,1474.42h0a74.18,74.18,0,0,1-74.19-74.19V226.89a74.19,74.19,0,0,1,74.19-74.19h0a74.18,74.18,0,0,1,74.19,74.19V1400.23A74.19,74.19,0,0,1,934.35,1474.42Z"/><rect class="cls-1" x="1188.95" y="328.09" width="148.38" height="1164.4" rx="34.51"/><circle class="cls-1" cx="1262.79" cy="1625.74" r="74.55" transform="translate(-779.71 1369.09) rotate(-45)"/><circle class="cls-1" cx="357.15" cy="548.43" r="74.19" transform="translate(-259.47 767.78) rotate(-76.51)"/><path class="cls-2" d="M1571.28,840.35c-16.14,15.46-250.39,205.32-739,474S140.56,1613.44,78.9,1602.22-6.93,1515.09,17,1495c0,0-28-115.09,54.16-140.77,0,0,271.46-203.86,429.59-503.36,116.94-221.52,96.65-291.74,78.15-313.3a73,73,0,0,1-17.18-37.21c-6.78-47.92-17.84-147.53-5.67-221.95.72-20.47,34-17.93,44.07-18.75,0,0,55.86,1.18,79.51,2.58s93.46.66,128.5,72.94l-4.5,4.27c173.81-35.07,227.14-81.11,252.36-97.21,27.49-17.55,33.94,14.4,33.94,14.4s13.16-2.31,34.78,22.83c4.53,5.27,11.22,12.52,19,20.69,29.24,30.81,73.55,74.69,73.55,74.69l5.4-3.68s13.82,17.66,17.71,19.59c.76.37,2.26,1.09,4.33,2.24,8.62,4.78,27.23,16.88,43.68,41.1,0,0,9-9.35,16.45-1.7s26.78,27.33,36.07,47c0,0,5.95-3.44,10,4.27s121,164.64,123.28,197.59c0,0,21.85-7,30.51,29.2l69.11,99.43S1587.45,824.89,1571.28,840.35Z"/><path class="cls-3" d="M1243.93,392.57c-.94.48-1.9,1-2.89,1.46-14.71,4-74.76,18.56-197.19,29.1l-12.18,1c-13.32-18.1.48-44.24,60.15-58,45.89-10.59,67.65-25.65,77.48-39.49,24.2,24.69,48,48.22,48,48.22l5.4-3.68s13.82,17.66,17.71,19.59C1241,391.08,1242.25,391.67,1243.93,392.57Z"/><path class="cls-4" d="M338.93,1219.93c1,1.69.09,4-2,5.22s-4.53.78-5.5-.9-.1-4,2-5.22S338,1218.24,338.93,1219.93Z"/><path class="cls-4" d="M320,1204.39c1,1.69.1,4-2,5.22s-4.52.78-5.5-.9-.09-4,2-5.22S319,1202.7,320,1204.39Z"/><path class="cls-4" d="M302.26,1190.94c1,1.69.1,4-2,5.21s-4.52.79-5.5-.89-.09-4,2-5.22S301.29,1189.25,302.26,1190.94Z"/><path class="cls-4" d="M290.26,1180.59c1,1.69.1,4-2,5.22s-4.52.78-5.5-.9-.09-4,2-5.22S289.29,1178.9,290.26,1180.59Z"/><path class="cls-4" d="M280.37,1172.09c1,1.69.1,4-2,5.21s-4.52.79-5.5-.89-.09-4,2-5.22S279.4,1170.4,280.37,1172.09Z"/><path class="cls-4" d="M275.27,1245.26c1,1.69.09,4-2,5.21s-4.53.79-5.5-.9-.09-4,2-5.21S274.3,1243.57,275.27,1245.26Z"/><path class="cls-4" d="M260,1227.35c1,1.69.09,4-2,5.22s-4.53.79-5.5-.9-.09-4,2-5.22S259,1225.66,260,1227.35Z"/><path class="cls-4" d="M251.1,1214.91c1,1.69.09,4-2,5.21s-4.52.79-5.5-.9-.09-4,2-5.21S250.12,1213.22,251.1,1214.91Z"/><path class="cls-4" d="M246,1206.13c1,1.69.09,4-2,5.22s-4.53.78-5.5-.9-.1-4,2-5.22S245.05,1204.44,246,1206.13Z"/><path class="cls-4" d="M230.15,1271.31c1,1.69.1,4-2,5.21s-4.52.79-5.5-.9-.09-4,2-5.21S229.18,1269.62,230.15,1271.31Z"/><path class="cls-4" d="M238.1,1244c1,1.69.09,4-2,5.22s-4.53.79-5.5-.9-.09-4,2-5.22S237.13,1242.36,238.1,1244Z"/><path class="cls-4" d="M228.55,1229.43c1,1.69.09,4-2,5.21s-4.52.79-5.5-.9-.09-4,2-5.21S227.57,1227.74,228.55,1229.43Z"/><path class="cls-4" d="M211.27,1251.63c1,1.69.09,4-2,5.21s-4.53.79-5.5-.9-.1-4,2-5.21S210.29,1249.94,211.27,1251.63Z"/><path class="cls-4" d="M197,1277.14c1,1.68.1,4-2,5.21s-4.52.79-5.5-.9-.09-4,2-5.21S196,1275.45,197,1277.14Z"/><path class="cls-4" d="M184.59,1304.37c1,1.69.1,4-2,5.21s-4.52.79-5.5-.9-.09-4,2-5.21S183.62,1302.68,184.59,1304.37Z"/><path class="cls-4" d="M129.09,1340.49c1,1.69.1,4-2,5.21s-4.52.79-5.5-.9-.09-4,2-5.21S128.12,1338.8,129.09,1340.49Z"/><path class="cls-4" d="M92.89,1358.71c1,1.69.09,4-2,5.21s-4.53.79-5.5-.9-.09-4,2-5.21S91.92,1357,92.89,1358.71Z"/><path class="cls-4" d="M122.15,1324.44c1,1.68.09,4-2,5.21s-4.53.79-5.51-.9-.09-4,2-5.21S121.17,1322.75,122.15,1324.44Z"/><path class="cls-4" d="M150.5,1308.07c1,1.68.09,4-2,5.21s-4.53.79-5.5-.9-.09-4,2-5.21S149.53,1306.38,150.5,1308.07Z"/><path class="cls-4" d="M175,1276.65c1,1.68.09,4-2,5.21s-4.52.79-5.5-.9-.09-4,2-5.21S174,1275,175,1276.65Z"/><g class="cls-5"><path d="M632,417.27s-6-54.39,31.85-71.36,121.38-32.56,146.54-7.84C810.36,338.07,620.09,370.63,632,417.27Z"/></g><g class="cls-5"><ellipse cx="915.8" cy="1048.95" rx="162.87" ry="11.89" transform="translate(-421.85 662.07) rotate(-32.75)"/></g><g class="cls-5"><path d="M1051.87,750.18c.43,6.55-72,16.67-161.73,22.6s-162.87,5.43-163.3-1.12,72-16.67,161.73-22.6S1051.43,743.63,1051.87,750.18Z"/></g><g class="cls-5"><path d="M1312.42,461s-35,10.88-75,63.12-101.87,171.07-101.87,171.07,97.2-96.63,132.78-152.28S1312.42,461,1312.42,461Z"/></g><path class="cls-6" d="M740.44,826.1s-16.81,16.69-34.28,53.84-42.7,111.81-42.7,111.81,43.74-76.49,58.84-113.68S740.44,826.1,740.44,826.1Z"/><g class="cls-5"><path d="M1450.17,736.54S1353,772.05,1192.58,918.86C1192.58,918.86,1342.19,860.32,1450.17,736.54Z"/></g><g class="cls-7"><path d="M758,735.75S686.6,757.18,676,821.1c0,0,10.54-8.52,15-15.29C700.65,793.12,698.08,777.45,758,735.75Z"/></g><path class="cls-4" d="M1573.79,809.93l-7.44-10.7s-35.46,46.2-212.49,160.94S807.91,1301.07,485,1442.66C297,1525.23,124,1558.09,22.93,1564.44h0c12,17.9,30.86,33.21,56,37.78,61.65,11.22,264.82-19.14,753.4-287.84s722.82-458.57,739-474S1573.79,809.93,1573.79,809.93Z"/><path d="M983.81,1235.48q-69.73,40.27-148.79,83.83c-215,118.26-395.95,202.14-537.73,249.3-133.69,44.47-194.84,43.62-219.39,39.15-24.08-4.38-45.26-18.65-59.65-40.19a5.63,5.63,0,0,1,4.33-8.75c50.35-3.17,232.33-21.28,460.19-121.31,356.63-156.4,754.56-408.52,868-482.06,173.36-112.38,210.74-159.2,211.1-159.66a5.64,5.64,0,0,1,9.08.23l7.23,10.41c6,6.78,12.66,23-3,38-6.55,6.27-66.45,56.27-193,142.63C1296.15,1045.7,1163.15,1131.94,983.81,1235.48ZM33.64,1569.33c12.22,14.49,28.35,24.09,46.27,27.35,18.92,3.44,77.62,6.55,213.82-38.75,141.14-47,321.43-130.56,535.86-248.49,255.66-140.6,438.13-258,546.19-331.69,124.36-84.83,185.53-135.65,191.61-141.47,11.84-11.32,3.26-21.44,2.24-22.55a5.29,5.29,0,0,1-.47-.59l-3.34-4.8c-14.58,15.51-65.32,63.49-208.9,156.56-113.64,73.66-512.22,326.19-869.62,482.92C271.26,1542.66,95.9,1564.43,33.64,1569.33Z"/><g class="cls-7"><path d="M1574.15,812.74s-33.31,35.06-205.07,147-264.95,175.39-338.7,221.9c0,0,172.09-90.8,338.63-202.89S1574.15,812.74,1574.15,812.74Z"/></g><path class="cls-8" d="M418.65,1171.14s.76,10.17,14.39,19.29c8.53,5.11,48.61,38.82,16.5,62.37s-49.13-22.35-108.39,6.29-140.74,81.54-210.75,109.42-112,29-59.24-14.29C-11,1379.91,17,1495,17,1495c149.34-4.88,369.35-103.46,593.39-230.43-33.27-31.57-137.24-72.91-191.87-93.1"/><g class="cls-9"><path class="cls-6" d="M312.75,1291.5s-36.41,22.85-72.86,38.87-73.21,47-73.21,47,30.44.54,86-39.34S312.75,1291.5,312.75,1291.5Z"/></g><path class="cls-10" d="M1244.7,393s-1.2.36-3.66,1c-14.71,4-74.76,18.56-197.19,29.1l-12.18,1c-144.92,12-389.23,24.56-389.23,24.56l2-23c24.33-10.24,55.69-17.91,94.25-24.81,55.79-10,126.61-18.34,213-30.59,101.11-14.34,159.61-45,192-70.17,7.83,8.25,16.73,17.43,25.59,26.47,24.2,24.69,48,48.22,48,48.22l5.4-3.68s13.82,17.66,17.71,19.59c.67.32,1.88.91,3.56,1.81Z"/><path class="cls-4" d="M643.12,491.48c-23.69-94.59-21-123.29,110.62-142.87C967.62,312.9,1028.49,259.79,1056,242.24s34,14.4,34,14.4-80.39,81.81-330.76,120.19c-98.26,16.6-109.42,34.5-109,69.49Z"/><path class="cls-8" d="M1350.89,483.7c-4-7.7-10-4.26-10-4.26s-95.19,121.83-169.61,227.5-9.35,203.73-9.35,203.73C1346.35,781,1474.16,681.3,1474.16,681.3,1471.86,648.35,1354.92,491.41,1350.89,483.7Z"/><g class="cls-11"><path d="M1341.08,496.47s91.12,96.2,121.14,164.14c10.82,29.6-13.56,39.77-243.79,192.67,0,0,52.54-48,126.52-112.43s75.06-84.29,47.16-138.41S1341.08,496.47,1341.08,496.47Z"/></g><g class="cls-9"><path class="cls-6" d="M1171.81,825.33a38.63,38.63,0,0,1-4.8-10.16,68.94,68.94,0,0,1-2.54-11,90.61,90.61,0,0,1-.36-22.56,116.37,116.37,0,0,1,4.52-22,147.86,147.86,0,0,1,8.21-20.72,161.79,161.79,0,0,1,24.66-36.31c2.48-2.67,5-5.3,7.6-7.84s5.35-4.93,8.12-7.28,5.69-4.56,8.68-6.66a109.19,109.19,0,0,1,9.36-5.88c-1.39,3.48-3,6.76-4.6,10s-3.18,6.42-4.84,9.54-3.23,6.27-4.93,9.3-3.26,6.15-5,9.14c-6.54,12.12-12.94,24-18.88,35.94-2.91,6-5.73,12-8.38,18.08s-5.06,12.23-7.3,18.49-4.24,12.64-5.9,19.24A123.89,123.89,0,0,0,1171.81,825.33Z"/></g><path class="cls-8" d="M594.17,283.7c-18.24-.09-33.58,0-39,.52h0c-10.71,73.72,0,169.46,6.57,216.14l51.43-.78,0,0C562.73,416.67,594.17,283.7,594.17,283.7Z"/><g class="cls-9"><path class="cls-6" d="M564.55,449.2s-11.29-91.06-3.19-105C561.36,344.22,573.68,401.36,564.55,449.2Z"/></g><g class="cls-9"><path class="cls-6" d="M31.18,1463.44s-9.4-51.72,14-73c0,0,3,5.12-4.15,23.19S31.18,1463.44,31.18,1463.44Z"/></g><path d="M1000.32,1182.84c-155.76,89.93-339.25,188.77-513,265-229.56,100.78-413.2,119-464,122.24a5.63,5.63,0,1,1-.71-11.24c50.35-3.17,232.33-21.28,460.19-121.31,356.63-156.4,754.56-408.52,868-482.06,173.36-112.38,210.74-159.2,211.09-159.66a5.63,5.63,0,0,1,8.93,6.87c-1.47,1.92-38.08,48.28-213.9,162.24C1298.53,1002.74,1164.92,1087.82,1000.32,1182.84Z"/><path d="M668,1284h0c-16.52,9.5-33,18.86-49.07,27.83a5.63,5.63,0,0,1-5.56-9.79l.07,0c16-8.94,32.46-18.29,48.94-27.77A5.63,5.63,0,0,1,668,1284Zm24.38-14.12a5.63,5.63,0,0,1-5.65-9.74c15.93-9.29,32.24-18.92,48.5-28.63l.07,0a5.63,5.63,0,0,1,5.7,9.71c-16.29,9.73-32.64,19.38-48.6,28.69Zm-98.06,55.61-.1.06c-16.7,9.19-33.38,18.22-49.6,26.85a5.63,5.63,0,1,1-5.29-9.94c16.17-8.6,32.81-17.61,49.46-26.78a5.63,5.63,0,0,1,5.53,9.81Zm170.78-98.79a5.63,5.63,0,0,1-5.73-9.7c15.76-9.52,31.92-19.39,48-29.33a5.63,5.63,0,0,1,5.91,9.58c-16.14,10-32.33,19.85-48.11,29.39Zm72-44.18a5.63,5.63,0,0,1-5.79-9.66c15.7-9.79,31.73-19.88,47.65-30a5.63,5.63,0,1,1,6,9.5c-15.95,10.13-32,20.24-47.73,30.05ZM519.83,1365.39l-.22.12c-16.94,8.84-33.85,17.48-50.23,25.68a5.63,5.63,0,1,1-5-10.07c16.33-8.17,33.17-16.78,50.06-25.6a5.63,5.63,0,0,1,5.43,9.87ZM908.45,1137.3a5.63,5.63,0,0,1-5.85-9.62c15.62-10,31.53-20.29,47.29-30.57a5.63,5.63,0,0,1,6.15,9.44c-15.79,10.29-31.72,20.59-47.36,30.61Zm-464,266.21-.35.19c-17.26,8.42-34.41,16.58-51,24.25a5.63,5.63,0,0,1-4.73-10.22c16.49-7.63,33.57-15.76,50.75-24.15a5.63,5.63,0,0,1,5.3,9.93Zm534.91-312.23a5.63,5.63,0,0,1-5.9-9.59c15.42-10.13,31.22-20.6,46.95-31.09a5.63,5.63,0,1,1,6.25,9.36c-15.75,10.52-31.57,21-47,31.14C979.54,1091.17,979.44,1091.22,979.35,1091.28ZM368,1439.39a3.6,3.6,0,0,1-.52.26c-17.58,7.89-35,15.44-51.82,22.45a5.63,5.63,0,0,1-4.33-10.39c16.71-7,34-14.49,51.54-22.33a5.63,5.63,0,0,1,5.13,10Zm681.78-394.91a5.63,5.63,0,0,1-6-9.55c15.34-10.31,31-20.94,46.64-31.58a5.63,5.63,0,1,1,6.34,9.3c-15.62,10.66-31.34,21.3-46.7,31.62ZM1119.66,997a5.63,5.63,0,0,1-6-9.52c15.39-10.56,31-21.34,46.34-32a5.63,5.63,0,1,1,6.43,9.24c-15.38,10.71-31,21.5-46.39,32.07A4,4,0,0,1,1119.66,997ZM290.2,1472.42a4.5,4.5,0,0,1-.73.36c-18,7.19-35.78,13.94-52.83,20.07a5.63,5.63,0,1,1-3.81-10.6c16.93-6.09,34.58-12.79,52.46-19.93a5.63,5.63,0,0,1,4.91,10.1Zm898.93-523.63a5.63,5.63,0,0,1-6-9.49c15.28-10.71,30.77-21.63,46-32.46a5.63,5.63,0,0,1,6.52,9.19c-15.29,10.84-30.8,21.77-46.1,32.49A4.94,4.94,0,0,1,1189.13,948.79Zm69-48.81a5.63,5.63,0,0,1-6.08-9.47c15.27-10.9,30.66-22,45.75-32.87a5.63,5.63,0,0,1,6.6,9.13c-15.11,10.92-30.52,22-45.81,32.91C1258.47,899.79,1258.31,899.89,1258.16,900ZM211,1501.68a6,6,0,0,1-1,.46c-18.52,6.23-36.7,11.87-54.05,16.77a5.63,5.63,0,0,1-3.06-10.84c17.17-4.85,35.18-10.44,53.52-16.61a5.64,5.64,0,0,1,4.62,10.22Zm1115.8-651.14a5.63,5.63,0,0,1-6.13-9.43c15.1-11,30.39-22.17,45.47-33.28a5.63,5.63,0,0,1,6.68,9.07c-15.1,11.12-30.41,22.33-45.52,33.32A5.29,5.29,0,0,1,1326.76,850.54Zm68.16-50a5.63,5.63,0,0,1-6.16-9.41c15.29-11.33,30.48-22.67,45.15-33.71a5.63,5.63,0,0,1,6.77,9c-14.69,11-29.91,22.41-45.21,33.76A6.49,6.49,0,0,1,1394.92,800.49ZM130,1525.63a5.64,5.64,0,0,1-1.45.58c-19.19,4.82-37.85,8.8-55.46,11.85a5.63,5.63,0,0,1-1.93-11.1c17.34-3,35.73-6.93,54.66-11.67a5.63,5.63,0,0,1,4.18,10.34ZM1462.62,749.75a5.63,5.63,0,0,1-6.21-9.36c28.51-21.62,44.64-34.2,44.8-34.33a5.63,5.63,0,1,1,6.93,8.88c-.16.12-16.34,12.75-44.93,34.42A4.29,4.29,0,0,1,1462.62,749.75ZM47.05,1541.56a5.54,5.54,0,0,1-2.11.7c-11.48,1.44-22.74,2.47-33.47,3.07a5.63,5.63,0,1,1-.63-11.25c10.47-.58,21.48-1.59,32.7-3a5.63,5.63,0,0,1,3.51,10.47Z"/><path d="M1176,889l-.31.16a4,4,0,0,1-5.24-1.91c-2.39-5.14-4.57-10.53-6.49-16a3.94,3.94,0,1,1,7.44-2.61c1.83,5.25,3.92,10.39,6.2,15.3A3.94,3.94,0,0,1,1176,889Zm-11.15-31.85a3.66,3.66,0,0,1-1,.42,3.93,3.93,0,0,1-4.76-2.89c-.92-3.78-1.72-7.61-2.38-11.38-.32-1.85-.62-3.73-.88-5.59a3.94,3.94,0,1,1,7.81-1.1c.25,1.77.53,3.57.84,5.34.62,3.6,1.39,7.25,2.27,10.86A3.94,3.94,0,0,1,1164.85,857.16Zm-4.68-33.39a4,4,0,0,1-1.83.52,3.94,3.94,0,0,1-4.08-3.8,160.73,160.73,0,0,1,.31-17.3,3.94,3.94,0,1,1,7.86.57,152.7,152.7,0,0,0-.29,16.45A4,4,0,0,1,1160.17,823.77Zm2.47-33.62a3.95,3.95,0,0,1-5.85-4.13,155.64,155.64,0,0,1,4.1-16.83,3.94,3.94,0,1,1,7.54,2.28,150.68,150.68,0,0,0-3.89,16A3.92,3.92,0,0,1,1162.64,790.15Zm9.72-32.29a3.94,3.94,0,0,1-5.6-4.94c2.19-5.22,4.71-10.45,7.47-15.56a3.94,3.94,0,1,1,6.94,3.75c-2.65,4.88-5.05,9.89-7.15,14.87A3.87,3.87,0,0,1,1172.36,757.86Zm16-29.69a3.94,3.94,0,0,1-5.26-5.59c1.09-1.65,2.23-3.31,3.37-4.94q3.16-4.49,6.37-9a3.94,3.94,0,1,1,6.43,4.56l-6.35,9c-1.1,1.57-2.2,3.17-3.25,4.76A3.93,3.93,0,0,1,1188.37,728.17Zm19.49-27.62a3.94,3.94,0,0,1-5.18-5.7q4.9-6.86,9.88-13.75a3.94,3.94,0,0,1,6.39,4.62q-5,6.87-9.86,13.71A3.84,3.84,0,0,1,1207.86,700.55Zm19.8-27.42a3.94,3.94,0,0,1-5.16-5.73q5-6.85,10-13.66a3.94,3.94,0,1,1,6.36,4.66q-5,6.79-10,13.64A3.92,3.92,0,0,1,1227.66,673.13Zm20-27.28a3.94,3.94,0,0,1-5.14-5.75q5.05-6.86,10.06-13.6a3.94,3.94,0,0,1,6.33,4.69q-5,6.73-10.05,13.59A3.82,3.82,0,0,1,1247.63,645.85Zm20.14-27.16a3.94,3.94,0,0,1-5.13-5.77l10.13-13.55a3.94,3.94,0,0,1,6.31,4.72q-5,6.67-10.12,13.54A3.75,3.75,0,0,1,1267.77,618.69Zm20.28-27.07a3.94,3.94,0,0,1-5.12-5.78q5.21-6.92,10.19-13.51a3.94,3.94,0,1,1,6.29,4.76c-3.32,4.38-6.72,8.89-10.18,13.49A4,4,0,0,1,1288.05,591.62Zm20.4-27a3.94,3.94,0,0,1-5.11-5.8c3.54-4.66,7-9.16,10.24-13.46a3.94,3.94,0,0,1,6.27,4.78q-4.92,6.45-10.24,13.45A3.78,3.78,0,0,1,1308.45,564.64ZM1329,537.75a3.94,3.94,0,0,1-5.1-5.81c3.7-4.84,7.15-9.33,10.3-13.43a3.94,3.94,0,1,1,6.25,4.81c-3.15,4.1-6.6,8.58-10.3,13.41A3.83,3.83,0,0,1,1329,537.75Zm20.63-26.82a3.94,3.94,0,0,1-5.09-5.82c5.38-6.95,9-11.6,10.4-13.4a3.94,3.94,0,1,1,6.21,4.84c-1.4,1.8-5,6.44-10.37,13.38A4,4,0,0,1,1349.59,510.93Z"/><path d="M1161.94,910.67a151.27,151.27,0,0,1-15.06-27.51,184.91,184.91,0,0,1-14.77-61.34,175.3,175.3,0,0,1,.88-31.89c.36-2.65.68-5.3,1.09-7.94l1.48-7.88c.52-2.62,1.25-5.19,1.88-7.79s1.44-5.15,2.21-7.71,1.55-5.13,2.53-7.62,1.83-5,2.83-7.5l3.22-7.35.8-1.84c.28-.61.6-1.19.9-1.79l1.8-3.58c2.3-4.84,5.11-9.38,7.78-14,1.36-2.3,2.9-4.48,4.34-6.73s2.92-4.5,4.42-6.59c6-8.52,12-17.07,18.1-25.53q36.5-50.8,75.14-100c25.7-32.83,52-65.21,79.39-96.65-23.72,34.32-48,68.15-72.36,101.93l-73,101.27c-6.12,8.41-12.1,16.91-18.16,25.36-1.56,2.11-2.93,4.21-4.36,6.32s-2.89,4.18-4.21,6.34c-2.58,4.36-5.31,8.65-7.59,13.18l-1.79,3.35c-.29.57-.6,1.12-.88,1.69l-.8,1.72-3.2,6.89c-1,2.33-1.88,4.7-2.85,7s-1.79,4.74-2.6,7.14a174.06,174.06,0,0,0-7.41,29.46,185.94,185.94,0,0,0,.6,61c.82,5.08,1.94,10.1,3.16,15.11s2.72,9.95,4.36,14.85,3.42,9.77,5.46,14.54A142.7,142.7,0,0,0,1161.94,910.67Z"/><path d="M457.87,1278.87l-.05,0a57.8,57.8,0,0,1-16.91,6.32,3.94,3.94,0,1,1-1.53-7.73A49.82,49.82,0,0,0,454,1272a3.94,3.94,0,0,1,3.9,6.85Zm13.52-10a3.94,3.94,0,0,1-4.71-6.25,47.24,47.24,0,0,0,9.27-12.44,3.94,3.94,0,0,1,7,3.57,55,55,0,0,1-10.81,14.52A4.06,4.06,0,0,1,471.39,1268.85Zm-46.08,16.48a3.88,3.88,0,0,1-2.43.49,95.15,95.15,0,0,1-17.16-3.92,3.94,3.94,0,1,1,2.35-7.53A87.26,87.26,0,0,0,423.8,1278a3.95,3.95,0,0,1,1.51,7.33Zm60.8-46.09a4,4,0,0,1-5.89-3.78,42.91,42.91,0,0,0,.13-5.79,46.08,46.08,0,0,0-1.51-9.58,3.94,3.94,0,0,1,7.62-2,53.17,53.17,0,0,1,1.76,11.23,49.41,49.41,0,0,1-.15,6.89A4,4,0,0,1,486.11,1239.24Zm-93.41,37.45a3.93,3.93,0,0,1-2.85.43,45.34,45.34,0,0,0-15.46-1,3.94,3.94,0,0,1-.85-7.84,53.21,53.21,0,0,1,18.07,1.19,3.95,3.95,0,0,1,1.09,7.26Zm-33,3.13a4.3,4.3,0,0,1-.53.25c-2.07.82-4.24,1.78-6.46,2.85-2.72,1.31-5.57,2.72-8.49,4.19a3.94,3.94,0,1,1-3.55-7c3-1.49,5.85-2.92,8.61-4.25,2.39-1.16,4.75-2.19,7-3.08a3.94,3.94,0,0,1,3.42,7.08Zm-30.29,15-.13.07c-4.66,2.47-9.51,5.08-14.83,8a3.94,3.94,0,1,1-3.77-6.92c5.34-2.92,10.22-5.54,14.92-8a3.94,3.94,0,0,1,3.81,6.9Zm-29.67,16.16-.06,0q-7.26,4-14.74,8.23a3.94,3.94,0,0,1-3.85-6.88l14.76-8.24a3.94,3.94,0,0,1,3.89,6.86Zm-29.49,16.49,0,0c-4.91,2.74-9.83,5.5-14.76,8.24a3.94,3.94,0,0,1-3.89-6.86l.06,0,14.74-8.23a3.94,3.94,0,0,1,3.89,6.85ZM478.05,1207a3.94,3.94,0,0,1-5.38-1.43,85.47,85.47,0,0,0-9.46-13.06,3.94,3.94,0,0,1,6-5.18,93.33,93.33,0,0,1,10.32,14.28,3.93,3.93,0,0,1-1.42,5.38ZM240.68,1343.84l-.07,0q-7.43,4.08-14.87,8.1a3.94,3.94,0,0,1-3.84-6.88l.1-.06q7.41-4,14.81-8.07a3.94,3.94,0,0,1,3.87,6.87Zm-29.76,16-.14.08c-5.15,2.71-10.23,5.32-15.07,7.77a3.94,3.94,0,1,1-3.56-7c4.81-2.44,9.85-5,15-7.72a3.94,3.94,0,0,1,3.8,6.9Zm-30.17,15.24a2.1,2.1,0,0,1-.26.13c-5.27,2.55-10.44,5-15.38,7.22a3.94,3.94,0,1,1-3.26-7.18c4.88-2.22,10-4.62,15.21-7.14a3.95,3.95,0,0,1,3.69,7ZM150,1389a3.68,3.68,0,0,1-.44.23c-3.16,1.32-6.3,2.61-9.35,3.83q-3.25,1.29-6.44,2.52a3.94,3.94,0,0,1-2.83-7.36q3.15-1.21,6.35-2.49c3-1.19,6.1-2.46,9.21-3.77a3.94,3.94,0,0,1,3.5,7Zm-31.53,12.13a4.69,4.69,0,0,1-.68.31c-5.64,2-11.1,3.73-16.23,5.26a3.94,3.94,0,1,1-2.26-7.55c5-1.5,10.37-3.24,15.9-5.16a3.94,3.94,0,0,1,3.27,7.14Zm-32.39,9.58a3.91,3.91,0,0,1-1.08.42c-1.82.42-3.61.81-5.33,1.16-2.77.56-7,1.4-11.76,1.93a3.94,3.94,0,0,1-.87-7.84c4.45-.49,8.28-1.26,11.07-1.82,1.65-.33,3.37-.7,5.11-1.11a3.95,3.95,0,0,1,2.86,7.26Zm-33.49,2.84a3.9,3.9,0,0,1-2.59.48,36.61,36.61,0,0,1-17.26-7.21,3.94,3.94,0,0,1,4.91-6.17,28.9,28.9,0,0,0,13.6,5.6,3.94,3.94,0,0,1,1.34,7.3Z"/><path d="M419.21,1171.1a21.81,21.81,0,0,0,3.88,7.67,33.13,33.13,0,0,0,6.06,6.12c.54.46,1.13.88,1.72,1.29a20.4,20.4,0,0,0,1.77,1.2l1.8,1.12c.69.37,1.38.78,2.07,1.2a74.57,74.57,0,0,1,7.56,5.55,78.94,78.94,0,0,1,13.12,13.52c3.82,5.08,7.16,10.94,8.54,17.81a26.72,26.72,0,0,1-4,20.65,35.79,35.79,0,0,1-3.23,4.16c-.58.65-1.21,1.22-1.82,1.83a21.5,21.5,0,0,1-1.88,1.71l-2,1.6c-.65.53-1.36,1-2,1.45a44.57,44.57,0,0,1-4.32,2.66,37,37,0,0,1-9.83,3.58,35.86,35.86,0,0,1-10.47.4,50.61,50.61,0,0,1-9.68-2c-3-.89-6-1.92-8.79-2.94a136.65,136.65,0,0,0-16.7-5.25,65.2,65.2,0,0,0-17.07-1.73,74.6,74.6,0,0,0-17.25,2.67,100.18,100.18,0,0,0-16.61,6.32c-21.76,10.28-42.58,22.5-63.1,35.18l-15.41,9.5-7.72,4.75-7.76,4.68c-10.35,6.22-20.86,12.21-31.4,18.14-5.3,2.92-10.57,5.9-15.91,8.77s-10.67,5.75-16.09,8.49l-8.1,4.15c-2.72,1.36-5.48,2.64-8.21,4-5.46,2.66-11,5.13-16.61,7.57-1.4.61-2.79,1.23-4.2,1.82l-4.24,1.71-8.5,3.4c-5.69,2.17-11.42,4.26-17.22,6.17s-11.62,3.75-17.51,5.42-11.88,3.09-17.93,4.29a106.61,106.61,0,0,1-18.65,2.24,43,43,0,0,1-4.92-.17,23.7,23.7,0,0,1-5.17-1,13.83,13.83,0,0,1-2.74-1.21,8.84,8.84,0,0,1-2.62-2.29,7.28,7.28,0,0,1-1.46-3.46,8.85,8.85,0,0,1,.17-3.29,16.33,16.33,0,0,1,2.17-5,31.56,31.56,0,0,1,2.9-3.92,69.76,69.76,0,0,1,6.57-6.63,151.18,151.18,0,0,1,14.42-11.22l.71.87c-4.33,4.2-8.59,8.46-12.48,12.95a67.06,67.06,0,0,0-5.4,6.93,31.7,31.7,0,0,0-2.1,3.6,11,11,0,0,0-1.13,3.42,2.94,2.94,0,0,0,.07,1.2,1.12,1.12,0,0,0,.4.6,5.09,5.09,0,0,0,2.33,1,27.39,27.39,0,0,0,7.88.13,116.24,116.24,0,0,0,17-3.43c5.69-1.52,11.34-3.33,17-5.25s11.23-3.94,16.79-6.09,11.1-4.38,16.61-6.69l8.21-3.54,4.11-1.75c1.36-.6,2.71-1.24,4.07-1.86,21.77-9.81,43.34-20.31,64.73-31.31l32-16.67c10.69-5.56,21.5-10.94,32.27-16.41,21.59-10.85,43-22.07,64.52-33.07,10.78-5.58,22.41-10.31,34.95-11.92a72.15,72.15,0,0,1,19,.08,122.78,122.78,0,0,1,18.2,4.17c5.79,1.66,11.35,3.43,16.55,3.86a28.62,28.62,0,0,0,7.54-.32,28.08,28.08,0,0,0,7.13-2.51,32.35,32.35,0,0,0,3.42-2c.55-.38,1.14-.72,1.66-1.13l1.59-1.22a13.27,13.27,0,0,0,1.49-1.29c.47-.44,1-.87,1.42-1.33a24.12,24.12,0,0,0,2.39-2.91,18.84,18.84,0,0,0,3.06-6.49,20,20,0,0,0,.26-7.3,38.44,38.44,0,0,0-6.09-15,76.59,76.59,0,0,0-5.1-6.93,88.33,88.33,0,0,0-12.31-12.35c-.55-.44-1.1-.88-1.7-1.3L430,1191c-.64-.49-1.22-1-1.8-1.57s-1.17-1.06-1.71-1.65a34.19,34.19,0,0,1-5.65-7.61,24.77,24.77,0,0,1-1.86-4.34,17.32,17.32,0,0,1-.89-4.67Z"/><path d="M1090.33,257c-.92,1-1.89,1.83-2.85,2.73s-2,1.74-2.94,2.59l-3,2.55-3.07,2.43c-4.06,3.31-8.34,6.29-12.58,9.35l-1.6,1.14-1.64,1.07-3.28,2.14-6.56,4.28c-4.45,2.74-9,5.36-13.46,8-2.22,1.38-4.55,2.56-6.84,3.81l-6.9,3.72c-2.31,1.23-4.59,2.51-6.92,3.69l-7,3.43c-4.71,2.27-9.38,4.62-14.12,6.81l-14.37,6.28c-38.47,16.39-78.43,29.1-118.89,39.53l-15.17,4c-2.53.7-5.08,1.24-7.63,1.81l-7.65,1.71c-10.2,2.26-20.38,4.68-30.6,6.85q-15.4,2.88-30.83,5.55L757,383.1c-5.07.81-10.17,1.69-15.25,2.6-10.17,1.74-20.27,3.75-30.23,6.14-5,1.13-9.92,2.49-14.81,3.91s-9.65,3.13-14.29,5a74.56,74.56,0,0,0-13.18,6.88,39.44,39.44,0,0,0-10.5,9.93,35,35,0,0,0-3.6,6.35,49.26,49.26,0,0,0-2.32,7.11,64.4,64.4,0,0,0-1.34,7.53c-.36,2.55-.56,5.14-.75,7.73h0a.56.56,0,0,1-1.12,0,80.66,80.66,0,0,1-.08-15.85,46.45,46.45,0,0,1,1.61-8,39.65,39.65,0,0,1,3.24-7.64,45.24,45.24,0,0,1,10.9-12.54,76.51,76.51,0,0,1,13.81-8.72c9.63-4.9,19.75-8.31,29.86-11.35s20.4-5.38,30.66-7.6c5.14-1,10.28-2.05,15.47-3s10.24-1.79,15.37-2.69c10.22-1.73,20.47-3.36,30.72-4.95,2.58-.34,5.1-.91,7.65-1.36l7.64-1.43,15.28-2.87,7.63-1.45c2.55-.49,5.1-.94,7.62-1.56l15.15-3.46c40.39-9.25,80.33-20.78,118.9-36l14.45-5.73c4.78-2,9.48-4.18,14.22-6.26l7.11-3.16c2.35-1.1,4.65-2.28,7-3.42l7-3.45c2.32-1.16,4.67-2.26,6.92-3.55,4.53-2.5,9.11-4.95,13.61-7.51l6.66-4,3.32-2,1.67-1,1.62-1.07c4.32-2.86,8.7-5.65,12.84-8.76l3.15-2.28,3-2.41c2.05-1.58,4-3.27,5.91-5h0a.57.57,0,0,1,.8,0A.56.56,0,0,1,1090.33,257Z"/><path d="M1080.74,708.91a3.94,3.94,0,0,1-4.08-6.75c4.3-2.73,8.87-5.92,13.57-9.49A3.94,3.94,0,1,1,1095,699c-4.87,3.7-9.62,7-14.1,9.87ZM1066,717l-.35.18c-1.13.51-2.26,1-3.36,1.45-3.9,1.58-8.26,3.11-13,4.56a3.94,3.94,0,0,1-2.31-7.54c4.5-1.38,8.64-2.83,12.32-4.33,1-.41,2-.85,3.07-1.32a3.94,3.94,0,0,1,3.61,7Zm41.76-28.41a3.94,3.94,0,0,1-4.52-6.41c4-3.44,8.23-7.18,12.5-11.12a3.94,3.94,0,1,1,5.35,5.79c-4.35,4-8.64,7.83-12.74,11.33A5.68,5.68,0,0,1,1107.72,688.62Zm-74,38.61a3.75,3.75,0,0,1-1.07.43c-5.2,1.21-10.83,2.39-16.74,3.49a3.94,3.94,0,1,1-1.45-7.75c5.8-1.08,11.31-2.23,16.39-3.42a3.94,3.94,0,0,1,2.87,7.25Zm98.82-61.5a3.94,3.94,0,0,1-4.73-6.23c3.81-3.75,7.79-7.76,11.82-11.92a3.94,3.94,0,1,1,5.66,5.48c-4.07,4.21-8.1,8.27-12,12.06A3.8,3.8,0,0,1,1132.56,665.73Zm-132.07,67.78a3.84,3.84,0,0,1-1.38.48c-5.34.82-11,1.61-16.86,2.36a3.94,3.94,0,0,1-1-7.82c5.79-.74,11.39-1.52,16.67-2.33a3.94,3.94,0,0,1,2.57,7.31Zm155.59-92a3.94,3.94,0,0,1-4.86-6.1c3.7-4,7.52-8.16,11.36-12.42a3.94,3.94,0,0,1,5.86,5.28c-3.87,4.29-7.72,8.5-11.45,12.51A4,4,0,0,1,1156.08,641.48Zm22.61-25.1a3.94,3.94,0,0,1-4.93-6c3.56-4.08,7.27-8.36,11-12.74a3.94,3.94,0,0,1,6,5.12c-3.77,4.4-7.5,8.71-11.08,12.81A3.87,3.87,0,0,1,1178.69,616.38ZM966.91,737.82a3.83,3.83,0,0,1-1.55.5c-5.46.59-11.15,1.15-16.9,1.67a3.95,3.95,0,0,1-.71-7.86c5.71-.51,11.35-1.07,16.78-1.65a3.94,3.94,0,0,1,2.38,7.34ZM1200.65,590.7a3.94,3.94,0,0,1-5-5.94c3.53-4.22,7.15-8.59,10.76-13a3.94,3.94,0,1,1,6.09,5c-3.62,4.41-7.26,8.8-10.8,13A4,4,0,0,1,1200.65,590.7ZM933.21,740.88a4,4,0,0,1-1.67.51c-5.49.42-11.19.82-16.94,1.19a3.94,3.94,0,1,1-.51-7.87c5.72-.37,11.39-.76,16.85-1.18a3.95,3.95,0,0,1,2.27,7.35Zm288.88-176.29a3.94,3.94,0,0,1-5-5.89q5.35-6.63,10.55-13.16a3.94,3.94,0,1,1,6.17,4.9q-5.2,6.55-10.58,13.21A3.91,3.91,0,0,1,1222.09,564.59ZM899.42,743.05a4,4,0,0,1-1.76.52c-5.57.29-11.27.57-16.94.82a3.94,3.94,0,1,1-.34-7.88c5.65-.24,11.32-.52,16.86-.81a3.94,3.94,0,0,1,2.18,7.35Zm343.7-204.92a3.94,3.94,0,0,1-5.08-5.84q5.32-6.79,10.36-13.33a3.94,3.94,0,1,1,6.24,4.82q-5.06,6.54-10.39,13.36A3.94,3.94,0,0,1,1243.12,538.13ZM865.6,744.53a3.89,3.89,0,0,1-1.83.52c-5.77.2-11.43.38-16.95.53a3.94,3.94,0,1,1-.21-7.88c5.5-.15,11.14-.33,16.89-.52a3.94,3.94,0,0,1,2.1,7.35Zm398.18-233.16a3.94,3.94,0,0,1-5.11-5.8c3.55-4.67,7-9.17,10.18-13.46a3.94,3.94,0,1,1,6.3,4.74c-3.23,4.3-6.65,8.82-10.21,13.49A3.9,3.9,0,0,1,1263.78,511.37Zm20.31-27a3.94,3.94,0,0,1-5.13-5.76c3.7-5,7-9.55,10-13.59a3.94,3.94,0,1,1,6.36,4.66c-3,4-6.33,8.62-10,13.63A3.91,3.91,0,0,1,1284.09,484.35ZM831.76,745.44a4.06,4.06,0,0,1-1.89.53q-8.85.16-17,.26a3.94,3.94,0,0,1-.1-7.88c5.38-.07,11-.15,16.9-.27a3.95,3.95,0,0,1,2,7.36Zm472.31-288.38a3.94,3.94,0,0,1-5.17-5.72c2.3-3.2,3.81-5.31,4.39-6.13l.09-.12,5.7-7.4a3.94,3.94,0,1,1,6.24,4.8l-5.65,7.34c-.61.87-2.11,3-4.38,6.12A3.79,3.79,0,0,1,1304.07,457.06ZM797.89,745.85a4,4,0,0,1-1.94.53c-6.27,0-12,0-17,0a3.95,3.95,0,0,1,0-7.89c5,0,10.67,0,16.91,0a3.94,3.94,0,0,1,2,7.36ZM764,745.76a3.92,3.92,0,0,1-2,.52c-3.05,0-5.12-.07-6.08-.09l-10.77.09a3.94,3.94,0,1,1-.07-7.88l10.88-.09,6.14.09a3.93,3.93,0,0,1,3.89,4A4,4,0,0,1,764,745.76Z"/><path d="M1288.39,434.1c-14.26,22.11-29.37,43.65-44.71,65q-11.6,16-23.48,31.74c-7.91,10.52-16,20.87-24.21,31.21s-16.47,20.56-25,30.61-17.16,20-26,29.84c-4.41,4.92-8.93,9.74-13.51,14.52s-9.21,9.5-13.93,14.16-9.52,9.24-14.44,13.73-9.94,8.88-15.16,13.09-10.64,8.22-16.35,11.94c-2.85,1.87-5.81,3.63-8.85,5.29-1.52.84-3.11,1.58-4.68,2.37l-2.44,1.06-1.22.53-1.2.46c-12.86,4.91-25.92,7.93-39,10.37s-26.24,4.16-39.38,5.62l-9.86,1-9.86.91-9.87.75-9.87.66c-13.17.8-26.33,1.48-39.49,1.86s-26.33.61-39.49.7c-26.32,0-52.63-.35-78.91-1.66,26.28-1.19,52.53-2.28,78.74-3.87,13.1-.74,26.2-1.56,39.27-2.54s26.15-2,39.18-3.25c26-2.64,52.09-5.49,77.51-10.67l4.76-1,4.73-1.05c3.17-.67,6.26-1.51,9.39-2.28,1.56-.39,3.08-.87,4.62-1.3s3.08-.86,4.58-1.38l4.52-1.48,4.4-1.67a87.66,87.66,0,0,0,16.33-8.79c5.28-3.48,10.39-7.35,15.4-11.38,10-8,19.63-16.84,29-25.91s18.36-18.51,27.31-28c17.93-19,35-38.89,52.07-58.81,8.5-10,16.84-20.11,25.21-30.21s16.64-20.29,24.88-30.52C1255.84,475.39,1272.11,454.76,1288.39,434.1Z"/><path d="M1066.16,974.17a4.22,4.22,0,0,1-1.17.44,3.94,3.94,0,0,1-4.66-3.05L1056.88,955a3.94,3.94,0,1,1,7.72-1.61L1068,970A3.94,3.94,0,0,1,1066.16,974.17Zm-6.89-33.08a4,4,0,0,1-5.83-2.61L1050,921.94a3.94,3.94,0,0,1,7.72-1.61l3.44,16.54A3.94,3.94,0,0,1,1059.27,941.09ZM1052.38,908a3.93,3.93,0,0,1-5.83-2.61l-3.45-16.54a3.94,3.94,0,0,1,7.72-1.6l3.44,16.53A3.94,3.94,0,0,1,1052.38,908Zm-6.89-33.07a4.22,4.22,0,0,1-1.17.44,3.93,3.93,0,0,1-4.66-3l-3.45-16.54a3.94,3.94,0,0,1,7.72-1.61l3.44,16.54A3.94,3.94,0,0,1,1045.49,874.94Zm-6.89-33.08a3.93,3.93,0,0,1-5.83-2.61l-3.45-16.54a3.94,3.94,0,0,1,7.72-1.6l3.44,16.53A3.94,3.94,0,0,1,1038.6,841.86Zm-9.3-32.26a4,4,0,0,1-5.3-1.31,36.43,36.43,0,0,0-10.58-10.8,3.94,3.94,0,1,1,4.35-6.57,43.49,43.49,0,0,1,12.89,13.16,3.94,3.94,0,0,1-1.23,5.43ZM1002,791.51a3.89,3.89,0,0,1-2.59.48,36.17,36.17,0,0,0-6.9-.45l-9.21.29A3.94,3.94,0,1,1,983,784l9.22-.29a44.38,44.38,0,0,1,8.39.55,3.93,3.93,0,0,1,1.34,7.3Zm-33.74.33a4,4,0,0,1-1.85.52l-16.88.53a3.94,3.94,0,1,1-.25-7.88l16.89-.53a3.95,3.95,0,0,1,2.09,7.36Zm-33.77,1a3.87,3.87,0,0,1-1.85.53l-16.88.53a3.94,3.94,0,0,1-.25-7.88l16.89-.53a3.94,3.94,0,0,1,2.09,7.35ZM900.67,794a4,4,0,0,1-1.85.52l-16.88.53a3.94,3.94,0,0,1-.25-7.88l16.89-.53a3.95,3.95,0,0,1,2.09,7.36ZM866.9,795a4,4,0,0,1-1.85.52l-16.88.53a3.94,3.94,0,0,1-.25-7.88l16.89-.53A3.95,3.95,0,0,1,866.9,795Zm-33.77,1a3.87,3.87,0,0,1-1.85.53l-16.88.53a3.94,3.94,0,0,1-.25-7.88l16.89-.53a3.94,3.94,0,0,1,2.09,7.35Zm-33.77,1.06a3.94,3.94,0,0,1-1.85.52l-16.88.53a3.94,3.94,0,0,1-.25-7.88l16.89-.53a3.95,3.95,0,0,1,2.09,7.36Zm-33.77,1.06a3.94,3.94,0,0,1-1.85.52l-16.88.53a3.94,3.94,0,0,1-.25-7.88l16.89-.53a3.95,3.95,0,0,1,2.09,7.36Zm-33.77,1.05a3.83,3.83,0,0,1-1.84.53l-16.89.53a3.94,3.94,0,0,1-.25-7.88l16.89-.53a3.94,3.94,0,0,1,2.09,7.35Zm-33.77,1.06a3.93,3.93,0,0,1-1.84.52l-16.89.53a3.94,3.94,0,1,1-.24-7.88l16.88-.53a3.95,3.95,0,0,1,2.09,7.36Z"/><path d="M781.74,345.35A102.16,102.16,0,0,0,765,320.42,89.91,89.91,0,0,0,741.32,302a109.91,109.91,0,0,0-28.69-10.37,197.65,197.65,0,0,0-30.88-3.89c-21-.92-42.18-1.72-63.27-2.44-10.55-.35-21.11-.68-31.66-.93q-7.92-.19-15.83-.3c-2.64,0-5.28-.07-7.92,0l-4,0-4,.15,3.94-.32,4-.21c2.64-.15,5.28-.21,7.92-.31q7.92-.25,15.84-.41,15.84-.32,31.69-.47c21.14-.23,42.22-.36,63.41-.38A205.48,205.48,0,0,1,714,284.73a117.59,117.59,0,0,1,31.16,9.75,99.06,99.06,0,0,1,27,19.09,113,113,0,0,1,19.65,26.67,5.63,5.63,0,0,1-9.9,5.37,1.24,1.24,0,0,1-.1-.2Z"/><path d="M594.17,283.7c-.25,2.55-.52,5.09-.73,7.63s-.48,5.08-.69,7.61c-.39,5.08-.82,10.14-1.15,15.2-.7,10.12-1.24,20.22-1.54,30.3s-.4,20.16-.21,30.2.6,20.06,1.49,30a304.56,304.56,0,0,0,10.26,58.85,211.12,211.12,0,0,0,10.26,28.11c1,2.31,2.2,4.49,3.29,6.77.56,1.12,1.07,2.29,1.69,3.38l1.86,3.29c2.36,4.49,5.26,8.63,8,13-1.84-1.77-3.63-3.61-5.46-5.43a35.11,35.11,0,0,1-2.6-2.86l-2.48-3-2.47-3c-.81-1-1.51-2.1-2.27-3.14l-2.23-3.19c-.72-1.08-1.52-2.11-2.16-3.24a160.13,160.13,0,0,1-13.79-27.94c-7.35-19.5-11.4-40.11-13.08-60.73-.45-5.16-.68-10.33-.89-15.49s-.2-10.33,0-15.49q.33-15.47,2.07-30.82c1.17-10.22,2.78-20.37,4.89-30.42,1.06-5,2.21-10,3.54-15S592.44,288.53,594.17,283.7Z"/><path d="M561.64,494.73l51.51,4.85L561.81,506a5.66,5.66,0,0,1-1.4-11.24A6.32,6.32,0,0,1,561.64,494.73Z"/><path d="M496.47,1437.62l25.94,33.67a5.68,5.68,0,0,1-9,6.94,5.91,5.91,0,0,1-.75-1.31Z"/><path d="M546.14,1415.13l25.65,33.17a5.68,5.68,0,1,1-9.76,5.63Z"/><path d="M596.57,1391.39l25.36,32.67a5.68,5.68,0,0,1-9,7,5.81,5.81,0,0,1-.77-1.34Z"/><path d="M646.52,1367.06l25.05,32.13a5.69,5.69,0,0,1-9,7,6.2,6.2,0,0,1-.78-1.36Z"/><path d="M696.4,1342l24.78,31.66a5.68,5.68,0,1,1-8.95,7,5.33,5.33,0,0,1-.8-1.38Z"/><path d="M748.36,1315.22l24.5,31.17a5.69,5.69,0,1,1-9,7,6,6,0,0,1-.81-1.4Z"/><path d="M806.41,1284.46l24.22,30.7a5.69,5.69,0,0,1-8.93,7,5.81,5.81,0,0,1-.82-1.42Z"/><path d="M863,1253.7,887,1284a5.69,5.69,0,0,1-8.92,7.07,5.79,5.79,0,0,1-.83-1.44Z"/><path d="M917.58,1223.41l23.77,29.91a5.69,5.69,0,1,1-8.91,7.08,5.88,5.88,0,0,1-.84-1.45Z"/><path d="M972.65,1192.21l23.51,29.46a5.7,5.7,0,1,1-8.9,7.11,5.79,5.79,0,0,1-.85-1.48Z"/><path d="M1034.38,1156.51l23.41,29.28a5.7,5.7,0,1,1-8.9,7.11,5.63,5.63,0,0,1-.85-1.48Z"/><path d="M1087.1,1126.19,1110,1154.6a5.7,5.7,0,0,1-8.88,7.15,6,6,0,0,1-.88-1.52Z"/><path d="M1139.74,1093.92l23,28.56a5.7,5.7,0,1,1-8.88,7.14,6.08,6.08,0,0,1-.88-1.51Z"/><path d="M1191.93,1062.16l22.69,28a5.7,5.7,0,1,1-8.87,7.17,5.82,5.82,0,0,1-.89-1.54Z"/><path d="M1244.87,1029.41l22.31,27.37a5.71,5.71,0,0,1-8.85,7.21,6.11,6.11,0,0,1-.91-1.58Z"/><path d="M1297.84,996.09l21.81,26.52a5.7,5.7,0,0,1-8.81,7.25,5.9,5.9,0,0,1-.94-1.62Z"/><path d="M1349.92,962.72l21.22,25.49a5.71,5.71,0,1,1-9.76,5.63Z"/><path d="M1401.18,928.9l20.63,24.48a5.72,5.72,0,1,1-8.74,7.37,5.57,5.57,0,0,1-1-1.74Z"/><path d="M1479.51,873.55l20.28,23.87a5.72,5.72,0,1,1-8.72,7.41,5.94,5.94,0,0,1-1-1.78Z"/><path d="M1514.77,848.43,1533,868.75a5.75,5.75,0,1,1-9.75,5.63Z"/><path d="M1542.08,823.25l21,25.18a5.71,5.71,0,1,1-8.77,7.33,6,6,0,0,1-1-1.7Z"/><path d="M504.26,1451.94a3.37,3.37,0,0,1-4.46-1.72h0a3.37,3.37,0,0,1,1.72-4.45h0a3.39,3.39,0,0,1,4.47,1.71h0a3.39,3.39,0,0,1-1.4,4.29h0A1.73,1.73,0,0,1,504.26,1451.94ZM495,1456a3.38,3.38,0,0,1-4.46-1.73h0a3.36,3.36,0,0,1,1.74-4.44h0a3.37,3.37,0,0,1,4.46,1.73h0a3.39,3.39,0,0,1-1.41,4.28h0A3.36,3.36,0,0,1,495,1456Zm-9.31,4.06h0a3.37,3.37,0,0,1-4.44-1.75h0a3.39,3.39,0,0,1,1.76-4.45h0a3.38,3.38,0,0,1,4.44,1.77h0a3.37,3.37,0,0,1-1.41,4.26h0A2.26,2.26,0,0,1,485.67,1460.09Zm-9.33,4h0a3.39,3.39,0,0,1-4.43-1.8h0a3.38,3.38,0,0,1,1.78-4.43h0a3.38,3.38,0,0,1,4.43,1.79h0a3.39,3.39,0,0,1-1.41,4.25h0Zm-9.36,3.94a3.39,3.39,0,0,1-4.42-1.82h0a3.38,3.38,0,0,1,1.8-4.42h0a3.4,3.4,0,0,1,4.43,1.82h0a3.39,3.39,0,0,1-1.43,4.23h0C467.24,1467.93,467.11,1468,467,1468.05Zm-9.39,3.89h0a3.39,3.39,0,0,1-4.42-1.85h0a3.4,3.4,0,0,1,1.85-4.41h0a3.38,3.38,0,0,1,4.41,1.84h0a3.38,3.38,0,0,1-1.43,4.21h0C457.87,1471.8,457.73,1471.88,457.59,1471.94Zm-9.41,3.82h0a3.38,3.38,0,0,1-4.4-1.87h0a3.38,3.38,0,0,1,1.87-4.4h0a3.39,3.39,0,0,1,4.4,1.88h0a3.36,3.36,0,0,1-1.44,4.18h0A3.42,3.42,0,0,1,448.18,1475.76Zm-9.43,3.77a3.37,3.37,0,0,1-4.38-1.9h0a3.36,3.36,0,0,1,1.89-4.38h0a3.38,3.38,0,0,1,4.38,1.89h0a3.38,3.38,0,0,1-1.44,4.18h0A2.62,2.62,0,0,1,438.75,1479.53Zm-9.45,3.71a3.39,3.39,0,0,1-4.38-1.93h0a3.36,3.36,0,0,1,1.92-4.36h0a3.38,3.38,0,0,1,4.38,1.92h0a3.37,3.37,0,0,1-1.46,4.14h0A3.29,3.29,0,0,1,429.3,1483.24Zm-9.48,3.65a3.39,3.39,0,0,1-4.37-2h0a3.37,3.37,0,0,1,1.95-4.36h0a3.37,3.37,0,0,1,4.37,2h0a3.39,3.39,0,0,1-1.46,4.13h0A5.4,5.4,0,0,1,419.82,1486.89Zm-9.51,3.59a3.38,3.38,0,0,1-4.35-2h0a3.39,3.39,0,0,1,2-4.36h0a3.38,3.38,0,0,1,4.34,2h0a3.39,3.39,0,0,1-1.47,4.11h0A3,3,0,0,1,410.31,1490.48Zm-9.53,3.54a3.38,3.38,0,0,1-4.33-2h0a3.39,3.39,0,0,1,2-4.34h0a3.37,3.37,0,0,1,4.33,2h0a3.38,3.38,0,0,1-1.48,4.09h0A3.26,3.26,0,0,1,400.78,1494Zm-9.54,3.47a3.39,3.39,0,0,1-4.33-2h0a3.36,3.36,0,0,1,2-4.31h0a3.36,3.36,0,0,1,4.32,2h0a3.37,3.37,0,0,1-1.48,4.06h0A2.77,2.77,0,0,1,391.24,1497.49Zm-9.56,3.41a3.39,3.39,0,0,1-4.32-2.06h0a3.37,3.37,0,0,1,2.07-4.31h0a3.39,3.39,0,0,1,4.31,2.06h0a3.37,3.37,0,0,1-1.49,4.06h0A3.2,3.2,0,0,1,381.68,1500.9Zm-9.59,3.35a3.39,3.39,0,0,1-4.31-2.09h0a3.38,3.38,0,0,1,2.09-4.29h0a3.39,3.39,0,0,1,4.3,2.1h0a3.36,3.36,0,0,1-1.5,4h0A3.06,3.06,0,0,1,372.09,1504.25Zm-9.61,3.29a3.37,3.37,0,0,1-4.29-2.11h0a3.37,3.37,0,0,1,2.12-4.28h0a3.39,3.39,0,0,1,4.29,2.11h0a3.41,3.41,0,0,1-1.51,4h0A3.66,3.66,0,0,1,362.48,1507.54Zm-9.63,3.23a3.38,3.38,0,0,1-4.28-2.13h0a3.39,3.39,0,0,1,2.15-4.28h0a3.39,3.39,0,0,1,4.27,2.15h0a3.38,3.38,0,0,1-1.52,4h0A2.88,2.88,0,0,1,352.85,1510.77Zm-9.66,3.17a3.36,3.36,0,0,1-4.25-2.16h0a3.39,3.39,0,0,1,2.17-4.27h0a3.4,3.4,0,0,1,4.26,2.17h0a3.4,3.4,0,0,1-1.53,4h0A3.18,3.18,0,0,1,343.19,1513.94Zm-9.67,3.11a3.36,3.36,0,0,1-4.24-2.19h0a3.38,3.38,0,0,1,2.19-4.24h0a3.37,3.37,0,0,1,4.24,2.19h0a3.36,3.36,0,0,1-1.52,4h0A3.08,3.08,0,0,1,333.52,1517.05Zm-9.68,3.06a3.37,3.37,0,0,1-4.23-2.23h0a3.37,3.37,0,0,1,2.22-4.23h0a3.37,3.37,0,0,1,4.22,2.23h0a3.35,3.35,0,0,1-1.53,3.92h0A3.22,3.22,0,0,1,323.84,1520.11Zm-9.72,3a3.36,3.36,0,0,1-4.21-2.25h0a3.38,3.38,0,0,1,2.25-4.21h0a3.37,3.37,0,0,1,4.21,2.25h0a3.36,3.36,0,0,1-1.54,3.91h0A3.22,3.22,0,0,1,314.12,1523.09ZM304.4,1526a3.41,3.41,0,0,1-4.21-2.28h0a3.4,3.4,0,0,1,2.28-4.21h0a3.38,3.38,0,0,1,4.2,2.27h0a3.37,3.37,0,0,1-1.55,3.9h0A3.93,3.93,0,0,1,304.4,1526Zm-9.75,2.85a3.38,3.38,0,0,1-4.19-2.3h0a3.39,3.39,0,0,1,2.31-4.19h0a3.4,3.4,0,0,1,4.19,2.3h0a3.4,3.4,0,0,1-1.55,3.87h0A3,3,0,0,1,294.65,1528.88Zm-9.77,2.81a3.37,3.37,0,0,1-4.16-2.33h0a3.37,3.37,0,0,1,2.32-4.17h0a3.39,3.39,0,0,1,4.18,2.33h0a3.4,3.4,0,0,1-1.56,3.84h0A3.39,3.39,0,0,1,284.88,1531.69Zm-9.77,2.73a3.37,3.37,0,0,1-4.16-2.36h0a3.36,3.36,0,0,1,2.35-4.14h0a3.37,3.37,0,0,1,4.16,2.35h0a3.4,3.4,0,0,1-1.57,3.83h0A3,3,0,0,1,275.11,1534.42Zm-9.81,2.68h0a3.37,3.37,0,0,1-4.13-2.38h0a3.39,3.39,0,0,1,2.38-4.15h0a3.37,3.37,0,0,1,4.13,2.39h0a3.37,3.37,0,0,1-1.57,3.81h0A2.93,2.93,0,0,1,265.3,1537.1Zm-9.82,2.62a3.39,3.39,0,0,1-4.12-2.42h0a3.39,3.39,0,0,1,2.41-4.13h0a3.4,3.4,0,0,1,4.13,2.42h0a3.37,3.37,0,0,1-1.58,3.77h0A3.73,3.73,0,0,1,255.48,1539.72Zm-9.83,2.54a3.38,3.38,0,0,1-4.11-2.44h0a3.37,3.37,0,0,1,2.44-4.11h0a3.37,3.37,0,0,1,4.11,2.44h0a3.37,3.37,0,0,1-1.59,3.76h0A4,4,0,0,1,245.65,1542.26Zm-9.85,2.48a3.38,3.38,0,0,1-4.09-2.47h0a3.37,3.37,0,0,1,2.46-4.09h0a3.4,3.4,0,0,1,4.1,2.46h0a3.41,3.41,0,0,1-1.6,3.75h0A3.52,3.52,0,0,1,235.8,1544.74Zm-9.87,2.42h0a3.39,3.39,0,0,1-4.08-2.5h0a3.38,3.38,0,0,1,2.49-4.08h0a3.38,3.38,0,0,1,4.08,2.49h0a3.38,3.38,0,0,1-1.59,3.72h0A3.56,3.56,0,0,1,225.93,1547.16Zm-9.89,2.33a3.35,3.35,0,0,1-4-2.52h0a3.37,3.37,0,0,1,2.51-4h0a3.4,3.4,0,0,1,4.07,2.52h0a3.37,3.37,0,0,1-1.6,3.69h0A3.27,3.27,0,0,1,216,1549.49Zm-9.9,2.29a3.36,3.36,0,0,1-4-2.55h0a3.37,3.37,0,0,1,2.54-4h0a3.36,3.36,0,0,1,4,2.55h0a3.35,3.35,0,0,1-1.59,3.67h0A3.42,3.42,0,0,1,206.14,1551.78Zm-9.92,2.21a3.37,3.37,0,0,1-4-2.57h0a3.39,3.39,0,0,1,2.58-4h0a3.37,3.37,0,0,1,4,2.58h0a3.37,3.37,0,0,1-1.61,3.65h0A3.31,3.31,0,0,1,196.22,1554Zm-9.93,2.14a3.39,3.39,0,0,1-4-2.61h0a3.39,3.39,0,0,1,2.61-4h0a3.37,3.37,0,0,1,4,2.6h0a3.37,3.37,0,0,1-1.62,3.63h0A3.7,3.7,0,0,1,186.29,1556.13Zm-9.94,2.07a3.38,3.38,0,0,1-4-2.64h0a3.35,3.35,0,0,1,2.63-4h0a3.38,3.38,0,0,1,4,2.63h0a3.37,3.37,0,0,1-1.62,3.6h0A3.53,3.53,0,0,1,176.35,1558.2Zm-10,2a3.37,3.37,0,0,1-4-2.66h0a3.4,3.4,0,0,1,2.67-4h0a3.4,3.4,0,0,1,4,2.67h0a3.4,3.4,0,0,1-1.63,3.58h0A3.23,3.23,0,0,1,166.38,1560.19Zm-10,1.93a3.39,3.39,0,0,1-4-2.7h0a3.37,3.37,0,0,1,2.7-3.93h0a3.36,3.36,0,0,1,3.94,2.69h0a3.39,3.39,0,0,1-1.63,3.55h0A3.36,3.36,0,0,1,156.4,1562.12Zm-10,1.85a3.39,3.39,0,0,1-3.93-2.73h0a3.39,3.39,0,0,1,2.73-3.93h0a3.38,3.38,0,0,1,3.93,2.73h0a3.37,3.37,0,0,1-1.63,3.53h0A3.61,3.61,0,0,1,146.4,1564Zm-10,1.77a3.39,3.39,0,0,1-3.91-2.76h0a3.39,3.39,0,0,1,2.75-3.91h0a3.38,3.38,0,0,1,3.91,2.76h0a3.38,3.38,0,0,1-1.64,3.5h0A3.52,3.52,0,0,1,136.4,1565.74Zm-10,1.68h0a3.36,3.36,0,0,1-3.88-2.78h0a3.36,3.36,0,0,1,2.77-3.88h0a3.36,3.36,0,0,1,3.88,2.77h0a3.37,3.37,0,0,1-1.64,3.49h0A3.36,3.36,0,0,1,126.37,1567.42Zm-10,1.61a3.38,3.38,0,0,1-3.85-2.82h0a3.37,3.37,0,0,1,2.82-3.86h0a3.38,3.38,0,0,1,3.85,2.82h0a3.38,3.38,0,0,1-1.65,3.44h0A3.27,3.27,0,0,1,116.33,1569Zm-10,1.51a3.37,3.37,0,0,1-3.83-2.85h0a3.37,3.37,0,0,1,2.85-3.83h0a3.37,3.37,0,0,1,3.83,2.85h0a3.37,3.37,0,0,1-1.65,3.42h0A3.16,3.16,0,0,1,106.28,1570.54ZM96.21,1572a3.38,3.38,0,0,1-3.8-2.9h0a3.36,3.36,0,0,1,2.89-3.8h0a3.38,3.38,0,0,1,3.8,2.89h0a3.4,3.4,0,0,1-1.66,3.39h0A3.39,3.39,0,0,1,96.21,1572Zm-10.08,1.34a3.4,3.4,0,0,1-3.78-2.93h0a3.38,3.38,0,0,1,2.92-3.78h0a3.37,3.37,0,0,1,3.78,2.92h0a3.38,3.38,0,0,1-1.66,3.36h0A3.37,3.37,0,0,1,86.13,1573.32ZM76,1574.55a3.39,3.39,0,0,1-3.76-3h0a3.37,3.37,0,0,1,3-3.74h0a3.35,3.35,0,0,1,3.75,3h0a3.39,3.39,0,0,1-1.66,3.32h0A3.51,3.51,0,0,1,76,1574.55Zm-10.12,1.14h0a3.39,3.39,0,0,1-3.72-3h0a3.4,3.4,0,0,1,3-3.72h0a3.37,3.37,0,0,1,3.72,3h0a3.41,3.41,0,0,1-1.68,3.29h0A3.42,3.42,0,0,1,65.92,1575.69Zm-10.12,1a3.38,3.38,0,0,1-3.68-3h0a3.36,3.36,0,0,1,3-3.68h0a3.36,3.36,0,0,1,3.67,3h0a3.37,3.37,0,0,1-1.66,3.25h0A3.68,3.68,0,0,1,55.8,1576.72Zm-10.14.9a3.36,3.36,0,0,1-3.64-3.09h0a3.36,3.36,0,0,1,3.08-3.64h0a3.36,3.36,0,0,1,3.64,3.09h0a3.36,3.36,0,0,1-1.67,3.2h0A3.38,3.38,0,0,1,45.66,1577.62Zm-10.15.78a3.37,3.37,0,0,1-3.6-3.13h0a3.37,3.37,0,0,1,3.13-3.61h0a3.38,3.38,0,0,1,3.6,3.13h0A3.38,3.38,0,0,1,37,1578h0A3.37,3.37,0,0,1,35.51,1578.4Z"/><path d="M510.65,1462.89a3.37,3.37,0,0,1-4.46-1.72h0a3.38,3.38,0,0,1,1.72-4.46h0a3.37,3.37,0,0,1,4.46,1.72h0a3.38,3.38,0,0,1-1.39,4.29h0Zm-9.29,4.1h0a3.39,3.39,0,0,1-4.46-1.73h0a3.39,3.39,0,0,1,1.73-4.46h0a3.4,3.4,0,0,1,4.46,1.73h0a3.38,3.38,0,0,1-1.4,4.29h0A2.69,2.69,0,0,1,501.36,1467Zm-9.31,4.06h0a3.39,3.39,0,0,1-4.44-1.76h0a3.38,3.38,0,0,1,1.77-4.44h0a3.36,3.36,0,0,1,4.43,1.75h0a3.39,3.39,0,0,1-1.4,4.28h0A3,3,0,0,1,492.05,1471.05Zm-9.33,4a3.39,3.39,0,0,1-4.44-1.78h0a3.41,3.41,0,0,1,1.8-4.44h0a3.38,3.38,0,0,1,4.43,1.79h0a3.37,3.37,0,0,1-1.42,4.24h0Zm-9.36,4h0a3.39,3.39,0,0,1-4.42-1.82h0a3.37,3.37,0,0,1,1.82-4.42h0a3.36,3.36,0,0,1,4.41,1.81h0a3.37,3.37,0,0,1-1.42,4.23h0Zm-9.38,3.88a3.38,3.38,0,0,1-4.41-1.85h0a3.37,3.37,0,0,1,1.84-4.4h0a3.38,3.38,0,0,1,4.41,1.85h0a3.37,3.37,0,0,1-1.44,4.2h0A1.87,1.87,0,0,1,464,1482.88Zm-9.42,3.83a3.39,3.39,0,0,1-4.4-1.88h0a3.38,3.38,0,0,1,1.87-4.39h0a3.37,3.37,0,0,1,4.4,1.87h0a3.37,3.37,0,0,1-1.43,4.18h0Zm-9.43,3.76a3.38,3.38,0,0,1-4.38-1.9h0a3.36,3.36,0,0,1,1.89-4.37h0a3.37,3.37,0,0,1,4.39,1.89h0a3.38,3.38,0,0,1-1.45,4.16h0A2.67,2.67,0,0,1,445.13,1490.47Zm-9.46,3.71a3.37,3.37,0,0,1-4.37-1.93h0a3.37,3.37,0,0,1,1.92-4.37h0a3.39,3.39,0,0,1,4.38,1.93h0a3.38,3.38,0,0,1-1.46,4.15h0A2.92,2.92,0,0,1,435.67,1494.18Zm-9.47,3.65h0a3.38,3.38,0,0,1-4.37-2h0a3.37,3.37,0,0,1,2-4.35h0a3.39,3.39,0,0,1,4.36,2h0a3.39,3.39,0,0,1-1.46,4.13h0A3.12,3.12,0,0,1,426.2,1497.83Zm-9.51,3.59h0a3.38,3.38,0,0,1-4.35-2h0a3.38,3.38,0,0,1,2-4.36h0a3.39,3.39,0,0,1,4.34,2h0a3.38,3.38,0,0,1-1.48,4.11h0A3.31,3.31,0,0,1,416.69,1501.42Zm-9.52,3.53h0a3.38,3.38,0,0,1-4.34-2h0a3.37,3.37,0,0,1,2-4.33h0a3.39,3.39,0,0,1,4.34,2h0a3.38,3.38,0,0,1-1.49,4.09h0A3.11,3.11,0,0,1,407.17,1505Zm-9.55,3.47a3.38,3.38,0,0,1-4.32-2h0a3.38,3.38,0,0,1,2-4.33h0a3.39,3.39,0,0,1,4.33,2h0a3.38,3.38,0,0,1-1.49,4.06h0A3.94,3.94,0,0,1,397.62,1508.42Zm-9.57,3.41a3.38,3.38,0,0,1-4.31-2.06h0a3.37,3.37,0,0,1,2.06-4.31h0a3.37,3.37,0,0,1,4.31,2.06h0a3.38,3.38,0,0,1-1.5,4h0A2.89,2.89,0,0,1,388.05,1511.83Zm-9.59,3.35h0a3.39,3.39,0,0,1-4.3-2.08h0a3.4,3.4,0,0,1,2.1-4.31h0a3.38,3.38,0,0,1,4.29,2.09h0a3.39,3.39,0,0,1-1.5,4h0A3.51,3.51,0,0,1,378.46,1515.18Zm-9.6,3.3a3.38,3.38,0,0,1-4.28-2.12h0a3.37,3.37,0,0,1,2.1-4.29h0a3.39,3.39,0,0,1,4.29,2.12h0a3.39,3.39,0,0,1-1.51,4h0A6.63,6.63,0,0,1,368.86,1518.48Zm-9.64,3.22a3.38,3.38,0,0,1-4.27-2.14h0a3.37,3.37,0,0,1,2.14-4.27h0a3.37,3.37,0,0,1,4.27,2.14h0a3.37,3.37,0,0,1-1.51,4h0A3.26,3.26,0,0,1,359.22,1521.7Zm-9.65,3.17a3.37,3.37,0,0,1-4.26-2.17h0a3.37,3.37,0,0,1,2.18-4.25h0a3.37,3.37,0,0,1,4.25,2.16h0a3.39,3.39,0,0,1-1.52,4h0A2.93,2.93,0,0,1,349.57,1524.87Zm-9.67,3.1a3.37,3.37,0,0,1-4.24-2.19h0a3.36,3.36,0,0,1,2.19-4.24h0a3.39,3.39,0,0,1,4.25,2.19h0a3.39,3.39,0,0,1-1.53,4h0A3.08,3.08,0,0,1,339.9,1528Zm-9.69,3h0a3.38,3.38,0,0,1-4.23-2.21h0a3.38,3.38,0,0,1,2.22-4.24h0a3.39,3.39,0,0,1,4.24,2.23h0a3.4,3.4,0,0,1-1.54,3.93h0A3.48,3.48,0,0,1,330.21,1531Zm-9.71,3h0a3.37,3.37,0,0,1-4.21-2.25h0a3.38,3.38,0,0,1,2.25-4.22h0a3.38,3.38,0,0,1,4.21,2.26h0a3.38,3.38,0,0,1-1.54,3.91h0A3.22,3.22,0,0,1,320.5,1534Zm-9.73,2.93a3.39,3.39,0,0,1-4.2-2.28h0a3.39,3.39,0,0,1,2.28-4.21h0a3.38,3.38,0,0,1,4.19,2.29h0a3.38,3.38,0,0,1-1.54,3.88h0A3,3,0,0,1,310.77,1536.94ZM301,1539.8a3.37,3.37,0,0,1-4.18-2.31h0a3.36,3.36,0,0,1,2.31-4.18h0a3.37,3.37,0,0,1,4.18,2.31h0a3.38,3.38,0,0,1-1.56,3.86h0A3.14,3.14,0,0,1,301,1539.8Zm-9.76,2.8a3.37,3.37,0,0,1-4.17-2.33h0a3.38,3.38,0,0,1,2.33-4.17h0a3.37,3.37,0,0,1,4.17,2.33h0a3.37,3.37,0,0,1-1.56,3.84h0A3.31,3.31,0,0,1,291.26,1542.6Zm-9.79,2.74a3.38,3.38,0,0,1-4.15-2.36h0a3.38,3.38,0,0,1,2.35-4.16h0a3.38,3.38,0,0,1,4.16,2.36h0a3.39,3.39,0,0,1-1.56,3.83h0A3.36,3.36,0,0,1,281.47,1545.34Zm-9.8,2.66a3.38,3.38,0,0,1-4.14-2.38h0a3.37,3.37,0,0,1,2.39-4.13h0a3.36,3.36,0,0,1,4.14,2.38h0a3.4,3.4,0,0,1-1.57,3.81h0A3.5,3.5,0,0,1,271.67,1548Zm-9.81,2.62a3.37,3.37,0,0,1-4.12-2.41h0a3.37,3.37,0,0,1,2.4-4.13h0a3.39,3.39,0,0,1,4.13,2.41h0a3.41,3.41,0,0,1-1.58,3.79h0A4.38,4.38,0,0,1,261.86,1550.62Zm-9.84,2.54a3.38,3.38,0,0,1-4.11-2.44h0a3.39,3.39,0,0,1,2.44-4.11h0a3.38,3.38,0,0,1,4.11,2.44h0a3.38,3.38,0,0,1-1.58,3.76h0A3.61,3.61,0,0,1,252,1553.16Zm-9.85,2.48a3.38,3.38,0,0,1-4.09-2.47h0a3.37,3.37,0,0,1,2.46-4.09h0a3.39,3.39,0,0,1,4.09,2.47h0a3.37,3.37,0,0,1-1.59,3.74h0A3.52,3.52,0,0,1,242.17,1555.64Zm-9.87,2.42a3.4,3.4,0,0,1-4.08-2.5h0a3.38,3.38,0,0,1,2.5-4.08h0a3.38,3.38,0,0,1,4.08,2.5h0a3.38,3.38,0,0,1-1.6,3.71h0A3.56,3.56,0,0,1,232.3,1558.06Zm-9.88,2.33a3.36,3.36,0,0,1-4.06-2.52h0a3.36,3.36,0,0,1,2.52-4h0a3.38,3.38,0,0,1,4.06,2.52h0a3.38,3.38,0,0,1-1.6,3.69h0A3.33,3.33,0,0,1,222.42,1560.39Zm-9.91,2.29a3.39,3.39,0,0,1-4-2.56h0a3.37,3.37,0,0,1,2.55-4h0a3.37,3.37,0,0,1,4,2.54h0a3.37,3.37,0,0,1-1.61,3.67h0A3.14,3.14,0,0,1,212.51,1562.68Zm-9.92,2.2h0a3.38,3.38,0,0,1-4-2.58h0a3.39,3.39,0,0,1,2.58-4h0a3.37,3.37,0,0,1,4,2.58h0a3.39,3.39,0,0,1-1.61,3.65h0A3.15,3.15,0,0,1,202.59,1564.88Zm-9.92,2.14a3.39,3.39,0,0,1-4-2.61h0a3.39,3.39,0,0,1,2.62-4h0a3.38,3.38,0,0,1,4,2.6h0a3.39,3.39,0,0,1-1.62,3.63h0A3.33,3.33,0,0,1,192.67,1567Zm-10,2.07a3.39,3.39,0,0,1-4-2.64h0a3.37,3.37,0,0,1,2.64-4h0a3.36,3.36,0,0,1,4,2.63h0a3.38,3.38,0,0,1-1.61,3.6h0A3.71,3.71,0,0,1,182.71,1569.09Zm-10,2h0a3.39,3.39,0,0,1-4-2.67h0a3.38,3.38,0,0,1,2.66-4h0a3.39,3.39,0,0,1,4,2.67h0a3.38,3.38,0,0,1-1.63,3.58h0A3.54,3.54,0,0,1,172.75,1571.09Zm-10,1.91a3.38,3.38,0,0,1-3.94-2.69h0a3.37,3.37,0,0,1,2.7-4h0a3.4,3.4,0,0,1,3.95,2.7h0a3.41,3.41,0,0,1-1.65,3.55h0A3.13,3.13,0,0,1,162.76,1573Zm-10,1.84a3.36,3.36,0,0,1-3.92-2.71h0a3.38,3.38,0,0,1,2.73-3.93h0a3.38,3.38,0,0,1,3.92,2.72h0a3.39,3.39,0,0,1-1.64,3.53h0A3.3,3.3,0,0,1,152.77,1574.84Zm-10,1.77h0a3.38,3.38,0,0,1-3.91-2.75h0a3.37,3.37,0,0,1,2.75-3.9h0a3.37,3.37,0,0,1,3.91,2.75h0a3.4,3.4,0,0,1-1.65,3.5h0A3.37,3.37,0,0,1,142.77,1576.61Zm-10,1.69a3.4,3.4,0,0,1-3.89-2.78h0a3.41,3.41,0,0,1,2.79-3.89h0a3.39,3.39,0,0,1,3.89,2.79h0a3.38,3.38,0,0,1-1.65,3.47h0A3.3,3.3,0,0,1,132.74,1578.3Zm-10,1.6h0a3.37,3.37,0,0,1-3.85-2.82h0a3.38,3.38,0,0,1,2.81-3.86h0a3.39,3.39,0,0,1,3.86,2.82h0a3.39,3.39,0,0,1-1.65,3.45h0A3.4,3.4,0,0,1,122.7,1579.9Zm-10,1.51a3.38,3.38,0,0,1-3.85-2.85h0a3.4,3.4,0,0,1,2.86-3.83h0a3.39,3.39,0,0,1,3.84,2.85h0a3.4,3.4,0,0,1-1.66,3.42h0A3.07,3.07,0,0,1,112.65,1581.41Zm-10.07,1.44a3.38,3.38,0,0,1-3.81-2.89h0a3.39,3.39,0,0,1,2.89-3.82h0a3.38,3.38,0,0,1,3.8,2.89h0a3.36,3.36,0,0,1-1.66,3.39h0A3.42,3.42,0,0,1,102.58,1582.85Zm-10.08,1.33h0a3.38,3.38,0,0,1-3.77-2.93h0a3.37,3.37,0,0,1,2.91-3.78h0a3.4,3.4,0,0,1,3.79,2.93h0a3.38,3.38,0,0,1-1.67,3.35h0A3.32,3.32,0,0,1,92.5,1584.18Zm-10.1,1.24a3.41,3.41,0,0,1-3.76-3h0a3.37,3.37,0,0,1,3-3.74h0a3.36,3.36,0,0,1,3.75,3h0A3.36,3.36,0,0,1,83.7,1585h0A3.46,3.46,0,0,1,82.4,1585.42Zm-10.11,1.13h0a3.38,3.38,0,0,1-3.72-3h0a3.37,3.37,0,0,1,3-3.72h0a3.39,3.39,0,0,1,3.72,3h0a3.38,3.38,0,0,1-1.67,3.29h0A3.53,3.53,0,0,1,72.29,1586.55Zm-10.13,1a3.39,3.39,0,0,1-3.69-3h0a3.39,3.39,0,0,1,3.05-3.68h0a3.39,3.39,0,0,1,3.69,3.05h0a3.39,3.39,0,0,1-1.68,3.24h0A3.35,3.35,0,0,1,62.16,1587.57Zm-10.14.91h0a3.38,3.38,0,0,1-3.65-3.08h0a3.39,3.39,0,0,1,3.1-3.65h0a3.38,3.38,0,0,1,3.64,3.09h0a3.37,3.37,0,0,1-1.68,3.21h0A3.48,3.48,0,0,1,52,1588.48Z"/><path d="M516.49,1473.12a3.38,3.38,0,0,1-4.46-1.73h0a3.37,3.37,0,0,1,1.72-4.45h0a3.38,3.38,0,0,1,4.45,1.72h0a3.37,3.37,0,0,1-1.39,4.29h0Zm-9.28,4.09a3.39,3.39,0,0,1-4.46-1.72h0a3.4,3.4,0,0,1,1.73-4.46h0a3.39,3.39,0,0,1,4.46,1.73h0a3.37,3.37,0,0,1-1.4,4.28h0A2.59,2.59,0,0,1,507.21,1477.21Zm-9.31,4.07h0a3.38,3.38,0,0,1-4.44-1.75h0a3.38,3.38,0,0,1,1.75-4.45h0a3.39,3.39,0,0,1,4.45,1.75h0a3.4,3.4,0,0,1-1.41,4.28h0Zm-9.33,4a3.39,3.39,0,0,1-4.43-1.79h0a3.37,3.37,0,0,1,1.77-4.43h0a3.39,3.39,0,0,1,4.44,1.78h0a3.38,3.38,0,0,1-1.42,4.26h0C488.81,1485.17,488.7,1485.24,488.57,1485.29Zm-9.36,4a3.39,3.39,0,0,1-4.43-1.82h0a3.38,3.38,0,0,1,1.82-4.41h0a3.38,3.38,0,0,1,4.43,1.81h0a3.4,3.4,0,0,1-1.43,4.23h0A3.54,3.54,0,0,1,479.21,1489.24Zm-9.38,3.89a3.38,3.38,0,0,1-4.41-1.83h0a3.37,3.37,0,0,1,1.84-4.42h0a3.36,3.36,0,0,1,4.4,1.84h0a3.37,3.37,0,0,1-1.42,4.21h0A2.22,2.22,0,0,1,469.83,1493.13Zm-9.41,3.83a3.38,3.38,0,0,1-4.4-1.87h0a3.37,3.37,0,0,1,1.87-4.39h0a3.38,3.38,0,0,1,4.4,1.87h0a3.39,3.39,0,0,1-1.45,4.19h0A2.33,2.33,0,0,1,460.42,1497Zm-9.44,3.77h0a3.37,3.37,0,0,1-4.38-1.89h0a3.38,3.38,0,0,1,1.9-4.38h0a3.36,3.36,0,0,1,4.38,1.89h0a3.38,3.38,0,0,1-1.45,4.18h0A2.34,2.34,0,0,1,451,1500.73Zm-9.45,3.72h0a3.39,3.39,0,0,1-4.37-1.93h0a3.37,3.37,0,0,1,1.93-4.37h0a3.38,3.38,0,0,1,4.37,1.92h0a3.4,3.4,0,0,1-1.46,4.16h0A2.52,2.52,0,0,1,441.53,1504.45Zm-9.48,3.65h0a3.37,3.37,0,0,1-4.36-2h0a3.38,3.38,0,0,1,1.94-4.36h0a3.38,3.38,0,0,1,4.37,2h0a3.38,3.38,0,0,1-1.47,4.12h0A2.45,2.45,0,0,1,432.05,1508.1Zm-9.5,3.6a3.38,3.38,0,0,1-4.34-2h0a3.38,3.38,0,0,1,2-4.35h0a3.39,3.39,0,0,1,4.36,2h0a3.39,3.39,0,0,1-1.48,4.11h0A3.43,3.43,0,0,1,422.55,1511.7Zm-9.52,3.53a3.35,3.35,0,0,1-4.33-2h0a3.37,3.37,0,0,1,2-4.33h0a3.37,3.37,0,0,1,4.34,2h0a3.39,3.39,0,0,1-1.48,4.1h0A3.54,3.54,0,0,1,413,1515.23Zm-9.54,3.48h0a3.37,3.37,0,0,1-4.32-2h0a3.37,3.37,0,0,1,2-4.33h0a3.38,3.38,0,0,1,4.32,2h0a3.38,3.38,0,0,1-1.48,4.08h0A3.87,3.87,0,0,1,403.49,1518.71Zm-9.56,3.42a3.37,3.37,0,0,1-4.31-2.07h0a3.36,3.36,0,0,1,2.05-4.3h0a3.37,3.37,0,0,1,4.31,2.06h0a3.38,3.38,0,0,1-1.49,4h0A5.69,5.69,0,0,1,393.93,1522.13Zm-9.6,3.35a3.39,3.39,0,0,1-4.3-2.08h0a3.39,3.39,0,0,1,2.1-4.3h0a3.39,3.39,0,0,1,4.3,2.08h0a3.4,3.4,0,0,1-1.51,4h0A2.41,2.41,0,0,1,384.33,1525.48Zm-9.6,3.3a3.38,3.38,0,0,1-4.29-2.11h0a3.39,3.39,0,0,1,2.12-4.28h0a3.37,3.37,0,0,1,4.28,2.1h0a3.4,3.4,0,0,1-1.5,4h0A4.18,4.18,0,0,1,374.73,1528.78ZM365.1,1532h0a3.37,3.37,0,0,1-4.27-2.14h0a3.37,3.37,0,0,1,2.14-4.27h0a3.37,3.37,0,0,1,4.27,2.15h0a3.38,3.38,0,0,1-1.52,4h0A2.92,2.92,0,0,1,365.1,1532Zm-9.65,3.17a3.37,3.37,0,0,1-4.25-2.16h0a3.36,3.36,0,0,1,2.16-4.25h0a3.38,3.38,0,0,1,4.27,2.16h0a3.38,3.38,0,0,1-1.52,4h0A2.93,2.93,0,0,1,355.45,1535.19Zm-9.67,3.12h0a3.4,3.4,0,0,1-4.25-2.2h0a3.38,3.38,0,0,1,2.19-4.24h0a3.39,3.39,0,0,1,4.25,2.19h0a3.36,3.36,0,0,1-1.51,4h0A3.43,3.43,0,0,1,345.78,1538.31Zm-9.68,3a3.37,3.37,0,0,1-4.23-2.22h0a3.37,3.37,0,0,1,2.21-4.23h0a3.37,3.37,0,0,1,4.23,2.22h0a3.37,3.37,0,0,1-1.53,3.93h0A3.19,3.19,0,0,1,336.1,1541.36Zm-9.72,3a3.36,3.36,0,0,1-4.21-2.25h0a3.37,3.37,0,0,1,2.25-4.21h0a3.36,3.36,0,0,1,4.21,2.25h0a3.38,3.38,0,0,1-1.54,3.91h0A3.22,3.22,0,0,1,326.38,1544.35Zm-9.72,2.93h0a3.36,3.36,0,0,1-4.2-2.27h0a3.38,3.38,0,0,1,2.27-4.21h0a3.41,3.41,0,0,1,4.21,2.28h0a3.39,3.39,0,0,1-1.56,3.89h0A2.75,2.75,0,0,1,316.66,1547.28Zm-9.75,2.88h0a3.38,3.38,0,0,1-4.19-2.3h0a3.37,3.37,0,0,1,2.29-4.18h0a3.37,3.37,0,0,1,4.19,2.3h0a3.37,3.37,0,0,1-1.55,3.87h0A3.6,3.6,0,0,1,306.91,1550.16Zm-9.76,2.8a3.38,3.38,0,0,1-4.17-2.33h0a3.39,3.39,0,0,1,2.32-4.18h0a3.41,3.41,0,0,1,4.19,2.34h0a3.39,3.39,0,0,1-1.57,3.84h0A3.57,3.57,0,0,1,297.15,1553Zm-9.78,2.74a3.37,3.37,0,0,1-4.16-2.36h0a3.38,3.38,0,0,1,2.36-4.15h0a3.39,3.39,0,0,1,4.16,2.36h0a3.38,3.38,0,0,1-1.56,3.82h0A3.14,3.14,0,0,1,287.37,1555.7Zm-9.8,2.68h0a3.38,3.38,0,0,1-4.14-2.38h0a3.38,3.38,0,0,1,2.38-4.14h0a3.38,3.38,0,0,1,4.14,2.38h0a3.36,3.36,0,0,1-1.57,3.8h0A2.9,2.9,0,0,1,277.57,1558.38Zm-9.81,2.61h0a3.38,3.38,0,0,1-4.13-2.4h0a3.37,3.37,0,0,1,2.41-4.13h0a3.36,3.36,0,0,1,4.12,2.41h0a3.38,3.38,0,0,1-1.57,3.79h0A4,4,0,0,1,267.76,1561Zm-9.84,2.56a3.39,3.39,0,0,1-4.11-2.44h0a3.38,3.38,0,0,1,2.43-4.11h0a3.38,3.38,0,0,1,4.12,2.44h0a3.38,3.38,0,0,1-1.59,3.76h0A3.54,3.54,0,0,1,257.92,1563.55Zm-9.86,2.48h0a3.39,3.39,0,0,1-4.1-2.47h0a3.38,3.38,0,0,1,2.47-4.09h0a3.39,3.39,0,0,1,4.1,2.46h0a3.38,3.38,0,0,1-1.6,3.74h0A3.44,3.44,0,0,1,248.06,1566Zm-9.86,2.42h0a3.38,3.38,0,0,1-4.08-2.5h0a3.39,3.39,0,0,1,2.5-4.08h0a3.38,3.38,0,0,1,4.07,2.49h0a3.39,3.39,0,0,1-1.59,3.73h0A3.37,3.37,0,0,1,238.2,1568.45Zm-9.88,2.36a3.39,3.39,0,0,1-4.06-2.52h0a3.39,3.39,0,0,1,2.51-4.07h0a3.4,3.4,0,0,1,4.07,2.52h0a3.36,3.36,0,0,1-1.6,3.69h0A3.57,3.57,0,0,1,228.32,1570.81Zm-9.9,2.28a3.39,3.39,0,0,1-4-2.55h0a3.38,3.38,0,0,1,2.54-4h0a3.37,3.37,0,0,1,4,2.55h0a3.36,3.36,0,0,1-1.6,3.67h0A3.18,3.18,0,0,1,218.42,1573.09Zm-9.92,2.22a3.38,3.38,0,0,1-4-2.58h0a3.39,3.39,0,0,1,2.58-4h0a3.38,3.38,0,0,1,4,2.58h0a3.38,3.38,0,0,1-1.61,3.65h0A3.44,3.44,0,0,1,208.5,1575.31Zm-9.93,2.14a3.37,3.37,0,0,1-4-2.6h0a3.37,3.37,0,0,1,2.6-4h0a3.38,3.38,0,0,1,4,2.6h0a3.37,3.37,0,0,1-1.61,3.63h0A3.28,3.28,0,0,1,198.57,1577.45Zm-9.95,2.08h0a3.4,3.4,0,0,1-4-2.64h0a3.38,3.38,0,0,1,2.64-4h0a3.36,3.36,0,0,1,4,2.63h0a3.35,3.35,0,0,1-1.62,3.6h0A3.93,3.93,0,0,1,188.62,1579.53Zm-10,2h0a3.38,3.38,0,0,1-4-2.67h0a3.37,3.37,0,0,1,2.67-4h0a3.36,3.36,0,0,1,4,2.65h0a3.39,3.39,0,0,1-1.62,3.59h0A3.32,3.32,0,0,1,178.66,1581.52Zm-10,1.94a3.39,3.39,0,0,1-4-2.7h0a3.39,3.39,0,0,1,2.69-4h0a3.38,3.38,0,0,1,4,2.7h0a3.39,3.39,0,0,1-1.63,3.56h0A3.62,3.62,0,0,1,168.68,1583.46Zm-10,1.85a3.37,3.37,0,0,1-3.92-2.72h0a3.38,3.38,0,0,1,2.73-3.93h0a3.37,3.37,0,0,1,3.92,2.72h0a3.37,3.37,0,0,1-1.64,3.53h0A3.46,3.46,0,0,1,158.68,1585.31Zm-10,1.77h0a3.39,3.39,0,0,1-3.91-2.77h0a3.38,3.38,0,0,1,2.76-3.9h0a3.38,3.38,0,0,1,3.9,2.75h0a3.37,3.37,0,0,1-1.63,3.51h0A3.56,3.56,0,0,1,148.68,1587.08Zm-10,1.7h0a3.38,3.38,0,0,1-3.88-2.78h0a3.39,3.39,0,0,1,2.79-3.89h0a3.4,3.4,0,0,1,3.89,2.79h0a3.42,3.42,0,0,1-1.65,3.48h0A3.61,3.61,0,0,1,138.66,1588.78Zm-10,1.6a3.37,3.37,0,0,1-3.86-2.81h0a3.37,3.37,0,0,1,2.82-3.86h0a3.39,3.39,0,0,1,3.86,2.81h0a3.39,3.39,0,0,1-1.65,3.45h0A3.33,3.33,0,0,1,128.62,1590.38Zm-10.05,1.53a3.39,3.39,0,0,1-3.84-2.86h0a3.39,3.39,0,0,1,2.85-3.83h0a3.39,3.39,0,0,1,3.84,2.86h0a3.39,3.39,0,0,1-1.66,3.42h0A3.36,3.36,0,0,1,118.57,1591.91Zm-10.07,1.43a3.37,3.37,0,0,1-3.81-2.87h0a3.37,3.37,0,0,1,2.89-3.81h0a3.38,3.38,0,0,1,3.81,2.88h0a3.39,3.39,0,0,1-1.66,3.39h0A3.25,3.25,0,0,1,108.5,1593.34Zm-10.08,1.35h0a3.38,3.38,0,0,1-3.78-2.92h0a3.37,3.37,0,0,1,2.92-3.78h0a3.38,3.38,0,0,1,3.78,2.92h0a3.37,3.37,0,0,1-1.66,3.35h0A3.37,3.37,0,0,1,98.42,1594.69Zm-10.09,1.25h0a3.39,3.39,0,0,1-3.76-3h0a3.4,3.4,0,0,1,3-3.76h0a3.38,3.38,0,0,1,3.75,3h0a3.39,3.39,0,0,1-1.68,3.32h0A3.46,3.46,0,0,1,88.33,1595.94Zm-10.11,1.14h0a3.37,3.37,0,0,1-3.72-3h0a3.38,3.38,0,0,1,3-3.72h0a3.37,3.37,0,0,1,3.72,3h0a3.38,3.38,0,0,1-1.66,3.29h0A3.53,3.53,0,0,1,78.22,1597.08Zm-10.13,1a3.36,3.36,0,0,1-3.68-3h0a3.36,3.36,0,0,1,3-3.69h0a3.37,3.37,0,0,1,3.69,3h0a3.39,3.39,0,0,1-1.68,3.26h0A3.2,3.2,0,0,1,68.09,1598.11Z"/><path class="cls-6" d="M913.28,358.07c14.49-6.75,29-12.8,43.39-18.94s28.78-12.16,43-18.48c3.58-1.53,7.09-3.17,10.63-4.77s7.06-3.23,10.56-4.89,7-3.37,10.49-5,7-3.42,10.39-5.21a405.76,405.76,0,0,0,40.57-23.55,115.94,115.94,0,0,1-16.16,17.8,173.13,173.13,0,0,1-19,14.87,226.73,226.73,0,0,1-20.52,12.53c-3.5,1.95-7.09,3.71-10.65,5.53s-7.21,3.44-10.86,5.05a336.75,336.75,0,0,1-45,16.12c-7.67,2.14-15.4,4-23.21,5.56A199.4,199.4,0,0,1,913.28,358.07Z"/><g class="cls-12"><path d="M1242.16,767.28s-10.2-36.4,22.12-67.28,70.11-67.75,75.49-104.29,20.49,19.1,21,36.36,8.4,64.24-35.88,87.45S1248,794.68,1242.16,767.28Z"/></g><g class="cls-5"><path d="M1507.38,782.5s-72.15,24.94-234.2,135.22S745.93,1274.4,745.93,1274.4s389.92-200.68,551-312.65S1507.38,782.5,1507.38,782.5Z"/></g><g class="cls-11"><path d="M501.23,1292.13s-45.93,3.75-102.11,32.42-188.68,98.9-231.83,117.55,194.93-62,242.83-85.47S501.23,1292.13,501.23,1292.13Z"/></g><path class="cls-6" d="M600.45,294.58s100.78-5.52,122.22,11.36C722.67,305.94,662.66,318.85,600.45,294.58Z"/><path d="M985,1237.4q-69.78,40.29-148.88,83.88C621,1439.61,439.92,1523.54,298,1570.75c-134.16,44.63-195.74,43.73-220.51,39.23-40.6-7.4-66.81-41-74.77-71.1-5.09-19.21-2.94-36.09,5.69-46.38-1.87-9.49-5.63-33.12-3-59.06,4.57-44.68,26-74.49,62-86.31,8.88-6.79,73.36-56.86,153.8-138,79.51-80.23,191.33-208.15,272.51-361.91,50.61-95.86,80.57-172.95,89-229.12,7.13-47.23-3.14-67.48-9.9-75.35a80.92,80.92,0,0,1-19-41.24C546.6,449.74,536.14,352,548.2,277.59c.37-6.47,3.58-17.44,20-22.45,8.91-2.7,19.27-3,26.12-3.14,2.09-.05,3.9-.1,5.12-.2a7.12,7.12,0,0,1,.8,0c2.29.05,56.28,1.2,79.82,2.59,1.27.08,2.69.15,4.23.22,23,1.12,70.86,3.44,107.38,42.47A138.2,138.2,0,0,1,814,329.27c145.19-30.62,200.46-68.34,228.71-87.63,3.39-2.31,6.32-4.31,9-6,10.43-6.67,20-8.24,28.34-4.68,9,3.82,13.65,12.48,15.85,18.36,7.33,1.61,19.41,7.22,34.75,25,18,20.92,71.45,74.36,87.51,90.34l0,0a7.87,7.87,0,0,1,10.64,1.66c.08.1,7.69,9.82,12.88,15.22a25.3,25.3,0,0,0,2.42,2.31c10.19,5,28.9,16.58,46.16,39.44a19.13,19.13,0,0,1,7.77-1.77,16.91,16.91,0,0,1,12.37,5.38l.25.26c7.55,7.73,24.37,25,34.64,43.7a13.78,13.78,0,0,1,2.63.5c2.87.83,6.91,3,9.89,8.7.87,1.52,7.46,10.81,14.44,20.64,51,71.8,98.7,141.57,108.09,172.24a27.49,27.49,0,0,1,11.7,3.53c9.31,5.23,16,15.57,19.87,30.74l68,97.85c7.38,8.47,12.42,26-3.26,41-6.55,6.27-66.55,56.38-193.33,142.86C1297.4,1047.57,1164.37,1133.84,985,1237.4ZM58.49,1368.28c-55.59,32.09-34.07,123.86-33.83,124.86a7.87,7.87,0,0,1-2.59,7.9c-6.5,5.45-8.11,18.72-4.11,33.81,6.69,25.24,28.56,53.46,62.36,59.62,18.74,3.41,77,6.46,212.7-38.68,141-46.91,321.18-130.46,535.49-248.33,255.58-140.56,438-257.89,546-331.58,124.27-84.77,185.26-135.43,191.31-141.22,4.59-4.39,6.26-8.78,5.11-13.43a16.35,16.35,0,0,0-3-6,7.4,7.4,0,0,1-.66-.82L1498.21,715a7.9,7.9,0,0,1-1.2-2.66c-2.67-11.17-6.94-18.76-12.35-22a11.38,11.38,0,0,0-8.15-1.52,7.57,7.57,0,0,1-6.78-.85,7.83,7.83,0,0,1-3.43-6.14c-.39-5.55-6.28-22.94-41.36-76.89-22.69-34.88-49.47-72.61-65.48-95.14-10.75-15.15-14.53-20.49-15.55-22.46l-.27-.47a7.55,7.55,0,0,1-5.08.22,7.76,7.76,0,0,1-4.8-4.31c-8.62-18.3-27.29-37.43-34.32-44.64l-.25-.25c-.62-.63-.9-.64-1-.64-1.14,0-3.2,1.36-4.18,2.34a7.78,7.78,0,0,1-6.32,2.37,7.9,7.9,0,0,1-5.84-3.45c-16.47-24.25-35.13-35.85-44.79-40.61l-.19-.09c-1.84-.92-3.77-2.53-6.51-5.38-3-3.11-6.54-7.32-9.31-10.69a7.88,7.88,0,0,1-9.35-1.31c-2.9-2.88-71.4-70.75-93-95.84-16-18.65-26-20-27.69-20.14a6.86,6.86,0,0,1-5.63-1c-1.91-1.14-2.78-3.14-3.22-5.32-.55-2.62-3.29-10.68-8.3-12.78-4.11-1.72-9.71.93-13.67,3.47-2.51,1.6-5.35,3.53-8.63,5.78C1018.72,277.1,950.33,323.79,755,356.39l-.14,0c-64.11,9.53-95.37,21-107.9,39.48-11.49,17-8.45,42.61.69,81.12.88,3.73,2.77,11.35,3,12.45l3,10.41a7.88,7.88,0,0,1-15.16,4.32l-3-10.54c0-.09,0-.18-.07-.26-.09-.36-2.15-8.67-3.11-12.74-10.16-42.78-13.15-71.82,1.6-93.6,15.48-22.87,48.72-35.83,118.55-46.22,16-2.67,31.11-5.43,45.42-8.27a120.51,120.51,0,0,0-17.72-24.72c-32.15-34.37-75.71-36.48-96.64-37.5-1.59-.08-3.06-.15-4.39-.23-22.23-1.31-73.89-2.45-78.84-2.56-1.57.11-3.44.16-5.56.21-15.83.4-30.53,2-30.84,10.93a6.78,6.78,0,0,1-.1,1c-11.84,72.37-1.51,168.63,5.7,219.57a65.15,65.15,0,0,0,15.35,33.18c10.4,12.11,21.19,37.21,13.53,88-8.74,57.92-39.25,136.7-90.69,234.14-82.14,155.57-195.13,284.82-275.46,365.86-87,87.8-155.68,139.61-156.36,140.12a8,8,0,0,1-2.39,1.22A74.23,74.23,0,0,0,58.49,1368.28Z"/><path class="cls-13" d="M553.77,890.34a13.34,13.34,0,0,1-8.52,1.65c-22.06-3.13-57.54-6.26-67.36-3.45a13.33,13.33,0,0,1-7.33-25.63c18.76-5.37,68.62,1.29,78.42,2.68a13.33,13.33,0,0,1,4.79,24.75Z"/><path d="M556.59,895.21a19,19,0,0,1-12.14,2.35c-25.07-3.55-57.18-5.84-65-3.6A19,19,0,0,1,469,857.49c19.37-5.54,66.72.53,80.77,2.52a19,19,0,0,1,6.81,35.2Zm-86.23-26.15a7.7,7.7,0,0,0,6,14.07c12.63-3.61,54.59,1.14,69.69,3.28a7.7,7.7,0,0,0,8.71-6.54,7.72,7.72,0,0,0-6.55-8.71c-26.53-3.76-62.37-6.76-76.08-2.84A8,8,0,0,0,470.36,869.06Z"/><path class="cls-13" d="M600.36,809.63a13.26,13.26,0,0,1-9.22,1.54c-17.45-3.4-50.42-6.77-64.64-1.35a13.33,13.33,0,0,1-9.5-24.91c26-9.9,73.88-1,79.26.09a13.33,13.33,0,0,1,4.1,24.63Z"/><path d="M603.18,814.51a18.94,18.94,0,0,1-13.12,2.19c-18.07-3.53-49.12-6.36-61.55-1.62A19,19,0,0,1,515,779.65c27.44-10.47,76.81-1.26,82.35-.17a19,19,0,0,1,5.83,35Zm-85.3-23.8a7.6,7.6,0,0,0-3.15,3.5,7.7,7.7,0,0,0,9.77,10.35c17.24-6.58,54.73-1.45,67.72,1.08a7.7,7.7,0,1,0,3-15.11c-18.92-3.71-56.26-7.95-76.17-.36A7.34,7.34,0,0,0,517.88,790.71Z"/><path class="cls-13" d="M653.68,704.84a13.29,13.29,0,0,1-11.78.78c-1.54-.63-34.71-13.61-63.38,10.23a13.33,13.33,0,0,1-17-20.49c41.43-34.45,88.7-15.18,90.69-14.35a13.33,13.33,0,0,1,1.52,23.83Z"/><path d="M656.49,709.72a18.82,18.82,0,0,1-16.74,1.1c-1.24-.5-31.48-12.38-57.63,9.36A19,19,0,1,1,557.87,691c44-36.6,94.35-16.1,96.47-15.21a19,19,0,0,1,2.15,33.9Zm-72-4.92c28.65-16.54,58.11-5,59.48-4.4a7.66,7.66,0,0,0,6.84-.43,7.72,7.72,0,0,0,3.27-9.58A7.68,7.68,0,0,0,650,686.2c-1.86-.78-46.09-18.79-84.91,13.49a7.7,7.7,0,1,0,9.86,11.83A68.13,68.13,0,0,1,584.54,704.8Z"/><polygon class="cls-14" points="518.22 890.33 518.22 890.33 518.22 890.33 518.22 890.33"/><path class="cls-8" d="M716.32,615.38s11.79,33-28.92,46.43S591.8,703.08,585,758.27s-21.76,107-66.79,132.06c29.81-3,38.33,34.38,54.78,81.34,2.08,5.94,6.62,13.2,13,21.38h0c63.74-55.58,70.48-107.73,79.59-147.95s11.5-77.57,95.61-116.5c68.36-30.26,67.15-83.64,62-109C784,619.2,743.9,618.29,716.32,615.38Z"/><g class="cls-9"><path class="cls-6" d="M640.7,828.93s4,36.4-26.13,71.16C614.57,900.09,608.94,861.47,640.7,828.93Z"/></g><g class="cls-9"><path class="cls-6" d="M652.31,714.15s-8,25-40.08,39.39C612.23,753.54,619.67,726.67,652.31,714.15Z"/></g><path d="M716.32,615.38a35.46,35.46,0,0,1,1,22.89,32.69,32.69,0,0,1-5.46,10.66,41.9,41.9,0,0,1-8.65,8.38,57.07,57.07,0,0,1-10.39,6c-.89.44-1.82.77-2.74,1.15s-1.85.74-2.71,1.06c-1.76.66-3.5,1.34-5.24,2q-10.44,4.15-20.47,9.09c-13.31,6.62-26,14.34-37.14,23.79-2.78,2.35-5.43,4.83-8,7.37a107.37,107.37,0,0,0-7.2,8.06,87.33,87.33,0,0,0-11.44,18A82.71,82.71,0,0,0,591.29,754l-.86,5.29-.78,5.7c-.56,3.79-1.12,7.59-1.81,11.37a261.17,261.17,0,0,1-11.55,44.78c-5.31,14.53-12.46,28.61-22.17,40.78a106.36,106.36,0,0,1-16.37,16.42c-1.54,1.16-3,2.38-4.64,3.45l-2.36,1.64-2.44,1.53a99.76,99.76,0,0,1-10.09,5.39c1.54-1.11,3.13-2.15,4.65-3.28s3-2.26,4.46-3.5l2.18-1.79,2.1-1.88c1.42-1.22,2.71-2.58,4.06-3.88a111,111,0,0,0,14-17.35c8.13-12.42,14-26.15,18.24-40.35a302.81,302.81,0,0,0,9.41-43.66c.53-3.7,1.05-7.41,1.52-11.13l.67-5.59c.27-1.95.56-4,.86-5.95a92.75,92.75,0,0,1,7.42-23c7-14.61,17.75-27,30-36.81s26.05-17.5,40.24-23.59c7.12-3,14.35-5.71,21.68-8q2.74-.87,5.51-1.68c.95-.28,1.8-.55,2.66-.82s1.74-.51,2.58-.84a53.8,53.8,0,0,0,9.77-4.5,37.12,37.12,0,0,0,8.36-6.59,31.36,31.36,0,0,0,5.87-8.93,33.22,33.22,0,0,0,2.6-10.63A37.15,37.15,0,0,0,716.32,615.38Z"/><g class="cls-7"><path d="M1069.21,691.52s.1-100-205.33-85.18-208.55-47.8-208.55-47.8.3,71.34,100.92,77.44S1028.79,616,1069.21,691.52Z"/></g><path class="cls-8" d="M1288.38,434.1s-35.68,50.44-81.16,107.18c-35.64,44.45-77.28,92.76-112.46,123.66h0a236.28,236.28,0,0,1-27.38,21.14c-34.73-70.42-87.45-63-140.12-65.18-46.28-1.89-148.33.23-205.5-5-7.89-.72-14.92-1.58-20.84-2.61-45.37-7.9-53.92-87.22-57.14-116.17-.25-2.2-.46-4.09-.66-5.65-2.78-22.22-9.64-47.11,37.18-61.6,6.33-2,18.19-3.95,34.14-5.95,102-12.78,370.39-25.51,418-27.62,55-2.44,84.86-21.47,84.86-21.47l5.4-3.68s13.82,17.66,17.71,19.59c.76.37,2.26,1.09,4.33,2.24C1253.32,397.78,1271.93,409.88,1288.38,434.1Z"/><g class="cls-11"><path d="M1288.38,434.1s-35.68,50.44-81.16,107.18c-35.64,44.45-77.28,92.76-112.46,123.66,214.31-240,156.39-238.6,141.47-249.23s-98.61,16-167,17.06S764,458.47,714.34,460.92s-37.22,39.78-30.89,83.34c4.6,31.61,26.59,59,38.3,71.66-7.89-.72-14.92-1.58-20.84-2.61-48.79-8.5-55-99.61-57.8-121.82s-9.64-47.11,37.18-61.6,397.09-31.13,452.11-33.57,84.86-21.47,84.86-21.47l5.4-3.68s13.82,17.66,17.71,19.59S1268,404.07,1288.38,434.1Z"/></g><g class="cls-9"><path class="cls-6" d="M732.24,452.31c5.08-2.22,10.19-4,15.3-5.71s10.25-3.22,15.38-4.62q15.42-4.19,30.91-7.07a545.11,545.11,0,0,1,124.95-8.42q15.75.83,31.58,2.9,7.9,1,15.86,2.54c5.29,1,10.6,2.12,15.93,3.65-5.08,2.23-10.19,4.06-15.31,5.75s-10.24,3.23-15.37,4.63q-15.42,4.19-30.91,7.08a522.55,522.55,0,0,1-62.24,7.76,526.84,526.84,0,0,1-62.72.55c-10.5-.55-21-1.49-31.57-2.88q-7.92-1.05-15.86-2.53C742.87,455,737.57,453.84,732.24,452.31Z"/></g><path d="M575.78,977.18a3.94,3.94,0,0,1-4.59-6.35c4.22-3.78,8.27-7.64,12-11.47a3.94,3.94,0,1,1,5.63,5.51c-3.88,4-8.05,7.94-12.41,11.83A3.69,3.69,0,0,1,575.78,977.18Zm23.59-24.13a3.95,3.95,0,0,1-5-6c3.6-4.27,7-8.68,10.11-13.09a3.94,3.94,0,1,1,6.44,4.54c-3.23,4.6-6.77,9.18-10.52,13.63A4.13,4.13,0,0,1,599.37,953.05Zm19.38-27.6a3.94,3.94,0,0,1-5.39-5.37c2.71-4.75,5.23-9.69,7.49-14.7a3.94,3.94,0,1,1,7.19,3.24c-2.36,5.23-5,10.41-7.84,15.37A3.91,3.91,0,0,1,618.75,925.45Zm13.88-30.73a3.94,3.94,0,0,1-5.69-4.71c1.72-5,3.3-10.18,4.82-15.88a3.94,3.94,0,1,1,7.62,2c-1.57,5.88-3.21,11.25-5,16.42A3.93,3.93,0,0,1,632.63,894.72Zm8.88-32.57a3.95,3.95,0,0,1-5.82-4.27q.94-4.25,1.84-8.41t1.77-8.1a3.94,3.94,0,1,1,7.69,1.72c-.58,2.63-1.16,5.32-1.76,8s-1.21,5.6-1.84,8.45A4,4,0,0,1,641.51,862.15Zm7.23-33a3.94,3.94,0,0,1-5.82-4.26c1-4.55,2.38-10.54,4.13-16.63a3.94,3.94,0,0,1,7.58,2.18c-1.69,5.87-3,11.72-4,16.15A3.91,3.91,0,0,1,648.74,829.14Zm9.57-32.34a3.94,3.94,0,0,1-5.61-4.92,123.83,123.83,0,0,1,7.73-15.61,3.94,3.94,0,0,1,6.8,4A117.81,117.81,0,0,0,660,794.89,3.91,3.91,0,0,1,658.31,796.8Zm17-29a3.94,3.94,0,0,1-5.06-5.86A138.92,138.92,0,0,1,681.89,749a3.94,3.94,0,1,1,5.52,5.62,134.07,134.07,0,0,0-11,12.17A4,4,0,0,1,675.33,767.77Zm23.93-23.7a3.94,3.94,0,0,1-4.43-6.5c4.3-3.43,9-6.85,13.9-10.15a3.94,3.94,0,0,1,4.39,6.55c-4.74,3.18-9.24,6.46-13.37,9.76A3.91,3.91,0,0,1,699.26,744.07Zm67.12-38.88c-2.93,1.69-6.07,3.33-9.32,4.87a3.94,3.94,0,0,1-3.37-7.13,114,114,0,0,0,14.23-8,3.94,3.94,0,0,1,4.36,6.57C770.39,702.79,768.41,704,766.38,705.19Zm-24.28,12-.19.11c-5.12,2.59-10,5.25-14.68,7.92a3.94,3.94,0,0,1-3.94-6.83h0c4.74-2.74,9.81-5.47,15.05-8.13a3.94,3.94,0,0,1,3.75,6.93Zm43.1-26.09a3.94,3.94,0,0,1-4.74-6.22,64.46,64.46,0,0,0,9.89-12.42,3.94,3.94,0,1,1,6.74,4.08,72.16,72.16,0,0,1-11.09,14A3.61,3.61,0,0,1,785.2,691.09Zm17.16-28.64A3.94,3.94,0,0,1,796.6,658a63,63,0,0,0,1.63-7.89,68.92,68.92,0,0,0,.63-7.82,3.94,3.94,0,1,1,7.88.19,78.06,78.06,0,0,1-.7,8.73,70.2,70.2,0,0,1-1.85,8.9A3.91,3.91,0,0,1,802.36,662.45ZM803.42,629a4.21,4.21,0,0,1-1.27.47,3.94,3.94,0,0,1-4.58-3.17c-.37-2-.82-4-1.33-6a3.95,3.95,0,1,1,7.63-2c.56,2.12,1,4.33,1.45,6.55A3.94,3.94,0,0,1,803.42,629Z"/><path d="M556.25,895.06a3.94,3.94,0,0,1-4.67-6.28,125.64,125.64,0,0,0,11.12-12,3.94,3.94,0,1,1,6.11,5A132.73,132.73,0,0,1,557,894.51,3.84,3.84,0,0,1,556.25,895.06ZM577.55,869a3.94,3.94,0,0,1-5.31-5.52,156.75,156.75,0,0,0,8-14.38,3.94,3.94,0,1,1,7.08,3.47,164.24,164.24,0,0,1-8.41,15.11A3.9,3.9,0,0,1,577.55,869Zm14.92-30.24a3.95,3.95,0,0,1-5.65-4.83c1.91-5,3.7-10.27,5.32-15.71a3.94,3.94,0,0,1,7.55,2.25c-1.68,5.63-3.53,11.11-5.51,16.28A3.9,3.9,0,0,1,592.47,838.73Zm9.71-32.34a3.89,3.89,0,0,1-2.85.43,3.94,3.94,0,0,1-3-4.73c1.2-5.19,2.32-10.69,3.34-16.35a3.94,3.94,0,1,1,7.76,1.39c-1,5.78-2.19,11.42-3.42,16.74A3.86,3.86,0,0,1,602.18,806.39Zm6-33.23a4,4,0,0,1-2.51.49,3.94,3.94,0,0,1-3.36-4.45q.6-4.38,1.13-8.66a66.6,66.6,0,0,1,1.59-8.45,3.94,3.94,0,0,1,7.63,1.95,59.83,59.83,0,0,0-1.4,7.46q-.53,4.35-1.14,8.78A4,4,0,0,1,608.19,773.16Zm8.91-32.31a3.94,3.94,0,0,1-5.42-5.33A80.6,80.6,0,0,1,622,721.13a3.94,3.94,0,1,1,5.88,5.26,73.25,73.25,0,0,0-9.35,13A3.94,3.94,0,0,1,617.1,740.85Zm95.28-61.3-.08,0a87.35,87.35,0,0,1-13.51,6.28,3.94,3.94,0,0,1-2.72-7.4,80.26,80.26,0,0,0,12.37-5.75c.71-.41,1.4-.82,2.07-1.25a3.94,3.94,0,0,1,4.19,6.68C713.94,678.62,713.17,679.09,712.38,679.55Zm15.21-12a3.94,3.94,0,0,1-4.86-6.1,51.29,51.29,0,0,0,8.56-12.4l.24-.51a3.94,3.94,0,0,1,7.13,3.37l-.29.6a59.2,59.2,0,0,1-9.86,14.3A3.84,3.84,0,0,1,727.59,667.55ZM683.5,691.27a5.36,5.36,0,0,1-.54.26c-5.32,2.07-10.44,4.29-15.22,6.59a3.94,3.94,0,1,1-3.42-7.1c5-2.39,10.27-4.69,15.77-6.84a3.95,3.95,0,0,1,3.41,7.09Zm-44.25,24.37a3.94,3.94,0,0,1-4.42-6.5,136.91,136.91,0,0,1,14.29-9.91,3.94,3.94,0,1,1,4.09,6.74,133.14,133.14,0,0,0-13.47,9.33A3.3,3.3,0,0,1,639.25,715.64ZM741.83,637.5a3.89,3.89,0,0,1-2.5.49,3.93,3.93,0,0,1-3.37-4.43,56.12,56.12,0,0,0-.12-15.74,3.94,3.94,0,0,1,7.8-1.14,64.22,64.22,0,0,1,.13,17.94A3.93,3.93,0,0,1,741.83,637.5Z"/><path d="M1087.45,675.41l-.15.08a3.94,3.94,0,0,1-5.32-1.67c-1.19-2.29-2.43-4.55-3.68-6.7-1.5-2.6-3.06-5.14-4.63-7.56a3.94,3.94,0,1,1,6.6-4.3c1.66,2.53,3.29,5.2,4.86,7.92,1.3,2.25,2.59,4.6,3.84,7A4,4,0,0,1,1087.45,675.41Zm-18.52-28.18a3.93,3.93,0,0,1-5-.9,122.24,122.24,0,0,0-11.26-11.85,3.94,3.94,0,1,1,5.32-5.81,129.88,129.88,0,0,1,12,12.62,4,4,0,0,1-.51,5.55A3.52,3.52,0,0,1,1068.93,647.23Zm-24.86-22.69a4,4,0,0,1-4.18-.15,107.53,107.53,0,0,0-14.15-8,3.94,3.94,0,0,1,3.37-7.13,114.64,114.64,0,0,1,15.19,8.64,3.95,3.95,0,0,1-.23,6.68Zm-30.41-14.45a3.93,3.93,0,0,1-3.14.35,140.21,140.21,0,0,0-15.94-3.89A3.94,3.94,0,1,1,996,598.8a145.15,145.15,0,0,1,16.85,4.11,3.95,3.95,0,0,1,.8,7.18Zm-33.13-6.27a4,4,0,0,1-2.34.5c-5-.46-10.42-.81-16.64-1.06a3.94,3.94,0,0,1,.31-7.88c6.37.26,11.95.61,17.07,1.1a3.94,3.94,0,0,1,1.6,7.34Zm-35.79-1c-5.55-.12-11.22-.24-16.73-.46h-.24a3.94,3.94,0,0,1,.33-7.88h.25c5.41.22,11,.34,16.5.46ZM913,601.31a4,4,0,0,1-2,.53c-5.27-.11-10.9-.19-16.86-.26a3.94,3.94,0,1,1,.09-7.88c6,.07,11.64.15,16.93.26a3.94,3.94,0,0,1,1.89,7.35Zm-33.79-.41a3.88,3.88,0,0,1-2,.52l-16.89-.11a3.95,3.95,0,0,1,0-7.89l16.9.12a3.95,3.95,0,0,1,1.94,7.36Zm350.44-202.64c-1.42.82-3,1.68-4.76,2.57a3.94,3.94,0,1,1-3.59-7c2-1,3.51-1.86,4.41-2.38s1.37-.82,1.51-.91l8-5.43a3.94,3.94,0,1,1,4.44,6.52l-8,5.48C1231.33,397.27,1230.71,397.65,1229.67,398.26Zm-20,9.28a5,5,0,0,1-.57.27c-5.21,2-10.7,3.83-16.33,5.46a3.94,3.94,0,0,1-2.19-7.57c5.41-1.57,10.7-3.34,15.71-5.26a3.94,3.94,0,0,1,3.38,7.1ZM1177.22,417a4.09,4.09,0,0,1-1.15.44c-5.51,1.16-11.2,2.16-16.91,3a3.94,3.94,0,0,1-1.1-7.81c5.53-.78,11-1.75,16.37-2.88a3.95,3.95,0,0,1,2.79,7.28ZM845.44,600.67a3.88,3.88,0,0,1-2,.52c-5.57,0-11.22-.08-16.91-.14a3.94,3.94,0,0,1,.08-7.88l16.89.14a3.95,3.95,0,0,1,1.94,7.36Zm298.35-178.94a3.9,3.9,0,0,1-1.67.52c-2.83.21-5.7.38-8.55.51l-8.45.38a3.94,3.94,0,0,1-.35-7.88l8.45-.38c2.77-.12,5.56-.29,8.31-.49a3.94,3.94,0,0,1,2.26,7.34ZM811.62,600.33a3.92,3.92,0,0,1-2,.52c-5.66-.07-11.32-.17-16.92-.28a3.94,3.94,0,0,1,.16-7.88c5.58.11,11.22.2,16.87.28a3.94,3.94,0,0,1,1.91,7.36ZM1110,423.39a3.81,3.81,0,0,1-1.78.52l-16.89.8a3.94,3.94,0,1,1-.38-7.87l16.9-.8a3.94,3.94,0,0,1,2.15,7.35ZM777.83,599.64a3.86,3.86,0,0,1-2.08.52c-5.94-.16-11.64-.36-16.94-.57a3.94,3.94,0,1,1,.32-7.88c5.27.22,10.93.41,16.84.57a3.95,3.95,0,0,1,1.86,7.36ZM1076.22,425a3.89,3.89,0,0,1-1.77.52l-16.89.85a3.95,3.95,0,0,1-.4-7.88l16.9-.84a3.94,3.94,0,0,1,2.16,7.35Zm-33.78,1.71a3.89,3.89,0,0,1-1.76.52l-16.89.89a3.94,3.94,0,0,1-.42-7.87q8.5-.47,16.9-.89a3.94,3.94,0,0,1,2.17,7.35ZM744.05,598.24a3.83,3.83,0,0,1-2.2.52c-6.17-.36-11.88-.77-17-1.21a3.95,3.95,0,0,1,.69-7.86c5,.44,10.65.85,16.74,1.2a3.94,3.94,0,0,1,1.74,7.35Zm264.61-169.73a3.85,3.85,0,0,1-1.75.52l-16.84.93a3.94,3.94,0,1,1-.44-7.87l16.85-.93a3.94,3.94,0,0,1,2.18,7.35ZM710.4,595.12a3.92,3.92,0,0,1-2.55.48c-1.3-.19-2.56-.4-3.75-.6a25.41,25.41,0,0,1-13.44-7.41,3.95,3.95,0,0,1,5.55-5.61,17.65,17.65,0,0,0,9.24,5.25c1.14.2,2.33.39,3.56.57a3.95,3.95,0,0,1,1.39,7.32ZM974.94,430.39a3.93,3.93,0,0,1-1.74.52l-16.9,1a3.94,3.94,0,0,1-.46-7.87l16.91-1a3.94,3.94,0,0,1,2.19,7.35Zm-33.78,2a3.88,3.88,0,0,1-1.73.51l-16.88,1a3.94,3.94,0,0,1-.48-7.86L939,425a3.95,3.95,0,0,1,2.2,7.36ZM685.94,574.31l-.23.12a3.94,3.94,0,0,1-5.28-1.79A118.38,118.38,0,0,1,674,556.42a3.94,3.94,0,0,1,7.5-2.42,111.53,111.53,0,0,0,6,15.15A3.94,3.94,0,0,1,685.94,574.31ZM907.4,434.42a3.85,3.85,0,0,1-1.72.52L888.81,436a3.94,3.94,0,1,1-.51-7.87l16.88-1.08a3.94,3.94,0,0,1,2.22,7.35Zm-33.76,2.19a4,4,0,0,1-1.7.52c-5.68.37-11.31.76-16.87,1.14a3.94,3.94,0,0,1-.54-7.87l16.88-1.14a3.94,3.94,0,0,1,2.23,7.35ZM675.29,542.33a4,4,0,0,1-1.09.43,3.94,3.94,0,0,1-4.73-3c-1.2-5.2-2.33-10.85-3.35-16.77a3.94,3.94,0,1,1,7.77-1.34c1,5.78,2.1,11.28,3.27,16.34A4,4,0,0,1,675.29,542.33ZM839.9,438.94a4,4,0,0,1-1.69.51l-16.86,1.23a3.94,3.94,0,0,1-.58-7.86l16.88-1.23a3.94,3.94,0,0,1,2.25,7.35Zm-33.74,2.51a3.93,3.93,0,0,1-1.66.51q-8.64.68-16.85,1.35a3.94,3.94,0,0,1-.65-7.86c5.48-.45,11.12-.9,16.88-1.35a3.95,3.95,0,0,1,2.28,7.35ZM669.45,509.07a3.94,3.94,0,0,1-5.87-2.9c-.45-3.41-.89-7-1.28-10.56-.27-2.42-.51-4.52-.72-6.24a3.94,3.94,0,1,1,7.82-1c.22,1.74.46,3.88.73,6.33.39,3.55.82,7,1.26,10.41A3.93,3.93,0,0,1,669.45,509.07Zm103-64.85a3.86,3.86,0,0,1-1.62.51q-8.74.76-16.83,1.53a3.94,3.94,0,0,1-.74-7.85q8.1-.77,16.88-1.53a3.94,3.94,0,0,1,2.31,7.34Zm-33.69,3.2a3.92,3.92,0,0,1-1.56.5c-6.07.64-11.71,1.27-16.76,1.88a3.94,3.94,0,0,1-.95-7.83c5.09-.61,10.78-1.25,16.89-1.89a3.94,3.94,0,0,1,2.38,7.34Zm-73.17,28.1a4,4,0,0,1-1.86.52,3.94,3.94,0,0,1-4.05-3.83,21.4,21.4,0,0,1,1.31-9.14c1.27-2.91,4-5.69,8-8.24a3.94,3.94,0,0,1,4.18,6.69c-3.53,2.21-4.65,3.89-5,4.69a14.64,14.64,0,0,0-.67,5.78A4,4,0,0,1,665.57,475.52Zm39.57-24a4.06,4.06,0,0,1-1.38.49,122.48,122.48,0,0,0-15.65,3.13l-.36.12a3.95,3.95,0,0,1-2.33-7.54l.35-.1a126,126,0,0,1,16.8-3.41,3.94,3.94,0,0,1,2.57,7.31Z"/><path d="M586,993.05c13.83-13.77,26.76-28.38,37.22-44.57a206.61,206.61,0,0,0,24.69-51.67c2.89-9.12,5.27-18.39,7.3-27.82l5.95-28.55c2-9.47,3.86-19.2,6.75-28.9a112.91,112.91,0,0,1,12.48-28,109.54,109.54,0,0,1,9.21-12.36,127,127,0,0,1,10.69-10.94,176.19,176.19,0,0,1,24.2-18,262,262,0,0,1,26.2-14.15c2.24-1.07,4.51-2.08,6.76-3.12l3.32-1.5,3.26-1.45c2.2-.94,4.26-2.06,6.4-3.08s4.15-2.24,6.21-3.39A110.51,110.51,0,0,0,799,698.54a82.29,82.29,0,0,0,9.12-10.68,78.83,78.83,0,0,0,7.24-12.08,87.1,87.1,0,0,0,8.11-27.22,100.42,100.42,0,0,0,.85-14.42,114.65,114.65,0,0,0-1-14.54,98.52,98.52,0,0,1,3.3,29.22,87.93,87.93,0,0,1-6.17,29.2,81.39,81.39,0,0,1-6.92,13.45,89.64,89.64,0,0,1-9.12,12.13L803.09,705l-1.32,1.36c-.88.91-1.75,1.83-2.67,2.7-1.87,1.69-3.69,3.46-5.67,5a128.08,128.08,0,0,1-12.19,9c-2.14,1.32-4.28,2.65-6.46,3.91s-4.38,2.48-6.62,3.57l-6.65,3.26c-2.14,1.07-4.29,2.11-6.42,3.21a280.52,280.52,0,0,0-24.87,14.27c-15.88,10.36-30.51,22.7-40.32,38.28a102.69,102.69,0,0,0-11.37,25.21c-2.83,9-4.74,18.37-7,27.93L668.27,857c-1.07,4.75-2.23,9.53-3.42,14.31a259.86,259.86,0,0,1-8.66,28.4,193.48,193.48,0,0,1-12.26,27.14l-3.69,6.47c-1.26,2.14-2.67,4.18-4,6.27-2.59,4.22-5.61,8.15-8.54,12.13A225.32,225.32,0,0,1,586,993.05Z"/><g class="cls-12"><path d="M1201,448.89S1129.45,650.8,958.67,570c-101-49-54-104.81,87-79.47C1128.05,498.52,1219.48,410.14,1201,448.89Z"/></g><g class="cls-15"><path class="cls-6" d="M483.25,867.18s35.85-1.61,53.57,4.46C536.82,871.64,504.68,874.25,483.25,867.18Z"/></g><g class="cls-7"><path d="M611.36,919.56s-20.13,17.36-47.06-9.73-53.6-57.4-58-72.7c0,0,8.64-18.12,17.61-9.32S565.85,896.62,611.36,919.56Z"/></g><path d="M1066.87,686.33a172.43,172.43,0,0,0-9.53-15.3l-1.28-1.85-1.35-1.78c-.91-1.19-1.8-2.39-2.73-3.55l-2.89-3.41c-.93-1.16-2-2.19-3-3.3a96.12,96.12,0,0,0-13.2-11.77,90.82,90.82,0,0,0-15.13-8.88c-10.62-4.91-22.15-7.57-33.86-9s-23.69-1.51-35.74-1.67c-6-.06-12.1-.1-18.19-.24s-12-.29-18.07-.34c-12-.21-24.11-.23-36.18-.27s-24.17-.09-36.26-.22c-6.05-.06-12.09-.11-18.14-.28L803.17,624c-24.2-.8-48.42-1.91-72.61-4.3-3-.32-6-.59-9.07-.94l-9.07-1.15c-1.51-.17-3-.43-4.53-.68l-4.52-.76a41.64,41.64,0,0,1-4.58-.91,31.82,31.82,0,0,1-4.59-1.36A46.11,46.11,0,0,1,678.14,604a70,70,0,0,1-11.59-14.55A109.94,109.94,0,0,1,658.34,573c-2.28-5.68-4.18-11.49-5.9-17.33A296.56,296.56,0,0,1,644.73,520c-1-6-1.79-12-2.53-18L641,493c-.4-3-.89-5.93-1.33-8.95a80.14,80.14,0,0,1-1-18.68,34,34,0,0,1,6.8-18.22,41.72,41.72,0,0,1,6.74-7.11,61.23,61.23,0,0,1,7.9-5.48,94,94,0,0,1,17.15-7.73c1.44-.54,3-1,4.53-1.39s3.08-.89,4.58-1.19l4.54-1c1.52-.34,3-.58,4.53-.86l4.52-.81,4.52-.72c3-.46,6-.95,9-1.35,24.08-3.39,48.18-5.72,72.29-7.94,48.21-4.41,96.47-7.87,144.76-10.67,48.3-2.62,96.61-4.83,145-6.33,12.08-.42,24.17-.73,36.26-1l18.13-.45c6-.1,11.95-.33,17.92-.83a224.69,224.69,0,0,0,35.39-5.68c5.81-1.42,11.57-3.12,17.23-5.11a117,117,0,0,0,16.5-7.1l0,0a.56.56,0,0,1,.57,1c-10.34,6.56-21.72,11.13-33.34,14.84a214.68,214.68,0,0,1-35.77,7.83c-6,.81-12.19,1.37-18.24,1.78L1112.13,401,1076,403.44c-48.22,3.31-96.46,6.3-144.67,9.46L859,417.38q-36.16,2.22-72.28,4.81c-24.06,1.79-48.13,3.71-72,6.29-3,.3-6,.68-8.94,1l-4.46.55-4.42.64c-1.47.23-3,.39-4.41.66l-4.36.76c-1.48.23-2.84.58-4.22.9s-2.78.64-4.19,1.09a86.91,86.91,0,0,0-16.14,6.47,54.57,54.57,0,0,0-7.19,4.54,35.36,35.36,0,0,0-5.95,5.77,25,25,0,0,0-4.18,7,30.63,30.63,0,0,0-2.11,8,53.41,53.41,0,0,0-.36,8.61q.21,4.4.74,8.85c.33,3,.73,6,1,9l.88,9c.61,6,1.31,12,2.14,17.93a256.9,256.9,0,0,0,7.22,35.26c3.26,11.52,7.64,22.78,13.92,32.82A61.89,61.89,0,0,0,680.89,601a40.82,40.82,0,0,0,14.78,8.58,27.84,27.84,0,0,0,4.14,1,38.24,38.24,0,0,0,4.34.68l4.44.55c1.48.19,3,.38,4.46.48l9,.74c3,.2,6,.33,9,.49l4.5.24,4.51.14,9,.29c6,.11,12,.25,18.07.3,12.06.13,24.12.16,36.19.16s24.14,0,36.22.08,24.16.09,36.25.28,24.19.33,36.33.67c3,.06,6.06.19,9.1.33l9.07.42c6,.28,12,.46,18.06.67,12.1.39,24.36,1,36.59,2.91a133.19,133.19,0,0,1,18.16,4.06,101.49,101.49,0,0,1,17.31,7A89.54,89.54,0,0,1,1036,641.39a100.07,100.07,0,0,1,13.06,13.14c7.9,9.47,13.88,20.25,18.83,31.3a.57.57,0,0,1-1,.52Z"/><path class="cls-13" d="M609.12,920.85a13.32,13.32,0,0,1-15.53-1.6c-2-1.8-49.68-44.39-69.85-71.6a597.79,597.79,0,0,1-34.07-51.34,13.33,13.33,0,0,1,4.88-18.21h0A13.34,13.34,0,0,1,512.76,783a580.54,580.54,0,0,0,32.4,48.81c18.55,25,65.69,67.15,66.17,67.57a13.34,13.34,0,0,1-2.21,21.5Z"/><path d="M611.94,925.73a19,19,0,0,1-22.1-2.27c-2-1.81-50-44.69-70.62-72.45a603.34,603.34,0,0,1-34.43-51.89,19,19,0,1,1,32.84-19,576.05,576.05,0,0,0,32.06,48.26c18,24.34,64.92,66.31,65.39,66.73a19,19,0,0,1-3.14,30.58ZM497.36,783a7.71,7.71,0,0,0-2.81,10.52,588.47,588.47,0,0,0,33.72,50.81c19.89,26.84,67.07,69,69.06,70.75a7.68,7.68,0,0,0,9,.92,7.56,7.56,0,0,0,1.9-1.55,7.65,7.65,0,0,0,1.93-5.56,7.57,7.57,0,0,0-2.56-5.3c-2-1.76-48.22-43.17-66.94-68.43a585,585,0,0,1-32.76-49.34A7.72,7.72,0,0,0,497.36,783Z"/><g class="cls-15"><path class="cls-6" d="M573.78,788.45s-28.69-5.18-49,1C524.78,789.49,559.84,791.33,573.78,788.45Z"/></g><g class="cls-7"><path d="M638.84,823.18s-44.14,27.3-91.32-62.49l15.07-27.19S589,794.1,638.84,823.18Z"/></g><path class="cls-13" d="M635.65,825.75A13.32,13.32,0,0,1,620,824.07c-8-7.3-78.39-72.92-75.33-127.13a13.33,13.33,0,0,1,26.62,1.5c-2,35.27,47.43,88.41,66.65,105.91a13.33,13.33,0,0,1-2.31,21.4Z"/><path d="M638.46,830.63a18.88,18.88,0,0,1-22.23-2.4c-8.24-7.48-80.37-74.78-77.16-131.61a19,19,0,0,1,37.86,2.14c-1.66,29.37,38.88,77.8,64.82,101.42a19,19,0,0,1-3.29,30.45ZM554.16,691a7.72,7.72,0,0,0-1.29.94,7.6,7.6,0,0,0-2.55,5.3C547.4,748.88,616,812.78,623.81,819.9a7.65,7.65,0,0,0,9,1,8,8,0,0,0,1.85-1.49,7.73,7.73,0,0,0-.51-10.88c-.71-.65-71-65.24-68.48-110.39A7.71,7.71,0,0,0,554.16,691Z"/><path class="cls-13" d="M713.28,728.15a13.32,13.32,0,0,1-17.3-3.54c-.28-.37-27.7-36.7-49.38-53.14l-2.82-2.13c-52.13-39.5-67.25-53.08-70.34-63.19a13.33,13.33,0,0,1,25.14-8.82c5.7,8.64,46,39.18,61.3,50.76l2.83,2.14c24.66,18.7,53.37,56.75,54.58,58.37a13.32,13.32,0,0,1-2.65,18.66A11.75,11.75,0,0,1,713.28,728.15ZM598.93,598.34h0Z"/><path d="M716.1,733a19,19,0,0,1-24.63-5c-.26-.35-27.37-36.19-48.27-52l-2.82-2.13c-54.54-41.32-68.73-54.28-72.33-66a19,19,0,0,1,35.49-13.18c4.11,5.59,24.2,22.06,59.74,49l2.83,2.14c25.27,19.16,54.45,57.84,55.68,59.47A19,19,0,0,1,718,731.76,19.3,19.3,0,0,1,716.1,733ZM582.34,595.58a7.74,7.74,0,0,0-3.52,8.92c2.61,8.54,18.59,22.64,68.36,60.35L650,667c22.14,16.77,49.33,52.71,50.47,54.23a7.71,7.71,0,0,0,10,2.06c.27-.16.54-.34.8-.53A7.71,7.71,0,0,0,712.79,712c-1.19-1.59-29.45-39.05-53.48-57.26l-2.83-2.15c-27.87-21.11-57.1-43.82-62.6-52.13l-.2-.31-.08,0-.26-.75a7.72,7.72,0,0,0-9.4-4.52A7.89,7.89,0,0,0,582.34,595.58Zm16.4,2.81-5.36.89Z"/><path class="cls-13" d="M605.6,570.16a13.33,13.33,0,0,1-17.07-19.89c18.16-22.63,101-74.57,110.36-80.42l.39-.23A13.33,13.33,0,0,1,713,492.48c-34,21.16-92.13,60.1-103.67,74.48A13.12,13.12,0,0,1,605.6,570.16Z"/><path d="M608.41,575a19,19,0,0,1-24.27-28.29c18.36-22.88,96.33-72.05,111.77-81.68l.55-.33A19,19,0,0,1,716,497.25c-36.13,22.53-91.75,60.14-102.26,73.23A18.83,18.83,0,0,1,608.41,575ZM702.1,474.49l-.19.11c-33.79,21.06-94.71,61.4-109,79.2a7.7,7.7,0,0,0,9.86,11.48,7.45,7.45,0,0,0,2.15-1.85c13.48-16.8,80.43-60.36,105.08-75.73a7.7,7.7,0,0,0-7.91-13.21Z"/><path class="cls-13" d="M729.72,575.19a13.49,13.49,0,0,1-3.84,1.48c-1.13.24-28,6-59.08,9.41-44.6,4.82-73.86,2.16-89.44-8.13a13.33,13.33,0,0,1,14.69-22.25c17.88,11.81,85.71,4.14,128.17-5.08a13.33,13.33,0,0,1,9.5,24.57Z"/><path d="M732.53,580.07a19.19,19.19,0,0,1-5.45,2.1c-1.15.25-28.45,6.13-59.67,9.51-46,5-76.43,2-93.16-9A19,19,0,1,1,595.15,551c14.32,9.45,75.61,4.58,123.87-5.9a19,19,0,0,1,13.51,35ZM580.85,560.16a7.7,7.7,0,0,0-3.69,8.21,7.63,7.63,0,0,0,3.3,4.88c14.24,9.41,43.09,11.84,85.74,7.23,30.63-3.31,57.36-9.07,58.49-9.31a7.7,7.7,0,0,0-3.28-15c-29.08,6.31-109.58,19.39-132.46,4.28a7.69,7.69,0,0,0-8.1-.24Z"/><path class="cls-13" d="M465.07,1035.55a13.23,13.23,0,0,1-9.76,1.42l-67.43-16.1a13.33,13.33,0,1,1,6.19-25.93l67.44,16.1a13.32,13.32,0,0,1,3.56,24.51Z"/><path d="M467.89,1040.43a18.91,18.91,0,0,1-13.88,2l-67.44-16.11a19,19,0,1,1,8.81-36.88l67.44,16.11a19,19,0,0,1,5.07,34.86Zm-80.76-39.2-.19.11a7.7,7.7,0,0,0,2.25,14l67.43,16.11a7.7,7.7,0,1,0,3.58-15l-67.44-16.11A7.63,7.63,0,0,0,387.13,1001.23Z"/><path class="cls-13" d="M427.13,1079.1a13.33,13.33,0,0,1-14.68-.89c-5.83-4.39-56.54-44-43.73-82.57A13.33,13.33,0,1,1,394,1004c-5.36,16.17,20.92,42.61,34.48,52.88a13.33,13.33,0,0,1-1.37,22.18Z"/><path d="M430,1084a18.93,18.93,0,0,1-20.89-1.28c-6.16-4.64-59.73-46.53-45.69-88.84a19,19,0,0,1,36,11.95c-3.76,11.31,16.85,34.75,32.53,46.62A19,19,0,0,1,430,1084Zm-52.43-90.81a7.68,7.68,0,0,0-3.46,4.24c-11.76,35.44,39.59,74.65,41.78,76.3a7.7,7.7,0,0,0,9.27-12.3c-12.47-9.43-43.3-38.45-36.43-59.15a7.7,7.7,0,0,0-11.16-9.09Z"/><path class="cls-13" d="M489.33,959.71a13.34,13.34,0,0,1-12.34.52c-4.73-.92-21.86.47-37.36,3.08A13.33,13.33,0,1,1,435.21,937c42.53-7.15,51.28-2,54.16-.37a13.34,13.34,0,0,1,0,23.06Zm-12,.6h0Zm-1.4-.63h0Z"/><path d="M492.14,964.58a18.94,18.94,0,0,1-16.75,1.1c-4.08-.46-18.79.49-34.83,3.18a19,19,0,1,1-6.28-37.4c39.48-6.63,51.7-3.31,57.93.33a19,19,0,0,1-.07,32.79ZM479,955l.39.18a7.7,7.7,0,0,0,7.14-13.62c-8.15-4.76-31.9-2.06-50.39,1.05a7.7,7.7,0,0,0,2.56,15.18c14.53-2.44,33.23-4.25,39.37-3l.57.11,0-.06Z"/><g class="cls-7"><path d="M786.86,1159.65s-154-121.6-188.47-187.15c-12-29.45-53.25-114.15-94.41-69.42,0,0,31.76-1,42,35.31,15.73,55.88,28,101.58,228.65,228.33C779.23,1169.63,782.05,1156.63,786.86,1159.65Z"/></g><path class="cls-8" d="M780.23,1163.76S590.41,1021.37,573,971.67s-25.94-88.61-60.22-80.41S487.32,936,470.1,970.81s-53.26,75.72-101.84,123.83c-34.76,33.44,5.66,61.93,16.87,64.94,14,4.53,181.32,63.28,225.27,105,56.71-32.14,113.68-66.09,169.83-100.81Z"/><path d="M779.81,1164.13s-.18-.11-.31-.2l-.4-.27-.79-.55-1.58-1.09-3.16-2.2-6.31-4.41-12.51-9c-8.3-6-16.54-12.14-24.75-18.28s-16.32-12.45-24.42-18.75-16.09-12.75-24.08-19.21-15.86-13-23.68-19.72-15.59-13.41-23.24-20.3-15.14-14-22.52-21.2-14.63-14.62-21.45-22.5c-3.42-3.93-6.76-8-10-12.16a100.05,100.05,0,0,1-8.81-13.46,52.18,52.18,0,0,1-3.44-7.74L566,965.79c-1.62-4.87-3.18-9.76-4.72-14.63-3.12-9.73-6.26-19.42-10-28.7a103.22,103.22,0,0,0-6.46-13.33,53.24,53.24,0,0,0-4.08-5.94,31.8,31.8,0,0,0-4.89-5,22.45,22.45,0,0,0-5.8-3.52,21.25,21.25,0,0,0-6.62-1.65,31.42,31.42,0,0,0-7,.18,43.87,43.87,0,0,0-7,1.65,33.06,33.06,0,0,0-6.55,2.88,28.92,28.92,0,0,0-5.61,4.36,33.56,33.56,0,0,0-4.42,5.67,48.12,48.12,0,0,0-3.32,6.57c-.95,2.29-1.76,4.66-2.52,7.06s-1.38,4.87-2,7.34l-3.6,14.94c-2.51,10-5.56,20-10.33,29.29-2.33,4.63-4.87,9.13-7.52,13.56-1.36,2.2-2.66,4.43-4.07,6.59l-4.25,6.47-4.42,6.34-4.56,6.24c-1.5,2.1-3.09,4.12-4.65,6.17s-3.12,4.1-4.74,6.1c-12.76,16.16-26.37,31.61-40.29,46.74-7,7.54-14,15-21.18,22.42l-2.69,2.77-1.34,1.39-1.24,1.31a35,35,0,0,0-2.39,2.68,37.92,37.92,0,0,0-7.85,14.87,23.8,23.8,0,0,0,.74,12.63,28.89,28.89,0,0,0,2.78,6,37.67,37.67,0,0,0,4,5.51,53.67,53.67,0,0,0,10.45,9.25,43.2,43.2,0,0,0,5.94,3.42,17.26,17.26,0,0,0,2.84,1.08l3.83,1.25c19.56,6.57,38.84,13.57,58.07,20.87,9.6,3.66,19.2,7.35,28.73,11.21s19,7.83,28.47,11.91q28.39,12.16,55.92,26.51c9.14,4.85,18.23,9.87,27,15.49S606,1253.33,614,1260.82l-6.12-.75L651,1236.15,694,1212l43-24.33,21.47-12.2,10.74-6.09,5.38-3,2.69-1.52,1.34-.76.67-.38.34-.19.17-.1.08,0,0,0C779.85,1163.67,780.05,1162.44,779.81,1164.13Zm.84-.75c-.26,1.72-.09.49-.16.88l0,0-.08,0-.16.11-.32.22-.64.43L778,1166l-2.56,1.72-5.13,3.44-10.3,6.82c-6.87,4.55-13.78,9-20.69,13.51-13.82,9-27.75,17.76-41.7,26.52s-28,17.38-42.12,25.86-28.25,17-42.5,25.24a5.1,5.1,0,0,1-6-.62l-.14-.12c-7.14-6.44-15.52-12-24.09-17.21s-17.49-10-26.53-14.65c-18.09-9.21-36.69-17.53-55.37-25.72-37.48-16.06-75.54-31.21-113.94-45l-3.45-1.2a28.56,28.56,0,0,1-4.3-1.72,54.28,54.28,0,0,1-7.31-4.36,63.2,63.2,0,0,1-12.29-11.29,48.12,48.12,0,0,1-4.86-7,38.77,38.77,0,0,1-3.49-8,33.55,33.55,0,0,1-.62-17.7,42.18,42.18,0,0,1,7.71-15.32c.81-1.15,1.76-2.15,2.66-3.2s1.87-2,2.83-3l1.44-1.44,1.38-1.32,2.75-2.66c7.38-7,14.69-14.2,21.94-21.39s14.39-14.51,21.35-22,13.87-15,20.41-22.81,12.95-15.77,18.82-24.09L456.2,991c1.44-2.1,2.76-4.27,4.14-6.41q4-6.48,7.49-13.25a102.64,102.64,0,0,0,5.92-13.91c1.68-4.77,2.95-9.68,4.16-14.63l3.46-15a123,123,0,0,1,4.39-15,52.32,52.32,0,0,1,3.42-7.23,37.38,37.38,0,0,1,4.83-6.55,35.47,35.47,0,0,1,6.34-5.25,37.55,37.55,0,0,1,7.34-3.6,49.08,49.08,0,0,1,7.83-2.17,36.66,36.66,0,0,1,8.27-.54,28.7,28.7,0,0,1,15.82,5.73,38,38,0,0,1,6.12,5.68,59.74,59.74,0,0,1,4.94,6.49,112.1,112.1,0,0,1,7.61,14c4.43,9.51,7.94,19.24,11.46,28.89,1.76,4.83,3.47,9.66,5.17,14.47l2.58,7.2a44.38,44.38,0,0,0,3,6.21,111.66,111.66,0,0,0,8.19,12.12c3,4,6.24,7.8,9.57,11.58,13.34,15.11,27.92,29.41,42.84,43.29q11.19,10.44,22.6,20.67c7.62,6.81,15.32,13.53,23,20.28s15.47,13.38,23.27,20,15.58,13.27,23.43,19.84,15.69,13.17,23.56,19.73Z"/><g class="cls-7"><path d="M523.08,978.57s-20.57,12.92-39.53-7.48-36-51.41-13.45-57.19C470.1,913.9,497.8,970,523.08,978.57Z"/></g><g class="cls-11"><path d="M498.44,1102s-11.21,22.78-35.46,44.69c-8.36,5-1.1,11.23,35,22.89s47.08,15.17,55.41,22S525.81,1164,480,1153C469.12,1150.35,502.26,1125.21,498.44,1102Z"/></g><g class="cls-9"><path class="cls-6" d="M582.59,1047.53s25.8,6.28,53.61,27.72,87.59,76.23,87.59,76.23S677,1127.05,635.7,1095,582.59,1047.53,582.59,1047.53Z"/></g><path d="M632.6,1256.46a4,4,0,0,1-4.93-.81c-.27-.31-.56-.64-.88-1a3.94,3.94,0,1,1,5.84-5.3l1,1.07a3.94,3.94,0,0,1-.35,5.57A4.61,4.61,0,0,1,632.6,1256.46Zm129-76.63a3.93,3.93,0,0,1-4.36-.27c-3.43-2.62-8-6.11-13.43-10.33a3.94,3.94,0,0,1,4.83-6.23c5.43,4.2,10,7.68,13.38,10.29a3.94,3.94,0,0,1,.74,5.52A3.75,3.75,0,0,1,761.63,1179.83ZM619.2,1244.11a4,4,0,0,1-4.39-.31c-3.9-3-8.45-6.24-13.51-9.53a3.94,3.94,0,1,1,4.3-6.61c5.25,3.41,10,6.75,14,9.92a3.94,3.94,0,0,1,.69,5.53A3.86,3.86,0,0,1,619.2,1244.11Zm115.7-85a4,4,0,0,1-4.41-.31c-4.16-3.27-8.61-6.78-13.28-10.49a3.94,3.94,0,0,1,4.9-6.17c4.66,3.7,9.09,7.2,13.25,10.46a3.94,3.94,0,0,1,.67,5.53A3.88,3.88,0,0,1,734.9,1159.14ZM591,1225.58a4,4,0,0,1-3.95,0c-4.54-2.62-9.47-5.35-14.65-8.1a3.94,3.94,0,0,1,3.7-7c5.26,2.79,10.28,5.56,14.9,8.24a3.94,3.94,0,0,1,1.44,5.38A3.9,3.9,0,0,1,591,1225.58Zm117.42-87.47a4,4,0,0,1-4.45-.34c-4.27-3.44-8.67-7-13.15-10.66a3.94,3.94,0,1,1,5-6.11q6.69,5.48,13.11,10.63a3.94,3.94,0,0,1,.59,5.54A3.74,3.74,0,0,1,708.44,1138.11Zm-147.21,71.58a3.94,3.94,0,0,1-3.73.12c-4.8-2.39-9.88-4.85-15.12-7.32a3.94,3.94,0,1,1,3.36-7.13c5.29,2.5,10.43,5,15.27,7.39a4,4,0,0,1,1.77,5.29A3.81,3.81,0,0,1,561.23,1209.69Zm121-93a3.92,3.92,0,0,1-4.49-.38q-5.81-4.8-11.68-9.76l-1.3-1.1a3.94,3.94,0,1,1,5.08-6l1.3,1.1q5.85,4.92,11.64,9.73a3.94,3.94,0,0,1,.51,5.55A3.6,3.6,0,0,1,682.26,1116.73ZM530.7,1195.27a4,4,0,0,1-3.6.18c-4.93-2.22-10.11-4.51-15.39-6.8a3.94,3.94,0,1,1,3.14-7.23c5.31,2.3,10.53,4.61,15.49,6.85a3.94,3.94,0,0,1,.36,7Zm125.74-100.33a3.93,3.93,0,0,1-4.54-.42c-4.38-3.77-8.68-7.51-12.78-11.12a3.94,3.94,0,0,1,5.21-5.91c4.07,3.58,8.35,7.3,12.71,11a3.94,3.94,0,0,1,.42,5.56A3.88,3.88,0,0,1,656.44,1094.94Zm-156.72,86.88a3.94,3.94,0,0,1-3.5.23c-5.07-2.13-10.31-4.29-15.58-6.44a3.94,3.94,0,1,1,3-7.3c5.29,2.15,10.56,4.33,15.66,6.47a3.93,3.93,0,0,1,.45,7Zm-31.31-12.73a4,4,0,0,1-3.43.25c-5.17-2-10.46-4.11-15.71-6.13a3.94,3.94,0,0,1,2.83-7.36c5.27,2,10.58,4.1,15.78,6.16a3.95,3.95,0,0,1,.53,7.08Zm162.68-96.46a4,4,0,0,1-4.61-.49c-4.34-3.92-8.54-7.77-12.49-11.46a3.94,3.94,0,0,1,5.38-5.77c3.92,3.66,8.09,7.49,12.39,11.38a3.93,3.93,0,0,1,.28,5.56A3.7,3.7,0,0,1,631.09,1072.63Zm-194.23,84.31a3.94,3.94,0,0,1-3.36.28c-5.29-2-10.61-4-15.82-5.85a3.94,3.94,0,0,1,2.7-7.41c5.24,1.91,10.58,3.89,15.89,5.88a3.94,3.94,0,0,1,.59,7.1Zm169.55-107.37a3.93,3.93,0,0,1-4.71-.6c-4.24-4.12-8.29-8.15-12-12a3.94,3.94,0,0,1,5.65-5.5c3.69,3.79,7.69,7.78,11.87,11.85a3.95,3.95,0,0,1-.78,6.25Zm-201.32,95.8a3.94,3.94,0,0,1-3.28.3c-5.7-2-9.46-3.29-10.94-3.77l-.67-.21a2.3,2.3,0,0,1-.34-.12,25.42,25.42,0,0,1-4.63-2.7,3.94,3.94,0,1,1,4.55-6.43,20.14,20.14,0,0,0,3,1.79l.52.16c1.57.51,5.41,1.81,11.17,3.85a3.94,3.94,0,0,1,.66,7.13Zm177.81-120a3.94,3.94,0,0,1-4.89-.77c-4.11-4.55-7.85-8.93-11.12-13a3.94,3.94,0,0,1,6.15-4.93c3.18,4,6.82,8.22,10.82,12.66a3.93,3.93,0,0,1-.29,5.56A3.48,3.48,0,0,1,582.9,1025.33ZM379,1126.24a3.71,3.71,0,0,1-1.38.48,3.93,3.93,0,0,1-4.48-3.31c-.68-4.45,2-9.63,8-15.38l1.86-1.84a3.94,3.94,0,1,1,5.56,5.59l-1.93,1.91c-4.82,4.63-5.84,7.55-5.69,8.55A3.93,3.93,0,0,1,379,1126.24Zm20.67-25.8a3.95,3.95,0,0,1-4.78-6.19c4-4.07,8-8.13,11.76-12a3.94,3.94,0,1,1,5.68,5.47c-3.8,3.94-7.78,8-11.83,12.12A4,4,0,0,1,399.68,1100.44ZM562,998.86a3.94,3.94,0,0,1-5.28-1.28c-1-1.56-2-3.12-2.83-4.62a75.49,75.49,0,0,1-5.33-11.07,3.94,3.94,0,0,1,7.37-2.79,68.36,68.36,0,0,0,4.78,9.91c.81,1.4,1.69,2.84,2.63,4.3a3.94,3.94,0,0,1-1.17,5.45ZM423.1,1076.1a3.94,3.94,0,0,1-4.85-6.11c3.94-4.22,7.77-8.39,11.37-12.39a3.94,3.94,0,1,1,5.86,5.27c-3.64,4-7.5,8.25-11.47,12.5A4.17,4.17,0,0,1,423.1,1076.1ZM445.67,1051a3.94,3.94,0,0,1-5-6c3.78-4.41,7.39-8.75,10.74-12.89a3.94,3.94,0,1,1,6.13,5c-3.39,4.2-7.06,8.59-10.89,13.06A3.92,3.92,0,0,1,445.67,1051Zm21.18-26.31a3.94,3.94,0,0,1-5.13-5.77c3.46-4.63,6.71-9.21,9.66-13.61a3.95,3.95,0,0,1,6.55,4.4c-3,4.5-6.36,9.19-9.89,13.93A4,4,0,0,1,466.85,1024.66Zm81.86-56.72a3.5,3.5,0,0,1-.71.32,4,4,0,0,1-5-2.47l-.6-1.78c-1.69-5-3.28-9.68-4.85-14.16a3.94,3.94,0,1,1,7.44-2.61c1.59,4.52,3.18,9.23,4.87,14.22l.61,1.8A4,4,0,0,1,548.71,967.94ZM485.6,996.59a3.95,3.95,0,0,1-5.39-5.4c2.38-4.08,4.58-8.17,6.54-12.14.41-.83.8-1.65,1.19-2.47a3.94,3.94,0,1,1,7.14,3.33c-.41.87-.82,1.75-1.26,2.63-2,4.14-4.33,8.38-6.79,12.61A4,4,0,0,1,485.6,996.59Zm14-30.67a3.9,3.9,0,0,1-3.18.34,3.94,3.94,0,0,1-2.55-5c1.91-5.95,3.34-11.68,4.37-16a3.94,3.94,0,0,1,7.67,1.83c-1.07,4.46-2.54,10.38-4.53,16.58A3.91,3.91,0,0,1,499.59,965.92Zm37.71-29.78-.46.23a3.94,3.94,0,0,1-5.15-2.13A97.33,97.33,0,0,0,526.31,923c-.62-1.08-1.24-2.07-1.85-3l-.08-.12a3.94,3.94,0,1,1,6.53-4.42c.77,1.12,1.5,2.29,2.23,3.55A105,105,0,0,1,539,931.22,4,4,0,0,1,537.3,936.14ZM508,933.21a3.86,3.86,0,0,1-3,.39,3.94,3.94,0,0,1-2.79-4.83c2.39-8.88,4.53-14.24,9-17.12a3.94,3.94,0,1,1,4.3,6.61c-1.64,1.06-3.23,3.61-5.63,12.56A4,4,0,0,1,508,933.21Z"/><path d="M452.61,1162.93a3.95,3.95,0,0,1-5.07-5.86L458,1143.81a3.94,3.94,0,1,1,6.19,4.88L453.73,1162A4,4,0,0,1,452.61,1162.93Zm20.92-26.53a3.95,3.95,0,0,1-5.07-5.86l10.46-13.26a3.94,3.94,0,1,1,6.19,4.88l-10.46,13.26A4,4,0,0,1,473.53,1136.4Zm20.92-26.53a3.95,3.95,0,0,1-5.07-5.86l10.47-13.26a3.94,3.94,0,0,1,6.19,4.88l-10.47,13.27A3.83,3.83,0,0,1,494.45,1109.87Zm20.92-26.53a3.94,3.94,0,0,1-5.06-5.86l10.46-13.26a3.94,3.94,0,0,1,6.19,4.88l-10.46,13.27A4,4,0,0,1,515.37,1083.34Zm20.92-26.53a3.94,3.94,0,0,1-5.06-5.85l10.46-13.27a3.94,3.94,0,0,1,6.19,4.88l-10.46,13.27A3.87,3.87,0,0,1,536.29,1056.81Zm20.93-26.53a3.94,3.94,0,0,1-5.07-5.85l10.46-13.27a3.94,3.94,0,0,1,6.19,4.88l-10.46,13.27A4,4,0,0,1,557.22,1030.28Z"/><g class="cls-15"><path class="cls-6" d="M408.66,1047.13s-24.29-20.59-22.34-45.69C386.32,1001.44,375.28,1032.76,408.66,1047.13Z"/></g><g class="cls-15"><path class="cls-6" d="M400.89,1003a49.07,49.07,0,0,0,32.23,8Z"/></g><g class="cls-7"><path d="M491.34,1057.5s-21.43,19.69-50.76-23.15-25.39-57.59-9.49-68.48C431.09,965.87,436.87,1010.58,491.34,1057.5Z"/></g><g class="cls-15"><path class="cls-6" d="M444.38,943.68s14.9-8,26.56-.81C470.94,942.87,453.38,946.68,444.38,943.68Z"/></g><g class="cls-7"><path d="M438.73,1116.32s-31.42,27.12-88.71-39.13C344.88,1068.28,403.74,1073.22,438.73,1116.32Z"/></g><path class="cls-13" d="M491.34,1057.5a13.32,13.32,0,0,1-15.88-1.93c-1-.93-23.88-23-35.36-45.21-1.05-2-2.18-4.21-3.36-6.47-20.32-39-26.71-53.73-24.53-63.75a13.33,13.33,0,0,1,26.29,4.16c1.22,7.57,15.13,34.3,21.89,47.28,1.19,2.28,2.33,4.47,3.4,6.54,9.46,18.3,29.91,38,30.12,38.2a13.34,13.34,0,0,1-2.57,21.18ZM438.26,945.8h0Z"/><path d="M494.16,1062.38a19.07,19.07,0,0,1-22.6-2.74c-1-1-24.59-23.73-36.46-46.69l-2.7-5.21-.66-1.26c-21.36-41.05-27.61-55.72-25-67.54a19,19,0,0,1,37.47,5c1.73,7.58,15.82,34.64,21.21,45l.45.86,3,5.7c9,17.43,28.81,36.53,29,36.72a19,19,0,0,1-3.64,30.13ZM421.39,936.3l-.32.2a7.62,7.62,0,0,0-3.36,4.84c-1.82,8.37,5.59,24.53,24,59.95l.65,1.26,2.72,5.23c11,21.32,33.3,42.83,34.25,43.73a7.74,7.74,0,0,0,9.17,1.11,7.61,7.61,0,0,0,1.71-1.34,7.71,7.71,0,0,0-.23-10.89c-.2-.19-21.25-20.38-31.23-39.69L455.84,995l-.45-.85c-12.65-24.32-21.32-42-22.45-49h0l-.27-.05.15-.8h0l.06-.61a7.7,7.7,0,0,0-11.5-7.43Z"/><path class="cls-13" d="M438.73,1116.32a13.35,13.35,0,0,1-11.59.85c-2.38-1-58.62-23.65-88.65-66.49a13.33,13.33,0,0,1,21.84-15.3c25.38,36.22,76.16,56.81,76.67,57a13.34,13.34,0,0,1,1.73,23.93Z"/><path d="M441.54,1121.19a18.86,18.86,0,0,1-16.48,1.21c-2.44-1-60.16-24.24-91.18-68.49a19,19,0,0,1,4.65-26.41,19,19,0,0,1,26.41,4.65c24.31,34.69,73.65,54.82,74.15,55a19,19,0,0,1,2.45,34Zm-96-84.84c-.19.12-.39.24-.57.37a7.71,7.71,0,0,0-1.89,10.73c29.09,41.52,83.79,63.56,86.11,64.48a7.69,7.69,0,0,0,10-4.31,7.71,7.71,0,0,0-4.3-10c-.52-.2-52.79-21.33-79.19-59a7.73,7.73,0,0,0-10.15-2.26Z"/><g class="cls-15"><path class="cls-6" d="M417.34,1088.94s-25.31-6-63.62-48.89C353.72,1040.05,382.26,1086.83,417.34,1088.94Z"/></g><g class="cls-15"><path class="cls-6" d="M489.35,1040.89s-35.41-30.45-57.28-92C432.07,948.87,444.9,1010.28,489.35,1040.89Z"/></g><path class="cls-13" d="M523.08,978.57a13.32,13.32,0,0,1-16.21-2.26c-1.25-1.27-30.59-31.58-42.67-57.09-12-25.28-14.68-42.72-14.79-43.45a13.33,13.33,0,1,1,26.36-4c0,.1,2.39,14.6,12.53,36,8.47,17.88,30.07,42.09,37.67,49.91a13.33,13.33,0,0,1-.25,18.85A13.51,13.51,0,0,1,523.08,978.57Z"/><path d="M525.89,983.45a18.93,18.93,0,0,1-23.06-3.21c-1.27-1.3-31.24-32.26-43.71-58.61-12.05-25.43-15-43.08-15.28-45a19,19,0,1,1,37.5-5.66c0,.08,2.4,14,12.05,34.45,8.13,17.17,29.19,40.75,36.62,48.38a19,19,0,0,1-.37,26.82A19.18,19.18,0,0,1,525.89,983.45ZM458.75,867.11a7.71,7.71,0,0,0-3.77,7.82c.1.69,2.76,17.48,14.31,41.88,11.69,24.68,40.39,54.33,41.61,55.58a7.7,7.7,0,0,0,11-10.74c-7.79-8-29.94-32.86-38.73-51.43-10.47-22.13-13-37.43-13-37.58a7.71,7.71,0,0,0-11.46-5.53Z"/><g class="cls-15"><path class="cls-6" d="M522.2,963.12s-43-35.82-54.21-93.9C468,869.22,470.82,931.19,522.2,963.12Z"/></g><path d="M644.8,1251.38q-115,66.4-215.21,115.57c-174.22,85.45-313,130.43-412.4,133.68a5.63,5.63,0,1,1-.37-11.25c97.83-3.2,235-47.8,407.81-132.54,138.59-68,300.1-161.75,480-278.71,306.49-199.22,563.47-399.27,566-401.27a5.63,5.63,0,0,1,6.93,8.88c-2.57,2-259.93,202.35-566.83,401.83Q770,1179.09,644.8,1251.38Z"/><g class="cls-15"><path class="cls-6" d="M606.72,903.3s-62.42-49.15-97.87-113.88C508.85,789.42,530.29,860.33,606.72,903.3Z"/></g><g class="cls-15"><path class="cls-6" d="M628.78,805.75s-60.45-59.08-65.19-104C563.59,701.78,554.47,755,628.78,805.75Z"/></g><g class="cls-15"><path class="cls-6" d="M628.35,681.56S593,677.25,576.5,692.23C576.5,692.23,605,689.66,628.35,681.56Z"/></g><g class="cls-15"><path class="cls-6" d="M712.4,713.86S674,664.28,645.46,645.32C625.91,632.46,592.6,602,592.6,602s3.15,12.25,61.77,58.8C666.44,669.18,712.4,713.86,712.4,713.86Z"/></g><g class="cls-15"><path class="cls-6" d="M725.62,556.71s-87.81,17.8-133.8,8.28C591.82,565,644.63,582.55,725.62,556.71Z"/></g><g class="cls-15"><path class="cls-6" d="M702.44,474.34l-54.87,37.14S686.05,506.76,702.44,474.34Z"/></g><g class="cls-15"><path class="cls-6" d="M1016,278.71s-72.51,40.45-185.36,65.07C830.63,343.78,939.94,341,1016,278.71Z"/></g><g class="cls-7"><path d="M427.14,1117.17a13.33,13.33,0,0,0,9.86-24.78c-.09,0-1.64-.66-4.24-1.84-1.55,7-8,15.56-30.24,14.56A225.61,225.61,0,0,0,427.14,1117.17Z"/></g></g></g></svg>