<?xml version="1.0" standalone="no"?>
<!DOCTYPE svg PUBLIC "-//W3C//DTD SVG 1.1//EN" "http://www.w3.org/Graphics/SVG/1.1/DTD/svg11.dtd">
<svg xmlns="http://www.w3.org/2000/svg" viewBox="0 0 1542.79 1757.15" width="1542.7900390625" height="1757.1500244140625"><defs><style>.cls-1{fill:#eda7ae;}.cls-2{fill:#e5e2dc;}.cls-3{fill:#b9b6b2;}.cls-4{fill:#212121;}.cls-5{opacity:0.15;}.cls-6{fill:#fff;}.cls-7{opacity:0.5;}.cls-8{fill:#d12435;}.cls-9{opacity:0.4;}.cls-10{fill:#cecbc6;}.cls-11{opacity:0.2;}.cls-12{opacity:0.08;}.cls-13{fill:#262626;}.cls-14{opacity:0.1;}</style></defs><g id="Layer_2" data-name="Layer 2"><g id="OBJECT"><path class="cls-1" d="M565.18,1540.39h0a72.12,72.12,0,0,1-72.13-72.12V359.53a72.13,72.13,0,0,1,72.13-72.13h0a72.12,72.12,0,0,1,72.12,72.13V1468.27A72.12,72.12,0,0,1,565.18,1540.39Z"/><path class="cls-1" d="M387.59,1757.15h0a36.05,36.05,0,0,1-36.06-36.06V304.25a36.06,36.06,0,0,1,36.06-36.06h0a36.05,36.05,0,0,1,36.06,36.06V1721.09A36.05,36.05,0,0,1,387.59,1757.15Z"/><path class="cls-1" d="M726.88,1547.61h0a20.11,20.11,0,0,1-20.12-20.11V137.19a20.11,20.11,0,0,1,20.12-20.11h0A20.11,20.11,0,0,1,747,137.19V1527.5A20.11,20.11,0,0,1,726.88,1547.61Z"/><path class="cls-1" d="M1062.78,1716.53h0a20.11,20.11,0,0,1-20.12-20.11V337.33a20.12,20.12,0,0,1,20.12-20.11h0a20.11,20.11,0,0,1,20.11,20.11V1696.42A20.11,20.11,0,0,1,1062.78,1716.53Z"/><path class="cls-1" d="M1176.41,1269.83h0a20.11,20.11,0,0,1-20.11-20.11V36.87a20.11,20.11,0,0,1,20.11-20.12h0a20.12,20.12,0,0,1,20.12,20.12V1249.72A20.11,20.11,0,0,1,1176.41,1269.83Z"/><rect class="cls-1" x="823.54" width="144.25" height="1380.22" rx="35.44"/><rect class="cls-1" x="147.58" y="674.48" width="144.25" height="969.59" rx="35.44"/><circle class="cls-1" cx="219.36" cy="506.8" r="72.47" transform="translate(-324.63 601.87) rotate(-76.51)"/><rect class="cls-1" x="1275.28" y="156.32" width="144.25" height="1147.33" rx="35.44" transform="translate(2694.8 1459.97) rotate(180)"/><circle class="cls-1" cx="895.67" cy="1498.05" r="72.12" transform="translate(-796.95 1072.1) rotate(-45)"/><path class="cls-2" d="M1527.49,784.3c-15.69,15-243.42,199.6-718.38,460.81S136.64,1535.85,76.7,1524.94s-83.44-84.7-60.17-104.23c0,0-27.21-111.89,52.65-136.85,0,0,263.89-198.18,417.61-489.33,113.68-215.34,94-283.61,76-304.57a71,71,0,0,1-16.7-36.17c-6.6-46.58-17.35-143.42-5.51-215.76.69-19.91,33-17.44,42.83-18.23,0,0,54.3,1.15,77.3,2.51s90.85.64,124.92,70.9l-4.38,4.15c169-34.09,220.81-78.85,245.33-94.5,26.72-17.06,33,14,33,14s12.79-2.24,33.82,22.19c4.4,5.13,10.91,12.18,18.46,20.11,28.43,30,71.5,72.61,71.5,72.61l5.26-3.57s13.43,17.17,17.21,19c.74.36,2.2,1.06,4.2,2.18,8.39,4.65,26.48,16.41,42.48,39.95,0,0,8.71-9.09,16-1.65s26,26.57,35,45.73c0,0,5.8-3.35,9.72,4.15s117.6,160.06,119.84,192.09c0,0,21.24-6.85,29.66,28.38l67.19,96.66S1543.2,769.28,1527.49,784.3Z"/><path class="cls-3" d="M1209.26,349l-2.81,1.42c-14.3,3.86-72.68,18-191.69,28.29l-11.84,1c-12.95-17.59.46-43,58.47-56.41,44.62-10.3,65.76-24.93,75.32-38.39,23.53,24,46.62,46.87,46.62,46.87l5.26-3.57s13.43,17.17,17.21,19C1206.45,347.55,1207.63,348.12,1209.26,349Z"/><path class="cls-4" d="M329.48,1153.31c.95,1.64.09,3.91-1.91,5.06s-4.4.77-5.35-.87-.09-3.91,1.92-5.07S328.54,1151.66,329.48,1153.31Z"/><path class="cls-4" d="M311.07,1138.2c.95,1.64.09,3.91-1.91,5.07s-4.4.76-5.35-.88-.09-3.91,1.92-5.07S310.13,1136.56,311.07,1138.2Z"/><path class="cls-4" d="M293.84,1125.12c1,1.64.09,3.91-1.92,5.07s-4.4.77-5.34-.87-.09-3.91,1.91-5.07S292.89,1123.48,293.84,1125.12Z"/><path class="cls-4" d="M282.17,1115.06c.95,1.64.09,3.91-1.91,5.07s-4.4.77-5.35-.87-.09-3.91,1.92-5.07S281.23,1113.42,282.17,1115.06Z"/><path class="cls-4" d="M272.56,1106.8c.95,1.64.09,3.91-1.92,5.07s-4.4.76-5.35-.88-.08-3.91,1.92-5.07S271.61,1105.16,272.56,1106.8Z"/><path class="cls-4" d="M267.6,1177.93c.95,1.64.09,3.91-1.92,5.07s-4.4.76-5.34-.88-.09-3.91,1.91-5.07S266.65,1176.29,267.6,1177.93Z"/><path class="cls-4" d="M252.71,1160.52c.94,1.64.09,3.91-1.92,5.07s-4.4.76-5.35-.88-.09-3.91,1.92-5.07S251.76,1158.88,252.71,1160.52Z"/><path class="cls-4" d="M244.1,1148.42c1,1.64.09,3.91-1.92,5.07s-4.4.77-5.35-.87-.09-3.91,1.92-5.07S243.15,1146.78,244.1,1148.42Z"/><path class="cls-4" d="M239.17,1139.89c1,1.64.09,3.91-1.92,5.07s-4.4.77-5.34-.88-.09-3.91,1.91-5.06S238.22,1138.25,239.17,1139.89Z"/><path class="cls-4" d="M223.74,1203.25c.95,1.64.09,3.91-1.92,5.07s-4.4.76-5.34-.88-.09-3.91,1.91-5.06S222.79,1201.61,223.74,1203.25Z"/><path class="cls-4" d="M231.46,1176.75c.95,1.64.09,3.91-1.91,5.06s-4.4.77-5.35-.87-.09-3.91,1.92-5.07S230.52,1175.1,231.46,1176.75Z"/><path class="cls-4" d="M222.18,1162.54c.94,1.64.09,3.91-1.92,5.06s-4.4.77-5.35-.87-.09-3.91,1.92-5.07S221.23,1160.89,222.18,1162.54Z"/><path class="cls-4" d="M205.38,1184.12c1,1.64.09,3.91-1.92,5.07s-4.4.76-5.34-.88-.09-3.91,1.91-5.07S204.43,1182.48,205.38,1184.12Z"/><path class="cls-4" d="M191.52,1208.91c.95,1.65.09,3.91-1.91,5.07s-4.4.77-5.35-.87-.09-3.91,1.92-5.07S190.58,1207.27,191.52,1208.91Z"/><path class="cls-4" d="M179.45,1235.39c1,1.64.09,3.91-1.92,5.07s-4.4.77-5.35-.88-.09-3.91,1.92-5.06S178.5,1233.75,179.45,1235.39Z"/><path class="cls-4" d="M125.5,1270.5c.94,1.64.08,3.91-1.92,5.07s-4.4.77-5.35-.87-.09-3.91,1.92-5.07S124.55,1268.86,125.5,1270.5Z"/><path class="cls-4" d="M90.3,1288.21c1,1.65.09,3.91-1.92,5.07s-4.4.77-5.34-.87-.09-3.91,1.91-5.07S89.35,1286.57,90.3,1288.21Z"/><path class="cls-4" d="M118.74,1254.9c1,1.64.09,3.91-1.91,5.06s-4.4.77-5.35-.87-.09-3.91,1.91-5.07S117.8,1253.26,118.74,1254.9Z"/><path class="cls-4" d="M146.31,1239c.94,1.64.09,3.91-1.92,5.07s-4.4.77-5.35-.87-.09-3.91,1.92-5.07S145.36,1237.34,146.31,1239Z"/><path class="cls-4" d="M170.12,1208.44c.95,1.64.09,3.91-1.92,5.07s-4.4.76-5.35-.88-.09-3.91,1.92-5.07S169.17,1206.8,170.12,1208.44Z"/><g class="cls-5"><path d="M614.36,373s-5.84-52.87,31-69.37S763.32,272,787.78,296C787.78,296,602.81,327.67,614.36,373Z"/></g><g class="cls-5"><path d="M1023.44,901.44c3.45,5.37-53.37,48.06-126.91,95.36s-136,81.3-139.42,75.93,53.37-48.06,126.92-95.36S1020,896.07,1023.44,901.44Z"/></g><g class="cls-5"><path d="M1022.55,696.64c.42,6.37-70,16.21-157.22,22S707,723.89,706.58,717.52s70-16.2,157.23-22S1022.13,690.28,1022.55,696.64Z"/></g><g class="cls-5"><path d="M1275.85,415.56s-34,10.57-72.95,61.35-99,166.3-99,166.3,94.49-93.93,129.08-148S1275.85,415.56,1275.85,415.56Z"/></g><path class="cls-6" d="M719.8,770.45s-16.34,16.22-33.32,52.34S645,931.48,645,931.48,687.49,857.13,702.17,821,719.8,770.45,719.8,770.45Z"/><g class="cls-5"><path d="M1409.75,683.38s-94.43,34.52-250.4,177.24C1159.35,860.62,1304.78,803.72,1409.75,683.38Z"/></g><g class="cls-7"><path d="M736.89,682.62s-69.42,20.84-79.78,83c0,0,10.25-8.28,14.62-14.87C681.12,738.39,678.62,723.16,736.89,682.62Z"/></g><path class="cls-4" d="M1529.92,754.73l-7.22-10.4s-34.48,44.91-206.57,156.45-530.74,331.41-844.61,469.05c-182.84,80.27-351,112.2-449.23,118.38h0c11.63,17.39,30,32.27,54.42,36.72,59.93,10.9,257.44-18.61,732.4-279.82s702.68-445.79,718.39-460.81S1529.92,754.73,1529.92,754.73Z"/><path d="M956.39,1168.42q-67.78,39.15-144.64,81.49c-209,115-384.91,196.51-522.75,242.36-130,43.23-189.4,42.4-213.27,38-23.41-4.26-44-18.13-58-39.06a5.48,5.48,0,0,1,4.21-8.51c49-3.08,225.86-20.69,447.37-117.94,346.69-152,733.53-397.12,843.83-468.62C1481.68,787,1518,741.43,1518.36,741a5.5,5.5,0,0,1,4.48-2.11,5.45,5.45,0,0,1,4.35,2.34l7,10.12c5.78,6.58,12.3,22.34-3,36.93-6.37,6.09-64.6,54.7-187.67,138.65C1260,983.93,1130.74,1067.77,956.39,1168.42ZM32.7,1493c11.88,14.09,27.56,23.42,45,26.59,18.38,3.35,75.45,6.38,207.86-37.67C422.75,1436.24,598,1355,806.47,1240.32c248.53-136.68,425.92-250.79,531-322.45C1458.33,835.41,1517.8,786,1523.71,780.35c11.51-11,3.16-20.84,2.17-21.93a6.26,6.26,0,0,1-.45-.57l-3.25-4.66c-14.17,15.07-63.5,61.72-203.07,152.19-110.48,71.61-497.95,317.1-845.4,469.46C263.7,1467,93.23,1488.2,32.7,1493Z"/><g class="cls-7"><path d="M1530.28,757.46s-32.38,34.09-199.36,142.95-257.56,170.5-329.25,215.71c0,0,167.28-88.27,329.19-197.24S1530.28,757.46,1530.28,757.46Z"/></g><path class="cls-8" d="M407,1105.87s.74,9.89,14,18.76c8.29,5,47.25,37.73,16,60.63s-47.76-21.73-105.37,6.11-136.82,79.27-204.88,106.37-108.85,28.17-57.59-13.88c-79.85,25-52.64,136.85-52.64,136.85,145.18-4.75,359.06-100.58,576.86-224C561.05,1166,460,1125.83,406.86,1106.19"/><g class="cls-9"><path class="cls-6" d="M304,1222.88s-35.4,22.21-70.83,37.79-71.16,45.7-71.16,45.7,29.58.52,83.59-38.25S304,1222.88,304,1222.88Z"/></g><path class="cls-10" d="M1210,349.42s-1.16.35-3.55,1c-14.3,3.86-72.68,18-191.69,28.29l-11.84,1C862,391.37,624.53,403.58,624.53,403.58l2-22.34c23.65-10,54.14-17.41,91.62-24.12,54.23-9.7,123.09-17.83,207-29.74,98.28-13.94,155.15-43.79,186.65-68.22,7.61,8,16.27,17,24.88,25.74,23.53,24,46.62,46.87,46.62,46.87l5.26-3.57s13.43,17.17,17.21,19c.65.31,1.83.88,3.46,1.76Z"/><path class="cls-4" d="M625.19,445.16c-23-92-20.44-119.86,107.54-138.89,207.92-34.71,267.1-86.35,293.82-103.41s33,14,33,14S981.4,296.39,738,333.7c-95.52,16.14-106.37,33.54-106,67.55Z"/><path class="cls-8" d="M1313.24,437.6c-3.92-7.49-9.71-4.15-9.71-4.15S1211,551.89,1138.65,654.61s-9.09,198-9.09,198c179.26-126,303.52-223,303.52-223C1430.84,597.66,1317.15,445.09,1313.24,437.6Z"/><g class="cls-11"><path d="M1303.7,450s88.58,93.53,117.77,159.57c10.52,28.78-13.18,38.67-237,187.31,0,0,51.08-46.65,123-109.3s73-82,45.84-134.55S1303.7,450,1303.7,450Z"/></g><g class="cls-9"><path class="cls-6" d="M1139.16,769.7a37.45,37.45,0,0,1-4.67-9.88,66.16,66.16,0,0,1-2.47-10.7,87.49,87.49,0,0,1-.35-21.93,112.28,112.28,0,0,1,4.39-21.4,142.53,142.53,0,0,1,8-20.14,157.1,157.1,0,0,1,24-35.29c2.41-2.6,4.86-5.16,7.39-7.63s5.2-4.79,7.9-7.08,5.53-4.43,8.43-6.47,5.93-4,9.1-5.72c-1.35,3.39-2.88,6.58-4.46,9.69s-3.1,6.25-4.72,9.28-3.13,6.1-4.79,9-3.16,6-4.81,8.89c-6.36,11.78-12.58,23.31-18.36,34.93-2.82,5.84-5.56,11.68-8.14,17.58s-4.91,11.89-7.1,18-4.12,12.29-5.73,18.7A119.55,119.55,0,0,0,1139.16,769.7Z"/></g><path class="cls-8" d="M577.61,243.16c-17.74-.08-32.65,0-37.93.51h0c-10.41,71.67,0,164.74,6.39,210.12l50-.76,0,0C547.05,372.43,577.61,243.16,577.61,243.16Z"/><g class="cls-9"><path class="cls-6" d="M548.82,404.05s-11-88.52-3.11-102.05C545.71,302,557.69,357.54,548.82,404.05Z"/></g><g class="cls-9"><path class="cls-6" d="M30.31,1390s-9.14-50.28,13.62-71c0,0,2.87,5-4,22.53S30.31,1390,30.31,1390Z"/></g><path d="M972.44,1117.25c-151.41,87.42-329.8,183.51-498.73,257.59-223.15,98-401.67,115.73-451.07,118.84a5.48,5.48,0,1,1-.69-10.93c49-3.08,225.86-20.69,447.37-117.94,346.69-152,733.53-397.12,843.83-468.62C1481.68,787,1518,741.43,1518.36,741a5.48,5.48,0,0,1,8.68,6.69c-1.43,1.86-37,46.92-207.93,157.71C1262.34,942.17,1132.45,1024.87,972.44,1117.25Z"/><path d="M649.34,1215.55h0c-16.06,9.24-32.11,18.35-47.69,27.06a5.48,5.48,0,0,1-5.41-9.52l.06,0c15.55-8.7,31.56-17.78,47.58-27a5.48,5.48,0,0,1,5.47,9.49Zm23.7-13.73a5.47,5.47,0,0,1-5.49-9.47c15.47-9,31.34-18.39,47.14-27.83l.07,0a5.47,5.47,0,0,1,5.54,9.44c-15.83,9.46-31.73,18.84-47.24,27.89Zm-95.33,54.06-.1.06c-16.23,8.93-32.45,17.72-48.22,26.1a5.47,5.47,0,1,1-5.14-9.66c15.72-8.37,31.9-17.12,48.08-26a5.47,5.47,0,0,1,5.38,9.53Zm166-96a5.48,5.48,0,0,1-5.57-9.43c15.32-9.26,31-18.85,46.69-28.52a5.48,5.48,0,0,1,5.75,9.32c-15.69,9.68-31.43,19.29-46.78,28.57Zm69.95-43a5.47,5.47,0,0,1-5.63-9.39c15.26-9.51,30.85-19.32,46.33-29.15a5.47,5.47,0,0,1,5.87,9.24c-15.5,9.85-31.12,19.67-46.4,29.2ZM505.34,1294.71l-.21.11c-16.47,8.6-32.9,17-48.83,25a5.47,5.47,0,1,1-4.9-9.79c15.87-7.94,32.25-16.31,48.67-24.88a5.47,5.47,0,0,1,5.27,9.59ZM883.13,1073a5.47,5.47,0,0,1-5.68-9.35c15.18-9.73,30.64-19.73,46-29.72a5.47,5.47,0,0,1,6,9.17c-15.35,10-30.84,20-46,29.77ZM432.05,1331.77l-.34.18c-16.77,8.19-33.44,16.12-49.54,23.57a5.47,5.47,0,1,1-4.6-9.93c16-7.42,32.63-15.32,49.33-23.48a5.48,5.48,0,0,1,5.15,9.66Zm520-303.53a5.47,5.47,0,0,1-5.73-9.32c15-9.86,30.35-20,45.64-30.23a5.47,5.47,0,1,1,6.08,9.1c-15.32,10.22-30.69,20.41-45.71,30.28ZM357.7,1366.65a4.66,4.66,0,0,1-.5.25c-17.09,7.67-34,15-50.37,21.82a5.47,5.47,0,0,1-4.22-10.1c16.25-6.78,33.11-14.08,50.11-21.7a5.47,5.47,0,0,1,5,9.73Zm662.79-383.91a5.47,5.47,0,0,1-5.79-9.28c14.91-10,30.16-20.36,45.34-30.7a5.47,5.47,0,1,1,6.16,9c-15.19,10.36-30.46,20.7-45.39,30.74Zm68-46.18a5.48,5.48,0,0,1-5.83-9.26c15-10.27,30.11-20.75,45.05-31.14a5.47,5.47,0,1,1,6.25,9c-15,10.4-30.12,20.89-45.1,31.18C1088.7,936.41,1088.58,936.49,1088.45,936.56Zm-806.33,462.2a5.93,5.93,0,0,1-.72.34c-17.5,7-34.78,13.56-51.36,19.51a5.47,5.47,0,1,1-3.7-10.3c16.46-5.91,33.62-12.43,51-19.37a5.47,5.47,0,0,1,4.78,9.82Zm873.86-509a5.47,5.47,0,0,1-5.87-9.23c14.86-10.41,29.92-21,44.76-31.55a5.48,5.48,0,1,1,6.34,8.93c-14.86,10.54-29.94,21.17-44.82,31.59Zm67.11-47.45a5.47,5.47,0,0,1-5.91-9.2c14.85-10.6,29.81-21.35,44.48-32a5.48,5.48,0,0,1,6.41,8.88c-14.68,10.61-29.66,21.38-44.53,32Zm-1018,584.93a5.65,5.65,0,0,1-1,.45c-18,6-35.68,11.54-52.54,16.3a5.48,5.48,0,1,1-3-10.54c16.69-4.71,34.2-10.14,52-16.14a5.48,5.48,0,0,1,4.49,9.93Zm1084.7-633a5.47,5.47,0,0,1-6-9.17c14.67-10.67,29.54-21.56,44.2-32.35a5.47,5.47,0,1,1,6.49,8.81c-14.67,10.81-29.56,21.71-44.25,32.39C1290.11,794,1289.94,794.11,1289.78,794.21ZM1356,745.55a5.47,5.47,0,0,1-6-9.14c14.86-11,29.63-22,43.9-32.77a5.47,5.47,0,0,1,6.58,8.75c-14.29,10.74-29.07,21.78-44,32.81A3.74,3.74,0,0,1,1356,745.55ZM126.34,1450.48a5.48,5.48,0,0,1-1.41.57c-18.65,4.68-36.8,8.55-53.92,11.52a5.48,5.48,0,0,1-1.87-10.79c16.86-2.92,34.74-6.74,53.13-11.35a5.47,5.47,0,0,1,4.07,10ZM1421.86,696.23a5.48,5.48,0,0,1-6-9.11c27.72-21,43.4-33.24,43.55-33.36a5.47,5.47,0,1,1,6.74,8.62c-.16.13-15.89,12.4-43.68,33.47A6.27,6.27,0,0,1,1421.86,696.23ZM45.74,1466a5.24,5.24,0,0,1-2.05.69c-11.16,1.4-22.11,2.4-32.54,3a5.47,5.47,0,0,1-.62-10.93c10.19-.57,20.89-1.55,31.8-2.91A5.47,5.47,0,0,1,45.74,1466Z"/><path d="M1143.23,831.61a3,3,0,0,1-.31.15,3.83,3.83,0,0,1-5.09-1.85c-2.32-5-4.44-10.23-6.31-15.57a3.83,3.83,0,1,1,7.23-2.53c1.79,5.1,3.82,10.11,6,14.86A3.83,3.83,0,0,1,1143.23,831.61Zm-10.84-31a3.86,3.86,0,0,1-5.65-2.41c-.89-3.67-1.67-7.39-2.31-11.06-.31-1.81-.6-3.64-.85-5.44a3.83,3.83,0,0,1,7.59-1.07c.24,1.72.51,3.47.81,5.19.61,3.51,1.36,7.06,2.21,10.56A3.85,3.85,0,0,1,1132.39,800.65Zm-4.56-32.47a3.65,3.65,0,0,1-1.77.51,3.83,3.83,0,0,1-4-3.69,157,157,0,0,1,.3-16.82,3.84,3.84,0,0,1,7.65.56,146.57,146.57,0,0,0-.29,16A3.83,3.83,0,0,1,1127.83,768.18Zm2.4-32.68a3.77,3.77,0,0,1-2.61.45,3.83,3.83,0,0,1-3.07-4.47,157.55,157.55,0,0,1,4-16.35,3.83,3.83,0,1,1,7.34,2.22,143.91,143.91,0,0,0-3.78,15.53A3.84,3.84,0,0,1,1130.23,735.5Zm9.46-31.38a3.84,3.84,0,0,1-5.45-4.81c2.13-5.07,4.58-10.16,7.27-15.13a3.83,3.83,0,1,1,6.74,3.65c-2.57,4.75-4.91,9.61-7,14.45A3.78,3.78,0,0,1,1139.69,704.12Zm15.56-28.87a3.83,3.83,0,0,1-5.12-5.43c1.06-1.6,2.17-3.22,3.29-4.81,2-2.9,4.11-5.83,6.19-8.76a3.83,3.83,0,1,1,6.25,4.44q-3.12,4.38-6.18,8.74c-1.08,1.53-2.14,3.08-3.16,4.62A3.73,3.73,0,0,1,1155.25,675.25Zm18.94-26.85a3.83,3.83,0,0,1-5-5.55q4.77-6.66,9.6-13.35A3.83,3.83,0,1,1,1185,634q-4.83,6.67-9.59,13.34A3.85,3.85,0,0,1,1174.19,648.4Zm19.25-26.66a3.83,3.83,0,0,1-5-5.57q4.85-6.66,9.7-13.28a3.83,3.83,0,1,1,6.18,4.53q-4.85,6.6-9.68,13.26A3.72,3.72,0,0,1,1193.44,621.74Zm19.42-26.51a3.83,3.83,0,0,1-5-5.59q4.91-6.67,9.78-13.23a3.83,3.83,0,1,1,6.15,4.56L1214,594.18A4,4,0,0,1,1212.86,595.23Zm19.58-26.41a3.83,3.83,0,0,1-5-5.61q5-6.68,9.85-13.17a3.83,3.83,0,1,1,6.13,4.59q-4.86,6.48-9.83,13.16A3.9,3.9,0,0,1,1232.44,568.82Zm19.71-26.31a3.84,3.84,0,0,1-5-5.63l9.91-13.13a3.83,3.83,0,0,1,6.11,4.63q-4.85,6.39-9.9,13.11A3.8,3.8,0,0,1,1252.15,542.51ZM1272,516.28a3.83,3.83,0,0,1-5-5.64l10-13.09a3.84,3.84,0,0,1,6.1,4.65q-4.78,6.27-10,13.08A3.83,3.83,0,0,1,1272,516.28Zm19.94-26.15a3.83,3.83,0,0,1-5-5.64c3.6-4.7,7-9.07,10-13.05a3.83,3.83,0,1,1,6.07,4.67c-3.06,4-6.41,8.34-10,13A3.72,3.72,0,0,1,1291.92,490.13ZM1312,464.07a3.84,3.84,0,0,1-5-5.67l10.1-13a3.83,3.83,0,0,1,6,4.71c-1.36,1.74-4.87,6.25-10.09,13A3.69,3.69,0,0,1,1312,464.07Z"/><path d="M1129.56,852.66a146.26,146.26,0,0,1-14.64-26.74,179.16,179.16,0,0,1-14.36-59.63,171,171,0,0,1,.85-31c.35-2.56.66-5.14,1.06-7.71l1.44-7.66c.51-2.55,1.22-5,1.83-7.58s1.39-5,2.15-7.49,1.5-5,2.46-7.4,1.78-4.89,2.75-7.3l3.13-7.14.78-1.79c.27-.59.58-1.16.87-1.74l1.75-3.48c2.24-4.71,5-9.12,7.56-13.62,1.33-2.24,2.82-4.36,4.22-6.54s2.84-4.38,4.3-6.41c5.85-8.29,11.67-16.59,17.59-24.82q35.49-49.4,73-97.2c25-31.91,50.52-63.38,77.18-93.95-23.06,33.36-46.68,66.25-70.35,99.09l-71,98.45c-6,8.17-11.76,16.44-17.65,24.65-1.52,2.05-2.85,4.1-4.24,6.14s-2.81,4.06-4.09,6.17c-2.51,4.24-5.17,8.41-7.38,12.81l-1.74,3.26c-.28.55-.59,1.08-.86,1.64l-.77,1.67-3.11,6.7c-1,2.27-1.84,4.57-2.78,6.85s-1.73,4.6-2.53,6.93a170.68,170.68,0,0,0-7.2,28.65,180.56,180.56,0,0,0,.59,59.26c.79,4.93,1.88,9.81,3.07,14.68s2.64,9.68,4.24,14.44,3.32,9.5,5.3,14.14A140.3,140.3,0,0,0,1129.56,852.66Z"/><path d="M445.1,1210.61l0,0a56.36,56.36,0,0,1-16.43,6.15,3.83,3.83,0,0,1-1.5-7.52,48.8,48.8,0,0,0,14.19-5.32,3.83,3.83,0,0,1,3.78,6.67Zm13.16-9.75a3.84,3.84,0,0,1-4.59-6.07,46.05,46.05,0,0,0,9-12.1,3.83,3.83,0,0,1,6.83,3.47,53.78,53.78,0,0,1-10.5,14.12A4.14,4.14,0,0,1,458.26,1200.86Zm-44.81,16a3.87,3.87,0,0,1-2.36.48,91.81,91.81,0,0,1-16.68-3.82,3.83,3.83,0,0,1,2.29-7.31,84.91,84.91,0,0,0,15.29,3.52,3.83,3.83,0,0,1,1.46,7.13Zm59.11-44.81a3.89,3.89,0,0,1-2.27.5,3.85,3.85,0,0,1-3.46-4.17,40.57,40.57,0,0,0,.13-5.63,44.8,44.8,0,0,0-1.46-9.31,3.83,3.83,0,1,1,7.4-2,51.34,51.34,0,0,1,1.71,10.91,46.69,46.69,0,0,1-.15,6.7A3.83,3.83,0,0,1,472.56,1172.07Zm-90.81,36.41a3.81,3.81,0,0,1-2.77.42,44.26,44.26,0,0,0-15-1,3.83,3.83,0,0,1-.83-7.62,51.48,51.48,0,0,1,17.56,1.16,3.83,3.83,0,0,1,1.06,7Zm-32.11,3a3.54,3.54,0,0,1-.52.25c-2,.79-4.12,1.73-6.28,2.77-2.64,1.27-5.42,2.64-8.26,4.07a3.83,3.83,0,1,1-3.44-6.84c2.87-1.45,5.69-2.84,8.37-4.13,2.32-1.13,4.61-2.14,6.8-3a3.83,3.83,0,0,1,3.33,6.88Zm-29.45,14.54-.12.07c-4.54,2.4-9.25,4.93-14.42,7.76a3.83,3.83,0,0,1-3.67-6.73c5.19-2.84,9.94-5.39,14.5-7.81a3.83,3.83,0,0,1,3.71,6.71Zm-28.84,15.71-.06,0-14.33,8a3.83,3.83,0,0,1-3.74-6.69q7.26-4.06,14.35-8a3.83,3.83,0,0,1,3.78,6.67Zm-28.67,16,0,0q-7.15,4-14.35,8a3.83,3.83,0,0,1-3.78-6.67l.06,0c4.78-2.66,9.56-5.34,14.32-8a3.83,3.83,0,0,1,3.79,6.66Zm202-117.08a3.82,3.82,0,0,1-5.22-1.39,83.24,83.24,0,0,0-9.2-12.69,3.83,3.83,0,1,1,5.78-5,90.35,90.35,0,0,1,10,13.87,3.84,3.84,0,0,1-1.39,5.24ZM234,1273.76l-.07,0q-7.23,4-14.46,7.87a3.83,3.83,0,0,1-3.63-6.75q7.2-3.87,14.39-7.83a3.83,3.83,0,0,1,3.77,6.67Zm-28.93,15.57-.14.08c-5,2.62-9.94,5.16-14.66,7.55a3.83,3.83,0,0,1-3.46-6.84c4.68-2.37,9.58-4.89,14.56-7.5a3.83,3.83,0,0,1,3.7,6.71Zm-29.34,14.81-.25.13c-5.12,2.47-10.15,4.83-15,7a3.83,3.83,0,0,1-3.17-7c4.75-2.15,9.72-4.49,14.79-6.93a3.83,3.83,0,0,1,3.58,6.77ZM145.8,1317.7a2.89,2.89,0,0,1-.43.22c-3.07,1.29-6.12,2.54-9.09,3.72-2.11.84-4.19,1.66-6.26,2.45a3.83,3.83,0,0,1-2.75-7.15q3.06-1.17,6.18-2.42c2.91-1.16,5.93-2.39,9-3.66a3.83,3.83,0,0,1,3.4,6.84Zm-30.65,11.79a3.93,3.93,0,0,1-.66.3c-5.48,1.9-10.79,3.63-15.78,5.12a3.83,3.83,0,1,1-2.2-7.34c4.88-1.47,10.09-3.15,15.46-5a3.83,3.83,0,0,1,3.18,6.94Zm-31.49,9.31a3.72,3.72,0,0,1-1,.42c-1.77.41-3.51.78-5.18,1.12-2.7.54-6.77,1.36-11.43,1.88a3.83,3.83,0,1,1-.84-7.62c4.32-.48,8-1.23,10.76-1.77,1.6-.33,3.27-.69,5-1.08a3.83,3.83,0,0,1,2.77,7Zm-32.55,2.77a3.84,3.84,0,0,1-2.53.46,35.62,35.62,0,0,1-16.77-7,3.84,3.84,0,1,1,4.78-6,28.09,28.09,0,0,0,13.21,5.44,3.83,3.83,0,0,1,3.18,4.39A3.88,3.88,0,0,1,51.11,1341.57Z"/><path d="M407.53,1105.83a21.21,21.21,0,0,0,3.77,7.46,32.17,32.17,0,0,0,5.88,6c.53.45,1.1.85,1.68,1.26s1.13.82,1.72,1.16l1.76,1.09c.67.36,1.34.76,2,1.17a71.64,71.64,0,0,1,7.36,5.39,77,77,0,0,1,12.74,13.14,42.84,42.84,0,0,1,8.31,17.32,26,26,0,0,1-3.93,20.07,34.71,34.71,0,0,1-3.14,4.05c-.56.63-1.18,1.18-1.77,1.77a20.44,20.44,0,0,1-1.83,1.67l-1.9,1.56c-.63.51-1.32.94-2,1.41a40.91,40.91,0,0,1-4.2,2.57,35.77,35.77,0,0,1-9.55,3.49,34.92,34.92,0,0,1-10.18.39,49.37,49.37,0,0,1-9.4-2c-3-.87-5.81-1.88-8.55-2.86a131.39,131.39,0,0,0-16.24-5.1,62.84,62.84,0,0,0-16.59-1.69,72.61,72.61,0,0,0-16.77,2.6,96.3,96.3,0,0,0-16.14,6.14c-21.16,10-41.4,21.87-61.35,34.2l-15,9.24-7.5,4.62-7.55,4.54c-10.06,6-20.27,11.87-30.52,17.64-5.16,2.84-10.28,5.73-15.47,8.52s-10.37,5.6-15.64,8.26l-7.88,4c-2.64,1.32-5.32,2.57-8,3.86-5.31,2.59-10.72,5-16.15,7.36-1.36.59-2.7,1.2-4.07,1.76l-4.13,1.67-8.26,3.31c-5.53,2.11-11.1,4.14-16.74,6s-11.3,3.65-17,5.27-11.54,3-17.43,4.18a103.53,103.53,0,0,1-18.13,2.17,45.25,45.25,0,0,1-4.77-.16,23.53,23.53,0,0,1-5-1,13.07,13.07,0,0,1-2.66-1.18,8.48,8.48,0,0,1-2.55-2.22,7,7,0,0,1-1.42-3.36,8.59,8.59,0,0,1,.16-3.2,15.94,15.94,0,0,1,2.11-4.83,29.71,29.71,0,0,1,2.82-3.8,69.54,69.54,0,0,1,6.39-6.45,144.47,144.47,0,0,1,14-10.91l.69.85c-4.21,4.09-8.35,8.23-12.14,12.59a65.59,65.59,0,0,0-5.24,6.73,32.59,32.59,0,0,0-2,3.51,10.53,10.53,0,0,0-1.09,3.32,2.78,2.78,0,0,0,.06,1.16,1.14,1.14,0,0,0,.39.59,4.93,4.93,0,0,0,2.27,1,26.57,26.57,0,0,0,7.66.13A112,112,0,0,0,76,1309.93c5.53-1.48,11-3.24,16.49-5.11s10.92-3.83,16.32-5.92,10.79-4.26,16.15-6.5l8-3.45,4-1.7c1.33-.58,2.64-1.2,4-1.8C162,1275.91,183,1265.7,203.77,1255l31.15-16.21c10.4-5.4,20.91-10.63,31.38-16,21-10.55,41.76-21.46,62.72-32.14,10.47-5.43,21.78-10,34-11.59a69.35,69.35,0,0,1,18.43.07,118.85,118.85,0,0,1,17.7,4c5.63,1.62,11,3.34,16.08,3.75a24.67,24.67,0,0,0,14.27-2.75,30.48,30.48,0,0,0,3.32-2c.54-.37,1.11-.7,1.62-1.1L436,1180a14.55,14.55,0,0,0,1.45-1.24c.46-.44.95-.85,1.38-1.3a25.62,25.62,0,0,0,2.33-2.82,18.47,18.47,0,0,0,3-6.32,19.53,19.53,0,0,0,.25-7.09,37.48,37.48,0,0,0-5.92-14.55,73.67,73.67,0,0,0-5-6.73,84.31,84.31,0,0,0-5.68-6.3c-2-2-4.13-3.92-6.28-5.71-.54-.43-1.08-.85-1.66-1.26L418,1125.2c-.62-.48-1.18-1-1.75-1.53s-1.13-1-1.66-1.6a33.69,33.69,0,0,1-5.49-7.4,23.43,23.43,0,0,1-1.81-4.22,16.67,16.67,0,0,1-.86-4.54Z"/><path d="M1060,217.24c-.9.93-1.85,1.78-2.78,2.65s-1.89,1.7-2.85,2.52l-2.9,2.48-3,2.36c-3.94,3.22-8.11,6.11-12.23,9.09l-1.55,1.11-1.59,1-3.19,2.08-6.38,4.16c-4.33,2.66-8.72,5.21-13.08,7.82-2.17,1.34-4.43,2.49-6.66,3.71l-6.7,3.61c-2.25,1.19-4.47,2.44-6.73,3.59l-6.85,3.33c-4.57,2.2-9.11,4.49-13.72,6.62l-14,6.11c-37.4,15.93-76.24,28.29-115.58,38.42l-14.75,3.86c-2.45.68-4.93,1.2-7.41,1.76l-7.44,1.66c-9.91,2.2-19.81,4.55-29.75,6.66q-15,2.81-30,5.4l-15,2.52c-4.93.78-9.88,1.64-14.82,2.52-9.89,1.69-19.71,3.65-29.39,6-4.87,1.1-9.64,2.42-14.4,3.81s-9.38,3-13.89,4.88a72.73,72.73,0,0,0-12.81,6.69,38.49,38.49,0,0,0-10.21,9.65,34.08,34.08,0,0,0-3.5,6.18,47.74,47.74,0,0,0-2.26,6.91,65.08,65.08,0,0,0-1.3,7.32c-.35,2.48-.54,5-.72,7.51h0a.56.56,0,0,1-.59.51.56.56,0,0,1-.51-.5,79.3,79.3,0,0,1-.07-15.41,44.83,44.83,0,0,1,1.56-7.76,38.41,38.41,0,0,1,3.16-7.43,43.61,43.61,0,0,1,10.59-12.19A73.64,73.64,0,0,1,660.17,350c9.36-4.77,19.2-8.08,29-11S709,333.73,719,331.57c5-1,10-2,15-2.91s10-1.74,15-2.61q14.91-2.54,29.86-4.82c2.51-.33,5-.89,7.44-1.32l7.42-1.39,14.85-2.79,7.43-1.42c2.47-.47,5-.91,7.4-1.51l14.73-3.36c39.26-9,78.09-20.21,115.59-35l14-5.57c4.64-1.95,9.21-4.06,13.82-6.09l6.91-3.07c2.28-1.06,4.52-2.22,6.79-3.32l6.77-3.36c2.25-1.13,4.54-2.19,6.72-3.44,4.41-2.44,8.86-4.82,13.24-7.3l6.47-3.91,3.24-2,1.61-1,1.58-1c4.2-2.78,8.46-5.49,12.49-8.51l3-2.23,3-2.33c2-1.54,3.91-3.19,5.75-4.86v0a.56.56,0,0,1,.78,0A.55.55,0,0,1,1060,217.24Z"/><path d="M1050.62,656.52a3.83,3.83,0,0,1-4-6.55c4.18-2.66,8.61-5.76,13.18-9.23a3.83,3.83,0,0,1,4.64,6.1c-4.74,3.6-9.36,6.83-13.72,9.6Zm-14.37,7.9-.34.17c-1.1.5-2.2,1-3.27,1.41-3.78,1.54-8,3-12.61,4.44a3.83,3.83,0,1,1-2.25-7.33c4.37-1.34,8.4-2.76,12-4.21,1-.4,2-.83,3-1.28a3.83,3.83,0,0,1,3.51,6.8Zm40.6-27.62a3.83,3.83,0,0,1-4.4-6.23c3.91-3.34,8-7,12.15-10.81a3.83,3.83,0,1,1,5.21,5.62c-4.23,3.91-8.4,7.62-12.39,11A3.66,3.66,0,0,1,1076.85,636.8Zm-71.92,37.54a4.1,4.1,0,0,1-1,.41c-5,1.18-10.53,2.33-16.28,3.4a3.83,3.83,0,0,1-1.4-7.54c5.63-1.05,11-2.17,15.93-3.32a3.83,3.83,0,0,1,2.79,7.05ZM1101,614.55a3.83,3.83,0,0,1-4.6-6c3.71-3.65,7.58-7.55,11.5-11.6a3.83,3.83,0,1,1,5.5,5.33c-4,4.09-7.87,8-11.62,11.73A4,4,0,0,1,1101,614.55ZM972.6,680.44a3.77,3.77,0,0,1-1.33.47c-5.2.79-10.71,1.56-16.39,2.29a3.83,3.83,0,1,1-1-7.6c5.62-.72,11.07-1.48,16.2-2.27a3.83,3.83,0,0,1,2.49,7.11ZM1123.86,591a3.83,3.83,0,0,1-4.72-5.93c3.59-3.86,7.31-7.92,11-12.07a3.83,3.83,0,0,1,5.69,5.13c-3.75,4.17-7.5,8.27-11.12,12.16A3.71,3.71,0,0,1,1123.86,591Zm22-24.4a3.83,3.83,0,0,1-4.8-5.84c3.47-4,7.07-8.13,10.71-12.39a3.83,3.83,0,0,1,5.83,5c-3.66,4.28-7.28,8.47-10.77,12.46A3.83,3.83,0,0,1,1145.84,566.57ZM940,684.63a3.84,3.84,0,0,1-1.51.49c-5.32.57-10.85,1.11-16.44,1.62a3.84,3.84,0,0,1-.69-7.64c5.55-.5,11-1,16.31-1.6a3.83,3.83,0,0,1,2.33,7.13Zm227.21-143a3.83,3.83,0,0,1-4.85-5.78c3.43-4.1,7-8.34,10.45-12.61a3.83,3.83,0,0,1,5.93,4.86c-3.52,4.29-7.06,8.55-10.5,12.67A4,4,0,0,1,1167.18,541.61Zm-260,146a3.71,3.71,0,0,1-1.63.5c-5.33.41-10.87.8-16.46,1.16a3.83,3.83,0,1,1-.49-7.65c5.56-.36,11.07-.74,16.37-1.15a3.83,3.83,0,0,1,2.21,7.14ZM1188,516.23a3.84,3.84,0,0,1-4.9-5.73c3.47-4.29,6.9-8.57,10.25-12.8a3.84,3.84,0,0,1,6,4.77q-5.07,6.38-10.29,12.85A3.84,3.84,0,0,1,1188,516.23ZM874.35,689.71a3.64,3.64,0,0,1-1.71.51c-5.41.29-10.95.55-16.47.8a3.83,3.83,0,0,1-.33-7.66c5.49-.24,11-.51,16.4-.79a3.83,3.83,0,0,1,2.11,7.14Zm334.13-199.2a3.84,3.84,0,0,1-4.94-5.69q5.16-6.6,10.07-12.95a3.83,3.83,0,1,1,6.06,4.68q-4.9,6.36-10.09,13A4,4,0,0,1,1208.48,490.51Zm-367,200.64a3.72,3.72,0,0,1-1.78.51q-8.41.3-16.48.51a3.83,3.83,0,0,1-.21-7.66q8-.21,16.42-.51a3.83,3.83,0,0,1,2.05,7.15Zm387.08-226.66a3.83,3.83,0,0,1-5-5.64c3.45-4.53,6.76-8.91,9.9-13.08a3.83,3.83,0,0,1,6.13,4.6c-3.15,4.19-6.47,8.58-9.93,13.13A3.92,3.92,0,0,1,1228.56,464.49Zm19.75-26.27a3.83,3.83,0,0,1-5-5.6c3.6-4.85,6.86-9.28,9.74-13.21a3.83,3.83,0,0,1,6.18,4.53c-2.88,3.94-6.16,8.39-9.77,13.25A3.75,3.75,0,0,1,1248.31,438.22ZM808.58,692a3.84,3.84,0,0,1-1.84.51c-5.73.11-11.24.19-16.49.26a3.83,3.83,0,1,1-.09-7.66c5.23-.07,10.72-.15,16.43-.26a3.83,3.83,0,0,1,2,7.15ZM1267.72,411.7a3.83,3.83,0,0,1-5-5.56c2.24-3.12,3.7-5.17,4.27-6l.09-.11,5.53-7.2a3.83,3.83,0,0,1,6.07,4.67l-5.49,7.14c-.6.84-2.05,2.89-4.26,5.95A3.83,3.83,0,0,1,1267.72,411.7ZM775.66,692.44a3.83,3.83,0,0,1-1.9.51c-6.09,0-11.62,0-16.49,0a3.83,3.83,0,1,1,0-7.66c4.85,0,10.37,0,16.44,0a3.84,3.84,0,0,1,1.93,7.16Zm-32.95-.1a3.85,3.85,0,0,1-2,.52l-5.92-.09-10.47.08a3.83,3.83,0,1,1-.06-7.66l10.57-.08,6,.08a3.83,3.83,0,0,1,1.87,7.15Z"/><path d="M1252.48,389.37c-13.86,21.5-28.55,42.44-43.46,63.22q-11.26,15.54-22.83,30.86c-7.68,10.23-15.6,20.29-23.53,30.34s-16,20-24.32,29.75-16.67,19.49-25.28,29q-6.43,7.17-13.13,14.11t-13.54,13.77q-6.87,6.79-14,13.34c-4.78,4.36-9.66,8.63-14.74,12.73s-10.35,8-15.9,11.61c-2.76,1.81-5.64,3.52-8.6,5.14-1.47.81-3,1.54-4.54,2.3l-2.38,1-1.18.52-1.18.44c-12.49,4.77-25.19,7.71-37.92,10.09s-25.5,4-38.28,5.46l-9.58,1-9.59.88-9.6.73-9.59.64c-12.8.78-25.59,1.44-38.39,1.81s-25.6.6-38.39.68c-25.59,0-51.16-.34-76.71-1.61,25.55-1.16,51.07-2.21,76.54-3.76,12.74-.72,25.47-1.51,38.19-2.48s25.41-1.92,38.08-3.15c25.31-2.56,50.64-5.34,75.36-10.37l4.62-1,4.6-1c3.08-.65,6.09-1.47,9.12-2.21,1.52-.39,3-.85,4.5-1.26s3-.84,4.45-1.35l4.39-1.44,4.28-1.62a85.46,85.46,0,0,0,15.88-8.54c5.13-3.39,10.09-7.15,15-11.07,9.77-7.82,19.09-16.37,28.16-25.19s17.84-18,26.55-27.25c17.43-18.49,34-37.8,50.62-57.16,8.26-9.71,16.36-19.55,24.51-29.37s16.17-19.73,24.18-29.67C1220.84,429.51,1236.66,409.46,1252.48,389.37Z"/><path d="M1036.44,914.39a3.58,3.58,0,0,1-1.13.43,3.84,3.84,0,0,1-4.54-3l-3.35-16.08a3.84,3.84,0,0,1,7.51-1.56l3.35,16.08A3.84,3.84,0,0,1,1036.44,914.39Zm-6.7-32.16a3.81,3.81,0,0,1-5.66-2.53l-3.35-16.08a3.83,3.83,0,1,1,7.5-1.56l3.35,16.07A3.83,3.83,0,0,1,1029.74,882.23Zm-6.69-32.15a3.73,3.73,0,0,1-1.14.43,3.83,3.83,0,0,1-4.53-3L1014,831.47a3.83,3.83,0,1,1,7.5-1.57l3.35,16.08A3.83,3.83,0,0,1,1023.05,850.08Zm-6.7-32.15a3.9,3.9,0,0,1-1.14.43,3.83,3.83,0,0,1-4.53-3l-3.35-16.08a3.83,3.83,0,1,1,7.5-1.56l3.35,16.08A3.83,3.83,0,0,1,1016.35,817.93Zm-6.7-32.16a3.58,3.58,0,0,1-1.13.43,3.83,3.83,0,0,1-4.54-3l-3.35-16.07a3.84,3.84,0,0,1,7.51-1.57l3.35,16.08A3.83,3.83,0,0,1,1009.65,785.77Zm-9-31.36a3.83,3.83,0,0,1-5.15-1.28,35.21,35.21,0,0,0-10.28-10.49,3.83,3.83,0,0,1,4.23-6.39A42.34,42.34,0,0,1,1001.94,749a3.84,3.84,0,0,1-1.2,5.29ZM974,736.83a3.9,3.9,0,0,1-2.53.46,34.84,34.84,0,0,0-6.7-.43l-9,.28a3.83,3.83,0,0,1-.24-7.66l9-.28a42.88,42.88,0,0,1,8.17.52,3.84,3.84,0,0,1,1.3,7.11Zm-32.81.31a3.76,3.76,0,0,1-1.79.51l-16.41.51a3.83,3.83,0,0,1-.24-7.66l16.41-.51a3.83,3.83,0,0,1,2,7.15Zm-32.83,1a3.7,3.7,0,0,1-1.79.51l-16.41.51a3.83,3.83,0,0,1-.24-7.66l16.41-.51a3.83,3.83,0,0,1,2,7.15Zm-32.82,1a3.88,3.88,0,0,1-1.8.5l-16.41.52a3.83,3.83,0,0,1-.24-7.66l16.41-.51a3.83,3.83,0,0,1,2,7.15Zm-32.83,1a3.77,3.77,0,0,1-1.8.51l-16.41.52a3.83,3.83,0,1,1-.24-7.66l16.42-.52a3.83,3.83,0,0,1,2,7.15Zm-32.83,1a3.76,3.76,0,0,1-1.79.51l-16.42.51a3.83,3.83,0,0,1-.24-7.66l16.42-.51a3.83,3.83,0,0,1,2,7.15Zm-32.83,1a3.88,3.88,0,0,1-1.79.51l-16.42.51a3.83,3.83,0,0,1-.24-7.66l16.42-.51a3.83,3.83,0,0,1,2,7.15Zm-32.83,1a3.76,3.76,0,0,1-1.79.51l-16.41.52a3.83,3.83,0,1,1-.24-7.66l16.41-.52a3.83,3.83,0,0,1,2,7.15Zm-32.82,1a3.77,3.77,0,0,1-1.8.51l-16.41.51a3.83,3.83,0,1,1-.24-7.65l16.41-.52a3.83,3.83,0,0,1,2,7.15Zm-32.83,1a3.88,3.88,0,0,1-1.8.51l-16.41.51a3.83,3.83,0,1,1-.24-7.66l16.41-.51a3.83,3.83,0,0,1,2,7.15Z"/><path d="M760,303.1a99.48,99.48,0,0,0-16.24-24.24A87.13,87.13,0,0,0,720.66,261a106.37,106.37,0,0,0-27.89-10.08,192.79,192.79,0,0,0-30-3.79c-20.45-.89-41-1.67-61.51-2.36q-15.39-.53-30.78-.91-7.69-.2-15.39-.29c-2.56,0-5.13-.07-7.69,0l-3.85,0-3.85.14,3.84-.31,3.85-.2c2.56-.15,5.13-.21,7.7-.31q7.7-.24,15.4-.39,15.39-.32,30.8-.46c20.55-.22,41.05-.35,61.65-.37a198.83,198.83,0,0,1,31.17,2.54,114.4,114.4,0,0,1,30.3,9.48,96.18,96.18,0,0,1,26.22,18.56,109.45,109.45,0,0,1,19.1,25.92,5.47,5.47,0,0,1-9.62,5.22,1.74,1.74,0,0,1-.1-.19Z"/><path d="M577.61,243.16c-.24,2.48-.51,5-.71,7.43s-.46,4.93-.67,7.39c-.38,4.94-.79,9.86-1.12,14.78-.68,9.83-1.21,19.65-1.5,29.46s-.38,19.59-.2,29.35.58,19.51,1.45,29.19a296.37,296.37,0,0,0,10,57.22,207.28,207.28,0,0,0,10,27.32c1,2.24,2.15,4.37,3.2,6.58.55,1.09,1,2.23,1.65,3.29l1.81,3.19c2.29,4.37,5.11,8.4,7.73,12.66-1.79-1.72-3.52-3.51-5.3-5.28a33.08,33.08,0,0,1-2.53-2.77L599,460.08l-2.4-2.91c-.79-1-1.47-2-2.21-3.06l-2.16-3.1c-.7-1-1.49-2.05-2.11-3.14a155.76,155.76,0,0,1-13.4-27.16c-7.15-19-11.08-39-12.72-59-.43-5-.65-10-.87-15.06-.06-5-.19-10,0-15.05q.32-15,2-30T569.81,272c1-4.88,2.16-9.74,3.45-14.55S575.92,247.86,577.61,243.16Z"/><path d="M546,448.32,596.06,453l-49.91,6.23a5.51,5.51,0,1,1-1.36-10.93A5.27,5.27,0,0,1,546,448.32Z"/><path d="M482.63,1364.92l25.22,32.74a5.52,5.52,0,1,1-9.48,5.47Z"/><path d="M530.91,1343.06l24.94,32.25a5.52,5.52,0,1,1-8.74,6.76,6,6,0,0,1-.74-1.29Z"/><path d="M579.94,1320l24.66,31.76a5.53,5.53,0,0,1-8.73,6.78,6.13,6.13,0,0,1-.76-1.3Z"/><path d="M628.5,1296.33l24.35,31.24a5.53,5.53,0,1,1-8.71,6.8,5.9,5.9,0,0,1-.77-1.32Z"/><path d="M677,1272l24.09,30.78a5.53,5.53,0,1,1-9.48,5.47Z"/><path d="M727.5,1245.94l23.82,30.3a5.53,5.53,0,0,1-8.7,6.83,5.81,5.81,0,0,1-.79-1.36Z"/><path d="M783.93,1216l23.55,29.84a5.53,5.53,0,1,1-8.68,6.85,5.33,5.33,0,0,1-.8-1.38Z"/><path d="M839,1186.14l23.3,29.4a5.53,5.53,0,0,1-8.68,6.87,6,6,0,0,1-.8-1.4Z"/><path d="M892,1156.69l23.11,29.07a5.54,5.54,0,1,1-8.67,6.89,5.77,5.77,0,0,1-.81-1.42Z"/><path d="M945.54,1126.35,968.4,1155a5.53,5.53,0,1,1-8.65,6.9,5.28,5.28,0,0,1-.83-1.43Z"/><path d="M1005.55,1091.65l22.76,28.47a5.54,5.54,0,0,1-8.65,6.91,5.79,5.79,0,0,1-.83-1.44Z"/><path d="M1056.81,1062.18l22.26,27.61a5.54,5.54,0,0,1-8.63,7,5.79,5.79,0,0,1-.85-1.48Z"/><path d="M1108,1030.81l22.35,27.76a5.54,5.54,0,1,1-8.63,6.94,5.73,5.73,0,0,1-.85-1.47Z"/><path d="M1158.71,999.93l22.06,27.26a5.54,5.54,0,0,1-8.62,7,5.81,5.81,0,0,1-.87-1.5Z"/><path d="M1210.18,968.09l21.68,26.61a5.55,5.55,0,1,1-9.48,5.47Z"/><path d="M1261.67,935.7l21.21,25.78a5.55,5.55,0,0,1-8.58,7,5.94,5.94,0,0,1-.91-1.57Z"/><path d="M1312.3,903.27,1332.92,928a5.55,5.55,0,0,1-8.53,7.11,5.74,5.74,0,0,1-1-1.63Z"/><path d="M1362.13,870.38l20.06,23.8a5.56,5.56,0,1,1-9.48,5.48Z"/><path d="M1438.28,816.58l19.71,23.2a5.57,5.57,0,0,1-8.48,7.21,5.86,5.86,0,0,1-1-1.74Z"/><path d="M1472.55,792.15l17.73,19.76a5.59,5.59,0,1,1-9.48,5.48Z"/><path d="M1499.1,767.68l20.45,24.48a5.56,5.56,0,0,1-8.53,7.12,5.49,5.49,0,0,1-1-1.65Z"/><path d="M490.2,1378.85h0a3.28,3.28,0,0,1-4.33-1.69h0a3.26,3.26,0,0,1,1.67-4.32h0a3.28,3.28,0,0,1,4.33,1.67h0a3.28,3.28,0,0,1-1.35,4.17h0Zm-9,4h0a3.28,3.28,0,0,1-4.33-1.69h0a3.28,3.28,0,0,1,1.69-4.32h0a3.28,3.28,0,0,1,4.33,1.69h0a3.27,3.27,0,0,1-1.36,4.15h0A2.06,2.06,0,0,1,481.18,1382.83Zm-9.05,4a3.28,3.28,0,0,1-4.31-1.71h0a3.28,3.28,0,0,1,1.7-4.32h0a3.29,3.29,0,0,1,4.33,1.71h0a3.31,3.31,0,0,1-1.38,4.15h0A2.69,2.69,0,0,1,472.13,1386.78Zm-9.07,3.89a3.26,3.26,0,0,1-4.3-1.73h0a3.29,3.29,0,0,1,1.73-4.32h0a3.3,3.3,0,0,1,4.31,1.74h0a3.31,3.31,0,0,1-1.38,4.14h0Zm-9.1,3.84a3.27,3.27,0,0,1-4.29-1.77h0a3.26,3.26,0,0,1,1.76-4.29h0a3.29,3.29,0,0,1,4.3,1.76h0a3.29,3.29,0,0,1-1.39,4.11h0C454.22,1394.39,454.09,1394.45,454,1394.51Zm-9.12,3.78h0a3.28,3.28,0,0,1-4.29-1.8h0a3.28,3.28,0,0,1,1.79-4.28h0a3.29,3.29,0,0,1,4.29,1.78h0a3.29,3.29,0,0,1-1.4,4.1h0A3.55,3.55,0,0,1,444.84,1398.29Zm-9.15,3.72a3.3,3.3,0,0,1-4.28-1.82h0a3.29,3.29,0,0,1,1.82-4.28h0a3.29,3.29,0,0,1,4.28,1.82h0a3.28,3.28,0,0,1-1.41,4.07h0A3.17,3.17,0,0,1,435.69,1402Zm-9.18,3.66a3.28,3.28,0,0,1-4.26-1.84h0a3.31,3.31,0,0,1,1.85-4.27h0a3.29,3.29,0,0,1,4.26,1.84h0a3.28,3.28,0,0,1-1.4,4.06h0A2.31,2.31,0,0,1,426.51,1405.67Zm-9.18,3.61a3.28,3.28,0,0,1-4.25-1.87h0a3.28,3.28,0,0,1,1.87-4.25h0a3.27,3.27,0,0,1,4.25,1.86h0a3.29,3.29,0,0,1-1.41,4h0A4.93,4.93,0,0,1,417.33,1409.28Zm-9.22,3.55h0a3.31,3.31,0,0,1-4.25-1.9h0a3.3,3.3,0,0,1,1.9-4.25h0a3.29,3.29,0,0,1,4.24,1.91h0a3.29,3.29,0,0,1-1.42,4h0Zm-9.24,3.49a3.28,3.28,0,0,1-4.22-1.93h0a3.29,3.29,0,0,1,1.92-4.23h0a3.31,3.31,0,0,1,4.24,1.93h0a3.3,3.3,0,0,1-1.44,4h0A3.31,3.31,0,0,1,398.87,1416.32Zm-9.25,3.43a3.29,3.29,0,0,1-4.22-2h0a3.28,3.28,0,0,1,2-4.21h0a3.26,3.26,0,0,1,4.2,1.94h0a3.28,3.28,0,0,1-1.43,4h0A4,4,0,0,1,389.62,1419.75Zm-9.28,3.38a3.3,3.3,0,0,1-4.21-2h0a3.28,3.28,0,0,1,2-4.2h0a3.29,3.29,0,0,1,4.2,2h0a3.28,3.28,0,0,1-1.43,4h0A3.76,3.76,0,0,1,380.34,1423.13Zm-9.31,3.31a3.27,3.27,0,0,1-4.18-2h0a3.28,3.28,0,0,1,2-4.19h0a3.28,3.28,0,0,1,4.19,2h0a3.28,3.28,0,0,1-1.45,3.94h0A2.58,2.58,0,0,1,371,1426.44Zm-9.31,3.26a3.28,3.28,0,0,1-4.18-2h0a3.28,3.28,0,0,1,2-4.18h0a3.3,3.3,0,0,1,4.19,2h0a3.31,3.31,0,0,1-1.46,3.92h0A3.68,3.68,0,0,1,361.72,1429.7Zm-9.35,3.2h0a3.28,3.28,0,0,1-4.16-2.06h0a3.27,3.27,0,0,1,2.06-4.16h0a3.28,3.28,0,0,1,4.16,2.06h0a3.29,3.29,0,0,1-1.47,3.9h0A3.51,3.51,0,0,1,352.37,1432.9ZM343,1436a3.28,3.28,0,0,1-4.16-2.08h0a3.29,3.29,0,0,1,2.07-4.15h0a3.3,3.3,0,0,1,4.17,2.08h0a3.3,3.3,0,0,1-1.48,3.88h0A3.24,3.24,0,0,1,343,1436Zm-9.38,3.09a3.29,3.29,0,0,1-4.14-2.11h0a3.28,3.28,0,0,1,2.09-4.15h0a3.29,3.29,0,0,1,4.14,2.12h0a3.29,3.29,0,0,1-1.47,3.86h0A3.89,3.89,0,0,1,333.64,1439.13Zm-9.41,3a3.28,3.28,0,0,1-4.13-2.14h0a3.29,3.29,0,0,1,2.13-4.12h0a3.28,3.28,0,0,1,4.13,2.13h0a3.27,3.27,0,0,1-1.49,3.84h0A3.38,3.38,0,0,1,324.23,1442.15Zm-9.42,3a3.29,3.29,0,0,1-4.11-2.17h0a3.27,3.27,0,0,1,2.17-4.11h0A3.3,3.3,0,0,1,317,1441h0a3.28,3.28,0,0,1-1.49,3.82h0A3.69,3.69,0,0,1,314.81,1445.12Zm-9.44,2.9a3.29,3.29,0,0,1-4.1-2.19h0a3.29,3.29,0,0,1,2.19-4.1h0a3.28,3.28,0,0,1,4.09,2.19h0a3.28,3.28,0,0,1-1.49,3.8h0A3.06,3.06,0,0,1,305.37,1448Zm-9.45,2.85a3.3,3.3,0,0,1-4.09-2.22h0a3.28,3.28,0,0,1,2.22-4.08h0a3.28,3.28,0,0,1,4.08,2.21h0a3.29,3.29,0,0,1-1.51,3.78h0A3.64,3.64,0,0,1,295.92,1450.87Zm-9.48,2.77a3.27,3.27,0,0,1-4.07-2.23h0a3.29,3.29,0,0,1,2.24-4.07h0a3.27,3.27,0,0,1,4.06,2.24h0a3.28,3.28,0,0,1-1.49,3.76h0A3.19,3.19,0,0,1,286.44,1453.64Zm-9.5,2.73h0a3.28,3.28,0,0,1-4.05-2.26h0a3.3,3.3,0,0,1,2.26-4.06h0a3.3,3.3,0,0,1,4.07,2.27h0a3.29,3.29,0,0,1-1.52,3.73h0A3.69,3.69,0,0,1,276.94,1456.37Zm-9.5,2.66h0a3.28,3.28,0,0,1-4-2.28h0a3.27,3.27,0,0,1,2.29-4h0a3.28,3.28,0,0,1,4,2.29h0a3.28,3.28,0,0,1-1.51,3.72h0A2.91,2.91,0,0,1,267.44,1459Zm-9.53,2.61a3.31,3.31,0,0,1-4-2.32h0a3.28,3.28,0,0,1,2.33-4h0a3.27,3.27,0,0,1,4,2.32h0a3.28,3.28,0,0,1-1.52,3.7h0A3.29,3.29,0,0,1,257.91,1461.64Zm-9.54,2.54a3.31,3.31,0,0,1-4-2.35h0a3.29,3.29,0,0,1,2.35-4h0a3.29,3.29,0,0,1,4,2.34h0a3.3,3.3,0,0,1-1.54,3.69h0A3.83,3.83,0,0,1,248.37,1464.18Zm-9.56,2.47h0a3.28,3.28,0,0,1-4-2.37h0a3.3,3.3,0,0,1,2.37-4h0a3.31,3.31,0,0,1,4,2.37h0a3.31,3.31,0,0,1-1.54,3.66h0A3.54,3.54,0,0,1,238.81,1466.65Zm-9.58,2.41a3.3,3.3,0,0,1-4-2.4h0a3.28,3.28,0,0,1,2.4-4h0a3.26,3.26,0,0,1,4,2.39h0a3.31,3.31,0,0,1-1.54,3.64h0A4,4,0,0,1,229.23,1469.06Zm-9.6,2.35a3.28,3.28,0,0,1-4-2.43h0a3.28,3.28,0,0,1,2.42-4h0a3.28,3.28,0,0,1,4,2.42h0a3.28,3.28,0,0,1-1.55,3.62h0A3.76,3.76,0,0,1,219.63,1471.41Zm-9.61,2.28h0a3.28,3.28,0,0,1-4-2.44h0a3.3,3.3,0,0,1,2.45-4h0a3.3,3.3,0,0,1,4,2.45h0a3.28,3.28,0,0,1-1.57,3.59h0A3.2,3.2,0,0,1,210,1473.69Zm-9.62,2.21a3.28,3.28,0,0,1-3.93-2.47h0a3.27,3.27,0,0,1,2.48-3.93h0a3.28,3.28,0,0,1,3.92,2.48h0a3.28,3.28,0,0,1-1.55,3.57h0A3.65,3.65,0,0,1,200.4,1475.9Zm-9.64,2.16a3.29,3.29,0,0,1-3.92-2.51h0a3.29,3.29,0,0,1,2.51-3.91h0a3.28,3.28,0,0,1,3.91,2.5h0a3.3,3.3,0,0,1-1.56,3.55h0A3.48,3.48,0,0,1,190.76,1478.06Zm-9.66,2.07a3.28,3.28,0,0,1-3.89-2.53h0a3.28,3.28,0,0,1,2.53-3.89h0a3.27,3.27,0,0,1,3.89,2.53h0a3.28,3.28,0,0,1-1.57,3.53h0A3.17,3.17,0,0,1,181.1,1480.13Zm-9.67,2a3.29,3.29,0,0,1-3.88-2.57h0a3.28,3.28,0,0,1,2.56-3.87h0a3.29,3.29,0,0,1,3.88,2.56h0a3.29,3.29,0,0,1-1.58,3.5h0A3.51,3.51,0,0,1,171.43,1482.15Zm-9.68,1.93h0a3.28,3.28,0,0,1-3.86-2.58h0a3.28,3.28,0,0,1,2.59-3.86h0a3.29,3.29,0,0,1,3.85,2.59h0a3.28,3.28,0,0,1-1.59,3.48h0A3,3,0,0,1,161.75,1484.08ZM152,1486a3.28,3.28,0,0,1-3.83-2.62h0a3.28,3.28,0,0,1,2.61-3.84h0a3.26,3.26,0,0,1,3.84,2.61h0a3.29,3.29,0,0,1-1.58,3.46h0A3.59,3.59,0,0,1,152,1486Zm-9.72,1.79h0a3.29,3.29,0,0,1-3.82-2.65h0a3.3,3.3,0,0,1,2.65-3.82h0a3.29,3.29,0,0,1,3.82,2.65h0a3.29,3.29,0,0,1-1.58,3.43h0A3.19,3.19,0,0,1,142.32,1487.75Zm-9.73,1.71h0a3.28,3.28,0,0,1-3.8-2.68h0a3.29,3.29,0,0,1,2.67-3.8h0a3.3,3.3,0,0,1,3.8,2.69h0a3.27,3.27,0,0,1-1.6,3.4h0A3,3,0,0,1,132.59,1489.46Zm-9.74,1.65a3.29,3.29,0,0,1-3.78-2.7h0a3.29,3.29,0,0,1,2.71-3.78h0a3.29,3.29,0,0,1,3.78,2.71h0a3.3,3.3,0,0,1-1.6,3.38h0A3.41,3.41,0,0,1,122.85,1491.11Zm-9.76,1.56a3.29,3.29,0,0,1-3.75-2.74h0a3.3,3.3,0,0,1,2.74-3.76h0a3.3,3.3,0,0,1,3.75,2.76h0a3.28,3.28,0,0,1-1.61,3.34h0A3,3,0,0,1,113.09,1492.67Zm-9.77,1.48a3.3,3.3,0,0,1-3.73-2.77h0a3.29,3.29,0,0,1,2.78-3.73h0a3.27,3.27,0,0,1,3.72,2.77h0a3.31,3.31,0,0,1-1.61,3.33h0A3.47,3.47,0,0,1,103.32,1494.15Zm-9.79,1.39h0a3.29,3.29,0,0,1-3.71-2.8h0a3.29,3.29,0,0,1,2.81-3.7h0a3.3,3.3,0,0,1,3.71,2.81h0a3.29,3.29,0,0,1-1.61,3.29h0A3.22,3.22,0,0,1,93.53,1495.54Zm-9.8,1.3a3.29,3.29,0,0,1-3.68-2.84h0a3.29,3.29,0,0,1,2.85-3.68h0a3.26,3.26,0,0,1,3.67,2.83h0a3.28,3.28,0,0,1-1.61,3.26h0A3.21,3.21,0,0,1,83.73,1496.84Zm-9.81,1.2h0a3.3,3.3,0,0,1-3.65-2.87h0a3.28,3.28,0,0,1,2.88-3.65h0a3.29,3.29,0,0,1,3.65,2.89h0a3.27,3.27,0,0,1-1.62,3.22h0A3.25,3.25,0,0,1,73.92,1498Zm-9.83,1.1a3.29,3.29,0,0,1-3.62-2.9h0a3.29,3.29,0,0,1,2.92-3.62h0a3.28,3.28,0,0,1,3.61,2.91h0a3.3,3.3,0,0,1-1.62,3.2h0A3.16,3.16,0,0,1,64.09,1499.14Zm-9.84,1h0a3.3,3.3,0,0,1-3.59-3h0a3.27,3.27,0,0,1,3-3.58h0a3.27,3.27,0,0,1,3.58,3h0a3.27,3.27,0,0,1-1.63,3.16h0A3.32,3.32,0,0,1,54.25,1500.15Zm-9.86.87a3.28,3.28,0,0,1-3.55-3h0a3.29,3.29,0,0,1,3-3.55h0a3.27,3.27,0,0,1,3.54,3h0a3.3,3.3,0,0,1-1.63,3.12h0A3.19,3.19,0,0,1,44.39,1501Zm-9.86.77a3.3,3.3,0,0,1-3.52-3h0a3.29,3.29,0,0,1,3.05-3.5h0a3.28,3.28,0,0,1,3.51,3h0a3.28,3.28,0,0,1-1.64,3.07h0A3.38,3.38,0,0,1,34.53,1501.79Z"/><path d="M496.42,1389.5h0a3.27,3.27,0,0,1-4.33-1.68h0a3.27,3.27,0,0,1,1.67-4.33h0a3.27,3.27,0,0,1,4.33,1.68h0a3.27,3.27,0,0,1-1.35,4.16h0Zm-9,4h0a3.29,3.29,0,0,1-4.33-1.69h0a3.27,3.27,0,0,1,1.69-4.32h0a3.28,3.28,0,0,1,4.33,1.69h0a3.27,3.27,0,0,1-1.36,4.15h0Zm-9.05,4a3.29,3.29,0,0,1-4.32-1.72h0a3.29,3.29,0,0,1,1.71-4.31h0a3.28,3.28,0,0,1,4.32,1.7h0a3.3,3.3,0,0,1-1.37,4.16h0Zm-9.07,3.88a3.28,3.28,0,0,1-4.31-1.73h0a3.26,3.26,0,0,1,1.74-4.3h0A3.28,3.28,0,0,1,471,1397h0a3.29,3.29,0,0,1-1.39,4.12h0A1.66,1.66,0,0,1,469.27,1401.31Zm-9.1,3.84h0a3.26,3.26,0,0,1-4.29-1.77h0a3.27,3.27,0,0,1,1.75-4.29h0a3.3,3.3,0,0,1,4.31,1.76h0a3.3,3.3,0,0,1-1.4,4.11h0A2.58,2.58,0,0,1,460.17,1405.15Zm-9.13,3.78a3.3,3.3,0,0,1-4.29-1.8h0a3.3,3.3,0,0,1,1.8-4.29h0a3.31,3.31,0,0,1,4.29,1.8h0a3.28,3.28,0,0,1-1.4,4.09h0A2.49,2.49,0,0,1,451,1408.93Zm-9.15,3.71a3.28,3.28,0,0,1-4.27-1.82h0a3.28,3.28,0,0,1,1.82-4.27h0a3.29,3.29,0,0,1,4.27,1.82h0a3.28,3.28,0,0,1-1.4,4.07h0A2.3,2.3,0,0,1,441.89,1412.64Zm-9.17,3.67a3.29,3.29,0,0,1-4.27-1.85h0a3.3,3.3,0,0,1,1.86-4.26h0a3.29,3.29,0,0,1,4.26,1.84h0a3.27,3.27,0,0,1-1.41,4h0C433,1416.17,432.87,1416.24,432.72,1416.31Zm-9.19,3.6a3.28,3.28,0,0,1-4.25-1.87h0a3.3,3.3,0,0,1,1.87-4.26h0a3.3,3.3,0,0,1,4.26,1.88h0a3.29,3.29,0,0,1-1.42,4h0A3.25,3.25,0,0,1,423.53,1419.91Zm-9.21,3.55h0a3.29,3.29,0,0,1-4.24-1.9h0a3.28,3.28,0,0,1,1.9-4.24h0a3.28,3.28,0,0,1,4.23,1.9h0a3.29,3.29,0,0,1-1.42,4h0A3.38,3.38,0,0,1,414.32,1423.46Zm-9.25,3.49a3.29,3.29,0,0,1-4.22-1.93h0a3.29,3.29,0,0,1,1.93-4.23h0a3.3,3.3,0,0,1,4.23,1.93h0a3.31,3.31,0,0,1-1.44,4h0A3.31,3.31,0,0,1,405.07,1427Zm-9.25,3.43a3.29,3.29,0,0,1-4.22-2h0a3.28,3.28,0,0,1,2-4.21h0a3.27,3.27,0,0,1,4.21,2h0a3.28,3.28,0,0,1-1.44,4h0A4,4,0,0,1,395.82,1430.38Zm-9.28,3.38a3.31,3.31,0,0,1-4.21-2h0a3.29,3.29,0,0,1,2-4.2h0a3.29,3.29,0,0,1,4.2,2h0a3.31,3.31,0,0,1-1.44,4h0A3.76,3.76,0,0,1,386.54,1433.76Zm-9.31,3.31a3.3,3.3,0,0,1-4.19-2h0a3.3,3.3,0,0,1,2-4.19h0a3.29,3.29,0,0,1,4.19,2h0a3.27,3.27,0,0,1-1.46,3.94h0A2.8,2.8,0,0,1,377.23,1437.07Zm-9.31,3.25a3.28,3.28,0,0,1-4.18-2h0a3.3,3.3,0,0,1,2-4.19h0a3.28,3.28,0,0,1,4.17,2h0a3.29,3.29,0,0,1-1.45,3.93h0A2.9,2.9,0,0,1,367.92,1440.32Zm-9.34,3.21h0a3.29,3.29,0,0,1-4.17-2.06h0a3.3,3.3,0,0,1,2-4.17h0a3.29,3.29,0,0,1,4.17,2.06h0a3.28,3.28,0,0,1-1.48,3.9h0A3.72,3.72,0,0,1,358.58,1443.53Zm-9.37,3.13a3.28,3.28,0,0,1-4.15-2.08h0a3.28,3.28,0,0,1,2.08-4.15h0a3.29,3.29,0,0,1,4.15,2.08h0a3.3,3.3,0,0,1-1.47,3.89h0A2.55,2.55,0,0,1,349.21,1446.66Zm-9.38,3.08a3.28,3.28,0,0,1-4.14-2.1h0a3.29,3.29,0,0,1,2.11-4.14h0a3.28,3.28,0,0,1,4.14,2.11h0a3.27,3.27,0,0,1-1.48,3.85h0A3,3,0,0,1,339.83,1449.74Zm-9.41,3a3.28,3.28,0,0,1-4.12-2.14h0a3.29,3.29,0,0,1,2.14-4.13h0a3.29,3.29,0,0,1,4.12,2.13h0a3.29,3.29,0,0,1-1.48,3.85h0A4,4,0,0,1,330.42,1452.77Zm-9.41,3h0a3.29,3.29,0,0,1-4.12-2.16h0a3.29,3.29,0,0,1,2.17-4.11h0a3.27,3.27,0,0,1,4.1,2.16h0a3.29,3.29,0,0,1-1.48,3.82h0A3.27,3.27,0,0,1,321,1455.72Zm-9.44,2.91a3.28,3.28,0,0,1-4.1-2.18h0a3.28,3.28,0,0,1,2.19-4.1h0a3.29,3.29,0,0,1,4.1,2.19h0a3.28,3.28,0,0,1-1.5,3.79h0A3,3,0,0,1,311.57,1458.63Zm-9.46,2.84a3.27,3.27,0,0,1-4.08-2.21h0a3.28,3.28,0,0,1,2.2-4.08h0a3.29,3.29,0,0,1,4.09,2.21h0a3.28,3.28,0,0,1-1.51,3.78h0A2.9,2.9,0,0,1,302.11,1461.47Zm-9.48,2.78a3.27,3.27,0,0,1-4.07-2.23h0a3.29,3.29,0,0,1,2.24-4.07h0a3.3,3.3,0,0,1,4.08,2.24h0a3.31,3.31,0,0,1-1.52,3.76h0A3,3,0,0,1,292.63,1464.25Zm-9.49,2.73h0a3.28,3.28,0,0,1-4.05-2.26h0a3.29,3.29,0,0,1,2.26-4.06h0a3.3,3.3,0,0,1,4.06,2.27h0a3.28,3.28,0,0,1-1.52,3.73h0A3.14,3.14,0,0,1,283.14,1467Zm-9.51,2.66h0a3.29,3.29,0,0,1-4-2.29h0a3.3,3.3,0,0,1,2.29-4h0a3.3,3.3,0,0,1,4,2.3h0a3.28,3.28,0,0,1-1.51,3.72h0A3.36,3.36,0,0,1,273.63,1469.64Zm-9.53,2.59a3.28,3.28,0,0,1-4-2.31h0a3.28,3.28,0,0,1,2.31-4h0a3.28,3.28,0,0,1,4,2.31h0a3.28,3.28,0,0,1-1.53,3.7h0A2.73,2.73,0,0,1,264.1,1472.23Zm-9.54,2.54a3.28,3.28,0,0,1-4-2.34h0a3.29,3.29,0,0,1,2.34-4h0a3.28,3.28,0,0,1,4,2.35h0a3.27,3.27,0,0,1-1.53,3.67h0A3,3,0,0,1,254.56,1474.77Zm-9.56,2.47a3.28,3.28,0,0,1-4-2.37h0a3.27,3.27,0,0,1,2.38-4h0a3.29,3.29,0,0,1,4,2.36h0a3.3,3.3,0,0,1-1.55,3.66h0A2.88,2.88,0,0,1,245,1477.24Zm-9.58,2.41a3.27,3.27,0,0,1-4-2.39h0a3.3,3.3,0,0,1,2.4-4h0a3.28,3.28,0,0,1,4,2.4h0a3.27,3.27,0,0,1-1.54,3.63h0A2.75,2.75,0,0,1,235.42,1479.65Zm-9.59,2.35h0a3.29,3.29,0,0,1-4-2.42h0a3.29,3.29,0,0,1,2.43-4h0a3.28,3.28,0,0,1,4,2.43h0a3.27,3.27,0,0,1-1.54,3.61h0A3,3,0,0,1,225.83,1482Zm-9.62,2.28a3.28,3.28,0,0,1-3.94-2.45h0a3.27,3.27,0,0,1,2.45-3.94h0a3.28,3.28,0,0,1,3.95,2.44h0a3.28,3.28,0,0,1-1.56,3.59h0A3.09,3.09,0,0,1,216.21,1484.28Zm-9.62,2.22a3.29,3.29,0,0,1-3.93-2.48h0a3.29,3.29,0,0,1,2.48-3.93h0a3.28,3.28,0,0,1,3.92,2.48h0a3.28,3.28,0,0,1-1.55,3.57h0A3.33,3.33,0,0,1,206.59,1486.5Zm-9.65,2.14a3.28,3.28,0,0,1-3.91-2.5h0a3.3,3.3,0,0,1,2.51-3.92h0a3.29,3.29,0,0,1,3.91,2.51h0a3.29,3.29,0,0,1-1.57,3.55h0A3.22,3.22,0,0,1,196.94,1488.64Zm-9.65,2.09a3.31,3.31,0,0,1-3.89-2.54h0a3.28,3.28,0,0,1,2.53-3.89h0a3.29,3.29,0,0,1,3.9,2.52h0a3.3,3.3,0,0,1-1.58,3.53h0A3.5,3.5,0,0,1,187.29,1490.73Zm-9.68,2a3.31,3.31,0,0,1-3.87-2.57h0a3.28,3.28,0,0,1,2.56-3.87h0a3.27,3.27,0,0,1,3.87,2.55h0a3.28,3.28,0,0,1-1.57,3.5h0A3.47,3.47,0,0,1,177.61,1492.74Zm-9.67,1.93h0a3.27,3.27,0,0,1-3.86-2.59h0a3.28,3.28,0,0,1,2.59-3.86h0a3.27,3.27,0,0,1,3.84,2.6h0a3.24,3.24,0,0,1-1.57,3.47h0A3.1,3.1,0,0,1,167.94,1494.67Zm-9.71,1.86a3.27,3.27,0,0,1-3.84-2.61h0a3.3,3.3,0,0,1,2.63-3.84h0a3.31,3.31,0,0,1,3.85,2.62h0a3.32,3.32,0,0,1-1.6,3.45h0A3,3,0,0,1,158.23,1496.53Zm-9.72,1.79a3.27,3.27,0,0,1-3.81-2.64h0a3.3,3.3,0,0,1,2.65-3.82h0a3.29,3.29,0,0,1,3.81,2.66h0a3.27,3.27,0,0,1-1.59,3.42h0A3,3,0,0,1,148.51,1498.32Zm-9.73,1.73h0a3.28,3.28,0,0,1-3.79-2.68h0a3.28,3.28,0,0,1,2.68-3.8h0a3.29,3.29,0,0,1,3.79,2.69h0a3.28,3.28,0,0,1-1.6,3.39h0A3.4,3.4,0,0,1,138.78,1500.05Zm-9.74,1.63a3.27,3.27,0,0,1-3.77-2.7h0a3.29,3.29,0,0,1,2.71-3.78h0a3.28,3.28,0,0,1,3.77,2.71h0a3.28,3.28,0,0,1-1.6,3.38h0A3,3,0,0,1,129,1501.68Zm-9.76,1.56a3.28,3.28,0,0,1-3.75-2.74h0a3.28,3.28,0,0,1,2.73-3.75h0a3.29,3.29,0,0,1,3.76,2.75h0a3.3,3.3,0,0,1-1.6,3.34h0A3.23,3.23,0,0,1,119.28,1503.24Zm-9.78,1.48a3.3,3.3,0,0,1-3.73-2.78h0a3.31,3.31,0,0,1,2.78-3.73h0a3.29,3.29,0,0,1,3.73,2.78h0a3.29,3.29,0,0,1-1.61,3.32h0A3.26,3.26,0,0,1,109.5,1504.72Zm-9.78,1.38a3.28,3.28,0,0,1-3.7-2.8h0a3.29,3.29,0,0,1,2.8-3.71h0a3.28,3.28,0,0,1,3.7,2.8h0a3.29,3.29,0,0,1-1.62,3.29h0A3.24,3.24,0,0,1,99.72,1506.1Zm-9.8,1.3a3.27,3.27,0,0,1-3.67-2.85h0a3.25,3.25,0,0,1,2.84-3.66h0a3.29,3.29,0,0,1,3.68,2.85h0a3.29,3.29,0,0,1-1.62,3.26h0A3.21,3.21,0,0,1,89.92,1507.4Zm-9.82,1.21a3.31,3.31,0,0,1-3.65-2.89h0a3.29,3.29,0,0,1,2.89-3.64h0A3.29,3.29,0,0,1,83,1505h0a3.32,3.32,0,0,1-1.63,3.23h0A3.42,3.42,0,0,1,80.1,1508.61Zm-9.83,1.1a3.29,3.29,0,0,1-3.61-2.93h0a3.28,3.28,0,0,1,2.91-3.61h0a3.29,3.29,0,0,1,3.62,2.92h0a3.31,3.31,0,0,1-1.63,3.2h0A3.44,3.44,0,0,1,70.27,1509.71Zm-9.84,1a3.29,3.29,0,0,1-3.58-3h0a3.28,3.28,0,0,1,2.95-3.57h0a3.29,3.29,0,0,1,3.59,3h0a3.3,3.3,0,0,1-1.63,3.15h0A3.36,3.36,0,0,1,60.43,1510.7Zm-9.86.87a3.27,3.27,0,0,1-3.54-3h0a3.28,3.28,0,0,1,3-3.54h0a3.3,3.3,0,0,1,3.55,3h0a3.29,3.29,0,0,1-1.64,3.12h0A3.28,3.28,0,0,1,50.57,1511.57Z"/><path d="M502.09,1399.44h0a3.28,3.28,0,0,1-4.32-1.67h0a3.27,3.27,0,0,1,1.66-4.34h0a3.28,3.28,0,0,1,4.33,1.67h0a3.27,3.27,0,0,1-1.36,4.17h0A2.27,2.27,0,0,1,502.09,1399.44Zm-9,4a3.3,3.3,0,0,1-4.33-1.68h0a3.29,3.29,0,0,1,1.69-4.34h0a3.29,3.29,0,0,1,4.33,1.69h0a3.28,3.28,0,0,1-1.36,4.16h0A3.41,3.41,0,0,1,493.07,1403.42Zm-9,3.95a3.29,3.29,0,0,1-4.32-1.71h0a3.28,3.28,0,0,1,1.7-4.32h0a3.29,3.29,0,0,1,4.32,1.71h0a3.28,3.28,0,0,1-1.37,4.15h0A2.06,2.06,0,0,1,484,1407.37Zm-9.08,3.9a3.29,3.29,0,0,1-4.31-1.74h0a3.29,3.29,0,0,1,1.73-4.31h0a3.3,3.3,0,0,1,4.32,1.73h0a3.3,3.3,0,0,1-1.38,4.14h0Zm-9.1,3.83a3.27,3.27,0,0,1-4.3-1.75h0a3.29,3.29,0,0,1,1.77-4.3h0a3.28,3.28,0,0,1,4.3,1.76h0a3.31,3.31,0,0,1-1.39,4.12h0A2.7,2.7,0,0,1,465.85,1415.1Zm-9.12,3.79a3.29,3.29,0,0,1-4.29-1.79h0a3.29,3.29,0,0,1,1.79-4.29h0a3.29,3.29,0,0,1,4.29,1.79h0a3.28,3.28,0,0,1-1.39,4.1h0A2.93,2.93,0,0,1,456.73,1418.89Zm-9.14,3.73a3.29,3.29,0,0,1-4.28-1.82h0a3.29,3.29,0,0,1,1.82-4.28h0a3.29,3.29,0,0,1,4.28,1.82h0a3.28,3.28,0,0,1-1.41,4.07h0A3.17,3.17,0,0,1,447.59,1422.62Zm-9.18,3.66a3.26,3.26,0,0,1-4.25-1.84h0a3.28,3.28,0,0,1,1.84-4.26h0a3.27,3.27,0,0,1,4.26,1.84h0a3.28,3.28,0,0,1-1.41,4.06h0A2.55,2.55,0,0,1,438.41,1426.28Zm-9.19,3.61A3.28,3.28,0,0,1,425,1428h0a3.29,3.29,0,0,1,1.87-4.25h0a3.27,3.27,0,0,1,4.25,1.87h0a3.28,3.28,0,0,1-1.41,4h0A2.78,2.78,0,0,1,429.22,1429.89Zm-9.21,3.55a3.27,3.27,0,0,1-4.23-1.89h0a3.27,3.27,0,0,1,1.89-4.24h0a3.28,3.28,0,0,1,4.24,1.9h0a3.29,3.29,0,0,1-1.42,4h0A3,3,0,0,1,420,1433.44Zm-9.23,3.5h0a3.29,3.29,0,0,1-4.23-1.92h0a3.28,3.28,0,0,1,1.93-4.23h0a3.28,3.28,0,0,1,4.22,1.92h0a3.29,3.29,0,0,1-1.43,4h0A3.68,3.68,0,0,1,410.78,1436.94Zm-9.26,3.44a3.29,3.29,0,0,1-4.22-2h0a3.3,3.3,0,0,1,1.95-4.22h0a3.31,3.31,0,0,1,4.23,2h0a3.3,3.3,0,0,1-1.45,4h0A3,3,0,0,1,401.52,1440.38Zm-9.27,3.38h0a3.3,3.3,0,0,1-4.21-2h0a3.29,3.29,0,0,1,2-4.21h0a3.28,3.28,0,0,1,4.21,2h0a3.29,3.29,0,0,1-1.44,4h0A3.65,3.65,0,0,1,392.25,1443.76Zm-9.31,3.32a3.28,3.28,0,0,1-4.19-2h0a3.28,3.28,0,0,1,2-4.19h0a3.28,3.28,0,0,1,4.19,2h0a3.3,3.3,0,0,1-1.46,3.94h0A3.07,3.07,0,0,1,382.94,1447.08Zm-9.32,3.26a3.28,3.28,0,0,1-4.18-2h0a3.27,3.27,0,0,1,2-4.17h0a3.28,3.28,0,0,1,4.18,2h0a3.28,3.28,0,0,1-1.45,3.92h0A3,3,0,0,1,373.62,1450.34Zm-9.34,3.2h0a3.27,3.27,0,0,1-4.16-2h0a3.28,3.28,0,0,1,2.05-4.17h0a3.28,3.28,0,0,1,4.17,2.05h0a3.3,3.3,0,0,1-1.46,3.9h0A2.94,2.94,0,0,1,364.28,1453.54Zm-9.35,3.16h0a3.3,3.3,0,0,1-4.16-2.09h0a3.28,3.28,0,0,1,2.08-4.15h0a3.28,3.28,0,0,1,4.15,2.08h0a3.27,3.27,0,0,1-1.47,3.88h0A4.11,4.11,0,0,1,354.93,1456.7Zm-9.39,3.07a3.26,3.26,0,0,1-4.13-2.1h0a3.26,3.26,0,0,1,2.1-4.13h0a3.28,3.28,0,0,1,4.14,2.1h0a3.29,3.29,0,0,1-1.48,3.86h0A2.55,2.55,0,0,1,345.54,1459.77Zm-9.39,3a3.28,3.28,0,0,1-4.13-2.13h0a3.3,3.3,0,0,1,2.13-4.14h0a3.31,3.31,0,0,1,4.13,2.15h0a3.3,3.3,0,0,1-1.49,3.84h0A4.59,4.59,0,0,1,336.15,1462.81Zm-9.43,3a3.27,3.27,0,0,1-4.1-2.16h0a3.28,3.28,0,0,1,2.15-4.11h0a3.28,3.28,0,0,1,4.12,2.16h0a3.29,3.29,0,0,1-1.49,3.81h0A3,3,0,0,1,326.72,1465.78Zm-9.43,2.91a3.28,3.28,0,0,1-4.09-2.19h0a3.26,3.26,0,0,1,2.17-4.1h0a3.27,3.27,0,0,1,4.09,2.19h0a3.27,3.27,0,0,1-1.5,3.79h0A3.27,3.27,0,0,1,317.29,1468.69Zm-9.46,2.84h0a3.26,3.26,0,0,1-4.08-2.21h0a3.28,3.28,0,0,1,2.2-4.08h0a3.29,3.29,0,0,1,4.1,2.21h0a3.3,3.3,0,0,1-1.51,3.78h0A3,3,0,0,1,307.83,1471.53Zm-9.47,2.79h0a3.28,3.28,0,0,1-4.07-2.23h0a3.29,3.29,0,0,1,2.23-4.08h0a3.3,3.3,0,0,1,4.08,2.24h0a3.3,3.3,0,0,1-1.51,3.77h0A3.12,3.12,0,0,1,298.36,1474.32Zm-9.49,2.73a3.28,3.28,0,0,1-4.06-2.26h0a3.31,3.31,0,0,1,2.27-4.07h0a3.3,3.3,0,0,1,4.05,2.28h0a3.27,3.27,0,0,1-1.52,3.73h0A3.25,3.25,0,0,1,288.87,1477.05Zm-9.51,2.67h0a3.28,3.28,0,0,1-4-2.29h0a3.28,3.28,0,0,1,2.28-4h0a3.28,3.28,0,0,1,4,2.29h0a3.28,3.28,0,0,1-1.52,3.72h0A3.48,3.48,0,0,1,279.36,1479.72Zm-9.52,2.6a3.28,3.28,0,0,1-4-2.31h0a3.28,3.28,0,0,1,2.31-4h0a3.28,3.28,0,0,1,4,2.31h0a3.26,3.26,0,0,1-1.53,3.7h0A2.7,2.7,0,0,1,269.84,1482.32Zm-9.55,2.55a3.29,3.29,0,0,1-4-2.34h0a3.29,3.29,0,0,1,2.34-4h0a3.29,3.29,0,0,1,4,2.34h0a3.33,3.33,0,0,1-1.54,3.69h0A3.44,3.44,0,0,1,260.29,1484.87Zm-9.56,2.48h0a3.28,3.28,0,0,1-4-2.37h0a3.28,3.28,0,0,1,2.36-4h0a3.29,3.29,0,0,1,4,2.37h0a3.31,3.31,0,0,1-1.54,3.66h0A3.61,3.61,0,0,1,250.73,1487.35Zm-9.57,2.42h0a3.29,3.29,0,0,1-4-2.41h0a3.26,3.26,0,0,1,2.39-4h0a3.28,3.28,0,0,1,4,2.39h0a3.29,3.29,0,0,1-1.55,3.64h0A4.23,4.23,0,0,1,241.16,1489.77Zm-9.6,2.34a3.27,3.27,0,0,1-4-2.42h0a3.28,3.28,0,0,1,2.42-4h0a3.3,3.3,0,0,1,4,2.42h0a3.32,3.32,0,0,1-1.55,3.62h0A3.22,3.22,0,0,1,231.56,1492.11Zm-9.61,2.3A3.29,3.29,0,0,1,218,1492h0a3.28,3.28,0,0,1,2.44-4h0a3.29,3.29,0,0,1,4,2.45h0a3.28,3.28,0,0,1-1.55,3.6h0A3.94,3.94,0,0,1,222,1494.41Zm-9.62,2.21h0a3.28,3.28,0,0,1-3.93-2.48h0a3.28,3.28,0,0,1,2.48-3.92h0a3.28,3.28,0,0,1,3.93,2.47h0a3.3,3.3,0,0,1-1.57,3.57h0A3.15,3.15,0,0,1,212.33,1496.62Zm-9.64,2.15a3.27,3.27,0,0,1-3.91-2.5h0a3.28,3.28,0,0,1,2.5-3.91h0a3.28,3.28,0,0,1,3.91,2.51h0a3.27,3.27,0,0,1-1.56,3.54h0A3,3,0,0,1,202.69,1498.77Zm-9.65,2.09h0a3.29,3.29,0,0,1-3.9-2.53h0a3.29,3.29,0,0,1,2.53-3.9h0a3.28,3.28,0,0,1,3.89,2.53h0a3.28,3.28,0,0,1-1.57,3.54h0A3.28,3.28,0,0,1,193,1500.86Zm-9.67,2a3.3,3.3,0,0,1-3.88-2.57h0a3.26,3.26,0,0,1,2.56-3.86h0a3.26,3.26,0,0,1,3.87,2.55h0a3.28,3.28,0,0,1-1.57,3.5h0A3.63,3.63,0,0,1,183.37,1502.88Zm-9.68,1.95h0a3.27,3.27,0,0,1-3.85-2.58h0a3.27,3.27,0,0,1,2.59-3.86h0a3.31,3.31,0,0,1,3.86,2.59h0a3.29,3.29,0,0,1-1.58,3.49h0A3.76,3.76,0,0,1,173.69,1504.83ZM164,1506.7a3.28,3.28,0,0,1-3.84-2.62h0a3.29,3.29,0,0,1,2.62-3.84h0a3.28,3.28,0,0,1,3.83,2.61h0a3.28,3.28,0,0,1-1.58,3.47h0A3.42,3.42,0,0,1,164,1506.7Zm-9.72,1.79a3.27,3.27,0,0,1-3.81-2.64h0a3.28,3.28,0,0,1,2.65-3.81h0a3.26,3.26,0,0,1,3.81,2.64h0a3.28,3.28,0,0,1-1.59,3.43h0A3.35,3.35,0,0,1,154.26,1508.49Zm-9.73,1.73h0a3.26,3.26,0,0,1-3.79-2.68h0a3.29,3.29,0,0,1,2.67-3.8h0a3.3,3.3,0,0,1,3.8,2.68h0a3.29,3.29,0,0,1-1.6,3.41h0A3.16,3.16,0,0,1,144.53,1510.22Zm-9.74,1.65a3.28,3.28,0,0,1-3.77-2.71h0a3.27,3.27,0,0,1,2.7-3.77h0a3.31,3.31,0,0,1,3.79,2.7h0a3.3,3.3,0,0,1-1.61,3.38h0A3.2,3.2,0,0,1,134.79,1511.87Zm-9.76,1.57a3.29,3.29,0,0,1-3.75-2.75h0a3.3,3.3,0,0,1,2.74-3.75h0a3.29,3.29,0,0,1,3.75,2.74h0a3.31,3.31,0,0,1-1.61,3.36h0A3.45,3.45,0,0,1,125,1513.44Zm-9.77,1.48h0a3.29,3.29,0,0,1-3.73-2.78h0a3.28,3.28,0,0,1,2.78-3.72h0a3.27,3.27,0,0,1,3.72,2.77h0a3.25,3.25,0,0,1-1.61,3.32h0A3.28,3.28,0,0,1,115.26,1514.92Zm-9.79,1.39h0a3.3,3.3,0,0,1-3.71-2.82h0a3.28,3.28,0,0,1,2.81-3.69h0a3.27,3.27,0,0,1,3.7,2.8h0a3.3,3.3,0,0,1-1.61,3.3h0A3.21,3.21,0,0,1,105.47,1516.31Zm-9.8,1.31h0a3.3,3.3,0,0,1-3.68-2.85h0a3.28,3.28,0,0,1,2.84-3.67h0a3.29,3.29,0,0,1,3.68,2.83h0a3.32,3.32,0,0,1-1.61,3.27h0A3.42,3.42,0,0,1,95.67,1517.62Zm-9.8,1.21a3.29,3.29,0,0,1-3.66-2.87h0a3.3,3.3,0,0,1,2.88-3.65h0a3.28,3.28,0,0,1,3.64,2.87h0a3.28,3.28,0,0,1-1.62,3.23h0A3.36,3.36,0,0,1,85.87,1518.83ZM76,1519.94a3.28,3.28,0,0,1-3.62-2.91h0a3.3,3.3,0,0,1,2.92-3.62h0a3.3,3.3,0,0,1,3.62,2.92h0a3.27,3.27,0,0,1-1.62,3.19h0A3.21,3.21,0,0,1,76,1519.94Zm-9.84,1a3.29,3.29,0,0,1-3.58-3h0a3.29,3.29,0,0,1,3-3.59h0a3.27,3.27,0,0,1,3.58,3h0a3.26,3.26,0,0,1-1.63,3.15h0A3.31,3.31,0,0,1,66.19,1521Z"/><path class="cls-6" d="M887.83,315.47C901.91,308.91,916,303,930,297.05s28-11.82,41.77-18c3.48-1.48,6.9-3.07,10.33-4.63s6.86-3.14,10.27-4.75,6.78-3.28,10.19-4.87,6.76-3.33,10.1-5.07a396,396,0,0,0,39.45-22.89,112.45,112.45,0,0,1-15.71,17.3A170,170,0,0,1,1018,268.63a223.77,223.77,0,0,1-20,12.18c-3.41,1.89-6.89,3.61-10.36,5.37s-7,3.35-10.56,4.91a328.25,328.25,0,0,1-43.69,15.68c-7.45,2.07-15,3.9-22.56,5.4A195.08,195.08,0,0,1,887.83,315.47Z"/><g class="cls-12"><path d="M1207.54,713.27s-9.92-35.38,21.51-65.41,68.15-65.85,73.38-101.38,19.92,18.57,20.41,35.35,8.16,62.44-34.89,85S1213.22,739.91,1207.54,713.27Z"/></g><g class="cls-5"><path d="M1465.37,728.07s-70.14,24.24-227.68,131.45-512.55,346.73-512.55,346.73,379.06-195.09,535.64-303.93S1465.37,728.07,1465.37,728.07Z"/></g><g class="cls-11"><path d="M487.26,1223.49S442.61,1227.13,388,1255s-183.42,96.15-225.37,114.28,189.49-60.29,236.06-83.09S487.26,1223.49,487.26,1223.49Z"/></g><path class="cls-6" d="M583.72,253.74s98-5.36,118.81,11.05C702.53,264.79,644.19,277.34,583.72,253.74Z"/><path d="M957.53,1170.29q-67.83,39.17-144.73,81.54c-209.15,115-385.15,196.62-523.11,242.52-130.42,43.38-190.28,42.51-214.36,38.13-39.47-7.19-64.95-39.89-72.69-69.11-4.95-18.68-2.85-35.09,5.53-45.09-1.81-9.23-5.47-32.2-2.89-57.41,4.45-43.44,25.28-72.42,60.31-83.91,8.63-6.61,71.32-55.28,149.52-134.19,77.29-78,186-202.35,264.9-351.82,49.2-93.2,78.33-168.14,86.57-222.74,6.92-45.91-3.06-65.6-9.63-73.26a78.6,78.6,0,0,1-18.47-40.08c-7.12-50.28-17.29-145.33-5.56-217.64.36-6.29,3.48-17,19.48-21.82,8.66-2.63,18.73-2.89,25.4-3.06,2,0,3.79-.1,5-.19q.39,0,.78,0c2.23.05,54.71,1.17,77.59,2.53l4.12.21c22.36,1.08,68.89,3.34,104.39,41.29a134.38,134.38,0,0,1,21.66,31.31C932.46,257.7,986.18,221,1013.65,202.28c3.3-2.25,6.15-4.19,8.78-5.88,10.15-6.48,19.42-8,27.56-4.54,8.75,3.72,13.27,12.13,15.41,17.85,7.12,1.56,18.87,7,33.78,24.35,17.49,20.34,69.46,72.28,85.07,87.82l0,0a7.65,7.65,0,0,1,10.35,1.62c.08.09,7.48,9.54,12.52,14.79a25.52,25.52,0,0,0,2.36,2.25c9.9,4.9,28.09,16.12,44.87,38.34a18.6,18.6,0,0,1,7.56-1.73,16.45,16.45,0,0,1,12,5.24l.25.25c7.34,7.52,23.69,24.27,33.67,42.48a13.66,13.66,0,0,1,2.56.48c2.79.81,6.72,2.94,9.61,8.46.85,1.48,7.26,10.51,14,20.07,49.56,69.8,96,137.62,105.08,167.44a26.68,26.68,0,0,1,11.37,3.43c9.06,5.08,15.55,15.14,19.32,29.88L1536,750c7.17,8.24,12.07,25.29-3.17,39.86-6.38,6.1-64.7,54.81-188,138.88C1261.24,985.75,1131.91,1069.61,957.53,1170.29ZM56.86,1297.52c-54,31.2-33.12,120.41-32.89,121.38a7.64,7.64,0,0,1-2.52,7.68c-6.31,5.3-7.88,18.2-4,32.86,6.5,24.54,27.77,52,60.62,58,18.22,3.32,74.84,6.29,206.78-37.6,137.08-45.6,312.22-126.82,520.56-241.4,248.46-136.65,425.78-250.71,530.79-322.34,120.81-82.41,180.1-131.66,186-137.29,4.46-4.26,6.08-8.53,5-13.06a15.77,15.77,0,0,0-2.89-5.81,8.3,8.3,0,0,1-.64-.8l-67.18-96.65a7.75,7.75,0,0,1-1.16-2.59c-2.64-11.05-6.89-18.49-12.28-21.52a11.16,11.16,0,0,0-7.58-1.36,7.65,7.65,0,0,1-10-6.76c-.38-5.4-6.11-22.3-40.22-74.75-22-33.91-48.09-70.58-63.65-92.49-10.45-14.73-14.12-19.92-15.12-21.83a4.19,4.19,0,0,0-.26-.45,7.39,7.39,0,0,1-4.94.21,7.55,7.55,0,0,1-4.66-4.19c-8.38-17.79-26.53-36.39-33.37-43.39l-.24-.25c-.6-.62-.87-.62-1-.62-1.24,0-3.36,1.56-4,2.21a7.66,7.66,0,0,1-11.87-1c-16-23.57-34.15-34.85-43.55-39.47l-.18-.09c-1.78-.9-3.66-2.46-6.33-5.24-2.9-3-6.36-7.11-9-10.39a7.67,7.67,0,0,1-9.09-1.27c-2.82-2.8-69.41-68.78-90.38-93.17-15.61-18.13-25.33-19.48-26.92-19.58a6.64,6.64,0,0,1-5.47-.92c-1.86-1.1-2.7-3.06-3.13-5.17-.54-2.55-3.2-10.39-8.07-12.43-4-1.67-9.44.91-13.29,3.37-2.44,1.56-5.2,3.44-8.39,5.62-32,21.81-98.45,67.19-288.3,98.89l-.13,0c-62.32,9.27-92.71,20.39-104.89,38.38-11.18,16.51-8.22,41.42.67,78.86.85,3.62,2.69,11,3,12.09l2.88,10.13a7.66,7.66,0,1,1-14.74,4.21l-2.92-10.26a2.33,2.33,0,0,1-.07-.25c-.08-.34-2.09-8.43-3-12.39-9.88-41.58-12.79-69.81,1.55-91,15.05-22.24,47.37-34.84,115.26-44.94,15.55-2.6,30.23-5.28,44.14-8a117.49,117.49,0,0,0-17.22-24c-31.26-33.41-73.6-35.46-94-36.45l-4.27-.22c-21.61-1.28-71.83-2.39-76.64-2.49-1.53.1-3.34.15-5.41.2-15.39.39-29.67,2-30,10.62a7.77,7.77,0,0,1-.09,1c-11.51,70.37-1.47,163.94,5.53,213.46A63.51,63.51,0,0,0,568.58,485c10.11,11.77,20.6,36.16,13.15,85.51-8.49,56.31-38.16,132.89-88.16,227.61C413.72,949.34,303.87,1075,225.78,1153.77c-84.6,85.35-151.34,135.72-152,136.21a7.57,7.57,0,0,1-2.31,1.19A72.1,72.1,0,0,0,56.86,1297.52Zm1004-1073.11Z"/><path class="cls-13" d="M538.34,832.9a13,13,0,0,1-8.29,1.6c-21.44-3-55.93-6.08-65.48-3.35a13,13,0,0,1-7.13-24.92c18.24-5.22,66.71,1.26,76.24,2.61a13,13,0,0,1,4.66,24.06Z"/><path d="M541.07,837.64a18.56,18.56,0,0,1-11.79,2.28c-24.38-3.45-55.59-5.68-63.2-3.51A18.43,18.43,0,0,1,455.94,801c18.83-5.39,64.85.51,78.51,2.45a18.43,18.43,0,0,1,6.62,34.22Zm-83.82-25.43a7.49,7.49,0,0,0,5.82,13.68c12.27-3.51,53.06,1.11,67.75,3.19a7.39,7.39,0,0,0,4.78-.92,7.49,7.49,0,0,0-2.68-13.9c-25.8-3.66-60.65-6.58-74-2.76A7.73,7.73,0,0,0,457.25,812.21Z"/><path class="cls-13" d="M583.63,754.44a12.88,12.88,0,0,1-9,1.49c-17-3.3-49-6.58-62.84-1.31a13,13,0,1,1-9.24-24.21c25.24-9.63,71.83-.93,77.05.09a13,13,0,0,1,4,23.94Z"/><path d="M586.37,759.18a18.44,18.44,0,0,1-12.75,2.13c-17.58-3.43-47.76-6.18-59.84-1.57a18.43,18.43,0,0,1-13.13-34.45c26.67-10.17,74.66-1.22,80.05-.16a18.43,18.43,0,0,1,5.67,34ZM503.45,736a7.49,7.49,0,0,0,6.43,13.47c16.76-6.39,53.21-1.41,65.83,1a7.48,7.48,0,1,0,2.88-14.69c-18.39-3.6-54.69-7.73-74.05-.35A7.81,7.81,0,0,0,503.45,736Z"/><path class="cls-13" d="M635.46,652.57a12.94,12.94,0,0,1-11.45.76c-1.5-.61-33.75-13.23-61.61,9.95a13,13,0,0,1-16.58-19.93c40.27-33.48,86.23-14.76,88.17-13.94a13,13,0,0,1,1.47,23.16Z"/><path d="M638.2,657.31a18.29,18.29,0,0,1-16.28,1.08c-1.2-.49-30.6-12-56,9.1a18.44,18.44,0,0,1-23.58-28.35c42.8-35.58,91.73-15.65,93.79-14.78a18.43,18.43,0,0,1,2.09,32.95Zm-70-4.78c27.85-16.08,56.48-4.82,57.82-4.27a7.45,7.45,0,0,0,6.65-.43,7.49,7.49,0,0,0,3.18-9.31,7.48,7.48,0,0,0-4-4.07c-1.81-.76-44.81-18.27-82.55,13.11a7.49,7.49,0,1,0,9.59,11.5A66.2,66.2,0,0,1,568.25,652.53Z"/><polygon class="cls-8" points="503.77 832.89 503.78 832.88 503.77 832.88 503.77 832.89"/><path class="cls-8" d="M696.35,565.6s11.46,32-28.11,45.14-92.94,40.12-99.54,93.77-21.15,104-64.92,128.37C532.75,830,541,866.31,557,912c2,5.77,6.44,12.83,12.64,20.79h0c62-54,68.52-104.74,77.37-143.83s11.18-75.41,93-113.26c66.45-29.41,65.27-81.3,60.31-105.95C762.13,569.31,723.17,568.43,696.35,565.6Z"/><g class="cls-9"><path class="cls-6" d="M622.84,773.2s3.88,35.39-25.39,69.17C597.45,842.37,592,804.83,622.84,773.2Z"/></g><g class="cls-9"><path class="cls-6" d="M634.13,661.62s-7.74,24.25-39,38.29C595.17,699.91,602.4,673.8,634.13,661.62Z"/></g><path d="M696.35,565.6a34.4,34.4,0,0,1,1,22.25,32,32,0,0,1-5.31,10.37,40.87,40.87,0,0,1-8.41,8.15,55.33,55.33,0,0,1-10.1,5.77c-.87.43-1.77.75-2.66,1.13s-1.81.72-2.64,1c-1.71.64-3.4,1.3-5.09,2q-10.15,4-19.9,8.83c-12.94,6.44-25.31,13.95-36.11,23.13-2.7,2.29-5.28,4.7-7.78,7.17a103.54,103.54,0,0,0-7,7.84,84.68,84.68,0,0,0-11.13,17.5,80.54,80.54,0,0,0-6.45,19.59l-.83,5.15-.77,5.53c-.54,3.69-1.09,7.38-1.75,11.06a253.55,253.55,0,0,1-11.23,43.53c-5.16,14.13-12.11,27.81-21.55,39.64a104.08,104.08,0,0,1-15.92,16c-1.5,1.13-2.94,2.31-4.5,3.35l-2.3,1.59-2.37,1.49a94.44,94.44,0,0,1-9.82,5.24c1.51-1.08,3.05-2.09,4.52-3.19s2.95-2.19,4.34-3.4l2.12-1.74,2-1.83c1.38-1.19,2.64-2.51,4-3.77a108.11,108.11,0,0,0,13.59-16.87,151,151,0,0,0,17.73-39.22,292,292,0,0,0,9.15-42.45q.78-5.4,1.48-10.82l.65-5.43c.26-1.89.54-3.86.84-5.79a90.55,90.55,0,0,1,7.2-22.34c6.77-14.21,17.26-26.23,29.19-35.78a167,167,0,0,1,39.11-22.94c6.92-2.93,14-5.55,21.08-7.79,1.78-.56,3.56-1.11,5.35-1.63.92-.27,1.75-.53,2.59-.8s1.69-.49,2.51-.81a52.15,52.15,0,0,0,9.5-4.38,36.29,36.29,0,0,0,8.12-6.4,30.54,30.54,0,0,0,5.71-8.68,32.55,32.55,0,0,0,2.53-10.33A36.14,36.14,0,0,0,696.35,565.6Z"/><g class="cls-7"><path d="M1039.41,639.62s.09-97.26-199.61-82.8-202.74-46.47-202.74-46.47.3,69.35,98.12,75.28S1000.12,566.23,1039.41,639.62Z"/></g><path class="cls-8" d="M1252.48,389.37s-34.7,49-78.9,104.2c-34.65,43.21-75.13,90.17-109.33,120.21h0a230.79,230.79,0,0,1-26.62,20.55c-33.76-68.46-85-61.27-136.21-63.37-45-1.84-144.2.23-199.78-4.84-7.66-.71-14.5-1.54-20.25-2.54-44.11-7.68-52.42-84.79-55.56-112.93-.23-2.14-.44-4-.63-5.5-2.71-21.59-9.37-45.79,36.14-59.87,6.15-1.91,17.69-3.85,33.19-5.79,99.13-12.42,360.07-24.8,406.32-26.85,53.49-2.38,82.49-20.88,82.49-20.88l5.26-3.57s13.43,17.17,17.21,19c.74.36,2.2,1.06,4.2,2.18C1218.39,354.07,1236.48,365.83,1252.48,389.37Z"/><g class="cls-11"><path d="M1252.48,389.37s-34.7,49-78.9,104.2c-34.65,43.21-75.13,90.17-109.33,120.21,208.34-233.33,152-231.95,137.53-242.28s-95.87,15.54-162.31,16.58-296.74,25-345,27.37-36.18,38.67-30,81c4.47,30.73,25.85,57.38,37.23,69.67-7.66-.71-14.5-1.54-20.25-2.54-47.44-8.26-53.47-96.84-56.19-118.43s-9.37-45.79,36.14-59.87,386-30.27,439.51-32.64,82.49-20.88,82.49-20.88l5.26-3.57s13.43,17.17,17.21,19S1232.65,360.18,1252.48,389.37Z"/></g><g class="cls-9"><path class="cls-6" d="M711.83,407.08c4.94-2.16,9.9-3.92,14.88-5.56s10-3.13,14.95-4.49q15-4.06,30-6.87a512.49,512.49,0,0,1,60.51-7.59,506,506,0,0,1,61-.59q15.3.79,30.69,2.81,7.7,1,15.42,2.47c5.15,1,10.3,2.06,15.49,3.56-4.94,2.17-9.91,3.94-14.88,5.58s-10,3.14-14.95,4.51q-15,4.06-30.05,6.87a505.75,505.75,0,0,1-60.5,7.55,514.36,514.36,0,0,1-61,.54c-10.21-.54-20.44-1.45-30.7-2.81q-7.69-1-15.41-2.45C722.17,409.65,717,408.56,711.83,407.08Z"/></g><path d="M559.74,917.32a3.83,3.83,0,0,1-4.47-6.18c4.11-3.67,8-7.42,11.69-11.15a3.83,3.83,0,0,1,5.48,5.36c-3.77,3.85-7.83,7.72-12.06,11.51A4,4,0,0,1,559.74,917.32Zm22.92-23.46a3.84,3.84,0,0,1-4.85-5.79c3.5-4.16,6.81-8.44,9.83-12.73a3.84,3.84,0,0,1,6.27,4.42c-3.15,4.46-6.59,8.92-10.23,13.25A3.92,3.92,0,0,1,582.66,893.86ZM601.51,867a3.83,3.83,0,0,1-5.25-5.22c2.64-4.62,5.09-9.42,7.29-14.29a3.83,3.83,0,1,1,7,3.15c-2.29,5.09-4.85,10.12-7.62,14.94A3.82,3.82,0,0,1,601.51,867ZM615,837.15a3.83,3.83,0,0,1-5.54-4.57c1.68-4.85,3.22-9.9,4.7-15.44a3.83,3.83,0,1,1,7.4,2c-1.53,5.72-3.12,10.94-4.85,16A3.82,3.82,0,0,1,615,837.15Zm8.63-31.66a3.83,3.83,0,0,1-5.65-4.15q.91-4.12,1.78-8.17t1.72-7.87A3.83,3.83,0,1,1,629,787c-.57,2.57-1.13,5.18-1.71,7.83s-1.18,5.45-1.79,8.22A3.84,3.84,0,0,1,623.63,805.49Zm7-32.08a3.84,3.84,0,0,1-5.66-4.15c1-4.42,2.32-10.25,4-16.16a3.83,3.83,0,0,1,7.37,2.11c-1.64,5.72-2.94,11.4-3.9,15.71A3.84,3.84,0,0,1,630.66,773.41ZM640,742a3.83,3.83,0,0,1-5.46-4.78A120.89,120.89,0,0,1,642,722a3.83,3.83,0,0,1,6.61,3.88,112.61,112.61,0,0,0-7,14.22A3.83,3.83,0,0,1,640,742Zm16.54-28.22a3.83,3.83,0,0,1-4.92-5.69,136.68,136.68,0,0,1,11.29-12.54,3.83,3.83,0,1,1,5.37,5.46A130.86,130.86,0,0,0,657.6,712.8,3.74,3.74,0,0,1,656.51,713.74Zm23.26-23a3.83,3.83,0,0,1-4.3-6.31c4.18-3.34,8.72-6.66,13.5-9.87a3.83,3.83,0,0,1,4.27,6.37c-4.6,3.09-9,6.28-13,9.49A3.08,3.08,0,0,1,679.77,690.7ZM745,652.91c-2.85,1.64-5.9,3.23-9.06,4.73a3.83,3.83,0,0,1-3.28-6.93A110.49,110.49,0,0,0,746.52,643a3.83,3.83,0,1,1,4.23,6.39C748.92,650.57,747,651.77,745,652.91Zm-23.6,11.66-.19.1c-5,2.52-9.77,5.11-14.26,7.7a3.83,3.83,0,1,1-3.83-6.64h0c4.61-2.66,9.53-5.32,14.63-7.9a3.83,3.83,0,0,1,3.65,6.74Zm41.9-25.37a3.83,3.83,0,0,1-4.61-6,62.65,62.65,0,0,0,9.61-12.08,3.83,3.83,0,1,1,6.56,4,70.66,70.66,0,0,1-10.78,13.56A4,4,0,0,1,763.32,639.2ZM780,611.36a3.79,3.79,0,0,1-2.94.37,3.83,3.83,0,0,1-2.67-4.71,58.58,58.58,0,0,0,1.59-7.67,67.52,67.52,0,0,0,.62-7.61,3.83,3.83,0,0,1,7.66.18,73.46,73.46,0,0,1-.69,8.49,66.45,66.45,0,0,1-1.79,8.66A3.8,3.8,0,0,1,780,611.36Zm1-32.55a3.88,3.88,0,0,1-1.22.45,3.83,3.83,0,0,1-4.46-3.08c-.36-2-.79-3.92-1.29-5.8a3.83,3.83,0,0,1,7.41-2c.55,2.07,1,4.21,1.42,6.37A3.83,3.83,0,0,1,781,578.81Z"/><path d="M540.75,837.49a3.83,3.83,0,0,1-4.54-6.11A122.48,122.48,0,0,0,547,819.72a3.83,3.83,0,1,1,5.94,4.84A129,129,0,0,1,541.47,837,4.51,4.51,0,0,1,540.75,837.49Zm20.7-25.37a3.83,3.83,0,0,1-5.16-5.36,153.07,153.07,0,0,0,7.78-14,3.83,3.83,0,1,1,6.88,3.37,160.31,160.31,0,0,1-8.18,14.7A3.81,3.81,0,0,1,561.45,812.12ZM576,782.72a3.83,3.83,0,0,1-5.5-4.68c1.86-4.85,3.6-10,5.17-15.28A3.83,3.83,0,1,1,583,765c-1.63,5.47-3.43,10.8-5.36,15.82A3.73,3.73,0,0,1,576,782.72Zm9.44-31.43a3.83,3.83,0,0,1-5.65-4.18c1.17-5.05,2.26-10.4,3.24-15.9a3.83,3.83,0,0,1,7.55,1.35c-1,5.63-2.13,11.1-3.32,16.28A3.82,3.82,0,0,1,585.4,751.29ZM591.24,719a3.83,3.83,0,0,1-5.71-3.84q.59-4.26,1.1-8.42a66.37,66.37,0,0,1,1.54-8.21,3.83,3.83,0,0,1,7.43,1.89,58.29,58.29,0,0,0-1.36,7.25c-.35,2.82-.72,5.66-1.12,8.54A3.81,3.81,0,0,1,591.24,719Zm8.66-31.4a3.84,3.84,0,0,1-5.27-5.19,78.84,78.84,0,0,1,10.07-14,3.83,3.83,0,0,1,5.71,5.11,71.07,71.07,0,0,0-9.09,12.61A3.81,3.81,0,0,1,599.9,687.58ZM692.53,628a91.24,91.24,0,0,1-13.22,6.15,3.83,3.83,0,0,1-2.64-7.2,73.43,73.43,0,0,0,12-5.58c.69-.4,1.36-.81,2-1.22a3.84,3.84,0,1,1,4.08,6.5C694.05,627.08,693.3,627.54,692.53,628Zm14.78-11.66a3.83,3.83,0,0,1-4.72-5.93,49.66,49.66,0,0,0,8.31-12.06l.24-.49a3.83,3.83,0,0,1,6.93,3.27l-.28.59a57.88,57.88,0,0,1-9.58,13.9A3.85,3.85,0,0,1,707.31,616.32Zm-42.86,23a3.26,3.26,0,0,1-.53.26c-5.17,2-10.14,4.17-14.79,6.41a3.83,3.83,0,1,1-3.33-6.9c4.83-2.33,10-4.56,15.33-6.65a3.83,3.83,0,0,1,3.32,6.88Zm-43,23.7a3.83,3.83,0,0,1-4.3-6.32A132.88,132.88,0,0,1,631,647.12a3.83,3.83,0,0,1,4,6.55,125.45,125.45,0,0,0-13.1,9.07A5,5,0,0,1,621.44,663.07Zm99.72-76a3.83,3.83,0,0,1-5.71-3.84,54.88,54.88,0,0,0-.11-15.3,3.83,3.83,0,0,1,7.58-1.11,62.24,62.24,0,0,1,.12,17.45A3.83,3.83,0,0,1,721.16,587.11Z"/><path d="M1057.14,624l-.14.08a3.83,3.83,0,0,1-5.17-1.62c-1.16-2.22-2.37-4.41-3.58-6.52-1.46-2.53-3-5-4.51-7.35a3.83,3.83,0,1,1,6.42-4.18c1.61,2.46,3.2,5,4.73,7.7,1.27,2.2,2.52,4.48,3.73,6.8A3.84,3.84,0,0,1,1057.14,624Zm-18-27.4a3.83,3.83,0,0,1-4.86-.87,118.84,118.84,0,0,0-10.94-11.52,3.83,3.83,0,0,1,5.17-5.65,126.2,126.2,0,0,1,11.67,12.27,3.84,3.84,0,0,1-.5,5.4A3.23,3.23,0,0,1,1039.14,596.56ZM1015,574.5a3.82,3.82,0,0,1-4.06-.14,105.18,105.18,0,0,0-13.76-7.82,3.83,3.83,0,0,1,3.28-6.93,112.83,112.83,0,0,1,14.76,8.4,3.83,3.83,0,0,1,1,5.32A3.79,3.79,0,0,1,1015,574.5Zm-29.56-14a3.8,3.8,0,0,1-3,.34,135.65,135.65,0,0,0-15.5-3.78,3.83,3.83,0,1,1,1.39-7.53,140.1,140.1,0,0,1,16.38,4,3.83,3.83,0,0,1,2.52,4.8A3.74,3.74,0,0,1,985.41,560.46Zm-32.21-6.1a3.81,3.81,0,0,1-2.27.49c-4.84-.45-10.13-.79-16.18-1a3.83,3.83,0,0,1,.31-7.66c6.18.25,11.61.6,16.59,1.07a3.82,3.82,0,0,1,1.55,7.13Zm-32.79-1.49a3.87,3.87,0,0,1-2,.51h-.15c-5.31-.11-10.79-.23-16.11-.45h-.23a3.83,3.83,0,0,1,.31-7.65h.27c5.21.21,10.65.33,15.92.44h.15a3.84,3.84,0,0,1,1.84,7.16Zm-32.84-.94a3.81,3.81,0,0,1-2,.51c-5.12-.11-10.6-.19-16.39-.25a3.84,3.84,0,0,1,.09-7.67c5.81.07,11.31.15,16.46.26a3.83,3.83,0,0,1,1.83,7.15Zm-32.84-.41a3.78,3.78,0,0,1-2,.51l-16.41-.11a3.83,3.83,0,1,1,0-7.66l16.42.11a3.83,3.83,0,0,1,1.89,7.15Zm340.67-197c-1.39.8-2.94,1.64-4.63,2.5a3.84,3.84,0,0,1-3.49-6.83c2-1,3.41-1.8,4.29-2.31s1.33-.79,1.47-.88l7.72-5.28a3.83,3.83,0,0,1,4.33,6.33l-7.82,5.34C1197,353.57,1196.41,353.94,1195.4,354.53Zm-19.48,9a3.94,3.94,0,0,1-.55.26c-5.07,1.94-10.41,3.73-15.88,5.32a3.83,3.83,0,1,1-2.13-7.36c5.26-1.53,10.4-3.25,15.27-5.11a3.83,3.83,0,0,1,3.29,6.89Zm-31.51,9.2a4.2,4.2,0,0,1-1.12.43c-5.36,1.13-10.88,2.1-16.43,2.88a3.83,3.83,0,1,1-1.07-7.58c5.37-.76,10.73-1.7,15.91-2.8a3.83,3.83,0,0,1,2.71,7.07ZM821.88,551.3a3.78,3.78,0,0,1-2,.51c-5.41,0-10.91-.08-16.44-.14a3.83,3.83,0,0,1,.08-7.66l16.42.14a3.83,3.83,0,0,1,1.89,7.15Zm290-173.95a3.71,3.71,0,0,1-1.62.5c-2.76.21-5.55.38-8.31.5l-8.21.37a3.83,3.83,0,1,1-.35-7.66l8.22-.37c2.68-.12,5.4-.28,8.07-.48a3.83,3.83,0,0,1,2.2,7.14ZM789,551a3.82,3.82,0,0,1-2,.51c-5.51-.08-11-.17-16.45-.28a3.83,3.83,0,1,1,.15-7.66c5.43.11,10.91.2,16.4.28A3.83,3.83,0,0,1,789,551Zm290.08-172a3.8,3.8,0,0,1-1.74.51l-16.42.78a3.83,3.83,0,0,1-.36-7.66l16.43-.77a3.83,3.83,0,0,1,2.09,7.14ZM756.15,550.3a3.85,3.85,0,0,1-2,.51c-5.78-.16-11.32-.35-16.47-.56a3.83,3.83,0,0,1,.31-7.66c5.12.21,10.63.4,16.38.56a3.83,3.83,0,0,1,1.8,7.15Zm290.08-169.76a3.88,3.88,0,0,1-1.73.51q-8.12.39-16.41.82a3.83,3.83,0,0,1-.39-7.66l16.43-.82a3.83,3.83,0,0,1,2.1,7.15Zm-32.84,1.66a3.72,3.72,0,0,1-1.72.51l-16.41.86a3.83,3.83,0,1,1-.41-7.65q8.26-.45,16.43-.86a3.83,3.83,0,0,1,2.11,7.14ZM723.31,548.94a3.69,3.69,0,0,1-2.13.51c-6-.35-11.56-.75-16.51-1.18a3.84,3.84,0,0,1,.68-7.64c4.87.43,10.35.82,16.27,1.17a3.82,3.82,0,0,1,1.69,7.14Zm257.24-165a3.64,3.64,0,0,1-1.7.51l-16.38.9a3.83,3.83,0,1,1-.42-7.65l16.38-.9a3.83,3.83,0,0,1,2.12,7.14ZM690.6,545.9a3.76,3.76,0,0,1-2.48.47c-1.27-.18-2.48-.38-3.65-.58a24.61,24.61,0,0,1-13.05-7.21,3.83,3.83,0,1,1,5.39-5.44,17.22,17.22,0,0,0,9,5.1c1.1.19,2.26.38,3.46.56a3.82,3.82,0,0,1,1.35,7.1ZM947.77,385.77a3.75,3.75,0,0,1-1.7.5l-16.42,1a3.84,3.84,0,0,1-.45-7.66l16.44-.94a3.84,3.84,0,0,1,2.13,7.15Zm-32.84,1.91a3.71,3.71,0,0,1-1.69.5l-16.4,1a3.83,3.83,0,1,1-.47-7.65l16.42-1a3.84,3.84,0,0,1,2.14,7.15Zm-248.11,138-.22.11a3.84,3.84,0,0,1-5.14-1.73,116.61,116.61,0,0,1-6.25-15.78,3.83,3.83,0,1,1,7.3-2.34,108.58,108.58,0,0,0,5.82,14.72A3.84,3.84,0,0,1,666.82,525.68Zm215.29-136a3.75,3.75,0,0,1-1.67.5L864,391.24a3.83,3.83,0,0,1-.5-7.65l16.42-1a3.83,3.83,0,0,1,2.15,7.14Zm-32.81,2.12a3.8,3.8,0,0,1-1.66.51c-5.53.36-11,.74-16.4,1.11a3.83,3.83,0,0,1-.53-7.65l16.42-1.11a3.83,3.83,0,0,1,2.17,7.14ZM656.47,494.59a3.59,3.59,0,0,1-1.06.41,3.84,3.84,0,0,1-4.6-2.87c-1.16-5.06-2.26-10.55-3.25-16.31a3.83,3.83,0,0,1,7.55-1.3c1,5.62,2,11,3.17,15.89A3.83,3.83,0,0,1,656.47,494.59Zm160-100.51a3.93,3.93,0,0,1-1.64.5q-8.33.59-16.39,1.19a3.83,3.83,0,1,1-.57-7.64l16.41-1.2a3.84,3.84,0,0,1,2.19,7.15Zm-32.8,2.44a3.85,3.85,0,0,1-1.62.5c-5.59.43-11.06.87-16.37,1.31a3.83,3.83,0,1,1-.63-7.64q8-.66,16.41-1.31a3.83,3.83,0,0,1,2.21,7.14ZM650.8,462.26a4,4,0,0,1-1.42.48,3.84,3.84,0,0,1-4.3-3.3c-.43-3.31-.85-6.77-1.24-10.27-.26-2.35-.49-4.39-.7-6.06a3.83,3.83,0,1,1,7.6-.95c.22,1.7.45,3.77.71,6.16.39,3.45.8,6.86,1.23,10.12A3.83,3.83,0,0,1,650.8,462.26Zm100.11-63.05a3.72,3.72,0,0,1-1.58.5q-8.51.75-16.36,1.49a3.84,3.84,0,0,1-.72-7.64c5.24-.49,10.72-1,16.41-1.48a3.83,3.83,0,0,1,2.25,7.13Zm-32.76,3.11a3.68,3.68,0,0,1-1.52.49c-5.9.62-11.38,1.23-16.29,1.82a3.83,3.83,0,0,1-.92-7.6c5-.6,10.47-1.22,16.42-1.84a3.83,3.83,0,0,1,2.31,7.13ZM647,429.64a3.92,3.92,0,0,1-1.81.51,3.83,3.83,0,0,1-3.93-3.73,20.61,20.61,0,0,1,1.27-8.88c1.23-2.84,3.86-5.53,7.82-8a3.83,3.83,0,0,1,4.07,6.5c-3.44,2.15-4.52,3.78-4.86,4.56a14.13,14.13,0,0,0-.64,5.62A3.83,3.83,0,0,1,647,429.64Zm38.46-23.3a3.77,3.77,0,0,1-1.33.47,119.44,119.44,0,0,0-15.22,3.05l-.34.11a3.83,3.83,0,1,1-2.27-7.32l.34-.11a123.5,123.5,0,0,1,16.33-3.3,3.83,3.83,0,0,1,2.49,7.1Z"/><path d="M569.67,932.74c13.44-13.38,26-27.58,36.18-43.32a201.2,201.2,0,0,0,24-50.23c2.8-8.87,5.11-17.88,7.09-27.05l5.79-27.75c1.91-9.21,3.75-18.66,6.55-28.09a110,110,0,0,1,12.13-27.21,108.6,108.6,0,0,1,9-12,124.22,124.22,0,0,1,10.39-10.63A171.32,171.32,0,0,1,704.3,689a252.66,252.66,0,0,1,25.47-13.76c2.17-1,4.38-2,6.57-3l3.23-1.46,3.17-1.41c2.13-.92,4.14-2,6.22-3s4-2.18,6-3.3a107.39,107.39,0,0,0,21.71-16.57,81.29,81.29,0,0,0,8.87-10.38,77.52,77.52,0,0,0,7-11.75,84.64,84.64,0,0,0,7.89-26.46,97.83,97.83,0,0,0,.83-14,111.9,111.9,0,0,0-1-14.13,95.31,95.31,0,0,1,3.21,28.4,85.62,85.62,0,0,1-6,28.39,79.92,79.92,0,0,1-6.73,13.07,86.88,86.88,0,0,1-8.86,11.79l-1.22,1.39-1.28,1.33c-.86.88-1.71,1.77-2.6,2.62-1.82,1.65-3.59,3.37-5.51,4.89a122.83,122.83,0,0,1-11.86,8.71c-2.07,1.29-4.15,2.58-6.27,3.8s-4.26,2.41-6.44,3.47l-6.46,3.17c-2.08,1-4.17,2-6.25,3.12a275.09,275.09,0,0,0-24.17,13.87c-15.44,10.07-29.66,22.07-39.2,37.22a99.67,99.67,0,0,0-11,24.5c-2.75,8.7-4.61,17.86-6.76,27.16l-3.22,13.83c-1,4.62-2.16,9.27-3.32,13.91A254.88,254.88,0,0,1,637.9,842,187.8,187.8,0,0,1,626,868.35l-3.58,6.28c-1.23,2.08-2.6,4.07-3.89,6.1-2.52,4.1-5.46,7.92-8.3,11.79A219,219,0,0,1,569.67,932.74Z"/><g class="cls-12"><path d="M1167.5,403.75S1098,600,932,521.52c-98.21-47.65-52.5-101.89,84.62-77.26C1096.61,452,1185.49,366.08,1167.5,403.75Z"/></g><g class="cls-14"><path class="cls-6" d="M469.78,810.38s34.86-1.56,52.08,4.34C521.86,814.72,490.61,817.25,469.78,810.38Z"/></g><g class="cls-7"><path d="M594.32,861.3s-19.57,16.88-45.74-9.45-52.11-55.8-56.37-70.67c0,0,8.4-17.62,17.12-9.07S550.08,839,594.32,861.3Z"/></g><path d="M1037.13,634.58a166.67,166.67,0,0,0-9.26-14.88l-1.24-1.79-1.32-1.74c-.88-1.15-1.74-2.32-2.65-3.45l-2.81-3.32c-.91-1.12-2-2.13-2.91-3.2a92.73,92.73,0,0,0-12.84-11.44,88.33,88.33,0,0,0-14.7-8.64c-10.33-4.77-21.54-7.36-32.92-8.73s-23-1.48-34.75-1.63c-5.86-.06-11.76-.1-17.68-.24s-11.68-.28-17.56-.33c-11.7-.2-23.44-.21-35.18-.25s-23.49-.09-35.25-.22c-5.87-.06-11.75-.11-17.63-.27L780.78,574c-23.52-.78-47.06-1.86-70.58-4.18-2.94-.3-5.88-.57-8.82-.91l-8.81-1.12c-1.47-.16-2.94-.41-4.41-.66l-4.4-.74a41.44,41.44,0,0,1-4.44-.88,31.41,31.41,0,0,1-4.47-1.32,45,45,0,0,1-15.61-9.66A68.19,68.19,0,0,1,648,540.39a106.35,106.35,0,0,1-8-16c-2.21-5.52-4.06-11.16-5.74-16.84a290.6,290.6,0,0,1-7.49-34.65c-.94-5.83-1.74-11.68-2.46-17.52l-1.13-8.73c-.38-2.88-.86-5.76-1.29-8.7a77.9,77.9,0,0,1-1-18.16,35.76,35.76,0,0,1,2-9.26,37.64,37.64,0,0,1,2-4.41,37.21,37.21,0,0,1,2.62-4,40.9,40.9,0,0,1,6.55-6.91,59.53,59.53,0,0,1,7.68-5.33,92.08,92.08,0,0,1,16.67-7.52c1.41-.52,2.9-.93,4.4-1.35s3-.86,4.46-1.15l4.42-1c1.47-.32,2.93-.55,4.4-.83l4.39-.79,4.39-.69c2.93-.46,5.86-.93,8.78-1.32,23.41-3.29,46.84-5.56,70.28-7.72,46.87-4.29,93.78-7.65,140.72-10.37,47-2.55,93.92-4.69,140.92-6.15,11.75-.41,23.5-.71,35.25-1l17.63-.43c5.86-.1,11.62-.33,17.42-.81a219.09,219.09,0,0,0,34.4-5.52c5.66-1.39,11.25-3,16.75-5a113.44,113.44,0,0,0,16-6.9l0,0a.55.55,0,0,1,.74.22.54.54,0,0,1-.18.72c-10.05,6.38-21.12,10.82-32.41,14.43a209.26,209.26,0,0,1-34.78,7.61c-5.88.79-11.85,1.33-17.73,1.73l-17.58,1.19L1046,359.57c-46.88,3.21-93.78,6.12-140.65,9.19L835,373.12q-35.14,2.16-70.26,4.67c-23.4,1.75-46.79,3.62-70,6.13-2.91.28-5.79.66-8.69,1l-4.33.54-4.3.62c-1.43.22-2.89.38-4.29.64l-4.23.74c-1.44.22-2.77.56-4.11.88s-2.7.61-4.07,1.06a85,85,0,0,0-15.7,6.28,52.78,52.78,0,0,0-7,4.42,34.53,34.53,0,0,0-5.79,5.6,24.44,24.44,0,0,0-4.06,6.83,29.84,29.84,0,0,0-2,7.82,52.74,52.74,0,0,0-.35,8.37c.13,2.84.38,5.71.72,8.6s.71,5.82,1,8.78l.85,8.78c.6,5.84,1.28,11.64,2.08,17.44a251.91,251.91,0,0,0,7,34.28c3.17,11.19,7.43,22.14,13.54,31.9a60.25,60.25,0,0,0,10.92,13.09,39.66,39.66,0,0,0,14.37,8.33,26.57,26.57,0,0,0,4,1,39,39,0,0,0,4.23.66l4.32.53c1.43.19,2.87.37,4.33.47l8.71.72c2.91.19,5.84.32,8.75.48L715,564l4.39.14,8.77.28c5.86.11,11.71.24,17.57.29,11.72.12,23.45.15,35.18.15s23.47,0,35.21.08,23.49.08,35.24.27,23.52.32,35.31.66c2.95.05,5.9.18,8.86.32l8.81.4c5.82.28,11.68.45,17.56.66a289.62,289.62,0,0,1,35.56,2.82,130,130,0,0,1,17.66,3.95A98.62,98.62,0,0,1,992,580.89a87.21,87.21,0,0,1,15.14,10,96.36,96.36,0,0,1,12.7,12.77c7.69,9.21,13.49,19.69,18.3,30.43a.55.55,0,0,1-.27.73.56.56,0,0,1-.7-.23Z"/><path class="cls-13" d="M592.15,862.56A13,13,0,0,1,577,861c-2-1.75-48.29-43.16-67.89-69.61A582.16,582.16,0,0,1,476,741.49a13,13,0,0,1,4.74-17.7h0a13,13,0,0,1,17.7,4.74A560,560,0,0,0,530,776c18,24.33,63.86,65.28,64.32,65.69a13,13,0,0,1-2.14,20.9Z"/><path d="M594.88,867.3a18.39,18.39,0,0,1-21.48-2.21c-2-1.76-48.63-43.41-68.65-70.43a585.35,585.35,0,0,1-33.47-50.44,18.43,18.43,0,0,1,31.92-18.44,559.5,559.5,0,0,0,31.17,46.93c17.58,23.73,63.11,64.46,63.57,64.87a18.44,18.44,0,0,1,1.49,26A18.61,18.61,0,0,1,594.88,867.3ZM483.5,728.53a7.5,7.5,0,0,0-2.74,10.22,574.86,574.86,0,0,0,32.78,49.39c19.37,26.12,65.2,67.05,67.15,68.78a7.47,7.47,0,0,0,8.72.9,7.21,7.21,0,0,0,1.84-1.51,7.47,7.47,0,0,0-.6-10.56c-1.91-1.71-46.83-41.9-65.08-66.52a567.61,567.61,0,0,1-31.85-48A7.48,7.48,0,0,0,483.5,728.53Z"/><g class="cls-14"><path class="cls-6" d="M557.79,733.85s-27.89-5-47.64,1C510.15,734.86,544.24,736.65,557.79,733.85Z"/></g><g class="cls-7"><path d="M621,767.61s-42.91,26.54-88.78-60.75l14.65-26.43S572.62,739.34,621,767.61Z"/></g><path class="cls-13" d="M617.93,770.11a12.94,12.94,0,0,1-15.19-1.64c-7.81-7.09-76.2-70.88-73.23-123.58a13,13,0,0,1,25.88,1.46c-1.94,34.29,46.11,85.94,64.79,102.95a13,13,0,0,1-2.25,20.81Z"/><path d="M620.67,774.85a18.37,18.37,0,0,1-21.62-2.33c-8-7.27-78.12-72.7-75-127.94a18.43,18.43,0,1,1,36.8,2.07c-1.61,28.56,37.8,75.64,63,98.61a18.45,18.45,0,0,1,1.23,26A18.21,18.21,0,0,1,620.67,774.85ZM538.72,639.13a7.66,7.66,0,0,0-1.26.9,7.45,7.45,0,0,0-2.48,5.16c-2.83,50.19,63.83,112.32,71.44,119.23a7.44,7.44,0,0,0,8.77,1,7.36,7.36,0,0,0,1.8-1.45,7.49,7.49,0,0,0-.5-10.57c-.69-.63-69-63.42-66.57-107.31a7.48,7.48,0,0,0-11.2-6.91Z"/><path class="cls-13" d="M693.4,675.23a13,13,0,0,1-16.82-3.44c-.27-.36-26.92-35.68-48-51.66l-2.74-2.07c-50.68-38.4-65.38-51.6-68.38-61.43a13,13,0,0,1,24.44-8.57c5.54,8.39,44.73,38.08,59.59,49.34l2.75,2.08c24,18.18,51.88,55.17,53.06,56.74a13,13,0,0,1-2.58,18.14A11.57,11.57,0,0,1,693.4,675.23ZM582.24,549h0Z"/><path d="M696.14,680a18.45,18.45,0,0,1-23.94-4.89c-.26-.35-26.5-35.1-46.93-50.58l-2.74-2.08c-53-40.17-66.81-52.77-70.31-64.19a18.43,18.43,0,0,1,34.5-12.82c4,5.44,23.52,21.45,58.07,47.62l2.76,2.09c24.56,18.62,52.93,56.22,54.13,57.81A18.46,18.46,0,0,1,698,678.74,16.71,16.71,0,0,1,696.14,680Zm-130-133.61a7.51,7.51,0,0,0-3.42,8.67c2.54,8.3,18.07,22,66.45,58.66l2.75,2.08c21.67,16.43,48.79,52.37,49.06,52.73a7.49,7.49,0,0,0,9.72,2,7.32,7.32,0,0,0,.77-.51,7.49,7.49,0,0,0,1.48-10.47c-1.16-1.54-28.63-38-52-55.67l-2.75-2.08c-27.09-20.53-55.51-42.6-60.85-50.68l-.2-.3-.07,0-.25-.73a7.53,7.53,0,0,0-9.15-4.39A7.43,7.43,0,0,0,566.11,546.36Zm15.94,2.72-5.21.87Z"/><path class="cls-13" d="M588.72,521.64a13,13,0,0,1-16.59-19.33c17.65-22,98.16-72.5,107.28-78.18l.38-.23a13,13,0,0,1,13.33,22.22c-33,20.58-89.56,58.43-100.78,72.41A13,13,0,0,1,588.72,521.64Z"/><path d="M591.45,526.38a18.43,18.43,0,0,1-23.59-27.5c17.85-22.24,93.64-70,108.65-79.4l.54-.32a18.43,18.43,0,0,1,19,31.61c-35.12,21.9-89.18,58.46-99.4,71.19A18.23,18.23,0,0,1,591.45,526.38Zm91.08-97.74-.19.11c-32.84,20.47-92.06,59.69-105.94,77A7.48,7.48,0,0,0,586,516.9a7.33,7.33,0,0,0,2.09-1.8c13.11-16.33,78.18-58.68,102.15-73.62a7.48,7.48,0,0,0-7.69-12.84Z"/><path class="cls-13" d="M709.38,526.53a12.63,12.63,0,0,1-3.73,1.44c-1.1.24-27.2,5.88-57.43,9.15-43.36,4.68-71.8,2.1-87-7.9a13,13,0,1,1,14.28-21.63c17.38,11.48,83.32,4,124.59-4.95a13,13,0,0,1,9.24,23.89Z"/><path d="M712.12,531.27a18.63,18.63,0,0,1-5.31,2.05c-1.1.24-27.39,5.93-58,9.24-44.68,4.83-74.31,2-90.56-8.78A18.43,18.43,0,1,1,578.56,503c13.92,9.19,73.51,4.46,120.42-5.72a18.43,18.43,0,0,1,13.14,34ZM564.66,511.92a7.32,7.32,0,0,0-2.5,2.36,7.48,7.48,0,0,0,2.12,10.37c13.85,9.14,41.89,11.51,83.35,7,30-3.24,55.77-8.81,56.85-9A7.48,7.48,0,0,0,701.31,508c-28.28,6.14-106.53,18.86-128.78,4.17a7.4,7.4,0,0,0-5.62-1.09A7.27,7.27,0,0,0,564.66,511.92Z"/><path class="cls-13" d="M452.11,974.07a12.92,12.92,0,0,1-9.49,1.38l-65.55-15.66a13,13,0,1,1,6-25.21l65.55,15.66a13,13,0,0,1,3.47,23.83Z"/><path d="M454.85,978.81a18.39,18.39,0,0,1-13.5,2L375.8,965.11a18.43,18.43,0,1,1,8.56-35.85l65.56,15.65a18.44,18.44,0,0,1,4.93,33.9ZM376.34,940.7l-.18.11a7.48,7.48,0,0,0,2.18,13.65l65.56,15.66a7.48,7.48,0,0,0,3.47-14.56L381.82,939.9A7.48,7.48,0,0,0,376.34,940.7Z"/><path class="cls-13" d="M415.23,1016.4a13,13,0,0,1-14.28-.87c-5.66-4.27-55-42.77-42.51-80.27a13,13,0,0,1,24.6,8.17c-5.22,15.72,20.33,41.42,33.52,51.41a13,13,0,0,1-1.33,21.56Z"/><path d="M418,1021.14a18.4,18.4,0,0,1-20.31-1.24c-6-4.51-58.06-45.24-44.41-86.36a18.43,18.43,0,1,1,35,11.61c-3.65,11,16.38,33.78,31.63,45.32a18.45,18.45,0,0,1-1.9,30.67Zm-51-88.27a7.44,7.44,0,0,0-3.36,4.12c-11.44,34.45,38.48,72.56,40.61,74.17a7.47,7.47,0,0,0,8.24.5,7.37,7.37,0,0,0,2.23-2,7.51,7.51,0,0,0-1.46-10.49c-12.12-9.17-42.09-37.38-35.41-57.5A7.48,7.48,0,0,0,367,932.87Z"/><path class="cls-13" d="M475.69,900.33a13,13,0,0,1-12,.52c-4.59-.9-21.24.45-36.31,3a13,13,0,0,1-4.3-25.56c41.35-6.94,49.85-2,52.65-.35a13,13,0,0,1,0,22.41Zm-11.66.59h0Zm-1.36-.61h0Z"/><path d="M478.43,905.07a18.45,18.45,0,0,1-16.29,1.07c-4-.44-18.26.47-33.86,3.09a18.43,18.43,0,1,1-6.11-36.35c38.39-6.45,50.26-3.22,56.32.31a18.44,18.44,0,0,1-.06,31.88Zm-12.78-9.35.37.17a7.48,7.48,0,0,0,7-13.24c-7.92-4.62-31-2-49,1a7.49,7.49,0,0,0-6.14,8.62,7.48,7.48,0,0,0,8.62,6.14c14.13-2.37,32.31-4.12,38.27-3l.56.11,0-.05Z"/><g class="cls-7"><path d="M764.93,1094.7S615.26,976.5,581.72,912.77c-11.65-28.63-51.77-111-91.79-67.49,0,0,30.87-1,40.82,34.33,15.3,54.33,27.26,98.75,222.28,222C757.52,1104.41,760.25,1091.77,764.93,1094.7Z"/></g><path class="cls-8" d="M758.49,1098.7S574,960.28,557,912s-25.22-86.14-58.54-78.17-24.75,43.46-41.5,77.34-51.77,73.6-99,120.37c-33.78,32.51,5.51,60.21,16.41,63.13,13.57,4.41,176.26,61.52,219,102.07,55.13-31.24,110.51-64.25,165.1-98Z"/><path d="M758.08,1099.06a1.67,1.67,0,0,1-.31-.19l-.38-.27-.77-.53-1.54-1.06-3.07-2.14-6.13-4.29-12.16-8.71c-8.08-5.86-16.08-11.81-24.07-17.78s-15.86-12.1-23.74-18.22-15.64-12.4-23.4-18.68-15.42-12.69-23-19.17-15.15-13-22.58-19.74-14.73-13.57-21.89-20.6-14.23-14.21-20.86-21.88c-3.32-3.81-6.58-7.72-9.67-11.82a97.66,97.66,0,0,1-8.57-13.08,51.92,51.92,0,0,1-3.35-7.53l-2.36-7.12q-2.37-7.11-4.59-14.23c-3-9.46-6.08-18.87-9.74-27.89a100.87,100.87,0,0,0-6.28-13,51.18,51.18,0,0,0-4-5.77,30.38,30.38,0,0,0-4.75-4.86,21.68,21.68,0,0,0-5.64-3.43,20.73,20.73,0,0,0-6.43-1.6,30.32,30.32,0,0,0-6.85.17,43.53,43.53,0,0,0-6.84,1.6,32.17,32.17,0,0,0-6.38,2.8,28.69,28.69,0,0,0-5.45,4.24,32.63,32.63,0,0,0-4.29,5.52,46,46,0,0,0-3.23,6.38c-.93,2.23-1.72,4.53-2.45,6.87s-1.34,4.72-1.93,7.13l-3.5,14.53c-2.44,9.69-5.41,19.45-10.05,28.47-2.26,4.5-4.73,8.88-7.31,13.18-1.32,2.13-2.58,4.31-3.95,6.41l-4.14,6.28-4.3,6.17-4.42,6.07c-1.46,2-3,4-4.52,6s-3,4-4.61,5.92C412.17,979,398.94,994,385.41,1008.68c-6.8,7.33-13.62,14.6-20.59,21.8l-2.61,2.69-1.31,1.34-1.2,1.29a31.42,31.42,0,0,0-2.33,2.6,33.71,33.71,0,0,0-2.1,2.7,32.35,32.35,0,0,0-5.53,11.76,23.18,23.18,0,0,0,.72,12.27,28.36,28.36,0,0,0,2.7,5.82,37.52,37.52,0,0,0,3.9,5.36,52.19,52.19,0,0,0,10.15,9,43.41,43.41,0,0,0,5.77,3.32,18.71,18.71,0,0,0,2.77,1.05l3.72,1.22c19,6.38,37.76,13.18,56.45,20.28,9.34,3.56,18.66,7.15,27.93,10.9s18.5,7.61,27.68,11.58q27.6,11.82,54.36,25.76c8.89,4.72,17.72,9.6,26.29,15.06s17,11.3,24.67,18.58l-5.94-.73,41.94-23.25,41.83-23.5,41.75-23.65,20.88-11.86,10.44-5.92,5.22-3,2.62-1.47,1.3-.74.66-.37.32-.19.17-.09.08,0,0,0C758.12,1098.61,758.31,1097.41,758.08,1099.06Zm.81-.73c-.25,1.67-.09.48-.15.86l0,0-.08.06-.16.1-.31.21-.62.42-1.25.83-2.49,1.68-5,3.34-10,6.64q-10,6.62-20.11,13.13-20.16,13.07-40.55,25.77c-13.6,8.45-27.2,16.91-40.94,25.15s-27.46,16.5-41.32,24.54a5,5,0,0,1-5.8-.6l-.14-.13c-6.94-6.26-15.09-11.68-23.42-16.73s-17-9.76-25.79-14.24c-17.58-9-35.67-17-53.83-25-36.43-15.61-73.44-30.34-110.76-43.71l-3.36-1.16a29.13,29.13,0,0,1-4.18-1.67,53.28,53.28,0,0,1-7.1-4.24,61.55,61.55,0,0,1-11.95-11,45.93,45.93,0,0,1-4.72-6.82,38.22,38.22,0,0,1-3.4-7.79,32.64,32.64,0,0,1-.6-17.21,41.08,41.08,0,0,1,7.49-14.89c.79-1.12,1.72-2.09,2.59-3.11s1.82-2,2.75-2.88l1.4-1.39,1.34-1.3,2.67-2.58c7.18-6.83,14.29-13.8,21.33-20.8s14-14.1,20.76-21.36,13.48-14.57,19.84-22.18,12.59-15.32,18.3-23.41l4.2-6.12c1.39-2,2.67-4.15,4-6.22q3.9-6.31,7.28-12.89a100,100,0,0,0,5.76-13.52c1.63-4.63,2.86-9.42,4-14.22L468,869.37a120.15,120.15,0,0,1,4.26-14.58,50,50,0,0,1,3.33-7,36.1,36.1,0,0,1,4.7-6.37,34.31,34.31,0,0,1,6.16-5.1,36.55,36.55,0,0,1,7.13-3.5,48.75,48.75,0,0,1,7.61-2.11,35.25,35.25,0,0,1,8-.52,27.86,27.86,0,0,1,15.38,5.57,37.2,37.2,0,0,1,5.95,5.52,57.68,57.68,0,0,1,4.8,6.31,107.2,107.2,0,0,1,7.4,13.56c4.31,9.25,7.72,18.71,11.14,28.09,1.72,4.69,3.38,9.38,5,14.06l2.51,7a43.43,43.43,0,0,0,2.87,6,109.27,109.27,0,0,0,8,11.78c2.93,3.84,6.07,7.58,9.3,11.26,13,14.69,27.15,28.59,41.66,42.08q10.88,10.16,22,20.1c7.41,6.61,14.89,13.15,22.37,19.71s15,13,22.62,19.45,15.15,12.9,22.78,19.29,15.25,12.8,22.91,19.18Z"/><g class="cls-7"><path d="M508.5,918.67s-20,12.56-38.43-7.27-35-50-13.07-55.59C457,855.81,483.93,910.3,508.5,918.67Z"/></g><g class="cls-11"><path d="M484.55,1038.68s-10.89,22.14-34.47,43.45c-8.13,4.9-1.07,10.91,34,22.24s45.77,14.76,53.87,21.38-26.81-26.78-71.31-37.47C456,1085.66,488.26,1061.22,484.55,1038.68Z"/></g><g class="cls-9"><path class="cls-6" d="M566.36,985.71s25.07,6.1,52.11,26.94,85.15,74.11,85.15,74.11S658.13,1063,618,1031.83,566.36,985.71,566.36,985.71Z"/></g><path d="M615,1188.81a3.81,3.81,0,0,1-4.78-.79c-.27-.3-.55-.62-.86-1a3.83,3.83,0,1,1,5.68-5.15l.93,1a3.83,3.83,0,0,1-.35,5.41A3.32,3.32,0,0,1,615,1188.81Zm125.44-74.48a3.82,3.82,0,0,1-4.24-.28c-3.33-2.53-7.76-5.93-13-10a3.83,3.83,0,0,1,4.69-6.06c5.28,4.09,9.69,7.47,13,10a3.84,3.84,0,0,1-.41,6.37ZM602,1176.81a3.84,3.84,0,0,1-4.27-.3c-3.8-3-8.22-6.07-13.14-9.26a3.83,3.83,0,0,1,4.18-6.43c5.1,3.31,9.7,6.56,13.66,9.64a3.83,3.83,0,0,1,.67,5.38A3.89,3.89,0,0,1,602,1176.81Zm112.47-82.6a3.85,3.85,0,0,1-4.29-.3c-4-3.18-8.37-6.59-12.91-10.2a3.83,3.83,0,1,1,4.77-6c4.52,3.6,8.83,7,12.87,10.17a3.82,3.82,0,0,1,.65,5.38A3.93,3.93,0,0,1,714.42,1094.21ZM574.55,1158.8a3.84,3.84,0,0,1-3.84,0c-4.42-2.55-9.21-5.21-14.24-7.88a3.83,3.83,0,1,1,3.6-6.77c5.11,2.72,10,5.41,14.48,8a3.85,3.85,0,0,1,0,6.64Zm114.14-85a3.83,3.83,0,0,1-4.32-.34c-4.16-3.34-8.43-6.81-12.78-10.36a3.83,3.83,0,0,1,4.85-5.94c4.33,3.55,8.59,7,12.74,10.33a3.83,3.83,0,0,1,.58,5.39A3.88,3.88,0,0,1,688.69,1073.77Zm-143.1,69.58a3.85,3.85,0,0,1-3.63.12c-4.66-2.32-9.61-4.72-14.7-7.12a3.83,3.83,0,0,1,3.27-6.93c5.14,2.42,10.14,4.84,14.85,7.19a3.83,3.83,0,0,1,.21,6.74ZM663.25,1053a3.83,3.83,0,0,1-4.37-.37q-5.64-4.68-11.35-9.49l-1.27-1.06a3.83,3.83,0,0,1,4.94-5.86l1.27,1.06q5.67,4.79,11.31,9.46a3.83,3.83,0,0,1-.53,6.26Zm-147.34,76.35a3.85,3.85,0,0,1-3.5.18c-4.79-2.16-9.83-4.39-15-6.62a3.83,3.83,0,0,1,3.05-7c5.17,2.25,10.23,4.49,15.06,6.66a3.83,3.83,0,0,1,.35,6.81Zm122.24-97.53a3.85,3.85,0,0,1-4.42-.42c-4.26-3.66-8.44-7.29-12.42-10.8a3.83,3.83,0,1,1,5.06-5.75c4,3.48,8.12,7.1,12.36,10.74a3.84,3.84,0,0,1,.41,5.41A4,4,0,0,1,638.15,1031.8Zm-152.36,84.46a3.82,3.82,0,0,1-3.4.22c-4.93-2.07-10-4.17-15.15-6.26a3.83,3.83,0,0,1,2.89-7.1c5.15,2.1,10.27,4.21,15.22,6.29a3.83,3.83,0,0,1,.44,6.85Zm-30.44-12.38a3.82,3.82,0,0,1-3.32.24c-5-2-10.18-4-15.28-6a3.83,3.83,0,0,1,2.75-7.15c5.13,2,10.29,4,15.34,6a3.83,3.83,0,0,1,.51,6.89ZM613.5,1010.1a3.83,3.83,0,0,1-4.48-.47c-4.22-3.81-8.3-7.56-12.15-11.14a3.83,3.83,0,0,1,5.23-5.61c3.82,3.56,7.87,7.28,12,11.06a3.83,3.83,0,0,1,.28,5.41A3.65,3.65,0,0,1,613.5,1010.1Zm-188.82,82a3.82,3.82,0,0,1-3.26.27c-5.14-1.93-10.31-3.84-15.38-5.69a3.83,3.83,0,1,1,2.63-7.2c5.08,1.86,10.28,3.78,15.44,5.72a3.82,3.82,0,0,1,2.24,4.93A3.78,3.78,0,0,1,424.68,1092.07ZM589.51,987.69a3.82,3.82,0,0,1-4.58-.58c-4.12-4-8-7.93-11.69-11.67a3.83,3.83,0,0,1,5.49-5.34c3.59,3.68,7.47,7.56,11.54,11.52a3.84,3.84,0,0,1,.08,5.42A4.3,4.3,0,0,1,589.51,987.69ZM393.8,1080.82a3.81,3.81,0,0,1-3.19.29c-5.54-1.95-9.19-3.19-10.64-3.66l-.64-.2-.33-.12a25,25,0,0,1-4.51-2.62,3.83,3.83,0,1,1,4.42-6.26,18.16,18.16,0,0,0,2.89,1.74l.5.16c1.53.49,5.25,1.76,10.86,3.74a3.83,3.83,0,0,1,.64,6.93ZM566.66,964.13a3.84,3.84,0,0,1-4.76-.76c-4-4.42-7.63-8.67-10.81-12.64a3.83,3.83,0,1,1,6-4.79c3.09,3.85,6.63,8,10.52,12.3a3.83,3.83,0,0,1-.28,5.41A3.63,3.63,0,0,1,566.66,964.13Zm-198.21,98.09a3.57,3.57,0,0,1-1.34.47,3.82,3.82,0,0,1-4.36-3.21c-.66-4.34,2-9.37,7.77-15l1.81-1.79a3.83,3.83,0,1,1,5.4,5.44l-1.88,1.85c-4.68,4.5-5.67,7.34-5.53,8.31A3.8,3.8,0,0,1,368.45,1062.22Zm20.09-25.08a3.83,3.83,0,0,1-4.64-6c3.91-4,7.76-7.91,11.43-11.72a3.83,3.83,0,1,1,5.52,5.32c-3.7,3.83-7.57,7.8-11.5,11.78A4,4,0,0,1,388.54,1037.14Zm157.8-98.74a3.84,3.84,0,0,1-5.14-1.25c-1-1.52-1.91-3-2.75-4.5a73.2,73.2,0,0,1-5.18-10.75,3.83,3.83,0,0,1,7.17-2.71,65.6,65.6,0,0,0,4.65,9.63c.78,1.35,1.64,2.76,2.55,4.18a3.83,3.83,0,0,1-1.14,5.3Zm-135,75.08a3.83,3.83,0,0,1-4.72-5.94c3.83-4.1,7.55-8.15,11.05-12a3.83,3.83,0,1,1,5.7,5.12c-3.53,3.93-7.28,8-11.15,12.15A3.92,3.92,0,0,1,411.31,1013.48Zm21.94-24.43a3.83,3.83,0,0,1-4.82-5.81c3.67-4.29,7.19-8.5,10.44-12.53a3.83,3.83,0,0,1,6,4.82c-3.3,4.08-6.86,8.35-10.59,12.7A3.87,3.87,0,0,1,433.25,989.05Zm20.59-25.57a3.83,3.83,0,0,1-5-5.61c3.36-4.5,6.52-9,9.39-13.23a3.83,3.83,0,1,1,6.37,4.27c-2.94,4.38-6.18,8.94-9.61,13.54A3.9,3.9,0,0,1,453.84,963.48Zm79.58-55.14a4.28,4.28,0,0,1-.69.31,3.83,3.83,0,0,1-4.86-2.4l-.59-1.73c-1.64-4.85-3.18-9.42-4.71-13.77a3.83,3.83,0,1,1,7.23-2.54c1.54,4.4,3.09,9,4.74,13.83l.59,1.75A3.85,3.85,0,0,1,533.42,908.34Zm-61.36,27.84a3.83,3.83,0,0,1-5.23-5.24c2.31-4,4.45-7.94,6.36-11.81.39-.8.78-1.59,1.15-2.39a3.83,3.83,0,1,1,6.94,3.23c-.39.85-.8,1.7-1.22,2.56-2,4-4.21,8.15-6.6,12.26A3.81,3.81,0,0,1,472.06,936.18Zm13.6-29.8a3.83,3.83,0,0,1-5.56-4.49c1.85-5.78,3.24-11.35,4.24-15.56a3.83,3.83,0,1,1,7.46,1.78c-1,4.34-2.47,10.09-4.4,16.12A3.86,3.86,0,0,1,485.66,906.38Zm36.67-29a3.88,3.88,0,0,1-.46.22,3.82,3.82,0,0,1-5-2.07,95.73,95.73,0,0,0-5.23-10.92c-.6-1-1.21-2-1.8-2.87l-.07-.11a3.83,3.83,0,0,1,6.33-4.31c.76,1.1,1.47,2.24,2.18,3.46A103.09,103.09,0,0,1,524,872.64,3.83,3.83,0,0,1,522.33,877.42Zm-28.5-2.84a3.83,3.83,0,0,1-5.61-4.32c2.32-8.63,4.39-13.84,8.7-16.65A3.83,3.83,0,0,1,501.1,860c-1.6,1-3.14,3.51-5.48,12.21A3.86,3.86,0,0,1,493.83,874.58Z"/><path d="M440,1097.89a3.83,3.83,0,0,1-4.92-5.69l10.17-12.9a3.83,3.83,0,0,1,6,4.75l-10.17,12.89A3.81,3.81,0,0,1,440,1097.89Zm20.34-25.79a3.83,3.83,0,0,1-4.92-5.69l10.17-12.9a3.83,3.83,0,1,1,6,4.75l-10.17,12.89A3.77,3.77,0,0,1,460.33,1072.1Zm20.34-25.79a3.83,3.83,0,0,1-4.92-5.69l10.16-12.9a3.83,3.83,0,0,1,6,4.75l-10.17,12.89A3.77,3.77,0,0,1,480.67,1046.31ZM501,1020.52a3.83,3.83,0,0,1-4.93-5.69l10.17-12.9a3.83,3.83,0,0,1,6,4.75l-10.17,12.89A3.77,3.77,0,0,1,501,1020.52Zm20.34-25.79a3.83,3.83,0,0,1-4.93-5.69l10.17-12.9a3.83,3.83,0,0,1,6,4.75l-10.17,12.89A3.77,3.77,0,0,1,521.35,994.73Zm20.34-25.79a3.83,3.83,0,0,1-4.93-5.69l10.17-12.9a3.83,3.83,0,0,1,6,4.75L542.78,968A3.91,3.91,0,0,1,541.69,968.94Z"/><g class="cls-14"><path class="cls-6" d="M397.27,985.32s-23.61-20-21.71-44.41C375.56,940.91,364.82,971.35,397.27,985.32Z"/></g><g class="cls-14"><path class="cls-6" d="M389.72,942.44a47.65,47.65,0,0,0,31.33,7.81Z"/></g><g class="cls-7"><path d="M477.65,995.4s-20.84,19.14-49.35-22.5-24.68-56-9.22-66.57C419.08,906.33,424.69,949.78,477.65,995.4Z"/></g><g class="cls-14"><path class="cls-6" d="M432,884.76s14.49-7.76,25.82-.79C457.81,884,440.75,887.67,432,884.76Z"/></g><g class="cls-7"><path d="M426.5,1052.58s-30.54,26.36-86.23-38C335.27,1005.88,392.48,1010.68,426.5,1052.58Z"/></g><path class="cls-13" d="M477.65,995.4a13,13,0,0,1-15.44-1.87c-.94-.91-23.22-22.38-34.37-43.95l-3.27-6.3c-19.76-37.95-26-52.23-23.85-62a13,13,0,0,1,25.56,4.05c1.19,7.35,14.71,33.34,21.28,46l3.3,6.35c9.2,17.8,29.08,37,29.28,37.14a13,13,0,0,1-2.49,20.59ZM426,886.81h0Z"/><path d="M480.39,1000.14a18.53,18.53,0,0,1-22-2.66C456,995.14,434.3,974,423,952.09c-.79-1.54-1.64-3.16-2.51-4.84l-.75-1.44c-20.77-39.91-26.84-54.18-24.34-65.66A18.43,18.43,0,0,1,431.79,885c1.69,7.36,15.38,33.67,20.62,43.74l.24.46,3.07,5.92c8.76,16.94,28,35.51,28.2,35.7a18.46,18.46,0,0,1-3.53,29.28ZM409.64,877.59a7.44,7.44,0,0,0-3.57,4.88c-1.77,8.14,5.43,23.85,23.35,58.29l.75,1.44c.88,1.68,1.73,3.31,2.53,4.86,10.7,20.7,32.38,41.64,33.3,42.52a7.53,7.53,0,0,0,8.91,1.08,7.25,7.25,0,0,0,1.67-1.32,7.48,7.48,0,0,0-.23-10.57c-.19-.19-20.65-19.81-30.35-38.58l-3.06-5.9-.24-.44c-12.3-23.65-20.72-40.79-21.83-47.62h0l-.26-.05.15-.78h0l.06-.59a7.48,7.48,0,0,0-11.19-7.22Z"/><path class="cls-13" d="M426.5,1052.58a12.93,12.93,0,0,1-11.26.82c-2.32-.92-57-23-86.18-64.63a13,13,0,0,1,21.23-14.87c24.67,35.2,74,55.22,74.53,55.42a13,13,0,0,1,1.68,23.26Z"/><path d="M429.24,1057.32a18.35,18.35,0,0,1-16,1.17c-2.37-.94-58.51-23.6-88.63-66.58a18.43,18.43,0,0,1,30.19-21.16c23.62,33.71,71.6,53.29,72.08,53.49a18.44,18.44,0,0,1,2.39,33.08Zm-93.3-82.48a6.65,6.65,0,0,0-.56.36,7.5,7.5,0,0,0-1.84,10.43c28.26,40.32,81.47,61.79,83.72,62.69a7.49,7.49,0,0,0,5.53-13.92c-.51-.2-51.36-20.79-77-57.36a7.52,7.52,0,0,0-9.86-2.2Z"/><g class="cls-14"><path class="cls-6" d="M405.7,1026s-24.59-5.86-61.84-47.53C343.86,978.44,371.61,1023.91,405.7,1026Z"/></g><g class="cls-14"><path class="cls-6" d="M475.71,979.25S441.29,949.66,420,889.8C420,889.8,432.5,949.49,475.71,979.25Z"/></g><path class="cls-13" d="M508.5,918.67a13,13,0,0,1-15.76-2.19c-1.21-1.25-29.73-30.71-41.47-55.5-11.64-24.59-14.28-41.54-14.39-42.25a13,13,0,0,1,25.63-3.85c0,.09,2.33,14.19,12.18,35,8.23,17.38,29.23,40.91,36.62,48.51a13,13,0,0,1-.25,18.33A13.49,13.49,0,0,1,508.5,918.67Z"/><path d="M511.24,923.41a18.4,18.4,0,0,1-22.42-3.12c-1.24-1.26-30.37-31.36-42.5-57-11.7-24.72-14.56-41.88-14.85-43.76a18.44,18.44,0,0,1,36.46-5.5c0,.07,2.33,13.66,11.71,33.48,7.9,16.7,28.38,39.62,35.6,47a18.43,18.43,0,0,1-.36,26.07A18.67,18.67,0,0,1,511.24,923.41ZM446,810.32a7.49,7.49,0,0,0-3.67,7.6c.1.67,2.69,17,13.92,40.71,11.35,24,39.26,52.81,40.44,54a7.48,7.48,0,0,0,9.1,1.27,7.7,7.7,0,0,0,1.49-1.13,7.48,7.48,0,0,0,.14-10.58c-7.57-7.79-29.1-32-37.65-50-10.25-21.67-12.61-36.37-12.64-36.51a7.49,7.49,0,0,0-8.51-6.32A7.36,7.36,0,0,0,446,810.32Z"/><g class="cls-14"><path class="cls-6" d="M507.65,903.65s-41.78-34.82-52.7-91.28C455,812.37,457.7,872.61,507.65,903.65Z"/></g><path d="M626.83,1183.87Q515,1248.43,417.61,1296.23c-169.36,83.07-304.24,126.79-400.9,130a5.47,5.47,0,0,1-.36-10.94c95.1-3.11,228.48-46.46,396.44-128.84,134.73-66.09,291.74-157.25,466.66-271,298-193.67,547.77-388.14,550.26-390.08a5.48,5.48,0,0,1,6.74,8.63c-2.5,2-252.69,196.71-551,390.63Q748.55,1113.61,626.83,1183.87Z"/><g class="cls-14"><path class="cls-6" d="M589.81,845.5s-60.68-47.78-95.14-110.71C494.67,734.79,515.51,803.73,589.81,845.5Z"/></g><g class="cls-14"><path class="cls-6" d="M611.26,750.66s-58.77-57.43-63.38-101.07C547.88,649.59,539,701.33,611.26,750.66Z"/></g><g class="cls-14"><path class="cls-6" d="M610.84,629.94s-34.33-4.2-50.4,10.37C560.44,640.31,588.15,637.82,610.84,629.94Z"/></g><g class="cls-14"><path class="cls-6" d="M692.55,661.33s-37.38-48.19-65.08-66.62c-19-12.51-51.39-42.1-51.39-42.1s3.07,11.91,60,57.17C647.86,617.9,692.55,661.33,692.55,661.33Z"/></g><g class="cls-14"><path class="cls-6" d="M705.39,508.57s-85.36,17.3-130.07,8C575.32,516.61,626.67,533.69,705.39,508.57Z"/></g><g class="cls-14"><path class="cls-6" d="M682.86,428.49,629.53,464.6S666.93,460,682.86,428.49Z"/></g><g class="cls-14"><path class="cls-6" d="M987.67,238.32s-70.48,39.32-180.19,63.25C807.48,301.57,913.74,298.88,987.67,238.32Z"/></g><g class="cls-7"><path d="M415.24,1053.4a13,13,0,0,0,9.58-24.08c-.09,0-1.6-.65-4.12-1.79-1.51,6.86-7.75,15.13-29.4,14.16A217.28,217.28,0,0,0,415.24,1053.4Z"/></g></g></g></svg>