<?xml version="1.0" standalone="no"?>
<!DOCTYPE svg PUBLIC "-//W3C//DTD SVG 1.1//EN" "http://www.w3.org/Graphics/SVG/1.1/DTD/svg11.dtd">
<svg xmlns="http://www.w3.org/2000/svg" viewBox="0 0 1494.41 1765.26" width="1494.4100341796875" height="1765.260009765625"><defs><style>.cls-1{fill:#ffe099;}.cls-2{fill:#e5e2dc;}.cls-3{fill:#b9b6b2;}.cls-4{fill:#212121;}.cls-5{opacity:0.15;}.cls-6{fill:#fff;}.cls-7{opacity:0.5;}.cls-8{fill:#ffb200;}.cls-9{opacity:0.4;}.cls-10{fill:#cecbc6;}.cls-11{opacity:0.2;}.cls-12{opacity:0.08;}.cls-13{fill:#262626;}.cls-14{opacity:0.1;}</style></defs><g id="Layer_2" data-name="Layer 2"><g id="OBJECT"><path class="cls-1" d="M552.29,1510.1h0a69.86,69.86,0,0,1-69.86-69.86v-1074a69.86,69.86,0,0,1,69.87-69.86h0a69.86,69.86,0,0,1,69.86,69.86v1074A69.87,69.87,0,0,1,552.29,1510.1Z"/><rect class="cls-1" x="671.82" width="69.86" height="1729.26" rx="17.72"/><path class="cls-1" d="M1027.4,1524.77h0a19.49,19.49,0,0,1-19.49-19.49V158.57a19.48,19.48,0,0,1,19.49-19.48h0a19.48,19.48,0,0,1,19.48,19.48V1505.28A19.49,19.49,0,0,1,1027.4,1524.77Z"/><path class="cls-1" d="M1339.25,1688.39h0a19.49,19.49,0,0,1-19.48-19.49V352.44A19.47,19.47,0,0,1,1339.25,333h0a19.49,19.49,0,0,1,19.49,19.48V1668.9A19.5,19.5,0,0,1,1339.25,1688.39Z"/><path class="cls-1" d="M168.39,1619.12h0a19.49,19.49,0,0,1-19.49-19.49V424.81a19.49,19.49,0,0,1,19.49-19.48h0a19.48,19.48,0,0,1,19.48,19.48V1599.63A19.49,19.49,0,0,1,168.39,1619.12Z"/><path class="cls-1" d="M336.31,1765.26h0a69.87,69.87,0,0,1-69.87-69.86V723.77a69.87,69.87,0,0,1,69.87-69.86h0a69.86,69.86,0,0,1,69.86,69.86V1695.4A69.86,69.86,0,0,1,336.31,1765.26Z"/><path class="cls-1" d="M879.83,1388.38h0A69.86,69.86,0,0,1,810,1318.52V213.65a69.86,69.86,0,0,1,69.87-69.86h0a69.86,69.86,0,0,1,69.86,69.86V1318.52A69.86,69.86,0,0,1,879.83,1388.38Z"/><rect class="cls-1" x="1119.57" y="308.94" width="139.73" height="1096.45" rx="34.51"/><circle class="cls-1" cx="1189.1" cy="1530.87" r="70.2" transform="translate(-734.21 1289.2) rotate(-45)"/><circle class="cls-1" cx="336.31" cy="516.43" r="69.86" transform="translate(-244.33 722.98) rotate(-76.51)"/><path class="cls-2" d="M1479.59,791.31c-15.2,14.56-235.78,193.34-695.85,446.36s-651.38,281.62-709.44,271-80.83-82-58.29-101c0,0-26.35-108.37,51-132.56,0,0,255.62-192,404.52-474,110.11-208.58,91-274.71,73.59-295a68.87,68.87,0,0,1-16.18-35c-6.38-45.12-16.8-138.92-5.34-209,.68-19.28,32-16.89,41.5-17.66,0,0,52.6,1.11,74.87,2.43s88,.62,121,68.68l-4.24,4c163.67-33,213.89-76.38,237.64-91.53,25.88-16.53,32,13.55,32,13.55s12.39-2.17,32.75,21.5c4.26,5,10.57,11.79,17.89,19.48,27.54,29,69.26,70.33,69.26,70.33l5.09-3.46s13,16.63,16.67,18.45c.72.34,2.13,1,4.07,2.11,8.13,4.5,25.65,15.89,41.14,38.69,0,0,8.44-8.8,15.49-1.59s25.21,25.73,34,44.29c0,0,5.61-3.24,9.41,4s113.92,155,116.08,186.07c0,0,20.58-6.64,28.74,27.49L1482,762.67S1494.81,776.76,1479.59,791.31Z"/><path class="cls-3" d="M1171.34,369.66l-2.72,1.38c-13.85,3.73-70.4,17.47-185.68,27.4l-11.47,1c-12.54-17,.45-41.66,56.63-54.64,43.22-10,63.71-24.15,73-37.19,22.79,23.25,45.16,45.4,45.16,45.4l5.09-3.46s13,16.63,16.67,18.45C1168.62,368.26,1169.76,368.81,1171.34,369.66Z"/><path class="cls-4" d="M319.15,1148.74c.92,1.59.09,3.79-1.86,4.91s-4.26.75-5.18-.84S312,1149,314,1147.9,318.23,1147.15,319.15,1148.74Z"/><path class="cls-4" d="M301.32,1134.11c.92,1.59.09,3.79-1.86,4.91s-4.26.74-5.18-.85-.08-3.78,1.86-4.91S300.4,1132.52,301.32,1134.11Z"/><path class="cls-4" d="M284.63,1121.44c.91,1.59.08,3.79-1.86,4.91s-4.26.75-5.18-.84-.09-3.79,1.86-4.91S283.71,1119.85,284.63,1121.44Z"/><path class="cls-4" d="M273.33,1111.7c.91,1.59.08,3.79-1.86,4.91s-4.26.74-5.18-.85-.09-3.79,1.86-4.91S272.41,1110.11,273.33,1111.7Z"/><path class="cls-4" d="M264,1103.69c.92,1.59.09,3.79-1.85,4.91s-4.27.75-5.18-.84-.09-3.79,1.85-4.91S263.09,1102.1,264,1103.69Z"/><path class="cls-4" d="M259.21,1172.59c.92,1.59.09,3.79-1.86,4.91s-4.26.75-5.18-.84-.08-3.79,1.86-4.91S258.29,1171,259.21,1172.59Z"/><path class="cls-4" d="M244.78,1155.73c.92,1.59.09,3.79-1.85,4.91s-4.27.74-5.18-.85-.09-3.78,1.85-4.91S243.87,1154.14,244.78,1155.73Z"/><path class="cls-4" d="M236.44,1144c.92,1.59.09,3.79-1.85,4.91s-4.27.75-5.18-.84-.09-3.79,1.85-4.91S235.53,1142.42,236.44,1144Z"/><path class="cls-4" d="M231.67,1135.75c.92,1.59.09,3.79-1.85,4.91s-4.27.74-5.18-.85-.09-3.79,1.85-4.91S230.75,1134.16,231.67,1135.75Z"/><path class="cls-4" d="M216.72,1197.12c.92,1.59.09,3.79-1.85,4.91s-4.26.74-5.18-.85-.09-3.78,1.85-4.91S215.81,1195.53,216.72,1197.12Z"/><path class="cls-4" d="M224.21,1171.45c.91,1.59.08,3.79-1.86,4.91s-4.26.74-5.18-.85-.09-3.79,1.86-4.91S223.29,1169.86,224.21,1171.45Z"/><path class="cls-4" d="M215.21,1157.68c.92,1.59.09,3.79-1.86,4.91s-4.26.75-5.18-.84-.08-3.79,1.86-4.91S214.29,1156.09,215.21,1157.68Z"/><path class="cls-4" d="M198.94,1178.59c.92,1.59.09,3.79-1.86,4.91s-4.26.74-5.18-.85-.08-3.78,1.86-4.91S198,1177,198.94,1178.59Z"/><path class="cls-4" d="M185.52,1202.61c.92,1.59.08,3.79-1.86,4.91s-4.26.74-5.18-.85-.09-3.79,1.86-4.91S184.6,1201,185.52,1202.61Z"/><path class="cls-4" d="M173.82,1228.25c.92,1.59.09,3.79-1.85,4.91s-4.27.75-5.18-.84-.09-3.79,1.85-4.91S172.9,1226.66,173.82,1228.25Z"/><path class="cls-4" d="M121.56,1262.27c.92,1.59.09,3.78-1.86,4.9s-4.26.75-5.18-.84-.08-3.79,1.86-4.91S120.64,1260.68,121.56,1262.27Z"/><path class="cls-4" d="M87.47,1279.42c.92,1.59.09,3.79-1.86,4.91s-4.26.74-5.18-.85-.08-3.78,1.86-4.9S86.55,1277.83,87.47,1279.42Z"/><path class="cls-4" d="M115,1247.15c.92,1.59.09,3.79-1.86,4.91s-4.26.74-5.18-.85-.08-3.79,1.86-4.91S114.1,1245.56,115,1247.15Z"/><path class="cls-4" d="M141.72,1231.73c.92,1.59.08,3.79-1.86,4.91s-4.26.75-5.18-.84-.08-3.79,1.86-4.91S140.8,1230.14,141.72,1231.73Z"/><path class="cls-4" d="M164.78,1202.15c.92,1.59.09,3.79-1.85,4.91s-4.26.74-5.18-.85-.09-3.79,1.85-4.91S163.87,1200.56,164.78,1202.15Z"/><g class="cls-5"><path d="M595.09,392.92s-5.65-51.21,30-67.2,114.3-30.66,138-7.38C763.08,318.34,583.9,349,595.09,392.92Z"/></g><g class="cls-5"><ellipse cx="862.36" cy="987.74" rx="153.36" ry="11.19" transform="translate(-397.23 623.44) rotate(-32.75)"/></g><g class="cls-5"><path d="M990.49,706.4c.4,6.17-67.78,15.7-152.29,21.28s-153.36,5.11-153.77-1,67.77-15.7,152.29-21.28S990.08,700.23,990.49,706.4Z"/></g><g class="cls-5"><path d="M1235.84,434.13s-32.93,10.24-70.66,59.43-95.92,161.09-95.92,161.09,91.52-91,125-143.4S1235.84,434.13,1235.84,434.13Z"/></g><path class="cls-6" d="M697.23,777.89S681.4,793.61,665,828.6s-40.21,105.28-40.21,105.28,41.19-72,55.41-107S697.23,777.89,697.23,777.89Z"/><g class="cls-5"><path d="M1365.54,693.56S1274.07,727,1123,865.24C1123,865.24,1263.86,810.12,1365.54,693.56Z"/></g><g class="cls-7"><path d="M713.78,692.81S646.54,713,636.5,773.18c0,0,9.93-8,14.17-14.4C659.76,746.84,657.34,732.08,713.78,692.81Z"/></g><path class="cls-4" d="M1482,762.67l-7-10.08s-33.4,43.5-200.09,151.55-514.1,321-818.13,454.34c-177.1,77.75-340,108.68-435.13,114.67h0c11.27,16.85,29.06,31.27,52.71,35.57,58.06,10.57,249.37-18,709.44-271s680.64-431.81,695.86-446.37S1482,762.67,1482,762.67Z"/><path d="M926.4,1163.39q-65.67,37.9-140.11,78.93c-202.48,111.36-372.84,190.34-506.35,234.76C154.05,1519,96.47,1518.15,73.35,1513.94c-22.67-4.13-42.61-17.57-56.16-37.84a5.3,5.3,0,0,1,4.07-8.24c47.41-3,218.78-20,433.34-114.24C790.42,1206.36,1165.13,969,1272,899.69c163.25-105.81,198.45-149.9,198.78-150.34a5.31,5.31,0,0,1,8.55.22l6.82,9.81c5.6,6.37,11.91,21.63-2.86,35.77-6.16,5.9-62.57,53-181.79,134.3C1220.52,984.68,1095.28,1065.89,926.4,1163.39ZM31.67,1477.75c11.51,13.65,26.7,22.68,43.58,25.76,17.81,3.24,73.08,6.17,201.34-36.5,132.91-44.21,302.67-122.93,504.59-234,240.74-132.4,412.57-242.93,514.32-312.34,117.1-79.88,174.7-127.73,180.43-133.21,11.15-10.66,3.06-20.19,2.1-21.24a3.87,3.87,0,0,1-.43-.55l-3.15-4.52c-13.73,14.61-61.51,59.79-196.71,147.42-107,69.37-482.33,307.16-818.88,454.74C255.43,1452.64,90.3,1473.14,31.67,1477.75Z"/><g class="cls-7"><path d="M1482.29,765.31s-31.36,33-193.1,138.46-249.49,165.16-318.93,209c0,0,162-85.51,318.86-191.06S1482.29,765.31,1482.29,765.31Z"/></g><path class="cls-8" d="M394.22,1102.8s.72,9.57,13.55,18.17c8,4.81,45.77,36.55,15.54,58.73s-46.26-21-102.07,5.92-132.53,76.78-198.45,103S17.35,1315.94,67,1275.2c-77.34,24.19-51,132.56-51,132.56,140.63-4.6,347.8-97.42,558.77-217-31.33-29.73-129.23-68.65-180.67-87.67"/><g class="cls-9"><path class="cls-6" d="M294.5,1216.14s-34.29,21.51-68.61,36.6S157,1297,157,1297s28.65.5,81-37S294.5,1216.14,294.5,1216.14Z"/></g><path class="cls-10" d="M1172.06,370.07s-1.12.34-3.44,1c-13.85,3.73-70.4,17.47-185.68,27.4l-11.47,1C835,410.7,605,422.53,605,422.53l1.93-21.64c22.91-9.65,52.44-16.87,88.75-23.37,52.53-9.39,119.23-17.27,200.54-28.8,95.2-13.5,150.29-42.42,180.8-66.08,7.37,7.77,15.76,16.42,24.1,24.93,22.79,23.25,45.16,45.4,45.16,45.4l5.09-3.46s13,16.63,16.67,18.45c.63.3,1.77.85,3.35,1.7Z"/><path class="cls-4" d="M605.59,462.8c-22.31-89.07-19.8-116.1,104.17-134.53,201.4-33.62,258.72-83.64,284.6-100.16s32,13.55,32,13.55-75.7,77-311.47,113.18c-92.52,15.63-103,32.49-102.62,65.43Z"/><path class="cls-8" d="M1272.06,455.48c-3.8-7.26-9.41-4-9.41-4S1173,566.19,1102.94,665.69s-8.8,191.84-8.8,191.84c173.64-122.08,294-216,294-216C1386,610.52,1275.85,462.73,1272.06,455.48Z"/><g class="cls-11"><path d="M1262.82,467.49s85.8,90.6,114.07,154.57c10.19,27.87-12.76,37.45-229.57,181.43,0,0,49.49-45.18,119.15-105.87s70.67-79.38,44.4-130.33S1262.82,467.49,1262.82,467.49Z"/></g><g class="cls-9"><path class="cls-6" d="M1103.43,777.17a36.5,36.5,0,0,1-4.52-9.57,64.31,64.31,0,0,1-2.39-10.36,85.4,85.4,0,0,1-.34-21.25,109.43,109.43,0,0,1,4.25-20.73,138.23,138.23,0,0,1,7.74-19.51,152.07,152.07,0,0,1,23.22-34.18c2.33-2.52,4.7-5,7.15-7.39s5-4.64,7.65-6.86,5.36-4.29,8.17-6.27,5.75-3.84,8.81-5.54c-1.31,3.29-2.79,6.37-4.32,9.39s-3,6.05-4.56,9-3,5.9-4.65,8.76-3.06,5.78-4.65,8.6c-6.17,11.42-12.19,22.59-17.79,33.84-2.73,5.66-5.39,11.31-7.88,17s-4.77,11.52-6.88,17.41-4,11.91-5.56,18.12A117.3,117.3,0,0,0,1103.43,777.17Z"/></g><path class="cls-8" d="M559.5,267.14c-17.18-.08-31.62,0-36.74.5h0c-10.09,69.41,0,159.57,6.18,203.52l48.43-.73,0,0C529.89,392.35,559.5,267.14,559.5,267.14Z"/><g class="cls-9"><path class="cls-6" d="M531.61,423s-10.63-85.75-3-98.86C528.6,324.13,540.2,377.94,531.61,423Z"/></g><g class="cls-9"><path class="cls-6" d="M29.36,1378s-8.85-48.7,13.2-68.77c0,0,2.78,4.81-3.91,21.83S29.36,1378,29.36,1378Z"/></g><path d="M942,1113.82c-146.67,84.68-319.46,177.75-483.09,249.51-216.16,94.9-389.08,112.1-436.93,115.11a5.3,5.3,0,1,1-.67-10.58c47.41-3,218.78-20,433.34-114.24C790.42,1206.36,1165.13,969,1272,899.69c163.25-105.81,198.45-149.9,198.78-150.34a5.3,5.3,0,0,1,8.4,6.47c-1.38,1.81-35.85,45.46-201.41,152.77C1222.76,944.23,1096.94,1024.34,942,1113.82Z"/><path d="M629,1209h0c-15.56,9-31.1,17.77-46.2,26.21a5.3,5.3,0,0,1-5.24-9.22l.06,0c15.07-8.42,30.57-17.21,46.09-26.14A5.3,5.3,0,0,1,629,1209Zm23-13.3a5.3,5.3,0,0,1-5.32-9.17c15-8.75,30.36-17.82,45.67-27l.07,0a5.3,5.3,0,0,1,5.37,9.14c-15.34,9.17-30.74,18.26-45.77,27Zm-92.34,52.37-.09.05c-15.72,8.65-31.44,17.16-46.71,25.28a5.3,5.3,0,1,1-5-9.36c15.23-8.1,30.9-16.58,46.57-25.21a5.3,5.3,0,0,1,5.21,9.24Zm160.81-93A5.3,5.3,0,0,1,715,1146c14.84-9,30.06-18.26,45.22-27.62a5.3,5.3,0,1,1,5.57,9c-15.19,9.38-30.44,18.69-45.3,27.68Zm67.77-41.61a5.3,5.3,0,0,1-5.46-9.09c14.79-9.22,29.89-18.72,44.88-28.24a5.3,5.3,0,1,1,5.68,8.95c-15,9.54-30.14,19.06-44.94,28.29ZM489.49,1285.71l-.2.11c-16,8.33-31.87,16.47-47.3,24.19a5.31,5.31,0,0,1-4.75-9.49c15.38-7.69,31.24-15.8,47.14-24.1a5.3,5.3,0,0,1,5.11,9.29Zm366-214.77a5.3,5.3,0,0,1-5.51-9.06c14.7-9.43,29.69-19.11,44.53-28.79a5.3,5.3,0,1,1,5.79,8.88c-14.86,9.7-29.87,19.4-44.6,28.84ZM418.5,1321.61l-.33.17c-16.25,7.94-32.39,15.62-48,22.84a5.3,5.3,0,1,1-4.45-9.62c15.53-7.19,31.61-14.84,47.79-22.75a5.3,5.3,0,0,1,5,9.36Zm503.7-294a5.3,5.3,0,0,1-5.56-9c14.53-9.54,29.4-19.4,44.21-29.28a5.3,5.3,0,1,1,5.89,8.82c-14.83,9.9-29.73,19.77-44.28,29.32ZM346.48,1355.4a3.58,3.58,0,0,1-.48.24c-16.55,7.43-33,14.54-48.8,21.14a5.3,5.3,0,0,1-4.08-9.79c15.74-6.56,32.07-13.63,48.54-21a5.3,5.3,0,0,1,4.82,9.43Zm642-371.87a5.3,5.3,0,0,1-5.61-9c14.44-9.71,29.22-19.72,43.92-29.74a5.3,5.3,0,0,1,6,8.76c-14.71,10-29.51,20.05-44,29.78Zm65.83-44.74a5.3,5.3,0,0,1-5.64-9c14.48-10,29.16-20.1,43.63-30.17a5.3,5.3,0,0,1,6,8.71c-14.48,10.08-29.18,20.24-43.68,30.2Zm-781,447.71a4.37,4.37,0,0,1-.69.33c-16.95,6.77-33.69,13.13-49.75,18.9a5.3,5.3,0,1,1-3.59-10c15.95-5.73,32.57-12,49.4-18.76a5.3,5.3,0,0,1,4.63,9.51Zm846.47-493.08a5.3,5.3,0,0,1-5.69-8.93c14.39-10.09,29-20.37,43.35-30.57a5.3,5.3,0,1,1,6.14,8.65c-14.39,10.21-29,20.51-43.41,30.6A4.25,4.25,0,0,1,1119.74,893.42Zm65-46a5.3,5.3,0,0,1-5.73-8.91c14.38-10.27,28.88-20.68,43.09-30.95a5.3,5.3,0,0,1,6.21,8.59c-14.22,10.28-28.74,20.71-43.14,31ZM198.65,1414.05a5.29,5.29,0,0,1-1,.43c-17.44,5.87-34.56,11.18-50.89,15.79a5.3,5.3,0,1,1-2.89-10.2c16.17-4.57,33.13-9.83,50.4-15.64a5.31,5.31,0,0,1,4.35,9.62ZM1249.33,800.91a5.3,5.3,0,0,1-5.76-8.88c14.21-10.34,28.62-20.88,42.81-31.34a5.3,5.3,0,1,1,6.29,8.54c-14.21,10.47-28.63,21-42.86,31.37A3.56,3.56,0,0,1,1249.33,800.91Zm64.19-47.13a5.3,5.3,0,0,1-5.8-8.86c14.39-10.67,28.7-21.35,42.51-31.74a5.3,5.3,0,1,1,6.38,8.47c-13.84,10.41-28.16,21.1-42.57,31.79A5.8,5.8,0,0,1,1313.52,753.78ZM122.38,1436.6a5.24,5.24,0,0,1-1.36.55c-18.08,4.53-35.65,8.29-52.24,11.16A5.3,5.3,0,0,1,67,1437.86c16.33-2.83,33.65-6.53,51.47-11a5.3,5.3,0,0,1,3.94,9.73ZM1377.27,706a5.3,5.3,0,0,1-5.85-8.82c26.85-20.35,42-32.2,42.19-32.32a5.3,5.3,0,0,1,6.53,8.36c-.16.12-15.4,12-42.31,32.41A4.92,4.92,0,0,1,1377.27,706Zm-1333,745.6a5.39,5.39,0,0,1-2,.67c-10.81,1.34-21.42,2.32-31.52,2.88a5.3,5.3,0,0,1-.6-10.59c9.87-.55,20.23-1.5,30.8-2.82a5.31,5.31,0,0,1,3.31,9.86Z"/><path d="M1107.38,837.13a2.1,2.1,0,0,1-.3.15,3.71,3.71,0,0,1-4.93-1.8A162.09,162.09,0,0,1,1096,820.4a3.71,3.71,0,0,1,7-2.45c1.73,4.94,3.69,9.79,5.84,14.4A3.72,3.72,0,0,1,1107.38,837.13Zm-10.5-30a3.67,3.67,0,0,1-1,.4,3.73,3.73,0,0,1-4.49-2.73c-.87-3.55-1.62-7.16-2.24-10.71-.3-1.75-.58-3.52-.83-5.27a3.71,3.71,0,0,1,7.35-1c.24,1.67.51,3.36.8,5,.59,3.4,1.31,6.84,2.13,10.23A3.7,3.7,0,0,1,1096.88,807.14Zm-4.41-31.44a3.72,3.72,0,0,1-5.57-3.09,152.31,152.31,0,0,1,.3-16.29,3.71,3.71,0,0,1,7.4.54,145.21,145.21,0,0,0-.28,15.49A3.72,3.72,0,0,1,1092.47,775.7Zm2.32-31.66a3.67,3.67,0,0,1-2.53.44,3.71,3.71,0,0,1-3-4.33,149.68,149.68,0,0,1,3.85-15.84,3.71,3.71,0,1,1,7.11,2.15,139.72,139.72,0,0,0-3.66,15A3.69,3.69,0,0,1,1094.79,744Zm9.16-30.4a3.71,3.71,0,0,1-5.28-4.65c2.07-4.92,4.44-9.85,7-14.66a3.71,3.71,0,0,1,6.53,3.53c-2.49,4.6-4.75,9.31-6.72,14A3.73,3.73,0,0,1,1104,713.64Zm15.07-28a3.71,3.71,0,0,1-5-5.26c1-1.56,2.1-3.12,3.18-4.66q3-4.21,6-8.48a3.71,3.71,0,1,1,6,4.29l-6,8.47c-1,1.47-2.07,3-3.06,4.48A3.8,3.8,0,0,1,1119,685.68Zm18.35-26a3.71,3.71,0,0,1-4.87-5.37q4.62-6.45,9.3-12.94a3.71,3.71,0,1,1,6,4.35q-4.66,6.46-9.29,12.91A3.52,3.52,0,0,1,1137.37,659.67ZM1156,633.85a3.71,3.71,0,0,1-4.86-5.4q4.68-6.45,9.39-12.86a3.71,3.71,0,1,1,6,4.39q-4.69,6.39-9.38,12.84A3.72,3.72,0,0,1,1156,633.85Zm18.81-25.68a3.72,3.72,0,0,1-4.85-5.42q4.77-6.45,9.48-12.81a3.71,3.71,0,1,1,6,4.42q-4.71,6.35-9.46,12.79A3.65,3.65,0,0,1,1174.83,608.17Zm19-25.58a3.71,3.71,0,0,1-4.83-5.43q4.83-6.48,9.54-12.77a3.71,3.71,0,0,1,5.94,4.45q-4.71,6.28-9.53,12.75A3.67,3.67,0,0,1,1193.79,582.59Zm19.1-25.49a3.72,3.72,0,0,1-4.83-5.45l9.6-12.72a3.71,3.71,0,1,1,5.92,4.48L1214,556.12A3.65,3.65,0,0,1,1212.89,557.1Zm19.2-25.41a3.71,3.71,0,0,1-4.81-5.46l9.65-12.67a3.71,3.71,0,0,1,5.9,4.5q-4.63,6.08-9.64,12.66A3.62,3.62,0,0,1,1232.09,531.69Zm19.32-25.32a3.71,3.71,0,0,1-4.81-5.47l9.71-12.64a3.71,3.71,0,0,1,5.88,4.52q-4.45,5.79-9.69,12.63A3.81,3.81,0,0,1,1251.41,506.37Zm19.43-25.25a3.72,3.72,0,0,1-4.8-5.49c5.07-6.54,8.47-10.92,9.79-12.61a3.71,3.71,0,1,1,5.86,4.56c-1.32,1.69-4.72,6.06-9.77,12.59A3.87,3.87,0,0,1,1270.84,481.12Z"/><path d="M1094.14,857.53A142.75,142.75,0,0,1,1080,831.62,174.43,174.43,0,0,1,1066,773.87a166.69,166.69,0,0,1,.83-30c.35-2.49.64-5,1-7.47l1.39-7.42c.5-2.47,1.19-4.89,1.77-7.34s1.36-4.85,2.09-7.26,1.45-4.83,2.38-7.17,1.72-4.73,2.66-7.07l3-6.92.76-1.73c.27-.57.56-1.12.84-1.69l1.71-3.37c2.16-4.55,4.81-8.83,7.32-13.19,1.28-2.16,2.73-4.22,4.08-6.33s2.75-4.24,4.17-6.21c5.66-8,11.3-16.07,17-24q34.36-47.85,70.76-94.15c24.19-30.91,48.93-61.4,74.75-91-22.33,32.32-45.21,64.17-68.14,96l-68.76,95.36c-5.76,7.92-11.4,15.93-17.1,23.88-1.47,2-2.76,4-4.11,6s-2.72,3.94-4,6c-2.43,4.11-5,8.14-7.15,12.41l-1.68,3.16c-.28.53-.57,1-.83,1.58l-.76,1.62-3,6.49c-.93,2.2-1.77,4.43-2.68,6.63s-1.69,4.46-2.45,6.72a164.11,164.11,0,0,0-7,27.75,175,175,0,0,0,.57,57.4c.77,4.78,1.82,9.51,3,14.22s2.56,9.37,4.11,14,3.22,9.2,5.13,13.69A137.45,137.45,0,0,0,1094.14,857.53Z"/><path d="M431.15,1204.25l0,0a54.05,54.05,0,0,1-15.91,6,3.71,3.71,0,1,1-1.45-7.28,46.69,46.69,0,0,0,13.74-5.15,3.71,3.71,0,0,1,3.67,6.46Zm12.74-9.45a3.71,3.71,0,0,1-4.45-5.87,44.78,44.78,0,0,0,8.74-11.72,3.71,3.71,0,1,1,6.62,3.36,52.07,52.07,0,0,1-10.18,13.68A3.5,3.5,0,0,1,443.89,1194.8Zm-43.4,15.52a3.67,3.67,0,0,1-2.29.47,90.59,90.59,0,0,1-16.15-3.69,3.71,3.71,0,1,1,2.21-7.09,82.08,82.08,0,0,0,14.81,3.41,3.71,3.71,0,0,1,1.42,6.9Zm57.25-43.4a3.71,3.71,0,0,1-5.55-3.56,39.53,39.53,0,0,0,.13-5.45,43.27,43.27,0,0,0-1.42-9,3.71,3.71,0,0,1,7.17-1.91,50.15,50.15,0,0,1,1.66,10.58,46.61,46.61,0,0,1-.15,6.48A3.67,3.67,0,0,1,457.74,1166.92Zm-88,35.27a3.69,3.69,0,0,1-2.68.4,42.75,42.75,0,0,0-14.55-1,3.71,3.71,0,0,1-.81-7.38,49.82,49.82,0,0,1,17,1.12,3.71,3.71,0,0,1,1,6.83Zm-31.11,2.94a2.3,2.3,0,0,1-.5.24c-1.94.77-4,1.68-6.08,2.69-2.56,1.23-5.25,2.56-8,3.94a3.71,3.71,0,0,1-3.34-6.63c2.79-1.4,5.52-2.74,8.11-4,2.25-1.09,4.47-2.06,6.59-2.9a3.71,3.71,0,0,1,3.22,6.66Zm-28.52,14.08-.12.07c-4.39,2.33-9,4.78-14,7.52a3.71,3.71,0,1,1-3.56-6.52c5-2.75,9.63-5.22,14.05-7.56a3.71,3.71,0,0,1,3.59,6.49Zm-27.94,15.22,0,0q-6.86,3.81-13.88,7.75a3.71,3.71,0,0,1-3.63-6.48q7-3.95,13.9-7.76a3.71,3.71,0,0,1,3.66,6.46ZM254.45,1250l0,0q-6.92,3.88-13.89,7.77a3.71,3.71,0,0,1-3.66-6.46l.05,0,13.88-7.75a3.71,3.71,0,0,1,3.67,6.45Zm195.7-113.4a3.71,3.71,0,0,1-5.06-1.35,80.8,80.8,0,0,0-8.91-12.3,3.71,3.71,0,0,1,5.6-4.87,87.19,87.19,0,0,1,9.72,13.44,3.71,3.71,0,0,1-1.34,5.07ZM226.64,1265.42l-.07,0q-7,3.84-14,7.62a3.71,3.71,0,0,1-3.62-6.48l.1,0q7-3.77,13.94-7.59a3.71,3.71,0,0,1,3.65,6.46Zm-28,15.08-.14.08c-4.85,2.54-9.63,5-14.19,7.31a3.71,3.71,0,1,1-3.35-6.62c4.53-2.3,9.27-4.74,14.09-7.27a3.71,3.71,0,0,1,3.59,6.5Zm-28.42,14.34-.24.13c-5,2.4-9.83,4.68-14.48,6.8a3.71,3.71,0,1,1-3.07-6.76c4.59-2.09,9.41-4.35,14.32-6.72a3.71,3.71,0,0,1,3.47,6.55Zm-29,13.15-.42.21c-3,1.25-5.93,2.46-8.8,3.6-2,.82-4.07,1.61-6.07,2.38a3.71,3.71,0,0,1-2.66-6.93q3-1.14,6-2.34c2.83-1.13,5.74-2.32,8.67-3.56a3.71,3.71,0,0,1,3.3,6.64Zm-29.69,11.41a3.07,3.07,0,0,1-.64.29c-5.31,1.85-10.45,3.52-15.29,5a3.71,3.71,0,1,1-2.13-7.11c4.73-1.42,9.77-3,15-4.86a3.71,3.71,0,0,1,3.08,6.72Zm-30.5,9a3.82,3.82,0,0,1-1,.41c-1.71.39-3.4.76-5,1.08-2.61.53-6.55,1.32-11.07,1.82a3.71,3.71,0,0,1-.82-7.38c4.19-.46,7.8-1.19,10.43-1.71,1.55-.32,3.17-.67,4.81-1.05a3.71,3.71,0,0,1,2.69,6.83ZM49.5,1331.1a3.64,3.64,0,0,1-2.44.45,34.55,34.55,0,0,1-16.25-6.78,3.71,3.71,0,0,1,4.63-5.81,27.23,27.23,0,0,0,12.8,5.26,3.72,3.72,0,0,1,3.07,4.26A3.64,3.64,0,0,1,49.5,1331.1Z"/><path d="M394.75,1102.76a20.75,20.75,0,0,0,3.65,7.23,31,31,0,0,0,5.7,5.75c.51.44,1.07.83,1.62,1.22a19.6,19.6,0,0,0,1.67,1.13l1.7,1.05c.65.35,1.3.74,1.94,1.14a69.74,69.74,0,0,1,7.13,5.22,74.52,74.52,0,0,1,12.35,12.73,41.68,41.68,0,0,1,8,16.77,25.23,25.23,0,0,1-3.8,19.45,35.61,35.61,0,0,1-3,3.92c-.55.61-1.14,1.14-1.72,1.72a19.06,19.06,0,0,1-1.77,1.61l-1.84,1.51c-.61.5-1.28.91-1.93,1.37a42.32,42.32,0,0,1-4.06,2.49,34.4,34.4,0,0,1-9.26,3.37,33.79,33.79,0,0,1-9.86.39,49,49,0,0,1-9.11-1.9c-2.87-.84-5.62-1.82-8.28-2.78a128.9,128.9,0,0,0-15.73-4.94,61.43,61.43,0,0,0-16.07-1.63,69.66,69.66,0,0,0-16.24,2.52,94.49,94.49,0,0,0-15.64,6c-20.49,9.68-40.1,21.18-59.42,33.13l-14.51,8.94L239,1234.6l-7.31,4.4c-9.75,5.85-19.64,11.49-29.56,17.08-5,2.75-10,5.56-15,8.26s-10,5.42-15.15,8l-7.63,3.91c-2.56,1.28-5.15,2.49-7.73,3.74-5.14,2.51-10.39,4.83-15.64,7.13-1.32.57-2.62,1.16-4,1.71l-4,1.62-8,3.2c-5.36,2-10.75,4-16.21,5.8s-11,3.53-16.49,5.11-11.18,2.9-16.89,4a100.12,100.12,0,0,1-17.56,2.11,42.74,42.74,0,0,1-4.63-.16,22.77,22.77,0,0,1-4.87-.93,13.06,13.06,0,0,1-2.58-1.14,8.35,8.35,0,0,1-2.47-2.15,6.92,6.92,0,0,1-1.37-3.26,8.28,8.28,0,0,1,.16-3.1,15.25,15.25,0,0,1,2-4.67,28.71,28.71,0,0,1,2.74-3.69,66.37,66.37,0,0,1,6.18-6.25,142.5,142.5,0,0,1,13.58-10.56l.67.82c-4.08,4-8.09,8-11.76,12.2a63.25,63.25,0,0,0-5.08,6.52,31.06,31.06,0,0,0-2,3.39,10.34,10.34,0,0,0-1.06,3.22,2.82,2.82,0,0,0,.06,1.13,1.17,1.17,0,0,0,.38.57,4.74,4.74,0,0,0,2.2.91,25.63,25.63,0,0,0,7.42.13,107.63,107.63,0,0,0,16-3.23c5.36-1.43,10.68-3.13,16-4.94s10.58-3.71,15.81-5.74,10.45-4.13,15.64-6.29l7.73-3.34,3.87-1.65c1.29-.56,2.56-1.17,3.84-1.75,20.49-9.24,40.81-19.13,60.95-29.48l30.17-15.7c10.08-5.23,20.26-10.3,30.4-15.45,20.33-10.22,40.45-20.79,60.75-31.14,10.15-5.26,21.1-9.71,32.91-11.23a67.6,67.6,0,0,1,17.86.08,116.93,116.93,0,0,1,17.14,3.92c5.46,1.57,10.69,3.23,15.58,3.64a27.09,27.09,0,0,0,7.11-.3,26.62,26.62,0,0,0,6.71-2.37,31.29,31.29,0,0,0,3.22-1.91c.52-.36,1.07-.68,1.57-1.06l1.49-1.15a13.79,13.79,0,0,0,1.41-1.21c.44-.42.92-.82,1.33-1.26a24.06,24.06,0,0,0,2.26-2.73,18.15,18.15,0,0,0,2.88-6.12,19,19,0,0,0,.24-6.87,36.22,36.22,0,0,0-5.74-14.09,72.78,72.78,0,0,0-4.8-6.52,81.31,81.31,0,0,0-5.5-6.11c-1.94-2-4-3.79-6.09-5.52-.52-.42-1-.83-1.6-1.23l-1.77-1.41c-.61-.46-1.15-1-1.7-1.48s-1.1-1-1.61-1.55a32.35,32.35,0,0,1-5.31-7.17,22.42,22.42,0,0,1-1.76-4.09,16,16,0,0,1-.84-4.39Z"/><path d="M1026.71,242c-.87.9-1.78,1.71-2.69,2.56s-1.83,1.64-2.77,2.44l-2.8,2.4-2.9,2.29c-3.81,3.11-7.85,5.92-11.84,8.8l-1.51,1.08-1.54,1-3.09,2-6.18,4c-4.19,2.58-8.44,5-12.67,7.57-2.09,1.3-4.28,2.42-6.44,3.59l-6.5,3.5c-2.17,1.16-4.32,2.36-6.51,3.48L952.63,290c-4.43,2.13-8.83,4.35-13.29,6.41l-13.53,5.92c-36.23,15.42-73.85,27.4-112,37.22l-14.28,3.73c-2.38.66-4.78,1.17-7.18,1.71l-7.21,1.6c-9.6,2.14-19.19,4.42-28.82,6.46q-14.49,2.71-29,5.23l-14.51,2.43c-4.77.76-9.57,1.59-14.35,2.45-9.58,1.64-19.09,3.53-28.47,5.78-4.71,1.07-9.34,2.35-14,3.69s-9.08,2.94-13.46,4.73a70.49,70.49,0,0,0-12.4,6.48,37.19,37.19,0,0,0-9.89,9.35,33.43,33.43,0,0,0-3.39,6,46.74,46.74,0,0,0-2.19,6.69,63.84,63.84,0,0,0-1.26,7.1c-.34,2.4-.52,4.83-.7,7.27h0a.53.53,0,0,1-1.06,0,76,76,0,0,1-.07-14.93,43.83,43.83,0,0,1,1.51-7.51,37.26,37.26,0,0,1,3.06-7.2,42.28,42.28,0,0,1,10.26-11.81,72.48,72.48,0,0,1,13-8.21c9.07-4.61,18.6-7.82,28.12-10.69s19.21-5.07,28.87-7.15c4.84-1,9.68-1.93,14.57-2.82s9.64-1.69,14.47-2.54c9.63-1.63,19.27-3.16,28.93-4.66,2.42-.32,4.8-.86,7.2-1.28l7.19-1.35,14.39-2.7,7.19-1.37c2.4-.46,4.8-.89,7.17-1.46l14.27-3.26c38-8.71,75.64-19.57,112-33.89l13.61-5.4c4.5-1.89,8.92-3.93,13.39-5.9l6.7-3c2.21-1,4.37-2.15,6.57-3.22l6.56-3.25c2.18-1.09,4.4-2.13,6.51-3.34,4.27-2.36,8.58-4.66,12.82-7.07l6.27-3.79,3.13-1.89,1.57-.95,1.53-1c4.06-2.69,8.19-5.32,12.09-8.24l3-2.16,2.88-2.26c1.92-1.49,3.79-3.08,5.56-4.71h0a.53.53,0,0,1,.75,0A.54.54,0,0,1,1026.71,242Z"/><path d="M1017.68,667.54a3.71,3.71,0,0,1-3.85-6.35c4-2.57,8.35-5.58,12.78-8.94a3.71,3.71,0,0,1,4.49,5.91c-4.59,3.49-9.06,6.61-13.29,9.3Zm-13.93,7.65-.32.16c-1.07.49-2.13.95-3.17,1.37-3.67,1.49-7.78,2.93-12.21,4.3a3.71,3.71,0,1,1-2.18-7.1c4.23-1.3,8.13-2.67,11.6-4.08.95-.38,1.91-.8,2.89-1.24a3.71,3.71,0,0,1,3.39,6.59Zm39.33-26.75a3.71,3.71,0,0,1-4.26-6c3.79-3.23,7.75-6.76,11.77-10.48a3.72,3.72,0,0,1,5,5.46c-4.09,3.78-8.13,7.37-12,10.67A3.44,3.44,0,0,1,1043.08,648.44ZM973.42,684.8a4.26,4.26,0,0,1-1,.4c-4.89,1.14-10.2,2.25-15.77,3.29a3.71,3.71,0,0,1-1.36-7.3c5.46-1,10.66-2.1,15.44-3.22a3.71,3.71,0,0,1,2.7,6.83Zm93.05-57.92A3.71,3.71,0,0,1,1062,621c3.59-3.53,7.34-7.31,11.14-11.23a3.71,3.71,0,1,1,5.33,5.16c-3.84,4-7.63,7.79-11.26,11.36A3.38,3.38,0,0,1,1066.47,626.88ZM942.1,690.71a3.66,3.66,0,0,1-1.29.45c-5,.77-10.37,1.52-15.88,2.22A3.71,3.71,0,0,1,924,686c5.45-.69,10.73-1.43,15.7-2.19a3.71,3.71,0,0,1,2.41,6.89ZM1088.61,604a3.71,3.71,0,0,1-4.57-5.74c3.49-3.74,7.09-7.68,10.7-11.69a3.71,3.71,0,1,1,5.51,5c-3.64,4-7.26,8-10.77,11.78A3.79,3.79,0,0,1,1088.61,604Zm21.3-23.63a3.71,3.71,0,0,1-4.65-5.66c3.36-3.84,6.85-7.87,10.38-12a3.71,3.71,0,1,1,5.64,4.82c-3.54,4.15-7,8.21-10.43,12.07A3.78,3.78,0,0,1,1109.91,580.41ZM910.49,694.76a3.76,3.76,0,0,1-1.46.48c-5.15.55-10.51,1.08-15.92,1.56a3.71,3.71,0,1,1-.67-7.39c5.38-.48,10.69-1,15.8-1.55a3.71,3.71,0,0,1,2.25,6.9Zm220.09-138.53a3.71,3.71,0,0,1-4.7-5.6c3.32-4,6.73-8.08,10.13-12.22a3.71,3.71,0,0,1,5.74,4.71c-3.42,4.16-6.84,8.29-10.18,12.28A3.56,3.56,0,0,1,1130.58,556.23ZM878.75,697.64a3.8,3.8,0,0,1-1.57.49c-5.17.39-10.54.77-15.95,1.12a3.71,3.71,0,0,1-.48-7.41c5.39-.35,10.72-.72,15.86-1.11a3.71,3.71,0,0,1,2.14,6.91Zm272-166a3.72,3.72,0,0,1-4.75-5.55q5-6.24,9.93-12.4a3.72,3.72,0,1,1,5.82,4.62q-4.9,6.16-10,12.44A3.93,3.93,0,0,1,1150.78,531.65Zm-303.85,168a3.69,3.69,0,0,1-1.65.49c-5.24.28-10.61.54-16,.77a3.71,3.71,0,1,1-.32-7.42c5.32-.23,10.67-.49,15.88-.76a3.71,3.71,0,0,1,2,6.92Zm323.65-193a3.71,3.71,0,0,1-4.78-5.5q5-6.41,9.75-12.55a3.71,3.71,0,0,1,5.88,4.53q-4.76,6.17-9.78,12.59A3.76,3.76,0,0,1,1170.58,506.73ZM815.09,701.08a3.74,3.74,0,0,1-1.72.5c-5.43.19-10.77.35-16,.49a3.71,3.71,0,1,1-.2-7.42q7.78-.21,15.91-.49a3.71,3.71,0,0,1,2,6.92ZM1190,481.53a3.71,3.71,0,0,1-4.81-5.46q5-6.6,9.59-12.68a3.71,3.71,0,0,1,5.93,4.46c-3,4.06-6.26,8.31-9.62,12.71A3.58,3.58,0,0,1,1190,481.53Zm19.13-25.44a3.72,3.72,0,0,1-4.84-5.43c3.49-4.7,6.65-9,9.44-12.79a3.71,3.71,0,1,1,6,4.38c-2.8,3.82-6,8.12-9.47,12.83A3.71,3.71,0,0,1,1209.16,456.09ZM783.22,701.94a3.68,3.68,0,0,1-1.78.5c-5.55.1-10.89.18-16,.25a3.72,3.72,0,1,1-.09-7.43c5.07-.06,10.39-.14,15.92-.25a3.71,3.71,0,0,1,1.92,6.93ZM1228,430.39a3.71,3.71,0,0,1-4.87-5.38l4.14-5.78.08-.12,5.37-7a3.71,3.71,0,0,1,5.88,4.52l-5.32,6.91c-.58.82-2,2.8-4.13,5.76A3.71,3.71,0,0,1,1228,430.39ZM751.33,702.33a3.65,3.65,0,0,1-1.83.49c-5.9,0-11.26,0-16,0a3.71,3.71,0,1,1,0-7.42c4.7,0,10.05,0,15.92,0a3.71,3.71,0,0,1,1.87,6.93Zm-31.91-.09a3.71,3.71,0,0,1-1.9.49c-2.88,0-4.83-.06-5.73-.08l-10.14.08a3.71,3.71,0,1,1-.06-7.42l10.24-.08,5.78.08a3.72,3.72,0,0,1,1.81,6.93Z"/><path d="M1213.21,408.77c-13.43,20.82-27.66,41.11-42.11,61.23q-10.9,15-22.11,29.89c-7.44,9.91-15.1,19.66-22.79,29.39s-15.51,19.36-23.55,28.82-16.16,18.87-24.49,28.11q-6.24,6.93-12.72,13.67t-13.12,13.33q-6.64,6.59-13.6,12.93c-4.63,4.22-9.36,8.36-14.27,12.33s-10,7.73-15.4,11.24c-2.68,1.76-5.47,3.42-8.34,5-1.42.79-2.93,1.49-4.4,2.23l-2.3,1-1.14.5-1.14.43c-12.11,4.62-24.4,7.47-36.73,9.77s-24.71,3.92-37.08,5.29l-9.29,1-9.29.85-9.29.71-9.3.62c-12.39.76-24.78,1.4-37.18,1.75s-24.79.58-37.18.66c-24.79,0-49.56-.32-74.31-1.56,24.75-1.12,49.47-2.14,74.14-3.64,12.34-.7,24.68-1.47,37-2.4s24.62-1.86,36.89-3.06c24.51-2.48,49-5.17,73-10l4.48-.92,4.45-1c3-.62,5.9-1.42,8.84-2.14,1.47-.37,2.9-.82,4.36-1.22s2.9-.82,4.31-1.3l4.25-1.4,4.15-1.57a82.23,82.23,0,0,0,15.38-8.28c5-3.28,9.78-6.92,14.49-10.72,9.47-7.57,18.49-15.85,27.28-24.39s17.28-17.44,25.71-26.4c16.89-17.91,33-36.62,49-55.37,8-9.4,15.85-18.94,23.73-28.45s15.67-19.11,23.43-28.74C1182.56,447.65,1197.88,428.22,1213.21,408.77Z"/><path d="M1003.94,917.32a3.92,3.92,0,0,1-1.1.42,3.71,3.71,0,0,1-4.39-2.88l-3.24-15.57a3.71,3.71,0,1,1,7.26-1.52l3.25,15.58A3.72,3.72,0,0,1,1003.94,917.32Zm-6.49-31.15a3.4,3.4,0,0,1-1.1.42,3.71,3.71,0,0,1-4.39-2.87l-3.24-15.58a3.71,3.71,0,1,1,7.27-1.51l3.24,15.57A3.71,3.71,0,0,1,997.45,886.17ZM991,855a4.17,4.17,0,0,1-1.1.42,3.71,3.71,0,0,1-4.39-2.88L982.23,837a3.71,3.71,0,0,1,7.27-1.52l3.24,15.57A3.71,3.71,0,0,1,991,855Zm-6.49-31.15a3.64,3.64,0,0,1-1.1.42,3.71,3.71,0,0,1-4.39-2.88l-3.25-15.57a3.71,3.71,0,1,1,7.27-1.51l3.25,15.57A3.72,3.72,0,0,1,984.48,823.88ZM978,792.73a3.4,3.4,0,0,1-1.1.42,3.71,3.71,0,0,1-4.39-2.87l-3.24-15.58a3.71,3.71,0,1,1,7.27-1.51l3.24,15.57A3.71,3.71,0,0,1,978,792.73Zm-8.76-30.38a3.71,3.71,0,0,1-5-1.23,34.24,34.24,0,0,0-10-10.17,3.71,3.71,0,0,1,4.1-6.19,41.1,41.1,0,0,1,12.14,12.39,3.71,3.71,0,0,1-1.16,5.12A.57.57,0,0,1,969.23,762.35Zm-25.74-17a3.68,3.68,0,0,1-2.45.45,35.17,35.17,0,0,0-6.49-.42l-8.68.28a3.71,3.71,0,1,1-.23-7.42l8.68-.28a41.75,41.75,0,0,1,7.9.51,3.71,3.71,0,0,1,1.27,6.88Zm-31.78.31a3.66,3.66,0,0,1-1.74.49l-15.9.5a3.71,3.71,0,0,1-.23-7.42l15.9-.5a3.72,3.72,0,0,1,2,6.93Zm-31.8,1a3.74,3.74,0,0,1-1.74.49l-15.9.5a3.71,3.71,0,0,1-.23-7.42l15.9-.5a3.71,3.71,0,0,1,2,6.93Zm-31.8,1a3.63,3.63,0,0,1-1.74.49l-15.9.5a3.71,3.71,0,0,1-.23-7.42l15.9-.5a3.71,3.71,0,0,1,2,6.93Zm-31.8,1a3.74,3.74,0,0,1-1.74.49l-15.9.5a3.71,3.71,0,0,1-.23-7.42l15.9-.5a3.71,3.71,0,0,1,2,6.93Zm-31.8,1a3.62,3.62,0,0,1-1.73.49l-15.9.5a3.71,3.71,0,0,1-.24-7.42l15.9-.5a3.71,3.71,0,0,1,2,6.93Zm-31.8,1a3.74,3.74,0,0,1-1.73.49l-15.9.5a3.71,3.71,0,1,1-.23-7.42l15.89-.5a3.71,3.71,0,0,1,2,6.93Zm-31.8,1a3.62,3.62,0,0,1-1.73.49l-15.9.5a3.71,3.71,0,1,1-.23-7.42l15.9-.5a3.71,3.71,0,0,1,2,6.93Zm-31.79,1a3.7,3.7,0,0,1-1.74.5l-15.9.5a3.71,3.71,0,1,1-.23-7.42l15.9-.5a3.71,3.71,0,0,1,2,6.92Zm-31.8,1a3.69,3.69,0,0,1-1.74.49l-15.9.5a3.71,3.71,0,1,1-.23-7.42l15.9-.5a3.72,3.72,0,0,1,2,6.93Z"/><path d="M736.13,325.2a96.26,96.26,0,0,0-15.74-23.48,84.34,84.34,0,0,0-22.33-17.33,103.44,103.44,0,0,0-27-9.77A187,187,0,0,0,642,271c-19.81-.86-39.72-1.62-59.58-2.29q-14.91-.51-29.81-.88-7.46-.19-14.91-.28c-2.49,0-5-.07-7.46,0l-3.73,0-3.72.14,3.72-.31,3.72-.19c2.49-.15,5-.2,7.46-.3q7.46-.24,14.92-.38,14.91-.3,29.84-.45c19.9-.21,39.76-.33,59.71-.35a192.49,192.49,0,0,1,30.2,2.46,110.72,110.72,0,0,1,29.34,9.18,93.06,93.06,0,0,1,25.4,18,106,106,0,0,1,18.51,25.1,5.31,5.31,0,0,1-9.33,5.06l-.09-.18Z"/><path d="M559.5,267.14c-.24,2.41-.49,4.79-.69,7.19s-.45,4.78-.65,7.17c-.37,4.78-.77,9.54-1.08,14.31-.66,9.53-1.17,19-1.45,28.53s-.38,19-.2,28.44.56,18.89,1.4,28.27a286.45,286.45,0,0,0,9.66,55.42,200.63,200.63,0,0,0,9.66,26.47c.94,2.17,2.08,4.23,3.1,6.38.53,1.05,1,2.15,1.59,3.18l1.76,3.09c2.22,4.24,4.95,8.13,7.49,12.27-1.74-1.67-3.42-3.4-5.14-5.12a32.83,32.83,0,0,1-2.45-2.69l-2.33-2.79-2.33-2.82c-.76-.95-1.42-2-2.14-3l-2.09-3c-.68-1-1.44-2-2-3.05a150.65,150.65,0,0,1-13-26.31c-6.92-18.37-10.73-37.78-12.31-57.19-.42-4.86-.64-9.72-.84-14.58s-.19-9.73,0-14.59q.32-14.56,2-29t4.6-28.64c1-4.73,2.09-9.44,3.34-14.1S557.86,271.69,559.5,267.14Z"/><path d="M528.86,465.86l48.51,4.57-48.35,6a5.33,5.33,0,1,1-1.32-10.58A5.65,5.65,0,0,1,528.86,465.86Z"/><path d="M467.5,1353.73l24.43,31.71a5.35,5.35,0,0,1-8.48,6.53,5.85,5.85,0,0,1-.71-1.23Z"/><path d="M514.27,1332.55l24.15,31.23a5.35,5.35,0,1,1-8.46,6.55,5.2,5.2,0,0,1-.72-1.24Z"/><path d="M561.75,1310.2,585.64,1341a5.35,5.35,0,0,1-8.46,6.56,5.73,5.73,0,0,1-.73-1.26Z"/><path d="M608.79,1287.29l23.59,30.26a5.35,5.35,0,1,1-9.18,5.3Z"/><path d="M655.76,1263.71l23.34,29.81a5.36,5.36,0,1,1-8.44,6.6,5.85,5.85,0,0,1-.75-1.3Z"/><path d="M704.69,1238.47l23.07,29.35a5.36,5.36,0,0,1-8.43,6.62,5.8,5.8,0,0,1-.76-1.32Z"/><path d="M759.35,1209.51l22.81,28.9a5.36,5.36,0,1,1-8.41,6.64,5.11,5.11,0,0,1-.77-1.33Z"/><path d="M812.67,1180.55,835.24,1209a5.36,5.36,0,1,1-8.4,6.66,5.26,5.26,0,0,1-.78-1.35Z"/><path d="M864,1152l22.38,28.16a5.36,5.36,0,0,1-8.39,6.67,5.24,5.24,0,0,1-.79-1.37Z"/><path d="M915.89,1122.64,938,1150.38a5.36,5.36,0,1,1-8.38,6.69,5.51,5.51,0,0,1-.8-1.38Z"/><path d="M974,1089l22.05,27.58a5.36,5.36,0,0,1-8.38,6.69,5.43,5.43,0,0,1-.81-1.39Z"/><path d="M1023.67,1060.47l21.56,26.75a5.37,5.37,0,1,1-9.18,5.31Z"/><path d="M1073.23,1030.09l21.65,26.89a5.37,5.37,0,0,1-8.36,6.73,5.91,5.91,0,0,1-.83-1.43Z"/><path d="M1122.37,1000.18l21.37,26.4a5.37,5.37,0,0,1-8.35,6.76,5.71,5.71,0,0,1-.83-1.45Z"/><path d="M1172.23,969.34l21,25.77a5.37,5.37,0,0,1-8.33,6.79,5.68,5.68,0,0,1-.85-1.49Z"/><path d="M1222.11,938l20.54,25a5.38,5.38,0,0,1-8.31,6.83,5.68,5.68,0,0,1-.88-1.52Z"/><path d="M1271.15,906.54l20,24a5.38,5.38,0,0,1-8.27,6.89,5.62,5.62,0,0,1-.92-1.58Z"/><path d="M1319.41,874.69l19.43,23.06a5.38,5.38,0,1,1-8.23,6.94,5.56,5.56,0,0,1-.95-1.64Z"/><path d="M1393.18,822.57l19.09,22.48a5.39,5.39,0,1,1-8.21,7,5.48,5.48,0,0,1-1-1.68Z"/><path d="M1426.37,798.92l17.18,19.13a5.42,5.42,0,1,1-8.07,7.24,5.64,5.64,0,0,1-1.12-1.93Z"/><path d="M1452.09,775.21l19.81,23.71a5.38,5.38,0,0,1-8.26,6.9,5.16,5.16,0,0,1-.92-1.6Z"/><path d="M474.83,1367.21a3.16,3.16,0,0,1-4.19-1.62h0a3.17,3.17,0,0,1,1.62-4.19h0a3.18,3.18,0,0,1,4.2,1.62h0a3.19,3.19,0,0,1-1.32,4h0A1.77,1.77,0,0,1,474.83,1367.21Zm-8.73,3.86a3.19,3.19,0,0,1-4.2-1.63h0a3.18,3.18,0,0,1,1.63-4.19h0a3.19,3.19,0,0,1,4.2,1.63h0a3.18,3.18,0,0,1-1.32,4h0Zm-8.77,3.82h0a3.17,3.17,0,0,1-4.18-1.65h0a3.18,3.18,0,0,1,1.66-4.19h0a3.19,3.19,0,0,1,4.18,1.67h0a3.19,3.19,0,0,1-1.33,4h0A2.49,2.49,0,0,1,457.33,1374.89Zm-8.79,3.78h0a3.18,3.18,0,0,1-4.17-1.69h0a3.17,3.17,0,0,1,1.68-4.17h0a3.18,3.18,0,0,1,4.17,1.68h0a3.18,3.18,0,0,1-1.33,4h0Zm-8.81,3.72a3.19,3.19,0,0,1-4.16-1.72h0a3.18,3.18,0,0,1,1.7-4.16h0a3.18,3.18,0,0,1,4.16,1.71h0a3.17,3.17,0,0,1-1.34,4h0C440,1382.27,439.85,1382.33,439.73,1382.39Zm-8.84,3.65h0a3.19,3.19,0,0,1-4.16-1.73h0a3.2,3.2,0,0,1,1.74-4.16h0a3.19,3.19,0,0,1,4.15,1.74h0a3.17,3.17,0,0,1-1.35,4h0A2.69,2.69,0,0,1,430.89,1386Zm-8.87,3.6h0a3.18,3.18,0,0,1-4.14-1.76h0a3.19,3.19,0,0,1,1.77-4.14h0a3.18,3.18,0,0,1,4.13,1.76h0a3.16,3.16,0,0,1-1.35,3.94h0A2,2,0,0,1,422,1389.64Zm-8.87,3.55a3.18,3.18,0,0,1-4.13-1.78h0a3.17,3.17,0,0,1,1.78-4.13h0a3.19,3.19,0,0,1,4.13,1.78h0a3.18,3.18,0,0,1-1.36,3.93h0A2.67,2.67,0,0,1,413.15,1393.19Zm-8.91,3.5a3.19,3.19,0,0,1-4.12-1.82h0a3.17,3.17,0,0,1,1.82-4.11h0a3.17,3.17,0,0,1,4.11,1.81h0a3.18,3.18,0,0,1-1.37,3.9h0A3.61,3.61,0,0,1,404.24,1396.69Zm-8.92,3.44a3.2,3.2,0,0,1-4.11-1.84h0a3.17,3.17,0,0,1,1.84-4.11h0a3.18,3.18,0,0,1,4.11,1.84h0a3.2,3.2,0,0,1-1.38,3.89h0Zm-8.95,3.38a3.19,3.19,0,0,1-4.1-1.86h0a3.19,3.19,0,0,1,1.87-4.11h0a3.19,3.19,0,0,1,4.09,1.87h0a3.18,3.18,0,0,1-1.39,3.87h0A2.56,2.56,0,0,1,386.37,1403.51Zm-9,3.33a3.18,3.18,0,0,1-4.08-1.9h0a3.18,3.18,0,0,1,1.88-4.08h0a3.18,3.18,0,0,1,4.08,1.89h0a3.17,3.17,0,0,1-1.38,3.85h0A3.85,3.85,0,0,1,377.4,1406.84Zm-9,3.26a3.18,3.18,0,0,1-4.07-1.92h0a3.16,3.16,0,0,1,1.91-4.06h0a3.18,3.18,0,0,1,4.07,1.92h0a3.16,3.16,0,0,1-1.39,3.82h0A2.45,2.45,0,0,1,368.41,1410.1Zm-9,3.22a3.19,3.19,0,0,1-4.06-1.94h0a3.17,3.17,0,0,1,2-4.06h0a3.19,3.19,0,0,1,4.06,1.94h0a3.18,3.18,0,0,1-1.41,3.82h0A2.87,2.87,0,0,1,359.4,1413.32Zm-9,3.15a3.18,3.18,0,0,1-4.06-2h0a3.17,3.17,0,0,1,2-4h0a3.2,3.2,0,0,1,4.06,2h0a3.18,3.18,0,0,1-1.41,3.79h0A3.87,3.87,0,0,1,350.38,1416.47Zm-9.05,3.1a3.18,3.18,0,0,1-4-2h0a3.17,3.17,0,0,1,2-4h0a3.18,3.18,0,0,1,4,2h0a3.19,3.19,0,0,1-1.42,3.77h0A2.94,2.94,0,0,1,341.33,1419.57Zm-9.07,3a3.18,3.18,0,0,1-4-2h0a3.19,3.19,0,0,1,2-4h0a3.18,3.18,0,0,1,4,2h0a3.18,3.18,0,0,1-1.43,3.75h0A3,3,0,0,1,332.26,1422.61Zm-9.09,3a3.18,3.18,0,0,1-4-2h0a3.2,3.2,0,0,1,2-4h0a3.19,3.19,0,0,1,4,2h0a3.19,3.19,0,0,1-1.44,3.74h0A2.74,2.74,0,0,1,323.17,1425.6Zm-9.11,2.93a3.18,3.18,0,0,1-4-2.07h0a3.19,3.19,0,0,1,2.07-4h0a3.16,3.16,0,0,1,4,2.06h0a3.16,3.16,0,0,1-1.43,3.72h0A3.26,3.26,0,0,1,314.06,1428.53Zm-9.12,2.87a3.19,3.19,0,0,1-4-2.09h0a3.2,3.2,0,0,1,2.1-4h0a3.19,3.19,0,0,1,4,2.1h0a3.18,3.18,0,0,1-1.44,3.7h0A3.75,3.75,0,0,1,304.94,1431.4Zm-9.15,2.81a3.17,3.17,0,0,1-4-2.12h0a3.19,3.19,0,0,1,2.12-4h0a3.17,3.17,0,0,1,4,2.12h0a3.18,3.18,0,0,1-1.45,3.68h0A2.87,2.87,0,0,1,295.79,1434.21Zm-9.16,2.77a3.19,3.19,0,0,1-3.95-2.15h0a3.18,3.18,0,0,1,2.14-4h0a3.19,3.19,0,0,1,4,2.14h0a3.19,3.19,0,0,1-1.46,3.67h0A3.59,3.59,0,0,1,286.63,1437Zm-9.17,2.69a3.2,3.2,0,0,1-3.95-2.17h0a3.2,3.2,0,0,1,2.17-4h0a3.2,3.2,0,0,1,3.95,2.17h0a3.21,3.21,0,0,1-1.46,3.65h0A4.09,4.09,0,0,1,277.46,1439.67Zm-9.2,2.64a3.18,3.18,0,0,1-3.92-2.19h0a3.19,3.19,0,0,1,2.18-3.94h0a3.21,3.21,0,0,1,3.94,2.2h0A3.2,3.2,0,0,1,269,1442h0A3.41,3.41,0,0,1,268.26,1442.31Zm-9.21,2.57a3.17,3.17,0,0,1-3.91-2.22h0a3.16,3.16,0,0,1,2.22-3.9h0a3.17,3.17,0,0,1,3.91,2.21h0a3.2,3.2,0,0,1-1.47,3.61h0A3.09,3.09,0,0,1,259.05,1444.88Zm-9.23,2.53h0a3.17,3.17,0,0,1-3.89-2.25h0a3.17,3.17,0,0,1,2.24-3.9h0a3.17,3.17,0,0,1,3.89,2.24h0a3.18,3.18,0,0,1-1.48,3.59h0A3.47,3.47,0,0,1,249.82,1447.41Zm-9.24,2.46a3.2,3.2,0,0,1-3.89-2.28h0a3.18,3.18,0,0,1,2.28-3.88h0a3.18,3.18,0,0,1,3.88,2.27h0a3.17,3.17,0,0,1-1.49,3.55h0A3,3,0,0,1,240.58,1449.87Zm-9.26,2.39a3.19,3.19,0,0,1-3.88-2.29h0a3.19,3.19,0,0,1,2.3-3.88h0a3.18,3.18,0,0,1,3.87,2.3h0a3.17,3.17,0,0,1-1.49,3.54h0A3.29,3.29,0,0,1,231.32,1452.26ZM222,1454.6a3.18,3.18,0,0,1-3.85-2.32h0a3.17,3.17,0,0,1,2.32-3.86h0a3.18,3.18,0,0,1,3.85,2.32h0a3.2,3.2,0,0,1-1.5,3.53h0A3.52,3.52,0,0,1,222,1454.6Zm-9.29,2.27h0a3.2,3.2,0,0,1-3.85-2.35h0a3.18,3.18,0,0,1,2.35-3.84h0a3.2,3.2,0,0,1,3.85,2.35h0a3.2,3.2,0,0,1-1.51,3.5h0A3.09,3.09,0,0,1,212.75,1456.87Zm-9.31,2.21a3.17,3.17,0,0,1-3.82-2.38h0a3.16,3.16,0,0,1,2.36-3.81h0a3.18,3.18,0,0,1,3.83,2.37h0a3.16,3.16,0,0,1-1.5,3.47h0A3.3,3.3,0,0,1,203.44,1459.08Zm-9.33,2.15a3.18,3.18,0,0,1-3.8-2.4h0a3.2,3.2,0,0,1,2.4-3.81h0a3.17,3.17,0,0,1,3.8,2.4h0a3.17,3.17,0,0,1-1.51,3.46h0A3.18,3.18,0,0,1,194.11,1461.23Zm-9.34,2.08a3.19,3.19,0,0,1-3.79-2.43h0a3.19,3.19,0,0,1,2.43-3.79h0a3.18,3.18,0,0,1,3.79,2.43h0a3.17,3.17,0,0,1-1.52,3.44h0A3.19,3.19,0,0,1,184.77,1463.31Zm-9.36,2a3.17,3.17,0,0,1-3.76-2.45h0a3.17,3.17,0,0,1,2.45-3.77h0a3.18,3.18,0,0,1,3.78,2.45h0a3.19,3.19,0,0,1-1.53,3.42h0A3.2,3.2,0,0,1,175.41,1465.32Zm-9.35,2a3.18,3.18,0,0,1-3.76-2.48h0a3.16,3.16,0,0,1,2.48-3.75h0a3.17,3.17,0,0,1,3.74,2.48h0a3.18,3.18,0,0,1-1.52,3.39h0A3.11,3.11,0,0,1,166.06,1467.27Zm-9.39,1.88a3.17,3.17,0,0,1-3.73-2.51h0a3.18,3.18,0,0,1,2.5-3.73h0a3.18,3.18,0,0,1,3.74,2.5h0a3.18,3.18,0,0,1-1.53,3.37h0A3.11,3.11,0,0,1,156.67,1469.15Zm-9.39,1.82a3.2,3.2,0,0,1-3.73-2.55h0a3.18,3.18,0,0,1,2.54-3.7h0a3.17,3.17,0,0,1,3.72,2.53h0a3.19,3.19,0,0,1-1.54,3.35h0A3.55,3.55,0,0,1,147.28,1471Zm-9.42,1.73a3.17,3.17,0,0,1-3.7-2.56h0a3.19,3.19,0,0,1,2.57-3.7h0a3.19,3.19,0,0,1,3.7,2.57h0a3.18,3.18,0,0,1-1.54,3.32h0A3.25,3.25,0,0,1,137.86,1472.7Zm-9.42,1.67a3.19,3.19,0,0,1-3.68-2.6h0a3.18,3.18,0,0,1,2.59-3.68h0a3.19,3.19,0,0,1,3.68,2.6h0a3.16,3.16,0,0,1-1.54,3.29h0A3.24,3.24,0,0,1,128.44,1474.37ZM119,1476h0a3.16,3.16,0,0,1-3.65-2.62h0a3.17,3.17,0,0,1,2.61-3.65h0a3.17,3.17,0,0,1,3.66,2.62h0a3.18,3.18,0,0,1-1.55,3.28h0A3.21,3.21,0,0,1,119,1476Zm-9.45,1.52a3.2,3.2,0,0,1-3.63-2.66h0a3.18,3.18,0,0,1,2.66-3.63h0a3.18,3.18,0,0,1,3.63,2.66h0a3.21,3.21,0,0,1-1.56,3.24h0A3.07,3.07,0,0,1,109.54,1477.47Zm-9.46,1.42a3.17,3.17,0,0,1-3.61-2.68h0a3.18,3.18,0,0,1,2.68-3.61h0a3.19,3.19,0,0,1,3.61,2.69h0a3.18,3.18,0,0,1-1.55,3.22h0A3.08,3.08,0,0,1,100.08,1478.89Zm-9.48,1.36a3.18,3.18,0,0,1-3.58-2.73h0a3.16,3.16,0,0,1,2.72-3.58h0a3.2,3.2,0,0,1,3.58,2.72h0a3.19,3.19,0,0,1-1.57,3.19h0A3.15,3.15,0,0,1,90.6,1480.25Zm-9.5,1.26a3.19,3.19,0,0,1-3.55-2.76h0a3.17,3.17,0,0,1,2.75-3.56h0a3.19,3.19,0,0,1,3.56,2.76h0a3.18,3.18,0,0,1-1.57,3.15h0A3.18,3.18,0,0,1,81.1,1481.51Zm-9.5,1.16a3.2,3.2,0,0,1-3.54-2.79h0a3.19,3.19,0,0,1,2.79-3.53h0a3.17,3.17,0,0,1,3.53,2.79h0a3.18,3.18,0,0,1-1.56,3.12h0A3.39,3.39,0,0,1,71.6,1482.67Zm-9.53,1.07h0a3.19,3.19,0,0,1-3.5-2.83h0a3.18,3.18,0,0,1,2.83-3.49h0a3.18,3.18,0,0,1,3.51,2.82h0a3.19,3.19,0,0,1-1.59,3.09h0A3,3,0,0,1,62.07,1483.74Zm-9.52,1a3.17,3.17,0,0,1-3.47-2.87h0a3.17,3.17,0,0,1,2.86-3.47h0a3.18,3.18,0,0,1,3.46,2.87h0a3.17,3.17,0,0,1-1.56,3h0A3.17,3.17,0,0,1,52.55,1484.71Zm-9.56.85a3.16,3.16,0,0,1-3.42-2.91h0a3.17,3.17,0,0,1,2.9-3.43h0a3.17,3.17,0,0,1,3.43,2.91h0a3.21,3.21,0,0,1-1.58,3h0A3.24,3.24,0,0,1,43,1485.56Zm-9.55.74a3.18,3.18,0,0,1-3.39-3h0a3.19,3.19,0,0,1,2.94-3.41h0a3.19,3.19,0,0,1,3.4,3h0a3.19,3.19,0,0,1-1.59,3h0A3.28,3.28,0,0,1,33.44,1486.3Z"/><path d="M480.85,1377.53a3.17,3.17,0,0,1-4.2-1.62h0a3.18,3.18,0,0,1,1.62-4.2h0a3.16,3.16,0,0,1,4.2,1.62h0a3.16,3.16,0,0,1-1.31,4h0Zm-8.75,3.86h0a3.19,3.19,0,0,1-4.2-1.63h0a3.19,3.19,0,0,1,1.63-4.19h0a3.19,3.19,0,0,1,4.2,1.63h0a3.19,3.19,0,0,1-1.31,4h0Zm-8.76,3.82h0a3.19,3.19,0,0,1-4.18-1.66h0a3.18,3.18,0,0,1,1.66-4.18h0A3.18,3.18,0,0,1,465,1381h0a3.19,3.19,0,0,1-1.33,4h0A2.55,2.55,0,0,1,463.34,1385.21Zm-8.79,3.76a3.19,3.19,0,0,1-4.18-1.67h0a3.22,3.22,0,0,1,1.69-4.19h0a3.2,3.2,0,0,1,4.18,1.7h0a3.18,3.18,0,0,1-1.34,4h0A2.81,2.81,0,0,1,454.55,1389Zm-8.81,3.72h0a3.19,3.19,0,0,1-4.16-1.71h0a3.17,3.17,0,0,1,1.71-4.16h0a3.18,3.18,0,0,1,4.16,1.7h0a3.19,3.19,0,0,1-1.34,4h0Zm-8.84,3.66a3.18,3.18,0,0,1-4.15-1.74h0a3.18,3.18,0,0,1,1.73-4.15h0a3.19,3.19,0,0,1,4.16,1.74h0a3.19,3.19,0,0,1-1.35,4h0A2.81,2.81,0,0,1,436.9,1396.35ZM428,1400a3.18,3.18,0,0,1-4.14-1.76h0a3.19,3.19,0,0,1,1.77-4.14h0a3.18,3.18,0,0,1,4.14,1.76h0a3.18,3.18,0,0,1-1.35,3.94h0A4.09,4.09,0,0,1,428,1400Zm-8.87,3.55a3.19,3.19,0,0,1-4.13-1.8h0a3.16,3.16,0,0,1,1.78-4.11h0a3.17,3.17,0,0,1,4.13,1.78h0a3.18,3.18,0,0,1-1.36,3.92h0Zm-8.91,3.48a3.18,3.18,0,0,1-4.12-1.81h0a3.17,3.17,0,0,1,1.81-4.11h0a3.19,3.19,0,0,1,4.13,1.81h0a3.19,3.19,0,0,1-1.38,3.91h0A2.19,2.19,0,0,1,410.25,1407Zm-8.92,3.44h0a3.19,3.19,0,0,1-4.12-1.84h0a3.18,3.18,0,0,1,1.85-4.1h0a3.2,3.2,0,0,1,4.11,1.84h0a3.2,3.2,0,0,1-1.38,3.89h0A2.72,2.72,0,0,1,401.33,1410.42Zm-8.95,3.38h0a3.19,3.19,0,0,1-4.1-1.86h0a3.18,3.18,0,0,1,1.87-4.1h0a3.18,3.18,0,0,1,4.09,1.87h0a3.18,3.18,0,0,1-1.39,3.87h0A4,4,0,0,1,392.38,1413.8Zm-9,3.33h0a3.19,3.19,0,0,1-4.09-1.89h0a3.17,3.17,0,0,1,1.9-4.08h0a3.17,3.17,0,0,1,4.08,1.88h0a3.19,3.19,0,0,1-1.4,3.85h0A3.17,3.17,0,0,1,383.41,1417.13Zm-9,3.27a3.18,3.18,0,0,1-4.06-1.91h0a3.18,3.18,0,0,1,1.91-4.08h0a3.2,3.2,0,0,1,4.08,1.92h0a3.17,3.17,0,0,1-1.41,3.82h0A2.78,2.78,0,0,1,374.41,1420.4Zm-9,3.21a3.19,3.19,0,0,1-4.06-1.94h0a3.18,3.18,0,0,1,2-4.06h0a3.18,3.18,0,0,1,4.06,1.94h0a3.19,3.19,0,0,1-1.41,3.81h0A3,3,0,0,1,365.4,1423.61Zm-9,3.15h0a3.18,3.18,0,0,1-4.05-2h0a3.19,3.19,0,0,1,2-4h0a3.19,3.19,0,0,1,4.05,2h0a3.21,3.21,0,0,1-1.42,3.81h0A2.7,2.7,0,0,1,356.38,1426.76Zm-9.05,3.11a3.2,3.2,0,0,1-4-2h0a3.17,3.17,0,0,1,2-4h0a3.18,3.18,0,0,1,4,2h0a3.18,3.18,0,0,1-1.42,3.77h0A5,5,0,0,1,347.33,1429.87Zm-9.07,3a3.18,3.18,0,0,1-4-2h0a3.17,3.17,0,0,1,2-4h0a3.16,3.16,0,0,1,4,2h0a3.18,3.18,0,0,1-1.41,3.76h0A2.66,2.66,0,0,1,338.26,1432.9Zm-9.09,3a3.19,3.19,0,0,1-4-2h0a3.18,3.18,0,0,1,2-4h0a3.17,3.17,0,0,1,4,2h0a3.19,3.19,0,0,1-1.43,3.74h0A3.08,3.08,0,0,1,329.17,1435.89Zm-9.1,2.92a3.18,3.18,0,0,1-4-2.06h0a3.18,3.18,0,0,1,2.07-4h0a3.18,3.18,0,0,1,4,2.06h0a3.17,3.17,0,0,1-1.44,3.72h0A2.67,2.67,0,0,1,320.07,1438.81Zm-9.13,2.87h0a3.17,3.17,0,0,1-4-2.08h0a3.17,3.17,0,0,1,2.09-4h0a3.19,3.19,0,0,1,4,2.09h0a3.2,3.2,0,0,1-1.45,3.7h0A3.11,3.11,0,0,1,310.94,1441.68Zm-9.14,2.82h0a3.18,3.18,0,0,1-4-2.12h0a3.18,3.18,0,0,1,2.12-4h0a3.2,3.2,0,0,1,4,2.13h0a3.18,3.18,0,0,1-1.45,3.68h0A3.66,3.66,0,0,1,301.8,1444.5Zm-9.16,2.75a3.18,3.18,0,0,1-4-2.15h0a3.19,3.19,0,0,1,2.15-4h0a3.19,3.19,0,0,1,3.95,2.16h0a3.19,3.19,0,0,1-1.46,3.65h0A3.19,3.19,0,0,1,292.64,1447.25Zm-9.18,2.69a3.17,3.17,0,0,1-3.94-2.17h0a3.16,3.16,0,0,1,2.17-3.93h0a3.17,3.17,0,0,1,3.94,2.17h0a3.17,3.17,0,0,1-1.47,3.63h0A2.9,2.9,0,0,1,283.46,1449.94Zm-9.2,2.64a3.17,3.17,0,0,1-3.92-2.19h0a3.18,3.18,0,0,1,2.19-3.93h0a3.18,3.18,0,0,1,3.93,2.2h0a3.18,3.18,0,0,1-1.47,3.61h0A3.64,3.64,0,0,1,274.26,1452.58Zm-9.21,2.58a3.2,3.2,0,0,1-3.92-2.22h0a3.2,3.2,0,0,1,2.22-3.92h0a3.19,3.19,0,0,1,3.92,2.22h0a3.2,3.2,0,0,1-1.47,3.61h0A3.29,3.29,0,0,1,265.05,1455.16Zm-9.23,2.51a3.19,3.19,0,0,1-3.9-2.24h0a3.17,3.17,0,0,1,2.24-3.89h0a3.17,3.17,0,0,1,3.91,2.24h0a3.18,3.18,0,0,1-1.48,3.58h0A2.76,2.76,0,0,1,255.82,1457.67Zm-9.24,2.46a3.17,3.17,0,0,1-3.88-2.27h0A3.19,3.19,0,0,1,245,1454h0a3.2,3.2,0,0,1,3.89,2.27h0a3.2,3.2,0,0,1-1.49,3.57h0A3.36,3.36,0,0,1,246.58,1460.13Zm-9.26,2.39a3.18,3.18,0,0,1-3.88-2.29h0a3.19,3.19,0,0,1,2.3-3.87h0a3.17,3.17,0,0,1,3.87,2.29h0a3.19,3.19,0,0,1-1.49,3.55h0A3.11,3.11,0,0,1,237.32,1462.52Zm-9.29,2.34a3.17,3.17,0,0,1-3.84-2.32h0a3.16,3.16,0,0,1,2.32-3.85h0a3.18,3.18,0,0,1,3.85,2.32h0a3.18,3.18,0,0,1-1.5,3.52h0A3.6,3.6,0,0,1,228,1464.86Zm-9.29,2.28a3.2,3.2,0,0,1-3.84-2.35h0a3.2,3.2,0,0,1,2.35-3.85h0a3.18,3.18,0,0,1,3.84,2.35h0a3.19,3.19,0,0,1-1.5,3.51h0A4,4,0,0,1,218.74,1467.14Zm-9.3,2.2a3.17,3.17,0,0,1-3.82-2.38h0a3.18,3.18,0,0,1,2.37-3.82h0a3.18,3.18,0,0,1,3.82,2.38h0a3.19,3.19,0,0,1-1.51,3.48h0A3.09,3.09,0,0,1,209.44,1469.34Zm-9.33,2.15a3.17,3.17,0,0,1-3.8-2.41h0a3.18,3.18,0,0,1,2.4-3.8h0a3.18,3.18,0,0,1,3.8,2.4h0a3.19,3.19,0,0,1-1.51,3.46h0A3.67,3.67,0,0,1,200.11,1471.49Zm-9.34,2.08h0a3.19,3.19,0,0,1-3.79-2.43h0a3.19,3.19,0,0,1,2.42-3.79h0a3.18,3.18,0,0,1,3.8,2.43h0a3.18,3.18,0,0,1-1.52,3.43h0A3.46,3.46,0,0,1,190.77,1473.57Zm-9.35,2a3.19,3.19,0,0,1-3.78-2.46h0a3.2,3.2,0,0,1,2.46-3.77h0a3.19,3.19,0,0,1,3.77,2.45h0a3.17,3.17,0,0,1-1.52,3.42h0A3.27,3.27,0,0,1,181.42,1475.58Zm-9.37,2a3.21,3.21,0,0,1-3.76-2.49h0a3.19,3.19,0,0,1,2.49-3.75h0a3.18,3.18,0,0,1,3.75,2.48h0a3.18,3.18,0,0,1-1.53,3.39h0A3.42,3.42,0,0,1,172.05,1477.53Zm-9.38,1.88h0a3.2,3.2,0,0,1-3.74-2.51h0a3.18,3.18,0,0,1,2.51-3.74h0a3.18,3.18,0,0,1,3.73,2.51h0a3.18,3.18,0,0,1-1.53,3.37h0A3.15,3.15,0,0,1,162.67,1479.41Zm-9.41,1.8a3.18,3.18,0,0,1-3.71-2.53h0a3.18,3.18,0,0,1,2.54-3.72h0a3.19,3.19,0,0,1,3.72,2.54h0a3.2,3.2,0,0,1-1.55,3.34h0A2.79,2.79,0,0,1,153.26,1481.21Zm-9.4,1.73a3.16,3.16,0,0,1-3.7-2.55h0a3.19,3.19,0,0,1,2.57-3.7h0a3.17,3.17,0,0,1,3.7,2.56h0a3.19,3.19,0,0,1-1.55,3.32h0A3,3,0,0,1,143.86,1482.94Zm-9.43,1.67h0a3.17,3.17,0,0,1-3.67-2.59h0a3.18,3.18,0,0,1,2.59-3.68h0a3.18,3.18,0,0,1,3.68,2.6h0a3.2,3.2,0,0,1-1.55,3.29h0A3.38,3.38,0,0,1,134.43,1484.61ZM125,1486.2a3.18,3.18,0,0,1-3.65-2.62h0a3.19,3.19,0,0,1,2.62-3.66h0a3.19,3.19,0,0,1,3.66,2.62h0a3.2,3.2,0,0,1-1.55,3.28h0A3.15,3.15,0,0,1,125,1486.2Zm-9.45,1.51h0a3.19,3.19,0,0,1-3.63-2.66h0a3.19,3.19,0,0,1,2.65-3.64h0a3.19,3.19,0,0,1,3.63,2.66h0a3.19,3.19,0,0,1-1.55,3.25h0A3.14,3.14,0,0,1,115.54,1487.71Zm-9.46,1.42a3.18,3.18,0,0,1-3.62-2.68h0a3.2,3.2,0,0,1,2.69-3.62h0a3.2,3.2,0,0,1,3.61,2.7h0a3.19,3.19,0,0,1-1.56,3.21h0A2.88,2.88,0,0,1,106.08,1489.13Zm-9.49,1.35a3.19,3.19,0,0,1-3.59-2.72h0a3.21,3.21,0,0,1,2.73-3.59h0a3.18,3.18,0,0,1,3.58,2.72h0a3.18,3.18,0,0,1-1.56,3.19h0A3.26,3.26,0,0,1,96.59,1490.48Zm-9.49,1.25h0a3.18,3.18,0,0,1-3.55-2.76h0a3.17,3.17,0,0,1,2.75-3.56h0a3.18,3.18,0,0,1,3.56,2.76h0a3.16,3.16,0,0,1-1.57,3.15h0A3,3,0,0,1,87.1,1491.73Zm-9.51,1.17a3.2,3.2,0,0,1-3.54-2.79h0a3.18,3.18,0,0,1,2.8-3.52h0a3.16,3.16,0,0,1,3.53,2.78h0a3.17,3.17,0,0,1-1.57,3.12h0A3.39,3.39,0,0,1,77.59,1492.9ZM68.07,1494h0a3.19,3.19,0,0,1-3.5-2.83h0a3.19,3.19,0,0,1,2.83-3.51h0a3.18,3.18,0,0,1,3.49,2.83h0a3.17,3.17,0,0,1-1.56,3.1h0A3.4,3.4,0,0,1,68.07,1494Zm-9.54,1a3.2,3.2,0,0,1-3.47-2.87h0a3.2,3.2,0,0,1,2.87-3.47h0a3.17,3.17,0,0,1,3.47,2.87h0a3.19,3.19,0,0,1-1.58,3.06h0A3.26,3.26,0,0,1,58.53,1494.93Zm-9.54.86h0a3.18,3.18,0,0,1-3.43-2.91h0a3.18,3.18,0,0,1,2.92-3.43h0a3.19,3.19,0,0,1,3.43,2.9h0a3.17,3.17,0,0,1-1.59,3h0A3.25,3.25,0,0,1,49,1495.79Z"/><path d="M486.35,1387.16a3.18,3.18,0,0,1-4.2-1.63h0a3.18,3.18,0,0,1,1.62-4.19h0A3.17,3.17,0,0,1,488,1383h0a3.18,3.18,0,0,1-1.3,4h0Zm-8.74,3.85a3.17,3.17,0,0,1-4.19-1.62h0a3.19,3.19,0,0,1,1.62-4.2h0a3.19,3.19,0,0,1,4.2,1.63h0a3.17,3.17,0,0,1-1.32,4h0A1.82,1.82,0,0,1,477.61,1391Zm-8.76,3.83h0a3.18,3.18,0,0,1-4.19-1.65h0a3.19,3.19,0,0,1,1.65-4.19h0a3.19,3.19,0,0,1,4.19,1.65h0a3.19,3.19,0,0,1-1.33,4h0Zm-8.79,3.78a3.19,3.19,0,0,1-4.17-1.69h0a3.17,3.17,0,0,1,1.67-4.17h0a3.19,3.19,0,0,1,4.18,1.68h0a3.17,3.17,0,0,1-1.34,4h0A2.21,2.21,0,0,1,460.06,1398.62Zm-8.82,3.71a3.19,3.19,0,0,1-4.17-1.7h0a3.19,3.19,0,0,1,1.72-4.16h0a3.19,3.19,0,0,1,4.17,1.7h0a3.21,3.21,0,0,1-1.35,4h0Zm-8.83,3.67a3.17,3.17,0,0,1-4.15-1.73h0a3.17,3.17,0,0,1,1.73-4.16h0a3.18,3.18,0,0,1,4.15,1.73h0a3.19,3.19,0,0,1-1.34,4h0Zm-8.86,3.61a3.18,3.18,0,0,1-4.14-1.76h0a3.18,3.18,0,0,1,1.76-4.14h0a3.17,3.17,0,0,1,4.14,1.76h0a3.19,3.19,0,0,1-1.36,4h0Zm-8.88,3.55h0a3.18,3.18,0,0,1-4.13-1.78h0a3.19,3.19,0,0,1,1.79-4.13h0a3.18,3.18,0,0,1,4.13,1.78h0a3.2,3.2,0,0,1-1.37,3.93h0A2,2,0,0,1,424.67,1413.16Zm-8.91,3.5h0a3.18,3.18,0,0,1-4.11-1.82h0a3.17,3.17,0,0,1,1.81-4.11h0a3.18,3.18,0,0,1,4.12,1.81h0a3.18,3.18,0,0,1-1.37,3.91h0A2.67,2.67,0,0,1,415.76,1416.66Zm-8.92,3.44h0a3.18,3.18,0,0,1-4.1-1.85h0a3.17,3.17,0,0,1,1.83-4.1h0a3.18,3.18,0,0,1,4.11,1.84h0a3.18,3.18,0,0,1-1.38,3.88h0A2.8,2.8,0,0,1,406.84,1420.1Zm-8.95,3.39a3.18,3.18,0,0,1-4.08-1.87h0a3.19,3.19,0,0,1,1.85-4.1h0a3.21,3.21,0,0,1,4.11,1.87h0a3.2,3.2,0,0,1-1.39,3.87h0A3.68,3.68,0,0,1,397.89,1423.49Zm-9,3.32a3.16,3.16,0,0,1-4.08-1.89h0a3.18,3.18,0,0,1,1.88-4.08h0a3.18,3.18,0,0,1,4.09,1.89h0a3.17,3.17,0,0,1-1.4,3.86h0A2.71,2.71,0,0,1,388.93,1426.81Zm-9,3.28h0a3.18,3.18,0,0,1-4.07-1.91h0a3.19,3.19,0,0,1,1.91-4.08h0a3.16,3.16,0,0,1,4.06,1.91h0a3.17,3.17,0,0,1-1.39,3.84h0A3.38,3.38,0,0,1,380,1430.09Zm-9,3.21a3.18,3.18,0,0,1-4.06-1.94h0a3.17,3.17,0,0,1,1.93-4h0a3.17,3.17,0,0,1,4.06,1.94h0a3.17,3.17,0,0,1-1.4,3.81h0A2.79,2.79,0,0,1,370.94,1433.3Zm-9,3.16a3.17,3.17,0,0,1-4-2h0a3.19,3.19,0,0,1,2-4h0a3.2,3.2,0,0,1,4.05,2h0a3.22,3.22,0,0,1-1.42,3.81h0A2.78,2.78,0,0,1,361.9,1436.46Zm-9,3.11a3.2,3.2,0,0,1-4-2h0a3.19,3.19,0,0,1,2-4h0a3.18,3.18,0,0,1,4,2h0a3.19,3.19,0,0,1-1.42,3.78h0A3.3,3.3,0,0,1,352.86,1439.57Zm-9.06,3h0a3.18,3.18,0,0,1-4-2h0a3.17,3.17,0,0,1,2-4h0a3.18,3.18,0,0,1,4,2h0a3.19,3.19,0,0,1-1.43,3.76h0A3.4,3.4,0,0,1,343.8,1442.62Zm-9.09,3a3.17,3.17,0,0,1-4-2h0a3.18,3.18,0,0,1,2-4h0a3.18,3.18,0,0,1,4,2h0a3.19,3.19,0,0,1-1.43,3.74h0A2.23,2.23,0,0,1,334.71,1445.6Zm-9.11,2.94h0a3.2,3.2,0,0,1-4-2.07h0a3.17,3.17,0,0,1,2.07-4h0a3.17,3.17,0,0,1,4,2.06h0a3.15,3.15,0,0,1-1.42,3.72h0A2.82,2.82,0,0,1,325.6,1448.54Zm-9.12,2.87a3.17,3.17,0,0,1-4-2.08h0a3.18,3.18,0,0,1,2.08-4h0a3.19,3.19,0,0,1,4,2.09h0a3.18,3.18,0,0,1-1.44,3.7h0A2.9,2.9,0,0,1,316.48,1451.41Zm-9.14,2.82a3.18,3.18,0,0,1-4-2.12h0a3.17,3.17,0,0,1,2.12-4h0a3.16,3.16,0,0,1,4,2.11h0a3.17,3.17,0,0,1-1.45,3.68h0A2.81,2.81,0,0,1,307.34,1454.23Zm-9.16,2.76h0a3.16,3.16,0,0,1-3.95-2.13h0a3.18,3.18,0,0,1,2.14-4h0a3.2,3.2,0,0,1,4,2.15h0a3.2,3.2,0,0,1-1.47,3.66h0A3,3,0,0,1,298.18,1457ZM289,1459.7h0a3.17,3.17,0,0,1-3.95-2.16h0a3.19,3.19,0,0,1,2.16-3.94h0a3.18,3.18,0,0,1,3.95,2.16h0a3.19,3.19,0,0,1-1.46,3.65h0A3,3,0,0,1,289,1459.7Zm-9.19,2.64a3.17,3.17,0,0,1-3.92-2.2h0a3.17,3.17,0,0,1,2.18-3.93h0a3.21,3.21,0,0,1,3.94,2.2h0a3.2,3.2,0,0,1-1.47,3.62h0A4,4,0,0,1,279.81,1462.34Zm-9.21,2.58a3.19,3.19,0,0,1-3.92-2.22h0a3.2,3.2,0,0,1,2.23-3.92h0a3.19,3.19,0,0,1,3.91,2.23h0a3.19,3.19,0,0,1-1.47,3.6h0A3,3,0,0,1,270.6,1464.92Zm-9.22,2.52h0a3.18,3.18,0,0,1-3.91-2.24h0a3.18,3.18,0,0,1,2.25-3.9h0a3.19,3.19,0,0,1,3.9,2.24h0a3.2,3.2,0,0,1-1.48,3.59h0A3.57,3.57,0,0,1,261.38,1467.44Zm-9.25,2.46h0a3.18,3.18,0,0,1-3.89-2.26h0a3.19,3.19,0,0,1,2.27-3.89h0a3.18,3.18,0,0,1,3.89,2.27h0a3.18,3.18,0,0,1-1.49,3.56h0A2.84,2.84,0,0,1,252.13,1469.9Zm-9.26,2.41A3.19,3.19,0,0,1,239,1470h0a3.18,3.18,0,0,1,2.29-3.88h0a3.18,3.18,0,0,1,3.87,2.3h0a3.18,3.18,0,0,1-1.49,3.54h0A3.29,3.29,0,0,1,242.87,1472.31Zm-9.28,2.33h0a3.17,3.17,0,0,1-3.85-2.33h0a3.18,3.18,0,0,1,2.32-3.85h0a3.2,3.2,0,0,1,3.86,2.32h0a3.19,3.19,0,0,1-1.51,3.53h0A3.11,3.11,0,0,1,233.59,1474.64Zm-9.29,2.28h0a3.18,3.18,0,0,1-3.84-2.35h0a3.18,3.18,0,0,1,2.35-3.84h0a3.18,3.18,0,0,1,3.84,2.34h0a3.2,3.2,0,0,1-1.5,3.51h0A2.84,2.84,0,0,1,224.3,1476.92Zm-9.3,2.22a3.19,3.19,0,0,1-3.83-2.37h0a3.17,3.17,0,0,1,2.37-3.82h0a3.19,3.19,0,0,1,3.83,2.36h0a3.16,3.16,0,0,1-1.51,3.48h0A3.11,3.11,0,0,1,215,1479.14Zm-9.33,2.16a3.2,3.2,0,0,1-3.81-2.41h0a3.19,3.19,0,0,1,2.4-3.81h0a3.18,3.18,0,0,1,3.8,2.4h0a3.17,3.17,0,0,1-1.51,3.45h0A3.32,3.32,0,0,1,205.67,1481.3Zm-9.34,2.08a3.17,3.17,0,0,1-3.78-2.43h0a3.19,3.19,0,0,1,2.42-3.79h0a3.18,3.18,0,0,1,3.79,2.43h0a3.2,3.2,0,0,1-1.52,3.44h0A3,3,0,0,1,196.33,1483.38Zm-9.35,2a3.17,3.17,0,0,1-3.77-2.45h0a3.19,3.19,0,0,1,2.45-3.78h0a3.19,3.19,0,0,1,3.77,2.45h0a3.18,3.18,0,0,1-1.51,3.42h0A3.06,3.06,0,0,1,187,1485.4Zm-9.36,1.95h0a3.18,3.18,0,0,1-3.76-2.48h0a3.19,3.19,0,0,1,2.48-3.76h0a3.18,3.18,0,0,1,3.75,2.48h0a3.15,3.15,0,0,1-1.52,3.39h0A3.4,3.4,0,0,1,177.62,1487.35Zm-9.39,1.88h0a3.2,3.2,0,0,1-3.75-2.51h0A3.18,3.18,0,0,1,167,1483h0a3.17,3.17,0,0,1,3.73,2.5h0a3.2,3.2,0,0,1-1.53,3.38h0A2.94,2.94,0,0,1,168.23,1489.23Zm-9.39,1.83a3.19,3.19,0,0,1-3.72-2.54h0a3.19,3.19,0,0,1,2.53-3.72h0a3.18,3.18,0,0,1,3.72,2.54h0a3.18,3.18,0,0,1-1.53,3.35h0A3.74,3.74,0,0,1,158.84,1491.06Zm-9.42,1.74a3.17,3.17,0,0,1-3.69-2.56h0a3.19,3.19,0,0,1,2.57-3.7h0a3.17,3.17,0,0,1,3.69,2.56h0a3.18,3.18,0,0,1-1.55,3.33h0A3.26,3.26,0,0,1,149.42,1492.8Zm-9.42,1.66h0a3.19,3.19,0,0,1-3.69-2.6h0a3.19,3.19,0,0,1,2.6-3.67h0a3.17,3.17,0,0,1,3.67,2.59h0a3.16,3.16,0,0,1-1.53,3.3h0A3.26,3.26,0,0,1,140,1494.46Zm-9.43,1.61h0a3.18,3.18,0,0,1-3.65-2.62h0a3.19,3.19,0,0,1,2.62-3.66h0a3.2,3.2,0,0,1,3.66,2.63h0a3.19,3.19,0,0,1-1.55,3.27h0A3.42,3.42,0,0,1,130.57,1496.07Zm-9.45,1.51a3.18,3.18,0,0,1-3.64-2.65h0a3.18,3.18,0,0,1,2.65-3.64h0a3.2,3.2,0,0,1,3.64,2.65h0a3.18,3.18,0,0,1-1.56,3.25h0A3.16,3.16,0,0,1,121.12,1497.58Zm-9.47,1.44a3.19,3.19,0,0,1-3.61-2.69h0a3.17,3.17,0,0,1,2.68-3.61h0a3.18,3.18,0,0,1,3.61,2.69h0a3.18,3.18,0,0,1-1.56,3.22h0A3.46,3.46,0,0,1,111.65,1499Zm-9.48,1.34a3.17,3.17,0,0,1-3.59-2.7h0a3.18,3.18,0,0,1,2.72-3.59h0a3.18,3.18,0,0,1,3.59,2.72h0a3.2,3.2,0,0,1-1.57,3.19h0A3,3,0,0,1,102.17,1500.36Zm-9.5,1.27h0a3.17,3.17,0,0,1-3.55-2.74h0a3.17,3.17,0,0,1,2.75-3.57h0a3.2,3.2,0,0,1,3.56,2.75h0a3.19,3.19,0,0,1-1.57,3.16h0A3,3,0,0,1,92.67,1501.63Zm-9.5,1.18h0a3.18,3.18,0,0,1-3.54-2.78h0a3.2,3.2,0,0,1,2.79-3.55h0a3.18,3.18,0,0,1,3.53,2.79h0a3.19,3.19,0,0,1-1.57,3.12h0A3.32,3.32,0,0,1,83.17,1502.81Zm-9.51,1.07h0a3.18,3.18,0,0,1-3.51-2.82h0a3.17,3.17,0,0,1,2.82-3.5h0a3.17,3.17,0,0,1,3.5,2.82h0a3.16,3.16,0,0,1-1.57,3.1h0A3.12,3.12,0,0,1,73.66,1503.88Zm-9.54,1a3.18,3.18,0,0,1-3.47-2.86h0a3.19,3.19,0,0,1,2.86-3.48h0a3.19,3.19,0,0,1,3.47,2.86h0a3.19,3.19,0,0,1-1.58,3.07h0A3.21,3.21,0,0,1,64.12,1504.86Z"/><path class="cls-6" d="M860,337.18c13.64-6.36,27.28-12.06,40.86-17.84s27.09-11.45,40.46-17.41c3.36-1.44,6.68-3,10-4.48s6.64-3,9.94-4.61,6.57-3.17,9.88-4.71,6.54-3.23,9.78-4.91A382.46,382.46,0,0,0,1019.13,261a109,109,0,0,1-15.22,16.77,165,165,0,0,1-17.86,14,218.32,218.32,0,0,1-19.33,11.8c-3.3,1.83-6.67,3.49-10,5.2s-6.79,3.24-10.23,4.76a317.1,317.1,0,0,1-42.32,15.18c-7.22,2-14.5,3.78-21.85,5.24A189.12,189.12,0,0,1,860,337.18Z"/><g class="cls-12"><path d="M1169.67,722.5s-9.6-34.27,20.84-63.35,66-63.79,71.08-98.21,19.29,18,19.77,34.25,7.9,60.48-33.8,82.34S1175.17,748.31,1169.67,722.5Z"/></g><g class="cls-5"><path d="M1419.42,736.84s-68,23.49-220.54,127.33S702.41,1200,702.41,1200s367.16-189,518.83-294.41S1419.42,736.84,1419.42,736.84Z"/></g><g class="cls-11"><path d="M472,1216.73s-43.25,3.53-96.15,30.52-177.67,93.14-218.3,110.69,183.55-58.39,228.66-80.48S472,1216.73,472,1216.73Z"/></g><path class="cls-6" d="M565.41,277.39s94.9-5.2,115.09,10.7C680.5,288.09,624,300.24,565.41,277.39Z"/><path d="M927.51,1165.2q-65.71,37.93-140.19,79c-202.59,111.42-373.07,190.46-506.71,234.91C154.28,1521.11,96.29,1520.27,73,1516c-38.23-7-62.91-38.64-70.41-67-4.8-18.09-2.76-34,5.35-43.67-1.75-8.94-5.29-31.2-2.79-55.61,4.3-42.08,24.49-70.15,58.41-81.28,8.36-6.4,69.08-53.54,144.83-130,74.87-75.56,180.16-196,256.6-340.79,47.66-90.27,75.87-162.87,83.85-215.76,6.71-44.47-3-63.54-9.32-70.95a76.22,76.22,0,0,1-17.9-38.83c-6.89-48.71-16.74-140.77-5.38-210.82.35-6.09,3.37-16.42,18.87-21.14,8.39-2.54,18.14-2.79,24.6-3,2,0,3.67-.09,4.82-.18a6.26,6.26,0,0,1,.75,0c2.16,0,53,1.13,75.16,2.44l4,.2c21.66,1.06,66.74,3.24,101.12,40a130,130,0,0,1,21,30.33c136.71-28.84,188.76-64.36,215.36-82.52,3.2-2.18,6-4.06,8.51-5.69,9.83-6.28,18.81-7.76,26.7-4.4,8.47,3.6,12.84,11.74,14.92,17.28,6.9,1.52,18.28,6.8,32.72,23.59,16.94,19.71,67.28,70,82.4,85.07l0,0a7.4,7.4,0,0,1,10,1.57c.08.09,7.24,9.24,12.13,14.33a24.81,24.81,0,0,0,2.28,2.18c9.59,4.74,27.21,15.61,43.47,37.13a18,18,0,0,1,7.31-1.67A16,16,0,0,1,1234,402l.24.24c7.1,7.29,22.94,23.51,32.61,41.15a13.81,13.81,0,0,1,2.48.47c2.7.78,6.5,2.84,9.31,8.2.82,1.43,7,10.17,13.6,19.43,48,67.61,92.94,133.31,101.78,162.19a26,26,0,0,1,11,3.32c8.77,4.93,15.06,14.67,18.71,28.95l64,92.14c7,8,11.69,24.49-3.07,38.61-6.17,5.91-62.67,53.09-182,134.52C1221.69,986.44,1096.42,1067.67,927.51,1165.2ZM55.07,1288.43C2.73,1318.66,23,1405.07,23.22,1406a7.42,7.42,0,0,1-2.44,7.44c-6.11,5.13-7.63,17.63-3.87,31.83,6.3,23.77,26.9,50.35,58.72,56.14,17.65,3.21,72.5,6.09,200.29-36.42,132.79-44.17,302.44-122.84,504.24-233.83,240.67-132.36,412.44-242.85,514.15-312.23,117-79.83,174.45-127.53,180.15-133,4.32-4.13,5.89-8.26,4.81-12.65a15.44,15.44,0,0,0-2.8-5.63,7.73,7.73,0,0,1-.62-.77l-65.07-93.62a7.49,7.49,0,0,1-1.13-2.51c-2.51-10.51-6.53-17.67-11.63-20.69a10.75,10.75,0,0,0-7.67-1.44,7.13,7.13,0,0,1-6.38-.79,7.36,7.36,0,0,1-3.23-5.79c-.37-5.23-5.91-21.6-39-72.4-21.36-32.85-46.58-68.37-61.65-89.59-10.13-14.27-13.68-19.3-14.65-21.15-.09-.17-.17-.32-.25-.44a7.11,7.11,0,0,1-4.78.21,7.29,7.29,0,0,1-4.52-4.07c-8.11-17.23-25.7-35.24-32.32-42l-.23-.23c-.59-.6-.85-.6-.94-.6-1.07,0-3,1.27-3.93,2.19a7.34,7.34,0,0,1-6,2.24,7.42,7.42,0,0,1-5.49-3.25c-15.51-22.84-33.08-33.76-42.18-38.24l-.17-.08a23.84,23.84,0,0,1-6.13-5.07c-2.82-2.93-6.17-6.89-8.78-10.07a7.43,7.43,0,0,1-8.8-1.23c-2.73-2.71-67.23-66.62-87.55-90.25-15.11-17.56-24.52-18.87-26.07-19a6.47,6.47,0,0,1-5.3-.89c-1.8-1.08-2.61-3-3-5-.52-2.47-3.1-10-7.82-12-3.87-1.62-9.14.87-12.87,3.26-2.36,1.51-5,3.33-8.13,5.45-31,21.12-95.36,65.08-279.25,95.78l-.13,0c-60.37,9-89.81,19.75-101.6,37.18-10.83,16-8,40.12.65,76.39.82,3.5,2.6,10.68,2.86,11.71l2.79,9.81a7.42,7.42,0,1,1-14.27,4.07l-2.83-9.93a1.82,1.82,0,0,1-.07-.25c-.08-.33-2-8.16-2.93-12-9.56-40.28-12.38-67.62,1.5-88.14,14.58-21.53,45.89-33.74,111.64-43.52q22.59-3.76,42.77-7.78a113.65,113.65,0,0,0-16.69-23.29c-30.28-32.36-71.29-34.35-91-35.31l-4.14-.21c-20.93-1.24-69.58-2.31-74.24-2.41-1.48.1-3.24.15-5.24.2-14.91.38-28.74,1.88-29,10.29a7.47,7.47,0,0,1-.09.94c-11.15,68.15-1.43,158.79,5.36,206.75a61.43,61.43,0,0,0,14.46,31.25c9.79,11.4,20,35,12.74,82.84-8.23,54.54-37,128.72-85.4,220.47-77.34,146.49-183.75,268.21-259.39,344.51-81.95,82.68-146.59,131.46-147.23,132a7.85,7.85,0,0,1-2.25,1.15A69.9,69.9,0,0,0,55.07,1288.43Z"/><path class="cls-13" d="M521.46,838.38a12.52,12.52,0,0,1-8,1.55c-20.77-2.93-54.18-5.88-63.43-3.24a12.55,12.55,0,1,1-6.9-24.13c17.67-5.06,64.62,1.21,73.85,2.52a12.55,12.55,0,0,1,4.51,23.3Z"/><path d="M524.11,843a17.87,17.87,0,0,1-11.43,2.21c-23.61-3.34-53.85-5.5-61.22-3.39a17.85,17.85,0,1,1-9.81-34.33c18.23-5.22,62.81.49,76,2.37A17.85,17.85,0,0,1,524.11,843Zm-81.2-24.62a7.25,7.25,0,0,0,5.64,13.24c11.88-3.4,51.4,1.08,65.62,3.09a7.25,7.25,0,1,0,2-14.35c-25-3.54-58.74-6.37-71.65-2.68A7.51,7.51,0,0,0,442.91,818.35Z"/><path class="cls-13" d="M565.33,762.39a12.49,12.49,0,0,1-8.68,1.44c-16.43-3.2-47.48-6.37-60.87-1.27a12.55,12.55,0,1,1-8.95-23.45c24.45-9.33,69.57-.91,74.64.09a12.55,12.55,0,0,1,3.86,23.19Z"/><path d="M568,767A17.86,17.86,0,0,1,555.63,769c-17-3.32-46.26-6-58-1.52A17.86,17.86,0,1,1,485,734.15c25.84-9.85,72.32-1.18,77.54-.16A17.86,17.86,0,0,1,568,767Zm-80.32-22.41a7.14,7.14,0,0,0-3,3.29,7.25,7.25,0,0,0,9.2,9.75c16.24-6.19,51.54-1.36,63.77,1a7.24,7.24,0,0,0,8.51-5.72,7.25,7.25,0,0,0-5.72-8.51c-17.82-3.49-53-7.49-71.73-.34A6.89,6.89,0,0,0,487.66,744.57Z"/><path class="cls-13" d="M615.53,663.71a12.48,12.48,0,0,1-11.08.73c-1.46-.59-32.7-12.81-59.69,9.64a12.55,12.55,0,1,1-16-19.3c39-32.44,83.52-14.29,85.4-13.51a12.55,12.55,0,0,1,1.42,22.44Z"/><path d="M618.18,668.31a17.72,17.72,0,0,1-15.76,1c-1.17-.47-29.64-11.66-54.27,8.82a17.86,17.86,0,0,1-22.84-27.46c41.45-34.46,88.85-15.16,90.85-14.32a17.86,17.86,0,0,1,2,31.93Zm-67.75-4.64c27-15.57,54.71-4.66,56-4.14a7.2,7.2,0,0,0,6.44-.41,7.08,7.08,0,0,0,3-3.47,7.24,7.24,0,0,0-3.87-9.49c-1.76-.74-43.41-17.7-80,12.7A7.25,7.25,0,1,0,541.38,670,65.19,65.19,0,0,1,550.43,663.67Z"/><polygon class="cls-8" points="487.98 838.37 487.98 838.37 487.98 838.37 487.98 838.37"/><path class="cls-8" d="M674.52,579.47s11.1,31-27.24,43.72-90,38.86-96.41,90.83S530.38,814.81,488,838.37c28.07-2.77,36.09,32.38,51.58,76.6,2,5.59,6.24,12.43,12.25,20.13h0c60-52.34,66.36-101.45,74.94-139.32s10.83-73,90-109.7c64.37-28.49,63.23-78.75,58.43-102.63C738.23,583.06,700.49,582.21,674.52,579.47Z"/><g class="cls-9"><path class="cls-6" d="M603.31,780.56s3.76,34.27-24.6,67C578.71,847.56,573.41,811.2,603.31,780.56Z"/></g><g class="cls-9"><path class="cls-6" d="M614.25,672.47s-7.5,23.5-37.74,37.09C576.51,709.56,583.51,684.27,614.25,672.47Z"/></g><path d="M674.52,579.47a33.35,33.35,0,0,1,1,21.55,30.76,30.76,0,0,1-5.14,10,39.89,39.89,0,0,1-8.15,7.9,53.94,53.94,0,0,1-9.78,5.59c-.84.42-1.72.73-2.58,1.09s-1.75.7-2.55,1c-1.66.62-3.3,1.26-4.94,1.92q-9.82,3.9-19.27,8.56c-12.54,6.23-24.51,13.5-35,22.4-2.62,2.21-5.11,4.55-7.53,6.94a98.71,98.71,0,0,0-6.77,7.59A82.37,82.37,0,0,0,563,691a78.1,78.1,0,0,0-6.24,19l-.81,5-.74,5.36c-.53,3.57-1.06,7.15-1.7,10.71a245.22,245.22,0,0,1-10.88,42.16c-5,13.69-11.73,26.95-20.87,38.41a100.64,100.64,0,0,1-15.42,15.46c-1.45,1.09-2.86,2.24-4.37,3.24l-2.22,1.55-2.3,1.44a91.22,91.22,0,0,1-9.5,5.07c1.45-1,2.95-2,4.38-3.09s2.85-2.12,4.19-3.29l2.06-1.68,2-1.77c1.34-1.16,2.56-2.44,3.83-3.66a105.08,105.08,0,0,0,13.17-16.34,146.26,146.26,0,0,0,17.17-38,284.59,284.59,0,0,0,8.86-41.12c.5-3.48,1-7,1.44-10.48l.63-5.26c.25-1.83.52-3.74.81-5.6a86.94,86.94,0,0,1,7-21.65c6.55-13.76,16.71-25.4,28.26-34.66a161.81,161.81,0,0,1,37.9-22.21c6.7-2.84,13.5-5.38,20.41-7.55,1.72-.55,3.45-1.07,5.19-1.58.88-.26,1.69-.52,2.5-.77s1.64-.48,2.43-.79a50.21,50.21,0,0,0,9.2-4.24,35.08,35.08,0,0,0,7.87-6.2,29.56,29.56,0,0,0,5.53-8.41,31.41,31.41,0,0,0,2.45-10A35.12,35.12,0,0,0,674.52,579.47Z"/><g class="cls-7"><path d="M1006.82,651.17S1006.91,557,813.47,571s-196.38-45-196.38-45,.28,67.18,95,72.92S968.76,580.08,1006.82,651.17Z"/></g><path class="cls-8" d="M1213.2,408.76s-33.6,47.51-76.43,100.94C1103.22,551.55,1064,597,1030.88,626.14h0a223.87,223.87,0,0,1-25.78,19.91c-32.71-66.31-82.35-59.35-132-61.38-43.58-1.79-139.68.22-193.51-4.69-7.43-.68-14-1.49-19.62-2.46-42.72-7.44-50.77-82.13-53.81-109.39-.23-2.07-.43-3.85-.62-5.32-2.62-20.92-9.07-44.36,35-58,6-1.85,17.14-3.73,32.15-5.61,96-12,348.78-24,393.58-26,51.81-2.31,79.91-20.23,79.91-20.23l5.09-3.46s13,16.63,16.67,18.45c.72.34,2.13,1,4.07,2.11C1180.19,374.57,1197.71,386,1213.2,408.76Z"/><g class="cls-11"><path d="M1213.2,408.76s-33.6,47.51-76.43,100.94C1103.22,551.55,1064,597,1030.88,626.14c201.8-226,147.26-224.68,133.22-234.69s-92.87,15.06-157.23,16.07S719.44,431.71,672.65,434s-35,37.45-29.08,78.47c4.33,29.77,25,55.58,36.06,67.48-7.43-.68-14-1.49-19.62-2.46-46-8-51.79-93.8-54.43-114.71s-9.07-44.36,35-58,373.92-29.32,425.73-31.61S1146.23,353,1146.23,353l5.09-3.46s13,16.63,16.67,18.45S1194,380.49,1213.2,408.76Z"/></g><g class="cls-9"><path class="cls-6" d="M689.51,425.92c4.78-2.09,9.59-3.8,14.41-5.39s9.65-3,14.48-4.35q14.52-3.93,29.11-6.65a497,497,0,0,1,58.6-7.36,490.78,490.78,0,0,1,59.06-.56q14.82.76,29.73,2.72,7.46,1,14.93,2.39c5,.94,10,2,15,3.44-4.79,2.11-9.6,3.82-14.41,5.41s-9.65,3.05-14.49,4.37c-9.67,2.63-19.37,4.83-29.1,6.66a492.57,492.57,0,0,1-58.61,7.31,497.07,497.07,0,0,1-59.06.52c-9.88-.52-19.79-1.4-29.73-2.71-5-.67-9.94-1.45-14.93-2.39S694.53,427.35,689.51,425.92Z"/></g><path d="M542.18,920.16a3.71,3.71,0,0,1-4.32-6c4-3.55,7.79-7.19,11.33-10.8a3.71,3.71,0,0,1,5.3,5.2c-3.66,3.73-7.59,7.47-11.69,11.14A3.92,3.92,0,0,1,542.18,920.16Zm22.21-22.73a3.71,3.71,0,0,1-4.69-5.6c3.39-4,6.59-8.18,9.51-12.33a3.71,3.71,0,1,1,6.07,4.27c-3,4.33-6.38,8.65-9.9,12.84A3.67,3.67,0,0,1,564.39,897.43Zm18.26-26a3.71,3.71,0,0,1-5.09-5.05c2.56-4.47,4.93-9.13,7.06-13.85a3.71,3.71,0,0,1,6.77,3.05c-2.22,4.94-4.71,9.81-7.38,14.48A3.72,3.72,0,0,1,582.65,871.44Zm13.07-28.93a3.72,3.72,0,0,1-5.37-4.43c1.63-4.7,3.11-9.59,4.55-15a3.71,3.71,0,1,1,7.17,1.92c-1.48,5.54-3,10.6-4.7,15.47A3.78,3.78,0,0,1,595.72,842.51Zm8.36-30.67a3.76,3.76,0,0,1-2.67.4,3.7,3.7,0,0,1-2.81-4.43c.59-2.66,1.16-5.3,1.73-7.91s1.11-5.13,1.66-7.63a3.71,3.71,0,0,1,7.25,1.62q-.82,3.72-1.66,7.58c-.57,2.63-1.14,5.28-1.74,8A3.74,3.74,0,0,1,604.08,811.84Zm6.8-31.08a3.71,3.71,0,0,1-5.48-4c1-4.28,2.25-9.92,3.89-15.65a3.71,3.71,0,0,1,7.14,2c-1.59,5.54-2.86,11-3.78,15.22A3.71,3.71,0,0,1,610.88,780.76Zm9-30.46a3.71,3.71,0,0,1-5.29-4.63A116,116,0,0,1,621.89,731a3.71,3.71,0,1,1,6.4,3.75,110.22,110.22,0,0,0-6.82,13.77A3.66,3.66,0,0,1,619.9,750.3Zm16-27.33a3.71,3.71,0,0,1-4.76-5.52,132.29,132.29,0,0,1,10.93-12.15,3.72,3.72,0,0,1,5.21,5.3A124.18,124.18,0,0,0,637,722.05,3.71,3.71,0,0,1,635.92,723Zm22.53-22.32a3.71,3.71,0,0,1-4.16-6.12c4.05-3.23,8.45-6.45,13.08-9.55a3.71,3.71,0,1,1,4.13,6.16c-4.46,3-8.69,6.09-12.58,9.19A4.87,4.87,0,0,1,658.45,700.65ZM721.66,664c-2.76,1.59-5.72,3.13-8.78,4.58a3.71,3.71,0,0,1-3.18-6.71,106.32,106.32,0,0,0,13.41-7.5,3.71,3.71,0,0,1,4.1,6.19C725.43,661.78,723.57,662.93,721.66,664ZM698.8,675.33l-.18.1c-4.82,2.44-9.47,5-13.82,7.46a3.71,3.71,0,1,1-3.71-6.43h0c4.47-2.58,9.24-5.15,14.17-7.65a3.71,3.71,0,0,1,3.54,6.52Zm40.58-24.57a3.71,3.71,0,0,1-4.46-5.85,60.57,60.57,0,0,0,9.31-11.7,3.71,3.71,0,1,1,6.35,3.84,68.12,68.12,0,0,1-10.44,13.14A3.43,3.43,0,0,1,739.38,650.76Zm16.16-27a3.7,3.7,0,0,1-5.43-4.2,58.23,58.23,0,0,0,1.54-7.43,65.8,65.8,0,0,0,.59-7.37,3.72,3.72,0,0,1,7.43.18,73.87,73.87,0,0,1-.67,8.22,64.17,64.17,0,0,1-1.74,8.38A3.66,3.66,0,0,1,755.54,623.79Zm1-31.53a3.61,3.61,0,0,1-1.19.44,3.71,3.71,0,0,1-4.31-3c-.35-1.9-.77-3.79-1.25-5.61a3.71,3.71,0,0,1,7.18-1.89c.52,2,1,4.07,1.37,6.17A3.72,3.72,0,0,1,756.53,592.26Z"/><path d="M523.79,842.83a3.71,3.71,0,0,1-4.4-5.91,117.3,117.3,0,0,0,10.47-11.3,3.71,3.71,0,1,1,5.76,4.68,126,126,0,0,1-11.13,12A3.43,3.43,0,0,1,523.79,842.83Zm20.06-24.57a3.71,3.71,0,0,1-5-5.19,148.66,148.66,0,0,0,7.53-13.55,3.71,3.71,0,0,1,6.67,3.27A156.15,156.15,0,0,1,545.13,817,3.78,3.78,0,0,1,543.85,818.26Zm14-28.48a3.71,3.71,0,0,1-5.32-4.54c1.79-4.69,3.48-9.67,5-14.8a3.71,3.71,0,0,1,7.12,2.12c-1.58,5.31-3.33,10.47-5.19,15.33A3.71,3.71,0,0,1,557.9,789.78ZM567,759.34a3.71,3.71,0,0,1-5.47-4.05c1.13-4.89,2.19-10.07,3.14-15.4A3.71,3.71,0,0,1,572,741.2C571,746.64,570,752,568.8,757A3.72,3.72,0,0,1,567,759.34ZM572.7,728a3.66,3.66,0,0,1-2.36.46,3.72,3.72,0,0,1-3.17-4.19c.38-2.74.73-5.46,1.07-8.15a64,64,0,0,1,1.49-7.95,3.71,3.71,0,1,1,7.19,1.83,56.6,56.6,0,0,0-1.32,7q-.5,4.08-1.08,8.27A3.69,3.69,0,0,1,572.7,728Zm8.39-30.42a3.71,3.71,0,0,1-5.1-5,76.55,76.55,0,0,1,9.74-13.54,3.71,3.71,0,0,1,5.54,5,68.51,68.51,0,0,0-8.8,12.22A3.71,3.71,0,0,1,581.09,697.62Zm89.72-57.73-.07,0A82.22,82.22,0,0,1,658,645.84a3.71,3.71,0,0,1-2.56-7,76.36,76.36,0,0,0,11.64-5.41c.67-.39,1.32-.78,1.95-1.18a3.71,3.71,0,1,1,4,6.29C672.28,639,671.56,639.46,670.81,639.89Zm14.32-11.3a3.71,3.71,0,0,1-4.57-5.74,48.48,48.48,0,0,0,8.05-11.67l.23-.48a3.72,3.72,0,1,1,6.72,3.17l-.28.57A55.79,55.79,0,0,1,686,627.9,3.58,3.58,0,0,1,685.13,628.59Zm-41.52,22.34a4,4,0,0,1-.51.24c-5,2-9.82,4.05-14.33,6.22a3.71,3.71,0,0,1-3.22-6.69c4.67-2.25,9.67-4.42,14.85-6.44a3.71,3.71,0,0,1,3.21,6.67Zm-41.66,23a3.71,3.71,0,0,1-4.16-6.12,127.67,127.67,0,0,1,13.45-9.33,3.71,3.71,0,1,1,3.85,6.34,124.82,124.82,0,0,0-12.68,8.79A3.46,3.46,0,0,1,602,673.88Zm96.59-73.58a3.62,3.62,0,0,1-2.35.46,3.71,3.71,0,0,1-3.18-4.17,53,53,0,0,0-.11-14.83,3.71,3.71,0,0,1,7.35-1.07,60.59,60.59,0,0,1,.12,16.9A3.7,3.7,0,0,1,698.54,600.3Z"/><path d="M1024,636l-.14.08a3.71,3.71,0,0,1-5-1.57c-1.12-2.16-2.29-4.28-3.46-6.31-1.41-2.44-2.88-4.84-4.37-7.12a3.71,3.71,0,0,1,6.22-4.05c1.56,2.39,3.1,4.9,4.58,7.46,1.22,2.12,2.44,4.33,3.61,6.58A3.71,3.71,0,0,1,1024,636Zm-17.43-26.53a3.71,3.71,0,0,1-4.71-.84,112.7,112.7,0,0,0-10.6-11.16,3.71,3.71,0,1,1,5-5.47,120.57,120.57,0,0,1,11.3,11.88,3.7,3.7,0,0,1-.48,5.22A4.49,4.49,0,0,1,1006.56,609.46Zm-23.42-21.37a3.7,3.7,0,0,1-3.93-.13,102.13,102.13,0,0,0-13.32-7.58,3.71,3.71,0,1,1,3.17-6.71,108.7,108.7,0,0,1,14.3,8.13,3.71,3.71,0,0,1-.22,6.29Zm-28.63-13.6a3.71,3.71,0,0,1-3,.33,129.71,129.71,0,0,0-15-3.66,3.71,3.71,0,1,1,1.35-7.3,135.71,135.71,0,0,1,15.86,3.87,3.71,3.71,0,0,1,.76,6.76Zm-31.2-5.91a3.73,3.73,0,0,1-2.2.48c-4.69-.44-9.81-.77-15.67-1a3.71,3.71,0,0,1,.3-7.42c6,.24,11.24.57,16.07,1a3.71,3.71,0,0,1,1.5,6.91Zm-33.7-1c-5.22-.11-10.57-.23-15.75-.44h-.23a3.71,3.71,0,0,1,.31-7.42h.24c5.09.21,10.4.32,15.54.43Zm-29.87-1.4a3.82,3.82,0,0,1-1.93.49c-5-.1-10.27-.18-15.87-.25a3.71,3.71,0,0,1,.08-7.42c5.63.07,11,.15,15.94.25a3.71,3.71,0,0,1,1.78,6.93Zm-31.82-.4a3.72,3.72,0,0,1-1.88.5l-15.9-.11a3.71,3.71,0,1,1,.05-7.42l15.91.1a3.71,3.71,0,0,1,1.82,6.93Zm330-190.81c-1.34.77-2.85,1.58-4.48,2.42a3.71,3.71,0,1,1-3.38-6.61c1.9-1,3.31-1.76,4.15-2.24s1.29-.77,1.42-.86l7.49-5.11a3.71,3.71,0,0,1,4.19,6.13l-7.58,5.17C1159.47,374.08,1158.89,374.45,1157.91,375ZM1139,383.75a3.26,3.26,0,0,1-.53.26c-4.91,1.88-10.08,3.61-15.38,5.14a3.71,3.71,0,1,1-2.07-7.12c5.1-1.48,10.08-3.15,14.8-4.95a3.71,3.71,0,0,1,3.18,6.67Zm-30.51,8.91a3.68,3.68,0,0,1-1.09.42c-5.19,1.1-10.54,2-15.92,2.8a3.72,3.72,0,0,1-1-7.36c5.2-.73,10.39-1.64,15.41-2.7a3.71,3.71,0,0,1,2.63,6.84Zm-312.43,173a3.71,3.71,0,0,1-1.88.49L778.3,566a3.72,3.72,0,1,1,.07-7.43c5.35.06,10.67.1,15.91.14a3.71,3.71,0,0,1,1.82,6.93Zm280.95-168.5a3.8,3.8,0,0,1-1.58.49c-2.66.2-5.37.36-8,.48l-8,.35a3.71,3.71,0,1,1-.34-7.41l8-.36c2.6-.11,5.23-.27,7.81-.47a3.72,3.72,0,0,1,2.14,6.92ZM764.26,565.3a3.71,3.71,0,0,1-1.9.49q-8-.1-15.94-.27a3.71,3.71,0,0,1,.15-7.42c5.26.11,10.57.19,15.89.27a3.71,3.71,0,0,1,1.8,6.93Zm281-166.62a3.57,3.57,0,0,1-1.68.49l-15.91.76a3.71,3.71,0,0,1-.35-7.42l15.91-.75a3.71,3.71,0,0,1,2,6.92Zm-312.8,166a3.74,3.74,0,0,1-2,.49c-5.59-.16-11-.34-16-.54a3.71,3.71,0,1,1,.3-7.42c5,.2,10.3.38,15.86.54a3.71,3.71,0,0,1,1.75,6.93Zm281-164.44a3.62,3.62,0,0,1-1.67.49q-7.86.39-15.9.8a3.71,3.71,0,0,1-.38-7.42l15.92-.79a3.71,3.71,0,0,1,2,6.92Zm-31.81,1.61a3.74,3.74,0,0,1-1.66.49l-15.9.83a3.71,3.71,0,0,1-.39-7.41l15.9-.83a3.71,3.71,0,0,1,2.05,6.92Zm-281,161.51a3.62,3.62,0,0,1-2.07.49c-5.81-.34-11.19-.72-16-1.14a3.71,3.71,0,0,1,.65-7.4c4.72.42,10,.8,15.77,1.13a3.71,3.71,0,0,1,1.63,6.92ZM949.8,403.51a3.69,3.69,0,0,1-1.65.49l-15.86.87a3.71,3.71,0,1,1-.41-7.41l15.87-.87a3.71,3.71,0,0,1,2,6.92ZM668.94,560.39a3.71,3.71,0,0,1-2.4.45c-1.22-.18-2.4-.37-3.53-.56a23.93,23.93,0,0,1-12.65-7,3.71,3.71,0,0,1,5.22-5.28,16.65,16.65,0,0,0,8.7,4.94q1.61.28,3.36.54a3.71,3.71,0,0,1,1.3,6.89ZM918.05,405.27a3.62,3.62,0,0,1-1.64.49l-15.91.92a3.71,3.71,0,1,1-.43-7.41l15.92-.92a3.71,3.71,0,0,1,2.06,6.92Zm-31.81,1.86a3.73,3.73,0,0,1-1.63.48l-15.89,1a3.71,3.71,0,1,1-.46-7.41l15.9-1a3.72,3.72,0,0,1,2.08,6.93ZM645.91,540.8l-.22.11a3.72,3.72,0,0,1-5-1.68A113.65,113.65,0,0,1,634.66,524a3.71,3.71,0,0,1,7.07-2.28,105.82,105.82,0,0,0,5.65,14.27A3.72,3.72,0,0,1,645.91,540.8ZM854.45,409.07a3.7,3.7,0,0,1-1.62.49l-15.89,1a3.71,3.71,0,1,1-.48-7.4l15.9-1a3.71,3.71,0,0,1,2.09,6.92Zm-31.79,2.06a3.61,3.61,0,0,1-1.6.49q-8,.53-15.88,1.07a3.71,3.71,0,1,1-.52-7.4l15.9-1.08a3.71,3.71,0,0,1,2.1,6.92ZM635.88,510.69a4.17,4.17,0,0,1-1,.4,3.71,3.71,0,0,1-4.45-2.79c-1.13-4.9-2.2-10.21-3.16-15.79a3.71,3.71,0,0,1,7.32-1.27c.94,5.45,2,10.63,3.07,15.4A3.71,3.71,0,0,1,635.88,510.69Zm155-97.37a3.75,3.75,0,0,1-1.59.49L773.42,415a3.71,3.71,0,1,1-.55-7.4l15.9-1.16a3.72,3.72,0,0,1,2.12,6.92Zm-31.77,2.37a3.65,3.65,0,0,1-1.57.48q-8.13.63-15.86,1.27a3.71,3.71,0,1,1-.61-7.4q7.74-.63,15.89-1.27a3.72,3.72,0,0,1,2.15,6.92ZM630.39,479.36a3.71,3.71,0,0,1-5.54-2.73c-.42-3.21-.83-6.56-1.2-9.95-.26-2.27-.48-4.25-.68-5.87a3.71,3.71,0,0,1,7.37-.91c.2,1.64.43,3.65.69,6,.37,3.34.77,6.64,1.18,9.8A3.7,3.7,0,0,1,630.39,479.36Zm97-61.06a3.76,3.76,0,0,1-1.53.48q-8.24.72-15.85,1.44a3.71,3.71,0,1,1-.69-7.39q7.62-.72,15.89-1.44a3.71,3.71,0,0,1,2.18,6.91Zm-31.73,3a3.8,3.8,0,0,1-1.47.48c-5.72.59-11,1.19-15.78,1.76a3.71,3.71,0,1,1-.89-7.37c4.79-.58,10.14-1.18,15.9-1.78a3.71,3.71,0,0,1,2.24,6.91Zm-68.9,26.46a3.72,3.72,0,0,1-5.56-3.12,20,20,0,0,1,1.23-8.6c1.2-2.75,3.74-5.36,7.58-7.76a3.71,3.71,0,0,1,3.94,6.29c-3.33,2.09-4.38,3.67-4.71,4.43a13.87,13.87,0,0,0-.62,5.44A3.72,3.72,0,0,1,626.73,447.77ZM664,425.2a3.82,3.82,0,0,1-1.29.46A114.6,114.6,0,0,0,648,428.61l-.34.11a3.71,3.71,0,0,1-2.19-7.09l.33-.11a119.47,119.47,0,0,1,15.81-3.2A3.71,3.71,0,0,1,664,425.2Z"/><path d="M551.81,935.1c13-13,25.19-26.72,35.05-42a195,195,0,0,0,23.25-48.65c2.71-8.59,4.95-17.32,6.87-26.2l5.6-26.89c1.85-8.91,3.63-18.07,6.35-27.21a106.83,106.83,0,0,1,11.75-26.35,104.29,104.29,0,0,1,8.68-11.63,116.55,116.55,0,0,1,10.06-10.3A165.66,165.66,0,0,1,682.21,699a247.18,247.18,0,0,1,24.68-13.33c2.1-1,4.24-2,6.36-2.93l3.13-1.42,3.07-1.37c2.06-.88,4-1.94,6-2.9s3.91-2.11,5.85-3.19a103.84,103.84,0,0,0,21-16.05,77.74,77.74,0,0,0,8.59-10.06,73.88,73.88,0,0,0,6.82-11.38,81.9,81.9,0,0,0,7.64-25.63,94.5,94.5,0,0,0,.8-13.58,106.65,106.65,0,0,0-1-13.68A96.69,96.69,0,0,1,777.79,597a93.58,93.58,0,0,1,.52,13.92,83,83,0,0,1-5.8,27.5A77.3,77.3,0,0,1,766,651.12a85.16,85.16,0,0,1-8.58,11.42l-1.18,1.34L755,665.17c-.83.85-1.65,1.72-2.52,2.54-1.76,1.6-3.48,3.26-5.34,4.74a119.55,119.55,0,0,1-11.48,8.43c-2,1.25-4,2.5-6.08,3.69s-4.13,2.33-6.24,3.36L717.07,691c-2,1-4,2-6,3a263.13,263.13,0,0,0-23.42,13.44c-15,9.75-28.73,21.37-38,36a96.93,96.93,0,0,0-10.71,23.73c-2.66,8.43-4.46,17.3-6.55,26.3L629.27,807c-1,4.47-2.1,9-3.22,13.46a245,245,0,0,1-8.15,26.75,181.13,181.13,0,0,1-11.55,25.56l-3.47,6.09c-1.18,2-2.52,3.94-3.76,5.9-2.45,4-5.29,7.68-8,11.43A212.38,212.38,0,0,1,551.81,935.1Z"/><g class="cls-12"><path d="M1130.89,422.7s-67.35,190.13-228.16,114.07c-95.13-46.15-50.86-98.69,82-74.84C1062.22,469.43,1148.32,386.21,1130.89,422.7Z"/></g><g class="cls-14"><path class="cls-6" d="M455.05,816.58s33.76-1.52,50.44,4.2C505.49,820.78,475.23,823.23,455.05,816.58Z"/></g><g class="cls-7"><path d="M575.68,865.9s-18.95,16.35-44.31-9.16-50.47-54-54.6-68.46c0,0,8.14-17.06,16.59-8.78S532.83,844.3,575.68,865.9Z"/></g><path d="M1004.61,646.28a163.67,163.67,0,0,0-9-14.41l-1.2-1.74-1.28-1.68c-.86-1.11-1.69-2.25-2.57-3.34l-2.72-3.21c-.88-1.09-1.89-2.06-2.82-3.1a89.46,89.46,0,0,0-12.44-11.09,84.84,84.84,0,0,0-14.24-8.36c-10-4.62-20.86-7.13-31.88-8.46s-22.31-1.43-33.66-1.58c-5.68-.06-11.39-.1-17.13-.23s-11.31-.27-17-.32c-11.33-.2-22.71-.21-34.07-.25s-22.76-.08-34.15-.21c-5.69,0-11.38-.1-17.08-.26l-17.09-.43c-22.79-.76-45.59-1.81-68.37-4.05-2.85-.3-5.7-.56-8.54-.89l-8.54-1.08c-1.42-.16-2.84-.4-4.27-.64l-4.26-.72a39,39,0,0,1-4.31-.85,30.63,30.63,0,0,1-4.32-1.28,43.66,43.66,0,0,1-15.12-9.35,66,66,0,0,1-10.91-13.7,103.86,103.86,0,0,1-7.74-15.51c-2.14-5.36-3.93-10.82-5.56-16.32a280.38,280.38,0,0,1-7.26-33.57c-.9-5.64-1.68-11.31-2.38-17l-1.09-8.45c-.37-2.79-.84-5.59-1.25-8.43a75.24,75.24,0,0,1-1-17.59A34.81,34.81,0,0,1,605.27,425a35.87,35.87,0,0,1,2.53-3.92,39.51,39.51,0,0,1,6.35-6.69,58.48,58.48,0,0,1,7.44-5.16,88.4,88.4,0,0,1,16.15-7.28c1.36-.5,2.8-.91,4.26-1.31s2.91-.84,4.32-1.11l4.28-.94c1.42-.32,2.83-.54,4.26-.81l4.26-.76,4.25-.68c2.83-.44,5.67-.9,8.5-1.27,22.67-3.19,45.37-5.39,68.07-7.48,45.41-4.15,90.85-7.41,136.32-10.05,45.48-2.46,91-4.54,136.49-5.95,11.38-.4,22.77-.69,34.15-1l17.08-.42c5.67-.09,11.25-.31,16.87-.78a212.74,212.74,0,0,0,33.32-5.35q8.22-2,16.23-4.81a110.71,110.71,0,0,0,15.54-6.68l0,0a.53.53,0,0,1,.54.91c-9.73,6.18-20.45,10.47-31.39,14a201.64,201.64,0,0,1-33.69,7.37c-5.69.77-11.48,1.29-17.17,1.68l-17,1.15-34.06,2.31c-45.41,3.11-90.83,5.93-136.24,8.9L808.83,393q-34.05,2.1-68.06,4.53c-22.66,1.69-45.33,3.5-67.83,5.93-2.82.28-5.62.64-8.42,1l-4.2.52-4.16.61c-1.39.21-2.8.37-4.16.61l-4.1.72c-1.39.22-2.67.55-4,.85s-2.61.6-3.94,1a82,82,0,0,0-15.2,6.09,51.57,51.57,0,0,0-6.77,4.27,33.91,33.91,0,0,0-5.6,5.43,30,30,0,0,0-2.24,3.15,29.52,29.52,0,0,0-3.69,11,51.85,51.85,0,0,0-.33,8.11q.2,4.13.69,8.33c.32,2.81.69,5.64,1,8.5l.83,8.51c.58,5.65,1.23,11.28,2,16.89a241,241,0,0,0,6.8,33.2c3.06,10.84,7.19,21.45,13.11,30.91a58.48,58.48,0,0,0,10.57,12.67A38.52,38.52,0,0,0,655.08,574a25.73,25.73,0,0,0,3.89,1,36.43,36.43,0,0,0,4.09.64l4.19.52c1.39.18,2.78.36,4.19.45l8.44.7c2.82.19,5.66.31,8.48.46l4.24.22,4.25.14,8.5.27c5.67.11,11.34.23,17,.28,11.35.12,22.71.15,34.07.15s22.73,0,34.11.08,22.75.08,34.14.26,22.78.31,34.2.63c2.85.06,5.71.18,8.57.32l8.55.39c5.63.26,11.3.44,17,.63a281.41,281.41,0,0,1,34.45,2.74,124.79,124.79,0,0,1,17.1,3.82,96.14,96.14,0,0,1,16.31,6.63A84.92,84.92,0,0,1,975.53,604a94,94,0,0,1,12.3,12.38c7.45,8.91,13.07,19.06,17.73,29.47a.53.53,0,0,1-.27.7.51.51,0,0,1-.67-.22Z"/><path class="cls-13" d="M573.58,867.11a12.54,12.54,0,0,1-14.63-1.5c-1.9-1.69-46.78-41.8-65.77-67.42a565.17,565.17,0,0,1-32.09-48.35,12.57,12.57,0,0,1,4.6-17.15h0a12.55,12.55,0,0,1,17.14,4.59,548.12,548.12,0,0,0,30.52,46c17.47,23.57,61.86,63.23,62.31,63.63a12.55,12.55,0,0,1,1,17.72A12.3,12.3,0,0,1,573.58,867.11Z"/><path d="M576.23,871.71a17.82,17.82,0,0,1-20.81-2.14c-1.91-1.71-47.12-42.08-66.5-68.22a571.13,571.13,0,0,1-32.42-48.86,17.86,17.86,0,0,1,30.93-17.86,539.19,539.19,0,0,0,30.18,45.45c17,22.92,61.13,62.44,61.58,62.84a17.87,17.87,0,0,1-3,28.79ZM468.34,737.28a7.27,7.27,0,0,0-2.65,9.91A555.86,555.86,0,0,0,497.44,795c18.73,25.28,63.16,64.94,65,66.62a7.23,7.23,0,0,0,8.45.87,7.08,7.08,0,0,0,1.78-1.46,7.24,7.24,0,0,0-.58-10.23c-1.85-1.65-45.41-40.65-63-64.43a551.31,551.31,0,0,1-30.85-46.47A7.27,7.27,0,0,0,468.34,737.28Z"/><g class="cls-14"><path class="cls-6" d="M540.3,742.44s-27-4.88-46.14,1C494.16,743.42,527.17,745.15,540.3,742.44Z"/></g><g class="cls-7"><path d="M601.56,775.14s-41.56,25.71-86-58.84l14.19-25.6S554.67,747.76,601.56,775.14Z"/></g><path class="cls-13" d="M598.55,777.57A12.53,12.53,0,0,1,583.84,776c-7.57-6.88-73.81-68.66-70.93-119.71A12.55,12.55,0,1,1,538,657.68c-1.87,33.22,44.67,83.25,62.76,99.73a12.55,12.55,0,0,1,.83,17.73A12.18,12.18,0,0,1,598.55,777.57Z"/><path d="M601.21,782.16a17.79,17.79,0,0,1-20.94-2.26c-7.75-7-75.68-70.42-72.66-123.93a17.86,17.86,0,0,1,35.66,2c-1.56,27.66,36.6,73.26,61,95.51a17.86,17.86,0,0,1-3.09,28.67ZM521.83,650.69a7.4,7.4,0,0,0-1.22.88,7.21,7.21,0,0,0-2.41,5c-2.74,48.62,61.83,108.8,69.2,115.5a7.23,7.23,0,0,0,8.5.92,7.38,7.38,0,0,0,1.74-1.41,7.26,7.26,0,0,0-.48-10.24c-.67-.61-66.88-61.43-64.48-104a7.25,7.25,0,0,0-10.85-6.69Z"/><path class="cls-13" d="M671.66,685.66a12.56,12.56,0,0,1-16.3-3.34c-.26-.34-26.07-34.55-46.49-50l-2.66-2c-49.08-37.19-63.32-50-66.23-59.5a12.55,12.55,0,0,1,23.67-8.3c5.37,8.12,43.33,36.89,57.72,47.79l2.67,2c23.22,17.6,50.25,53.44,51.39,55a12.54,12.54,0,0,1-2.49,17.57A12.79,12.79,0,0,1,671.66,685.66ZM564,563.43h0Z"/><path d="M674.31,690.25a17.86,17.86,0,0,1-23.19-4.74c-.25-.33-25.78-34.08-45.45-49l-2.66-2c-51.35-38.9-64.72-51.11-68.1-62.17a17.85,17.85,0,0,1,33.41-12.42c3.87,5.26,22.79,20.78,56.26,46.13l2.66,2c23.8,18,51.27,54.46,52.43,56a17.88,17.88,0,0,1-3.55,25A17.08,17.08,0,0,1,674.31,690.25ZM548.36,560.83a7.25,7.25,0,0,0-3.31,8.4c2.46,8,17.49,21.31,64.37,56.82l2.65,2c20.84,15.8,46.45,49.64,47.53,51.07a7.24,7.24,0,0,0,9.41,1.94,5.75,5.75,0,0,0,.75-.5,7.25,7.25,0,0,0,1.43-10.14c-1.12-1.49-27.73-36.76-50.36-53.92l-2.66-2c-26.24-19.88-53.77-41.26-58.94-49.09l-.19-.29-.08,0-.24-.71a7.3,7.3,0,0,0-8.86-4.26A7.76,7.76,0,0,0,548.36,560.83Zm15.44,2.64-5,.84Z"/><path class="cls-13" d="M570.26,536.89a12.55,12.55,0,0,1-16.07-18.73c17.1-21.31,95.08-70.22,103.91-75.73l.37-.22a12.55,12.55,0,0,1,12.91,21.53c-32,19.93-86.75,56.6-97.61,70.13A12.71,12.71,0,0,1,570.26,536.89Z"/><path d="M572.91,541.48a17.86,17.86,0,0,1-22.86-26.64C567.34,493.3,640.76,447,655.3,437.93l.52-.31a17.86,17.86,0,0,1,18.37,30.62c-34,21.21-86.39,56.62-96.29,69A17.69,17.69,0,0,1,572.91,541.48Zm88.22-94.68-.18.11c-31.82,19.83-89.18,57.81-102.63,74.57a7.26,7.26,0,0,0,9.29,10.82,7.47,7.47,0,0,0,2-1.74c12.7-15.83,75.73-56.85,99-71.32a7.25,7.25,0,0,0-7.45-12.44Z"/><path class="cls-13" d="M687.13,541.62a12.39,12.39,0,0,1-3.61,1.4c-1.06.23-26.34,5.69-55.63,8.86-42,4.54-69.55,2-84.22-7.66a12.55,12.55,0,1,1,13.83-20.94c16.84,11.11,80.71,3.89,120.69-4.79a12.55,12.55,0,0,1,8.94,23.13Z"/><path d="M689.79,546.22a18.14,18.14,0,0,1-5.14,2c-1.09.23-26.79,5.77-56.19,8.95-43.28,4.68-72,1.9-87.72-8.5a17.86,17.86,0,0,1,19.68-29.8c13.49,8.9,71.2,4.32,116.64-5.54a17.86,17.86,0,0,1,12.73,32.91ZM547,527.47a7.32,7.32,0,0,0-2.42,2.28,7.26,7.26,0,0,0,2.06,10c13.41,8.86,40.57,11.15,80.73,6.8,28.85-3.11,54-8.53,55.08-8.76a7,7,0,0,0,2.08-.81,7.25,7.25,0,0,0-5.17-13.36c-27.38,5.94-103.18,18.26-124.73,4a7.3,7.3,0,0,0-7.63-.23Z"/><path class="cls-13" d="M437.93,975.13a12.53,12.53,0,0,1-9.19,1.33l-63.5-15.16a12.55,12.55,0,0,1,5.84-24.42L434.58,952a12.56,12.56,0,0,1,3.35,23.09Z"/><path d="M440.59,979.72a17.83,17.83,0,0,1-13.08,1.9L364,966.45a17.85,17.85,0,1,1,8.3-34.73l63.5,15.17a17.86,17.86,0,0,1,4.78,32.83Zm-76-36.91-.18.1a7.25,7.25,0,0,0,2.12,13.23L430,971.31a7.22,7.22,0,0,0,5.3-.78,7.13,7.13,0,0,0,3.43-4.59,7.26,7.26,0,0,0-5.37-8.74L369.84,942A7.17,7.17,0,0,0,364.54,942.81Z"/><path class="cls-13" d="M402.21,1016.13a12.56,12.56,0,0,1-13.83-.84c-5.48-4.13-53.24-41.43-41.18-77.75A12.55,12.55,0,1,1,371,945.45c-5,15.22,19.69,40.12,32.47,49.8a12.55,12.55,0,0,1-1.29,20.88Z"/><path d="M404.86,1020.72a17.82,17.82,0,0,1-19.67-1.2c-5.8-4.37-56.24-43.82-43-83.65a17.85,17.85,0,0,1,33.89,11.25c-3.53,10.65,15.87,32.72,30.64,43.9a17.85,17.85,0,0,1-1.84,29.7Zm-49.37-85.5a7.24,7.24,0,0,0-3.25,4c-11.08,33.37,37.27,70.29,39.33,71.84a7.25,7.25,0,0,0,8.73-11.58c-11.74-8.88-40.77-36.21-34.3-55.69a7.25,7.25,0,0,0-10.51-8.56Z"/><path class="cls-13" d="M460.78,903.7a12.53,12.53,0,0,1-11.63.5c-4.45-.87-20.58.44-35.18,2.89a12.55,12.55,0,1,1-4.15-24.75c40-6.73,48.28-1.93,51-.34a12.55,12.55,0,0,1,0,21.7Zm-11.31.57h0Zm-1.31-.59h0Z"/><path d="M463.43,908.3a17.9,17.9,0,0,1-15.78,1c-3.84-.43-17.69.46-32.8,3a17.85,17.85,0,0,1-5.92-35.21c37.18-6.25,48.69-3.12,54.55.31a17.86,17.86,0,0,1-.05,30.88Zm-12.38-9.07.36.17a7.24,7.24,0,0,0,6.71-.29,7.11,7.11,0,0,0,2.63-2.62,7.26,7.26,0,0,0-2.61-9.91c-7.68-4.48-30-1.94-47.45,1a7.25,7.25,0,1,0,2.41,14.3c13.68-2.3,31.29-4,37.07-2.87l.54.1,0-.05Z"/><g class="cls-7"><path d="M741,1092S596,977.48,563.47,915.75c-11.28-27.73-50.14-107.49-88.9-65.37,0,0,29.9-.94,39.54,33.25,14.82,52.62,26.4,95.65,215.31,215C733.76,1101.38,736.41,1089.14,741,1092Z"/></g><path class="cls-8" d="M734.7,1095.85S556,961.77,539.56,915s-24.43-83.44-56.7-75.72-24,42.1-40.2,74.91-50.15,71.3-95.89,116.6c-32.73,31.49,5.33,58.32,15.89,61.15,13.14,4.27,170.73,59.59,212.12,98.87,53.41-30.27,107.05-62.24,159.92-94.93Z"/><path d="M734.3,1096.2a1.8,1.8,0,0,1-.29-.19l-.37-.25-.75-.52-1.49-1-3-2.07-5.93-4.15-11.78-8.45c-7.82-5.66-15.57-11.43-23.31-17.22s-15.37-11.71-23-17.65-15.15-12-22.66-18.09-14.94-12.29-22.31-18.56-14.67-12.64-21.88-19.13-14.26-13.14-21.2-19.95-13.78-13.77-20.2-21.19c-3.22-3.7-6.37-7.49-9.37-11.45a94.43,94.43,0,0,1-8.3-12.67,50.3,50.3,0,0,1-3.24-7.3l-2.3-6.89q-2.28-6.9-4.44-13.79c-2.94-9.16-5.89-18.28-9.43-27A99.12,99.12,0,0,0,513,856.07a51.12,51.12,0,0,0-3.84-5.59,30.19,30.19,0,0,0-4.6-4.71,21.07,21.07,0,0,0-5.47-3.32,20.22,20.22,0,0,0-6.23-1.55,29.53,29.53,0,0,0-6.63.17,42.23,42.23,0,0,0-6.63,1.55,31.49,31.49,0,0,0-6.17,2.71,27.33,27.33,0,0,0-5.28,4.11,31.08,31.08,0,0,0-4.16,5.34,44.75,44.75,0,0,0-3.13,6.18c-.89,2.16-1.66,4.4-2.37,6.66s-1.3,4.57-1.87,6.9l-3.39,14.08c-2.37,9.39-5.24,18.84-9.73,27.58-2.19,4.35-4.59,8.6-7.08,12.77-1.28,2.06-2.51,4.17-3.83,6.2l-4,6.09-4.16,6-4.3,5.88c-1.4,2-2.91,3.87-4.37,5.81s-2.94,3.86-4.46,5.74c-12,15.22-24.84,29.76-37.94,44-6.59,7.1-13.2,14.14-19.95,21.12l-2.53,2.6-1.27,1.31-1.16,1.24c-.78.83-1.58,1.64-2.26,2.52a36.08,36.08,0,0,0-7.39,14,22.61,22.61,0,0,0,.7,11.9,27.32,27.32,0,0,0,2.62,5.63,35.34,35.34,0,0,0,3.77,5.19,50.56,50.56,0,0,0,9.84,8.71,41.23,41.23,0,0,0,5.59,3.22,19.44,19.44,0,0,0,2.68,1l3.6,1.17c18.42,6.19,36.57,12.78,54.68,19.65,9,3.45,18.08,6.92,27.06,10.56s17.91,7.37,26.81,11.22q26.73,11.44,52.65,25c8.61,4.57,17.17,9.3,25.46,14.59s16.44,10.94,23.91,18l-5.76-.7L613,1164l40.51-22.77,40.45-22.9,20.22-11.49,10.11-5.74,5.06-2.86,2.53-1.43,1.27-.72.63-.36.32-.18.16-.09.07,0,0,0C734.34,1095.77,734.53,1094.6,734.3,1096.2Zm.8-.71c-.25,1.62-.09.47-.16.83l0,0-.08.05-.15.1-.3.2-.61.41-1.2.81-2.42,1.62-4.83,3.24-9.7,6.43q-9.71,6.4-19.48,12.71c-13,8.45-26.13,16.73-39.27,25s-26.36,16.38-39.66,24.36-26.6,16-40,23.77a4.82,4.82,0,0,1-5.63-.59l-.13-.12c-6.72-6.06-14.61-11.31-22.69-16.2s-16.47-9.46-25-13.79c-17-8.68-34.55-16.51-52.14-24.22-35.29-15.13-71.13-29.39-107.29-42.34l-3.25-1.13A27.14,27.14,0,0,1,357,1095a50.8,50.8,0,0,1-6.88-4.1,59.51,59.51,0,0,1-11.57-10.64,45.41,45.41,0,0,1-4.58-6.61,36.53,36.53,0,0,1-3.28-7.54,31.45,31.45,0,0,1-.58-16.67,39.62,39.62,0,0,1,7.25-14.42,38.84,38.84,0,0,1,2.51-3c.84-1,1.75-1.89,2.66-2.79l1.36-1.35,1.29-1.25,2.59-2.51c6.95-6.61,13.84-13.37,20.67-20.14s13.55-13.66,20.1-20.69,13.06-14.12,19.22-21.49S420,947,425.51,939.12l4.07-5.92c1.35-2,2.59-4,3.9-6q3.76-6.1,7-12.48a96.88,96.88,0,0,0,5.58-13.1c1.58-4.49,2.77-9.12,3.91-13.78l3.26-14.1a118.55,118.55,0,0,1,4.13-14.12,49.1,49.1,0,0,1,3.22-6.81,35.75,35.75,0,0,1,4.56-6.17,33.24,33.24,0,0,1,6-4.94,35.21,35.21,0,0,1,6.92-3.39,46.65,46.65,0,0,1,7.36-2,34.29,34.29,0,0,1,7.8-.51,27,27,0,0,1,14.89,5.4,35.73,35.73,0,0,1,5.76,5.34,55,55,0,0,1,4.65,6.11,104.46,104.46,0,0,1,7.17,13.14c4.18,9,7.48,18.12,10.8,27.21q2.47,6.81,4.86,13.62l2.44,6.79a41.26,41.26,0,0,0,2.78,5.84,104.87,104.87,0,0,0,7.71,11.41c2.84,3.72,5.88,7.35,9,10.9,12.57,14.23,26.29,27.7,40.35,40.77,7,6.55,14.1,13.06,21.27,19.46s14.43,12.75,21.67,19.1,14.57,12.6,21.91,18.84,14.67,12.5,22.07,18.68,14.77,12.4,22.18,18.58Z"/><g class="cls-7"><path d="M492.55,921.47s-19.36,12.16-37.22-7.05S421.4,866,442.67,860.57C442.67,860.57,468.76,913.36,492.55,921.47Z"/></g><g class="cls-11"><path d="M469.35,1037.71S458.8,1059.16,436,1079.8c-7.88,4.75-1,10.57,32.94,21.55s44.33,14.29,52.18,20.71-26-25.94-69.07-36.31C441.74,1083.22,473,1059.55,469.35,1037.71Z"/></g><g class="cls-9"><path class="cls-6" d="M548.6,986.4s24.29,5.92,50.48,26.1,82.47,71.79,82.47,71.79-44.06-23-82.94-53.21S548.6,986.4,548.6,986.4Z"/></g><path d="M595.68,1183.14a3.72,3.72,0,0,1-4.64-.77l-.83-.93a3.71,3.71,0,0,1,5.5-5l.9,1a3.71,3.71,0,0,1-.33,5.24A3.55,3.55,0,0,1,595.68,1183.14ZM717.19,1111a3.72,3.72,0,0,1-4.11-.27c-3.23-2.46-7.52-5.75-12.64-9.71a3.71,3.71,0,1,1,4.54-5.87c5.11,3.95,9.39,7.23,12.6,9.68a3.73,3.73,0,0,1-.39,6.17Zm-134.12,60.52a3.72,3.72,0,0,1-4.14-.29c-3.67-2.86-7.95-5.88-12.72-9a3.72,3.72,0,0,1,4-6.23c4.94,3.21,9.39,6.36,13.23,9.34a3.71,3.71,0,0,1,.65,5.21A3.82,3.82,0,0,1,583.07,1171.51Zm108.94-80a3.7,3.7,0,0,1-4.14-.29c-3.93-3.08-8.12-6.39-12.51-9.88a3.71,3.71,0,1,1,4.62-5.81c4.38,3.48,8.56,6.78,12.47,9.85a3.7,3.7,0,0,1-.44,6.13Zm-135.48,62.56a3.69,3.69,0,0,1-3.72,0c-4.27-2.47-8.91-5-13.79-7.63a3.71,3.71,0,0,1,3.48-6.55c5,2.63,9.68,5.24,14,7.76a3.71,3.71,0,0,1,1.35,5.07A3.57,3.57,0,0,1,556.53,1154.06ZM667.1,1071.7a3.73,3.73,0,0,1-4.19-.32q-6-4.87-12.38-10a3.71,3.71,0,1,1,4.7-5.75q6.3,5.15,12.34,10a3.72,3.72,0,0,1,.56,5.22A3.75,3.75,0,0,1,667.1,1071.7Zm-138.62,67.4a3.67,3.67,0,0,1-3.51.11c-4.52-2.24-9.31-4.56-14.24-6.89a3.71,3.71,0,1,1,3.16-6.71c5,2.35,9.82,4.69,14.38,7a3.7,3.7,0,0,1,1.67,5A3.62,3.62,0,0,1,528.48,1139.1Zm114-87.53a3.72,3.72,0,0,1-4.23-.36q-5.46-4.53-11-9.19l-1.22-1a3.71,3.71,0,1,1,4.78-5.67l1.23,1q5.49,4.64,11,9.16a3.7,3.7,0,0,1,.49,5.22A3.83,3.83,0,0,1,642.45,1051.57Zm-142.72,74a3.71,3.71,0,0,1-3.39.17c-4.64-2.09-9.52-4.25-14.49-6.4a3.71,3.71,0,1,1,2.95-6.81c5,2.17,9.92,4.34,14.59,6.45a3.71,3.71,0,0,1,1.86,4.9A3.64,3.64,0,0,1,499.73,1125.52Zm118.41-94.47a3.74,3.74,0,0,1-4.28-.4c-4.13-3.55-8.18-7.07-12-10.47a3.71,3.71,0,1,1,4.9-5.57c3.84,3.37,7.86,6.88,12,10.41a3.71,3.71,0,0,1,.39,5.23A3.78,3.78,0,0,1,618.14,1031.05Zm-147.58,81.81a3.71,3.71,0,0,1-3.3.21c-4.77-2-9.71-4-14.67-6.06a3.71,3.71,0,1,1,2.8-6.87c5,2,9.95,4.07,14.74,6.08a3.72,3.72,0,0,1,.43,6.64Zm-29.49-12a3.66,3.66,0,0,1-3.22.24c-4.87-1.92-9.85-3.87-14.8-5.77a3.71,3.71,0,0,1,2.67-6.93c5,1.91,10,3.86,14.86,5.8a3.7,3.7,0,0,1,.49,6.66ZM594.26,1010a3.69,3.69,0,0,1-4.34-.46c-4.08-3.68-8-7.31-11.76-10.79a3.71,3.71,0,0,1,5.06-5.43c3.7,3.45,7.62,7.06,11.67,10.71a3.71,3.71,0,0,1,.27,5.25A3.61,3.61,0,0,1,594.26,1010Zm-182.89,79.4a3.67,3.67,0,0,1-3.16.26c-5-1.87-10-3.72-14.9-5.51a3.71,3.71,0,1,1,2.54-7c4.93,1.79,10,3.66,15,5.53a3.71,3.71,0,0,1,2.17,4.78A3.67,3.67,0,0,1,411.37,1089.43ZM571,988.32a3.7,3.7,0,0,1-4.44-.56c-4-3.88-7.8-7.68-11.33-11.3a3.71,3.71,0,0,1,5.32-5.18c3.48,3.57,7.24,7.33,11.18,11.16a3.73,3.73,0,0,1-.73,5.88Zm-189.58,90.21a3.69,3.69,0,0,1-3.09.28c-5.36-1.89-8.9-3.09-10.3-3.54l-.63-.2-.32-.11a24.91,24.91,0,0,1-4.36-2.54,3.71,3.71,0,1,1,4.28-6.06,17.3,17.3,0,0,0,2.8,1.68l.48.15c1.48.48,5.09,1.71,10.52,3.62a3.71,3.71,0,0,1,.62,6.72Zm167.44-113a3.71,3.71,0,0,1-4.61-.73c-3.87-4.29-7.39-8.41-10.47-12.25a3.71,3.71,0,1,1,5.79-4.64c3,3.73,6.42,7.74,10.19,11.92a3.71,3.71,0,0,1-.27,5.24A3.9,3.9,0,0,1,548.89,965.5Zm-192,95a3.79,3.79,0,0,1-1.3.45,3.72,3.72,0,0,1-4.23-3.11c-.63-4.2,1.9-9.08,7.53-14.49l1.75-1.74a3.71,3.71,0,1,1,5.23,5.27l-1.81,1.8c-4.54,4.36-5.5,7.11-5.36,8A3.71,3.71,0,0,1,356.9,1060.52Zm19.45-24.3a3.71,3.71,0,0,1-4.49-5.82c3.79-3.84,7.51-7.66,11.07-11.35a3.71,3.71,0,0,1,5.35,5.15c-3.58,3.71-7.33,7.55-11.14,11.41A3.28,3.28,0,0,1,376.35,1036.22ZM529.2,940.57a3.7,3.7,0,0,1-5-1.2c-1-1.47-1.85-2.94-2.66-4.36a70.77,70.77,0,0,1-5-10.42,3.71,3.71,0,1,1,6.94-2.62,65.07,65.07,0,0,0,4.5,9.33c.76,1.31,1.59,2.67,2.48,4a3.72,3.72,0,0,1-1.11,5.14ZM398.41,1013.3a3.71,3.71,0,0,1-4.57-5.75c3.71-4,7.32-7.9,10.71-11.67a3.71,3.71,0,0,1,5.52,5c-3.43,3.8-7.06,7.76-10.8,11.77A4,4,0,0,1,398.41,1013.3Zm21.25-23.66A3.71,3.71,0,0,1,415,984c3.56-4.15,7-8.24,10.11-12.13a3.71,3.71,0,1,1,5.78,4.66c-3.2,4-6.65,8.09-10.25,12.3A3.87,3.87,0,0,1,419.66,989.64Zm19.95-24.77a3.71,3.71,0,0,1-4.83-5.43c3.25-4.37,6.31-8.68,9.09-12.82a3.72,3.72,0,0,1,6.17,4.14c-2.85,4.24-6,8.65-9.31,13.12A3.76,3.76,0,0,1,439.61,964.87Zm77.08-53.41a3.72,3.72,0,0,1-5.37-2l-.57-1.68c-1.59-4.69-3.09-9.11-4.57-13.33a3.71,3.71,0,0,1,7-2.46c1.49,4.26,3,8.7,4.58,13.4l.58,1.69A3.72,3.72,0,0,1,516.69,911.46Zm-59.43,27a3.71,3.71,0,0,1-5.07-5.08c2.24-3.84,4.31-7.69,6.16-11.44.38-.77.75-1.54,1.11-2.32a3.71,3.71,0,0,1,6.73,3.14c-.38.82-.78,1.65-1.18,2.47-1.93,3.9-4.08,7.9-6.4,11.88A3.72,3.72,0,0,1,457.26,938.43Zm13.17-28.87a3.71,3.71,0,0,1-5.39-4.35c1.8-5.6,3.14-11,4.11-15.07a3.72,3.72,0,0,1,7.23,1.72c-1,4.2-2.39,9.77-4.27,15.62A3.68,3.68,0,0,1,470.43,909.56Zm35.52-28-.44.22a3.72,3.72,0,0,1-4.85-2,92.26,92.26,0,0,0-5.06-10.58c-.59-1-1.17-1.95-1.75-2.78l-.07-.11a3.71,3.71,0,1,1,6.14-4.16c.73,1,1.42,2.16,2.11,3.34a99,99,0,0,1,5.49,11.45A3.71,3.71,0,0,1,506,881.51Zm-27.6-2.76a3.71,3.71,0,0,1-5.44-4.17c2.25-8.37,4.26-13.42,8.42-16.13a3.71,3.71,0,1,1,4.05,6.22c-1.54,1-3,3.41-5.3,11.83A3.71,3.71,0,0,1,478.35,878.75Z"/><path d="M426.2,1095.07a3.72,3.72,0,0,1-4.77-5.52l9.85-12.49a3.71,3.71,0,0,1,5.83,4.6l-9.86,12.49A3.81,3.81,0,0,1,426.2,1095.07Zm19.7-25a3.71,3.71,0,0,1-4.77-5.51l9.85-12.49a3.71,3.71,0,1,1,5.83,4.6L447,1069.17A3.77,3.77,0,0,1,445.9,1070.08Zm19.7-25a3.71,3.71,0,0,1-4.77-5.51l9.85-12.49a3.71,3.71,0,1,1,5.83,4.6l-9.85,12.49A3.8,3.8,0,0,1,465.6,1045.1Zm19.7-25a3.71,3.71,0,0,1-4.77-5.51l9.85-12.49a3.71,3.71,0,1,1,5.83,4.6l-9.85,12.49A3.67,3.67,0,0,1,485.3,1020.12Zm19.7-25a3.71,3.71,0,0,1-4.77-5.51l9.85-12.49a3.71,3.71,0,0,1,5.83,4.59l-9.85,12.49A3.56,3.56,0,0,1,505,995.14Zm19.7-25a3.71,3.71,0,0,1-4.77-5.51l9.85-12.49a3.71,3.71,0,1,1,5.83,4.59l-9.85,12.49A3.71,3.71,0,0,1,524.7,970.16Z"/><g class="cls-14"><path class="cls-6" d="M384.82,986s-22.88-19.4-21-43C363.78,943,353.38,972.49,384.82,986Z"/></g><g class="cls-14"><path class="cls-6" d="M377.5,944.49a46.16,46.16,0,0,0,30.34,7.57Z"/></g><g class="cls-7"><path d="M462.67,995.79s-20.18,18.54-47.8-21.8-23.91-54.23-8.93-64.48C405.94,909.51,411.38,951.6,462.67,995.79Z"/></g><g class="cls-14"><path class="cls-6" d="M418.45,888.61s14-7.51,25-.76C443.46,887.85,426.93,891.44,418.45,888.61Z"/></g><g class="cls-7"><path d="M413.13,1051.18s-29.59,25.53-83.53-36.85C324.76,1005.94,380.18,1010.59,413.13,1051.18Z"/></g><path class="cls-13" d="M462.67,995.79A12.55,12.55,0,0,1,447.72,994c-.92-.88-22.5-21.68-33.3-42.58-1-1.92-2.06-4-3.17-6.09-19.13-36.77-25.15-50.6-23.1-60a12.55,12.55,0,0,1,24.76,3.92c1.15,7.12,14.25,32.29,20.61,44.52,1.12,2.14,2.2,4.21,3.2,6.15,8.91,17.24,28.17,35.79,28.36,36a12.55,12.55,0,0,1,.38,17.75A12.36,12.36,0,0,1,462.67,995.79Zm-50-105.19v0Z"/><path d="M465.32,1000.38a18,18,0,0,1-21.27-2.57c-.95-.91-23.16-22.35-34.34-44l-2.54-4.9-.62-1.19c-20.12-38.66-26-52.47-23.58-63.6a17.86,17.86,0,0,1,35.28,4.74c1.63,7.13,14.9,32.62,20,42.37l.42.81c1,1.86,1.91,3.66,2.79,5.37,8.48,16.41,27.13,34.4,27.32,34.58a17.85,17.85,0,0,1-3.43,28.36ZM396.8,881.67l-.3.18a7.17,7.17,0,0,0-3.17,4.55c-1.71,7.89,5.27,23.11,22.63,56.46l.62,1.18,2.55,4.93c10.38,20.08,31.37,40.33,32.26,41.18a7.25,7.25,0,0,0,10-10.47c-.19-.18-20-19.19-29.41-37.37L429.24,937l-.42-.8c-11.92-22.9-20.08-39.5-21.15-46.12h0l-.25,0,.14-.75h0l.05-.57a7.23,7.23,0,0,0-5.67-7.79A7.14,7.14,0,0,0,396.8,881.67Z"/><path class="cls-13" d="M413.13,1051.18a12.51,12.51,0,0,1-10.91.79c-2.24-.89-55.21-22.26-83.48-62.6A12.55,12.55,0,1,1,339.3,975c23.9,34.1,71.72,53.49,72.2,53.69a12.56,12.56,0,0,1,1.63,22.53Z"/><path d="M415.78,1055.77a17.74,17.74,0,0,1-15.52,1.13c-2.3-.91-56.66-22.82-85.86-64.49a17.85,17.85,0,1,1,29.24-20.49c22.9,32.67,69.36,51.62,69.83,51.8a17.87,17.87,0,0,1,2.31,32Zm-90.37-79.89a6.26,6.26,0,0,0-.55.34,7.28,7.28,0,0,0-1.78,10.11c27.41,39.09,78.91,59.85,81.09,60.71a7.25,7.25,0,0,0,5.36-13.47c-.49-.19-49.7-20.08-74.57-55.57a7.27,7.27,0,0,0-9.55-2.12Z"/><g class="cls-14"><path class="cls-6" d="M393,1025.4s-23.82-5.67-59.9-46C333.08,979.36,360,1023.41,393,1025.4Z"/></g><g class="cls-14"><path class="cls-6" d="M460.8,980.15s-33.35-28.67-53.95-86.65C406.85,893.5,418.94,951.32,460.8,980.15Z"/></g><path class="cls-13" d="M492.55,921.47a12.55,12.55,0,0,1-15.26-2.13c-1.17-1.2-28.8-29.74-40.17-53.76-11.28-23.81-13.83-40.23-13.94-40.92A12.55,12.55,0,1,1,448,820.93c0,.09,2.25,13.74,11.8,33.91,8,16.84,28.31,39.63,35.47,47a12.55,12.55,0,0,1-.24,17.75A12.4,12.4,0,0,1,492.55,921.47Z"/><path d="M495.2,926.06a17.83,17.83,0,0,1-21.71-3c-1.2-1.23-29.42-30.38-41.17-55.19-11.33-24-14.1-40.57-14.38-42.39a17.85,17.85,0,1,1,35.31-5.32c0,.07,2.26,13.22,11.35,32.43,7.66,16.18,27.49,38.38,34.48,45.57a17.86,17.86,0,0,1-3.88,27.92ZM432,816.51a7.25,7.25,0,0,0-3.55,7.36c.1.65,2.6,16.47,13.48,39.44,11,23.24,38,51.16,39.18,52.33a7.25,7.25,0,1,0,10.39-10.11c-7.34-7.54-28.19-30.94-36.46-48.42-9.87-20.84-12.23-35.25-12.25-35.39A7.24,7.24,0,0,0,432,816.51Z"/><g class="cls-14"><path class="cls-6" d="M491.73,906.92s-40.47-33.73-51.05-88.42C440.68,818.5,443.35,876.85,491.73,906.92Z"/></g><path d="M607.18,1178.35q-108.3,62.54-202.66,108.83c-164,80.47-294.7,122.82-388.33,125.88a5.3,5.3,0,1,1-.35-10.6c92.12-3,221.32-45,384-124.8,130.5-64,282.59-152.31,452-262.45,288.61-187.59,530.6-376,533-377.85a5.3,5.3,0,0,1,6.52,8.36c-2.41,1.89-244.76,190.54-533.75,378.39Q725.08,1110.28,607.18,1178.35Z"/><g class="cls-14"><path class="cls-6" d="M571.32,850.59s-58.79-46.28-92.16-107.24C479.16,743.35,499.35,810.13,571.32,850.59Z"/></g><g class="cls-14"><path class="cls-6" d="M592.09,758.73s-56.92-55.63-61.39-97.9C530.7,660.83,522.11,710.94,592.09,758.73Z"/></g><g class="cls-14"><path class="cls-6" d="M591.69,641.79s-33.26-4.06-48.83,10C542.86,651.83,569.71,649.42,591.69,641.79Z"/></g><g class="cls-14"><path class="cls-6" d="M670.83,672.2s-36.2-46.68-63-64.54C589.38,595.55,558,566.88,558,566.88s3,11.54,58.16,55.38C627.55,630.13,670.83,672.2,670.83,672.2Z"/></g><g class="cls-14"><path class="cls-6" d="M683.27,524.22s-82.68,16.77-126,7.8C557.28,532,607,548.55,683.27,524.22Z"/></g><g class="cls-14"><path class="cls-6" d="M661.45,446.66l-51.66,35S646,477.19,661.45,446.66Z"/></g><g class="cls-14"><path class="cls-6" d="M956.7,262.45s-68.27,38.09-174.54,61.27C782.16,323.72,885.09,321.11,956.7,262.45Z"/></g><g class="cls-7"><path d="M402.22,1052a12.55,12.55,0,0,0,9.28-23.32c-.08,0-1.55-.63-4-1.74-1.46,6.64-7.51,14.66-28.48,13.72A210.52,210.52,0,0,0,402.22,1052Z"/></g></g></g></svg>