<?xml version="1.0" standalone="no"?>
<!DOCTYPE svg PUBLIC "-//W3C//DTD SVG 1.1//EN" "http://www.w3.org/Graphics/SVG/1.1/DTD/svg11.dtd">
<svg xmlns="http://www.w3.org/2000/svg" viewBox="0 0 1550.47 1854.86" width="1550.469970703125" height="1854.8599853515625"><defs><style>.cls-1{fill:#dcddc0;}.cls-2{fill:#e5e2dc;}.cls-3{fill:#b9b6b2;}.cls-4{fill:#212121;}.cls-5{opacity:0.15;}.cls-6{fill:#fff;}.cls-7{opacity:0.5;}.cls-8{fill:#a8ab61;}.cls-9{opacity:0.4;}.cls-10{fill:#cecbc6;}.cls-11{opacity:0.2;}.cls-12{opacity:0.08;}.cls-13{fill:#262626;}.cls-14{fill:#027be4;}.cls-15{opacity:0.1;}</style></defs><g id="Layer_2" data-name="Layer 2"><g id="OBJECT"><path class="cls-1" d="M505.63,1540.11h0a72.49,72.49,0,0,1-72.49-72.49V353.36a72.48,72.48,0,0,1,72.49-72.48h0a72.48,72.48,0,0,1,72.48,72.48V1467.62A72.49,72.49,0,0,1,505.63,1540.11Z"/><path class="cls-1" d="M307.36,1617.47h0a36.25,36.25,0,0,1-36.24-36.24V36.24A36.25,36.25,0,0,1,307.36,0h0A36.24,36.24,0,0,1,343.6,36.24v1545A36.24,36.24,0,0,1,307.36,1617.47Z"/><path class="cls-1" d="M676.09,1555.32h0a20.21,20.21,0,0,1-20.22-20.21V137.88a20.22,20.22,0,0,1,20.22-20.22h0a20.21,20.21,0,0,1,20.21,20.22V1535.11A20.21,20.21,0,0,1,676.09,1555.32Z"/><path class="cls-1" d="M987.15,1725.08h0a20.22,20.22,0,0,1-20.22-20.22V339a20.21,20.21,0,0,1,20.22-20.21h0A20.21,20.21,0,0,1,1007.36,339V1704.86A20.21,20.21,0,0,1,987.15,1725.08Z"/><rect class="cls-1" x="158.38" y="595.54" width="40.43" height="1259.32" rx="9.88"/><path class="cls-1" d="M839.58,1658.41h0a72.48,72.48,0,0,1-72.48-72.48V439.61a72.49,72.49,0,0,1,72.48-72.49h0a72.49,72.49,0,0,1,72.48,72.49V1585.93A72.48,72.48,0,0,1,839.58,1658.41Z"/><rect class="cls-1" x="1057.09" y="293.89" width="144.97" height="1137.58" rx="34.51"/><circle class="cls-1" cx="1129.57" cy="163.7" r="72.83" transform="translate(710.73 1225.45) rotate(-76.72)"/><path class="cls-1" d="M1319.61,157.1h0a72.48,72.48,0,0,1,72.48,72.48V1237.66a72.48,72.48,0,0,1-72.48,72.48h0a72.48,72.48,0,0,1-72.49-72.48V229.58A72.49,72.49,0,0,1,1319.61,157.1Z"/><circle class="cls-1" cx="505.63" cy="1664.63" r="72.48" transform="translate(-1028.98 845.09) rotate(-45)"/><path class="cls-2" d="M1535.1,813.58c-15.78,15.11-244.63,200.6-722,463.11s-675.82,292.18-736,281.22-83.86-85.13-60.48-104.75c0,0-27.34-112.44,52.91-137.54,0,0,265.21-199.16,419.7-491.76,114.24-216.42,94.43-285,76.35-306.08a71.38,71.38,0,0,1-16.79-36.36c-6.62-46.81-17.43-144.13-5.53-216.83.69-20,33.17-17.53,43-18.33,0,0,54.57,1.16,77.68,2.53s91.3.65,125.54,71.26l-4.4,4.17C954.93,290,1007,245,1031.67,229.25c26.86-17.15,33.16,14.06,33.16,14.06s12.85-2.25,34,22.31c4.42,5.15,11,12.23,18.56,20.21,28.57,30.1,71.85,73,71.85,73l5.29-3.6s13.49,17.26,17.3,19.15c.74.36,2.2,1.06,4.22,2.18,8.43,4.68,26.61,16.49,42.68,40.15,0,0,8.76-9.13,16.07-1.65s26.16,26.69,35.24,46c0,0,5.82-3.36,9.76,4.17S1438,626,1440.22,658.2c0,0,21.34-6.89,29.81,28.53l67.51,97.13S1550.89,798.48,1535.1,813.58Z"/><path class="cls-3" d="M1215.28,376.11l-2.82,1.43c-14.37,3.87-73,18.13-192.65,28.43q-5.82.5-11.9,1c-13-17.68.47-43.23,58.76-56.69,44.84-10.35,66.09-25.06,75.7-38.59,23.65,24.12,46.85,47.11,46.85,47.11l5.29-3.6s13.49,17.26,17.3,19.15C1212.46,374.66,1213.64,375.23,1215.28,376.11Z"/><path class="cls-4" d="M331.12,1184.42c1,1.65.09,3.93-1.92,5.1s-4.42.77-5.38-.88-.09-3.93,1.93-5.1S330.17,1182.77,331.12,1184.42Z"/><path class="cls-4" d="M312.62,1169.24c1,1.65.09,3.93-1.92,5.09s-4.42.77-5.38-.88-.09-3.92,1.93-5.09S311.67,1167.59,312.62,1169.24Z"/><path class="cls-4" d="M295.3,1156.1c1,1.65.09,3.93-1.92,5.09s-4.43.77-5.38-.88-.09-3.93,1.93-5.09S294.35,1154.45,295.3,1156.1Z"/><path class="cls-4" d="M283.58,1146c.95,1.65.09,3.93-1.93,5.09s-4.42.77-5.37-.88-.09-3.93,1.92-5.09S282.63,1144.34,283.58,1146Z"/><path class="cls-4" d="M273.92,1137.68c.95,1.65.09,3.93-1.93,5.1s-4.42.77-5.37-.88-.09-3.93,1.92-5.1S273,1136,273.92,1137.68Z"/><path class="cls-4" d="M268.93,1209.17c.95,1.65.09,3.93-1.92,5.09s-4.43.77-5.38-.88-.09-3.93,1.93-5.09S268,1207.52,268.93,1209.17Z"/><path class="cls-4" d="M254,1191.67c.95,1.65.09,3.93-1.93,5.1s-4.42.77-5.38-.88-.08-3.93,1.93-5.1S253,1190,254,1191.67Z"/><path class="cls-4" d="M245.31,1179.52c1,1.65.09,3.93-1.92,5.09s-4.42.77-5.38-.88-.09-3.93,1.93-5.09S244.36,1177.87,245.31,1179.52Z"/><path class="cls-4" d="M240.36,1170.94c.95,1.65.09,3.93-1.92,5.09s-4.43.77-5.38-.87-.09-3.93,1.93-5.1S239.41,1169.29,240.36,1170.94Z"/><path class="cls-4" d="M224.85,1234.62c1,1.64.09,3.92-1.92,5.09s-4.42.77-5.38-.88-.09-3.93,1.93-5.09S223.9,1233,224.85,1234.62Z"/><path class="cls-4" d="M232.62,1208c.95,1.65.09,3.93-1.93,5.09s-4.42.77-5.37-.88-.09-3.93,1.92-5.09S231.66,1206.33,232.62,1208Z"/><path class="cls-4" d="M223.28,1193.7c1,1.65.09,3.93-1.92,5.09s-4.43.77-5.38-.88-.09-3.93,1.93-5.09S222.33,1192.05,223.28,1193.7Z"/><path class="cls-4" d="M206.4,1215.39c1,1.65.09,3.93-1.92,5.09s-4.43.77-5.38-.88-.09-3.93,1.93-5.09S205.45,1213.74,206.4,1215.39Z"/><path class="cls-4" d="M192.48,1240.31c1,1.65.09,3.93-1.93,5.09s-4.42.77-5.37-.88-.09-3.93,1.92-5.09S191.52,1238.66,192.48,1240.31Z"/><path class="cls-4" d="M180.34,1266.92c.95,1.65.09,3.93-1.92,5.09s-4.43.77-5.38-.88S173,1267.2,175,1266,179.39,1265.27,180.34,1266.92Z"/><path class="cls-4" d="M126.12,1302.2c.95,1.65.09,3.93-1.93,5.1s-4.42.77-5.37-.88-.09-3.93,1.93-5.1S125.17,1300.55,126.12,1302.2Z"/><path class="cls-4" d="M90.75,1320c1,1.65.09,3.93-1.93,5.1s-4.42.77-5.37-.88-.09-3.93,1.93-5.1S89.8,1318.35,90.75,1320Z"/><path class="cls-4" d="M119.33,1286.52c1,1.65.09,3.93-1.92,5.09s-4.42.77-5.38-.88-.09-3.93,1.93-5.09S118.38,1284.87,119.33,1286.52Z"/><path class="cls-4" d="M147,1270.53c1,1.65.09,3.93-1.92,5.09s-4.42.77-5.38-.88-.09-3.93,1.93-5.09S146.08,1268.88,147,1270.53Z"/><path class="cls-4" d="M171,1239.83c.95,1.65.09,3.93-1.93,5.09s-4.42.77-5.37-.87-.09-3.93,1.92-5.1S170,1238.18,171,1239.83Z"/><g class="cls-5"><path d="M617.42,400.24s-5.87-53.13,31.11-69.72,118.59-31.8,143.17-7.65C791.7,322.87,605.81,354.68,617.42,400.24Z"/></g><g class="cls-5"><ellipse cx="894.71" cy="1017.37" rx="159.12" ry="11.61" transform="translate(-408.12 645.65) rotate(-32.75)"/></g><g class="cls-5"><path d="M1027.64,725.49c.43,6.4-70.31,16.28-158,22.08s-159.11,5.3-159.54-1.1,70.32-16.29,158-22.08S1027.22,719.09,1027.64,725.49Z"/></g><g class="cls-5"><path d="M1282.2,443s-34.17,10.62-73.31,61.66-99.52,167.13-99.52,167.13,95-94.4,129.72-148.77S1282.2,443,1282.2,443Z"/></g><path class="cls-6" d="M723.39,799.66S707,816,689.89,852.26,648.18,961.5,648.18,961.5s42.73-74.73,57.48-111.07S723.39,799.66,723.39,799.66Z"/><g class="cls-5"><path d="M1416.77,712.16s-94.9,34.69-251.65,178.12C1165.12,890.28,1311.28,833.1,1416.77,712.16Z"/></g><g class="cls-7"><path d="M740.56,711.39s-69.77,20.94-80.18,83.38c0,0,10.3-8.32,14.7-14.94C684.51,767.44,682,752.13,740.56,711.39Z"/></g><path class="cls-4" d="M1537.54,783.86l-7.26-10.45s-34.65,45.13-207.6,157.23S789.3,1263.7,473.86,1402c-183.74,80.67-352.77,112.77-451.45,119h0c11.69,17.48,30.15,32.44,54.69,36.91,60.23,11,258.73-18.7,736.05-281.22s706.18-448,722-463.1S1537.54,783.86,1537.54,783.86Z"/><path d="M961.16,1199.61Q893,1239,815.79,1281.51C605.71,1397.05,429,1479,290.44,1525.07c-130.61,43.45-190.35,42.61-214.34,38.25-23.52-4.28-44.21-18.23-58.27-39.26a5.5,5.5,0,0,1,4.23-8.55c49.19-3.1,227-20.79,449.59-118.53,348.44-152.79,737.19-399.1,848-470.95,169.37-109.79,205.89-155.53,206.24-156a5.51,5.51,0,0,1,8.87.22l7.07,10.18c5.81,6.61,12.36,22.45-3,37.11-6.4,6.12-64.93,55-188.61,139.34C1266.3,1014.2,1136.37,1098.46,961.16,1199.61ZM32.86,1525.77c11.94,14.16,27.7,23.54,45.21,26.72,18.48,3.37,75.83,6.41,208.9-37.86,137.89-45.87,314-127.54,523.52-242.76,249.76-137.36,428-252,533.61-324.06,121.48-82.87,181.25-132.51,187.2-138.2,11.17-10.69,3.75-20.26,2.15-22.07a5.56,5.56,0,0,1-.42-.54l-3.27-4.69c-14.24,15.15-63.81,62-204.09,153-111,72-500.41,318.67-849.6,471.8C265,1499.72,93.69,1521,32.86,1525.77Z"/><g class="cls-7"><path d="M1537.9,786.61s-32.54,34.25-200.35,143.65-258.85,171.36-330.9,216.8c0,0,168.13-88.72,330.83-198.23S1537.9,786.61,1537.9,786.61Z"/></g><path class="cls-8" d="M409,1136.75s.74,9.94,14.06,18.85c8.33,5,47.48,37.93,16.12,60.94s-48-21.84-105.89,6.14-137.51,79.66-205.9,106.9-109.4,28.31-57.88-14c-80.25,25.1-52.91,137.54-52.91,137.54,145.91-4.77,360.85-101.08,579.74-225.13-32.51-30.84-134.08-71.22-187.46-91"/><g class="cls-9"><path class="cls-6" d="M305.54,1254.34s-35.57,22.32-71.18,38-71.52,45.93-71.52,45.93,29.74.52,84-38.44S305.54,1254.34,305.54,1254.34Z"/></g><path class="cls-10" d="M1216,376.53s-1.17.36-3.57,1c-14.37,3.87-73,18.13-192.65,28.43q-5.82.5-11.9,1c-141.58,11.72-380.27,24-380.27,24l2-22.45c23.77-10,54.41-17.51,92.07-24.25,54.51-9.74,123.7-17.92,208.07-29.88,98.77-14,155.92-44,187.58-68.56,7.65,8.06,16.35,17,25,25.86,23.65,24.12,46.85,47.11,46.85,47.11l5.29-3.6s13.49,17.26,17.3,19.15c.65.31,1.83.88,3.47,1.76Z"/><path class="cls-4" d="M628.3,472.75c-23.14-92.42-20.53-120.46,108.08-139.58,209-34.89,268.43-86.78,295.29-103.92s33.16,14.06,33.16,14.06-78.54,79.93-323.15,117.42c-96,16.22-106.89,33.71-106.47,67.89Z"/><path class="cls-8" d="M1319.78,465.15c-3.94-7.53-9.76-4.17-9.76-4.17s-93,119-165.7,222.26-9.13,199-9.13,199c180.15-126.65,305-224.09,305-224.09C1438,626,1323.71,472.68,1319.78,465.15Z"/><g class="cls-11"><path d="M1310.19,477.62s89,94,118.35,160.36c10.58,28.92-13.24,38.86-238.17,188.24,0,0,51.33-46.88,123.61-109.84s73.32-82.36,46.07-135.23S1310.19,477.62,1310.19,477.62Z"/></g><g class="cls-9"><path class="cls-6" d="M1144.83,798.91a37.66,37.66,0,0,1-4.69-9.93,67,67,0,0,1-2.49-10.75,88.38,88.38,0,0,1-.35-22,113.45,113.45,0,0,1,4.42-21.51,142.75,142.75,0,0,1,8-20.24A157.8,157.8,0,0,1,1173.83,679c2.42-2.61,4.88-5.18,7.42-7.66s5.23-4.82,7.94-7.12,5.56-4.45,8.48-6.51,6-4,9.14-5.74c-1.36,3.4-2.9,6.61-4.49,9.74s-3.11,6.28-4.73,9.32-3.16,6.13-4.82,9.09-3.18,6-4.83,8.93c-6.4,11.84-12.64,23.43-18.45,35.11-2.84,5.86-5.59,11.73-8.18,17.67s-4.94,12-7.14,18.06-4.14,12.35-5.76,18.8A120.38,120.38,0,0,0,1144.83,798.91Z"/></g><path class="cls-8" d="M580.49,269.75c-17.83-.09-32.81,0-38.12.51h0c-10.46,72,0,165.56,6.42,211.16l50.24-.76,0,0C549.77,399.66,580.49,269.75,580.49,269.75Z"/><g class="cls-9"><path class="cls-6" d="M551.55,431.44s-11-89-3.12-102.57C548.43,328.87,560.47,384.7,551.55,431.44Z"/></g><g class="cls-9"><path class="cls-6" d="M30.46,1422.32s-9.19-50.53,13.69-71.35c0,0,2.89,5-4.06,22.65S30.46,1422.32,30.46,1422.32Z"/></g><path d="M977.28,1148.19C825.12,1236,645.85,1332.61,476.07,1407.06,251.81,1505.52,72.4,1523.37,22.75,1526.49a5.5,5.5,0,1,1-.69-11c49.19-3.1,227-20.79,449.59-118.53,348.44-152.79,737.19-399.1,848-470.95,169.37-109.79,205.89-155.53,206.24-156a5.5,5.5,0,0,1,8.71,6.71c-1.44,1.87-37.2,47.16-209,158.5C1268.63,972.24,1138.09,1055.35,977.28,1148.19Z"/><path class="cls-8" d="M652.57,1247h0c-16.13,9.28-32.26,18.43-47.93,27.19a5.5,5.5,0,0,1-5.37-9.6c15.63-8.74,31.72-17.87,47.82-27.13a5.5,5.5,0,0,1,5.49,9.54Zm23.82-13.8a5.5,5.5,0,0,1-5.52-9.52c15.56-9.07,31.5-18.48,47.38-28l.07,0a5.5,5.5,0,0,1,5.57,9.49c-15.91,9.51-31.89,18.94-47.48,28Zm-95.8,54.33-.1.06c-16.31,9-32.62,17.8-48.46,26.23a5.5,5.5,0,0,1-5.17-9.72c15.8-8.4,32.06-17.2,48.32-26.15a5.5,5.5,0,0,1,5.41,9.58ZM747.43,1191a5.5,5.5,0,0,1-5.59-9.47c15.39-9.3,31.18-19,46.92-28.66a5.5,5.5,0,1,1,5.77,9.37c-15.76,9.73-31.58,19.39-47,28.71Zm70.31-43.16a5.5,5.5,0,0,1-5.66-9.44c15.33-9.56,31-19.41,46.55-29.3a5.5,5.5,0,1,1,5.9,9.29c-15.58,9.9-31.27,19.77-46.63,29.35Zm-309.88,178.7-.21.11c-16.56,8.65-33.07,17.09-49.08,25.1a5.51,5.51,0,0,1-4.92-9.85c16-8,32.41-16.39,48.91-25a5.5,5.5,0,0,1,5.3,9.64ZM887.53,1103.7a5.5,5.5,0,0,1-5.72-9.4c15.26-9.78,30.8-19.83,46.21-29.87a5.5,5.5,0,0,1,6,9.22c-15.43,10-31,20.12-46.28,29.91ZM434.2,1363.77a3.65,3.65,0,0,1-.34.18c-16.85,8.24-33.61,16.21-49.79,23.7a5.5,5.5,0,0,1-4.62-10c16.11-7.46,32.8-15.39,49.58-23.59a5.5,5.5,0,0,1,5.17,9.7Zm522.6-305a5.5,5.5,0,0,1-5.77-9.36c15.07-9.91,30.5-20.13,45.87-30.38a5.5,5.5,0,1,1,6.11,9.15c-15.39,10.27-30.85,20.5-45.94,30.42Zm-597.32,340.1a4.66,4.66,0,0,1-.5.25c-17.17,7.71-34.21,15.09-50.63,21.93a5.5,5.5,0,1,1-4.23-10.15c16.33-6.81,33.27-14.15,50.36-21.81a5.5,5.5,0,0,1,5,9.78ZM1025.57,1013a5.5,5.5,0,0,1-5.82-9.33c15-10.07,30.32-20.45,45.57-30.85a5.5,5.5,0,1,1,6.19,9.09c-15.27,10.41-30.62,20.8-45.62,30.89Zm68.31-46.41a5.5,5.5,0,0,1-5.86-9.31c15-10.32,30.26-20.85,45.26-31.29a5.5,5.5,0,1,1,6.29,9c-15,10.46-30.28,21-45.32,31.33ZM283.52,1431.1a5.17,5.17,0,0,1-.71.34c-17.58,7-34.95,13.62-51.62,19.61a5.5,5.5,0,1,1-3.72-10.35c16.55-6,33.8-12.5,51.26-19.47a5.5,5.5,0,0,1,4.79,9.87Zm878.22-511.58a5.5,5.5,0,0,1-5.9-9.27c14.94-10.47,30.08-21.14,45-31.71a5.5,5.5,0,0,1,6.37,9c-14.92,10.58-30.08,21.26-45,31.74A3.54,3.54,0,0,1,1161.74,919.52Zm67.44-47.69a5.5,5.5,0,0,1-5.94-9.24c14.92-10.65,30-21.45,44.7-32.11a5.5,5.5,0,1,1,6.45,8.91c-14.76,10.68-29.82,21.49-44.76,32.15A2.66,2.66,0,0,1,1229.18,871.83ZM206.1,1459.68a5.65,5.65,0,0,1-1,.45c-18.09,6.08-35.86,11.59-52.8,16.38a5.5,5.5,0,0,1-3-10.58c16.78-4.74,34.37-10.2,52.29-16.23a5.5,5.5,0,0,1,4.51,10ZM1296.2,823.54a5.5,5.5,0,0,1-6-9.22c14.75-10.72,29.7-21.66,44.42-32.51a5.5,5.5,0,0,1,6.53,8.86c-14.75,10.86-29.71,21.81-44.48,32.55A5.14,5.14,0,0,1,1296.2,823.54Zm66.6-48.9a5.5,5.5,0,0,1-6-9.19c14.93-11.07,29.77-22.15,44.11-32.93a5.5,5.5,0,1,1,6.61,8.79c-14.35,10.79-29.22,21.89-44.17,33A6.06,6.06,0,0,1,1362.8,774.64ZM127,1483.08a5.48,5.48,0,0,1-1.41.57c-18.76,4.7-37,8.6-54.19,11.58a5.51,5.51,0,0,1-1.88-10.85c16.94-2.93,34.9-6.77,53.39-11.4a5.5,5.5,0,0,1,4.09,10.1Zm1302-758a5.5,5.5,0,0,1-6.07-9.15c27.85-21.12,43.61-33.41,43.77-33.53a5.5,5.5,0,0,1,6.77,8.67c-.16.12-16,12.46-43.9,33.63A5.13,5.13,0,0,1,1428.94,725.07ZM46,1498.64a5.51,5.51,0,0,1-2.07.69c-11.21,1.4-22.21,2.41-32.7,3a5.5,5.5,0,1,1-.61-11c10.23-.57,21-1.56,32-2.93A5.5,5.5,0,0,1,46,1498.64Z"/><path d="M1148.92,861.12l-.3.16a3.85,3.85,0,0,1-5.12-1.87c-2.33-5-4.47-10.28-6.35-15.64a3.85,3.85,0,0,1,7.27-2.55c1.8,5.13,3.84,10.16,6.06,14.94A3.85,3.85,0,0,1,1148.92,861.12ZM1138,830a3.5,3.5,0,0,1-1,.4,3.84,3.84,0,0,1-4.65-2.82c-.9-3.68-1.68-7.42-2.33-11.12-.32-1.83-.61-3.67-.86-5.46a3.85,3.85,0,1,1,7.63-1.07c.24,1.71.52,3.46.82,5.21.61,3.53,1.36,7.1,2.22,10.61A3.86,3.86,0,0,1,1138,830Zm-4.58-32.63a3.72,3.72,0,0,1-1.78.51,3.85,3.85,0,0,1-4-3.71,155.94,155.94,0,0,1,.3-16.9,3.86,3.86,0,0,1,7.69.56,145.59,145.59,0,0,0-.29,16.06A3.85,3.85,0,0,1,1133.45,797.38Zm2.41-32.84a3.85,3.85,0,0,1-5.71-4,156,156,0,0,1,4-16.43,3.85,3.85,0,1,1,7.37,2.22,148.6,148.6,0,0,0-3.8,15.62A3.82,3.82,0,0,1,1135.86,764.54Zm9.51-31.54a3.85,3.85,0,0,1-5.48-4.83c2.14-5.1,4.6-10.21,7.3-15.21a3.85,3.85,0,0,1,6.77,3.67c-2.58,4.77-4.93,9.66-7,14.53A3.89,3.89,0,0,1,1145.37,733ZM1161,704a3.85,3.85,0,0,1-5.14-5.46c1.07-1.61,2.18-3.24,3.3-4.83q3.09-4.38,6.22-8.8a3.85,3.85,0,1,1,6.29,4.45q-3.14,4.41-6.21,8.78c-1.08,1.53-2.15,3.1-3.18,4.65A3.88,3.88,0,0,1,1161,704Zm19-27a3.85,3.85,0,0,1-5.06-5.58q4.8-6.69,9.65-13.42a3.85,3.85,0,0,1,6.25,4.5q-4.85,6.72-9.64,13.4A3.92,3.92,0,0,1,1180,677Zm19.34-26.8a3.85,3.85,0,0,1-5-5.6q4.88-6.69,9.75-13.34a3.85,3.85,0,0,1,6.21,4.55q-4.86,6.63-9.73,13.32A3.78,3.78,0,0,1,1199.38,650.21Zm19.52-26.64a3.85,3.85,0,0,1-5-5.62q5-6.71,9.83-13.3a3.85,3.85,0,0,1,6.19,4.59q-4.87,6.59-9.82,13.28A3.77,3.77,0,0,1,1218.9,623.57ZM1238.58,597a3.86,3.86,0,0,1-5-5.64q5-6.72,9.9-13.24a3.85,3.85,0,0,1,6.16,4.62q-4.87,6.51-9.88,13.22A3.82,3.82,0,0,1,1238.58,597Zm19.81-26.45a3.85,3.85,0,0,1-5-5.65q5.08-6.75,10-13.19a3.85,3.85,0,0,1,6.14,4.64l-10,13.18A3.8,3.8,0,0,1,1258.39,570.58Zm19.92-26.36a3.85,3.85,0,0,1-5-5.66q5.19-6.84,10-13.15a3.85,3.85,0,1,1,6.12,4.67l-10,13.14A3.73,3.73,0,0,1,1278.31,544.22Zm20-26.27a3.85,3.85,0,0,1-5-5.68q5.43-7.08,10.07-13.11a3.85,3.85,0,1,1,6.1,4.7c-3.08,4-6.44,8.38-10.06,13.1A3.81,3.81,0,0,1,1298.35,518Zm20.16-26.2a3.85,3.85,0,0,1-5-5.69c5.25-6.79,8.78-11.33,10.15-13.09a3.85,3.85,0,0,1,6.08,4.73c-1.37,1.76-4.89,6.29-10.14,13.07A3.84,3.84,0,0,1,1318.51,491.75Z"/><path d="M1135.19,882.28a146.87,146.87,0,0,1-14.72-26.88A180.49,180.49,0,0,1,1106,795.48a172.7,172.7,0,0,1,.85-31.16c.36-2.58.67-5.18,1.07-7.75l1.45-7.7c.51-2.56,1.22-5.07,1.83-7.62s1.41-5,2.17-7.53,1.51-5,2.46-7.44,1.79-4.91,2.77-7.33l3.15-7.18.78-1.79c.28-.6.59-1.17.87-1.76l1.77-3.49c2.24-4.73,5-9.17,7.6-13.69,1.33-2.25,2.83-4.38,4.24-6.57s2.85-4.4,4.32-6.45c5.87-8.32,11.72-16.67,17.67-24.93q35.67-49.65,73.42-97.69c25.1-32.06,50.77-63.7,77.56-94.42-23.17,33.53-46.91,66.58-70.7,99.58L1168,659.5c-6,8.22-11.82,16.53-17.74,24.78-1.53,2.06-2.86,4.12-4.26,6.17s-2.83,4.08-4.12,6.2c-2.52,4.26-5.18,8.45-7.41,12.87l-1.75,3.28c-.28.55-.59,1.09-.86,1.65l-.78,1.68-3.12,6.73c-1,2.28-1.85,4.59-2.79,6.88s-1.75,4.63-2.54,7a170.19,170.19,0,0,0-7.24,28.79,181.28,181.28,0,0,0,.59,59.56c.8,5,1.89,9.86,3.08,14.75s2.66,9.72,4.26,14.51,3.35,9.55,5.33,14.21A139.49,139.49,0,0,0,1135.19,882.28Z"/><path d="M447.32,1242l-.05,0a56.78,56.78,0,0,1-16.51,6.17,3.85,3.85,0,0,1-1.5-7.56,48.69,48.69,0,0,0,14.26-5.34,3.85,3.85,0,0,1,3.8,6.7Zm13.22-9.8a3.85,3.85,0,0,1-4.61-6.1A46.06,46.06,0,0,0,465,1214a3.85,3.85,0,1,1,6.87,3.48,53.74,53.74,0,0,1-10.56,14.19A3.83,3.83,0,0,1,460.54,1232.21Zm-45,16.1a3.84,3.84,0,0,1-2.37.49,93.33,93.33,0,0,1-16.76-3.84,3.85,3.85,0,0,1,2.29-7.35,85.14,85.14,0,0,0,15.37,3.54,3.85,3.85,0,0,1,1.47,7.16Zm59.4-45a3.84,3.84,0,0,1-5.75-3.69,41,41,0,0,0,.12-5.66,43.89,43.89,0,0,0-1.47-9.35,3.85,3.85,0,0,1,7.45-2,52.65,52.65,0,0,1,1.72,11,50.12,50.12,0,0,1-.15,6.72A3.84,3.84,0,0,1,474.91,1203.28Zm-91.25,36.59a3.83,3.83,0,0,1-2.79.42,44.22,44.22,0,0,0-15.1-1,3.85,3.85,0,0,1-.83-7.66,52,52,0,0,1,17.65,1.16,3.85,3.85,0,0,1,2.89,4.62A3.8,3.8,0,0,1,383.66,1239.87Zm-32.28,3.06a5,5,0,0,1-.52.25c-2,.8-4.14,1.73-6.31,2.78-2.63,1.27-5.35,2.61-8.3,4.1a3.85,3.85,0,0,1-3.46-6.88c3-1.51,5.74-2.87,8.41-4.15,2.34-1.14,4.64-2.15,6.83-3a3.85,3.85,0,0,1,3.35,6.91Zm-29.59,14.61-.13.07c-4.55,2.41-9.29,5-14.49,7.79a3.85,3.85,0,0,1-3.69-6.76c5.23-2.85,10-5.42,14.58-7.84a3.85,3.85,0,0,1,3.73,6.74Zm-29,15.78-.06,0-14.4,8a3.85,3.85,0,1,1-3.76-6.72l14.42-8.05a3.85,3.85,0,0,1,3.8,6.7ZM264,1289.43l0,0-14.42,8.06a3.87,3.87,0,0,1-5.24-1.49,3.81,3.81,0,0,1,1.49-5.24l14.4-8a3.85,3.85,0,0,1,3.81,6.69ZM467,1171.78a3.86,3.86,0,0,1-5.26-1.4,84.17,84.17,0,0,0-9.23-12.76,3.85,3.85,0,1,1,5.8-5.06,91.14,91.14,0,0,1,10.09,14,3.84,3.84,0,0,1-1.39,5.26Zm-231.9,133.7-.07,0q-7.26,4-14.53,7.91a3.85,3.85,0,0,1-3.65-6.78q7.25-3.9,14.47-7.88a3.85,3.85,0,0,1,3.78,6.71Zm-29.07,15.64-.14.08c-5,2.64-10,5.19-14.73,7.59a3.85,3.85,0,0,1-3.48-6.87c4.71-2.38,9.63-4.92,14.63-7.54a3.85,3.85,0,0,1,3.72,6.74ZM176.59,1336l-.26.14c-5.14,2.48-10.19,4.85-15,7a3.85,3.85,0,1,1-3.19-7c4.78-2.17,9.78-4.51,14.87-7a3.85,3.85,0,0,1,3.6,6.8Zm-30.06,13.64-.44.22c-3.08,1.29-6.15,2.55-9.13,3.74-2.12.84-4.21,1.66-6.29,2.46a3.85,3.85,0,0,1-2.76-7.19q3.06-1.17,6.2-2.43c2.93-1.16,6-2.4,9-3.68a3.85,3.85,0,0,1,3.42,6.88Zm-30.81,11.84a5,5,0,0,1-.66.31c-5.51,1.91-10.85,3.64-15.86,5.14a3.85,3.85,0,0,1-2.21-7.38c4.91-1.47,10.14-3.16,15.54-5a3.85,3.85,0,0,1,3.19,7Zm-31.64,9.37a4.1,4.1,0,0,1-1.06.41c-1.78.41-3.53.79-5.21,1.13-2.71.54-6.81,1.37-11.48,1.88a3.85,3.85,0,0,1-.85-7.65c4.33-.48,8.08-1.23,10.81-1.78,1.61-.32,3.29-.69,5-1.08a3.85,3.85,0,0,1,2.79,7.09Zm-32.72,2.77a3.81,3.81,0,0,1-2.54.47,35.72,35.72,0,0,1-16.85-7,3.85,3.85,0,0,1,4.8-6,28.14,28.14,0,0,0,13.28,5.47,3.84,3.84,0,0,1,1.31,7.13Z"/><path d="M409.56,1136.71a21.41,21.41,0,0,0,3.78,7.5,32.49,32.49,0,0,0,5.92,6,20.55,20.55,0,0,0,1.68,1.27c.57.41,1.14.83,1.73,1.17l1.77,1.09c.67.36,1.35.77,2,1.18a72.43,72.43,0,0,1,7.4,5.42,76.76,76.76,0,0,1,12.81,13.21,43,43,0,0,1,8.34,17.4,26.1,26.1,0,0,1-3.94,20.17,34.26,34.26,0,0,1-3.16,4.07c-.57.63-1.18,1.19-1.77,1.78a20.78,20.78,0,0,1-1.85,1.68l-1.9,1.56c-.64.52-1.34.94-2,1.42a43.66,43.66,0,0,1-4.22,2.59,35.73,35.73,0,0,1-9.61,3.5,35.2,35.2,0,0,1-10.22.4,50.8,50.8,0,0,1-9.46-2c-3-.87-5.83-1.88-8.59-2.87a132.19,132.19,0,0,0-16.32-5.13,63.44,63.44,0,0,0-16.67-1.7,72.7,72.7,0,0,0-16.85,2.62,97.69,97.69,0,0,0-16.23,6.17c-21.26,10-41.6,22-61.65,34.37l-15.06,9.28-7.53,4.64-7.58,4.57c-10.12,6.08-20.38,11.93-30.68,17.73-5.18,2.85-10.33,5.76-15.55,8.57s-10.42,5.61-15.71,8.29l-7.92,4c-2.66,1.33-5.35,2.58-8,3.88-5.34,2.6-10.78,5-16.23,7.4-1.37.59-2.72,1.2-4.1,1.77l-4.14,1.68-8.31,3.32c-5.56,2.12-11.16,4.16-16.82,6s-11.35,3.67-17.11,5.3-11.6,3-17.52,4.19a102.68,102.68,0,0,1-18.22,2.19,45.82,45.82,0,0,1-4.8-.16,23.45,23.45,0,0,1-5.06-1,12.84,12.84,0,0,1-2.67-1.18,8.55,8.55,0,0,1-2.56-2.23,7.08,7.08,0,0,1-1.42-3.38,8.5,8.5,0,0,1,.16-3.22,16.31,16.31,0,0,1,2.11-4.85,31.88,31.88,0,0,1,2.85-3.82,70.1,70.1,0,0,1,6.41-6.48,147.11,147.11,0,0,1,14.09-11l.7.85c-4.23,4.11-8.4,8.27-12.2,12.65a65.28,65.28,0,0,0-5.27,6.77,31.23,31.23,0,0,0-2.06,3.52,10.67,10.67,0,0,0-1.1,3.34,2.81,2.81,0,0,0,.07,1.17,1.24,1.24,0,0,0,.38.59,5,5,0,0,0,2.29,1,26.78,26.78,0,0,0,7.69.13,111.73,111.73,0,0,0,16.66-3.35c5.56-1.49,11.08-3.25,16.57-5.13s11-3.85,16.4-6,10.85-4.28,16.23-6.53l8-3.46,4-1.72c1.34-.58,2.66-1.21,4-1.81,21.26-9.59,42.34-19.85,63.23-30.59l31.31-16.29c10.45-5.42,21-10.68,31.53-16,21.1-10.59,42-21.56,63-32.3,10.53-5.46,21.89-10.08,34.14-11.65a70.1,70.1,0,0,1,18.53.08,118.4,118.4,0,0,1,17.78,4.07c5.67,1.62,11.09,3.35,16.17,3.77a25,25,0,0,0,14.34-2.76,35.71,35.71,0,0,0,3.34-2c.53-.38,1.11-.71,1.62-1.11l1.55-1.2a12.63,12.63,0,0,0,1.46-1.25c.46-.44,1-.85,1.39-1.3a25.82,25.82,0,0,0,2.33-2.84,18.52,18.52,0,0,0,3-6.34,19.8,19.8,0,0,0,.26-7.14,37.67,37.67,0,0,0-6-14.61,73.07,73.07,0,0,0-5-6.77,85.3,85.3,0,0,0-5.71-6.34c-2-2-4.15-3.93-6.31-5.73-.54-.43-1.08-.86-1.67-1.27l-1.83-1.46c-.63-.48-1.19-1-1.76-1.54a23.12,23.12,0,0,1-1.67-1.61,33.68,33.68,0,0,1-5.52-7.43,24.17,24.17,0,0,1-1.82-4.25,16.83,16.83,0,0,1-.87-4.55Z"/><path d="M1065.23,243.7c-.91.93-1.86,1.78-2.79,2.66s-1.91,1.7-2.87,2.53l-2.92,2.5-3,2.37c-4,3.23-8.15,6.14-12.29,9.13L1039.8,264l-1.6,1.05-3.2,2.09-6.42,4.19c-4.34,2.67-8.76,5.23-13.14,7.85-2.18,1.35-4.45,2.5-6.69,3.73l-6.74,3.63c-2.25,1.2-4.48,2.45-6.76,3.6l-6.88,3.35c-4.6,2.22-9.16,4.52-13.8,6.66l-14,6.13c-37.59,16-76.62,28.43-116.16,38.62l-14.82,3.88c-2.46.68-5,1.21-7.45,1.76l-7.47,1.67c-10,2.22-19.91,4.58-29.9,6.7-10,1.87-20.06,3.7-30.12,5.43l-15,2.52c-5,.79-9.94,1.65-14.9,2.54-9.94,1.7-19.81,3.67-29.54,6-4.89,1.11-9.69,2.43-14.46,3.82s-9.43,3.06-14,4.92a72.7,72.7,0,0,0-12.87,6.71,38.76,38.76,0,0,0-10.26,9.71,34.29,34.29,0,0,0-3.51,6.2,47.37,47.37,0,0,0-2.28,6.94,66.62,66.62,0,0,0-1.31,7.36c-.35,2.49-.54,5-.72,7.55h0a.56.56,0,0,1-.59.51.55.55,0,0,1-.51-.5,79.32,79.32,0,0,1-.08-15.49,46,46,0,0,1,1.57-7.79,39.43,39.43,0,0,1,3.17-7.47A43.93,43.93,0,0,1,650,385.63a74.44,74.44,0,0,1,13.49-8.52c9.41-4.79,19.29-8.11,29.18-11.09s19.92-5.26,30-7.42c5-1,10-2,15.11-2.93s10-1.75,15-2.63q15-2.54,30-4.83c2.52-.34,5-.9,7.47-1.34l7.47-1.39,14.92-2.81,7.46-1.42c2.49-.47,5-.92,7.44-1.52l14.8-3.38c39.46-9,78.48-20.3,116.16-35.16l14.13-5.6c4.66-2,9.25-4.08,13.89-6.12l6.94-3.08c2.3-1.07,4.55-2.23,6.82-3.34l6.81-3.37c2.26-1.14,4.56-2.21,6.76-3.47,4.43-2.45,8.9-4.83,13.3-7.33l6.5-3.93,3.25-2,1.63-1,1.58-1.05c4.22-2.79,8.5-5.52,12.55-8.55l3.07-2.24,3-2.35c2-1.54,3.94-3.2,5.78-4.88l0,0a.55.55,0,0,1,.78,0A.56.56,0,0,1,1065.23,243.7Z"/><path d="M1055.85,685.16a3.85,3.85,0,0,1-4-6.58c4.2-2.67,8.66-5.79,13.25-9.28a3.85,3.85,0,1,1,4.66,6.14c-4.77,3.61-9.4,6.86-13.79,9.64Zm-14.44,7.94a3.65,3.65,0,0,1-.34.18c-1.1.5-2.21,1-3.29,1.41-3.8,1.54-8.06,3-12.67,4.46a3.85,3.85,0,1,1-2.26-7.36c4.39-1.35,8.44-2.78,12-4.24q1.47-.59,3-1.29a3.85,3.85,0,0,1,3.52,6.84Zm40.8-27.75a3.85,3.85,0,0,1-4.42-6.27c3.93-3.35,8-7,12.21-10.86a3.85,3.85,0,1,1,5.23,5.65c-4.24,3.93-8.43,7.65-12.44,11.07A4.38,4.38,0,0,1,1082.21,665.35Zm-72.27,37.72a3.72,3.72,0,0,1-1.05.42c-5.08,1.18-10.58,2.33-16.36,3.41a3.85,3.85,0,1,1-1.41-7.57c5.66-1.06,11-2.18,16-3.34a3.85,3.85,0,0,1,2.81,7.08ZM1106.48,643a3.85,3.85,0,0,1-4.63-6.08c3.73-3.67,7.62-7.59,11.55-11.65a3.85,3.85,0,0,1,5.54,5.36c-4,4.11-7.91,8.07-11.69,11.78A3.59,3.59,0,0,1,1106.48,643Zm-129,66.22a3.68,3.68,0,0,1-1.35.47c-5.21.8-10.75,1.58-16.47,2.31a3.86,3.86,0,1,1-1-7.65c5.65-.72,11.13-1.48,16.28-2.27a3.85,3.85,0,0,1,2.51,7.14Zm152-89.91a3.85,3.85,0,0,1-4.74-6c3.61-3.88,7.35-8,11.1-12.13a3.85,3.85,0,0,1,5.72,5.16c-3.78,4.19-7.54,8.3-11.18,12.22A3.81,3.81,0,0,1,1129.45,619.29Zm22.1-24.52a3.85,3.85,0,0,1-4.83-5.87c3.49-4,7.11-8.17,10.77-12.45a3.85,3.85,0,1,1,5.85,5c-3.67,4.3-7.31,8.51-10.82,12.52A4.05,4.05,0,0,1,1151.55,594.77ZM944.65,713.41a3.83,3.83,0,0,1-1.52.49c-5.33.57-10.88,1.12-16.52,1.63a3.85,3.85,0,0,1-.69-7.67c5.59-.51,11.11-1.05,16.39-1.62a3.86,3.86,0,0,1,2.34,7.17ZM1173,569.68a3.85,3.85,0,0,1-4.88-5.81c3.44-4.11,7-8.37,10.5-12.68a3.85,3.85,0,0,1,6,4.89c-3.55,4.32-7.1,8.61-10.56,12.74A4,4,0,0,1,1173,569.68ZM911.72,716.4a3.79,3.79,0,0,1-1.64.5c-5.37.41-10.94.8-16.54,1.16a3.85,3.85,0,0,1-.5-7.69c5.58-.35,11.11-.74,16.46-1.15a3.86,3.86,0,0,1,2.22,7.18ZM1194,544.18a3.85,3.85,0,0,1-4.92-5.76q5.22-6.48,10.3-12.86a3.85,3.85,0,0,1,6,4.79q-5.08,6.39-10.34,12.91A3.88,3.88,0,0,1,1194,544.18ZM878.71,718.52A4,4,0,0,1,877,719c-5.44.29-11,.56-16.55.8a3.85,3.85,0,0,1-.34-7.7c5.52-.24,11.06-.5,16.48-.79a3.85,3.85,0,0,1,2.13,7.18Zm335.78-200.2a3.85,3.85,0,0,1-5-5.71c3.47-4.42,6.84-8.77,10.12-13a3.85,3.85,0,1,1,6.1,4.7q-4.93,6.39-10.15,13.06A3.76,3.76,0,0,1,1214.49,518.32ZM845.67,720a3.88,3.88,0,0,1-1.79.51c-5.64.2-11.17.37-16.56.51a3.85,3.85,0,1,1-.21-7.7c5.38-.14,10.89-.31,16.5-.51a3.86,3.86,0,0,1,2.06,7.19Zm389-227.79a3.85,3.85,0,0,1-5-5.67q5.22-6.84,10-13.15a3.85,3.85,0,0,1,6.16,4.63c-3.16,4.21-6.5,8.62-10,13.19A3.86,3.86,0,0,1,1234.67,492.18Zm19.85-26.4a3.85,3.85,0,0,1-5-5.63c3.62-4.87,6.9-9.32,9.79-13.27a3.85,3.85,0,1,1,6.21,4.55c-2.9,4-6.19,8.42-9.81,13.31A3.72,3.72,0,0,1,1254.52,465.78ZM812.6,720.86a3.71,3.71,0,0,1-1.85.51c-5.75.11-11.29.2-16.56.26a3.85,3.85,0,1,1-.1-7.7c5.26-.06,10.78-.15,16.51-.26a3.85,3.85,0,0,1,2,7.19ZM1274,439.12a3.86,3.86,0,0,1-5.06-5.59c2.26-3.13,3.73-5.19,4.3-6l.09-.12,5.56-7.23a3.85,3.85,0,0,1,6.1,4.7l-5.52,7.17c-.6.85-2.06,2.9-4.27,6A3.76,3.76,0,0,1,1274,439.12ZM779.52,721.26a3.83,3.83,0,0,1-1.9.51c-6.12,0-11.68,0-16.58,0a3.85,3.85,0,1,1,0-7.7c4.88,0,10.42,0,16.52,0a3.85,3.85,0,0,1,1.94,7.19Zm-33.12-.09a3.82,3.82,0,0,1-2,.51c-3,0-5-.07-6-.08l-10.52.08a3.85,3.85,0,0,1-.06-7.7l10.62-.09,6,.09a3.85,3.85,0,0,1,1.87,7.19Z"/><path d="M1258.72,416.69c-13.93,21.6-28.69,42.65-43.68,63.53q-11.32,15.61-22.94,31c-7.73,10.28-15.68,20.39-23.65,30.49s-16.1,20.09-24.44,29.91-16.76,19.57-25.41,29.15q-6.46,7.2-13.19,14.18T1091.8,628.8q-6.9,6.84-14.11,13.41c-4.8,4.38-9.71,8.68-14.81,12.79s-10.4,8-16,11.67c-2.78,1.83-5.67,3.54-8.65,5.16-1.48.82-3,1.55-4.56,2.32l-2.39,1-1.19.52-1.18.44c-12.56,4.8-25.31,7.75-38.11,10.14s-25.63,4.06-38.47,5.48l-9.63,1-9.64.89-9.64.73-9.64.64c-12.86.79-25.72,1.45-38.58,1.82s-25.73.6-38.58.68c-25.72.05-51.42-.33-77.09-1.61,25.67-1.17,51.31-2.23,76.92-3.78,12.8-.72,25.6-1.52,38.37-2.49s25.54-1.93,38.27-3.17c25.44-2.58,50.89-5.36,75.74-10.42l4.65-1,4.61-1c3.1-.65,6.12-1.48,9.17-2.23,1.53-.38,3-.84,4.52-1.26s3-.85,4.47-1.35l4.42-1.45,4.3-1.63a85.38,85.38,0,0,0,16-8.59c5.16-3.4,10.15-7.18,15-11.12,9.82-7.86,19.18-16.45,28.3-25.31S1102.21,603,1111,593.74c17.52-18.58,34.22-38,50.88-57.45,8.3-9.75,16.44-19.64,24.62-29.51S1202.72,487,1210.77,477C1226.92,457,1242.82,436.87,1258.72,416.69Z"/><path d="M1041.6,944.32a3.64,3.64,0,0,1-1.14.43,3.85,3.85,0,0,1-4.55-3l-3.37-16.16a3.85,3.85,0,1,1,7.54-1.57l3.37,16.16A3.87,3.87,0,0,1,1041.6,944.32ZM1034.87,912a3.92,3.92,0,0,1-1.14.44,3.85,3.85,0,0,1-4.55-3l-3.37-16.15a3.85,3.85,0,1,1,7.54-1.58l3.37,16.16A3.87,3.87,0,0,1,1034.87,912Zm-6.73-32.31a3.64,3.64,0,0,1-1.14.43,3.85,3.85,0,0,1-4.56-3L1019.08,861a3.85,3.85,0,0,1,7.54-1.57l3.36,16.16A3.85,3.85,0,0,1,1028.14,879.69Zm-6.73-32.32a4,4,0,0,1-1.14.44,3.87,3.87,0,0,1-4.56-3l-3.36-16.15a3.85,3.85,0,1,1,7.54-1.58l3.36,16.16A3.85,3.85,0,0,1,1021.41,847.37Zm-6.73-32.31a3.73,3.73,0,0,1-1.14.43,3.85,3.85,0,0,1-4.56-3l-3.36-16.16a3.85,3.85,0,0,1,7.54-1.57l3.36,16.16A3.85,3.85,0,0,1,1014.68,815.06Zm-9.09-31.52a3.86,3.86,0,0,1-5.18-1.28,35.34,35.34,0,0,0-10.33-10.55,3.85,3.85,0,0,1,4.26-6.42,43.2,43.2,0,0,1,12.59,12.85,3.87,3.87,0,0,1-1.2,5.32Zm-26.71-17.67a3.81,3.81,0,0,1-2.54.46,36,36,0,0,0-6.73-.43l-9,.28a3.85,3.85,0,1,1-.24-7.7l9-.28a43.2,43.2,0,0,1,8.2.53,3.85,3.85,0,0,1,1.31,7.14Zm-33,.32a3.88,3.88,0,0,1-1.8.51l-16.5.51a3.85,3.85,0,1,1-.24-7.69l16.5-.52a3.85,3.85,0,0,1,2,7.19Zm-33,1a3.8,3.8,0,0,1-1.8.51l-16.5.52a3.85,3.85,0,1,1-.24-7.7l16.5-.52a3.86,3.86,0,0,1,2,7.19Zm-33,1a3.84,3.84,0,0,1-1.81.51l-16.49.52a3.85,3.85,0,1,1-.24-7.7l16.49-.52a3.86,3.86,0,0,1,2,7.19Zm-33,1a3.77,3.77,0,0,1-1.8.51l-16.49.52a3.85,3.85,0,1,1-.24-7.7l16.49-.51a3.85,3.85,0,0,1,2,7.18Zm-33,1a3.88,3.88,0,0,1-1.8.51l-16.49.51a3.85,3.85,0,0,1-.25-7.69l16.5-.52a3.85,3.85,0,0,1,2,7.19Zm-33,1a3.88,3.88,0,0,1-1.8.51l-16.5.52a3.85,3.85,0,1,1-.24-7.7l16.5-.52a3.85,3.85,0,0,1,2,7.19Zm-33,1a3.8,3.8,0,0,1-1.8.51l-16.5.52a3.85,3.85,0,0,1-.24-7.7l16.5-.52a3.85,3.85,0,0,1,2,7.19Zm-33,1a3.8,3.8,0,0,1-1.8.51l-16.5.52a3.85,3.85,0,0,1-.24-7.7l16.5-.51a3.85,3.85,0,0,1,2,7.18Zm-33,1a3.85,3.85,0,0,1-1.81.52l-16.49.51a3.85,3.85,0,1,1-.24-7.69l16.49-.52a3.85,3.85,0,0,1,2.05,7.18Z"/><path d="M763.74,330a99.89,99.89,0,0,0-16.32-24.36,87.82,87.82,0,0,0-23.17-18,107.43,107.43,0,0,0-28-10.13,193.51,193.51,0,0,0-30.17-3.8c-20.55-.9-41.21-1.69-61.81-2.38q-15.47-.52-30.94-.91-7.72-.19-15.46-.29c-2.58,0-5.16-.08-7.74,0l-3.86,0-3.87.14,3.86-.32,3.86-.2c2.58-.14,5.16-.2,7.74-.3q7.74-.26,15.48-.4,15.48-.32,31-.46c20.65-.22,41.25-.35,62-.37a199.66,199.66,0,0,1,31.33,2.55A115,115,0,0,1,728,280.29a96.59,96.59,0,0,1,26.36,18.65A110,110,0,0,1,773.54,325a5.5,5.5,0,1,1-9.67,5.25c0-.07-.07-.13-.1-.2Z"/><path d="M580.49,269.75c-.25,2.49-.51,5-.72,7.46s-.46,5-.67,7.43c-.38,5-.8,9.91-1.12,14.85-.69,9.89-1.22,19.75-1.51,29.61s-.39,19.68-.21,29.5.59,19.6,1.46,29.33a297.61,297.61,0,0,0,10,57.5,206.75,206.75,0,0,0,10,27.47c1,2.25,2.15,4.38,3.21,6.61.55,1.09,1,2.23,1.65,3.3l1.82,3.21c2.3,4.39,5.14,8.43,7.77,12.72-1.79-1.73-3.54-3.52-5.32-5.3a33.3,33.3,0,0,1-2.54-2.79l-2.42-2.9-2.42-2.93c-.8-1-1.48-2.05-2.22-3.07l-2.17-3.12c-.71-1.05-1.5-2.06-2.12-3.16a156.22,156.22,0,0,1-13.47-27.29c-7.18-19.06-11.14-39.19-12.78-59.34-.44-5-.66-10.08-.87-15.13-.06-5-.19-10.09,0-15.13q.33-15.12,2-30.11t4.78-29.72c1-4.9,2.16-9.79,3.46-14.63S578.79,274.47,580.49,269.75Z"/><path d="M548.7,475.92,599,480.66l-50.16,6.26a5.53,5.53,0,1,1-1.37-11A6,6,0,0,1,548.7,475.92Z"/><path d="M485,1397.09l25.34,32.9a5.55,5.55,0,1,1-8.79,6.78,6.27,6.27,0,0,1-.74-1.27Z"/><path d="M533.56,1375.13l25.06,32.4a5.55,5.55,0,1,1-8.78,6.79,5.42,5.42,0,0,1-.75-1.29Z"/><path d="M582.83,1351.93l24.78,31.92a5.56,5.56,0,1,1-9.53,5.5Z"/><path d="M631.63,1328.16l24.47,31.4a5.55,5.55,0,1,1-9.52,5.5Z"/><path d="M680.36,1303.7l24.21,30.93a5.56,5.56,0,1,1-8.75,6.85,5.67,5.67,0,0,1-.77-1.35Z"/><path d="M731.12,1277.51,755.06,1308a5.56,5.56,0,0,1-8.74,6.87,5.73,5.73,0,0,1-.79-1.37Z"/><path d="M787.84,1247.47l23.66,30a5.56,5.56,0,0,1-8.73,6.89,6.26,6.26,0,0,1-.8-1.39Z"/><path d="M843.16,1217.42,866.57,1247a5.56,5.56,0,1,1-8.71,6.9,5.7,5.7,0,0,1-.82-1.4Z"/><path d="M896.45,1187.82,919.67,1217A5.56,5.56,0,1,1,911,1224a5.35,5.35,0,0,1-.82-1.42Z"/><path d="M950.25,1157.33l23,28.79a5.56,5.56,0,1,1-8.7,6.94,5.79,5.79,0,0,1-.83-1.44Z"/><path d="M1010.56,1122.46l22.87,28.61a5.56,5.56,0,0,1-8.69,7,5.88,5.88,0,0,1-.84-1.45Z"/><path d="M1062.07,1092.84l22.37,27.75a5.57,5.57,0,0,1-8.67,7,5.79,5.79,0,0,1-.85-1.48Z"/><path d="M1113.49,1061.31l22.46,27.9a5.57,5.57,0,1,1-8.67,7,5.4,5.4,0,0,1-.86-1.48Z"/><path d="M1164.48,1030.28l22.17,27.4a5.57,5.57,0,0,1-8.66,7,5.48,5.48,0,0,1-.87-1.51Z"/><path d="M1216.2,998.29,1238,1025a5.57,5.57,0,1,1-8.64,7,5.67,5.67,0,0,1-.88-1.54Z"/><path d="M1268,965.73l21.31,25.91a5.58,5.58,0,0,1-8.61,7.09,5.28,5.28,0,0,1-.91-1.59Z"/><path d="M1318.83,933.14l20.73,24.9a5.58,5.58,0,1,1-8.58,7.14,6,6,0,0,1-1-1.64Z"/><path d="M1368.91,900.09,1389.07,924a5.59,5.59,0,0,1-8.55,7.2,5.7,5.7,0,0,1-1-1.7Z"/><path d="M1445.44,846l19.81,23.31a5.59,5.59,0,1,1-8.52,7.25,5.86,5.86,0,0,1-1-1.74Z"/><path d="M1479.88,821.47l17.82,19.86a5.62,5.62,0,0,1-8.37,7.51,5.92,5.92,0,0,1-1.16-2Z"/><path d="M1506.56,796.88l20.56,24.59a5.59,5.59,0,0,1-8.57,7.17,5.69,5.69,0,0,1-1-1.66Z"/><path d="M492.65,1411.08h0a3.31,3.31,0,0,1-4.36-1.68h0a3.31,3.31,0,0,1,1.68-4.35h0a3.31,3.31,0,0,1,4.35,1.68h0a3.32,3.32,0,0,1-1.37,4.2h0A2.23,2.23,0,0,1,492.65,1411.08Zm-9.07,4a3.3,3.3,0,0,1-4.35-1.7h0a3.28,3.28,0,0,1,1.7-4.34h0a3.29,3.29,0,0,1,4.34,1.69h0a3.3,3.3,0,0,1-1.37,4.19h0A1.91,1.91,0,0,1,483.58,1415.09Zm-9.1,4h0a3.28,3.28,0,0,1-4.33-1.71h0a3.28,3.28,0,0,1,1.71-4.34h0a3.3,3.3,0,0,1,4.35,1.72h0a3.3,3.3,0,0,1-1.38,4.16h0A1.62,1.62,0,0,1,474.48,1419.05Zm-9.12,3.92a3.31,3.31,0,0,1-4.33-1.75h0a3.32,3.32,0,0,1,1.75-4.33h0a3.29,3.29,0,0,1,4.32,1.75h0a3.29,3.29,0,0,1-1.37,4.15h0C465.61,1422.86,465.49,1422.91,465.36,1423Zm-9.14,3.86a3.31,3.31,0,0,1-4.32-1.78h0a3.29,3.29,0,0,1,1.78-4.31h0a3.3,3.3,0,0,1,4.31,1.76h0a3.3,3.3,0,0,1-1.39,4.14h0Zm-9.17,3.79h0a3.29,3.29,0,0,1-4.3-1.79h0a3.3,3.3,0,0,1,1.79-4.32h0a3.3,3.3,0,0,1,4.31,1.81h0a3.31,3.31,0,0,1-1.39,4.11h0A3.75,3.75,0,0,1,447.05,1430.62Zm-9.19,3.75a3.32,3.32,0,0,1-4.3-1.84h0a3.3,3.3,0,0,1,1.83-4.3h0a3.31,3.31,0,0,1,4.3,1.84h0a3.32,3.32,0,0,1-1.41,4.09h0A2.74,2.74,0,0,1,437.86,1434.37Zm-9.21,3.68a3.31,3.31,0,0,1-4.29-1.86h0a3.31,3.31,0,0,1,1.86-4.29h0a3.31,3.31,0,0,1,4.28,1.86h0a3.32,3.32,0,0,1-1.42,4.08h0A4.3,4.3,0,0,1,428.65,1438.05Zm-9.25,3.62a3.3,3.3,0,0,1-4.27-1.88h0a3.32,3.32,0,0,1,1.89-4.28h0a3.3,3.3,0,0,1,4.26,1.89h0a3.28,3.28,0,0,1-1.42,4h0A3.29,3.29,0,0,1,419.4,1441.67Zm-9.26,3.57a3.31,3.31,0,0,1-4.26-1.91h0a3.31,3.31,0,0,1,1.91-4.27h0a3.32,3.32,0,0,1,4.26,1.91h0a3.3,3.3,0,0,1-1.43,4h0A3.54,3.54,0,0,1,410.14,1445.24Zm-9.28,3.5a3.28,3.28,0,0,1-4.24-1.93h0a3.28,3.28,0,0,1,1.93-4.25h0a3.3,3.3,0,0,1,4.24,1.93h0a3.31,3.31,0,0,1-1.43,4h0A2.84,2.84,0,0,1,400.86,1448.74Zm-9.3,3.45a3.32,3.32,0,0,1-4.25-2h0a3.31,3.31,0,0,1,2-4.24h0a3.3,3.3,0,0,1,4.24,2h0a3.32,3.32,0,0,1-1.45,4h0A2.63,2.63,0,0,1,391.56,1452.19Zm-9.33,3.39a3.3,3.3,0,0,1-4.23-2h0a3.3,3.3,0,0,1,2-4.22h0a3.3,3.3,0,0,1,4.22,2h0a3.31,3.31,0,0,1-1.45,4h0A3.7,3.7,0,0,1,382.23,1455.58Zm-9.35,3.34a3.31,3.31,0,0,1-4.21-2h0a3.3,3.3,0,0,1,2-4.21h0a3.31,3.31,0,0,1,4.22,2h0a3.31,3.31,0,0,1-1.46,4h0A2.85,2.85,0,0,1,372.88,1458.92Zm-9.37,3.28a3.3,3.3,0,0,1-4.19-2h0a3.28,3.28,0,0,1,2-4.19h0a3.32,3.32,0,0,1,4.21,2h0a3.3,3.3,0,0,1-1.48,3.94h0A3,3,0,0,1,363.51,1462.2Zm-9.39,3.21h0a3.3,3.3,0,0,1-4.18-2.06h0a3.31,3.31,0,0,1,2.06-4.19h0a3.3,3.3,0,0,1,4.19,2.07h0a3.31,3.31,0,0,1-1.47,3.91h0A2.74,2.74,0,0,1,354.12,1465.41Zm-9.4,3.16a3.29,3.29,0,0,1-4.17-2.1h0a3.28,3.28,0,0,1,2.09-4.16h0a3.29,3.29,0,0,1,4.17,2.09h0a3.3,3.3,0,0,1-1.48,3.89h0A4.22,4.22,0,0,1,344.72,1468.57Zm-9.43,3.1a3.31,3.31,0,0,1-4.16-2.12h0a3.3,3.3,0,0,1,2.12-4.16h0a3.3,3.3,0,0,1,4.16,2.12h0a3.29,3.29,0,0,1-1.49,3.87h0A3.6,3.6,0,0,1,335.29,1471.67Zm-9.45,3a3.3,3.3,0,0,1-4.14-2.15h0a3.31,3.31,0,0,1,2.14-4.15h0a3.32,3.32,0,0,1,4.15,2.15h0a3.31,3.31,0,0,1-1.49,3.86h0A3.89,3.89,0,0,1,325.84,1474.71Zm-9.46,3a3.32,3.32,0,0,1-4.14-2.18h0a3.29,3.29,0,0,1,2.18-4.12h0a3.29,3.29,0,0,1,4.13,2.16h0a3.31,3.31,0,0,1-1.51,3.84h0A3.93,3.93,0,0,1,316.38,1477.69Zm-9.48,2.92a3.31,3.31,0,0,1-4.13-2.2h0a3.31,3.31,0,0,1,2.19-4.12h0a3.3,3.3,0,0,1,4.13,2.19h0a3.31,3.31,0,0,1-1.51,3.82h0A3.76,3.76,0,0,1,306.9,1480.61Zm-9.51,2.85a3.31,3.31,0,0,1-4.11-2.22h0a3.31,3.31,0,0,1,2.22-4.11h0a3.31,3.31,0,0,1,4.11,2.23h0a3.29,3.29,0,0,1-1.51,3.79h0A3,3,0,0,1,297.39,1483.46Zm-9.53,2.8a3.3,3.3,0,0,1-4.09-2.25h0a3.29,3.29,0,0,1,2.25-4.08h0a3.3,3.3,0,0,1,4.1,2.25h0a3.32,3.32,0,0,1-1.52,3.77h0A3.73,3.73,0,0,1,287.86,1486.26Zm-9.53,2.74a3.31,3.31,0,0,1-4.08-2.27h0a3.32,3.32,0,0,1,2.27-4.09h0a3.31,3.31,0,0,1,4.08,2.29h0a3.27,3.27,0,0,1-1.52,3.74h0A3.57,3.57,0,0,1,278.33,1489Zm-9.56,2.67h0a3.29,3.29,0,0,1-4.06-2.3h0a3.29,3.29,0,0,1,2.3-4.06h0a3.31,3.31,0,0,1,4.06,2.3h0a3.3,3.3,0,0,1-1.53,3.74h0A3.29,3.29,0,0,1,268.77,1491.67Zm-9.57,2.61a3.29,3.29,0,0,1-4-2.32h0a3.31,3.31,0,0,1,2.32-4h0a3.33,3.33,0,0,1,4.06,2.33h0A3.33,3.33,0,0,1,260,1494h0A3.44,3.44,0,0,1,259.2,1494.28Zm-9.6,2.56a3.32,3.32,0,0,1-4-2.36h0a3.32,3.32,0,0,1,2.36-4h0a3.31,3.31,0,0,1,4,2.36h0a3.31,3.31,0,0,1-1.54,3.7h0A3.7,3.7,0,0,1,249.6,1496.84Zm-9.61,2.49a3.32,3.32,0,0,1-4-2.39h0a3.29,3.29,0,0,1,2.37-4h0a3.32,3.32,0,0,1,4,2.39h0a3.29,3.29,0,0,1-1.55,3.68h0A3.61,3.61,0,0,1,240,1499.33Zm-9.62,2.41a3.3,3.3,0,0,1-4-2.4h0a3.29,3.29,0,0,1,2.41-4h0a3.31,3.31,0,0,1,4,2.41h0a3.31,3.31,0,0,1-1.55,3.65h0A3.35,3.35,0,0,1,230.37,1501.74Zm-9.64,2.37a3.32,3.32,0,0,1-4-2.44h0a3.29,3.29,0,0,1,2.44-4h0a3.3,3.3,0,0,1,4,2.44h0a3.28,3.28,0,0,1-1.55,3.62h0A3.54,3.54,0,0,1,220.73,1504.11Zm-9.66,2.3a3.32,3.32,0,0,1-4-2.48h0a3.3,3.3,0,0,1,2.46-4h0a3.32,3.32,0,0,1,4,2.46h0A3.3,3.3,0,0,1,212,1506h0A3.71,3.71,0,0,1,211.07,1506.41Zm-9.68,2.22h0a3.29,3.29,0,0,1-4-2.48h0a3.3,3.3,0,0,1,2.48-4h0a3.31,3.31,0,0,1,4,2.49h0a3.32,3.32,0,0,1-1.58,3.59h0A3,3,0,0,1,201.39,1508.63Zm-9.68,2.16a3.3,3.3,0,0,1-3.93-2.52h0a3.29,3.29,0,0,1,2.51-3.93h0a3.3,3.3,0,0,1,3.93,2.52h0a3.31,3.31,0,0,1-1.58,3.56h0A3.24,3.24,0,0,1,191.71,1510.79Zm-9.71,2.08h0a3.29,3.29,0,0,1-3.92-2.54h0a3.31,3.31,0,0,1,2.56-3.91h0a3.29,3.29,0,0,1,3.9,2.54h0a3.28,3.28,0,0,1-1.57,3.54h0A2.72,2.72,0,0,1,182,1512.87Zm-9.72,2a3.3,3.3,0,0,1-3.9-2.57h0a3.31,3.31,0,0,1,2.58-3.9h0a3.32,3.32,0,0,1,3.9,2.57h0a3.32,3.32,0,0,1-1.59,3.52h0A3.22,3.22,0,0,1,172.28,1514.9Zm-9.73,1.95a3.3,3.3,0,0,1-3.88-2.6h0a3.31,3.31,0,0,1,2.6-3.88h0a3.32,3.32,0,0,1,3.88,2.6h0a3.32,3.32,0,0,1-1.59,3.5h0A3.24,3.24,0,0,1,162.55,1516.85Zm-9.76,1.88h0a3.29,3.29,0,0,1-3.85-2.63h0a3.3,3.3,0,0,1,2.64-3.86h0a3.31,3.31,0,0,1,3.85,2.63h0a3.31,3.31,0,0,1-1.59,3.47h0A3.08,3.08,0,0,1,152.79,1518.73Zm-9.76,1.8a3.29,3.29,0,0,1-3.83-2.66h0a3.28,3.28,0,0,1,2.65-3.83h0a3.32,3.32,0,0,1,3.85,2.65h0a3.34,3.34,0,0,1-1.6,3.46h0A3.5,3.5,0,0,1,143,1520.53Zm-9.78,1.74a3.3,3.3,0,0,1-3.81-2.71h0a3.28,3.28,0,0,1,2.69-3.8h0a3.31,3.31,0,0,1,3.82,2.69h0a3.31,3.31,0,0,1-1.61,3.42h0A3.72,3.72,0,0,1,133.25,1522.27Zm-9.79,1.63a3.28,3.28,0,0,1-3.79-2.71h0a3.31,3.31,0,0,1,2.72-3.8h0a3.3,3.3,0,0,1,3.79,2.73h0a3.3,3.3,0,0,1-1.6,3.39h0A2.88,2.88,0,0,1,123.46,1523.9Zm-9.8,1.57a3.3,3.3,0,0,1-3.78-2.75h0a3.31,3.31,0,0,1,2.76-3.76h0a3.3,3.3,0,0,1,3.77,2.75h0a3.28,3.28,0,0,1-1.62,3.36h0A2.94,2.94,0,0,1,113.66,1525.47Zm-9.83,1.5a3.31,3.31,0,0,1-3.74-2.8h0a3.3,3.3,0,0,1,2.79-3.74h0a3.31,3.31,0,0,1,3.74,2.79h0a3.29,3.29,0,0,1-1.62,3.33h0A3.34,3.34,0,0,1,103.83,1527ZM94,1528.36a3.29,3.29,0,0,1-3.71-2.82h0a3.28,3.28,0,0,1,2.82-3.72h0a3.31,3.31,0,0,1,3.72,2.82h0A3.31,3.31,0,0,1,95.2,1528h0A3.21,3.21,0,0,1,94,1528.36Zm-9.84,1.31h0a3.31,3.31,0,0,1-3.7-2.86h0a3.29,3.29,0,0,1,2.87-3.69h0A3.32,3.32,0,0,1,87,1526h0a3.34,3.34,0,0,1-1.64,3.28h0A3.27,3.27,0,0,1,84.15,1529.67Zm-9.86,1.2a3.29,3.29,0,0,1-3.67-2.88h0a3.29,3.29,0,0,1,2.89-3.67h0a3.3,3.3,0,0,1,3.67,2.89h0a3.31,3.31,0,0,1-1.64,3.24h0A3,3,0,0,1,74.29,1530.87ZM64.41,1532a3.29,3.29,0,0,1-3.63-2.92h0a3.3,3.3,0,0,1,2.93-3.64h0a3.3,3.3,0,0,1,3.62,2.94h0a3.27,3.27,0,0,1-1.63,3.2h0A3,3,0,0,1,64.41,1532Zm-9.9,1h0a3.31,3.31,0,0,1-3.61-3h0a3.31,3.31,0,0,1,3-3.6h0a3.3,3.3,0,0,1,3.6,3h0a3.28,3.28,0,0,1-1.64,3.17h0A3.36,3.36,0,0,1,54.51,1533Zm-9.9.89h0a3.32,3.32,0,0,1-3.58-3h0a3.29,3.29,0,0,1,3-3.56h0a3.3,3.3,0,0,1,3.57,3h0a3.31,3.31,0,0,1-1.65,3.14h0A3.5,3.5,0,0,1,44.61,1533.88Zm-9.92.76a3.29,3.29,0,0,1-3.52-3.06h0a3.3,3.3,0,0,1,3-3.53h0a3.28,3.28,0,0,1,3.52,3.06h0a3.3,3.3,0,0,1-1.65,3.08h0A3.11,3.11,0,0,1,34.69,1534.64Z"/><path d="M498.89,1421.79h0a3.31,3.31,0,0,1-4.36-1.68h0a3.31,3.31,0,0,1,1.69-4.36h0a3.31,3.31,0,0,1,4.35,1.69h0a3.31,3.31,0,0,1-1.37,4.19h0A1.82,1.82,0,0,1,498.89,1421.79Zm-9.07,4h0a3.29,3.29,0,0,1-4.35-1.7h0a3.28,3.28,0,0,1,1.7-4.34h0a3.29,3.29,0,0,1,4.34,1.69h0a3.31,3.31,0,0,1-1.37,4.19h0Zm-9.1,4h0a3.31,3.31,0,0,1-4.34-1.72h0a3.32,3.32,0,0,1,1.72-4.34h0a3.3,3.3,0,0,1,4.34,1.72h0a3.28,3.28,0,0,1-1.37,4.16h0A2.31,2.31,0,0,1,480.72,1429.76Zm-9.12,3.91a3.32,3.32,0,0,1-4.33-1.75h0a3.31,3.31,0,0,1,1.75-4.33h0a3.28,3.28,0,0,1,4.32,1.75h0a3.28,3.28,0,0,1-1.38,4.14h0A3,3,0,0,1,471.6,1433.67Zm-9.15,3.85h0a3.3,3.3,0,0,1-4.31-1.77h0a3.31,3.31,0,0,1,1.77-4.32h0a3.3,3.3,0,0,1,4.32,1.78h0a3.3,3.3,0,0,1-1.39,4.12h0A2.81,2.81,0,0,1,462.45,1437.52Zm-9.16,3.8h0a3.31,3.31,0,0,1-4.31-1.81h0a3.29,3.29,0,0,1,1.81-4.3h0a3.3,3.3,0,0,1,4.31,1.8h0a3.31,3.31,0,0,1-1.41,4.11h0A2.38,2.38,0,0,1,453.29,1441.32Zm-9.19,3.73a3.3,3.3,0,0,1-4.3-1.83h0a3.3,3.3,0,0,1,1.83-4.29h0a3.29,3.29,0,0,1,4.29,1.82h0a3.32,3.32,0,0,1-1.41,4.1h0Zm-9.22,3.68h0a3.31,3.31,0,0,1-4.29-1.85h0a3.31,3.31,0,0,1,1.86-4.28h0a3.29,3.29,0,0,1,4.28,1.84h0a3.31,3.31,0,0,1-1.42,4.08h0A2.86,2.86,0,0,1,434.88,1448.73Zm-9.25,3.62a3.28,3.28,0,0,1-4.26-1.88h0a3.3,3.3,0,0,1,1.88-4.27h0a3.31,3.31,0,0,1,4.28,1.88h0a3.32,3.32,0,0,1-1.44,4.06h0A2.78,2.78,0,0,1,425.63,1452.35Zm-9.26,3.57a3.29,3.29,0,0,1-4.25-1.91h0a3.29,3.29,0,0,1,1.9-4.25h0a3.3,3.3,0,0,1,4.27,1.9h0a3.3,3.3,0,0,1-1.44,4h0A2.65,2.65,0,0,1,416.37,1455.92Zm-9.27,3.51a3.3,3.3,0,0,1-4.25-1.94h0a3.29,3.29,0,0,1,1.93-4.24h0a3.28,3.28,0,0,1,4.24,1.93h0a3.27,3.27,0,0,1-1.43,4h0A4.37,4.37,0,0,1,407.1,1459.43Zm-9.31,3.45a3.3,3.3,0,0,1-4.23-2h0a3.28,3.28,0,0,1,1.95-4.23h0a3.29,3.29,0,0,1,4.23,2h0a3.29,3.29,0,0,1-1.44,4h0A4.16,4.16,0,0,1,397.79,1462.88Zm-9.33,3.39h0a3.31,3.31,0,0,1-4.22-2h0a3.31,3.31,0,0,1,2-4.23h0a3.32,3.32,0,0,1,4.23,2h0a3.29,3.29,0,0,1-1.45,4h0A3.76,3.76,0,0,1,388.46,1466.27Zm-9.34,3.32a3.3,3.3,0,0,1-4.22-2h0a3.31,3.31,0,0,1,2-4.21h0a3.32,3.32,0,0,1,4.21,2h0a3.31,3.31,0,0,1-1.46,4h0A2.73,2.73,0,0,1,379.12,1469.59Zm-9.38,3.28a3.28,3.28,0,0,1-4.19-2h0a3.3,3.3,0,0,1,2-4.2h0a3.29,3.29,0,0,1,4.19,2h0a3.29,3.29,0,0,1-1.46,3.94h0A3.4,3.4,0,0,1,369.74,1472.87Zm-9.38,3.22a3.31,3.31,0,0,1-4.19-2.07h0a3.3,3.3,0,0,1,2.07-4.19h0a3.31,3.31,0,0,1,4.18,2.07h0a3.28,3.28,0,0,1-1.48,3.91h0A2.83,2.83,0,0,1,360.36,1476.09Zm-9.42,3.15a3.31,3.31,0,0,1-4.17-2.09h0a3.3,3.3,0,0,1,2.1-4.17h0a3.29,3.29,0,0,1,4.17,2.09h0a3.3,3.3,0,0,1-1.48,3.9h0A2.9,2.9,0,0,1,350.94,1479.24Zm-9.41,3.1h0a3.3,3.3,0,0,1-4.16-2.12h0a3.3,3.3,0,0,1,2.12-4.16h0a3.31,3.31,0,0,1,4.16,2.12h0a3.29,3.29,0,0,1-1.49,3.87h0A3.92,3.92,0,0,1,341.53,1482.34Zm-9.46,3a3.29,3.29,0,0,1-4.15-2.14h0a3.32,3.32,0,0,1,2.15-4.15h0a3.31,3.31,0,0,1,4.15,2.15h0a3.3,3.3,0,0,1-1.5,3.85h0A2.93,2.93,0,0,1,332.07,1485.37Zm-9.46,3v0h0a3.3,3.3,0,0,1-4.13-2.18h0a3.31,3.31,0,0,1,2.18-4.14h0a3.29,3.29,0,0,1,4.12,2.18h0a3.3,3.3,0,0,1-1.49,3.84h0A3.27,3.27,0,0,1,322.61,1488.34Zm-9.49,2.93a3.3,3.3,0,0,1-4.12-2.2h0a3.29,3.29,0,0,1,2.2-4.11h0a3.27,3.27,0,0,1,4.11,2.2h0a3.29,3.29,0,0,1-1.5,3.81h0A3.89,3.89,0,0,1,313.12,1491.27Zm-9.51,2.86h0a3.3,3.3,0,0,1-4.1-2.22h0a3.32,3.32,0,0,1,2.22-4.12h0a3.3,3.3,0,0,1,4.1,2.22h0a3.3,3.3,0,0,1-1.52,3.8h0A3.25,3.25,0,0,1,303.61,1494.13Zm-9.52,2.79a3.3,3.3,0,0,1-4.09-2.25h0a3.28,3.28,0,0,1,2.25-4.08h0a3.3,3.3,0,0,1,4.1,2.24h0a3.32,3.32,0,0,1-1.52,3.78h0A3.73,3.73,0,0,1,294.09,1496.92Zm-9.53,2.73a3.28,3.28,0,0,1-4.08-2.27h0a3.3,3.3,0,0,1,2.27-4.08h0a3.29,3.29,0,0,1,4.07,2.27h0a3.31,3.31,0,0,1-1.53,3.76h0A3.22,3.22,0,0,1,284.56,1499.65Zm-9.57,2.68h0a3.3,3.3,0,0,1-4.06-2.31h0a3.31,3.31,0,0,1,2.31-4.06h0a3.3,3.3,0,0,1,4.05,2.31h0a3.3,3.3,0,0,1-1.53,3.74h0A2.78,2.78,0,0,1,275,1502.33Zm-9.57,2.62a3.3,3.3,0,0,1-4-2.33h0a3.28,3.28,0,0,1,2.32-4h0a3.31,3.31,0,0,1,4.05,2.32h0a3.3,3.3,0,0,1-1.54,3.72h0A3.49,3.49,0,0,1,265.42,1505Zm-9.59,2.54a3.31,3.31,0,0,1-4-2.35h0a3.3,3.3,0,0,1,2.36-4h0a3.28,3.28,0,0,1,4,2.35h0a3.31,3.31,0,0,1-1.54,3.7h0A3.21,3.21,0,0,1,255.83,1507.49Zm-9.62,2.49a3.31,3.31,0,0,1-4-2.39h0a3.29,3.29,0,0,1,2.38-4h0a3.29,3.29,0,0,1,4,2.38h0a3.29,3.29,0,0,1-1.55,3.67h0A3.29,3.29,0,0,1,246.21,1510Zm-9.63,2.42a3.3,3.3,0,0,1-4-2.41h0a3.3,3.3,0,0,1,2.42-4h0a3.3,3.3,0,0,1,4,2.41h0a3.31,3.31,0,0,1-1.55,3.65h0A3.68,3.68,0,0,1,236.58,1512.4Zm-9.63,2.35a3.29,3.29,0,0,1-4-2.43h0a3.29,3.29,0,0,1,2.44-4h0a3.29,3.29,0,0,1,4,2.43h0a3.3,3.3,0,0,1-1.56,3.64h0A3.15,3.15,0,0,1,227,1514.75Zm-9.66,2.3h0a3.31,3.31,0,0,1-4-2.47h0a3.3,3.3,0,0,1,2.47-4h0a3.3,3.3,0,0,1,4,2.46h0a3.3,3.3,0,0,1-1.56,3.61h0A3.53,3.53,0,0,1,217.29,1517.05Zm-9.68,2.23a3.31,3.31,0,0,1-3.94-2.5h0a3.28,3.28,0,0,1,2.49-3.94h0a3.3,3.3,0,0,1,4,2.48h0a3.32,3.32,0,0,1-1.57,3.59h0A3.48,3.48,0,0,1,207.61,1519.28Zm-9.68,2.15h0a3.32,3.32,0,0,1-3.94-2.52h0a3.31,3.31,0,0,1,2.53-3.93h0a3.32,3.32,0,0,1,3.94,2.52h0a3.33,3.33,0,0,1-1.57,3.58h0A3.4,3.4,0,0,1,197.93,1521.43Zm-9.71,2.09a3.3,3.3,0,0,1-3.91-2.54h0a3.3,3.3,0,0,1,2.55-3.92h0a3.3,3.3,0,0,1,3.9,2.54h0a3.3,3.3,0,0,1-1.57,3.55h0A3.15,3.15,0,0,1,188.22,1523.52Zm-9.72,2a3.29,3.29,0,0,1-3.89-2.58h0a3.29,3.29,0,0,1,2.57-3.89h0a3.31,3.31,0,0,1,3.9,2.57h0a3.3,3.3,0,0,1-1.59,3.52h0A3.19,3.19,0,0,1,178.5,1525.54Zm-9.74,2a3.29,3.29,0,0,1-3.87-2.6h0a3.32,3.32,0,0,1,2.61-3.89h0a3.31,3.31,0,0,1,3.87,2.61h0a3.31,3.31,0,0,1-1.59,3.5h0A3.47,3.47,0,0,1,168.76,1527.49Zm-9.74,1.88h0a3.31,3.31,0,0,1-3.86-2.64h0a3.31,3.31,0,0,1,2.63-3.86h0a3.31,3.31,0,0,1,3.86,2.64h0a3.3,3.3,0,0,1-1.59,3.47h0A3.43,3.43,0,0,1,159,1529.37Zm-9.77,1.8a3.3,3.3,0,0,1-3.83-2.66h0a3.29,3.29,0,0,1,2.66-3.84h0a3.31,3.31,0,0,1,3.84,2.66h0a3.31,3.31,0,0,1-1.6,3.44h0A3.29,3.29,0,0,1,149.25,1531.17Zm-9.78,1.72a3.29,3.29,0,0,1-3.81-2.69h0a3.3,3.3,0,0,1,2.7-3.82h0a3.29,3.29,0,0,1,3.8,2.7h0a3.29,3.29,0,0,1-1.59,3.42h0A3.21,3.21,0,0,1,139.47,1532.89Zm-9.8,1.64h0a3.3,3.3,0,0,1-3.79-2.73h0a3.3,3.3,0,0,1,2.72-3.79h0a3.3,3.3,0,0,1,3.79,2.73h0a3.29,3.29,0,0,1-1.61,3.39h0A3.17,3.17,0,0,1,129.67,1534.53Zm-9.8,1.57h0a3.31,3.31,0,0,1-3.77-2.75h0a3.31,3.31,0,0,1,2.76-3.78h0a3.31,3.31,0,0,1,3.77,2.76h0a3.29,3.29,0,0,1-1.61,3.35h0A3.23,3.23,0,0,1,119.87,1536.1Zm-9.82,1.48h0a3.29,3.29,0,0,1-3.74-2.78h0a3.27,3.27,0,0,1,2.78-3.74h0a3.29,3.29,0,0,1,3.73,2.79h0a3.28,3.28,0,0,1-1.61,3.34h0A3.25,3.25,0,0,1,110.05,1537.58Zm-9.84,1.4h0a3.3,3.3,0,0,1-3.71-2.82h0a3.29,3.29,0,0,1,2.82-3.72h0a3.29,3.29,0,0,1,3.71,2.82h0a3.31,3.31,0,0,1-1.62,3.31h0A3.35,3.35,0,0,1,100.21,1539Zm-9.84,1.3h0a3.31,3.31,0,0,1-3.7-2.86h0a3.31,3.31,0,0,1,2.86-3.69h0a3.31,3.31,0,0,1,3.69,2.86h0a3.32,3.32,0,0,1-1.63,3.28h0A3.32,3.32,0,0,1,90.37,1540.28Zm-9.87,1.21a3.29,3.29,0,0,1-3.66-2.89h0a3.29,3.29,0,0,1,2.89-3.67h0a3.32,3.32,0,0,1,3.67,2.89h0a3.33,3.33,0,0,1-1.64,3.25h0A3.41,3.41,0,0,1,80.5,1541.49Zm-9.88,1.1h0a3.29,3.29,0,0,1-3.63-2.93h0a3.28,3.28,0,0,1,2.93-3.62v0a3.33,3.33,0,0,1,3.64,2.94h0a3.34,3.34,0,0,1-1.64,3.22h0A3.15,3.15,0,0,1,70.62,1542.59Zm-9.89,1a3.28,3.28,0,0,1-3.59-3h0a3.28,3.28,0,0,1,3-3.59h0a3.28,3.28,0,0,1,3.59,3h0a3.29,3.29,0,0,1-1.64,3.17h0A3.25,3.25,0,0,1,60.73,1543.59Zm-9.91.88h0a3.31,3.31,0,0,1-3.57-3h0a3.3,3.3,0,0,1,3-3.56h0a3.29,3.29,0,0,1,3.56,3h0A3.28,3.28,0,0,1,52.2,1544h0A3.11,3.11,0,0,1,50.82,1544.47Z"/><path d="M504.6,1431.78h0a3.3,3.3,0,0,1-4.36-1.68h0a3.3,3.3,0,0,1,1.68-4.36h0a3.32,3.32,0,0,1,4.36,1.69h0a3.31,3.31,0,0,1-1.37,4.19h0Zm-9.08,4h0a3.29,3.29,0,0,1-4.34-1.69h0a3.31,3.31,0,0,1,1.69-4.36h0a3.3,3.3,0,0,1,4.34,1.7h0a3.3,3.3,0,0,1-1.36,4.19h0Zm-9.09,4h0a3.3,3.3,0,0,1-4.34-1.71h0a3.3,3.3,0,0,1,1.72-4.35h0a3.3,3.3,0,0,1,4.33,1.72h0a3.31,3.31,0,0,1-1.36,4.17h0Zm-9.11,3.91a3.28,3.28,0,0,1-4.33-1.74h0a3.29,3.29,0,0,1,1.74-4.33h0a3.3,3.3,0,0,1,4.33,1.75h0a3.29,3.29,0,0,1-1.39,4.14h0A1.89,1.89,0,0,1,477.32,1443.66Zm-9.14,3.86a3.29,3.29,0,0,1-4.32-1.76h0a3.3,3.3,0,0,1,1.77-4.33h0a3.29,3.29,0,0,1,4.31,1.78h0a3.31,3.31,0,0,1-1.39,4.13h0A3.14,3.14,0,0,1,468.18,1447.52Zm-9.18,3.81a3.29,3.29,0,0,1-4.3-1.8h0a3.31,3.31,0,0,1,1.79-4.31h0a3.31,3.31,0,0,1,4.31,1.81h0a3.29,3.29,0,0,1-1.39,4.1h0A2.6,2.6,0,0,1,459,1451.33Zm-9.18,3.74a3.31,3.31,0,0,1-4.31-1.82h0a3.31,3.31,0,0,1,1.83-4.3h0a3.32,3.32,0,0,1,4.31,1.83h0a3.31,3.31,0,0,1-1.42,4.09h0Zm-9.21,3.69h0a3.29,3.29,0,0,1-4.28-1.84h0a3.3,3.3,0,0,1,1.85-4.29h0a3.29,3.29,0,0,1,4.27,1.85h0a3.3,3.3,0,0,1-1.41,4.08h0A3.42,3.42,0,0,1,440.61,1458.76Zm-9.25,3.62h0a3.28,3.28,0,0,1-4.27-1.87h0a3.31,3.31,0,0,1,1.88-4.28h0a3.3,3.3,0,0,1,4.27,1.88h0a3.3,3.3,0,0,1-1.42,4.06h0A2.4,2.4,0,0,1,431.36,1462.38Zm-9.25,3.58a3.31,3.31,0,0,1-4.27-1.91h0a3.31,3.31,0,0,1,1.91-4.26h0a3.31,3.31,0,0,1,4.27,1.91h0a3.32,3.32,0,0,1-1.44,4h0Zm-9.29,3.51a3.3,3.3,0,0,1-4.25-1.93h0a3.31,3.31,0,0,1,1.93-4.25h0a3.31,3.31,0,0,1,4.26,1.93h0a3.31,3.31,0,0,1-1.45,4h0A3.68,3.68,0,0,1,412.82,1469.47Zm-9.3,3.45a3.29,3.29,0,0,1-4.23-2h0a3.29,3.29,0,0,1,1.95-4.24h0a3.3,3.3,0,0,1,4.24,2h0a3.31,3.31,0,0,1-1.44,4h0A4.83,4.83,0,0,1,403.52,1472.92Zm-9.33,3.4h0a3.3,3.3,0,0,1-4.22-2h0a3.31,3.31,0,0,1,2-4.23h0a3.32,3.32,0,0,1,4.24,2h0a3.32,3.32,0,0,1-1.46,4h0A4.41,4.41,0,0,1,394.19,1476.32Zm-9.34,3.34a3.3,3.3,0,0,1-4.21-2h0a3.31,3.31,0,0,1,2-4.21h0a3.32,3.32,0,0,1,4.22,2h0a3.3,3.3,0,0,1-1.47,4h0A3.47,3.47,0,0,1,384.85,1479.66Zm-9.36,3.28a3.31,3.31,0,0,1-4.2-2h0a3.3,3.3,0,0,1,2-4.2h0a3.3,3.3,0,0,1,4.2,2h0a3.31,3.31,0,0,1-1.46,3.94h0A3.68,3.68,0,0,1,375.49,1482.94Zm-9.39,3.21a3.29,3.29,0,0,1-4.19-2.05h0a3.3,3.3,0,0,1,2.06-4.19h0a3.29,3.29,0,0,1,4.19,2.07h0a3.3,3.3,0,0,1-1.47,3.91h0A2.79,2.79,0,0,1,366.1,1486.15Zm-9.41,3.18a3.33,3.33,0,0,1-4.18-2.11h0a3.3,3.3,0,0,1,2.1-4.16h0a3.3,3.3,0,0,1,4.17,2.08h0a3.32,3.32,0,0,1-1.48,3.91h0A3.78,3.78,0,0,1,356.69,1489.33Zm-9.43,3.1a3.31,3.31,0,0,1-4.16-2.12h0a3.3,3.3,0,0,1,2.12-4.16h0a3.3,3.3,0,0,1,4.16,2.11h0a3.31,3.31,0,0,1-1.48,3.88h0A4.06,4.06,0,0,1,347.26,1492.43Zm-9.44,3h0a3.29,3.29,0,0,1-4.14-2.15h0a3.29,3.29,0,0,1,2.14-4.14h0a3.29,3.29,0,0,1,4.14,2.14h0a3.3,3.3,0,0,1-1.49,3.86h0A2.93,2.93,0,0,1,337.82,1495.47Zm-9.47,3a3.3,3.3,0,0,1-4.13-2.17h0a3.31,3.31,0,0,1,2.17-4.14h0a3.3,3.3,0,0,1,4.13,2.18h0a3.3,3.3,0,0,1-1.5,3.84h0A3.66,3.66,0,0,1,328.35,1498.45Zm-9.48,2.92a3.3,3.3,0,0,1-4.12-2.19h0a3.3,3.3,0,0,1,2.19-4.12h0a3.31,3.31,0,0,1,4.13,2.19h0a3.31,3.31,0,0,1-1.51,3.83h0A3.25,3.25,0,0,1,318.87,1501.37Zm-9.5,2.86h0a3.28,3.28,0,0,1-4.1-2.22h0a3.29,3.29,0,0,1,2.22-4.1h0a3.32,3.32,0,0,1,4.11,2.23h0a3.29,3.29,0,0,1-1.51,3.79h0A3,3,0,0,1,309.37,1504.23Zm-9.52,2.81h0a3.32,3.32,0,0,1-4.1-2.25h0a3.3,3.3,0,0,1,2.25-4.09h0a3.3,3.3,0,0,1,4.09,2.24h0a3.31,3.31,0,0,1-1.51,3.79h0A3.64,3.64,0,0,1,299.85,1507Zm-9.54,2.73a3.29,3.29,0,0,1-4.08-2.27h0a3.29,3.29,0,0,1,2.27-4.07h0a3.3,3.3,0,0,1,4.08,2.27h0a3.31,3.31,0,0,1-1.52,3.77h0A2.74,2.74,0,0,1,290.31,1509.77Zm-9.56,2.69h0a3.32,3.32,0,0,1-4.07-2.3h0a3.31,3.31,0,0,1,2.31-4.06h0a3.29,3.29,0,0,1,4.06,2.3h0a3.3,3.3,0,0,1-1.53,3.74h0A2.78,2.78,0,0,1,280.75,1512.46Zm-9.57,2.62a3.31,3.31,0,0,1-4.05-2.33h0a3.31,3.31,0,0,1,2.32-4h0a3.3,3.3,0,0,1,4,2.33h0a3.29,3.29,0,0,1-1.53,3.71h0A3.09,3.09,0,0,1,271.18,1515.08Zm-9.6,2.55a3.28,3.28,0,0,1-4-2.35h0a3.29,3.29,0,0,1,2.35-4h0a3.3,3.3,0,0,1,4,2.36h0a3.29,3.29,0,0,1-1.53,3.7h0A3,3,0,0,1,261.58,1517.63Zm-9.6,2.49a3.28,3.28,0,0,1-4-2.38h0a3.3,3.3,0,0,1,2.38-4h0a3.28,3.28,0,0,1,4,2.38h0a3.29,3.29,0,0,1-1.53,3.67h0A3.44,3.44,0,0,1,252,1520.12Zm-9.62,2.44a3.29,3.29,0,0,1-4-2.41h0a3.28,3.28,0,0,1,2.4-4h0a3.3,3.3,0,0,1,4,2.4h0a3.29,3.29,0,0,1-1.55,3.65h0A3.34,3.34,0,0,1,242.36,1522.56Zm-9.64,2.36a3.31,3.31,0,0,1-4-2.44h0a3.28,3.28,0,0,1,2.42-4h0a3.3,3.3,0,0,1,4,2.44h0a3.29,3.29,0,0,1-1.55,3.62h0A3.4,3.4,0,0,1,232.72,1524.92Zm-9.66,2.3a3.31,3.31,0,0,1-4-2.47h0a3.29,3.29,0,0,1,2.44-4h0a3.32,3.32,0,0,1,4,2.47h0a3.3,3.3,0,0,1-1.56,3.61h0A3.94,3.94,0,0,1,223.06,1527.22Zm-9.68,2.23a3.3,3.3,0,0,1-3.94-2.49h0a3.31,3.31,0,0,1,2.49-4h0a3.31,3.31,0,0,1,3.95,2.48h0a3.3,3.3,0,0,1-1.58,3.59h0A3.28,3.28,0,0,1,213.38,1529.45Zm-9.68,2.16h0a3.29,3.29,0,0,1-3.93-2.52h0a3.31,3.31,0,0,1,2.52-3.93h0a3.3,3.3,0,0,1,3.93,2.52h0a3.28,3.28,0,0,1-1.57,3.57h0A3.33,3.33,0,0,1,203.7,1531.61Zm-9.7,2.09a3.29,3.29,0,0,1-3.92-2.54h0a3.28,3.28,0,0,1,2.55-3.9h0a3.3,3.3,0,0,1,3.92,2.54h0a3.31,3.31,0,0,1-1.58,3.55h0A3.17,3.17,0,0,1,194,1533.7Zm-9.72,2h0a3.3,3.3,0,0,1-3.9-2.57h0a3.29,3.29,0,0,1,2.57-3.89h0a3.3,3.3,0,0,1,3.9,2.57h0a3.31,3.31,0,0,1-1.59,3.52h0A3.21,3.21,0,0,1,184.28,1535.73Zm-9.74,2a3.33,3.33,0,0,1-3.88-2.6h0a3.3,3.3,0,0,1,2.61-3.88h0a3.29,3.29,0,0,1,3.87,2.6h0a3.29,3.29,0,0,1-1.59,3.5h0A3.92,3.92,0,0,1,174.54,1537.7Zm-9.75,1.88a3.31,3.31,0,0,1-3.85-2.63h0a3.31,3.31,0,0,1,2.63-3.87h0a3.3,3.3,0,0,1,3.86,2.63h0a3.34,3.34,0,0,1-1.6,3.48h0A3.78,3.78,0,0,1,164.79,1539.58Zm-9.75,1.81h0a3.29,3.29,0,0,1-3.83-2.66h0a3.29,3.29,0,0,1,2.65-3.83h0a3.29,3.29,0,0,1,3.83,2.66h0a3.28,3.28,0,0,1-1.59,3.44h0A3.51,3.51,0,0,1,155,1541.39Zm-9.79,1.73h0a3.31,3.31,0,0,1-3.82-2.69h0a3.32,3.32,0,0,1,2.7-3.82h0a3.3,3.3,0,0,1,3.81,2.71h0a3.29,3.29,0,0,1-1.6,3.41h0A3.4,3.4,0,0,1,145.25,1543.12Zm-9.78,1.65a3.31,3.31,0,0,1-3.8-2.73h0a3.3,3.3,0,0,1,2.72-3.79h0a3.31,3.31,0,0,1,3.79,2.73h0a3.29,3.29,0,0,1-1.61,3.39h0A3,3,0,0,1,135.47,1544.77Zm-9.82,1.57a3.3,3.3,0,0,1-3.77-2.75h0a3.31,3.31,0,0,1,2.75-3.77h0a3.29,3.29,0,0,1,3.77,2.75h0a3.29,3.29,0,0,1-1.61,3.37h0A3.1,3.1,0,0,1,125.65,1546.34Zm-9.82,1.5h0a3.3,3.3,0,0,1-3.74-2.79h0a3.3,3.3,0,0,1,2.79-3.75h0a3.32,3.32,0,0,1,3.74,2.79h0a3.31,3.31,0,0,1-1.62,3.34h0A3.46,3.46,0,0,1,115.83,1547.84Zm-9.82,1.4a3.3,3.3,0,0,1-3.73-2.82h0a3.29,3.29,0,0,1,2.82-3.72h0a3.3,3.3,0,0,1,3.72,2.82h0a3.29,3.29,0,0,1-1.63,3.31h0A3.13,3.13,0,0,1,106,1549.24Zm-9.86,1.31h0a3.29,3.29,0,0,1-3.7-2.85h0a3.29,3.29,0,0,1,2.85-3.69h0a3.28,3.28,0,0,1,3.69,2.84h0a3.31,3.31,0,0,1-1.62,3.29h0A3.31,3.31,0,0,1,96.15,1550.55Zm-9.86,1.22h0a3.3,3.3,0,0,1-3.66-2.89h0a3.29,3.29,0,0,1,2.88-3.67h0a3.31,3.31,0,0,1,3.67,2.89h0a3.32,3.32,0,0,1-1.64,3.25h0A3.42,3.42,0,0,1,86.29,1551.77Zm-9.88,1.11a3.29,3.29,0,0,1-3.63-2.93h0a3.29,3.29,0,0,1,2.93-3.63h0a3.28,3.28,0,0,1,3.64,2.92h0a3.34,3.34,0,0,1-1.63,3.22h0A3.2,3.2,0,0,1,76.41,1552.88Zm-9.88,1h0a3.3,3.3,0,0,1-3.61-3h0a3.31,3.31,0,0,1,3-3.61h0a3.31,3.31,0,0,1,3.61,3h0a3.3,3.3,0,0,1-1.63,3.17h0A3.24,3.24,0,0,1,66.53,1553.89Z"/><path class="cls-6" d="M892.25,342.41c14.15-6.59,28.31-12.51,42.39-18.51s28.11-11.88,42-18c3.49-1.5,6.93-3.1,10.39-4.66s6.89-3.15,10.31-4.78,6.81-3.29,10.25-4.89,6.79-3.35,10.15-5.09a397.17,397.17,0,0,0,39.64-23,113.61,113.61,0,0,1-15.79,17.39A170.44,170.44,0,0,1,1023,295.34a223.66,223.66,0,0,1-20,12.24c-3.42,1.9-6.93,3.63-10.41,5.4s-7.05,3.36-10.61,4.93a328.37,328.37,0,0,1-43.92,15.76c-7.48,2.08-15,3.92-22.67,5.43A194.56,194.56,0,0,1,892.25,342.41Z"/><g class="cls-12"><path d="M1213.55,742.19s-10-35.55,21.62-65.73,68.49-66.18,73.75-101.89,20,18.66,20.51,35.53,8.2,62.76-35.06,85.43S1219.26,769,1213.55,742.19Z"/></g><g class="cls-5"><path d="M1472.67,757.07s-70.5,24.36-228.81,132.1-515.11,348.46-515.11,348.46,381-196.06,538.31-305.45S1472.67,757.07,1472.67,757.07Z"/></g><g class="cls-11"><path d="M489.69,1255s-44.88,3.66-99.76,31.67-184.33,96.62-226.49,114.84,190.43-60.59,237.24-83.5S489.69,1255,489.69,1255Z"/></g><path class="cls-6" d="M586.62,280.38S685.08,275,706,291.48C706,291.48,647.4,304.09,586.62,280.38Z"/><path d="M962.3,1201.49q-68.17,39.36-145.45,82C606.66,1399,429.78,1481,291.14,1527.16c-131.08,43.6-191.24,42.73-215.43,38.32C36,1558.26,10.44,1525.4,2.65,1496c-5-18.77-2.86-35.26,5.56-45.31-1.82-9.28-5.49-32.37-2.9-57.7,4.47-43.65,25.4-72.78,60.6-84.33,8.68-6.64,71.68-55.55,150.27-134.86,77.67-78.38,186.92-203.35,266.23-353.57,49.44-93.66,78.71-169,87-223.85,7-46.14-3.08-65.93-9.68-73.62a79.08,79.08,0,0,1-18.56-40.29c-7.15-50.53-17.37-146-5.59-218.72.37-6.32,3.5-17,19.58-21.93,8.7-2.64,18.83-2.9,25.52-3.07,2.05-.05,3.81-.1,5-.19.26,0,.53,0,.79,0,2.23.05,55,1.18,78,2.54l4.13.21c22.47,1.09,69.23,3.36,104.91,41.49a135.44,135.44,0,0,1,21.77,31.47c141.85-29.91,195.84-66.76,223.44-85.61,3.32-2.26,6.18-4.21,8.84-5.91,10.18-6.5,19.51-8,27.69-4.56,8.8,3.73,13.33,12.19,15.48,17.94,7.16,1.57,19,7.05,34,24.47,17.58,20.44,69.81,72.64,85.49,88.26l0,0a7.69,7.69,0,0,1,10.4,1.62c.08.1,7.51,9.59,12.58,14.87a24.43,24.43,0,0,0,2.37,2.26c10,4.92,28.24,16.2,45.1,38.53a18.75,18.75,0,0,1,7.59-1.74,16.58,16.58,0,0,1,12.08,5.26l.26.27c7.37,7.55,23.79,24.38,33.83,42.68a14,14,0,0,1,2.57.49c2.8.81,6.75,2.95,9.65,8.5.86,1.49,7.3,10.56,14.12,20.17,49.81,70.14,96.42,138.31,105.6,168.27a26.83,26.83,0,0,1,11.43,3.44c9.09,5.12,15.62,15.22,19.41,30l66.45,95.6c7.2,8.28,12.12,25.42-3.19,40.06-6.4,6.13-65,55.07-188.88,139.57C1267.53,1016,1137.55,1100.31,962.3,1201.49Zm-905.48,128c-20.76,12-32.89,33.68-36.15,64.73-3.1,29.61,3.36,56.85,3.43,57.13a7.72,7.72,0,0,1-2.54,7.71c-6.34,5.33-7.92,18.29-4,33,6.54,24.66,27.91,52.24,60.93,58.25,18.31,3.33,75.21,6.32,207.81-37.79,137.76-45.82,313.77-127.45,523.15-242.6,249.7-137.32,427.91-252,533.43-324,121.42-82.82,181-132.31,186.91-138,9.42-9,3.93-16.84,2-19a5.81,5.81,0,0,1-.58-.73l-67.52-97.14a7.8,7.8,0,0,1-1.16-2.6c-2.66-11.11-6.92-18.58-12.34-21.63a11.27,11.27,0,0,0-7.62-1.36,7.69,7.69,0,0,1-10-6.8c-.38-5.43-6.14-22.4-40.42-75.11-22.16-34.08-48.33-70.93-64-92.95-10.51-14.81-14.2-20-15.2-21.95-.1-.18-.18-.33-.26-.45a7.46,7.46,0,0,1-9.65-4c-8.42-17.87-26.66-36.56-33.53-43.6l-.25-.25c-.6-.62-.88-.62-1-.62-1.11,0-3.12,1.32-4.08,2.28a7.64,7.64,0,0,1-6.18,2.32,7.73,7.73,0,0,1-5.7-3.38c-16.08-23.68-34.32-35-43.75-39.67l-.19-.09c-1.79-.9-3.68-2.46-6.36-5.26-2.92-3-6.4-7.14-9.1-10.44a7.7,7.7,0,0,1-9.13-1.28c-2.84-2.81-69.76-69.12-90.84-93.63-15.68-18.23-25.45-19.58-27-19.67a6.72,6.72,0,0,1-5.49-.93c-1.87-1.11-2.72-3.07-3.15-5.2-.54-2.56-3.22-10.44-8.11-12.49-4-1.68-9.48.91-13.36,3.39-2.45,1.56-5.22,3.46-8.43,5.65-32.12,21.92-98.94,67.52-289.73,99.38l-.14,0c-62.63,9.31-93.17,20.49-105.41,38.57-11.23,16.59-8.26,41.62.68,79.25.85,3.64,2.7,11.08,3,12.16l2.9,10.18a7.7,7.7,0,0,1-14.82,4.22l-2.93-10.31a2.33,2.33,0,0,1-.07-.25c-.09-.35-2.1-8.47-3-12.45-9.92-41.79-12.85-70.16,1.56-91.44,15.12-22.35,47.61-35,115.83-45.16q23.45-3.92,44.36-8.07a117.64,117.64,0,0,0-17.31-24.16c-31.41-33.57-74-35.64-94.41-36.63l-4.29-.22c-21.72-1.29-72.19-2.4-77-2.51-1.53.11-3.35.16-5.43.21-15.47.39-29.82,2-30.13,10.68a8,8,0,0,1-.09,1c-11.57,70.72-1.48,164.75,5.56,214.51a63.76,63.76,0,0,0,15,32.42c10.16,11.83,20.7,36.35,13.22,86-8.54,56.59-38.35,133.55-88.6,228.74-80.25,152-190.64,278.27-269.12,357.44-85,85.77-152.09,136.39-152.76,136.89a7.56,7.56,0,0,1-2.33,1.19A74.13,74.13,0,0,0,56.82,1329.49Z"/><path class="cls-13" d="M541,862.42a13,13,0,0,1-8.33,1.61c-21.55-3-56.21-6.11-65.8-3.37a13,13,0,1,1-7.17-25c18.33-5.24,67,1.26,76.62,2.62A13,13,0,0,1,541,862.42Z"/><path d="M543.77,867.18a18.62,18.62,0,0,1-11.85,2.3C507.42,866,476,863.77,468.4,866a18.52,18.52,0,0,1-10.19-35.62c18.91-5.41,65.17.52,78.9,2.46a18.52,18.52,0,0,1,6.66,34.39Zm-84.24-25.55a7.52,7.52,0,0,0,5.84,13.74c12.34-3.52,53.33,1.12,68.09,3.21a7.52,7.52,0,0,0,8.5-6.39,7.52,7.52,0,0,0-6.39-8.5c-25.93-3.68-61-6.61-74.33-2.78A7.63,7.63,0,0,0,459.53,841.63Z"/><path class="cls-13" d="M586.54,783.57a13,13,0,0,1-9,1.5c-17-3.32-49.26-6.61-63.15-1.31a13,13,0,0,1-9.29-24.34c25.37-9.67,72.19-.94,77.44.09a13,13,0,0,1,4,24.06Z"/><path d="M589.29,788.34a18.56,18.56,0,0,1-12.82,2.13c-17.66-3.44-48-6.2-60.13-1.57a18.53,18.53,0,1,1-13.2-34.62c26.23-10,71.62-1.9,80.45-.17a18.53,18.53,0,0,1,5.7,34.23ZM506,765.08a7.53,7.53,0,0,0,6.47,13.54c16.84-6.43,53.47-1.42,66.16,1a7.52,7.52,0,1,0,2.9-14.76c-18.5-3.62-55-7.76-74.42-.35A8.06,8.06,0,0,0,506,765.08Z"/><path class="cls-13" d="M638.62,681.2a13,13,0,0,1-11.5.76c-1.51-.62-33.92-13.3-61.92,10a13,13,0,1,1-16.66-20c40.47-33.65,86.66-14.83,88.6-14a13,13,0,0,1,1.48,23.29Z"/><path d="M641.38,686A18.4,18.4,0,0,1,625,687c-1.21-.49-30.77-12.1-56.31,9.14A18.52,18.52,0,0,1,545,667.7c43-35.77,92.18-15.73,94.25-14.86A18.52,18.52,0,0,1,641.38,686Zm-70.31-4.8c28-16.16,56.77-4.85,58.12-4.3A7.52,7.52,0,1,0,635,663c-1.83-.77-45-18.37-83,13.17a7.52,7.52,0,1,0,9.63,11.56A66.53,66.53,0,0,1,571.07,681.16Z"/><polygon class="cls-14" points="506.28 862.41 506.29 862.41 506.28 862.41 506.28 862.41"/><path class="cls-8" d="M699.82,593.79s11.52,32.21-28.25,45.37-93.4,40.31-100,94.23-21.25,104.57-65.24,129c29.12-2.88,37.44,33.59,53.51,79.47,2,5.8,6.47,12.89,12.71,20.89h0c62.27-54.3,68.85-105.25,77.75-144.54s11.24-75.79,93.41-113.82c66.78-29.55,65.6-81.71,60.62-106.48C765.92,597.52,726.77,596.64,699.82,593.79Z"/><g class="cls-9"><path class="cls-6" d="M626,802.42s3.89,35.57-25.53,69.52C600.42,871.94,594.92,834.21,626,802.42Z"/></g><g class="cls-9"><path class="cls-6" d="M637.29,690.29s-7.78,24.37-39.16,38.48C598.13,728.77,605.4,702.52,637.29,690.29Z"/></g><path d="M699.82,593.79a34.6,34.6,0,0,1,1,22.36,32,32,0,0,1-5.33,10.42,41.25,41.25,0,0,1-8.45,8.19,56.27,56.27,0,0,1-10.15,5.81c-.88.43-1.79.75-2.68,1.12s-1.81.73-2.65,1c-1.72.65-3.42,1.31-5.12,2q-10.2,4-20,8.88c-13,6.47-25.43,14-36.28,23.24-2.72,2.3-5.31,4.72-7.82,7.21s-4.86,5.12-7,7.87a85.16,85.16,0,0,0-11.18,17.6,80.22,80.22,0,0,0-6.48,19.69l-.84,5.16-.77,5.57c-.55,3.7-1.1,7.41-1.77,11.11A253.91,253.91,0,0,1,563,794.79c-5.19,14.2-12.17,28-21.66,39.85a104.16,104.16,0,0,1-16,16c-1.5,1.14-3,2.32-4.52,3.37l-2.31,1.6-2.38,1.5a97.31,97.31,0,0,1-9.87,5.26c1.51-1.09,3.06-2.1,4.54-3.21s3-2.2,4.36-3.41l2.13-1.75,2.05-1.84c1.39-1.19,2.66-2.52,4-3.79A108.12,108.12,0,0,0,537,831.46c7.94-12.13,13.63-25.55,17.82-39.42A293.28,293.28,0,0,0,564,749.38q.79-5.42,1.49-10.87l.66-5.46c.26-1.9.54-3.88.84-5.82a90.74,90.74,0,0,1,7.24-22.45c6.8-14.28,17.34-26.36,29.33-36a167.57,167.57,0,0,1,39.31-23.05c7-2.95,14-5.58,21.18-7.83,1.79-.57,3.58-1.11,5.38-1.64.92-.27,1.76-.54,2.6-.8s1.7-.5,2.52-.82a51.63,51.63,0,0,0,9.54-4.4,36.19,36.19,0,0,0,8.17-6.43,30.53,30.53,0,0,0,5.74-8.73,32.53,32.53,0,0,0,2.54-10.38A36.47,36.47,0,0,0,699.82,593.79Z"/><g class="cls-7"><path d="M1044.59,668.18S1044.68,570.43,844,585s-203.74-46.7-203.74-46.7.29,69.7,98.6,75.66S1005.1,594.43,1044.59,668.18Z"/></g><path class="cls-14" d="M1258.71,416.68S1223.85,466,1179.42,521.4c-34.82,43.43-75.5,90.63-109.87,120.81h0a231.66,231.66,0,0,1-26.75,20.65c-33.93-68.8-85.44-61.57-136.89-63.68-45.22-1.86-144.92.23-200.78-4.87-7.7-.71-14.57-1.54-20.35-2.55-44.33-7.72-52.68-85.21-55.83-113.49-.24-2.15-.44-4-.64-5.53-2.72-21.7-9.41-46,36.32-60.17,6.18-1.92,17.78-3.86,33.36-5.82,99.62-12.48,361.86-24.92,408.34-27,53.76-2.39,82.9-21,82.9-21l5.29-3.6s13.49,17.26,17.3,19.15c.74.36,2.2,1.06,4.22,2.18C1224.46,381.21,1242.64,393,1258.71,416.68Z"/><g class="cls-11"><path d="M1258.71,416.68S1223.85,466,1179.42,521.4c-34.82,43.43-75.5,90.63-109.87,120.81,209.37-234.49,152.78-233.11,138.21-243.49s-96.34,15.62-163.12,16.67-298.21,25.1-346.75,27.5-36.37,38.86-30.18,81.42c4.49,30.88,26,57.66,37.41,70-7.7-.71-14.57-1.54-20.35-2.55-47.67-8.3-53.74-97.32-56.47-119s-9.41-46,36.32-60.17,387.95-30.42,441.7-32.8,82.9-21,82.9-21l5.29-3.6s13.49,17.26,17.3,19.15S1238.79,387.35,1258.71,416.68Z"/></g><g class="cls-9"><path class="cls-6" d="M715.37,434.48c5-2.17,10-3.94,15-5.58s10-3.15,15-4.52q15.06-4.08,30.2-6.9a530.65,530.65,0,0,1,122.07-8.22q15.39.8,30.85,2.82,7.74,1,15.49,2.49c5.18,1,10.36,2.07,15.57,3.57-5,2.18-9.95,4-14.95,5.61s-10,3.16-15,4.53q-15,4.08-30.19,6.91a508.87,508.87,0,0,1-60.81,7.58,515.15,515.15,0,0,1-61.27.54q-15.39-.8-30.85-2.81-7.73-1-15.49-2.47C725.76,437.06,720.58,436,715.37,434.48Z"/></g><path d="M562.52,947.26a3.85,3.85,0,0,1-4.49-6.21c4.13-3.69,8.09-7.46,11.76-11.2a3.85,3.85,0,1,1,5.5,5.39c-3.79,3.86-7.87,7.75-12.12,11.56A3.65,3.65,0,0,1,562.52,947.26Zm23-23.58a3.85,3.85,0,0,1-4.87-5.81c3.52-4.18,6.84-8.48,9.88-12.79a3.85,3.85,0,0,1,6.29,4.43c-3.16,4.49-6.62,9-10.27,13.32A3.77,3.77,0,0,1,585.56,923.68Zm18.94-27a3.85,3.85,0,0,1-5.27-5.25c2.65-4.63,5.12-9.46,7.32-14.36a3.85,3.85,0,1,1,7,3.17c-2.3,5.11-4.88,10.17-7.65,15A3.87,3.87,0,0,1,604.5,896.72Zm13.56-30a3.85,3.85,0,0,1-5.56-4.6c1.69-4.87,3.23-10,4.72-15.51a3.85,3.85,0,0,1,7.44,2c-1.54,5.75-3.14,11-4.88,16A3.87,3.87,0,0,1,618.06,866.7Zm8.68-31.82a3.86,3.86,0,0,1-5.69-4.18c.62-2.76,1.21-5.5,1.8-8.2s1.15-5.33,1.73-7.92a3.85,3.85,0,1,1,7.51,1.68c-.57,2.57-1.14,5.2-1.72,7.86s-1.18,5.48-1.8,8.26A3.84,3.84,0,0,1,626.74,834.88Zm7.06-32.25a3.85,3.85,0,0,1-5.69-4.17c1-4.44,2.34-10.3,4-16.23a3.85,3.85,0,1,1,7.4,2.12c-1.64,5.73-3,11.45-3.92,15.78A3.82,3.82,0,0,1,633.8,802.63Zm9.35-31.6a3.84,3.84,0,0,1-5.48-4.8A121.49,121.49,0,0,1,645.22,751a3.85,3.85,0,0,1,6.64,3.9,114.42,114.42,0,0,0-7.08,14.29A3.77,3.77,0,0,1,643.15,771Zm16.63-28.36a3.85,3.85,0,0,1-4.95-5.72,138.07,138.07,0,0,1,11.35-12.6,3.85,3.85,0,1,1,5.4,5.49,129.59,129.59,0,0,0-10.71,11.89A3.74,3.74,0,0,1,659.78,742.67Zm23.38-23.15a3.85,3.85,0,0,1-4.33-6.35c4.2-3.35,8.77-6.69,13.58-9.91a3.85,3.85,0,1,1,4.28,6.4c-4.63,3.1-9,6.31-13.05,9.53Zm65.57-38c-2.88,1.66-5.94,3.26-9.11,4.76a3.85,3.85,0,0,1-3.29-7,113.22,113.22,0,0,0,13.91-7.78,3.85,3.85,0,0,1,4.25,6.41C752.65,679.19,750.71,680.39,748.73,681.53ZM725,693.25l-.19.11c-5,2.52-9.81,5.13-14.33,7.73a3.85,3.85,0,0,1-3.85-6.67h0c4.64-2.68,9.59-5.35,14.7-7.94a3.85,3.85,0,0,1,3.67,6.77Zm42.11-25.49a3.85,3.85,0,0,1-4.63-6.08,62.86,62.86,0,0,0,9.65-12.13,3.85,3.85,0,1,1,6.59,4,70.28,70.28,0,0,1-10.83,13.63A3.69,3.69,0,0,1,767.12,667.76Zm16.77-28a3.86,3.86,0,0,1-5.64-4.37,60,60,0,0,0,1.6-7.7,68.06,68.06,0,0,0,.61-7.65,3.85,3.85,0,1,1,7.7.19,74,74,0,0,1-.69,8.52,66.87,66.87,0,0,1-1.8,8.71A3.85,3.85,0,0,1,783.89,639.78Zm1-32.72a3.64,3.64,0,0,1-1.23.46,3.86,3.86,0,0,1-4.48-3.1c-.36-2-.8-3.93-1.3-5.82a3.85,3.85,0,1,1,7.45-2c.55,2.07,1,4.23,1.43,6.4A3.85,3.85,0,0,1,784.91,607.06Z"/><path d="M543.44,867a3.85,3.85,0,0,1-4.56-6.13,122.39,122.39,0,0,0,10.86-11.72,3.85,3.85,0,1,1,6,4.86,129.25,129.25,0,0,1-11.56,12.46A3.34,3.34,0,0,1,543.44,867Zm20.81-25.49a3.86,3.86,0,0,1-5.19-5.39,152.23,152.23,0,0,0,7.82-14,3.85,3.85,0,0,1,6.91,3.39,160.46,160.46,0,0,1-8.21,14.77A4,4,0,0,1,564.25,841.54ZM578.83,812a3.85,3.85,0,0,1-5.53-4.7c1.87-4.88,3.62-10,5.2-15.36a3.85,3.85,0,1,1,7.38,2.2c-1.64,5.5-3.45,10.85-5.38,15.91A3.83,3.83,0,0,1,578.83,812Zm9.49-31.58a3.86,3.86,0,0,1-5.68-4.2c1.17-5.08,2.27-10.45,3.26-16a3.85,3.85,0,0,1,7.58,1.35c-1,5.66-2.14,11.16-3.34,16.36A3.86,3.86,0,0,1,588.32,780.41Zm5.86-32.47a3.79,3.79,0,0,1-2.45.47,3.83,3.83,0,0,1-3.28-4.34q.59-4.27,1.1-8.46a67.38,67.38,0,0,1,1.55-8.25,3.85,3.85,0,0,1,7.47,1.9,57.47,57.47,0,0,0-1.37,7.29q-.53,4.25-1.12,8.58A3.86,3.86,0,0,1,594.18,747.94Zm8.71-31.57a3.85,3.85,0,0,1-5.29-5.21,79.05,79.05,0,0,1,10.11-14,3.85,3.85,0,0,1,5.74,5.13,71.28,71.28,0,0,0-9.13,12.68A3.76,3.76,0,0,1,602.89,716.37Zm93-59.85a85.71,85.71,0,0,1-13.21,6.14,3.85,3.85,0,1,1-2.66-7.23,76.69,76.69,0,0,0,14.11-6.84,3.85,3.85,0,0,1,4.08,6.53C697.48,655.59,696.71,656.06,695.91,656.52Zm14.93-11.76a3.85,3.85,0,0,1-4.75-6,50.71,50.71,0,0,0,8.36-12.11l.23-.5a3.85,3.85,0,1,1,7,3.29l-.28.58a58.17,58.17,0,0,1-9.64,14A3.8,3.8,0,0,1,710.84,644.76Zm-43.08,23.17a5.2,5.2,0,0,1-.53.26c-5.19,2-10.2,4.19-14.87,6.44a3.85,3.85,0,1,1-3.34-6.94c4.85-2.33,10-4.58,15.41-6.68a3.85,3.85,0,0,1,3.33,6.92Zm-43.23,23.81a3.85,3.85,0,0,1-4.32-6.35,135.31,135.31,0,0,1,14-9.68,3.85,3.85,0,0,1,4,6.59A125.12,125.12,0,0,0,625,691.42,3.08,3.08,0,0,1,624.53,691.74Zm100.22-76.33a3.85,3.85,0,0,1-5.74-3.86,55.45,55.45,0,0,0-.11-15.38,3.85,3.85,0,0,1,7.62-1.11,62.81,62.81,0,0,1,.12,17.53A3.88,3.88,0,0,1,724.75,615.41Z"/><path d="M1062.41,652.44l-.15.08a3.86,3.86,0,0,1-5.2-1.63c-1.16-2.23-2.37-4.44-3.59-6.55-1.47-2.54-3-5-4.53-7.38a3.85,3.85,0,0,1,6.45-4.21c1.62,2.48,3.21,5.08,4.75,7.74,1.27,2.2,2.54,4.5,3.75,6.83A3.86,3.86,0,0,1,1062.41,652.44Zm-18.09-27.53a3.85,3.85,0,0,1-4.88-.88,117.73,117.73,0,0,0-11-11.57,3.85,3.85,0,0,1,5.21-5.68,126.23,126.23,0,0,1,11.72,12.33,3.85,3.85,0,0,1-.5,5.42A4,4,0,0,1,1044.32,624.91ZM1020,602.74a3.86,3.86,0,0,1-4.08-.14,103.72,103.72,0,0,0-13.82-7.86,3.85,3.85,0,1,1,3.29-7,113.36,113.36,0,0,1,14.84,8.44,3.85,3.85,0,0,1-.23,6.53Zm-29.7-14.11a3.84,3.84,0,0,1-3.07.34,134.46,134.46,0,0,0-15.58-3.8,3.85,3.85,0,0,1,1.4-7.57,141,141,0,0,1,16.46,4,3.85,3.85,0,0,1,.79,7ZM958,582.49a3.79,3.79,0,0,1-2.28.5c-4.87-.46-10.19-.8-16.26-1a3.85,3.85,0,1,1,.3-7.69c6.21.24,11.67.59,16.68,1.06a3.85,3.85,0,0,1,1.56,7.17ZM925,581a3.91,3.91,0,0,1-2,.52c-5.36-.12-10.9-.24-16.34-.46h-.22a3.85,3.85,0,0,1,.29-7.69H907c5.36.23,10.86.34,16.19.46A3.85,3.85,0,0,1,925,581Zm-33-.94a3.77,3.77,0,0,1-2,.51c-5.15-.1-10.65-.18-16.47-.25a3.85,3.85,0,1,1,.09-7.7c5.84.07,11.37.15,16.54.25a3.85,3.85,0,0,1,1.84,7.19Zm-33-.41a3.89,3.89,0,0,1-2,.52l-16.5-.12a3.85,3.85,0,0,1,.05-7.7l16.51.11a3.85,3.85,0,0,1,1.89,7.19Zm342.36-198c-1.39.81-2.95,1.65-4.64,2.51a3.85,3.85,0,1,1-3.5-6.86c2-1,3.42-1.81,4.29-2.32s1.35-.8,1.49-.89l7.76-5.3a3.85,3.85,0,1,1,4.35,6.36l-7.86,5.36C1203,380.7,1202.37,381.08,1201.34,381.67Zm-19.57,9.07a3.47,3.47,0,0,1-.55.26c-5.09,1.95-10.46,3.74-16,5.34a3.85,3.85,0,0,1-2.15-7.4c5.29-1.53,10.45-3.26,15.35-5.13a3.85,3.85,0,0,1,3.3,6.93ZM1150.11,400a3.58,3.58,0,0,1-1.13.43c-5.38,1.14-10.94,2.12-16.51,2.9a3.85,3.85,0,1,1-1.07-7.62c5.39-.76,10.78-1.71,16-2.81a3.85,3.85,0,0,1,2.72,7.1ZM826,579.42a3.81,3.81,0,0,1-2,.51c-5.44,0-11-.08-16.52-.14a3.85,3.85,0,1,1,.07-7.7c5.55.06,11.07.1,16.5.14a3.85,3.85,0,0,1,1.9,7.19ZM1117.45,404.6a4,4,0,0,1-1.63.51c-2.76.2-5.57.37-8.35.5l-8.26.37a3.85,3.85,0,0,1-.34-7.7l8.26-.37c2.7-.12,5.43-.28,8.11-.48a3.85,3.85,0,0,1,2.21,7.17ZM792.93,579.09a3.86,3.86,0,0,1-2,.51q-8.31-.12-16.54-.28a3.85,3.85,0,0,1,.16-7.7c5.45.11,11,.2,16.48.28a3.85,3.85,0,0,1,1.87,7.19Zm291.52-172.86a3.91,3.91,0,0,1-1.74.5l-16.51.79a3.85,3.85,0,0,1-.36-7.7l16.51-.78a3.86,3.86,0,0,1,2.1,7.19ZM759.92,578.42a3.92,3.92,0,0,1-2,.51c-5.78-.17-11.34-.35-16.55-.56a3.85,3.85,0,0,1,.31-7.7c5.18.21,10.71.4,16.46.56a3.86,3.86,0,0,1,1.82,7.19Zm291.52-170.61a3.76,3.76,0,0,1-1.73.51l-16.5.82a3.85,3.85,0,1,1-.39-7.69q8.34-.42,16.51-.82a3.85,3.85,0,0,1,2.11,7.18Zm-33,1.67a3.72,3.72,0,0,1-1.72.51l-16.5.86a3.85,3.85,0,0,1-.4-7.69l16.5-.86a3.85,3.85,0,0,1,2.12,7.18ZM726.92,577.05a3.92,3.92,0,0,1-2.15.51c-6-.35-11.62-.75-16.59-1.19a3.85,3.85,0,1,1,.68-7.67c4.89.43,10.39.82,16.36,1.17a3.85,3.85,0,0,1,1.7,7.18ZM985.44,411.23a4,4,0,0,1-1.72.51l-16.45.9a3.85,3.85,0,0,1-.43-7.69l16.46-.9a3.85,3.85,0,0,1,2.14,7.18ZM694,574a3.88,3.88,0,0,1-2.5.47c-1.27-.19-2.49-.39-3.66-.59a24.79,24.79,0,0,1-13.12-7.24,3.85,3.85,0,1,1,5.42-5.47,17.22,17.22,0,0,0,9,5.12c1.12.19,2.28.38,3.48.56A3.86,3.86,0,0,1,694,574ZM952.49,413.06a3.88,3.88,0,0,1-1.7.51l-16.51.95a3.85,3.85,0,0,1-.45-7.69l16.52-.95a3.85,3.85,0,0,1,2.14,7.18Zm-33,1.92a3.92,3.92,0,0,1-1.7.51l-16.48,1a3.85,3.85,0,0,1-.48-7.69l16.5-1a3.85,3.85,0,0,1,2.16,7.18ZM670.14,553.67l-.23.12a3.84,3.84,0,0,1-5.15-1.75,116.29,116.29,0,0,1-6.29-15.85,3.85,3.85,0,1,1,7.33-2.36,111.06,111.06,0,0,0,5.86,14.8A3.85,3.85,0,0,1,670.14,553.67ZM886.5,417a3.92,3.92,0,0,1-1.68.5l-16.48,1.05a3.85,3.85,0,0,1-.5-7.68l16.5-1.06A3.86,3.86,0,0,1,886.5,417Zm-33,2.13a3.92,3.92,0,0,1-1.67.5l-16.48,1.12a3.85,3.85,0,1,1-.53-7.68q8.16-.57,16.5-1.12a3.85,3.85,0,0,1,2.18,7.18ZM659.74,522.43a4.17,4.17,0,0,1-1.07.41,3.84,3.84,0,0,1-4.61-2.88c-1.18-5.09-2.28-10.6-3.28-16.39a3.85,3.85,0,1,1,7.59-1.31c1,5.65,2,11,3.19,16A3.88,3.88,0,0,1,659.74,522.43Zm160.81-101a3.76,3.76,0,0,1-1.64.51l-16.48,1.2a3.85,3.85,0,0,1-.57-7.68q8.11-.62,16.5-1.21a3.85,3.85,0,0,1,2.19,7.18Zm-33,2.46a3.85,3.85,0,0,1-1.62.5l-16.46,1.31a3.85,3.85,0,0,1-.63-7.67c5.35-.44,10.86-.88,16.49-1.32a3.85,3.85,0,0,1,2.22,7.18ZM654,489.93a3.67,3.67,0,0,1-1.43.48,3.85,3.85,0,0,1-4.32-3.31c-.43-3.32-.85-6.79-1.25-10.32-.26-2.36-.49-4.41-.7-6.1a3.85,3.85,0,0,1,7.64-.95c.22,1.71.45,3.79.72,6.19.39,3.48.8,6.91,1.23,10.17A3.84,3.84,0,0,1,654,489.93Zm100.61-63.35a3.9,3.9,0,0,1-1.59.5c-5.7.49-11.19,1-16.44,1.49a3.85,3.85,0,1,1-.72-7.67q7.9-.75,16.49-1.5a3.86,3.86,0,0,1,2.26,7.18Zm-32.92,3.12a3.78,3.78,0,0,1-1.53.49c-6,.63-11.46,1.24-16.37,1.83a3.85,3.85,0,1,1-.93-7.64c5-.6,10.51-1.22,16.5-1.85a3.86,3.86,0,0,1,2.33,7.17Zm-71.49,27.45a3.85,3.85,0,0,1-5.77-3.23,20.81,20.81,0,0,1,1.28-8.93c1.24-2.85,3.88-5.56,7.86-8.05a3.85,3.85,0,1,1,4.09,6.53c-3.45,2.16-4.54,3.8-4.88,4.59a14.26,14.26,0,0,0-.65,5.65A3.84,3.84,0,0,1,650.24,457.15Zm38.66-23.41a3.89,3.89,0,0,1-1.34.47,120.19,120.19,0,0,0-15.3,3.07l-.34.11a3.85,3.85,0,1,1-2.28-7.36l.34-.11a123.89,123.89,0,0,1,16.41-3.32,3.85,3.85,0,0,1,2.51,7.14Z"/><path d="M572.51,962.76C586,949.31,598.65,935,608.87,919.22A201.62,201.62,0,0,0,633,868.74c2.82-8.91,5.14-18,7.13-27.18l5.82-27.89c1.92-9.25,3.77-18.76,6.58-28.23a110.92,110.92,0,0,1,12.2-27.35,109.65,109.65,0,0,1,9-12.07,123.91,123.91,0,0,1,10.44-10.68,171.86,171.86,0,0,1,23.65-17.57,257.13,257.13,0,0,1,25.59-13.83c2.19-1,4.41-2,6.61-3l3.24-1.47,3.19-1.42c2.14-.92,4.16-2,6.25-3s4-2.19,6.06-3.32A107.73,107.73,0,0,0,780.57,675a80.58,80.58,0,0,0,8.91-10.43,77.36,77.36,0,0,0,7.07-11.81,84.84,84.84,0,0,0,7.92-26.59,97.28,97.28,0,0,0,.84-14.09,113,113,0,0,0-1-14.2A99.65,99.65,0,0,1,807,612a98,98,0,0,1,.54,14.45,86,86,0,0,1-6,28.52,79.62,79.62,0,0,1-6.77,13.14,86.9,86.9,0,0,1-8.9,11.85l-1.22,1.39-1.29,1.34c-.86.88-1.71,1.78-2.61,2.63-1.83,1.66-3.61,3.39-5.54,4.92A125.16,125.16,0,0,1,763.25,699c-2.09,1.29-4.18,2.59-6.31,3.82s-4.28,2.43-6.47,3.49L744,709.5c-2.09,1-4.19,2.07-6.27,3.14a276.55,276.55,0,0,0-24.3,13.94C697.89,736.7,683.6,748.76,674,764a100.56,100.56,0,0,0-11.11,24.63c-2.76,8.74-4.63,17.95-6.79,27.29l-3.23,13.9c-1,4.64-2.18,9.31-3.34,14a257.45,257.45,0,0,1-8.46,27.75,189,189,0,0,1-12,26.51l-3.61,6.32c-1.22,2.09-2.6,4.09-3.9,6.13-2.53,4.12-5.48,8-8.34,11.85A220.19,220.19,0,0,1,572.51,962.76Z"/><g class="cls-12"><path d="M1173.31,431.14S1103.44,628.4,936.59,549.49c-98.7-47.88-52.76-102.4,85-77.64C1102.07,479.62,1191.4,393.28,1173.31,431.14Z"/></g><g class="cls-15"><path class="cls-6" d="M472.12,839.79s35-1.57,52.34,4.36C524.46,844.15,493.05,846.7,472.12,839.79Z"/></g><g class="cls-7"><path d="M597.28,891s-19.67,17-46-9.51-52.37-56.07-56.65-71c0,0,8.44-17.7,17.21-9.11S552.82,868.56,597.28,891Z"/></g><path d="M1042.3,663.11a168.31,168.31,0,0,0-9.31-15l-1.25-1.8-1.32-1.75c-.89-1.15-1.76-2.33-2.67-3.47l-2.82-3.33c-.91-1.13-2-2.14-2.93-3.22a92.35,92.35,0,0,0-12.9-11.49,88.5,88.5,0,0,0-14.78-8.69c-10.38-4.79-21.64-7.39-33.08-8.77s-23.14-1.48-34.92-1.64c-5.89-.06-11.81-.1-17.77-.24s-11.74-.28-17.65-.33c-11.75-.2-23.55-.22-35.35-.26s-23.61-.08-35.42-.21c-5.91-.06-11.82-.11-17.73-.28l-17.73-.44c-23.64-.79-47.3-1.88-70.94-4.21-3-.3-5.9-.58-8.86-.92L696,596c-1.48-.16-3-.42-4.43-.67l-4.42-.73a42,42,0,0,1-4.47-.89,30.1,30.1,0,0,1-4.49-1.33,45.36,45.36,0,0,1-15.68-9.7,68.66,68.66,0,0,1-11.33-14.22,108.27,108.27,0,0,1-8-16.09c-2.22-5.55-4.08-11.22-5.76-16.93a291.07,291.07,0,0,1-7.53-34.82c-.94-5.86-1.75-11.74-2.47-17.61l-1.14-8.77c-.38-2.89-.86-5.8-1.29-8.74a78.16,78.16,0,0,1-1-18.25,36,36,0,0,1,2-9.31,38,38,0,0,1,2-4.43,39.13,39.13,0,0,1,2.63-4.06,41,41,0,0,1,6.59-6.95,59.68,59.68,0,0,1,7.71-5.35,92.38,92.38,0,0,1,16.76-7.56c1.41-.52,2.91-.94,4.42-1.36s3-.87,4.49-1.15l4.43-1c1.48-.32,3-.56,4.42-.83l4.42-.8,4.41-.69c2.94-.46,5.89-.94,8.83-1.33,23.52-3.31,47.07-5.58,70.62-7.76,47.11-4.3,94.25-7.68,141.43-10.42,47.19-2.56,94.39-4.72,141.62-6.18,11.8-.41,23.61-.71,35.42-1l17.72-.44c5.89-.1,11.68-.32,17.51-.81a220.28,220.28,0,0,0,34.57-5.55q8.52-2.08,16.84-5a114.93,114.93,0,0,0,16.12-6.93l0,0a.55.55,0,0,1,.56.94c-10.1,6.41-21.22,10.87-32.57,14.5a210.3,210.3,0,0,1-35,7.65c-5.91.79-11.91,1.33-17.82,1.73l-17.67,1.2-35.33,2.4c-47.12,3.22-94.24,6.14-141.35,9.23l-70.66,4.38q-35.32,2.17-70.61,4.7c-23.51,1.75-47,3.63-70.38,6.15-2.92.29-5.82.67-8.73,1l-4.36.54-4.32.63c-1.43.22-2.9.38-4.31.64l-4.25.75c-1.45.21-2.78.56-4.13.88s-2.71.61-4.09,1.06A84.86,84.86,0,0,0,648.22,423a52.64,52.64,0,0,0-7,4.43,34.57,34.57,0,0,0-5.82,5.64,31.05,31.05,0,0,0-2.32,3.26,30.64,30.64,0,0,0-3.82,11.46,51,51,0,0,0-.35,8.41c.13,2.86.38,5.74.72,8.65s.71,5.84,1,8.81l.86,8.83c.6,5.86,1.28,11.7,2.09,17.52a252.59,252.59,0,0,0,7.06,34.45c3.18,11.25,7.46,22.26,13.6,32.07a60.84,60.84,0,0,0,11,13.15,39.81,39.81,0,0,0,14.44,8.37,25.7,25.7,0,0,0,4,1,39,39,0,0,0,4.25.66l4.34.54c1.44.18,2.88.37,4.35.47l8.76.72c2.92.19,5.86.32,8.79.48l4.4.23,4.41.14,8.82.29c5.88.1,11.76.23,17.65.28,11.78.13,23.57.16,35.36.16s23.58,0,35.38.08,23.61.08,35.42.27,23.64.32,35.49.66c3,0,5.92.18,8.9.32l8.86.41c5.84.27,11.73.45,17.64.66a288.65,288.65,0,0,1,35.74,2.84,130.84,130.84,0,0,1,17.74,4,98.55,98.55,0,0,1,16.92,6.88,87,87,0,0,1,15.22,10.05A97.27,97.27,0,0,1,1024.89,632c7.72,9.26,13.56,19.78,18.39,30.58a.55.55,0,0,1-1,.5Z"/><path class="cls-13" d="M595.1,892.23a13,13,0,0,1-15.18-1.56c-2-1.76-48.53-43.37-68.24-69.95a583.46,583.46,0,0,1-33.29-50.17,13,13,0,0,1,4.77-17.79h0A13,13,0,0,1,501,757.53a567.41,567.41,0,0,0,31.66,47.68c18.12,24.45,64.18,65.6,64.64,66a13,13,0,0,1,1.06,18.39A13.24,13.24,0,0,1,595.1,892.23Z"/><path d="M597.85,897a18.48,18.48,0,0,1-21.59-2.22c-2-1.77-48.93-43.7-69-70.78a586.41,586.41,0,0,1-33.63-50.69,18.52,18.52,0,0,1,32.08-18.53A561.48,561.48,0,0,0,537,801.93c17.67,23.85,63.42,64.78,63.88,65.19A18.54,18.54,0,0,1,597.85,897ZM485.91,757.53a7.52,7.52,0,0,0-2.75,10.27,574.14,574.14,0,0,0,32.94,49.64c19.4,26.18,65.52,67.38,67.48,69.12a7.5,7.5,0,0,0,8.77.9A7.21,7.21,0,0,0,594.2,886a7.53,7.53,0,0,0-.61-10.62c-1.92-1.71-47.06-42.11-65.4-66.85a572.07,572.07,0,0,1-32-48.2A7.52,7.52,0,0,0,485.91,757.53Z"/><g class="cls-15"><path class="cls-6" d="M560.57,762.88s-28-5.07-47.87,1C512.7,763.89,547,765.69,560.57,762.88Z"/></g><g class="cls-7"><path d="M624.13,796.8s-43.13,26.68-89.22-61l14.72-26.56S575.47,768.4,624.13,796.8Z"/></g><path class="cls-13" d="M621,799.32a13,13,0,0,1-15.27-1.64c-7.85-7.14-76.58-71.24-73.59-124.21a13,13,0,1,1,26,1.47c-1.94,34.46,46.35,86.37,65.11,103.47a13,13,0,0,1,.87,18.39A12.8,12.8,0,0,1,621,799.32Z"/><path d="M623.76,804.09A18.47,18.47,0,0,1,602,801.75c-8-7.32-78.52-73.07-75.38-128.59a18.52,18.52,0,1,1,37,2.09c-1.62,28.7,38,76,63.32,99.09a18.54,18.54,0,0,1-3.21,29.75ZM541.4,667.68a7.9,7.9,0,0,0-1.26.91,7.5,7.5,0,0,0-2.5,5.19c-2.84,50.44,64.15,112.87,71.8,119.82a7.49,7.49,0,0,0,8.82,1,8.12,8.12,0,0,0,1.81-1.46,7.53,7.53,0,0,0-.51-10.62c-.69-.64-69.39-63.74-66.9-107.85a7.53,7.53,0,0,0-11.26-7Z"/><path class="cls-13" d="M696.86,704A13,13,0,0,1,680,700.51c-.27-.36-27.06-35.86-48.24-51.91L629,646.51c-50.93-38.59-65.71-51.86-68.73-61.74a13,13,0,0,1,24.57-8.61c5.57,8.43,45,38.28,59.88,49.59l2.77,2.09c24.09,18.27,52.14,55.45,53.32,57a13,13,0,0,1-2.59,18.23A12.11,12.11,0,0,1,696.86,704ZM585.14,577.15h0Z"/><path d="M699.61,708.73a18.53,18.53,0,0,1-24.06-4.92c-.26-.35-26.61-35.25-47.16-50.83l-2.76-2.09c-53.28-40.37-67.15-53-70.66-64.51a18.52,18.52,0,0,1,34.67-12.88c4,5.47,23.65,21.56,58.37,47.86l2.76,2.09C675.5,642.2,704,680,705.17,681.56a18.55,18.55,0,0,1-3.68,25.93A19,19,0,0,1,699.61,708.73ZM568.93,574.45a7.54,7.54,0,0,0-3.43,8.72c2.54,8.34,18.15,22.11,66.78,59l2.75,2.09c21.82,16.54,49,52.63,49.32,53a7.52,7.52,0,0,0,9.76,2c.26-.16.52-.33.78-.52a7.53,7.53,0,0,0,1.48-10.52c-1.16-1.55-28.73-38.12-52.25-55.95l-2.76-2.09c-38.59-29.23-56.88-44.47-61.16-50.94L580,579l-.09,0-.1-.32h0l-.19-.47a7.51,7.51,0,0,0-10.75-3.74Zm16.16,2.71-5.44.33Zm0,0-5.44.33Z"/><path class="cls-13" d="M591.65,549.61A13,13,0,0,1,575,530.18c17.74-22.1,98.65-72.85,107.81-78.56l.39-.23a13,13,0,0,1,13.39,22.33c-33.18,20.68-90,58.72-101.28,72.77A13,13,0,0,1,591.65,549.61Z"/><path d="M594.4,554.38a18.53,18.53,0,0,1-23.71-27.64c17.95-22.37,94.11-70.39,109.19-79.79l.54-.33a18.53,18.53,0,0,1,19.06,31.77c-35.3,22-89.63,58.75-99.9,71.54A18.56,18.56,0,0,1,594.4,554.38Zm91.53-98.23-.19.11c-33,20.56-92.51,60-106.47,77.37a7.52,7.52,0,0,0,9.63,11.22A7.4,7.4,0,0,0,591,543c13.17-16.41,78.57-59,102.66-74a7.52,7.52,0,0,0-7.73-12.9Z"/><path class="cls-13" d="M712.91,554.53a13,13,0,0,1-3.75,1.44c-1.1.24-27.33,5.91-57.72,9.19-43.57,4.72-72.15,2.12-87.38-7.93a13,13,0,0,1,14.35-21.74c17.47,11.54,83.74,4,125.22-5a13,13,0,0,1,9.28,24Z"/><path d="M715.66,559.29a18.38,18.38,0,0,1-5.33,2.06c-1.12.24-27.75,6-58.29,9.28-44.9,4.86-74.67,2-91-8.81a18.53,18.53,0,1,1,20.42-30.92c14,9.24,73.87,4.48,121-5.75a18.52,18.52,0,0,1,13.2,34.14ZM567.47,539.84a7.53,7.53,0,0,0-.38,12.79c13.92,9.2,42.1,11.57,83.76,7.06,30-3.24,56-8.85,57.15-9.09a7.52,7.52,0,1,0-3.2-14.7c-28.42,6.17-107.06,19-129.42,4.18a7.47,7.47,0,0,0-5.65-1.09A7.33,7.33,0,0,0,567.47,539.84Z"/><path class="cls-13" d="M454.36,1004.29a13,13,0,0,1-9.53,1.39L379,989.94A13,13,0,1,1,385,964.61l65.88,15.73a13,13,0,0,1,3.48,23.95Z"/><path d="M457.11,1009.05a18.45,18.45,0,0,1-13.56,2l-65.88-15.74a18.52,18.52,0,1,1,8.6-36L452.16,975a18.52,18.52,0,0,1,4.95,34.06Zm-78.9-38.29a7.52,7.52,0,0,0,2,13.83l65.89,15.74a7.53,7.53,0,0,0,3.49-14.64L383.72,970A7.47,7.47,0,0,0,378.21,970.76Z"/><path class="cls-13" d="M417.3,1046.84A13,13,0,0,1,403,1046c-5.69-4.29-55.23-43-42.72-80.67A13,13,0,0,1,385,973.5c-5.25,15.8,20.43,41.63,33.69,51.67a13.05,13.05,0,0,1-1.34,21.67Z"/><path d="M420.05,1051.6a18.49,18.49,0,0,1-20.41-1.25c-6-4.53-58.35-45.47-44.63-86.79a18.52,18.52,0,1,1,35.16,11.67c-3.67,11.06,16.47,33.95,31.79,45.55a18.54,18.54,0,0,1-1.91,30.82Zm-51.22-88.71a7.48,7.48,0,0,0-3.38,4.14c-11.49,34.62,38.67,72.92,40.81,74.54a7.5,7.5,0,0,0,8.28.5,7.32,7.32,0,0,0,2.24-2,7.54,7.54,0,0,0-1.47-10.54c-12.17-9.22-42.29-37.57-35.58-57.78a7.52,7.52,0,0,0-10.9-8.88Z"/><path class="cls-13" d="M478.06,930.19a13,13,0,0,1-12.06.52c-4.62-.91-21.35.45-36.5,3A13,13,0,1,1,425.19,908c41.55-7,50.1-2,52.91-.35a13,13,0,0,1,0,22.52Zm-11.72.59h0Zm-1.37-.61h0Z"/><path d="M480.81,935A18.55,18.55,0,0,1,464.44,936c-4-.45-18.35.47-34,3.1a18.52,18.52,0,0,1-6.15-36.53c38.58-6.48,50.51-3.24,56.6.31a18.54,18.54,0,0,1-.06,32.05Zm-13.19-9.54.11,0,.61.29a7.57,7.57,0,0,0,7-.3,7.65,7.65,0,0,0,2.73-2.72,7.54,7.54,0,0,0-2.71-10.29c-8-4.65-31.17-2-49.23,1A7.52,7.52,0,0,0,423,927a7.43,7.43,0,0,0,5.61,1.29c14.2-2.38,32.47-4.15,38.47-3l.29.05.06-.13.24.13Z"/><g class="cls-7"><path d="M768.74,1125.53s-150.42-118.8-184.13-182.85c-11.71-28.76-52-111.51-92.24-67.81,0,0,31-1,41,34.5,15.38,54.59,27.39,99.23,223.39,223.06C761.29,1135.28,764,1122.58,768.74,1125.53Z"/></g><path class="cls-14" d="M762.26,1129.54S576.81,990.43,559.8,941.88,534.46,855.31,501,863.32,476.1,907,459.27,941s-52,74-99.49,121c-34,32.67,5.53,60.51,16.48,63.45,13.64,4.42,177.14,61.82,220.09,102.57,55.4-31.39,111.06-64.57,165.91-98.49Z"/><path d="M761.85,1129.91a1.7,1.7,0,0,1-.31-.2l-.38-.26-.78-.54-1.54-1.07-3.09-2.14-6.16-4.31-12.22-8.76q-12.17-8.82-24.18-17.87t-23.86-18.31q-11.85-9.29-23.52-18.77c-7.81-6.3-15.5-12.75-23.14-19.26s-15.23-13.11-22.7-19.84-14.8-13.64-22-20.71-14.3-14.28-21-22c-3.34-3.84-6.61-7.77-9.72-11.89a97,97,0,0,1-8.61-13.14,50.92,50.92,0,0,1-3.36-7.57l-2.38-7.15c-1.59-4.77-3.11-9.54-4.62-14.3-3-9.51-6.11-19-9.78-28a102.51,102.51,0,0,0-6.32-13,50.34,50.34,0,0,0-4-5.8,31.14,31.14,0,0,0-4.77-4.89,22.22,22.22,0,0,0-5.68-3.44,21.07,21.07,0,0,0-6.46-1.61,31.18,31.18,0,0,0-6.88.17,45.2,45.2,0,0,0-6.88,1.61,32.41,32.41,0,0,0-6.4,2.82,28.28,28.28,0,0,0-5.48,4.26,32.54,32.54,0,0,0-4.32,5.54,45.93,45.93,0,0,0-3.24,6.42c-.93,2.24-1.72,4.55-2.46,6.9s-1.35,4.75-1.94,7.17l-3.52,14.6c-2.45,9.74-5.43,19.55-10.1,28.61-2.27,4.52-4.75,8.92-7.34,13.25-1.33,2.14-2.6,4.33-4,6.44l-4.15,6.31-4.32,6.2-4.46,6.1c-1.45,2.05-3,4-4.53,6s-3.06,4-4.64,5.95c-12.47,15.79-25.76,30.88-39.36,45.67-6.83,7.36-13.69,14.67-20.69,21.9l-2.63,2.71L362.7,1065l-1.21,1.29c-.81.86-1.64,1.7-2.34,2.61a33.48,33.48,0,0,0-2.11,2.71,32.75,32.75,0,0,0-5.56,11.82,23.33,23.33,0,0,0,.73,12.34,28.12,28.12,0,0,0,2.71,5.85,37.21,37.21,0,0,0,3.91,5.38,52.79,52.79,0,0,0,10.21,9,43.8,43.8,0,0,0,5.8,3.33,17.47,17.47,0,0,0,2.78,1.06l3.74,1.22c19.1,6.42,37.94,13.26,56.73,20.39,9.38,3.57,18.76,7.18,28.07,11s18.59,7.65,27.82,11.64q27.74,11.88,54.63,25.89c8.93,4.74,17.81,9.65,26.41,15.13s17.06,11.36,24.81,18.68l-6-.74L636,1200.27l42-23.62,42-23.77L741,1141l10.49-6,5.25-3,2.63-1.48,1.31-.74.66-.38.33-.18.16-.09.08-.05,0,0C761.89,1129.46,762.09,1128.25,761.85,1129.91Zm.82-.73c-.25,1.67-.09.47-.16.86l0,0-.08,0-.16.11-.31.21-.63.42-1.25.84-2.51,1.68-5,3.36-10.06,6.67c-6.71,4.44-13.46,8.82-20.22,13.2q-20.25,13.13-40.74,25.9c-13.67,8.49-27.34,17-41.14,25.27s-27.6,16.59-41.53,24.66a5,5,0,0,1-5.84-.6l-.13-.13c-7-6.29-15.17-11.74-23.54-16.81s-17.09-9.81-25.92-14.31c-17.67-9-35.85-17.13-54.1-25.12-36.61-15.7-73.8-30.5-111.31-43.93l-3.37-1.17a30,30,0,0,1-4.21-1.68,54,54,0,0,1-7.13-4.26,61.59,61.59,0,0,1-12-11,46.62,46.62,0,0,1-4.75-6.85,38.58,38.58,0,0,1-3.41-7.83,32.74,32.74,0,0,1-.6-17.29,41.13,41.13,0,0,1,7.53-15,39.42,39.42,0,0,1,2.6-3.12c.87-1,1.82-2,2.76-2.9l1.41-1.4,1.34-1.3,2.69-2.59c7.21-6.87,14.36-13.88,21.44-20.9s14.06-14.18,20.86-21.47,13.55-14.65,19.94-22.29,12.65-15.4,18.38-23.53l4.23-6.15c1.4-2,2.69-4.17,4-6.26q3.92-6.33,7.31-12.95A99.11,99.11,0,0,0,462.84,928c1.64-4.66,2.88-9.47,4.06-14.3l3.39-14.63a121.3,121.3,0,0,1,4.28-14.65,51,51,0,0,1,3.34-7.06,37.06,37.06,0,0,1,4.73-6.41,34.62,34.62,0,0,1,6.19-5.12,37.24,37.24,0,0,1,7.17-3.52,49.14,49.14,0,0,1,7.64-2.12,35.69,35.69,0,0,1,8.09-.52,27.94,27.94,0,0,1,15.45,5.6,37.11,37.11,0,0,1,6,5.54,55.77,55.77,0,0,1,4.82,6.34,107.74,107.74,0,0,1,7.44,13.63c4.33,9.3,7.76,18.8,11.2,28.23,1.72,4.72,3.39,9.43,5,14.14l2.53,7a42.81,42.81,0,0,0,2.88,6.07,111.39,111.39,0,0,0,8,11.84c2.95,3.86,6.1,7.62,9.35,11.31,13,14.76,27.28,28.73,41.86,42.29q10.94,10.2,22.08,20.2c7.44,6.65,15,13.22,22.47,19.81s15.12,13.07,22.74,19.54,15.22,13,22.89,19.39,15.33,12.87,23,19.27Z"/><g class="cls-7"><path d="M511,948.62s-20.09,12.62-38.62-7.31-35.2-50.23-13.14-55.87C459.27,885.44,486.34,940.21,511,948.62Z"/></g><g class="cls-11"><path d="M487,1069.22s-10.95,22.26-34.64,43.67c-8.17,4.93-1.08,11,34.18,22.36s46,14.82,54.13,21.48-26.93-26.91-71.65-37.66C458.31,1116.44,490.69,1091.88,487,1069.22Z"/></g><g class="cls-9"><path class="cls-6" d="M569.18,1016s25.2,6.14,52.37,27.08,85.57,74.48,85.57,74.48-45.71-23.87-86.06-55.21S569.18,1016,569.18,1016Z"/></g><path d="M618,1220.11a3.85,3.85,0,0,1-4.82-.81c-.27-.29-.55-.61-.85-1a3.85,3.85,0,0,1,5.69-5.18c.35.37.66.73,1,1.06a3.86,3.86,0,0,1-.36,5.44A5.24,5.24,0,0,1,618,1220.11Zm126.06-74.86a3.86,3.86,0,0,1-4.26-.27c-3.35-2.55-7.8-6-13.12-10.09a3.85,3.85,0,0,1,4.72-6.09c5.3,4.11,9.74,7.51,13.07,10a3.85,3.85,0,0,1,.72,5.4A3.71,3.71,0,0,1,744.09,1145.25ZM605,1208a3.85,3.85,0,0,1-4.3-.3c-3.81-3-8.25-6.1-13.19-9.31a3.85,3.85,0,1,1,4.19-6.46c5.12,3.33,9.74,6.59,13.73,9.7a3.85,3.85,0,0,1,.68,5.4A4.06,4.06,0,0,1,605,1208Zm113-83a3.87,3.87,0,0,1-4.31-.3c-4.07-3.2-8.42-6.63-13-10.25a3.85,3.85,0,1,1,4.8-6c4.54,3.62,8.88,7,12.94,10.22A3.86,3.86,0,0,1,718,1125Zm-140.57,64.91a3.83,3.83,0,0,1-3.86,0c-4.44-2.57-9.26-5.23-14.31-7.91a3.86,3.86,0,0,1,3.62-6.81c5.13,2.73,10,5.44,14.55,8.06a3.85,3.85,0,0,1,0,6.66Zm114.71-85.45a3.85,3.85,0,0,1-4.34-.34q-6.27-5-12.84-10.41a3.85,3.85,0,1,1,4.87-6c4.36,3.56,8.64,7,12.8,10.38a3.86,3.86,0,0,1,.59,5.42A3.92,3.92,0,0,1,692.12,1104.49Zm-143.81,69.93a3.86,3.86,0,0,1-3.65.12c-4.68-2.34-9.65-4.74-14.77-7.16a3.85,3.85,0,1,1,3.28-7c5.17,2.44,10.19,4.87,14.92,7.22a3.85,3.85,0,0,1,1.74,5.16A3.79,3.79,0,0,1,548.31,1174.42Zm118.24-90.82a3.86,3.86,0,0,1-4.39-.37q-5.67-4.71-11.41-9.54l-1.27-1.07a3.85,3.85,0,0,1,5-5.89l1.28,1.07c3.8,3.21,7.6,6.38,11.36,9.5a3.85,3.85,0,0,1,.51,5.42A3.75,3.75,0,0,1,666.55,1083.6Zm-148.07,76.73a3.84,3.84,0,0,1-3.51.18c-4.86-2.19-9.92-4.43-15-6.65a3.85,3.85,0,0,1,3.06-7.07c5.15,2.24,10.25,4.49,15.14,6.69a3.86,3.86,0,0,1,1.93,5.1A3.91,3.91,0,0,1,518.48,1160.33Zm122.85-98a3.84,3.84,0,0,1-4.44-.42c-4.26-3.66-8.46-7.31-12.48-10.85a3.85,3.85,0,1,1,5.08-5.78c4,3.52,8.18,7.15,12.42,10.8a3.85,3.85,0,0,1,.41,5.43A4,4,0,0,1,641.33,1062.31Zm-153.12,84.88a3.87,3.87,0,0,1-3.42.22c-5-2.08-10.08-4.2-15.22-6.29a3.85,3.85,0,1,1,2.9-7.13c5.16,2.1,10.31,4.22,15.3,6.32a3.84,3.84,0,0,1,2.06,5A3.75,3.75,0,0,1,488.21,1147.19Zm-30.59-12.44a3.83,3.83,0,0,1-3.34.25c-5.06-2-10.23-4-15.35-6a3.85,3.85,0,0,1,2.76-7.19c5.15,2,10.34,4,15.42,6a3.85,3.85,0,0,1,.51,6.92Zm158.94-94.24a3.86,3.86,0,0,1-4.51-.48c-4.24-3.83-8.35-7.6-12.2-11.2a3.85,3.85,0,1,1,5.25-5.63c3.83,3.57,7.9,7.31,12.11,11.11a3.86,3.86,0,0,1,.28,5.44A3.93,3.93,0,0,1,616.56,1040.51ZM426.8,1122.88a3.8,3.8,0,0,1-3.28.27c-5.14-1.92-10.34-3.85-15.46-5.71a3.85,3.85,0,0,1,2.64-7.24c5.14,1.88,10.37,3.81,15.53,5.74a3.85,3.85,0,0,1,.57,6.94ZM592.45,1018a3.85,3.85,0,0,1-4.61-.58c-4.16-4-8.11-8-11.75-11.73a3.85,3.85,0,0,1,5.52-5.37c3.59,3.69,7.49,7.58,11.6,11.58a3.86,3.86,0,0,1,.08,5.45A4,4,0,0,1,592.45,1018Zm-196.68,93.59a3.82,3.82,0,0,1-3.21.3c-5.59-2-9.26-3.21-10.69-3.68l-.66-.21-.32-.11a25.35,25.35,0,0,1-4.54-2.64,3.85,3.85,0,0,1,4.45-6.29,16.89,16.89,0,0,0,2.9,1.75l.51.16c1.52.49,5.25,1.76,10.91,3.76a3.85,3.85,0,0,1,.65,7ZM569.48,994.3a3.85,3.85,0,0,1-4.78-.75c-4-4.44-7.66-8.72-10.86-12.71a3.85,3.85,0,1,1,6-4.82c3.11,3.88,6.66,8,10.57,12.37a3.87,3.87,0,0,1-.28,5.44A4.19,4.19,0,0,1,569.48,994.3Zm-199.19,98.59a3.86,3.86,0,0,1-5.74-2.76c-.66-4.36,2-9.42,7.82-15l1.81-1.8a3.85,3.85,0,0,1,5.43,5.47l-1.88,1.86c-4.71,4.53-5.71,7.38-5.56,8.36A3.86,3.86,0,0,1,370.29,1092.89Zm20.18-25.21a3.85,3.85,0,0,1-4.66-6c3.94-4,7.8-8,11.48-11.78a3.85,3.85,0,0,1,5.55,5.34c-3.7,3.85-7.59,7.83-11.55,11.85A4.08,4.08,0,0,1,390.47,1067.68Zm158.59-99.24a3.85,3.85,0,0,1-5.16-1.25c-1-1.53-1.92-3.05-2.77-4.52a73.44,73.44,0,0,1-5.2-10.81,3.85,3.85,0,1,1,7.2-2.72,67.28,67.28,0,0,0,4.67,9.68c.79,1.36,1.65,2.77,2.57,4.2a3.85,3.85,0,0,1-1.15,5.32ZM413.35,1043.9a3.86,3.86,0,0,1-4.74-6c3.86-4.12,7.59-8.19,11.11-12.1a3.85,3.85,0,1,1,5.73,5.15c-3.55,3.94-7.32,8-11.21,12.21A4,4,0,0,1,413.35,1043.9Zm22.06-24.55a3.85,3.85,0,0,1-4.85-5.84c3.69-4.31,7.22-8.54,10.49-12.59a3.85,3.85,0,0,1,6,4.84c-3.31,4.11-6.89,8.4-10.63,12.76A4.09,4.09,0,0,1,435.41,1019.35Zm20.69-25.7a3.85,3.85,0,0,1-5-5.64c3.37-4.52,6.55-9,9.43-13.29a3.85,3.85,0,1,1,6.4,4.29c-3,4.4-6.21,9-9.66,13.61A3.78,3.78,0,0,1,456.1,993.65Zm80-55.42a4.05,4.05,0,0,1-.7.32,3.85,3.85,0,0,1-4.88-2.42l-.59-1.73c-1.57-4.63-3.19-9.42-4.74-13.85a3.85,3.85,0,0,1,7.27-2.54c1.56,4.46,3.19,9.27,4.76,13.91l.59,1.74A3.86,3.86,0,0,1,536.08,938.23Zm-61.67,28a3.85,3.85,0,0,1-5.26-5.27c2.32-4,4.47-8,6.39-11.87.4-.8.79-1.6,1.16-2.4a3.85,3.85,0,1,1,7,3.25c-.4.85-.81,1.71-1.23,2.57-2,4-4.23,8.19-6.64,12.32A3.69,3.69,0,0,1,474.41,966.22Zm13.67-30a3.84,3.84,0,0,1-5.59-4.5c1.86-5.81,3.26-11.41,4.26-15.64a3.86,3.86,0,0,1,7.5,1.79c-1,4.36-2.49,10.14-4.43,16.19A3.81,3.81,0,0,1,488.08,936.26Zm36.85-29.09a3.9,3.9,0,0,1-5.49-1.86,93.65,93.65,0,0,0-5.25-11c-.61-1.06-1.22-2-1.81-2.88l-.11-.17a3.85,3.85,0,1,1,6.44-4.22c.72,1,1.44,2.19,2.15,3.42a102.51,102.51,0,0,1,5.7,11.88A3.85,3.85,0,0,1,524.93,907.17Zm-28.64-2.86a3.85,3.85,0,0,1-5.64-4.34c2.33-8.68,4.42-13.91,8.74-16.73a3.88,3.88,0,0,1,5.33,1.13,3.84,3.84,0,0,1-1.13,5.32c-1.6,1-3.15,3.54-5.5,12.28A3.83,3.83,0,0,1,496.29,904.31Z"/><path d="M442.19,1128.73a3.85,3.85,0,0,1-4.95-5.72l10.22-13a3.85,3.85,0,1,1,6,4.77l-10.22,13A3.77,3.77,0,0,1,442.19,1128.73Zm20.43-25.92a3.85,3.85,0,0,1-4.95-5.72l10.22-13a3.85,3.85,0,1,1,6.05,4.77l-10.22,13A3.68,3.68,0,0,1,462.62,1102.81Zm20.44-25.92a3.85,3.85,0,0,1-4.95-5.72l10.22-13a3.85,3.85,0,0,1,6.05,4.76l-10.22,13A3.55,3.55,0,0,1,483.06,1076.89ZM503.5,1051a3.85,3.85,0,0,1-4.95-5.72l10.22-13a3.85,3.85,0,0,1,6.05,4.77l-10.22,13A3.83,3.83,0,0,1,503.5,1051Zm20.44-25.92a3.85,3.85,0,0,1-5-5.72l10.22-13a3.85,3.85,0,1,1,6,4.77l-10.22,13A4,4,0,0,1,523.94,1025.06Zm20.44-25.92a3.85,3.85,0,0,1-5-5.72l10.22-13a3.85,3.85,0,1,1,6.05,4.77l-10.22,13A4,4,0,0,1,544.38,999.14Z"/><g class="cls-15"><path class="cls-6" d="M399.25,1015.6S375.52,995.48,377.43,971C377.43,971,366.64,1001.56,399.25,1015.6Z"/></g><g class="cls-15"><path class="cls-6" d="M391.66,972.51a47.93,47.93,0,0,0,31.48,7.85Z"/></g><g class="cls-7"><path d="M480,1025.73s-20.95,19.24-49.6-22.61-24.8-56.27-9.26-66.9C421.17,936.22,426.81,979.89,480,1025.73Z"/></g><g class="cls-15"><path class="cls-6" d="M434.14,914.53s14.56-7.79,25.95-.79C460.09,913.74,442.94,917.46,434.14,914.53Z"/></g><g class="cls-7"><path d="M428.62,1083.19S397.93,1109.69,342,1045C336.94,1036.27,394.44,1041.09,428.62,1083.19Z"/></g><path class="cls-13" d="M480,1025.73a13,13,0,0,1-15.52-1.88c-.95-.91-23.33-22.49-34.54-44.17-1-2-2.14-4.12-3.29-6.33-19.85-38.14-26.1-52.49-24-62.28a13,13,0,0,1,25.69,4.07c1.19,7.39,14.79,33.51,21.39,46.19,1.16,2.23,2.27,4.37,3.31,6.39,9.25,17.88,29.23,37.13,29.43,37.32a13,13,0,0,1,.4,18.42A13.25,13.25,0,0,1,480,1025.73ZM428.17,916.6h0Z"/><path d="M482.78,1030.49a18.6,18.6,0,0,1-22.08-2.67c-2.45-2.35-24.25-23.61-35.62-45.61q-1.21-2.36-2.55-4.91l-.73-1.41c-20.87-40.11-27-54.44-24.46-66a18.53,18.53,0,0,1,36.6,4.92c1.69,7.4,15.45,33.83,20.71,43.94,1.2,2.31,2.31,4.43,3.34,6.43,8.78,17,28.15,35.69,28.35,35.88a18.52,18.52,0,0,1-3.56,29.42Zm-59.26-75.31c2.4,4.74,5.07,9.93,8,15.63l.73,1.41c.89,1.71,1.75,3.36,2.56,4.94,10.75,20.77,32.55,41.84,33.47,42.72a7.56,7.56,0,0,0,9,1.09,7.83,7.83,0,0,0,1.67-1.32,7.53,7.53,0,0,0-.23-10.64c-.2-.19-20.82-20-30.5-38.77-1-2-2.13-4.11-3.28-6.3-6.35-12.2-11.66-22.66-15.48-30.89Zm-11.84-47.85-.31.19a7.42,7.42,0,0,0-3.28,4.72c-1.43,6.55,2.93,18,14,40l.63-36.49.16-.61h0l.06-.59a7.51,7.51,0,0,0-11.24-7.26Z"/><path class="cls-13" d="M428.62,1083.19a13,13,0,0,1-11.32.83c-2.32-.92-57.27-23.1-86.6-64.95a13,13,0,0,1,21.33-15c24.8,35.38,74.4,55.5,74.9,55.7a13,13,0,0,1,1.69,23.37Z"/><path d="M431.38,1088a18.45,18.45,0,0,1-16.11,1.18c-2.38-1-58.81-23.72-89.08-66.91A18.53,18.53,0,0,1,356.53,1001c23.77,33.92,72,53.56,72.44,53.75a18.53,18.53,0,0,1,2.41,33.25Zm-93.77-82.89a6.65,6.65,0,0,0-.56.36,7.53,7.53,0,0,0-1.85,10.48c28.41,40.53,81.87,62.1,84.14,63a7.52,7.52,0,0,0,5.55-14c-.5-.2-51.52-20.77-77.37-57.65a7.54,7.54,0,0,0-9.91-2.21Z"/><g class="cls-15"><path class="cls-6" d="M407.72,1056.45s-24.72-5.88-62.15-47.76C345.57,1008.69,373.46,1054.39,407.72,1056.45Z"/></g><g class="cls-15"><path class="cls-6" d="M478.08,1009.5s-34.59-29.74-56-89.9C422.12,919.6,434.66,979.59,478.08,1009.5Z"/></g><path class="cls-13" d="M511,948.62a13,13,0,0,1-15.84-2.21c-1.21-1.24-29.88-30.85-41.68-55.77-11.69-24.71-14.34-41.74-14.45-42.46a13,13,0,0,1,25.76-3.87c0,.09,2.33,14.26,12.24,35.18,8.27,17.47,29.37,41.12,36.8,48.76A13,13,0,0,1,511,948.62Z"/><path d="M513.78,953.38a18.5,18.5,0,0,1-22.53-3.13C490,949,460.73,918.73,448.54,893c-11.8-24.92-14.64-42.11-14.92-44a18.53,18.53,0,0,1,36.64-5.52c0,.07,2.34,13.73,11.77,33.65,8,16.79,28.52,39.82,35.77,47.27a18.54,18.54,0,0,1-.36,26.2A18.27,18.27,0,0,1,513.78,953.38ZM448.19,839.73a7.52,7.52,0,0,0-3.69,7.63c.1.68,2.67,17,14,40.92,11.41,24.11,39.46,53.08,40.65,54.3a7.5,7.5,0,0,0,9.14,1.27,7.41,7.41,0,0,0,1.49-1.13,7.53,7.53,0,0,0,.15-10.64c-7.61-7.82-29.24-32.09-37.84-50.23-10.3-21.78-12.68-36.55-12.7-36.7a7.53,7.53,0,0,0-8.56-6.34A7.29,7.29,0,0,0,448.19,839.73Z"/><g class="cls-15"><path class="cls-6" d="M510.18,933.53s-42-35-53-91.74C457.21,841.79,460,902.33,510.18,933.53Z"/></g><path d="M630,1215.14Q517.58,1280,419.69,1328.06c-170.2,83.48-305.75,127.42-402.9,130.6a5.5,5.5,0,0,1-.36-11c95.58-3.12,229.62-46.69,398.42-129.48,135.4-66.42,293.19-158,469-272.3,299.43-194.63,550.5-390.07,553-392a5.5,5.5,0,1,1,6.77,8.67c-2.51,2-253.95,197.69-553.77,392.58Q752.27,1144.53,630,1215.14Z"/><g class="cls-15"><path class="cls-6" d="M592.75,875.08s-61-48-95.61-111.26C497.14,763.82,518.08,833.1,592.75,875.08Z"/></g><g class="cls-15"><path class="cls-6" d="M614.3,779.78s-59.06-57.72-63.69-101.58C550.61,678.2,541.7,730.2,614.3,779.78Z"/></g><g class="cls-15"><path class="cls-6" d="M613.88,658.45s-34.5-4.22-50.65,10.42C563.23,668.87,591.08,666.37,613.88,658.45Z"/></g><g class="cls-15"><path class="cls-6" d="M696,690s-37.56-48.43-65.41-67c-19.1-12.56-51.64-42.3-51.64-42.3s3.08,12,60.35,57.45C651.09,646.35,696,690,696,690Z"/></g><g class="cls-15"><path class="cls-6" d="M708.9,536.47s-85.78,17.4-130.71,8.09C578.19,544.56,629.79,561.72,708.9,536.47Z"/></g><g class="cls-15"><path class="cls-6" d="M686.26,456l-53.6,36.28S670.25,487.67,686.26,456Z"/></g><g class="cls-15"><path class="cls-6" d="M992.59,264.88S921.76,304.4,811.5,328.45C811.5,328.45,918.29,325.74,992.59,264.88Z"/></g><g class="cls-7"><path d="M417.3,1084a13,13,0,0,0,9.63-24.2c-.08,0-1.6-.65-4.14-1.8-1.51,6.89-7.78,15.21-29.54,14.23A220.89,220.89,0,0,0,417.3,1084Z"/></g></g></g></svg>