<?xml version="1.0" standalone="no"?>
<!DOCTYPE svg PUBLIC "-//W3C//DTD SVG 1.1//EN" "http://www.w3.org/Graphics/SVG/1.1/DTD/svg11.dtd">
<svg xmlns="http://www.w3.org/2000/svg" viewBox="0 0 1512.22 1670.61" width="1512.219970703125" height="1670.6099853515625"><defs><style>.cls-1{fill:#9adcc1;}.cls-2{fill:#e5e2dc;}.cls-3{fill:#b9b6b2;}.cls-4{fill:#212121;}.cls-5{opacity:0.15;}.cls-6{fill:#fff;}.cls-7{opacity:0.5;}.cls-8{fill:#02a864;}.cls-9{opacity:0.4;}.cls-10{fill:#cecbc6;}.cls-11{opacity:0.2;}.cls-12{opacity:0.08;}.cls-13{fill:#262626;}.cls-14{opacity:0.1;}</style></defs><g id="Layer_2" data-name="Layer 2"><g id="OBJECT"><path class="cls-1" d="M994.82,156.57h0a70.69,70.69,0,0,1,70.69,70.69V1286.78a70.7,70.7,0,0,1-70.69,70.7h0a70.7,70.7,0,0,1-70.7-70.7V227.26A70.69,70.69,0,0,1,994.82,156.57Z"/><path class="cls-1" d="M214.07,324h0a35.35,35.35,0,0,1,35.35,35.35v1272.4a35.35,35.35,0,0,1-35.35,35.35h0a35.35,35.35,0,0,1-35.35-35.35V359.31A35.35,35.35,0,0,1,214.07,324Z"/><path class="cls-1" d="M828.56,143.56h0a19.72,19.72,0,0,1,19.72,19.72V1526a19.72,19.72,0,0,1-19.72,19.72h0A19.72,19.72,0,0,1,808.84,1526V163.28A19.72,19.72,0,0,1,828.56,143.56Z"/><path class="cls-1" d="M525.18,126.58h0a19.72,19.72,0,0,1,19.71,19.71V1478.44a19.72,19.72,0,0,1-19.71,19.72h0a19.72,19.72,0,0,1-19.72-19.72V146.29A19.72,19.72,0,0,1,525.18,126.58Z"/><rect class="cls-1" x="1294.06" width="39.43" height="1228.25" rx="9.88" transform="translate(2627.56 1228.25) rotate(180)"/><path class="cls-1" d="M669.1,191.6h0a70.7,70.7,0,0,1,70.7,70.7v1118a70.7,70.7,0,0,1-70.7,70.7h0a70.69,70.69,0,0,1-70.69-70.7V262.3A70.69,70.69,0,0,1,669.1,191.6Z"/><path class="cls-1" d="M386.26,552.67h0a70.7,70.7,0,0,1,70.7,70.7v897.34a70.7,70.7,0,0,1-70.7,70.7h0a70.69,70.69,0,0,1-70.69-70.7V623.37A70.69,70.69,0,0,1,386.26,552.67Z"/><circle class="cls-1" cx="386.26" cy="393.68" r="71.03" transform="translate(-85.63 679.16) rotate(-76.72)"/><path class="cls-1" d="M1174.17,1295.24h0a70.69,70.69,0,0,1-70.7-70.69V242.65a70.7,70.7,0,0,1,70.7-70.7h0a70.7,70.7,0,0,1,70.69,70.7v981.9A70.69,70.69,0,0,1,1174.17,1295.24Z"/><circle class="cls-1" cx="669.1" cy="1599.91" r="70.69" transform="translate(-935.33 941.73) rotate(-45)"/><path class="cls-2" d="M1497.22,724.26c-15.38,14.74-238.59,195.65-704.14,451.68s-659.15,285-717.9,274.29-81.78-83-59-102.17c0,0-26.66-109.67,51.61-134.14,0,0,258.66-194.24,409.34-479.63,111.42-211.08,92.1-278,74.46-298.53a69.71,69.71,0,0,1-16.37-35.46c-6.46-45.66-17-140.58-5.4-211.48.68-19.52,32.35-17.09,42-17.88,0,0,53.23,1.13,75.77,2.47s89,.63,122.44,69.5L765.75,247c165.62-33.41,216.43-77.29,240.47-92.62,26.19-16.72,32.34,13.72,32.34,13.72s12.54-2.2,33.14,21.75c4.31,5,10.69,11.93,18.1,19.71,27.87,29.37,70.08,71.17,70.08,71.17l5.15-3.5s13.17,16.83,16.88,18.67c.72.35,2.15,1,4.12,2.13,8.22,4.56,26,16.08,41.63,39.16,0,0,8.54-8.91,15.67-1.61s25.52,26,34.36,44.81c0,0,5.68-3.27,9.53,4.07s115.27,156.89,117.46,188.29c0,0,20.82-6.72,29.08,27.82l65.85,94.74S1512.62,709.54,1497.22,724.26Z"/><path class="cls-3" d="M1185.3,297.59l-2.76,1.39c-14,3.78-71.23,17.69-187.89,27.73q-5.68.5-11.6,1c-12.7-17.24.45-42.15,57.3-55.29,43.74-10.09,64.47-24.44,73.84-37.63,23.06,23.52,45.69,45.94,45.69,45.94l5.15-3.5s13.17,16.83,16.88,18.67C1182.54,296.17,1183.7,296.73,1185.3,297.59Z"/><path class="cls-4" d="M323,1086c.93,1.6.09,3.83-1.87,5s-4.32.76-5.25-.85-.08-3.84,1.88-5S322,1084.35,323,1086Z"/><path class="cls-4" d="M304.91,1071.15c.93,1.61.09,3.83-1.88,5s-4.31.75-5.24-.86-.09-3.83,1.88-5S304,1069.54,304.91,1071.15Z"/><path class="cls-4" d="M288,1058.33c.93,1.61.08,3.83-1.88,5s-4.31.75-5.24-.86-.09-3.83,1.88-5S287.09,1056.72,288,1058.33Z"/><path class="cls-4" d="M276.58,1048.47c.93,1.61.09,3.83-1.88,5s-4.31.75-5.24-.86-.09-3.83,1.88-5S275.65,1046.86,276.58,1048.47Z"/><path class="cls-4" d="M267.16,1040.37c.93,1.61.09,3.83-1.88,5s-4.31.75-5.24-.86-.09-3.83,1.88-5S266.23,1038.76,267.16,1040.37Z"/><path class="cls-4" d="M262.3,1110.09c.93,1.61.09,3.83-1.88,5s-4.31.75-5.24-.86-.09-3.83,1.88-5S261.37,1108.48,262.3,1110.09Z"/><path class="cls-4" d="M247.7,1093c.93,1.61.09,3.83-1.88,5s-4.31.75-5.24-.86-.09-3.83,1.88-5S246.77,1091.42,247.7,1093Z"/><path class="cls-4" d="M239.26,1081.17c.93,1.61.09,3.83-1.88,5s-4.31.75-5.24-.86-.09-3.83,1.88-5S238.33,1079.56,239.26,1081.17Z"/><path class="cls-4" d="M234.43,1072.81c.93,1.61.09,3.83-1.88,5s-4.31.76-5.24-.85-.09-3.83,1.88-5S233.5,1071.2,234.43,1072.81Z"/><path class="cls-4" d="M219.31,1134.91c.93,1.61.08,3.83-1.88,5s-4.32.75-5.24-.86-.09-3.83,1.87-5S218.38,1133.3,219.31,1134.91Z"/><path class="cls-4" d="M226.88,1108.93c.93,1.61.09,3.83-1.88,5s-4.31.75-5.24-.86-.09-3.83,1.88-5S226,1107.32,226.88,1108.93Z"/><path class="cls-4" d="M217.77,1095c.93,1.61.09,3.84-1.87,5s-4.32.75-5.25-.86-.08-3.83,1.88-5S216.85,1093.4,217.77,1095Z"/><path class="cls-4" d="M201.31,1116.16c.93,1.61.09,3.83-1.88,5s-4.31.75-5.24-.86-.09-3.83,1.88-5S200.38,1114.55,201.31,1116.16Z"/><path class="cls-4" d="M187.73,1140.46c.93,1.61.09,3.84-1.88,5s-4.31.75-5.24-.86-.09-3.83,1.88-5S186.8,1138.85,187.73,1140.46Z"/><path class="cls-4" d="M175.89,1166.41c.93,1.61.09,3.84-1.88,5s-4.31.75-5.24-.85-.09-3.84,1.88-5S175,1164.81,175.89,1166.41Z"/><path class="cls-4" d="M123,1200.83c.93,1.61.09,3.83-1.88,5s-4.31.75-5.24-.86-.09-3.83,1.88-5S122.08,1199.22,123,1200.83Z"/><path class="cls-4" d="M88.51,1218.19c.93,1.61.09,3.83-1.88,5s-4.31.75-5.24-.86-.09-3.83,1.88-5S87.58,1216.58,88.51,1218.19Z"/><path class="cls-4" d="M116.39,1185.53c.93,1.61.09,3.84-1.88,5s-4.31.75-5.24-.85-.09-3.84,1.88-5S115.46,1183.93,116.39,1185.53Z"/><path class="cls-4" d="M143.41,1169.94c.93,1.6.08,3.83-1.88,5s-4.31.76-5.24-.85-.09-3.84,1.88-5S142.48,1168.33,143.41,1169.94Z"/><path class="cls-4" d="M166.75,1140c.93,1.61.09,3.83-1.88,5s-4.31.75-5.24-.86-.09-3.83,1.88-5S165.82,1138.39,166.75,1140Z"/><g class="cls-5"><path d="M602.18,321.13s-5.71-51.83,30.35-68,115.66-31,139.64-7.47C772.17,245.66,590.86,276.68,602.18,321.13Z"/></g><g class="cls-5"><path d="M1003.16,839.08c3.39,5.27-52.31,47.11-124.4,93.48S745.49,1012.24,742.11,1007s52.31-47.1,124.4-93.47S999.78,833.82,1003.16,839.08Z"/></g><g class="cls-5"><path d="M1002.29,638.34c.41,6.25-68.58,15.89-154.11,21.54s-155.18,5.17-155.6-1.07,68.59-15.88,154.11-21.54S1001.88,632.1,1002.29,638.34Z"/></g><g class="cls-5"><path d="M1250.56,362.83s-33.32,10.36-71.49,60.14S1082,586,1082,586s92.62-92.07,126.52-145.1S1250.56,362.83,1250.56,362.83Z"/></g><path class="cls-6" d="M705.54,710.69s-16,15.9-32.67,51.3-40.69,106.54-40.69,106.54,41.68-72.88,56.07-108.32S705.54,710.69,705.54,710.69Z"/><g class="cls-5"><path d="M1381.82,625.34s-92.57,33.84-245.45,173.73C1136.37,799.07,1278.92,743.3,1381.82,625.34Z"/></g><g class="cls-7"><path d="M722.29,624.59s-68,20.43-78.2,81.33c0,0,10-8.11,14.33-14.57C667.62,679.27,665.18,664.33,722.29,624.59Z"/></g><path class="cls-4" d="M1499.61,695.28l-7.09-10.19s-33.79,44-202.47,153.35-520.22,324.83-827.88,459.75c-179.21,78.68-344.07,110-440.32,116h0c11.4,17,29.4,31.64,53.34,36,58.74,10.7,252.34-18.23,717.89-274.27S1481.83,739,1497.23,724.27,1499.61,695.28,1499.61,695.28Z"/><path d="M937.44,1100.77q-66.45,38.37-141.78,79.88c-204.89,112.69-377.28,192.61-512.38,237.55-127.39,42.38-185.66,41.56-209,37.3-22.94-4.17-43.13-17.77-56.84-38.29a5.36,5.36,0,0,1,4.12-8.33c48-3,221.39-20.28,438.51-115.61,339.82-149,719-389.25,827.11-459.33,165.19-107.08,200.81-151.69,201.15-152.13a5.37,5.37,0,0,1,8.65.21l6.9,9.93c5.66,6.45,12.05,21.89-2.89,36.2-6.24,6-63.32,53.61-184,135.9C1235.06,919.93,1108.33,1002.11,937.44,1100.77ZM32.05,1418.88c11.65,13.82,27,23,44.1,26.07,18,3.28,73.95,6.24,203.74-36.93,134.48-44.74,306.28-124.4,510.6-236.77,243.61-134,417.48-245.83,520.44-316.06,118.5-80.83,176.79-129.25,182.59-134.8,10.89-10.42,3.66-19.76,2.1-21.52-.14-.16-.3-.36-.42-.53l-3.18-4.58c-13.89,14.78-62.24,60.5-199,149.18-108.29,70.19-488.08,310.82-828.64,460.16C258.48,1393.48,91.38,1414.21,32.05,1418.88Z"/><g class="cls-7"><path d="M1500,698s-31.74,33.41-195.4,140.11-252.46,167.12-322.73,211.44c0,0,164-86.53,322.66-193.33S1500,698,1500,698Z"/></g><path class="cls-8" d="M398.92,1039.46s.72,9.69,13.71,18.39c8.12,4.87,46.31,37,15.72,59.43s-46.81-21.3-103.28,6S191,1201,124.25,1227.53s-106.69,27.61-56.45-13.61c-78.27,24.48-51.6,134.14-51.6,134.14,142.31-4.65,352-98.58,565.43-219.57-31.7-30.08-130.77-69.47-182.83-88.71"/><g class="cls-9"><path class="cls-6" d="M298,1154.15s-34.7,21.77-69.43,37S158.83,1236,158.83,1236s29,.52,81.93-37.48S298,1154.15,298,1154.15Z"/></g><path class="cls-10" d="M1186,298s-1.14.35-3.49,1c-14,3.78-71.23,17.69-187.89,27.73q-5.68.5-11.6,1C845,339.12,612.16,351.09,612.16,351.09l2-21.9c23.19-9.76,53.07-17.07,89.81-23.64,53.16-9.51,120.65-17.48,202.93-29.15,96.33-13.66,152.08-42.92,182.95-66.87,7.46,7.86,16,16.62,24.39,25.23,23.06,23.52,45.69,45.94,45.69,45.94l5.15-3.5s13.17,16.83,16.88,18.67c.63.3,1.79.86,3.39,1.72Z"/><path class="cls-4" d="M612.8,391.84c-22.57-90.14-20-117.48,105.41-136.14,203.8-34,261.81-84.63,288-101.35s32.35,13.72,32.35,13.72S962,246,723.38,282.59c-93.62,15.82-104.25,32.88-103.84,66.21Z"/><path class="cls-8" d="M1287.21,384.43c-3.84-7.34-9.51-4.06-9.51-4.06S1187,496.46,1116.08,597.14s-8.9,194.13-8.9,194.13c175.71-123.53,297.5-218.56,297.5-218.56C1402.49,541.32,1291.05,391.77,1287.21,384.43Z"/><g class="cls-11"><path d="M1277.86,396.59S1364.69,488.26,1393.3,553c10.31,28.2-12.92,37.89-232.3,183.59,0,0,50.07-45.72,120.56-107.13s71.52-80.32,44.93-131.89S1277.86,396.59,1277.86,396.59Z"/></g><g class="cls-9"><path class="cls-6" d="M1116.58,710a36.55,36.55,0,0,1-4.57-9.68,64.62,64.62,0,0,1-2.42-10.49,85.89,85.89,0,0,1-.35-21.49,111,111,0,0,1,4.31-21,139.75,139.75,0,0,1,7.82-19.74,154.1,154.1,0,0,1,23.5-34.6c2.36-2.54,4.75-5.05,7.24-7.47s5.1-4.7,7.74-6.94,5.42-4.34,8.27-6.35,5.81-3.89,8.91-5.6c-1.32,3.32-2.82,6.45-4.37,9.5s-3,6.13-4.62,9.09-3.08,6-4.7,8.87-3.1,5.85-4.71,8.71c-6.24,11.55-12.33,22.85-18,34.24-2.76,5.72-5.45,11.44-8,17.23s-4.82,11.66-7,17.62-4,12-5.62,18.33A119.22,119.22,0,0,0,1116.58,710Z"/></g><path class="cls-8" d="M566.17,193.85c-17.39-.08-32,0-37.18.5h0c-10.21,70.24,0,161.47,6.26,206l49-.74,0,0C536.21,320.55,566.17,193.85,566.17,193.85Z"/><g class="cls-9"><path class="cls-6" d="M537.94,351.55s-10.75-86.77-3-100C534.9,251.52,546.64,306,537.94,351.55Z"/></g><g class="cls-9"><path class="cls-6" d="M29.71,1318s-9-49.29,13.35-69.6c0,0,2.82,4.88-4,22.09S29.71,1318,29.71,1318Z"/></g><path d="M953.17,1050.62c-148.41,85.69-323.26,179.87-488.84,252.48-218.73,96-393.72,113.44-442.14,116.48a5.37,5.37,0,1,1-.67-10.71c48-3,221.38-20.27,438.5-115.6,339.82-149,719-389.25,827.11-459.33,165.19-107.08,200.81-151.69,201.15-152.13a5.36,5.36,0,0,1,8.5,6.54c-1.4,1.83-36.28,46-203.81,154.59C1237.33,879,1110,960.07,953.17,1050.62Z"/><path d="M636.47,1147h0c-15.74,9.06-31.46,18-46.75,26.52a5.37,5.37,0,0,1-5.3-9.33l.07,0c15.24-8.53,30.93-17.43,46.63-26.46a5.37,5.37,0,0,1,5.36,9.3Zm23.23-13.46a5.36,5.36,0,0,1-5.38-9.28c15.17-8.85,30.72-18,46.21-27.28l.07,0a5.36,5.36,0,0,1,5.43,9.25c-15.52,9.28-31.1,18.47-46.31,27.34Zm-93.44,53-.1.06c-15.9,8.75-31.8,17.36-47.26,25.58a5.36,5.36,0,1,1-5-9.47c15.41-8.2,31.27-16.78,47.13-25.51a5.36,5.36,0,0,1,5.27,9.34ZM729,1092.37a5.37,5.37,0,0,1-5.46-9.24c15-9.08,30.41-18.48,45.76-28a5.37,5.37,0,1,1,5.64,9.13c-15.38,9.49-30.8,18.91-45.85,28Zm68.57-42.11a5.37,5.37,0,0,1-5.52-9.2c15-9.32,30.24-18.94,45.41-28.58l.2-.12a5.37,5.37,0,0,1,5.55,9.18c-15.19,9.66-30.5,19.29-45.48,28.63Zm-302.23,174.3-.21.11c-16.15,8.43-32.25,16.66-47.86,24.47a5.37,5.37,0,0,1-4.8-9.6c15.55-7.78,31.6-16,47.7-24.38a5.37,5.37,0,0,1,5.17,9.4Zm370.3-217.34a5.36,5.36,0,0,1-5.57-9.16c14.88-9.54,30-19.34,45.06-29.14a5.37,5.37,0,1,1,5.86,9c-15.05,9.81-30.23,19.63-45.13,29.18ZM423.49,1260.88l-.33.18c-16.44,8-32.78,15.8-48.57,23.11a5.36,5.36,0,0,1-4.5-9.74c15.71-7.27,32-15,48.35-23a5.36,5.36,0,0,1,5.05,9.46Zm509.7-297.51a5.37,5.37,0,0,1-5.63-9.14c14.7-9.66,29.76-19.63,44.74-29.63a5.37,5.37,0,1,1,6,8.93c-15,10-30.08,20-44.8,29.67Zm-582.58,331.7a4.52,4.52,0,0,1-.49.25c-16.75,7.52-33.36,14.71-49.37,21.39a5.36,5.36,0,1,1-4.13-9.9c15.92-6.65,32.45-13.8,49.11-21.28a5.36,5.36,0,0,1,4.88,9.54Zm649.65-376.3a5.36,5.36,0,0,1-5.67-9.1c14.62-9.82,29.57-19.95,44.44-30.09a5.37,5.37,0,0,1,6,8.87c-14.9,10.15-29.87,20.29-44.5,30.13A3.37,3.37,0,0,1,1000.26,918.77Zm66.63-45.27a5.37,5.37,0,0,1-5.72-9.07c14.66-10.07,29.51-20.33,44.15-30.52a5.37,5.37,0,1,1,6.13,8.81c-14.65,10.2-29.53,20.48-44.2,30.56ZM276.53,1326.55a6.36,6.36,0,0,1-.7.33c-17.16,6.85-34.09,13.29-50.35,19.13a5.36,5.36,0,1,1-3.62-10.1c16.13-5.8,32.95-12.19,50-19a5.37,5.37,0,0,1,4.68,9.63Zm856.55-499a5.36,5.36,0,0,1-5.76-9c14.58-10.21,29.34-20.62,43.88-30.93a5.37,5.37,0,0,1,6.21,8.76c-14.56,10.32-29.34,20.74-43.93,31A4.37,4.37,0,0,1,1133.08,827.59Zm65.77-46.51a5.37,5.37,0,0,1-5.79-9c14.55-10.38,29.22-20.92,43.6-31.32a5.37,5.37,0,0,1,6.29,8.7c-14.4,10.41-29.09,21-43.65,31.36ZM201,1354.42a5.75,5.75,0,0,1-1,.44c-17.65,5.93-35,11.31-51.5,16a5.37,5.37,0,1,1-2.92-10.33c16.36-4.62,33.52-9.94,51-15.82a5.37,5.37,0,0,1,4.4,9.73ZM1264.22,734a5.37,5.37,0,0,1-5.83-9c14.38-10.46,29-21.13,43.32-31.71a5.37,5.37,0,0,1,6.37,8.64c-14.38,10.59-29,21.27-43.38,31.75Zm65-47.7a5.36,5.36,0,0,1-5.87-9c14.57-10.8,29-21.61,43-32.12a5.37,5.37,0,1,1,6.45,8.58c-14,10.52-28.49,21.35-43.08,32.16A4.21,4.21,0,0,1,1329.17,686.28Zm-1205.33,691a5.06,5.06,0,0,1-1.38.56c-18.29,4.59-36.08,8.39-52.86,11.29a5.36,5.36,0,1,1-1.83-10.57c16.52-2.86,34-6.61,52.08-11.13a5.37,5.37,0,0,1,4,9.85Zm1269.84-739.3a5.37,5.37,0,0,1-5.92-8.93c27.17-20.59,42.54-32.59,42.69-32.7a5.36,5.36,0,1,1,6.61,8.45c-.16.12-15.58,12.16-42.82,32.8A5,5,0,0,1,1393.68,637.94ZM44.84,1392.42a5.43,5.43,0,0,1-2,.68c-10.93,1.36-21.67,2.34-31.89,2.92a5.37,5.37,0,0,1-.61-10.72c10-.56,20.48-1.52,31.17-2.85a5.37,5.37,0,0,1,3.35,10Z"/><path d="M1120.57,770.63a1.59,1.59,0,0,1-.29.15,3.75,3.75,0,0,1-5-1.82,163.76,163.76,0,0,1-6.19-15.26,3.75,3.75,0,1,1,7.09-2.47c1.75,5,3.74,9.9,5.91,14.56A3.77,3.77,0,0,1,1120.57,770.63ZM1110,740.29a3.85,3.85,0,0,1-1,.39,3.75,3.75,0,0,1-4.54-2.75c-.88-3.6-1.64-7.25-2.27-10.85-.31-1.78-.59-3.57-.84-5.32a3.76,3.76,0,1,1,7.44-1c.24,1.67.51,3.38.8,5.09.6,3.43,1.33,6.91,2.16,10.34A3.77,3.77,0,0,1,1110,740.29Zm-4.47-31.83a3.63,3.63,0,0,1-1.73.5,3.74,3.74,0,0,1-3.89-3.62,153.3,153.3,0,0,1,.29-16.48,3.75,3.75,0,1,1,7.49.54,146.05,146.05,0,0,0-.28,15.67A3.75,3.75,0,0,1,1105.48,708.46Zm2.35-32a3.68,3.68,0,0,1-2.56.44,3.75,3.75,0,0,1-3-4.38,149,149,0,0,1,3.9-16,3.76,3.76,0,0,1,7.19,2.18,143.11,143.11,0,0,0-3.71,15.23A3.74,3.74,0,0,1,1107.83,676.43Zm9.28-30.76a3.76,3.76,0,0,1-5.35-4.71c2.1-5,4.49-10,7.13-14.83a3.75,3.75,0,1,1,6.6,3.57c-2.51,4.66-4.8,9.42-6.8,14.17A3.77,3.77,0,0,1,1117.11,645.67Zm15.25-28.3a3.76,3.76,0,0,1-5-5.32c1-1.57,2.12-3.15,3.22-4.71l6.07-8.59a3.76,3.76,0,1,1,6.13,4.35q-3.06,4.29-6.06,8.56c-1,1.5-2.09,3-3.09,4.54A3.76,3.76,0,0,1,1132.36,617.37Zm18.56-26.31a3.76,3.76,0,0,1-4.93-5.44q4.68-6.54,9.42-13.09a3.75,3.75,0,1,1,6.09,4.39q-4.73,6.55-9.4,13.07A3.75,3.75,0,0,1,1150.92,591.06Zm18.87-26.13a3.76,3.76,0,0,1-4.92-5.47q4.76-6.53,9.51-13a3.76,3.76,0,1,1,6.06,4.44q-4.76,6.47-9.49,13A3.85,3.85,0,0,1,1169.79,564.93Zm19-26a3.76,3.76,0,0,1-4.91-5.48q4.82-6.54,9.59-13a3.76,3.76,0,1,1,6,4.48L1190,537.91A3.83,3.83,0,0,1,1188.83,538.94ZM1208,513.05a3.75,3.75,0,0,1-4.89-5.49q4.88-6.56,9.65-12.92a3.76,3.76,0,1,1,6,4.51q-4.76,6.35-9.64,12.89A3.5,3.5,0,0,1,1208,513.05Zm19.32-25.79a3.76,3.76,0,0,1-4.88-5.51q4.95-6.58,9.71-12.87a3.76,3.76,0,0,1,6,4.53q-4.74,6.27-9.7,12.86A3.76,3.76,0,0,1,1227.34,487.26Zm19.43-25.71a3.75,3.75,0,0,1-4.87-5.52q5.07-6.67,9.77-12.83a3.76,3.76,0,1,1,6,4.56q-4.7,6.14-9.76,12.81A3.69,3.69,0,0,1,1246.77,461.55Zm19.55-25.62a3.76,3.76,0,0,1-4.86-5.54c3.52-4.6,6.81-8.88,9.82-12.79a3.75,3.75,0,1,1,6,4.58c-3,3.9-6.29,8.18-9.81,12.78A3.89,3.89,0,0,1,1266.32,435.93ZM1286,410.38a3.76,3.76,0,0,1-4.85-5.55c5.12-6.63,8.57-11.06,9.9-12.77a3.76,3.76,0,1,1,5.93,4.61l-9.89,12.75A3.81,3.81,0,0,1,1286,410.38Z"/><path d="M1107.18,791.27a144.52,144.52,0,0,1-14.36-26.21,176,176,0,0,1-14.07-58.45,168.76,168.76,0,0,1,.83-30.39c.35-2.52.65-5.05,1.05-7.56l1.41-7.51c.49-2.5,1.19-4.95,1.79-7.43s1.37-4.9,2.11-7.34,1.47-4.89,2.4-7.26,1.75-4.79,2.7-7.15l3.07-7,.77-1.75c.26-.58.56-1.14.85-1.71l1.72-3.41c2.19-4.61,4.87-8.94,7.41-13.35,1.29-2.19,2.76-4.27,4.13-6.41s2.78-4.29,4.22-6.29c5.73-8.12,11.43-16.26,17.24-24.32q34.79-48.42,71.6-95.27c24.48-31.28,49.52-62.13,75.65-92.09-22.6,32.7-45.75,64.93-69,97.12L1139.16,574c-5.83,8-11.53,16.11-17.3,24.16-1.49,2-2.79,4-4.16,6s-2.75,4-4,6.05c-2.46,4.16-5.06,8.24-7.23,12.56l-1.7,3.19c-.28.54-.58,1.06-.85,1.61l-.76,1.64-3,6.57c-.95,2.21-1.8,4.47-2.72,6.7s-1.7,4.52-2.48,6.8a165.85,165.85,0,0,0-7.06,28.08,177.3,177.3,0,0,0,.57,58.09c.78,4.83,1.85,9.62,3,14.39s2.59,9.48,4.16,14.15,3.26,9.31,5.2,13.86A135.88,135.88,0,0,0,1107.18,791.27Z"/><path d="M436.29,1142.12l-.05,0a55.4,55.4,0,0,1-16.11,6,3.76,3.76,0,0,1-1.46-7.37,47.67,47.67,0,0,0,13.9-5.21,3.76,3.76,0,0,1,3.72,6.53Zm12.89-9.56a3.75,3.75,0,0,1-4.5-5.94,45.22,45.22,0,0,0,8.84-11.86,3.76,3.76,0,0,1,6.7,3.4,52.52,52.52,0,0,1-10.3,13.84A3.9,3.9,0,0,1,449.18,1132.56Zm-43.92,15.71a3.74,3.74,0,0,1-2.32.47A90.54,90.54,0,0,1,386.6,1145a3.76,3.76,0,1,1,2.24-7.17,82.19,82.19,0,0,0,15,3.45,3.76,3.76,0,0,1,1.43,7Zm57.94-43.92a3.75,3.75,0,0,1-5.62-3.6,40.55,40.55,0,0,0,.13-5.52,43.77,43.77,0,0,0-1.44-9.12,3.76,3.76,0,0,1,7.26-1.93,51.3,51.3,0,0,1,1.68,10.7,47.73,47.73,0,0,1-.15,6.56A3.76,3.76,0,0,1,463.2,1104.35Zm-89,35.69a3.74,3.74,0,0,1-2.72.41,43.27,43.27,0,0,0-14.72-1,3.76,3.76,0,1,1-.81-7.47,50.94,50.94,0,0,1,17.21,1.13,3.76,3.76,0,0,1,1,6.92Zm-31.48,3a4,4,0,0,1-.51.24c-2,.78-4,1.69-6.15,2.72-2.59,1.25-5.32,2.59-8.1,4a3.75,3.75,0,0,1-3.37-6.71c2.81-1.42,5.57-2.78,8.2-4,2.28-1.1,4.52-2.09,6.66-2.93a3.76,3.76,0,0,1,3.27,6.74Zm-28.86,14.24-.12.07c-4.44,2.35-9.07,4.84-14.13,7.61a3.75,3.75,0,1,1-3.6-6.59c5.09-2.79,9.74-5.29,14.21-7.66a3.76,3.76,0,0,1,3.64,6.57Zm-28.28,15.4-.05,0-14,7.84a3.76,3.76,0,1,1-3.68-6.55l14.07-7.85a3.75,3.75,0,0,1,3.7,6.53Zm-28.09,15.72,0,0-14.07,7.86a3.75,3.75,0,1,1-3.65-6.56l14-7.85a3.76,3.76,0,0,1,3.72,6.53Zm198-114.76a3.75,3.75,0,0,1-5.13-1.36,81.44,81.44,0,0,0-9-12.44,3.76,3.76,0,0,1,5.67-4.93,88.48,88.48,0,0,1,9.83,13.59,3.75,3.75,0,0,1-1.35,5.14ZM229.34,1204l-.07,0q-7.08,3.9-14.17,7.72a3.76,3.76,0,0,1-5.09-1.53,3.72,3.72,0,0,1,1.53-5.08q7.05-3.81,14.11-7.69a3.76,3.76,0,0,1,3.69,6.55ZM201,1219.29l-.13.07c-4.92,2.57-9.75,5.06-14.37,7.4a3.75,3.75,0,1,1-3.39-6.7c4.59-2.32,9.39-4.8,14.27-7.35a3.76,3.76,0,0,1,3.62,6.58Zm-28.75,14.51-.25.13c-5,2.42-9.94,4.73-14.65,6.87a3.76,3.76,0,0,1-3.11-6.84c4.66-2.11,9.54-4.4,14.5-6.8a3.76,3.76,0,0,1,3.51,6.64Zm-29.31,13.3a3.42,3.42,0,0,1-.43.21c-3,1.26-6,2.49-8.91,3.65-2.06.82-4.11,1.62-6.13,2.4a3.76,3.76,0,1,1-2.7-7q3-1.15,6.05-2.37c2.87-1.14,5.82-2.35,8.78-3.6a3.76,3.76,0,0,1,3.34,6.72Zm-30,11.55a4.76,4.76,0,0,1-.65.29c-5.37,1.87-10.58,3.56-15.47,5a3.76,3.76,0,0,1-2.15-7.2c4.78-1.43,9.88-3.08,15.15-4.91a3.76,3.76,0,0,1,3.12,6.8ZM82,1267.78a4.1,4.1,0,0,1-1,.41c-1.72.39-3.43.76-5.08,1.09-2.64.54-6.63,1.34-11.2,1.84a3.75,3.75,0,1,1-.83-7.46c4.24-.47,7.89-1.2,10.55-1.74,1.58-.32,3.22-.67,4.87-1.05a3.76,3.76,0,0,1,2.73,6.91Zm-31.92,2.71a3.66,3.66,0,0,1-2.47.45,34.73,34.73,0,0,1-16.44-6.87,3.75,3.75,0,1,1,4.68-5.87,27.51,27.51,0,0,0,13,5.33,3.75,3.75,0,0,1,1.27,7Z"/><path d="M399.45,1039.42a20.84,20.84,0,0,0,3.7,7.32,31.48,31.48,0,0,0,5.77,5.82c.52.45,1.08.84,1.64,1.24s1.11.8,1.69,1.14L414,1056c.65.36,1.31.75,2,1.15a71.82,71.82,0,0,1,7.21,5.29,74.82,74.82,0,0,1,12.5,12.88,42.22,42.22,0,0,1,8.14,17,26.58,26.58,0,0,1,.1,10.18,26.87,26.87,0,0,1-3.95,9.5,33.49,33.49,0,0,1-3.08,4c-.55.62-1.15,1.16-1.73,1.74a19.74,19.74,0,0,1-1.8,1.64l-1.86,1.52c-.62.51-1.3.92-1.95,1.39a42.14,42.14,0,0,1-4.11,2.52,34.87,34.87,0,0,1-9.37,3.41,33.91,33.91,0,0,1-10,.39,48.31,48.31,0,0,1-9.21-1.92c-2.91-.85-5.69-1.84-8.38-2.81a130.82,130.82,0,0,0-15.92-5,62.06,62.06,0,0,0-16.26-1.65,70.84,70.84,0,0,0-16.44,2.55,95,95,0,0,0-15.83,6c-20.73,9.79-40.57,21.44-60.12,33.52l-14.69,9.06-7.35,4.52-7.39,4.45c-9.87,5.93-19.88,11.64-29.93,17.3-5.05,2.78-10.07,5.61-15.16,8.35s-10.16,5.48-15.33,8.09l-7.72,4c-2.59,1.29-5.22,2.52-7.82,3.78-5.21,2.54-10.51,4.89-15.83,7.22-1.33.58-2.65,1.17-4,1.73l-4,1.64-8.1,3.24c-5.42,2.06-10.88,4.05-16.4,5.87s-11.08,3.57-16.69,5.16-11.32,3-17.09,4.1a101.56,101.56,0,0,1-17.77,2.13,43.57,43.57,0,0,1-4.68-.16,23.21,23.21,0,0,1-4.93-.94,12.31,12.31,0,0,1-2.61-1.15,8.45,8.45,0,0,1-2.5-2.18,7,7,0,0,1-1.39-3.3,8.5,8.5,0,0,1,.16-3.14,15.82,15.82,0,0,1,2.06-4.72,29.7,29.7,0,0,1,2.77-3.74,69.23,69.23,0,0,1,6.26-6.32,145.93,145.93,0,0,1,13.74-10.69l.68.83c-4.12,4-8.19,8.07-11.9,12.35a64.25,64.25,0,0,0-5.13,6.59,30.66,30.66,0,0,0-2,3.44A10.41,10.41,0,0,0,48,1240a2.7,2.7,0,0,0,.06,1.14,1.11,1.11,0,0,0,.38.57,4.87,4.87,0,0,0,2.22.93,25.91,25.91,0,0,0,7.51.13,109,109,0,0,0,16.25-3.27c5.42-1.45,10.8-3.17,16.16-5s10.7-3.75,16-5.81,10.57-4.17,15.82-6.37l7.82-3.37,3.92-1.67c1.3-.57,2.59-1.18,3.88-1.77,20.74-9.35,41.3-19.36,61.68-29.84l30.54-15.88c10.19-5.29,20.49-10.42,30.75-15.64,20.57-10.33,40.94-21,61.48-31.5,10.27-5.32,21.35-9.84,33.3-11.36a68,68,0,0,1,18.08.07,117.1,117.1,0,0,1,17.34,4c5.52,1.59,10.81,3.27,15.77,3.68a24.28,24.28,0,0,0,14-2.7,31.9,31.9,0,0,0,3.25-1.93c.53-.36,1.09-.69,1.59-1.08l1.51-1.16a15.39,15.39,0,0,0,1.42-1.22c.45-.43.94-.83,1.36-1.28a25.67,25.67,0,0,0,2.28-2.76,18.18,18.18,0,0,0,2.91-6.19,19.27,19.27,0,0,0,.25-7,36.74,36.74,0,0,0-5.81-14.25,69.5,69.5,0,0,0-4.86-6.6,79.24,79.24,0,0,0-5.57-6.18c-2-2-4-3.84-6.15-5.59-.53-.43-1.06-.84-1.63-1.24l-1.79-1.43c-.61-.47-1.16-1-1.72-1.5a21.8,21.8,0,0,1-1.62-1.57,32.58,32.58,0,0,1-5.38-7.25,22.28,22.28,0,0,1-1.78-4.14,16.4,16.4,0,0,1-.85-4.45Z"/><path d="M1038.94,168.44c-.88.92-1.8,1.74-2.71,2.6s-1.86,1.66-2.81,2.47l-2.84,2.43-2.93,2.32c-3.86,3.15-8,6-12,8.9l-1.52,1.09-1.57,1-3.12,2-6.26,4.08c-4.24,2.6-8.54,5.1-12.82,7.66-2.12,1.31-4.33,2.44-6.52,3.63l-6.57,3.54c-2.2,1.17-4.37,2.39-6.59,3.52L964,217c-4.48,2.16-8.93,4.4-13.45,6.49l-13.69,6c-36.66,15.62-74.73,27.73-113.29,37.67l-14.46,3.78c-2.4.67-4.83,1.18-7.26,1.72l-7.29,1.63c-9.72,2.16-19.42,4.46-29.16,6.53q-14.67,2.74-29.38,5.29l-14.67,2.47c-4.83.76-9.69,1.6-14.53,2.47-9.69,1.66-19.32,3.58-28.81,5.86-4.77,1.08-9.45,2.37-14.11,3.73s-9.19,3-13.62,4.78A71.85,71.85,0,0,0,637.71,312a37.77,37.77,0,0,0-10,9.46,33.6,33.6,0,0,0-3.43,6.05,47.87,47.87,0,0,0-2.22,6.77,65.7,65.7,0,0,0-1.27,7.18c-.34,2.43-.53,4.9-.71,7.37h0a.54.54,0,0,1-1.07,0,76.15,76.15,0,0,1-.07-15.1,43.12,43.12,0,0,1,1.53-7.61,37.72,37.72,0,0,1,3.09-7.28,43,43,0,0,1,10.38-11.95,73.7,73.7,0,0,1,13.16-8.31c9.17-4.67,18.82-7.91,28.46-10.82s19.43-5.12,29.21-7.23c4.9-1,9.8-2,14.74-2.86s9.76-1.7,14.65-2.56q14.61-2.47,29.27-4.72c2.45-.33,4.86-.87,7.29-1.3l7.27-1.36L792.54,265l7.28-1.39c2.43-.46,4.86-.9,7.26-1.48l14.43-3.3C860,250,898.06,239,934.81,224.52l13.77-5.46c4.55-1.92,9-4,13.55-6l6.77-3c2.24-1,4.43-2.18,6.65-3.26l6.64-3.29c2.21-1.1,4.45-2.15,6.6-3.38,4.32-2.38,8.68-4.71,13-7.15l6.34-3.83,3.17-1.92,1.59-1,1.54-1c4.12-2.72,8.29-5.38,12.24-8.34l3-2.18,2.9-2.29c2-1.51,3.84-3.13,5.64-4.77l0,0a.54.54,0,0,1,.75,0A.52.52,0,0,1,1038.94,168.44Z"/><path d="M1029.8,599a3.76,3.76,0,0,1-3.88-6.43c4.09-2.6,8.44-5.64,12.92-9a3.75,3.75,0,0,1,4.54,6c-4.64,3.53-9.16,6.69-13.44,9.4Zm-14.08,7.74-.33.17c-1.09.49-2.17,1-3.21,1.38-3.71,1.5-7.87,3-12.36,4.35a3.76,3.76,0,0,1-2.21-7.18c4.29-1.32,8.24-2.71,11.74-4.13,1-.39,1.94-.81,2.93-1.26a3.76,3.76,0,0,1,3.44,6.67Zm39.79-27.07a3.76,3.76,0,0,1-4.31-6.12c3.83-3.26,7.84-6.83,11.91-10.59a3.76,3.76,0,1,1,5.1,5.52c-4.14,3.83-8.23,7.46-12.14,10.79A4.12,4.12,0,0,1,1055.51,579.69ZM985,616.48a3.61,3.61,0,0,1-1,.4c-5,1.16-10.32,2.28-16,3.33a3.75,3.75,0,1,1-1.38-7.38c5.53-1,10.78-2.13,15.63-3.26a3.76,3.76,0,0,1,2.73,6.91Zm94.16-58.6a3.76,3.76,0,0,1-4.51-5.94c3.63-3.57,7.42-7.4,11.26-11.36a3.76,3.76,0,0,1,5.4,5.22c-3.88,4-7.72,7.88-11.4,11.5A3.77,3.77,0,0,1,1079.18,557.88ZM953.33,622.46a3.59,3.59,0,0,1-1.31.46c-5.08.78-10.49,1.53-16.06,2.24a3.76,3.76,0,1,1-1-7.45c5.51-.7,10.85-1.45,15.87-2.21a3.75,3.75,0,0,1,2.45,7Zm148.26-87.69A3.76,3.76,0,0,1,1097,529c3.52-3.78,7.17-7.76,10.82-11.83a3.76,3.76,0,0,1,5.59,5c-3.69,4.09-7.36,8.1-10.91,11.92A4.11,4.11,0,0,1,1101.59,534.77Zm21.54-23.92a3.76,3.76,0,0,1-4.7-5.73c3.39-3.87,6.93-8,10.5-12.14a3.76,3.76,0,1,1,5.71,4.88c-3.59,4.2-7.14,8.31-10.56,12.21A3.7,3.7,0,0,1,1123.13,510.85ZM921.34,626.57a3.85,3.85,0,0,1-1.48.48c-5.2.55-10.62,1.09-16.11,1.58a3.75,3.75,0,1,1-.67-7.48c5.45-.49,10.83-1,16-1.57a3.76,3.76,0,0,1,2.28,7Zm222.71-140.19a3.75,3.75,0,0,1-4.75-5.66c3.35-4,6.8-8.17,10.24-12.37a3.76,3.76,0,0,1,5.81,4.77c-3.46,4.21-6.92,8.39-10.29,12.42A3.51,3.51,0,0,1,1144.05,486.38ZM889.22,629.48a3.71,3.71,0,0,1-1.59.49c-5.24.4-10.67.78-16.14,1.13a3.75,3.75,0,1,1-.48-7.49c5.44-.35,10.84-.73,16-1.13a3.76,3.76,0,0,1,2.16,7Zm275.27-168a3.76,3.76,0,0,1-4.8-5.62q5.1-6.31,10-12.54a3.75,3.75,0,1,1,5.88,4.67q-5,6.24-10.09,12.59A3.86,3.86,0,0,1,1164.49,461.51ZM857,631.55a3.69,3.69,0,0,1-1.68.49c-5.3.29-10.74.55-16.14.79a3.76,3.76,0,0,1-.33-7.51c5.38-.23,10.79-.5,16.07-.78a3.76,3.76,0,0,1,2.08,7Zm327.5-195.26a3.76,3.76,0,0,1-4.84-5.57q5.07-6.47,9.87-12.69a3.75,3.75,0,1,1,5.94,4.59c-3.2,4.15-6.51,8.4-9.89,12.73A3.83,3.83,0,0,1,1184.53,436.29ZM824.8,633a3.64,3.64,0,0,1-1.74.5q-8.25.28-16.15.5a3.76,3.76,0,1,1-.2-7.51q7.86-.21,16.09-.5a3.76,3.76,0,0,1,2,7Zm379.41-222.17a3.76,3.76,0,0,1-4.87-5.53c3.39-4.44,6.63-8.73,9.71-12.82a3.75,3.75,0,1,1,6,4.51c-3.08,4.11-6.33,8.41-9.73,12.86A3.69,3.69,0,0,1,1204.21,410.79ZM1223.57,385a3.76,3.76,0,0,1-4.9-5.49c3.53-4.75,6.73-9.09,9.55-12.94a3.75,3.75,0,1,1,6.06,4.43c-2.83,3.87-6,8.22-9.57,13A3.63,3.63,0,0,1,1223.57,385Zm-431,248.79a3.65,3.65,0,0,1-1.8.5c-5.61.11-11,.19-16.16.25a3.76,3.76,0,1,1-.09-7.51c5.13-.06,10.51-.14,16.11-.25a3.76,3.76,0,0,1,1.94,7ZM1242.6,359a3.76,3.76,0,0,1-4.93-5.45c2.2-3,3.64-5.06,4.19-5.84l.09-.12,5.42-7.05a3.76,3.76,0,1,1,6,4.58l-5.39,7c-.58.83-2,2.82-4.17,5.82A3.68,3.68,0,0,1,1242.6,359ZM760.29,634.22a3.67,3.67,0,0,1-1.86.5c-6,0-11.39,0-16.17,0a3.76,3.76,0,0,1,0-7.51c4.76,0,10.17,0,16.11,0a3.76,3.76,0,0,1,1.9,7Zm-32.3-.09a3.69,3.69,0,0,1-1.92.5c-2.91,0-4.88-.07-5.8-.08l-10.26.08a3.76,3.76,0,1,1-.06-7.51l10.36-.08,5.85.08a3.76,3.76,0,0,1,1.83,7Z"/><path d="M1227.66,337.16c-13.58,21.07-28,41.6-42.6,62q-11,15.22-22.38,30.24c-7.53,10-15.28,19.89-23.06,29.74s-15.7,19.6-23.84,29.17-16.34,19.09-24.78,28.44c-4.2,4.68-8.51,9.28-12.87,13.83s-8.78,9.05-13.27,13.49-9.08,8.81-13.76,13.08-9.47,8.46-14.44,12.48-10.15,7.83-15.59,11.38c-2.71,1.78-5.53,3.45-8.43,5-1.45.8-3,1.51-4.46,2.26l-2.32,1-1.16.5-1.15.43c-12.25,4.68-24.7,7.56-37.17,9.89s-25,4-37.53,5.35l-9.39,1-9.4.86-9.4.71-9.41.63c-12.54.77-25.08,1.42-37.63,1.77s-25.09.59-37.62.67c-25.09,0-50.16-.33-75.19-1.58,25-1.13,50.05-2.17,75-3.68,12.49-.71,25-1.49,37.43-2.43s24.91-1.88,37.33-3.1c24.8-2.5,49.63-5.22,73.86-10.16l4.53-.93,4.51-1c3-.63,6-1.43,8.94-2.17,1.49-.37,2.94-.82,4.41-1.23s2.93-.82,4.36-1.32l4.3-1.41,4.2-1.59a83,83,0,0,0,15.56-8.38c5-3.31,9.9-7,14.67-10.84,9.58-7.67,18.71-16,27.6-24.69s17.49-17.64,26-26.71c17.09-18.12,33.38-37.05,49.62-56,8.1-9.52,16-19.16,24-28.79s15.86-19.34,23.7-29.08C1196.65,376.51,1212.15,356.85,1227.66,337.16Z"/><path d="M1015.9,851.77a3.74,3.74,0,0,1-5.55-2.48l-3.28-15.76a3.75,3.75,0,1,1,7.35-1.53l3.28,15.75A3.75,3.75,0,0,1,1015.9,851.77Zm-6.56-31.51a3.77,3.77,0,0,1-5.56-2.49L1000.5,802a3.75,3.75,0,1,1,7.35-1.53l3.29,15.76A3.75,3.75,0,0,1,1009.34,820.26Zm-6.57-31.52a3.45,3.45,0,0,1-1.11.42,3.75,3.75,0,0,1-4.44-2.91l-3.28-15.76a3.75,3.75,0,1,1,7.35-1.53l3.28,15.76A3.75,3.75,0,0,1,1002.77,788.74Zm-6.56-31.52a3.82,3.82,0,0,1-1.11.43,3.77,3.77,0,0,1-4.45-2.91L987.37,739a3.76,3.76,0,1,1,7.36-1.54L998,753.2A3.75,3.75,0,0,1,996.21,757.22Zm-6.56-31.51a3.87,3.87,0,0,1-1.12.42,3.75,3.75,0,0,1-4.44-2.91l-3.28-15.76a3.75,3.75,0,1,1,7.35-1.53l3.28,15.76A3.76,3.76,0,0,1,989.65,725.71ZM980.78,695a3.76,3.76,0,0,1-5-1.25,34.63,34.63,0,0,0-10.07-10.28,3.76,3.76,0,0,1,4.14-6.27,42.07,42.07,0,0,1,12.28,12.54,3.74,3.74,0,0,1-1.17,5.18A.57.57,0,0,1,980.78,695Zm-26-17.23a3.7,3.7,0,0,1-2.48.45,34.18,34.18,0,0,0-6.56-.42l-8.79.27a3.75,3.75,0,1,1-.23-7.5l8.78-.28a41.92,41.92,0,0,1,8,.52,3.76,3.76,0,0,1,1.28,7Zm-32.16.31a3.75,3.75,0,0,1-1.76.5l-16.09.5a3.76,3.76,0,0,1-.23-7.51l16.09-.5a3.76,3.76,0,0,1,2,7Zm-32.18,1a3.68,3.68,0,0,1-1.75.5l-16.09.5a3.76,3.76,0,0,1-.24-7.51l16.09-.5a3.76,3.76,0,0,1,2,7Zm-32.17,1a3.75,3.75,0,0,1-1.76.5l-16.09.5a3.75,3.75,0,0,1-.24-7.5l16.09-.51a3.76,3.76,0,0,1,2,7Zm-32.18,1a3.75,3.75,0,0,1-1.76.5l-16.09.5a3.76,3.76,0,1,1-.23-7.51l16.09-.5a3.76,3.76,0,0,1,2,7Zm-32.18,1a3.63,3.63,0,0,1-1.76.49l-16.09.51a3.76,3.76,0,1,1-.23-7.51l16.09-.5a3.76,3.76,0,0,1,2,7Zm-32.18,1a3.71,3.71,0,0,1-1.75.5l-16.09.51a3.76,3.76,0,0,1-.24-7.51l16.09-.51a3.76,3.76,0,0,1,2,7Zm-32.17,1a3.75,3.75,0,0,1-1.76.5l-16.09.5a3.76,3.76,0,0,1-.24-7.51l16.09-.5a3.76,3.76,0,0,1,2,7Zm-32.18,1a3.75,3.75,0,0,1-1.76.5l-16.09.5a3.76,3.76,0,0,1-.23-7.51l16.08-.5a3.76,3.76,0,0,1,2,7Zm-32.18,1a3.75,3.75,0,0,1-1.76.5l-16.09.51a3.76,3.76,0,0,1-.23-7.51l16.09-.51a3.76,3.76,0,0,1,2,7Z"/><path d="M744.9,252.59A97.7,97.7,0,0,0,729,228.84a85.59,85.59,0,0,0-22.6-17.54A104.6,104.6,0,0,0,679,201.42a189,189,0,0,0-29.42-3.71c-20-.87-40.2-1.64-60.29-2.32q-15.09-.51-30.17-.89-7.54-.18-15.09-.28c-2.51,0-5-.07-7.54,0l-3.77,0-3.77.14,3.76-.31,3.77-.19c2.52-.15,5-.21,7.55-.3q7.54-.24,15.09-.39c10.07-.21,20.13-.34,30.2-.45,20.14-.22,40.23-.34,60.42-.36a194.67,194.67,0,0,1,30.56,2.49A111.77,111.77,0,0,1,710,204.13a94.12,94.12,0,0,1,25.71,18.19,107.55,107.55,0,0,1,18.72,25.4,5.37,5.37,0,0,1-9.43,5.13l-.1-.19Z"/><path d="M566.17,193.85c-.25,2.43-.5,4.85-.7,7.27s-.46,4.84-.66,7.26c-.37,4.84-.78,9.66-1.09,14.48-.67,9.64-1.19,19.26-1.47,28.87s-.38,19.21-.2,28.77.57,19.12,1.42,28.62a290.2,290.2,0,0,0,9.77,56.08A203.42,203.42,0,0,0,583,392c1,2.2,2.1,4.29,3.13,6.45.54,1.07,1,2.18,1.61,3.22l1.78,3.14c2.24,4.28,5,8.22,7.58,12.41-1.76-1.69-3.46-3.45-5.2-5.18a31.73,31.73,0,0,1-2.47-2.72l-2.37-2.83-2.35-2.86c-.78-1-1.44-2-2.17-3l-2.12-3c-.68-1-1.45-2-2.06-3.08a152.42,152.42,0,0,1-13.14-26.62c-7-18.59-10.86-38.23-12.47-57.87-.42-4.92-.64-9.84-.84-14.76s-.19-9.85,0-14.76q.32-14.75,2-29.37c1.12-9.74,2.65-19.41,4.66-29,1-4.79,2.11-9.55,3.38-14.27S564.51,198.45,566.17,193.85Z"/><path d="M535.17,394.94l49.08,4.62-48.92,6.11A5.4,5.4,0,0,1,534,395,5.82,5.82,0,0,1,535.17,394.94Z"/><path d="M473.07,1293.38l24.72,32.09a5.42,5.42,0,0,1-8.58,6.61,5.57,5.57,0,0,1-.71-1.25Z"/><path d="M520.39,1272l24.45,31.6a5.42,5.42,0,0,1-8.57,6.63,5.73,5.73,0,0,1-.73-1.26Z"/><path d="M568.45,1249.33l24.16,31.13a5.41,5.41,0,1,1-9.29,5.37Z"/><path d="M616,1226.15l23.88,30.62a5.42,5.42,0,0,1-8.55,6.66,6,6,0,0,1-.75-1.29Z"/><path d="M663.58,1202.29l23.61,30.17a5.42,5.42,0,1,1-8.53,6.68,5.14,5.14,0,0,1-.76-1.32Z"/><path d="M713.08,1176.75l23.35,29.7a5.42,5.42,0,1,1-8.53,6.7,5.75,5.75,0,0,1-.77-1.33Z"/><path d="M768.4,1147.45l23.08,29.25a5.42,5.42,0,1,1-9.29,5.36Z"/><path d="M822.36,1118.14,845.19,1147a5.42,5.42,0,1,1-8.5,6.73,5.73,5.73,0,0,1-.79-1.37Z"/><path d="M874.34,1089.27l22.64,28.5a5.42,5.42,0,0,1-8.49,6.75,5.56,5.56,0,0,1-.8-1.39Z"/><path d="M926.8,1059.54l22.41,28.08a5.42,5.42,0,0,1-8.48,6.76,5.06,5.06,0,0,1-.81-1.4Z"/><path d="M985.63,1025.52l22.3,27.91a5.42,5.42,0,0,1-8.47,6.77,5.58,5.58,0,0,1-.82-1.41Z"/><path d="M1035.86,996.63l21.83,27.07a5.43,5.43,0,0,1-8.46,6.82,5.88,5.88,0,0,1-.84-1.45Z"/><path d="M1086,965.89l21.9,27.21a5.43,5.43,0,0,1-8.46,6.81,6,6,0,0,1-.83-1.45Z"/><path d="M1135.75,935.62l21.62,26.72a5.43,5.43,0,0,1-8.45,6.83,5.68,5.68,0,0,1-.85-1.46Z"/><path d="M1186.2,904.41l21.25,26.08a5.44,5.44,0,0,1-8.43,6.87,5.65,5.65,0,0,1-.86-1.5Z"/><path d="M1236.67,872.66l20.78,25.27a5.44,5.44,0,1,1-8.4,6.91,5.82,5.82,0,0,1-.89-1.54Z"/><path d="M1286.29,840.87l20.22,24.29a5.44,5.44,0,0,1-8.37,7,5.59,5.59,0,0,1-.92-1.6Z"/><path d="M1335.13,808.64,1354.8,832a5.45,5.45,0,1,1-8.34,7,5.66,5.66,0,0,1-1-1.66Z"/><path d="M1409.78,755.9l19.32,22.74a5.46,5.46,0,1,1-8.31,7.07,5.52,5.52,0,0,1-1-1.7Z"/><path d="M1443.37,732l17.38,19.37a5.48,5.48,0,0,1-8.17,7.32,5.7,5.7,0,0,1-1.13-2Z"/><path d="M1469.39,708l20,24a5.45,5.45,0,0,1-8.36,7,5.76,5.76,0,0,1-.94-1.62Z"/><path d="M480.49,1307h0a3.22,3.22,0,0,1-4.24-1.64h0a3.24,3.24,0,0,1,1.63-4.26h0a3.23,3.23,0,0,1,4.25,1.64h0a3.24,3.24,0,0,1-1.32,4.1h0Zm-8.84,3.89h0a3.22,3.22,0,0,1-4.25-1.65h0a3.23,3.23,0,0,1,1.65-4.24h0a3.22,3.22,0,0,1,4.25,1.65h0a3.22,3.22,0,0,1-1.33,4.08h0A2.39,2.39,0,0,1,471.65,1310.93Zm-8.87,3.88a3.24,3.24,0,0,1-4.24-1.68h0a3.21,3.21,0,0,1,1.69-4.23h0a3.19,3.19,0,0,1,4.22,1.67h0a3.21,3.21,0,0,1-1.34,4.07h0Zm-8.9,3.81a3.23,3.23,0,0,1-4.22-1.71h0a3.21,3.21,0,0,1,1.71-4.21h0a3.21,3.21,0,0,1,4.22,1.7h0a3.23,3.23,0,0,1-1.35,4h0Zm-8.92,3.76a3.22,3.22,0,0,1-4.21-1.73h0a3.22,3.22,0,0,1,1.74-4.21h0a3.21,3.21,0,0,1,4.21,1.73h0a3.23,3.23,0,0,1-1.37,4h0A1.84,1.84,0,0,1,445,1322.38Zm-8.94,3.7h0a3.2,3.2,0,0,1-4.19-1.75h0a3.22,3.22,0,0,1,1.74-4.21h0a3.22,3.22,0,0,1,4.2,1.75h0a3.23,3.23,0,0,1-1.37,4h0A3.54,3.54,0,0,1,436,1326.08Zm-9,3.65a3.2,3.2,0,0,1-4.18-1.78h0a3.19,3.19,0,0,1,1.78-4.19h0a3.23,3.23,0,0,1,4.19,1.79h0a3.2,3.2,0,0,1-1.37,4h0A2.71,2.71,0,0,1,427.05,1329.73Zm-9,3.59a3.22,3.22,0,0,1-4.18-1.81h0a3.23,3.23,0,0,1,1.8-4.18h0a3.22,3.22,0,0,1,4.18,1.82h0a3.21,3.21,0,0,1-1.37,4h0A4.25,4.25,0,0,1,418.07,1333.32Zm-9,3.53h0a3.21,3.21,0,0,1-4.17-1.83h0a3.21,3.21,0,0,1,1.83-4.17h0a3.24,3.24,0,0,1,4.17,1.83h0a3.23,3.23,0,0,1-1.38,4h0A2.62,2.62,0,0,1,409.06,1336.85Zm-9,3.48h0a3.21,3.21,0,0,1-4.16-1.85h0a3.22,3.22,0,0,1,1.86-4.16h0a3.22,3.22,0,0,1,4.16,1.85h0a3.22,3.22,0,0,1-1.4,3.94h0A2.77,2.77,0,0,1,400,1340.33Zm-9.06,3.42a3.21,3.21,0,0,1-4.14-1.88h0a3.23,3.23,0,0,1,1.88-4.15h0a3.23,3.23,0,0,1,4.15,1.89h0a3.24,3.24,0,0,1-1.4,3.92h0A2.43,2.43,0,0,1,391,1343.75Zm-9.08,3.37a3.22,3.22,0,0,1-4.13-1.91h0a3.22,3.22,0,0,1,1.92-4.13h0a3.22,3.22,0,0,1,4.13,1.91h0a3.21,3.21,0,0,1-1.41,3.89h0A4,4,0,0,1,381.89,1347.12Zm-9.09,3.31h0a3.22,3.22,0,0,1-4.12-1.94h0a3.21,3.21,0,0,1,1.94-4.12h0a3.23,3.23,0,0,1,4.12,1.94h0a3.23,3.23,0,0,1-1.42,3.88h0A3.08,3.08,0,0,1,372.8,1350.43Zm-9.12,3.25a3.22,3.22,0,0,1-4.11-2h0a3.22,3.22,0,0,1,2-4.11h0a3.22,3.22,0,0,1,4.11,2h0a3.22,3.22,0,0,1-1.43,3.86h0A3,3,0,0,1,363.68,1353.68Zm-9.13,3.19h0a3.22,3.22,0,0,1-4.1-2h0a3.23,3.23,0,0,1,2-4.1h0a3.2,3.2,0,0,1,4.09,2h0a3.21,3.21,0,0,1-1.42,3.84h0A2.34,2.34,0,0,1,354.55,1356.87Zm-9.16,3.15h0a3.21,3.21,0,0,1-4.08-2h0a3.21,3.21,0,0,1,2-4.09h0a3.23,3.23,0,0,1,4.09,2h0a3.22,3.22,0,0,1-1.45,3.82h0A3.33,3.33,0,0,1,345.39,1360Zm-9.18,3.07a3.22,3.22,0,0,1-4.07-2h0a3.23,3.23,0,0,1,2.05-4.07h0a3.22,3.22,0,0,1,4.06,2h0a3.2,3.2,0,0,1-1.43,3.8h0A3.05,3.05,0,0,1,336.21,1363.09Zm-9.19,3A3.22,3.22,0,0,1,323,1364h0a3.22,3.22,0,0,1,2.07-4h0a3.21,3.21,0,0,1,4.05,2.07h0a3.22,3.22,0,0,1-1.45,3.79h0A3.39,3.39,0,0,1,327,1366.11Zm-9.22,3a3.22,3.22,0,0,1-4-2.09h0a3.22,3.22,0,0,1,2.1-4h0a3.21,3.21,0,0,1,4,2.1h0a3.2,3.2,0,0,1-1.45,3.76h0A4.12,4.12,0,0,1,317.8,1369.08Zm-9.23,2.9h0a3.22,3.22,0,0,1-4-2.11h0a3.22,3.22,0,0,1,2.12-4h0a3.22,3.22,0,0,1,4,2.12h0a3.21,3.21,0,0,1-1.46,3.74h0A3,3,0,0,1,308.57,1372Zm-9.25,2.85h0a3.22,3.22,0,0,1-4-2.14h0a3.23,3.23,0,0,1,2.14-4h0a3.21,3.21,0,0,1,4,2.15h0a3.22,3.22,0,0,1-1.47,3.72h0A2.89,2.89,0,0,1,299.32,1374.83Zm-9.27,2.79a3.23,3.23,0,0,1-4-2.17h0a3.24,3.24,0,0,1,2.17-4h0a3.24,3.24,0,0,1,4,2.18h0a3.22,3.22,0,0,1-1.48,3.7h0A3.06,3.06,0,0,1,290.05,1377.62Zm-9.28,2.73a3.22,3.22,0,0,1-4-2.19h0a3.21,3.21,0,0,1,2.19-4h0a3.22,3.22,0,0,1,4,2.19h0a3.21,3.21,0,0,1-1.48,3.68h0A3.47,3.47,0,0,1,280.77,1380.35Zm-9.31,2.66a3.22,3.22,0,0,1-4-2.21h0a3.21,3.21,0,0,1,2.22-4h0a3.24,3.24,0,0,1,4,2.22h0a3.22,3.22,0,0,1-1.49,3.67h0A2.61,2.61,0,0,1,271.46,1383Zm-9.32,2.62a3.22,3.22,0,0,1-4-2.25h0a3.21,3.21,0,0,1,2.24-4h0a3.23,3.23,0,0,1,4,2.25h0a3.23,3.23,0,0,1-1.5,3.64h0A3.6,3.6,0,0,1,262.14,1385.63Zm-9.35,2.54a3.2,3.2,0,0,1-3.93-2.27h0a3.21,3.21,0,0,1,2.27-3.94h0a3.21,3.21,0,0,1,3.94,2.28h0a3.21,3.21,0,0,1-1.5,3.61h0A3,3,0,0,1,252.79,1388.17Zm-9.35,2.49a3.21,3.21,0,0,1-3.93-2.29h0a3.24,3.24,0,0,1,2.3-3.94h0a3.22,3.22,0,0,1,3.93,2.3h0a3.24,3.24,0,0,1-1.5,3.61h0A3.52,3.52,0,0,1,243.44,1390.66Zm-9.37,2.43h0a3.22,3.22,0,0,1-3.92-2.32h0a3.22,3.22,0,0,1,2.33-3.91h0a3.2,3.2,0,0,1,3.91,2.31h0a3.22,3.22,0,0,1-1.51,3.59h0A3.21,3.21,0,0,1,234.07,1393.09Zm-9.39,2.37a3.23,3.23,0,0,1-3.9-2.36h0a3.22,3.22,0,0,1,2.35-3.89h0a3.2,3.2,0,0,1,3.9,2.34h0a3.2,3.2,0,0,1-1.51,3.57h0A3.69,3.69,0,0,1,224.68,1395.46Zm-9.4,2.29h0a3.22,3.22,0,0,1-3.89-2.37h0a3.22,3.22,0,0,1,2.38-3.88h0a3.22,3.22,0,0,1,3.89,2.37h0a3.23,3.23,0,0,1-1.52,3.55h0A3,3,0,0,1,215.28,1397.75Zm-9.42,2.24a3.22,3.22,0,0,1-3.87-2.4h0a3.21,3.21,0,0,1,2.41-3.87h0a3.21,3.21,0,0,1,3.86,2.4h0a3.22,3.22,0,0,1-1.52,3.53h0A3.22,3.22,0,0,1,205.86,1400Zm-9.44,2.17h0a3.24,3.24,0,0,1-3.86-2.43h0a3.24,3.24,0,0,1,2.43-3.86h0a3.22,3.22,0,0,1,3.85,2.42h0a3.22,3.22,0,0,1-1.54,3.5h0A3,3,0,0,1,196.42,1402.16Zm-9.44,2.11a3.22,3.22,0,0,1-3.84-2.46h0a3.23,3.23,0,0,1,2.45-3.83h0a3.23,3.23,0,0,1,3.84,2.45h0a3.22,3.22,0,0,1-1.54,3.48h0A3.15,3.15,0,0,1,187,1404.27Zm-9.46,2a3.24,3.24,0,0,1-3.83-2.48h0a3.23,3.23,0,0,1,2.48-3.82h0a3.22,3.22,0,0,1,3.81,2.49h0a3.21,3.21,0,0,1-1.54,3.46h0A3,3,0,0,1,177.52,1406.31Zm-9.5,2a3.2,3.2,0,0,1-3.79-2.51h0a3.22,3.22,0,0,1,2.52-3.8h0a3.21,3.21,0,0,1,3.79,2.52h0a3.23,3.23,0,0,1-1.55,3.43h0A3,3,0,0,1,168,1408.28Zm-9.48,1.9a3.22,3.22,0,0,1-3.79-2.54h0a3.22,3.22,0,0,1,2.55-3.77h0a3.22,3.22,0,0,1,3.78,2.54h0a3.23,3.23,0,0,1-1.55,3.41h0A3.35,3.35,0,0,1,158.54,1410.18ZM149,1412h0a3.19,3.19,0,0,1-3.76-2.56h0a3.22,3.22,0,0,1,2.56-3.76h0a3.22,3.22,0,0,1,3.76,2.56h0a3.2,3.2,0,0,1-1.55,3.39h0A2.92,2.92,0,0,1,149,1412Zm-9.52,1.76h0a3.22,3.22,0,0,1-3.74-2.59h0a3.23,3.23,0,0,1,2.6-3.75h0a3.23,3.23,0,0,1,3.74,2.59h0a3.22,3.22,0,0,1-1.56,3.36h0A3,3,0,0,1,139.51,1413.77Zm-9.55,1.69a3.23,3.23,0,0,1-3.72-2.62h0a3.24,3.24,0,0,1,2.64-3.73h0a3.22,3.22,0,0,1,3.71,2.63h0a3.21,3.21,0,0,1-1.56,3.34h0A3,3,0,0,1,130,1415.46Zm-9.54,1.61a3.21,3.21,0,0,1-3.7-2.66h0a3.22,3.22,0,0,1,2.65-3.7h0a3.22,3.22,0,0,1,3.69,2.66h0a3.21,3.21,0,0,1-1.57,3.31h0A3.11,3.11,0,0,1,120.42,1417.07Zm-9.58,1.52a3.21,3.21,0,0,1-3.67-2.68h0a3.21,3.21,0,0,1,2.69-3.67h0a3.21,3.21,0,0,1,3.67,2.68h0a3.21,3.21,0,0,1-1.56,3.28h0A3,3,0,0,1,110.84,1418.59Zm-9.57,1.45a3.21,3.21,0,0,1-3.65-2.72h0a3.21,3.21,0,0,1,2.71-3.65h0a3.23,3.23,0,0,1,3.66,2.73h0a3.22,3.22,0,0,1-1.58,3.25h0A3.21,3.21,0,0,1,101.27,1420Zm-9.59,1.37a3.24,3.24,0,0,1-3.63-2.76h0A3.22,3.22,0,0,1,90.8,1415h0a3.24,3.24,0,0,1,3.63,2.76h0a3.22,3.22,0,0,1-1.59,3.23h0A3.4,3.4,0,0,1,91.68,1421.41Zm-9.61,1.27h0a3.22,3.22,0,0,1-3.59-2.78h0a3.2,3.2,0,0,1,2.78-3.6h0a3.21,3.21,0,0,1,3.6,2.78h0a3.21,3.21,0,0,1-1.58,3.19h0A3.11,3.11,0,0,1,82.07,1422.68Zm-9.62,1.18h0a3.24,3.24,0,0,1-3.58-2.82h0a3.22,3.22,0,0,1,2.82-3.57h0a3.22,3.22,0,0,1,3.58,2.82h0a3.22,3.22,0,0,1-1.59,3.17h0A3.13,3.13,0,0,1,72.45,1423.86Zm-9.64,1.08h0a3.22,3.22,0,0,1-3.54-2.85h0a3.23,3.23,0,0,1,2.86-3.55h0a3.23,3.23,0,0,1,3.55,2.86h0a3.24,3.24,0,0,1-1.6,3.13h0A3.17,3.17,0,0,1,62.81,1424.94Zm-9.64,1a3.21,3.21,0,0,1-3.51-2.89h0a3.23,3.23,0,0,1,2.89-3.52h0a3.23,3.23,0,0,1,3.52,2.9h0a3.23,3.23,0,0,1-1.61,3.1h0A3.11,3.11,0,0,1,53.17,1425.92Zm-9.66.87a3.2,3.2,0,0,1-3.47-2.94h0a3.2,3.2,0,0,1,2.93-3.48h0a3.2,3.2,0,0,1,3.47,2.94h0a3.2,3.2,0,0,1-1.59,3h0A3.25,3.25,0,0,1,43.51,1426.79Zm-9.67.74a3.22,3.22,0,0,1-3.44-3h0a3.21,3.21,0,0,1,3-3.43h0a3.22,3.22,0,0,1,3.43,3h0a3.21,3.21,0,0,1-1.6,3h0A3.1,3.1,0,0,1,33.84,1427.53Z"/><path d="M486.58,1317.47a3.21,3.21,0,0,1-4.24-1.64h0a3.21,3.21,0,0,1,1.63-4.25h0a3.23,3.23,0,0,1,4.25,1.64h0a3.22,3.22,0,0,1-1.34,4.09h0Zm-8.85,3.9h0a3.23,3.23,0,0,1-4.25-1.65h0a3.22,3.22,0,0,1,1.65-4.24h0a3.22,3.22,0,0,1,4.25,1.65h0a3.22,3.22,0,0,1-1.34,4.08h0Zm-8.86,3.86a3.23,3.23,0,0,1-4.24-1.66h0a3.23,3.23,0,0,1,1.68-4.25h0a3.22,3.22,0,0,1,4.23,1.69h0a3.21,3.21,0,0,1-1.35,4.06h0A1.91,1.91,0,0,1,468.87,1325.23Zm-8.9,3.82a3.2,3.2,0,0,1-4.22-1.71h0a3.2,3.2,0,0,1,1.7-4.21h0a3.22,3.22,0,0,1,4.22,1.7h0a3.23,3.23,0,0,1-1.34,4.05h0Zm-8.92,3.76a3.21,3.21,0,0,1-4.21-1.73h0a3.21,3.21,0,0,1,1.73-4.21h0a3.21,3.21,0,0,1,4.21,1.73h0a3.24,3.24,0,0,1-1.36,4h0A2.53,2.53,0,0,1,451.05,1332.81Zm-8.95,3.7h0a3.2,3.2,0,0,1-4.19-1.75h0a3.2,3.2,0,0,1,1.75-4.2h0a3.22,3.22,0,0,1,4.2,1.75h0a3.21,3.21,0,0,1-1.37,4h0A2.35,2.35,0,0,1,442.1,1336.51Zm-9,3.65h0a3.21,3.21,0,0,1-4.19-1.78h0a3.21,3.21,0,0,1,1.78-4.19h0a3.21,3.21,0,0,1,4.18,1.78h0a3.23,3.23,0,0,1-1.37,4h0A3.91,3.91,0,0,1,433.14,1340.16Zm-9,3.59a3.24,3.24,0,0,1-4.19-1.81h0a3.22,3.22,0,0,1,1.81-4.18h0a3.23,3.23,0,0,1,4.18,1.81h0a3.22,3.22,0,0,1-1.38,4h0Zm-9,3.53h0a3.23,3.23,0,0,1-4.17-1.83h0a3.22,3.22,0,0,1,1.84-4.17h0a3.2,3.2,0,0,1,4.16,1.83h0a3.22,3.22,0,0,1-1.39,4h0A3.61,3.61,0,0,1,415.14,1347.28Zm-9,3.47a3.21,3.21,0,0,1-4.15-1.85h0a3.22,3.22,0,0,1,1.86-4.16h0a3.23,3.23,0,0,1,4.16,1.86h0a3.21,3.21,0,0,1-1.4,3.93h0A2.52,2.52,0,0,1,406.1,1350.75Zm-9.05,3.43a3.23,3.23,0,0,1-4.15-1.89h0a3.22,3.22,0,0,1,1.9-4.14h0a3.22,3.22,0,0,1,4.14,1.88h0a3.23,3.23,0,0,1-1.4,3.92h0A2.75,2.75,0,0,1,397.05,1354.18Zm-9.07,3.36a3.23,3.23,0,0,1-4.14-1.91h0a3.22,3.22,0,0,1,1.91-4.13h0a3.22,3.22,0,0,1,4.14,1.91h0a3.24,3.24,0,0,1-1.41,3.9h0A4.52,4.52,0,0,1,388,1357.54Zm-9.11,3.31h0a3.21,3.21,0,0,1-4.12-1.93h0a3.23,3.23,0,0,1,1.94-4.13h0a3.23,3.23,0,0,1,4.12,1.94h0a3.23,3.23,0,0,1-1.42,3.87h0A3.22,3.22,0,0,1,378.87,1360.85Zm-9.11,3.24a3.22,3.22,0,0,1-4.11-1.95h0a3.23,3.23,0,0,1,2-4.11h0a3.21,3.21,0,0,1,4.11,2h0a3.23,3.23,0,0,1-1.42,3.86h0A3,3,0,0,1,369.76,1364.09Zm-9.13,3.2a3.24,3.24,0,0,1-4.11-2h0a3.22,3.22,0,0,1,2-4.09h0a3.24,3.24,0,0,1,4.1,2h0a3.23,3.23,0,0,1-1.44,3.84h0A3.47,3.47,0,0,1,360.63,1367.29Zm-9.16,3.14h0a3.23,3.23,0,0,1-4.09-2h0a3.24,3.24,0,0,1,2-4.09h0a3.21,3.21,0,0,1,4.08,2h0a3.22,3.22,0,0,1-1.43,3.82h0A3.06,3.06,0,0,1,351.47,1370.43Zm-9.18,3.08a3.23,3.23,0,0,1-4.07-2h0a3.22,3.22,0,0,1,2-4.07h0a3.21,3.21,0,0,1,4.06,2h0a3.2,3.2,0,0,1-1.43,3.8h0A3.28,3.28,0,0,1,342.29,1373.51Zm-9.2,3a3.22,3.22,0,0,1-4.06-2.07h0a3.23,3.23,0,0,1,2.07-4h0a3.22,3.22,0,0,1,4.06,2.07h0a3.23,3.23,0,0,1-1.45,3.79h0A3.12,3.12,0,0,1,333.09,1376.52Zm-9.21,3a3.21,3.21,0,0,1-4-2.09h0a3.2,3.2,0,0,1,2.09-4h0a3.22,3.22,0,0,1,4,2.09h0a3.22,3.22,0,0,1-1.45,3.77h0A3.61,3.61,0,0,1,323.88,1379.48Zm-9.23,2.91a3.22,3.22,0,0,1-4-2.12h0a3.22,3.22,0,0,1,2.12-4h0a3.21,3.21,0,0,1,4,2.1h0a3.22,3.22,0,0,1-1.46,3.75h0A3.15,3.15,0,0,1,314.65,1382.39Zm-9.26,2.84a3.22,3.22,0,0,1-4-2.14h0a3.23,3.23,0,0,1,2.15-4h0a3.22,3.22,0,0,1,4,2.15h0a3.23,3.23,0,0,1-1.47,3.72h0A3,3,0,0,1,305.39,1385.23Zm-9.27,2.79a3.21,3.21,0,0,1-4-2.17h0a3.2,3.2,0,0,1,2.17-4h0a3.2,3.2,0,0,1,4,2.17h0a3.21,3.21,0,0,1-1.47,3.7h0A2.74,2.74,0,0,1,296.12,1388Zm-9.29,2.73a3.21,3.21,0,0,1-4-2.2h0a3.23,3.23,0,0,1,2.19-4h0a3.23,3.23,0,0,1,4,2.2h0a3.21,3.21,0,0,1-1.48,3.68h0A3.33,3.33,0,0,1,286.83,1390.75Zm-9.3,2.66a3.2,3.2,0,0,1-4-2.22h0a3.21,3.21,0,0,1,2.22-4h0a3.22,3.22,0,0,1,4,2.22h0a3.23,3.23,0,0,1-1.48,3.67h0A3,3,0,0,1,277.53,1393.41ZM268.2,1396a3.2,3.2,0,0,1-3.95-2.24h0a3.21,3.21,0,0,1,2.24-4h0a3.21,3.21,0,0,1,4,2.24h0a3.19,3.19,0,0,1-1.49,3.64h0A2.85,2.85,0,0,1,268.2,1396Zm-9.33,2.55h0a3.23,3.23,0,0,1-4-2.27h0a3.22,3.22,0,0,1,2.28-4h0a3.21,3.21,0,0,1,3.94,2.27h0a3.21,3.21,0,0,1-1.5,3.63h0A3.12,3.12,0,0,1,258.87,1398.57Zm-9.36,2.48a3.21,3.21,0,0,1-3.93-2.29h0a3.21,3.21,0,0,1,2.31-3.93h0a3.22,3.22,0,0,1,3.92,2.29h0a3.21,3.21,0,0,1-1.5,3.6h0A2.81,2.81,0,0,1,249.51,1401.05Zm-9.37,2.42a3.2,3.2,0,0,1-3.91-2.31h0a3.21,3.21,0,0,1,2.32-3.92h0a3.23,3.23,0,0,1,3.92,2.32h0a3.23,3.23,0,0,1-1.51,3.59h0A2.92,2.92,0,0,1,240.14,1403.47Zm-9.39,2.37a3.22,3.22,0,0,1-3.9-2.35h0a3.23,3.23,0,0,1,2.35-3.9h0a3.22,3.22,0,0,1,3.9,2.36h0a3.21,3.21,0,0,1-1.51,3.56h0A2.83,2.83,0,0,1,230.75,1405.84Zm-9.4,2.3a3.21,3.21,0,0,1-3.88-2.38h0a3.2,3.2,0,0,1,2.37-3.88h0a3.23,3.23,0,0,1,3.89,2.37h0a3.23,3.23,0,0,1-1.53,3.55h0A3.51,3.51,0,0,1,221.35,1408.14Zm-9.42,2.24h0a3.2,3.2,0,0,1-3.87-2.4h0a3.23,3.23,0,0,1,2.41-3.87h0a3.23,3.23,0,0,1,3.86,2.4h0a3.23,3.23,0,0,1-1.52,3.53h0A3.24,3.24,0,0,1,211.93,1410.38Zm-9.44,2.17a3.21,3.21,0,0,1-3.84-2.43h0a3.22,3.22,0,0,1,2.42-3.85h0a3.21,3.21,0,0,1,3.85,2.42h0a3.24,3.24,0,0,1-1.53,3.51h0A3.44,3.44,0,0,1,202.49,1412.55Zm-9.44,2.1h0a3.2,3.2,0,0,1-3.83-2.45h0a3.21,3.21,0,0,1,2.44-3.83h0a3.22,3.22,0,0,1,3.84,2.46h0a3.22,3.22,0,0,1-1.54,3.48h0A3.44,3.44,0,0,1,193.05,1414.65Zm-9.48,2h0a3.21,3.21,0,0,1-3.81-2.48h0a3.2,3.2,0,0,1,2.48-3.81h0a3.21,3.21,0,0,1,3.82,2.47h0a3.23,3.23,0,0,1-1.54,3.46h0A3.28,3.28,0,0,1,183.57,1416.69Zm-9.47,2a3.22,3.22,0,0,1-3.8-2.5h0a3.21,3.21,0,0,1,2.51-3.8h0a3.22,3.22,0,0,1,3.8,2.51h0a3.23,3.23,0,0,1-1.54,3.43h0A3,3,0,0,1,174.1,1418.65Zm-9.5,1.91a3.21,3.21,0,0,1-3.78-2.54h0a3.22,3.22,0,0,1,2.54-3.78h0a3.2,3.2,0,0,1,3.78,2.53h0a3.21,3.21,0,0,1-1.55,3.4h0A3,3,0,0,1,164.6,1420.56Zm-9.51,1.83a3.23,3.23,0,0,1-3.76-2.57h0a3.23,3.23,0,0,1,2.57-3.76h0a3.23,3.23,0,0,1,3.76,2.57h0a3.22,3.22,0,0,1-1.56,3.39h0A3.2,3.2,0,0,1,155.09,1422.39Zm-9.52,1.76a3.23,3.23,0,0,1-3.74-2.6h0a3.23,3.23,0,0,1,2.6-3.75h0a3.24,3.24,0,0,1,3.74,2.6h0a3.24,3.24,0,0,1-1.56,3.37h0A3.32,3.32,0,0,1,145.57,1424.15Zm-9.54,1.67h0a3.22,3.22,0,0,1-3.72-2.62h0a3.22,3.22,0,0,1,2.63-3.72h0a3.24,3.24,0,0,1,3.72,2.62h0a3.24,3.24,0,0,1-1.57,3.35h0A3,3,0,0,1,136,1425.82Zm-9.55,1.62h0a3.23,3.23,0,0,1-3.7-2.66h0a3.24,3.24,0,0,1,2.66-3.71h0a3.24,3.24,0,0,1,3.7,2.66h0a3.25,3.25,0,0,1-1.57,3.31h0A3.31,3.31,0,0,1,126.48,1427.44Zm-9.57,1.52a3.22,3.22,0,0,1-3.67-2.69h0a3.21,3.21,0,0,1,2.69-3.67h0a3.2,3.2,0,0,1,3.67,2.69h0a3.21,3.21,0,0,1-1.57,3.28h0A3,3,0,0,1,116.91,1429Zm-9.57,1.44a3.2,3.2,0,0,1-3.65-2.72h0a3.21,3.21,0,0,1,2.71-3.65h0a3.22,3.22,0,0,1,3.65,2.72h0a3.23,3.23,0,0,1-1.57,3.26h0A3.21,3.21,0,0,1,107.34,1430.4Zm-9.6,1.36h0a3.22,3.22,0,0,1-3.63-2.75h0a3.21,3.21,0,0,1,2.76-3.62h0a3.2,3.2,0,0,1,3.62,2.75h0a3.21,3.21,0,0,1-1.58,3.23h0A3.3,3.3,0,0,1,97.74,1431.76ZM88.13,1433h0a3.21,3.21,0,0,1-3.59-2.79h0a3.21,3.21,0,0,1,2.78-3.6h0a3.21,3.21,0,0,1,3.6,2.78h0a3.25,3.25,0,0,1-1.58,3.21h0A3.52,3.52,0,0,1,88.13,1433Zm-9.62,1.17a3.22,3.22,0,0,1-3.57-2.82h0a3.22,3.22,0,0,1,2.83-3.57h0a3.19,3.19,0,0,1,3.56,2.82h0a3.2,3.2,0,0,1-1.58,3.17h0A3.18,3.18,0,0,1,78.51,1434.21Zm-9.64,1.08h0a3.2,3.2,0,0,1-3.53-2.86h0a3.2,3.2,0,0,1,2.86-3.54h0a3.21,3.21,0,0,1,3.54,2.86h0a3.21,3.21,0,0,1-1.59,3.13h0A3.21,3.21,0,0,1,68.87,1435.29Zm-9.64,1a3.23,3.23,0,0,1-3.51-2.9h0a3.22,3.22,0,0,1,2.91-3.51h0a3.2,3.2,0,0,1,3.5,2.89h0a3.24,3.24,0,0,1-1.59,3.11h0A3.36,3.36,0,0,1,59.23,1436.27Zm-9.65.86a3.23,3.23,0,0,1-3.48-2.94h0a3.21,3.21,0,0,1,2.93-3.48h0a3.21,3.21,0,0,1,3.48,2.94h0a3.21,3.21,0,0,1-1.6,3.06h0A3.35,3.35,0,0,1,49.58,1437.13Z"/><path d="M492.14,1327.21a3.21,3.21,0,0,1-4.24-1.64h0a3.21,3.21,0,0,1,1.64-4.24h0a3.22,3.22,0,0,1,4.25,1.63h0a3.22,3.22,0,0,1-1.33,4.09h0Zm-8.84,3.9h0a3.21,3.21,0,0,1-4.24-1.65h0a3.19,3.19,0,0,1,1.65-4.23h0a3.21,3.21,0,0,1,4.25,1.64h0a3.23,3.23,0,0,1-1.34,4.08h0Zm-8.87,3.87a3.21,3.21,0,0,1-4.23-1.67h0a3.21,3.21,0,0,1,1.67-4.23h0a3.22,3.22,0,0,1,4.24,1.68h0a3.21,3.21,0,0,1-1.35,4.06h0A1.68,1.68,0,0,1,474.43,1335Zm-8.89,3.82a3.21,3.21,0,0,1-4.22-1.7h0a3.21,3.21,0,0,1,1.7-4.22h0a3.23,3.23,0,0,1,4.22,1.71h0a3.21,3.21,0,0,1-1.34,4h0A1.69,1.69,0,0,1,465.54,1338.8Zm-8.92,3.77a3.22,3.22,0,0,1-4.21-1.73h0a3.2,3.2,0,0,1,1.73-4.2h0a3.2,3.2,0,0,1,4.21,1.72h0a3.22,3.22,0,0,1-1.35,4h0Zm-8.94,3.71h0a3.22,3.22,0,0,1-4.2-1.75h0a3.2,3.2,0,0,1,1.76-4.2h0a3.2,3.2,0,0,1,4.19,1.75h0a3.21,3.21,0,0,1-1.36,4h0C448,1346.16,447.81,1346.22,447.68,1346.28Zm-9,3.65h0a3.24,3.24,0,0,1-4.19-1.78h0a3.22,3.22,0,0,1,1.79-4.19h0a3.22,3.22,0,0,1,4.19,1.78h0a3.21,3.21,0,0,1-1.37,4h0A4.09,4.09,0,0,1,438.71,1349.93Zm-9,3.6h0a3.24,3.24,0,0,1-4.19-1.81h0a3.22,3.22,0,0,1,1.81-4.18h0a3.22,3.22,0,0,1,4.18,1.81h0a3.22,3.22,0,0,1-1.39,4h0A3.17,3.17,0,0,1,429.74,1353.53Zm-9,3.54h0a3.22,3.22,0,0,1-4.16-1.83h0a3.2,3.2,0,0,1,1.83-4.16h0a3.22,3.22,0,0,1,4.17,1.84h0a3.22,3.22,0,0,1-1.4,3.95h0Zm-9,3.48a3.23,3.23,0,0,1-4.16-1.87h0a3.2,3.2,0,0,1,1.85-4.15h0a3.22,3.22,0,0,1,4.16,1.86h0a3.22,3.22,0,0,1-1.4,3.93h0A4.73,4.73,0,0,1,411.7,1360.55Zm-9.06,3.43h0a3.2,3.2,0,0,1-4.15-1.89h0a3.2,3.2,0,0,1,1.88-4.13h0a3.22,3.22,0,0,1,4.15,1.88h0a3.24,3.24,0,0,1-1.41,3.92h0A3.54,3.54,0,0,1,402.64,1364Zm-9.07,3.37a3.23,3.23,0,0,1-4.13-1.92h0a3.2,3.2,0,0,1,1.9-4.13h0a3.23,3.23,0,0,1,4.14,1.91h0a3.21,3.21,0,0,1-1.41,3.89h0A3.89,3.89,0,0,1,393.57,1367.35Zm-9.1,3.3a3.21,3.21,0,0,1-4.12-1.93h0a3.21,3.21,0,0,1,1.94-4.12h0a3.23,3.23,0,0,1,4.12,1.94h0a3.22,3.22,0,0,1-1.42,3.88h0A4.12,4.12,0,0,1,384.47,1370.65Zm-9.11,3.25a3.21,3.21,0,0,1-4.11-2h0a3.22,3.22,0,0,1,2-4.11h0a3.21,3.21,0,0,1,4.1,2h0a3.21,3.21,0,0,1-1.41,3.86h0A3.28,3.28,0,0,1,375.36,1373.9Zm-9.14,3.21a3.24,3.24,0,0,1-4.1-2h0a3.21,3.21,0,0,1,2-4.1h0a3.21,3.21,0,0,1,4.09,2h0a3.22,3.22,0,0,1-1.43,3.84h0A4.13,4.13,0,0,1,366.22,1377.11Zm-9.15,3.14a3.23,3.23,0,0,1-4.09-2h0a3.23,3.23,0,0,1,2-4.09h0a3.22,3.22,0,0,1,4.09,2h0a3.2,3.2,0,0,1-1.44,3.81h0A3,3,0,0,1,357.07,1380.25Zm-9.18,3.08a3.2,3.2,0,0,1-4.06-2h0a3.21,3.21,0,0,1,2-4.07h0a3.21,3.21,0,0,1,4.06,2h0a3.22,3.22,0,0,1-1.44,3.81h0A3.91,3.91,0,0,1,347.89,1383.33Zm-9.19,3a3.23,3.23,0,0,1-4.06-2.07h0a3.21,3.21,0,0,1,2.06-4h0a3.22,3.22,0,0,1,4.07,2.06h0a3.23,3.23,0,0,1-1.46,3.78h0A3.37,3.37,0,0,1,338.7,1386.36Zm-9.22,3h0a3.22,3.22,0,0,1-4-2.09h0a3.22,3.22,0,0,1,2.09-4h0a3.22,3.22,0,0,1,4.05,2.09h0a3.22,3.22,0,0,1-1.46,3.76h0A3.38,3.38,0,0,1,329.48,1389.33Zm-9.22,2.91h0a3.23,3.23,0,0,1-4-2.12h0a3.22,3.22,0,0,1,2.11-4h0a3.22,3.22,0,0,1,4,2.12h0a3.24,3.24,0,0,1-1.46,3.74h0A3.79,3.79,0,0,1,320.26,1392.24Zm-9.25,2.85a3.21,3.21,0,0,1-4-2.14h0a3.22,3.22,0,0,1,2.13-4h0a3.23,3.23,0,0,1,4,2.15h0a3.21,3.21,0,0,1-1.47,3.73h0A3.57,3.57,0,0,1,311,1395.09Zm-9.28,2.8h0a3.22,3.22,0,0,1-4-2.17h0a3.22,3.22,0,0,1,2.16-4h0a3.22,3.22,0,0,1,4,2.16h0a3.23,3.23,0,0,1-1.47,3.72h0A4.91,4.91,0,0,1,301.73,1397.89Zm-9.28,2.72a3.21,3.21,0,0,1-4-2.19h0a3.22,3.22,0,0,1,2.2-4h0a3.22,3.22,0,0,1,4,2.2h0a3.21,3.21,0,0,1-1.48,3.68h0A3.52,3.52,0,0,1,292.45,1400.61Zm-9.31,2.68a3.22,3.22,0,0,1-4-2.23h0a3.21,3.21,0,0,1,2.22-4h0a3.23,3.23,0,0,1,4,2.22h0a3.24,3.24,0,0,1-1.49,3.67h0A3.29,3.29,0,0,1,283.14,1403.29Zm-9.32,2.61a3.22,3.22,0,0,1-4-2.24h0a3.21,3.21,0,0,1,2.25-4h0a3.21,3.21,0,0,1,4,2.24h0a3.21,3.21,0,0,1-1.49,3.64h0A2.85,2.85,0,0,1,273.82,1405.9Zm-9.33,2.55h0a3.23,3.23,0,0,1-3.95-2.27h0a3.21,3.21,0,0,1,2.27-3.94h0a3.24,3.24,0,0,1,3.95,2.27h0a3.23,3.23,0,0,1-1.5,3.64h0A3.27,3.27,0,0,1,264.49,1408.45Zm-9.35,2.5a3.23,3.23,0,0,1-3.94-2.3h0a3.22,3.22,0,0,1,2.3-3.93h0a3.21,3.21,0,0,1,3.93,2.29h0a3.23,3.23,0,0,1-1.5,3.61h0A3.66,3.66,0,0,1,255.14,1411Zm-9.38,2.43a3.22,3.22,0,0,1-3.91-2.33h0a3.22,3.22,0,0,1,2.31-3.91h0a3.21,3.21,0,0,1,3.92,2.32h0a3.19,3.19,0,0,1-1.51,3.58h0A3.08,3.08,0,0,1,245.76,1413.38Zm-9.38,2.36h0a3.22,3.22,0,0,1-3.89-2.35h0a3.21,3.21,0,0,1,2.34-3.91h0a3.23,3.23,0,0,1,3.9,2.35h0a3.21,3.21,0,0,1-1.5,3.57h0A3.06,3.06,0,0,1,236.38,1415.74Zm-9.41,2.31a3.23,3.23,0,0,1-3.89-2.37h0a3.24,3.24,0,0,1,2.38-3.89h0a3.2,3.2,0,0,1,3.88,2.36h0a3.24,3.24,0,0,1-1.52,3.55h0A3.09,3.09,0,0,1,227,1418.05Zm-9.41,2.24h0a3.21,3.21,0,0,1-3.87-2.4h0a3.21,3.21,0,0,1,2.4-3.86h0a3.21,3.21,0,0,1,3.87,2.4h0a3.22,3.22,0,0,1-1.52,3.51h0A3,3,0,0,1,217.56,1420.29Zm-9.44,2.18h0a3.22,3.22,0,0,1-3.85-2.43h0a3.21,3.21,0,0,1,2.43-3.85h0a3.19,3.19,0,0,1,3.84,2.43h0a3.22,3.22,0,0,1-1.52,3.5h0A3.24,3.24,0,0,1,208.12,1422.47Zm-9.45,2.11a3.21,3.21,0,0,1-3.83-2.45h0a3.23,3.23,0,0,1,2.45-3.84h0a3.22,3.22,0,0,1,3.84,2.45h0a3.24,3.24,0,0,1-1.54,3.48h0A3.21,3.21,0,0,1,198.67,1424.58Zm-9.46,2h0a3.23,3.23,0,0,1-3.82-2.49h0a3.22,3.22,0,0,1,2.49-3.81h0a3.21,3.21,0,0,1,3.81,2.48h0a3.23,3.23,0,0,1-1.54,3.45h0A3.06,3.06,0,0,1,189.21,1426.62Zm-9.48,2h0a3.22,3.22,0,0,1-3.8-2.5h0a3.23,3.23,0,0,1,2.51-3.81h0a3.21,3.21,0,0,1,3.79,2.51h0a3.21,3.21,0,0,1-1.53,3.44h0A3,3,0,0,1,179.73,1428.6Zm-9.49,1.91h0a3.21,3.21,0,0,1-3.78-2.54h0a3.21,3.21,0,0,1,2.53-3.78h0a3.22,3.22,0,0,1,3.79,2.54h0a3.25,3.25,0,0,1-1.55,3.41h0A3.37,3.37,0,0,1,170.24,1430.51Zm-9.51,1.84a3.23,3.23,0,0,1-3.76-2.57h0a3.22,3.22,0,0,1,2.56-3.76h0a3.21,3.21,0,0,1,3.76,2.57h0a3.2,3.2,0,0,1-1.55,3.38h0A3.51,3.51,0,0,1,160.73,1432.35Zm-9.52,1.76a3.22,3.22,0,0,1-3.75-2.59h0a3.24,3.24,0,0,1,2.6-3.75h0a3.22,3.22,0,0,1,3.74,2.6h0a3.21,3.21,0,0,1-1.56,3.36h0A3.18,3.18,0,0,1,151.21,1434.11Zm-9.54,1.69a3.22,3.22,0,0,1-3.72-2.62h0a3.21,3.21,0,0,1,2.62-3.72h0a3.21,3.21,0,0,1,3.72,2.62h0a3.21,3.21,0,0,1-1.57,3.34h0A3.29,3.29,0,0,1,141.67,1435.8Zm-9.55,1.61a3.22,3.22,0,0,1-3.7-2.64h0a3.25,3.25,0,0,1,2.65-3.72h0a3.25,3.25,0,0,1,3.71,2.66h0a3.25,3.25,0,0,1-1.57,3.31h0A3.16,3.16,0,0,1,132.12,1437.41Zm-9.56,1.53a3.2,3.2,0,0,1-3.68-2.68h0a3.22,3.22,0,0,1,2.68-3.67h0a3.21,3.21,0,0,1,3.68,2.68h0a3.2,3.2,0,0,1-1.57,3.29h0A3,3,0,0,1,122.56,1438.94ZM113,1440.4a3.22,3.22,0,0,1-3.65-2.71h0A3.2,3.2,0,0,1,112,1434h0a3.21,3.21,0,0,1,3.65,2.71h0a3.22,3.22,0,0,1-1.57,3.26h0A3,3,0,0,1,113,1440.4Zm-9.6,1.37a3.23,3.23,0,0,1-3.63-2.74h0a3.25,3.25,0,0,1,2.75-3.64h0a3.22,3.22,0,0,1,3.63,2.75h0a3.21,3.21,0,0,1-1.58,3.23h0A3.07,3.07,0,0,1,103.38,1441.77Zm-9.61,1.28h0a3.24,3.24,0,0,1-3.61-2.79h0a3.24,3.24,0,0,1,2.79-3.61h0a3.21,3.21,0,0,1,3.6,2.78h0a3.23,3.23,0,0,1-1.58,3.21h0A3.26,3.26,0,0,1,93.77,1443.05Zm-9.61,1.18a3.2,3.2,0,0,1-3.57-2.81h0a3.22,3.22,0,0,1,2.82-3.58h0a3.22,3.22,0,0,1,3.57,2.82h0a3.21,3.21,0,0,1-1.59,3.17h0A2.88,2.88,0,0,1,84.16,1444.23Zm-9.63,1.09a3.2,3.2,0,0,1-3.55-2.84h0a3.23,3.23,0,0,1,2.86-3.55h0a3.21,3.21,0,0,1,3.54,2.85h0a3.21,3.21,0,0,1-1.59,3.14h0A3,3,0,0,1,74.53,1445.32Zm-9.65,1h0a3.22,3.22,0,0,1-3.51-2.89h0a3.22,3.22,0,0,1,2.89-3.52h0a3.23,3.23,0,0,1,3.52,2.9h0a3.25,3.25,0,0,1-1.6,3.11h0A3.26,3.26,0,0,1,64.88,1446.32Z"/><path class="cls-6" d="M870.23,264.72c13.81-6.43,27.61-12.2,41.35-18.05s27.42-11.59,40.95-17.61c3.4-1.46,6.75-3,10.12-4.54s6.72-3.08,10.06-4.66,6.65-3.21,10-4.78,6.62-3.26,9.9-5a388.39,388.39,0,0,0,38.66-22.44,110.44,110.44,0,0,1-15.4,17,166.66,166.66,0,0,1-18.07,14.17,217.37,217.37,0,0,1-19.56,11.94c-3.34,1.85-6.75,3.54-10.15,5.26s-6.87,3.28-10.35,4.82a320,320,0,0,1-42.83,15.36c-7.3,2-14.67,3.83-22.11,5.3A189.25,189.25,0,0,1,870.23,264.72Z"/><g class="cls-12"><path d="M1183.61,654.64s-9.72-34.68,21.08-64.11,66.8-64.55,71.93-99.38,19.53,18.2,20,34.65,8,61.21-34.2,83.33S1189.18,680.75,1183.61,654.64Z"/></g><g class="cls-5"><path d="M1436.33,669.15S1367.58,692.91,1213.17,798s-502.4,339.86-502.4,339.86,371.55-191.22,525-297.91S1436.33,669.15,1436.33,669.15Z"/></g><g class="cls-11"><path d="M477.61,1154.75s-43.77,3.57-97.3,30.89-179.78,94.24-220.91,112,185.74-59.09,231.39-81.44S477.61,1154.75,477.61,1154.75Z"/></g><path class="cls-6" d="M572.15,204.22s96-5.26,116.46,10.82C688.61,215,631.43,227.35,572.15,204.22Z"/><path d="M938.56,1102.61Q872.07,1141,796.7,1182.53c-205,112.75-377.52,192.73-512.75,237.71-127.84,42.52-186.51,41.67-210.11,37.38-38.69-7-63.66-39.1-71.25-67.74-4.85-18.31-2.8-34.4,5.42-44.2-1.78-9-5.36-31.57-2.83-56.27,4.35-42.58,24.78-71,59.11-82.25,8.46-6.47,69.9-54.18,146.56-131.53,75.75-76.45,182.3-198.34,259.65-344.85,48.23-91.35,76.77-164.81,84.85-218.33,6.79-45-3-64.3-9.44-71.8a77.17,77.17,0,0,1-18.1-39.29c-7-49.29-16.94-142.44-5.45-213.33.35-6.16,3.4-16.62,19.1-21.39,8.48-2.58,18.36-2.83,24.89-3,2-.05,3.71-.1,4.87-.19a6.6,6.6,0,0,1,.77,0c2.18,0,53.63,1.14,76,2.47l4,.21c21.92,1.06,67.53,3.27,102.33,40.46a131.92,131.92,0,0,1,21.23,30.7c138.35-29.18,191-65.12,217.93-83.5,3.24-2.21,6-4.11,8.61-5.76,9.93-6.35,19-7.85,27-4.46,8.57,3.64,13,11.89,15.1,17.5,7,1.53,18.49,6.88,33.11,23.86,17.14,19.94,68.08,70.86,83.38,86.09l0,0a7.48,7.48,0,0,1,10.15,1.58c.07.09,7.33,9.36,12.27,14.5a25.41,25.41,0,0,0,2.31,2.21c9.71,4.8,27.54,15.79,44,37.58a18.27,18.27,0,0,1,7.41-1.7,16.17,16.17,0,0,1,11.78,5.13l.24.25c7.19,7.36,23.22,23.79,33,41.64a12.35,12.35,0,0,1,2.5.48c2.74.79,6.59,2.87,9.42,8.29.83,1.45,7.12,10.3,13.77,19.67,48.58,68.41,94,134.89,103,164.12a26.27,26.27,0,0,1,11.15,3.36c8.87,5,15.24,14.84,18.94,29.29l64.8,93.23c7,8.08,11.83,24.79-3.11,39.07-6.24,6-63.41,53.73-184.22,136.13C1236.25,921.72,1109.48,1003.92,938.56,1102.61ZM55.73,1227.31c-53,30.58-32.46,118-32.23,119a7.52,7.52,0,0,1-2.47,7.53c-6.19,5.19-7.73,17.84-3.92,32.21,6.37,24,27.22,50.94,59.42,56.81,17.86,3.25,73.36,6.16,202.68-36.86,134.37-44.69,306-124.3,510.25-236.62,243.54-133.93,417.35-245.74,520.27-315.95,118.42-80.78,176.53-129,182.3-134.57,4.37-4.18,6-8.36,4.87-12.8a15.71,15.71,0,0,0-2.84-5.7,7.73,7.73,0,0,1-.62-.77l-65.85-94.74a7.46,7.46,0,0,1-1.14-2.54c-2.54-10.64-6.61-17.88-11.77-20.94a11,11,0,0,0-7.77-1.46,7.16,7.16,0,0,1-6.45-.8,7.42,7.42,0,0,1-3.27-5.85c-.37-5.3-6-21.86-39.41-73.27-21.62-33.23-47.14-69.18-62.39-90.65-10.25-14.44-13.85-19.53-14.83-21.41-.1-.19-.2-.36-.28-.49a7.53,7.53,0,0,1-4.83.11,7.45,7.45,0,0,1-4.55-4c-8.22-17.44-26-35.68-32.71-42.54l-.24-.24c-.59-.6-.85-.6-1-.6-1.22,0-3.3,1.52-3.92,2.17a7.51,7.51,0,0,1-11.64-1c-15.69-23.1-33.47-34.16-42.68-38.69l-.18-.09c-1.75-.88-3.59-2.4-6.2-5.12-2.85-3-6.23-7-8.88-10.19a7.51,7.51,0,0,1-8.9-1.25c-2.77-2.74-68-67.41-88.6-91.32-15.29-17.77-24.81-19.1-26.38-19.19a6.53,6.53,0,0,1-5.36-.9,7.14,7.14,0,0,1-3.06-5.08c-.53-2.49-3.14-10.17-7.92-12.17-3.92-1.65-9.24.88-13,3.3-2.39,1.53-5.1,3.37-8.23,5.51-31.32,21.37-96.49,65.86-282.58,96.93l-.13,0c-61.09,9.08-90.88,20-102.81,37.61-11,16.19-8.06,40.6.65,77.31.85,3.58,2.64,10.81,2.9,11.85l2.83,9.93A7.51,7.51,0,0,1,608.44,404l-2.86-10.05a2.17,2.17,0,0,1-.07-.24s-2-8.23-3-12.14c-9.67-40.77-12.53-68.43,1.53-89.19,14.75-21.79,46.43-34.14,113-44q22.86-3.82,43.28-7.88a115,115,0,0,0-16.88-23.56c-30.64-32.75-72.14-34.76-92.08-35.73l-4.19-.21c-21.18-1.26-70.42-2.34-75.13-2.45-1.49.11-3.27.15-5.3.2-15.08.39-29.08,1.92-29.38,10.42a7.45,7.45,0,0,1-.09.95c-11.29,69-1.45,160.69,5.42,209.22a62.15,62.15,0,0,0,14.64,31.62c9.9,11.54,20.18,35.45,12.89,83.82-8.33,55.2-37.41,130.26-86.42,223.1C405.52,886,297.85,1009.2,221.31,1086.41c-82.93,83.66-148.34,133-149,133.52a7.87,7.87,0,0,1-2.27,1.16A70.54,70.54,0,0,0,55.73,1227.31Z"/><path class="cls-13" d="M527.67,771.9a12.65,12.65,0,0,1-8.12,1.57c-21-3-54.83-6-64.18-3.28a12.71,12.71,0,0,1-7-24.43c17.88-5.11,65.39,1.23,74.73,2.55a12.71,12.71,0,0,1,4.56,23.59Z"/><path d="M530.35,776.54a18.13,18.13,0,0,1-11.56,2.24c-23.89-3.38-54.49-5.57-61.95-3.44a18.07,18.07,0,1,1-9.93-34.74c18.45-5.28,63.56.5,76.95,2.4a18.06,18.06,0,0,1,6.49,33.54Zm-82.16-24.92a7.39,7.39,0,0,0-2.73,2.79A7.34,7.34,0,0,0,453.89,765c12-3.44,52,1.09,66.41,3.12a7.32,7.32,0,0,0,8.29-6.23,7.34,7.34,0,0,0-6.23-8.29c-25.29-3.59-59.44-6.45-72.51-2.71A8.11,8.11,0,0,0,448.19,751.62Z"/><path class="cls-13" d="M572.07,695a12.69,12.69,0,0,1-8.79,1.46c-16.63-3.24-48-6.45-61.59-1.28a12.71,12.71,0,0,1-9.06-23.74c24.74-9.44,70.4-.91,75.53.09A12.7,12.7,0,0,1,572.07,695Z"/><path d="M574.75,699.64a18.12,18.12,0,0,1-12.5,2.09c-17.22-3.36-46.81-6.06-58.65-1.54a18.07,18.07,0,1,1-12.87-33.77c26.14-10,73.18-1.19,78.46-.16a18.07,18.07,0,0,1,5.56,33.38ZM493.47,677a7.34,7.34,0,0,0-3.16,9,7.33,7.33,0,0,0,9.47,4.24c16.43-6.27,52.15-1.38,64.53,1a7.34,7.34,0,0,0,2.82-14.4c-18-3.53-53.62-7.57-72.58-.34A8.94,8.94,0,0,0,493.47,677Z"/><path class="cls-13" d="M622.87,595.15a12.71,12.71,0,0,1-11.22.74c-1.47-.6-33.08-13-60.4,9.75A12.7,12.7,0,1,1,535,586.11c39.47-32.82,84.52-14.47,86.41-13.67a12.7,12.7,0,0,1,1.45,22.71Z"/><path d="M625.55,599.79a17.91,17.91,0,0,1-15.95,1.05c-1.18-.47-30-11.8-54.92,8.92A18.07,18.07,0,0,1,531.57,582c41.94-34.86,89.91-15.34,91.93-14.49a18.06,18.06,0,0,1,2,32.3ZM557,595.1c27.3-15.76,55.36-4.72,56.68-4.19a7.33,7.33,0,1,0,5.68-13.52c-1.78-.75-43.94-17.9-80.91,12.84a7.33,7.33,0,1,0,9.39,11.27A66.72,66.72,0,0,1,557,595.1Z"/><polygon class="cls-8" points="493.79 771.89 493.8 771.88 493.79 771.89 493.79 771.89"/><path class="cls-8" d="M682.55,509.9s11.24,31.41-27.55,44.25-91.1,39.31-97.57,91.91-20.73,102-63.63,125.83c28.4-2.81,36.52,32.76,52.19,77.51,2,5.65,6.31,12.57,12.39,20.37h0c60.73-53,67.16-102.66,75.84-141s11-73.92,91.1-111c65.14-28.83,64-79.69,59.12-103.86C747,513.54,708.84,512.67,682.55,509.9Z"/><g class="cls-9"><path class="cls-6" d="M610.5,713.38s3.8,34.69-24.89,67.81C585.61,781.19,580.24,744.39,610.5,713.38Z"/></g><g class="cls-9"><path class="cls-6" d="M621.57,604s-7.59,23.78-38.19,37.53C583.38,641.54,590.47,616,621.57,604Z"/></g><path d="M682.55,509.9a33.67,33.67,0,0,1,1,21.81,31.29,31.29,0,0,1-5.2,10.16,40.52,40.52,0,0,1-8.24,8,54.75,54.75,0,0,1-9.91,5.66c-.85.42-1.74.73-2.61,1.1s-1.76.71-2.58,1c-1.67.63-3.34,1.28-5,1.94q-10,4-19.51,8.66c-12.68,6.31-24.8,13.67-35.39,22.67-2.65,2.24-5.18,4.6-7.63,7s-4.73,5-6.85,7.68a83.58,83.58,0,0,0-10.91,17.16,78.63,78.63,0,0,0-6.32,19.2l-.82,5-.75,5.43c-.53,3.61-1.06,7.23-1.72,10.83a248.35,248.35,0,0,1-11,42.67c-5.06,13.85-11.87,27.27-21.13,38.86a101.71,101.71,0,0,1-15.6,15.65c-1.47,1.11-2.89,2.26-4.41,3.28l-2.26,1.57-2.32,1.45a92.56,92.56,0,0,1-9.62,5.14c1.48-1.06,3-2,4.43-3.13s2.89-2.14,4.25-3.33l2.08-1.7,2-1.8c1.35-1.16,2.59-2.46,3.87-3.7a105.41,105.41,0,0,0,13.32-16.53c7.75-11.83,13.29-24.92,17.39-38.44a289,289,0,0,0,9-41.61q.76-5.29,1.45-10.61l.64-5.32c.25-1.85.53-3.78.82-5.67a88.4,88.4,0,0,1,7.06-21.9c6.63-13.93,16.91-25.71,28.61-35.08A164,164,0,0,1,627,560.59c6.78-2.87,13.67-5.44,20.66-7.63q2.61-.84,5.25-1.6c.89-.26,1.71-.52,2.53-.78s1.66-.49,2.46-.8a51.72,51.72,0,0,0,9.31-4.29,35.35,35.35,0,0,0,8-6.28,29.92,29.92,0,0,0,5.6-8.51,31.76,31.76,0,0,0,2.47-10.12A35,35,0,0,0,682.55,509.9Z"/><g class="cls-7"><path d="M1018.81,582.45s.09-95.33-195.65-81.16-198.72-45.55-198.72-45.55.29,68,96.17,73.79S980.3,510.52,1018.81,582.45Z"/></g><path class="cls-8" d="M1227.66,337.16s-34,48.07-77.34,102.13c-34,42.36-73.64,88.39-107.16,117.83h0a224.61,224.61,0,0,1-26.09,20.14c-33.09-67.1-83.33-60-133.51-62.11-44.11-1.81-141.35.22-195.82-4.74-7.52-.7-14.22-1.51-19.86-2.49-43.23-7.53-51.37-83.11-54.45-110.69-.23-2.1-.43-3.91-.62-5.4-2.65-21.16-9.18-44.88,35.42-58.68,6-1.88,17.34-3.77,32.54-5.68,97.17-12.17,352.93-24.3,398.26-26.31,52.44-2.33,80.86-20.47,80.86-20.47l5.15-3.5s13.17,16.83,16.88,18.67c.72.35,2.15,1,4.12,2.13C1194.25,302.56,1212,314.08,1227.66,337.16Z"/><g class="cls-11"><path d="M1227.66,337.16s-34,48.07-77.34,102.13c-34,42.36-73.64,88.39-107.16,117.83,204.21-228.7,149-227.35,134.81-237.48s-94,15.23-159.1,16.26S728,360.38,680.67,362.72s-35.47,37.9-29.43,79.41c4.38,30.12,25.33,56.24,36.49,68.29-7.52-.7-14.22-1.51-19.86-2.49-46.49-8.1-52.4-94.92-55.07-116.09s-9.18-44.88,35.42-58.68,378.38-29.67,430.8-32,80.86-20.47,80.86-20.47l5.15-3.5s13.17,16.83,16.88,18.67S1208.23,308.55,1227.66,337.16Z"/></g><g class="cls-9"><path class="cls-6" d="M697.72,354.52c4.84-2.12,9.71-3.84,14.59-5.45s9.76-3.07,14.65-4.4c9.79-2.66,19.61-4.88,29.45-6.74a502.76,502.76,0,0,1,59.3-7.44,496.38,496.38,0,0,1,59.77-.57q15,.78,30.08,2.75,7.55,1,15.11,2.43c5.05.94,10.11,2,15.19,3.48-4.84,2.12-9.71,3.86-14.59,5.47s-9.76,3.08-14.65,4.42q-14.68,4-29.45,6.74a498.14,498.14,0,0,1-59.31,7.4,502.47,502.47,0,0,1-59.76.52q-15-.78-30.08-2.75c-5-.67-10.07-1.46-15.12-2.41S702.8,356,697.72,354.52Z"/></g><path d="M548.64,854.65a3.76,3.76,0,0,1-4.37-6.06c4-3.6,7.88-7.28,11.46-10.93a3.75,3.75,0,1,1,5.36,5.26c-3.69,3.77-7.67,7.56-11.82,11.27A3.5,3.5,0,0,1,548.64,854.65Zm22.48-23a3.76,3.76,0,0,1-4.76-5.67c3.44-4.08,6.68-8.28,9.64-12.48a3.76,3.76,0,0,1,6.14,4.33c-3.09,4.38-6.46,8.74-10,13A3.71,3.71,0,0,1,571.12,831.65Zm18.47-26.3a3.76,3.76,0,0,1-5.14-5.12c2.58-4.52,5-9.23,7.13-14a3.76,3.76,0,0,1,6.85,3.08c-2.25,5-4.76,9.93-7.46,14.66A3.88,3.88,0,0,1,589.59,805.35Zm13.22-29.28a3.76,3.76,0,0,1-5.43-4.48c1.65-4.76,3.16-9.71,4.61-15.14a3.75,3.75,0,1,1,7.25,1.94c-1.49,5.61-3,10.73-4.76,15.66A3.73,3.73,0,0,1,602.81,776.07Zm8.46-31a3.71,3.71,0,0,1-2.69.42,3.76,3.76,0,0,1-2.85-4.48c.57-2.55,1.11-5.07,1.65-7.57l.1-.44c.57-2.62,1.12-5.19,1.69-7.72a3.75,3.75,0,1,1,7.33,1.63c-.56,2.51-1.11,5.07-1.68,7.68l-.1.44c-.54,2.52-1.09,5-1.66,7.61A3.72,3.72,0,0,1,611.27,745Zm6.89-31.44a3.76,3.76,0,0,1-5.54-4.07c1-4.33,2.27-10,3.93-15.84a3.76,3.76,0,0,1,7.22,2.07c-1.6,5.6-2.88,11.17-3.82,15.4A3.76,3.76,0,0,1,618.16,713.59Zm9.12-30.82a3.76,3.76,0,0,1-5.35-4.69,118.89,118.89,0,0,1,7.37-14.87,3.76,3.76,0,1,1,6.48,3.8,111.54,111.54,0,0,0-6.9,13.94A3.76,3.76,0,0,1,627.28,682.77ZM643.5,655.1a3.75,3.75,0,0,1-4.82-5.58,132.63,132.63,0,0,1,11.07-12.29,3.75,3.75,0,1,1,5.26,5.36,127.15,127.15,0,0,0-10.44,11.59A3.72,3.72,0,0,1,643.5,655.1Zm22.8-22.58a3.76,3.76,0,0,1-4.22-6.19c4.1-3.27,8.55-6.52,13.24-9.67a3.76,3.76,0,0,1,4.18,6.24c-4.51,3-8.8,6.16-12.73,9.3A3.55,3.55,0,0,1,666.3,632.52Zm64-37c-2.79,1.61-5.77,3.18-8.87,4.64a3.75,3.75,0,1,1-3.22-6.78,109.3,109.3,0,0,0,13.57-7.6,3.76,3.76,0,0,1,4.15,6.26C734.09,593.18,732.19,594.35,730.25,595.47Zm-23.13,11.44-.18.1c-4.87,2.46-9.57,5-14,7.54a3.75,3.75,0,1,1-3.76-6.5h0c4.53-2.62,9.36-5.22,14.35-7.75a3.76,3.76,0,0,1,3.57,6.61ZM748.19,582a3.76,3.76,0,0,1-4.51-5.93,61.21,61.21,0,0,0,9.41-11.83,3.76,3.76,0,1,1,6.43,3.89A68.9,68.9,0,0,1,749,581.46,3.89,3.89,0,0,1,748.19,582Zm16.36-27.29a3.75,3.75,0,0,1-5.5-4.26,58.92,58.92,0,0,0,1.56-7.52,66.84,66.84,0,0,0,.6-7.45,3.76,3.76,0,1,1,7.51.18,75.29,75.29,0,0,1-.67,8.32,67.22,67.22,0,0,1-1.76,8.49A3.76,3.76,0,0,1,764.55,554.75Zm1-31.91a3.81,3.81,0,0,1-1.21.44,3.75,3.75,0,0,1-4.37-3c-.35-1.93-.77-3.84-1.26-5.69a3.76,3.76,0,0,1,7.27-1.91c.53,2,1,4.13,1.38,6.24A3.75,3.75,0,0,1,765.55,522.84Z"/><path d="M530,776.4a3.76,3.76,0,0,1-4.46-6A117.73,117.73,0,0,0,536.18,759a3.76,3.76,0,0,1,5.83,4.74,127.8,127.8,0,0,1-11.27,12.15A4.3,4.3,0,0,1,530,776.4Zm20.29-24.87a3.75,3.75,0,0,1-5.06-5.25,147.17,147.17,0,0,0,7.62-13.71,3.76,3.76,0,0,1,6.75,3.31,156.19,156.19,0,0,1-8,14.4A3.58,3.58,0,0,1,550.33,751.53Zm14.22-28.81a3.76,3.76,0,0,1-5.39-4.59c1.82-4.76,3.52-9.8,5.07-15a3.76,3.76,0,1,1,7.2,2.14c-1.6,5.37-3.37,10.59-5.25,15.52A3.75,3.75,0,0,1,564.55,722.72Zm9.25-30.81a3.76,3.76,0,0,1-5.54-4.1c1.15-4.95,2.22-10.19,3.18-15.58a3.76,3.76,0,1,1,7.4,1.32c-1,5.52-2.09,10.88-3.26,16A3.72,3.72,0,0,1,573.8,691.91Zm5.72-31.67a3.75,3.75,0,0,1-5.59-3.77c.39-2.78.74-5.53,1.08-8.25a63.48,63.48,0,0,1,1.51-8.05A3.76,3.76,0,0,1,583.8,642a58.26,58.26,0,0,0-1.34,7.11q-.51,4.14-1.09,8.37A3.76,3.76,0,0,1,579.52,660.24ZM588,629.46a3.76,3.76,0,0,1-5.16-5.09,77.15,77.15,0,0,1,9.86-13.7,3.75,3.75,0,1,1,5.6,5,70.14,70.14,0,0,0-8.9,12.37A3.74,3.74,0,0,1,588,629.46ZM678.8,571a81.93,81.93,0,0,1-12.95,6,3.76,3.76,0,0,1-2.59-7.06A76,76,0,0,0,675,564.58c.7-.42,1.38-.82,2-1.23a3.75,3.75,0,0,1,4,6.36C680.29,570.16,679.56,570.61,678.8,571Zm14.5-11.43a3.76,3.76,0,0,1-4.63-5.81A49,49,0,0,0,696.82,542l.23-.48a3.76,3.76,0,1,1,6.79,3.21l-.27.57a56.44,56.44,0,0,1-9.4,13.63A3.88,3.88,0,0,1,693.3,559.61Zm-42,22.6a3.58,3.58,0,0,1-.52.25c-5.06,2-9.94,4.09-14.5,6.28A3.75,3.75,0,0,1,633,582c4.73-2.28,9.79-4.47,15-6.52a3.76,3.76,0,0,1,3.25,6.75Zm-42.16,23.22a3.75,3.75,0,0,1-4.21-6.19,129.82,129.82,0,0,1,13.62-9.44,3.75,3.75,0,1,1,3.89,6.42,125.53,125.53,0,0,0-12.83,8.89A3.55,3.55,0,0,1,609.12,605.43ZM706.87,531a3.82,3.82,0,0,1-2.39.47,3.76,3.76,0,0,1-3.21-4.23,53.5,53.5,0,0,0-.11-15,3.75,3.75,0,1,1,7.43-1.08,61.19,61.19,0,0,1,.12,17.09A3.74,3.74,0,0,1,706.87,531Z"/><path d="M1036.19,567.1l-.14.07a3.75,3.75,0,0,1-5.07-1.58c-1.14-2.19-2.32-4.33-3.5-6.39-1.43-2.47-2.92-4.9-4.42-7.2a3.75,3.75,0,1,1,6.29-4.1c1.58,2.41,3.14,5,4.63,7.55,1.24,2.14,2.47,4.38,3.66,6.66A3.75,3.75,0,0,1,1036.19,567.1Zm-17.64-26.85a3.76,3.76,0,0,1-4.76-.86,116.6,116.6,0,0,0-10.73-11.29,3.75,3.75,0,0,1,5.07-5.54,122.33,122.33,0,0,1,11.43,12,3.76,3.76,0,0,1-.48,5.29A4.6,4.6,0,0,1,1018.55,540.25Zm-23.7-21.63a3.75,3.75,0,0,1-4-.13,101.64,101.64,0,0,0-13.48-7.67A3.76,3.76,0,0,1,980.6,504a109,109,0,0,1,14.47,8.23,3.75,3.75,0,0,1,1,5.21A3.67,3.67,0,0,1,994.85,518.62Zm-29-13.76a3.73,3.73,0,0,1-3,.34,128.77,128.77,0,0,0-15.19-3.71,3.76,3.76,0,0,1,1.36-7.39A139.15,139.15,0,0,1,965.12,498a3.76,3.76,0,0,1,.76,6.84Zm-31.56-6a3.78,3.78,0,0,1-2.23.48c-4.75-.44-9.94-.77-15.86-1a3.75,3.75,0,0,1,.3-7.5c6.05.24,11.37.58,16.26,1a3.76,3.76,0,0,1,1.53,7Zm-34.11-1c-5.31-.12-10.71-.23-15.94-.45h-.16a3.79,3.79,0,0,1-3.63-3.9,3.72,3.72,0,0,1,3.86-3.61h.19c5.21.22,10.56.33,15.74.44l0,3.76ZM870,496.5a3.78,3.78,0,0,1-2,.5c-4.7-.1-9.95-.18-16.06-.25a3.76,3.76,0,1,1,.08-7.51c6.14.07,11.41.15,16.13.25a3.76,3.76,0,0,1,1.8,7Zm-32.19-.4a3.82,3.82,0,0,1-1.9.5l-16.1-.11a3.76,3.76,0,0,1,.05-7.51l16.1.11a3.76,3.76,0,0,1,1.85,7ZM1171.71,303c-1.36.78-2.88,1.61-4.54,2.45a3.75,3.75,0,1,1-3.41-6.69c1.92-1,3.34-1.77,4.19-2.27s1.31-.77,1.44-.86l7.58-5.17a3.76,3.76,0,1,1,4.24,6.2l-7.67,5.23C1173.29,302.07,1172.7,302.43,1171.71,303Zm-19.1,8.84a3,3,0,0,1-.54.26c-5,1.9-10.2,3.65-15.55,5.21a3.76,3.76,0,0,1-2.1-7.22c5.16-1.5,10.2-3.18,15-5a3.76,3.76,0,0,1,3.22,6.76Zm-30.88,9a3.92,3.92,0,0,1-1.1.42c-5.24,1.11-10.66,2.06-16.1,2.83a3.76,3.76,0,0,1-1-7.44c5.27-.74,10.52-1.67,15.6-2.74a3.76,3.76,0,0,1,2.65,6.93Zm-316.14,175a3.82,3.82,0,0,1-1.9.5l-16.12-.13a3.76,3.76,0,1,1,.08-7.52c5.41.06,10.79.1,16.09.14a3.76,3.76,0,0,1,1.85,7Zm284.29-170.5a3.71,3.71,0,0,1-1.59.49c-2.7.2-5.44.37-8.15.49l-8.05.36a3.76,3.76,0,0,1-.34-7.51l8.06-.36c2.63-.11,5.29-.27,7.91-.47a3.76,3.76,0,0,1,2.16,7ZM773.37,495.56a3.83,3.83,0,0,1-1.93.5c-5.4-.08-10.79-.17-16.12-.27a3.76,3.76,0,1,1,.15-7.51c5.32.1,10.69.19,16.08.27a3.76,3.76,0,0,1,1.82,7ZM1057.69,327a3.75,3.75,0,0,1-1.7.5l-16.09.76a3.76,3.76,0,0,1-.36-7.51l16.1-.76a3.76,3.76,0,0,1,2,7ZM741.17,494.9a3.7,3.7,0,0,1-2,.5c-5.64-.16-11.07-.34-16.15-.55a3.75,3.75,0,1,1,.31-7.5c5,.2,10.44.38,16,.54a3.76,3.76,0,0,1,1.77,7ZM1025.5,328.5a3.74,3.74,0,0,1-1.69.5l-16.1.8a3.75,3.75,0,1,1-.37-7.5l16.1-.8a3.75,3.75,0,0,1,2.06,7Zm-32.19,1.63a3.71,3.71,0,0,1-1.69.5l-16.08.84a3.76,3.76,0,0,1-.4-7.5l16.1-.84a3.75,3.75,0,0,1,2.07,7ZM709,493.57a3.71,3.71,0,0,1-2.09.5c-5.9-.35-11.34-.74-16.18-1.16a3.76,3.76,0,0,1,.66-7.49c4.77.42,10.14.81,16,1.15a3.75,3.75,0,0,1,1.65,7ZM961.12,331.84a3.75,3.75,0,0,1-1.67.5l-16.05.88a3.76,3.76,0,1,1-.41-7.5c5.36-.3,10.72-.6,16-.88a3.75,3.75,0,0,1,2.08,7ZM676.91,490.59a3.73,3.73,0,0,1-2.43.46q-1.86-.27-3.57-.57a24.18,24.18,0,0,1-12.8-7.06,3.75,3.75,0,1,1,5.28-5.34,16.92,16.92,0,0,0,8.81,5c1.08.18,2.22.37,3.39.54a3.76,3.76,0,0,1,1.32,7ZM929,333.63a3.74,3.74,0,0,1-1.66.49l-16.1.93a3.76,3.76,0,1,1-.44-7.5l16.11-.93a3.76,3.76,0,0,1,2.09,7ZM896.8,335.5a3.84,3.84,0,0,1-1.65.5l-16.08,1a3.76,3.76,0,0,1-.46-7.5l16.09-1a3.75,3.75,0,0,1,2.1,7ZM653.6,470.76l-.22.12a3.76,3.76,0,0,1-5-1.7,114.94,114.94,0,0,1-6.12-15.47,3.76,3.76,0,0,1,7.15-2.3,106,106,0,0,0,5.71,14.44A3.76,3.76,0,0,1,653.6,470.76Zm211-133.29a3.75,3.75,0,0,1-1.64.5l-16.08,1a3.75,3.75,0,1,1-.48-7.49l16.09-1a3.76,3.76,0,0,1,2.11,7Zm-32.16,2.08a3.79,3.79,0,0,1-1.63.5c-5.41.36-10.78.72-16.07,1.09a3.76,3.76,0,0,1-.52-7.5l16.09-1.09a3.76,3.76,0,0,1,2.13,7Zm-189,100.74a3.64,3.64,0,0,1-1,.41,3.75,3.75,0,0,1-4.5-2.81c-1.15-5-2.22-10.34-3.2-16a3.76,3.76,0,0,1,7.41-1.28c1,5.51,2,10.75,3.11,15.58A3.75,3.75,0,0,1,643.46,440.29Zm156.85-98.52a3.66,3.66,0,0,1-1.61.49l-16.06,1.17a3.76,3.76,0,1,1-.56-7.49l16.08-1.17a3.76,3.76,0,0,1,2.15,7Zm-32.15,2.4a3.85,3.85,0,0,1-1.58.49q-8.24.63-16.06,1.28a3.76,3.76,0,0,1-.61-7.49c5.22-.43,10.59-.86,16.08-1.28a3.76,3.76,0,0,1,2.17,7ZM637.9,408.6a3.64,3.64,0,0,1-1.39.47,3.75,3.75,0,0,1-4.21-3.23c-.43-3.25-.84-6.63-1.22-10.07-.26-2.3-.48-4.3-.69-5.94a3.76,3.76,0,0,1,7.46-.93c.21,1.67.43,3.7.69,6,.38,3.39.78,6.72,1.2,9.92A3.74,3.74,0,0,1,637.9,408.6ZM736,346.81a3.87,3.87,0,0,1-1.55.49q-8.34.72-16,1.45a3.76,3.76,0,0,1-.7-7.48c5.14-.48,10.51-1,16.08-1.46a3.76,3.76,0,0,1,2.21,7Zm-32.11,3.05a3.9,3.9,0,0,1-1.49.48c-5.8.6-11.18,1.2-16,1.78a3.76,3.76,0,0,1-.9-7.46c4.83-.58,10.25-1.18,16.09-1.79a3.76,3.76,0,0,1,2.27,7ZM634.2,376.63a3.76,3.76,0,0,1-5.63-3.15,20.19,20.19,0,0,1,1.25-8.71c1.21-2.78,3.78-5.42,7.66-7.85a3.76,3.76,0,0,1,4,6.37c-3.37,2.11-4.43,3.71-4.76,4.47a14,14,0,0,0-.63,5.51A3.78,3.78,0,0,1,634.2,376.63Zm37.7-22.83a4,4,0,0,1-1.31.46,114.23,114.23,0,0,0-14.91,3l-.34.1a3.76,3.76,0,1,1-2.22-7.18l.33-.1a121.31,121.31,0,0,1,16-3.24,3.76,3.76,0,0,1,2.45,7Z"/><path d="M558.38,869.77c13.18-13.13,25.5-27,35.47-42.47a196.89,196.89,0,0,0,23.52-49.24c2.75-8.69,5-17.52,7-26.51l5.67-27.2c1.87-9,3.68-18.29,6.42-27.54a107.92,107.92,0,0,1,11.9-26.66,105.33,105.33,0,0,1,8.78-11.78A122.18,122.18,0,0,1,667.28,648a167.55,167.55,0,0,1,23.06-17.13,251.93,251.93,0,0,1,25-13.49c2.13-1,4.29-2,6.44-3l3.16-1.44,3.11-1.38c2.09-.9,4.06-2,6.09-2.93s4-2.14,5.92-3.23a105.4,105.4,0,0,0,21.28-16.25A78.7,78.7,0,0,0,770,579a74.88,74.88,0,0,0,6.9-11.52,82.81,82.81,0,0,0,7.72-25.93,94,94,0,0,0,.82-13.75,109.47,109.47,0,0,0-1-13.85,93.33,93.33,0,0,1,3.15,27.85,84.08,84.08,0,0,1-5.88,27.82,77.91,77.91,0,0,1-6.59,12.81A85,85,0,0,1,766.43,594l-1.19,1.36-1.26,1.3c-.84.86-1.67,1.74-2.54,2.57-1.79,1.62-3.52,3.3-5.41,4.8a119.51,119.51,0,0,1-11.62,8.53c-2,1.26-4.07,2.53-6.14,3.73s-4.18,2.36-6.32,3.4l-6.33,3.11c-2,1-4.09,2-6.12,3a270.91,270.91,0,0,0-23.7,13.6c-15.13,9.87-29.07,21.63-38.42,36.48a98.37,98.37,0,0,0-10.84,24c-2.69,8.52-4.51,17.5-6.62,26.61l-3.15,13.57c-1,4.52-2.12,9.08-3.26,13.62a248.67,248.67,0,0,1-8.25,27.07,182.62,182.62,0,0,1-11.69,25.86l-3.51,6.17c-1.19,2-2.54,4-3.81,6-2.47,4-5.34,7.77-8.13,11.56A215,215,0,0,1,558.38,869.77Z"/><g class="cls-12"><path d="M1144.37,351.26s-68.16,192.39-230.89,115.43C817.22,420,862,366.82,996.42,391,1074.88,398.54,1162,314.33,1144.37,351.26Z"/></g><g class="cls-14"><path class="cls-6" d="M460.47,749.83s34.17-1.54,51,4.25C511.52,754.08,480.89,756.56,460.47,749.83Z"/></g><g class="cls-7"><path d="M582.54,799.74s-19.18,16.54-44.83-9.27-51.08-54.69-55.26-69.27c0,0,8.24-17.26,16.79-8.89S539.18,777.89,582.54,799.74Z"/></g><path d="M1016.58,577.51a162.33,162.33,0,0,0-9.08-14.58l-1.21-1.76-1.29-1.71c-.87-1.12-1.72-2.27-2.6-3.38l-2.75-3.25c-.9-1.1-1.92-2.08-2.86-3.14a90.3,90.3,0,0,0-12.59-11.21A86.92,86.92,0,0,0,969.79,530c-10.12-4.67-21.11-7.21-32.27-8.56S915,520,903.46,519.86c-5.74-.06-11.52-.1-17.32-.24s-11.45-.27-17.22-.32c-11.46-.2-23-.21-34.48-.25s-23-.09-34.55-.21c-5.76-.06-11.52-.11-17.29-.27l-17.29-.44c-23.06-.76-46.13-1.82-69.19-4.09-2.88-.31-5.76-.57-8.64-.9l-8.64-1.1c-1.44-.16-2.87-.4-4.31-.65l-4.32-.72a39.92,39.92,0,0,1-4.36-.86,30.44,30.44,0,0,1-4.37-1.3,44,44,0,0,1-15.3-9.46,66.43,66.43,0,0,1-11-13.87,104.36,104.36,0,0,1-7.83-15.69c-2.17-5.42-4-10.95-5.63-16.51a285.09,285.09,0,0,1-7.34-34c-.92-5.71-1.7-11.44-2.41-17.17l-1.11-8.56c-.38-2.81-.84-5.65-1.26-8.52a76,76,0,0,1-1-17.8,35.22,35.22,0,0,1,3.91-13.4,35.77,35.77,0,0,1,2.57-4,39.71,39.71,0,0,1,6.42-6.78A58.75,58.75,0,0,1,629,337.6a90.21,90.21,0,0,1,16.35-7.37c1.37-.51,2.84-.91,4.31-1.32s2.94-.85,4.37-1.13l4.33-.95c1.44-.32,2.87-.55,4.31-.82l4.31-.77,4.3-.68c2.87-.44,5.74-.91,8.61-1.29,22.94-3.23,45.91-5.45,68.88-7.57,45.94-4.2,91.93-7.49,137.94-10.17,46-2.49,92.06-4.59,138.12-6,11.52-.4,23-.7,34.55-1l17.28-.42c5.75-.1,11.39-.32,17.08-.79a215.3,215.3,0,0,0,33.72-5.41c5.54-1.36,11-3,16.42-4.87a111.65,111.65,0,0,0,15.72-6.77l0,0a.54.54,0,0,1,.54.93c-9.85,6.25-20.7,10.6-31.77,14.14a203.86,203.86,0,0,1-34.08,7.45c-5.77.78-11.62,1.31-17.38,1.7l-17.23,1.16L1025.24,308c-46,3.15-91.91,6-137.86,9l-68.92,4.27q-34.46,2.13-68.87,4.58c-22.93,1.71-45.86,3.54-68.63,6-2.86.28-5.68.65-8.52,1l-4.25.53L664,334c-1.4.21-2.83.37-4.21.62l-4.15.73c-1.41.21-2.7.55-4,.86s-2.64.6-4,1a83.32,83.32,0,0,0-15.38,6.17,51.63,51.63,0,0,0-6.84,4.32,34,34,0,0,0-5.68,5.5,29.64,29.64,0,0,0-2.26,3.19,31.53,31.53,0,0,0-1.72,3.5,29.88,29.88,0,0,0-2,7.67,51.79,51.79,0,0,0-.34,8.2c.13,2.79.37,5.6.7,8.43s.7,5.7,1,8.6l.84,8.62c.59,5.71,1.25,11.4,2,17.08a246.79,246.79,0,0,0,6.88,33.6c3.11,11,7.28,21.71,13.27,31.27a59.18,59.18,0,0,0,10.7,12.83,39,39,0,0,0,14.09,8.17,26.72,26.72,0,0,0,3.94,1A37.35,37.35,0,0,0,671,506l4.24.53c1.41.18,2.81.36,4.24.46l8.54.7c2.86.19,5.72.31,8.58.47l4.29.22,4.3.14,8.6.28c5.74.1,11.48.23,17.22.28,11.49.12,23,.15,34.48.15s23,0,34.52.08,23,.08,34.54.27,23,.31,34.61.64c2.89.05,5.78.18,8.68.31l8.64.4c5.71.27,11.44.44,17.21.64a284.14,284.14,0,0,1,34.86,2.77,128.22,128.22,0,0,1,17.31,3.87,96.26,96.26,0,0,1,16.5,6.71,86,86,0,0,1,14.84,9.79,95,95,0,0,1,12.44,12.53c7.53,9,13.23,19.29,17.94,29.82a.54.54,0,0,1-.27.71.52.52,0,0,1-.68-.22Z"/><path class="cls-13" d="M580.41,801a12.7,12.7,0,0,1-14.8-1.52c-1.92-1.72-47.34-42.3-66.55-68.22a570.26,570.26,0,0,1-32.47-48.93A12.69,12.69,0,0,1,471.24,665h0a12.7,12.7,0,0,1,17.35,4.64,550.37,550.37,0,0,0,30.88,46.51c17.67,23.85,62.59,64,63,64.39a12.69,12.69,0,0,1,1,17.93A12.43,12.43,0,0,1,580.41,801Z"/><path d="M583.1,805.62A18,18,0,0,1,562,803.45c-1.94-1.72-47.7-42.59-67.29-69A573.2,573.2,0,0,1,461.94,685a18.07,18.07,0,0,1,31.29-18.07,549.88,549.88,0,0,0,30.55,46c17.23,23.26,61.86,63.18,62.31,63.58a18.09,18.09,0,0,1-3,29.14Zm-109.18-136a7.34,7.34,0,0,0-2.68,10A559.21,559.21,0,0,0,503.37,728c18.94,25.56,63.9,65.71,65.81,67.41a7.33,7.33,0,1,0,9.76-11c-1.86-1.67-45.9-41.07-63.78-65.2a558,558,0,0,1-31.22-47A7.35,7.35,0,0,0,473.92,669.59Z"/><g class="cls-14"><path class="cls-6" d="M546.74,674.82s-27.34-5-46.69,1C500.05,675.8,533.45,677.56,546.74,674.82Z"/></g><g class="cls-7"><path d="M608.73,707.9s-42.06,26-87-59.54l14.36-25.91S561.28,680.19,608.73,707.9Z"/></g><path class="cls-13" d="M605.69,710.36a12.72,12.72,0,0,1-14.9-1.61c-7.65-7-74.69-69.48-71.77-121.14A12.7,12.7,0,0,1,544.38,589c-1.89,33.61,45.2,84.25,63.51,100.92a12.71,12.71,0,0,1,.84,17.94A12.84,12.84,0,0,1,605.69,710.36Z"/><path d="M608.37,715a18,18,0,0,1-21.19-2.28c-7.84-7.13-76.57-71.26-73.52-125.41a18.07,18.07,0,1,1,36.08,2c-1.58,28,37,74.13,61.76,96.64a18.07,18.07,0,0,1-3.13,29ZM528,582a7.37,7.37,0,0,0-1.23.89,7.27,7.27,0,0,0-2.43,5c-2.78,49.19,62.56,110.09,70,116.87a7.31,7.31,0,0,0,8.6.93,6.87,6.87,0,0,0,1.76-1.42,7.33,7.33,0,0,0-.48-10.36c-.68-.62-67.68-62.17-65.26-105.19a7.34,7.34,0,0,0-6.9-7.74A7.31,7.31,0,0,0,528,582Z"/><path class="cls-13" d="M679.66,617.36A12.71,12.71,0,0,1,663.17,614c-.26-.35-26.38-35-47-50.63l-2.68-2c-49.67-37.63-64.08-50.57-67-60.21a12.71,12.71,0,0,1,24-8.4c5.43,8.23,43.85,37.33,58.41,48.36l2.69,2.05c23.51,17.81,50.86,54.08,52,55.61A12.7,12.7,0,0,1,681,616.5,12.17,12.17,0,0,1,679.66,617.36Zm-109-123.7v0Z"/><path d="M682.35,622a18.07,18.07,0,0,1-23.47-4.8c-.25-.34-26-34.39-46-49.57l-2.68-2c-52-39.37-65.5-51.72-68.92-62.92a18.07,18.07,0,0,1,33.82-12.56c3.91,5.33,23,21,56.92,46.68l2.69,2c24.12,18.28,51.89,55.11,53.06,56.67a18.09,18.09,0,0,1-3.59,25.29A17,17,0,0,1,682.35,622ZM554.9,491a7.36,7.36,0,0,0-3.36,8.5c2.49,8.14,17.71,21.57,65.14,57.51l2.69,2c21.24,16.1,47.82,51.33,48.09,51.68a7.33,7.33,0,0,0,9.52,2,9,9,0,0,0,.76-.5,7.34,7.34,0,0,0,1.45-10.27c-1.13-1.51-28-37.17-51-54.56l-2.69-2c-26.56-20.12-54.41-41.75-59.65-49.68l-.14-.21-.1,0-.27-.8a7.37,7.37,0,0,0-9-4.31A7.59,7.59,0,0,0,554.9,491Zm15.9,2.62,5.21-.75Zm-5.25,1.5h0Z"/><path class="cls-13" d="M577.05,466.81a12.7,12.7,0,0,1-16.26-18.95C578.09,426.3,657,376.8,666,371.23l.37-.22a12.7,12.7,0,0,1,13.06,21.78C647,413,591.6,450.06,580.6,463.76A12.37,12.37,0,0,1,577.05,466.81Z"/><path d="M579.73,471.46a18.07,18.07,0,0,1-23.13-27c17.5-21.8,91.79-68.65,106.51-77.82l.53-.32a18.06,18.06,0,0,1,18.58,31c-34.43,21.46-87.42,57.3-97.43,69.78A17.85,17.85,0,0,1,579.73,471.46ZM669,375.65l-.18.11c-32.19,20.06-90.24,58.5-103.85,75.46a7.34,7.34,0,0,0,11.45,9.18c12.85-16,76.63-57.52,100.13-72.17A7.34,7.34,0,0,0,669,375.65Z"/><path class="cls-13" d="M695.32,471.6a12.48,12.48,0,0,1-3.65,1.41c-1.08.24-26.66,5.76-56.3,9-42.5,4.59-70.38,2.06-85.23-7.75a12.7,12.7,0,1,1,14-21.19c17,11.25,81.68,3.93,122.13-4.85a12.7,12.7,0,0,1,9.05,23.41Z"/><path d="M698,476.25a18.11,18.11,0,0,1-5.19,2c-1.1.23-27.07,5.83-56.86,9.05-43.8,4.74-72.83,1.92-88.76-8.6a18.07,18.07,0,1,1,19.91-30.15c13.64,9,72,4.37,118-5.61A18.07,18.07,0,0,1,698,476.25Zm-144.53-19a7.4,7.4,0,0,0-2.45,2.31,7.35,7.35,0,0,0,2.08,10.17c13.57,9,41.06,11.28,81.7,6.88,29.22-3.16,54.66-8.64,55.73-8.87a7.62,7.62,0,0,0,2.11-.81,7.34,7.34,0,0,0-5.23-13.53c-27.72,6-104.42,18.48-126.22,4.08a7.38,7.38,0,0,0-7.72-.23Z"/><path class="cls-13" d="M443.15,910.27a12.62,12.62,0,0,1-9.3,1.35L369.6,896.27a12.7,12.7,0,1,1,5.9-24.7l64.25,15.34a12.7,12.7,0,0,1,3.4,23.36Z"/><path d="M445.84,914.92a18,18,0,0,1-13.23,1.92l-64.26-15.35a18.06,18.06,0,1,1,8.39-35.14L441,881.69a18.07,18.07,0,0,1,13.38,21.77A18.18,18.18,0,0,1,445.84,914.92Zm-77-37.35a7.33,7.33,0,0,0,2,13.49L435.1,906.4a7.34,7.34,0,0,0,3.41-14.27l-64.26-15.35A7.31,7.31,0,0,0,368.88,877.57Z"/><path class="cls-13" d="M407,951.76a12.68,12.68,0,0,1-14-.85c-5.55-4.18-53.87-41.92-41.67-78.68a12.7,12.7,0,0,1,24.11,8c-5.11,15.4,19.93,40.6,32.86,50.39A12.7,12.7,0,0,1,407,951.76Z"/><path d="M409.68,956.41a18,18,0,0,1-19.9-1.21c-5.87-4.42-56.92-44.34-43.53-84.66a18.07,18.07,0,0,1,34.29,11.39c-3.57,10.78,16.06,33.11,31,44.42a18.1,18.1,0,0,1,3.51,25.3A17.88,17.88,0,0,1,409.68,956.41Zm-49.95-86.52a7.26,7.26,0,0,0-3.3,4c-11.21,33.78,37.72,71.13,39.81,72.7a7.32,7.32,0,0,0,8.08.5,7.21,7.21,0,0,0,2.18-1.94,7.34,7.34,0,0,0-1.43-10.27c-11.87-9-41.26-36.65-34.71-56.36a7.33,7.33,0,0,0-10.63-8.66Z"/><path class="cls-13" d="M466.27,838a12.73,12.73,0,0,1-11.77.5c-4.5-.88-20.82.45-35.59,2.93a12.71,12.71,0,0,1-4.21-25.06c40.52-6.8,48.86-1.94,51.6-.34a12.72,12.72,0,0,1,0,22Zm-11.44.57h0Zm-1.33-.6h0Z"/><path d="M469,842.64a18.09,18.09,0,0,1-16,1.05c-3.88-.44-17.9.46-33.18,3a18.07,18.07,0,0,1-6-35.64c37.62-6.32,49.26-3.15,55.2.31a18.07,18.07,0,0,1-.06,31.25Zm-12.87-9.3.11,0,.6.28a7.35,7.35,0,0,0,6.79-.29,7.27,7.27,0,0,0,2.66-2.65,7.35,7.35,0,0,0-2.64-10c-7.77-4.53-30.4-1.95-48,1A7.34,7.34,0,0,0,418,836.14c13.85-2.33,31.66-4,37.52-2.91l.28.06.06-.13.23.12Z"/><g class="cls-7"><path d="M749.78,1028.51S603.07,912.65,570.19,850.18c-11.42-28.06-50.74-108.76-90-66.14,0,0,30.26-.95,40,33.65,15,53.25,26.72,96.78,217.88,217.56C742.5,1038,745.19,1025.64,749.78,1028.51Z"/></g><path class="cls-8" d="M743.46,1032.43S562.58,896.75,546,849.4,521.27,765,488.61,772.77s-24.26,42.61-40.67,75.81-50.75,72.14-97,118c-33.11,31.86,5.4,59,16.08,61.88,13.3,4.31,172.77,60.29,214.65,100,54-30.62,108.33-63,161.83-96.06Z"/><path d="M743.05,1032.78s-.17-.1-.3-.18l-.37-.26-.76-.52-1.5-1-3-2.09-6-4.2-11.92-8.55c-7.92-5.73-15.76-11.57-23.59-17.42S680,986.65,672.32,980.65,657,968.5,649.38,962.34s-15.11-12.44-22.57-18.79S612,930.77,604.67,924.2,590.24,910.9,583.22,904s-14-13.93-20.44-21.44c-3.27-3.75-6.45-7.58-9.48-11.59a95.07,95.07,0,0,1-8.4-12.82,52,52,0,0,1-3.29-7.38l-2.32-7q-2.31-7-4.5-13.95c-3-9.27-6-18.5-9.54-27.34a98.82,98.82,0,0,0-6.16-12.71,48,48,0,0,0-3.89-5.66,30,30,0,0,0-4.65-4.77A21.83,21.83,0,0,0,505,776a20.23,20.23,0,0,0-6.3-1.56,29.63,29.63,0,0,0-6.71.16,44.56,44.56,0,0,0-6.72,1.57,31.64,31.64,0,0,0-6.24,2.75,27.57,27.57,0,0,0-5.34,4.16,31.3,31.3,0,0,0-4.21,5.4,45.34,45.34,0,0,0-3.17,6.26c-.9,2.18-1.68,4.44-2.4,6.73s-1.31,4.63-1.89,7l-3.43,14.24c-2.39,9.5-5.3,19.07-9.85,27.91-2.22,4.41-4.64,8.7-7.16,12.92-1.3,2.09-2.54,4.22-3.88,6.28L433.67,876l-4.22,6-4.34,6c-1.42,2-2.95,3.92-4.42,5.88s-3,3.9-4.52,5.81C404,915.06,391,929.78,377.78,944.2c-6.67,7.18-13.36,14.31-20.19,21.36L355,968.2l-1.28,1.32-1.18,1.26a33.71,33.71,0,0,0-2.28,2.54,36.51,36.51,0,0,0-7.48,14.18,22.79,22.79,0,0,0,.71,12,27.71,27.71,0,0,0,2.64,5.7,36.2,36.2,0,0,0,3.82,5.25,50.9,50.9,0,0,0,10,8.82,42.08,42.08,0,0,0,5.65,3.25,16.67,16.67,0,0,0,2.72,1l3.64,1.19c18.63,6.26,37,12.93,55.33,19.89,9.15,3.48,18.3,7,27.38,10.68s18.13,7.46,27.13,11.35q27.06,11.58,53.28,25.25c8.71,4.63,17.37,9.41,25.77,14.76s16.63,11.08,24.19,18.21l-5.83-.71,41.11-22.79,41-23,40.93-23.18,20.45-11.63,10.24-5.81,5.12-2.89,2.56-1.45,1.28-.72.64-.37.32-.18.16-.09.08,0,0,0C743.09,1032.35,743.28,1031.17,743.05,1032.78Zm.81-.71c-.25,1.64-.09.47-.16.84l0,0-.07,0-.16.1-.3.21-.61.41-1.22.82-2.45,1.63-4.89,3.28-9.81,6.51c-6.55,4.33-13.13,8.6-19.72,12.87-13.16,8.54-26.43,16.92-39.73,25.26s-26.67,16.57-40.13,24.65-26.92,16.18-40.51,24a4.86,4.86,0,0,1-5.69-.59l-.13-.12c-6.8-6.14-14.79-11.45-23-16.4s-16.67-9.57-25.28-14c-17.23-8.77-35-16.7-52.76-24.5-35.71-15.31-72-29.74-108.56-42.85l-3.3-1.14a28.34,28.34,0,0,1-4.09-1.63,50.81,50.81,0,0,1-7-4.16,59.76,59.76,0,0,1-11.72-10.76A45.69,45.69,0,0,1,338,1010a36.87,36.87,0,0,1-3.32-7.63,31.88,31.88,0,0,1-.59-16.87,40.2,40.2,0,0,1,7.34-14.6c.77-1.09,1.68-2,2.54-3s1.78-1.91,2.69-2.82l1.38-1.37,1.31-1.27,2.62-2.53c7-6.7,14-13.53,20.91-20.38s13.71-13.83,20.34-20.94,13.22-14.29,19.45-21.74,12.34-15,17.93-22.95l4.12-6c1.37-2,2.62-4.07,3.94-6.1q3.83-6.18,7.14-12.63a99.09,99.09,0,0,0,5.64-13.25c1.6-4.54,2.81-9.23,4-13.94l3.3-14.27a120.87,120.87,0,0,1,4.18-14.29,49.12,49.12,0,0,1,3.26-6.89,36.24,36.24,0,0,1,4.61-6.25,33.27,33.27,0,0,1,6-5,36,36,0,0,1,7-3.44,47.9,47.9,0,0,1,7.46-2.06,35,35,0,0,1,7.88-.52,27.29,27.29,0,0,1,15.07,5.47,35.7,35.7,0,0,1,5.83,5.4,56.05,56.05,0,0,1,4.71,6.18,107,107,0,0,1,7.26,13.3c4.22,9.07,7.56,18.34,10.92,27.53,1.68,4.6,3.3,9.2,4.92,13.79l2.47,6.86a41.81,41.81,0,0,0,2.81,5.92,106.07,106.07,0,0,0,7.81,11.55c2.86,3.76,5.94,7.43,9.11,11,12.72,14.4,26.6,28,40.83,41.25q10.65,9.94,21.53,19.7c7.26,6.48,14.59,12.89,21.92,19.31s14.75,12.75,22.17,19.07,14.85,12.65,22.34,18.91,14.94,12.55,22.45,18.8Z"/><g class="cls-7"><path d="M498.42,856s-19.59,12.31-37.66-7.13-34.34-49-12.82-54.49C447.94,794.35,474.34,847.77,498.42,856Z"/></g><g class="cls-11"><path d="M475,973.6s-10.68,21.71-33.79,42.59c-8,4.81-1.05,10.7,33.34,21.8s44.86,14.47,52.8,21-26.27-26.25-69.89-36.73C447,1019.65,478.59,995.7,475,973.6Z"/></g><g class="cls-9"><path class="cls-6" d="M555.13,921.68s24.58,6,51.09,26.41,83.45,72.64,83.45,72.64-44.58-23.28-83.93-53.84S555.13,921.68,555.13,921.68Z"/></g><path d="M602.78,1120.76a3.76,3.76,0,0,1-4.71-.79l-.82-.92a3.76,3.76,0,0,1,5.56-5.06l.93,1a3.76,3.76,0,0,1-.37,5.3A4.56,4.56,0,0,1,602.78,1120.76Zm123-73a3.77,3.77,0,0,1-4.16-.27c-3.26-2.49-7.6-5.82-12.79-9.83a3.76,3.76,0,0,1,4.6-5.94c5.17,4,9.5,7.32,12.75,9.8a3.75,3.75,0,0,1,.71,5.26A3.69,3.69,0,0,1,725.73,1047.75ZM590,1109a3.76,3.76,0,0,1-4.19-.29c-3.72-2.9-8.05-6-12.87-9.08a3.76,3.76,0,1,1,4.09-6.3c5,3.25,9.5,6.43,13.39,9.45a3.75,3.75,0,0,1,.66,5.27A3.6,3.6,0,0,1,590,1109Zm110.24-81a3.76,3.76,0,0,1-4.2-.3c-4-3.11-8.21-6.46-12.65-10a3.75,3.75,0,1,1,4.67-5.88c4.43,3.52,8.66,6.86,12.62,10a3.75,3.75,0,0,1-.44,6.21Zm-137.1,63.31a3.74,3.74,0,0,1-3.76,0c-4.34-2.51-9-5.11-14-7.72A3.76,3.76,0,0,1,549,1077c5,2.66,9.77,5.3,14.19,7.86a3.75,3.75,0,0,1,0,6.5ZM675,1008a3.74,3.74,0,0,1-4.23-.32c-4.07-3.28-8.26-6.68-12.53-10.16a3.76,3.76,0,0,1,4.75-5.82c4.25,3.47,8.43,6.86,12.49,10.13a3.75,3.75,0,0,1,.57,5.28A3.69,3.69,0,0,1,675,1008ZM534.78,1076.2a3.74,3.74,0,0,1-3.56.11c-4.57-2.27-9.41-4.62-14.41-7a3.76,3.76,0,0,1,3.21-6.8c5,2.38,9.93,4.75,14.55,7a3.76,3.76,0,0,1,.21,6.61ZM650.1,987.62a3.74,3.74,0,0,1-4.27-.36q-5.54-4.59-11.13-9.3l-1.25-1.05a3.75,3.75,0,1,1,4.84-5.74l1.25,1.05q5.57,4.68,11.08,9.26a3.75,3.75,0,0,1,.49,5.29A3.55,3.55,0,0,1,650.1,987.62Zm-144.42,74.84a3.74,3.74,0,0,1-3.42.17c-4.74-2.13-9.68-4.32-14.67-6.48a3.76,3.76,0,0,1,3-6.89c5,2.18,10,4.37,14.76,6.52a3.75,3.75,0,0,1,.34,6.68Zm119.82-95.6a3.75,3.75,0,0,1-4.32-.41c-4.16-3.57-8.26-7.13-12.18-10.59a3.76,3.76,0,0,1,5-5.64c3.9,3.44,8,7,12.11,10.54a3.76,3.76,0,0,1-.57,6.1Zm-149.34,82.78a3.74,3.74,0,0,1-3.33.22c-4.84-2-9.84-4.1-14.85-6.13a3.76,3.76,0,0,1,2.83-7c5,2,10.06,4.12,14.93,6.16a3.76,3.76,0,0,1,2,4.92A3.72,3.72,0,0,1,476.16,1049.64Zm-29.83-12.13a3.75,3.75,0,0,1-3.26.24c-4.94-2-10-3.92-15-5.84a3.76,3.76,0,0,1,2.7-7c5,1.93,10.08,3.9,15,5.86a3.77,3.77,0,0,1,2.11,4.88A3.71,3.71,0,0,1,446.33,1037.51Zm155-91.92a3.74,3.74,0,0,1-4.39-.46c-4.14-3.74-8.14-7.41-11.9-10.93a3.75,3.75,0,0,1,5.12-5.49c3.74,3.49,7.71,7.13,11.81,10.84a3.76,3.76,0,0,1,.27,5.31A3.7,3.7,0,0,1,601.34,945.59Zm-185.07,80.34a3.73,3.73,0,0,1-3.2.27c-5-1.88-10.08-3.76-15.08-5.58a3.75,3.75,0,1,1,2.58-7c5,1.82,10.1,3.71,15.14,5.6a3.76,3.76,0,0,1,.56,6.76ZM577.83,923.62a3.75,3.75,0,0,1-4.49-.56c-4.05-3.94-7.91-7.79-11.46-11.44a3.76,3.76,0,1,1,5.38-5.24c3.51,3.6,7.31,7.4,11.32,11.29a3.77,3.77,0,0,1,.07,5.31A3.56,3.56,0,0,1,577.83,923.62ZM386,1014.9a3.75,3.75,0,0,1-3.13.29c-5.45-1.92-9-3.13-10.42-3.59l-.64-.19-.32-.12a25,25,0,0,1-4.42-2.57,3.75,3.75,0,0,1,4.33-6.13,17.43,17.43,0,0,0,2.83,1.7l.49.15c1.49.49,5.13,1.72,10.65,3.67a3.76,3.76,0,0,1,2.29,4.79A3.71,3.71,0,0,1,386,1014.9ZM555.43,900.53a3.76,3.76,0,0,1-4.67-.74c-3.9-4.33-7.47-8.5-10.59-12.4a3.76,3.76,0,0,1,5.87-4.7c3,3.78,6.49,7.84,10.3,12.07a3.75,3.75,0,0,1-.27,5.3A4,4,0,0,1,555.43,900.53ZM361.15,996.68a3.64,3.64,0,0,1-1.32.46,3.75,3.75,0,0,1-4.27-3.15c-.64-4.25,1.92-9.18,7.62-14.66l1.77-1.76a3.75,3.75,0,0,1,5.29,5.33l-1.83,1.82c-4.59,4.41-5.57,7.19-5.42,8.14A3.77,3.77,0,0,1,361.15,996.68Zm19.69-24.59a3.75,3.75,0,0,1-4.55-5.89c3.84-3.89,7.61-7.76,11.2-11.49a3.76,3.76,0,1,1,5.41,5.21c-3.61,3.75-7.4,7.64-11.27,11.56A3.8,3.8,0,0,1,380.84,972.09Zm154.67-96.78a3.76,3.76,0,0,1-5-1.22c-1-1.49-1.87-3-2.7-4.41a72.39,72.39,0,0,1-5.08-10.54,3.76,3.76,0,1,1,7-2.66,65.51,65.51,0,0,0,4.55,9.44c.77,1.33,1.62,2.71,2.51,4.1a3.74,3.74,0,0,1-1.12,5.19ZM403.15,948.9a3.76,3.76,0,0,1-4.62-5.82c3.76-4,7.41-8,10.84-11.8a3.75,3.75,0,0,1,5.58,5c-3.46,3.85-7.14,7.85-10.93,11.91A3.58,3.58,0,0,1,403.15,948.9ZM424.66,925a3.76,3.76,0,0,1-4.73-5.7c3.61-4.2,7.05-8.33,10.24-12.28A3.75,3.75,0,1,1,436,911.7c-3.23,4-6.72,8.19-10.37,12.45A4,4,0,0,1,424.66,925Zm20.19-25.07a3.76,3.76,0,0,1-4.89-5.5c3.29-4.41,6.39-8.77,9.2-13a3.76,3.76,0,0,1,6.24,4.19c-2.88,4.3-6,8.76-9.42,13.27A3.61,3.61,0,0,1,444.85,899.89Zm78-54a3.82,3.82,0,0,1-.68.31,3.76,3.76,0,0,1-4.76-2.36l-.57-1.69c-1.53-4.52-3.11-9.18-4.63-13.5a3.76,3.76,0,0,1,7.09-2.49c1.53,4.36,3.11,9,4.65,13.58l.57,1.7A3.74,3.74,0,0,1,522.85,845.84Zm-60.14,27.3a3.76,3.76,0,0,1-5.13-5.14c2.26-3.89,4.36-7.79,6.23-11.58.39-.78.76-1.56,1.13-2.34a3.76,3.76,0,0,1,6.81,3.17c-.39.83-.79,1.67-1.2,2.5-1.95,3.94-4.13,8-6.48,12A3.72,3.72,0,0,1,462.71,873.14ZM476,843.92a3.75,3.75,0,0,1-5.46-4.4c1.82-5.67,3.18-11.13,4.16-15.25a3.76,3.76,0,0,1,7.31,1.74c-1,4.26-2.42,9.89-4.31,15.8A3.75,3.75,0,0,1,476,843.92ZM512,815.54a4.71,4.71,0,0,1-.45.22,3.76,3.76,0,0,1-4.9-2A92,92,0,0,0,501.5,803c-.59-1-1.18-2-1.76-2.81l-.11-.16a3.76,3.76,0,0,1,6.28-4.13c.71,1,1.41,2.15,2.1,3.35a98.89,98.89,0,0,1,5.55,11.58A3.76,3.76,0,0,1,512,815.54Zm-27.93-2.79a3.8,3.8,0,0,1-2.86.38,3.76,3.76,0,0,1-2.65-4.61c2.28-8.46,4.31-13.57,8.53-16.32a3.76,3.76,0,1,1,4.1,6.3c-1.57,1-3.08,3.44-5.37,12A3.76,3.76,0,0,1,484.05,812.75Z"/><path d="M431.28,1031.64a3.76,3.76,0,0,1-4.83-5.58l10-12.64a3.75,3.75,0,0,1,5.89,4.65l-10,12.64A3.76,3.76,0,0,1,431.28,1031.64Zm19.93-25.28a3.76,3.76,0,0,1-4.83-5.58l10-12.64a3.76,3.76,0,0,1,5.9,4.65l-10,12.64A3.63,3.63,0,0,1,451.21,1006.36Zm19.94-25.28a3.76,3.76,0,0,1-4.83-5.58l10-12.64a3.76,3.76,0,1,1,5.89,4.66l-10,12.63A3.76,3.76,0,0,1,471.15,981.08Zm19.93-25.28a3.76,3.76,0,0,1-4.83-5.58l10-12.64a3.76,3.76,0,0,1,5.9,4.66l-10,12.63A3.63,3.63,0,0,1,491.08,955.8ZM511,930.52a3.75,3.75,0,0,1-4.83-5.57l10-12.64a3.75,3.75,0,1,1,5.89,4.65l-10,12.64A3.88,3.88,0,0,1,511,930.52ZM531,905.24a3.75,3.75,0,0,1-4.83-5.57l10-12.64a3.76,3.76,0,1,1,5.9,4.65l-10,12.64A3.74,3.74,0,0,1,531,905.24Z"/><g class="cls-14"><path class="cls-6" d="M389.4,921.3s-23.15-19.62-21.28-43.53C368.12,877.77,357.6,907.6,389.4,921.3Z"/></g><g class="cls-14"><path class="cls-6" d="M382,879.27a46.77,46.77,0,0,0,30.71,7.66Z"/></g><g class="cls-7"><path d="M468.19,931.18s-20.43,18.76-48.38-22.06-24.19-54.87-9-65.25C410.78,843.87,416.28,886.47,468.19,931.18Z"/></g><g class="cls-14"><path class="cls-6" d="M423.43,822.73s14.2-7.61,25.31-.78C448.74,822,432,825.58,423.43,822.73Z"/></g><g class="cls-7"><path d="M418.05,987.23s-29.94,25.84-84.52-37.29C328.63,941.46,384.71,946.16,418.05,987.23Z"/></g><path class="cls-13" d="M468.19,931.18a12.71,12.71,0,0,1-15.14-1.83c-.92-.89-22.76-21.94-33.69-43.09-1-1.94-2.09-4-3.2-6.17-19.37-37.2-25.46-51.19-23.38-60.74a12.7,12.7,0,0,1,25.05,4c1.17,7.21,14.42,32.68,20.86,45l3.24,6.23c9,17.44,28.5,36.22,28.7,36.4a12.71,12.71,0,0,1,.38,18A13.13,13.13,0,0,1,468.19,931.18ZM417.6,824.74h0Z"/><path d="M470.87,935.83a18.16,18.16,0,0,1-21.53-2.61c-2.39-2.3-23.64-23-34.75-44.49-.79-1.54-1.63-3.15-2.5-4.82l-.7-1.34c-20.36-39.12-26.31-53.1-23.86-64.36a18.07,18.07,0,0,1,35.7,4.8c1.65,7.21,15.06,33,20.2,42.84l-4.71,2.58,4.76-2.47c1.13,2.15,2.2,4.22,3.21,6.18,8.57,16.56,27.46,34.81,27.65,35a18.11,18.11,0,0,1-3.47,28.7ZM401.52,815.7l-.3.18a7.3,7.3,0,0,0-3.2,4.61c-1.74,8,5.33,23.38,22.89,57.13l.7,1.34c.88,1.68,1.72,3.3,2.52,4.84,10.48,20.29,31.74,40.81,32.64,41.68a7.37,7.37,0,0,0,8.73,1,7.48,7.48,0,0,0,1.64-1.28,7.35,7.35,0,0,0-.23-10.37c-.2-.2-20.31-19.56-29.75-37.82-1-1.94-2.08-4-3.2-6.15l0-.11c-12.05-23.15-20.3-39.94-21.38-46.63h0l-.26,0,.15-.76h0l.06-.58a7.33,7.33,0,0,0-11-7.08Z"/><path class="cls-13" d="M418.05,987.23a12.66,12.66,0,0,1-11,.8c-2.27-.9-55.86-22.53-84.47-63.35a12.7,12.7,0,0,1,20.8-14.58c24.19,34.51,72.57,54.13,73.06,54.33a12.71,12.71,0,0,1,1.65,22.8Z"/><path d="M420.73,991.87A18,18,0,0,1,405,993c-2.33-.92-57.34-23.11-86.88-65.26A18.07,18.07,0,0,1,347.74,907c23.18,33.08,70.18,52.24,70.65,52.43a18.06,18.06,0,0,1,2.34,32.42ZM329.29,911l-.56.35a7.35,7.35,0,0,0-1.8,10.22c27.72,39.55,79.85,60.57,82.06,61.45a7.34,7.34,0,0,0,5.42-13.64c-.49-.19-50.25-20.26-75.46-56.23a7.35,7.35,0,0,0-9.66-2.15Z"/><g class="cls-14"><path class="cls-6" d="M397.66,961.14s-24.11-5.74-60.61-46.58C337.05,914.56,364.24,959.13,397.66,961.14Z"/></g><g class="cls-14"><path class="cls-6" d="M466.29,915.35s-33.74-29-54.59-87.68C411.7,827.67,423.93,886.18,466.29,915.35Z"/></g><path class="cls-13" d="M498.42,856A12.71,12.71,0,0,1,483,853.82c-1.18-1.22-29.14-30.09-40.65-54.4-11.4-24.09-14-40.71-14.09-41.41a12.7,12.7,0,1,1,25.12-3.77c0,.08,2.28,13.9,11.94,34.31,8.06,17,28.64,40.1,35.89,47.55a12.72,12.72,0,0,1-.24,18A13,13,0,0,1,498.42,856Z"/><path d="M501.11,860.62a18.05,18.05,0,0,1-22-3.06c-1.21-1.24-29.77-30.74-41.65-55.84-11.48-24.24-14.28-41.06-14.56-42.9a18.07,18.07,0,0,1,35.74-5.38c0,.07,2.28,13.39,11.48,32.81,7.75,16.38,27.81,38.84,34.89,46.11a18.08,18.08,0,0,1-.35,25.55A18.37,18.37,0,0,1,501.11,860.62Zm-64-110.85a7.35,7.35,0,0,0-3.6,7.45c.1.65,2.64,16.66,13.64,39.91,11.14,23.5,38.49,51.76,39.65,53a7.34,7.34,0,0,0,10.52-10.24c-7.43-7.62-28.53-31.3-36.9-49-10.06-21.25-12.37-35.65-12.39-35.79a7.35,7.35,0,0,0-8.35-6.19A7.15,7.15,0,0,0,437.13,749.77Z"/><g class="cls-14"><path class="cls-6" d="M497.59,841.25s-40.95-34.13-51.66-89.47C445.93,751.78,448.63,810.82,497.59,841.25Z"/></g><path d="M614.41,1115.92q-109.59,63.27-205.07,110.13c-166,81.42-298.22,124.28-393,127.38A5.37,5.37,0,1,1,16,1342.7c93.21-3,224-45.54,388.58-126.29,132.06-64.77,286-154.13,457.42-265.58,292-189.83,536.91-380.45,539.35-382.35a5.36,5.36,0,0,1,6.6,8.46c-2.44,1.91-247.68,192.81-540.11,382.89Q733.71,1047,614.41,1115.92Z"/><g class="cls-14"><path class="cls-6" d="M578.13,784.25s-59.49-46.84-93.26-108.52C484.87,675.73,505.3,743.31,578.13,784.25Z"/></g><g class="cls-14"><path class="cls-6" d="M599.14,691.29S541.54,635,537,592.23C537,592.23,528.34,642.94,599.14,691.29Z"/></g><g class="cls-14"><path class="cls-6" d="M598.74,573s-33.65-4.11-49.41,10.16C549.33,583.12,576.5,580.68,598.74,573Z"/></g><g class="cls-14"><path class="cls-6" d="M678.83,603.73s-36.64-47.24-63.8-65.3c-18.62-12.26-50.36-41.27-50.36-41.27s3,11.68,58.85,56C635,561.16,678.83,603.73,678.83,603.73Z"/></g><g class="cls-14"><path class="cls-6" d="M691.41,454s-83.67,17-127.49,7.89C563.92,461.88,614.25,478.62,691.41,454Z"/></g><g class="cls-14"><path class="cls-6" d="M669.33,375.5l-52.28,35.4S653.71,406.4,669.33,375.5Z"/></g><g class="cls-14"><path class="cls-6" d="M968.1,189.1s-69.09,38.54-176.62,62C791.48,251.1,895.63,248.46,968.1,189.1Z"/></g><g class="cls-7"><path d="M407,988a12.7,12.7,0,0,0,9.39-23.6c-.08,0-1.56-.64-4-1.76-1.47,6.72-7.59,14.83-28.81,13.88A213.92,213.92,0,0,0,407,988Z"/></g></g></g></svg>