<svg xmlns="http://www.w3.org/2000/svg" viewBox="0 0 595.28 841.89"><defs><style>.cls-1{fill:#7a9fc0;}.cls-2{fill:#f2a766;}.cls-3{fill:#ef784c;}.cls-4{fill:#d95a4e;}.cls-5{fill:#f2ba52;}.cls-6{fill:none;stroke:#1d1d1b;stroke-miterlimit:10;stroke-width:6px;}</style></defs><g id="sunset"><polygon class="cls-1" points="538.28 568.5 538.28 775.28 56.39 775.28 56.39 567.33 56.99 567.33 538.28 568.5"/><path class="cls-2" d="M538.28,66.61V568.5L57,567.33h-.6V66.61ZM404.63,448.5l121.8-201.89-147.09,184Zm-41.89-25.95L449,162.7l-119.43,246ZM137.22,563.94H435.65a149.22,149.22,0,1,0-298.43,0Zm170.07-158L286.28,93,266.07,405.64Zm-58,3.8L137.22,150.07l77,271.82Zm-54.19,26.55L64.78,266.67l106.85,185Z"/><polygon class="cls-3" points="526.43 246.61 404.63 448.5 379.34 430.58 526.43 246.61"/><polygon class="cls-4" points="448.95 162.7 362.74 422.55 329.52 408.74 448.95 162.7"/><path class="cls-5" d="M435.65,563.94H137.22a149.22,149.22,0,1,1,298.43,0Z"/><polygon class="cls-3" points="286.28 93 307.29 405.9 266.07 405.64 286.28 93"/><polygon class="cls-4" points="137.22 150.07 249.3 409.7 214.19 421.89 137.22 150.07"/><polygon class="cls-3" points="64.78 266.67 195.11 436.25 171.63 451.7 64.78 266.67"/><polygon class="cls-6" points="538.28 568.5 538.28 775.28 56.39 775.28 56.39 567.33 56.39 66.61 538.28 66.61 538.28 568.5"/><path class="cls-6" d="M137.22,563.94a149.22,149.22,0,1,1,298.43,0"/><polyline class="cls-6" points="56.99 567.33 538.28 568.5 538.88 568.5"/><line class="cls-6" x1="71.96" y1="611.27" x2="181.34" y2="611.27"/><line class="cls-6" x1="292.69" y1="625.91" x2="393.79" y2="625.91"/><line class="cls-6" x1="164.73" y1="654.07" x2="236.25" y2="654.07"/><line class="cls-6" x1="509.1" y1="674.9" x2="379.11" y2="674.07"/><line class="cls-6" x1="71.96" y1="741.92" x2="231.88" y2="741.92"/><line class="cls-6" x1="239.91" y1="708.41" x2="399.84" y2="708.41"/><line class="cls-6" x1="459.99" y1="591" x2="501.78" y2="591"/><polygon class="cls-6" points="286.28 93 307.29 405.9 266.07 405.64 286.28 93"/><polygon class="cls-6" points="448.95 162.7 362.74 422.55 329.52 408.74 448.95 162.7"/><polygon class="cls-6" points="137.22 150.07 249.3 409.7 214.19 421.89 137.22 150.07"/><polygon class="cls-6" points="526.43 246.61 404.63 448.5 379.34 430.58 526.43 246.61"/><polygon class="cls-6" points="64.78 266.67 195.11 436.25 171.63 451.7 64.78 266.67"/></g></svg>