<svg xmlns="http://www.w3.org/2000/svg" viewBox="0 0 595.28 841.89"><defs><style>.cls-1{fill:#95d3e3;}.cls-2{fill:#f08db1;}.cls-3{fill:#f2c9e1;}.cls-4{fill:#89c2d9;}.cls-5{fill:#fff;}.cls-6{fill:#da6590;}.cls-7{fill:none;stroke:#1d1d1b;stroke-miterlimit:10;stroke-width:6px;}</style></defs><g id="teenager"><polygon class="cls-1" points="539.91 775.1 539.91 783.64 298.97 783.64 298.98 775.1 539.91 775.1"/><path class="cls-2" d="M433.65,419.93a28.29,28.29,0,0,1,11.09,22.49c0,10-6.3,18.84-14.24,23.87a28.36,28.36,0,0,0-29.09.19,28.36,28.36,0,0,1-3.11-45.89,28.22,28.22,0,0,0,17.82,6.31C422,426.9,428.42,424.27,433.65,419.93Z"/><path class="cls-3" d="M415.94,370.2h.18a28.35,28.35,0,0,1,28.35,28.35c0,8.53-4.56,16.19-10.82,21.38a28.35,28.35,0,0,0-35.35.66,28.35,28.35,0,0,1,17.64-50.39Z"/><path class="cls-3" d="M430.5,466.29a28.31,28.31,0,0,1,14,24.43c0,15.66-15.36,28.35-28.35,28.35a28.36,28.36,0,0,1-14.71-52.59,28.19,28.19,0,0,0,15,4.29A26.83,26.83,0,0,0,430.5,466.29Z"/><path class="cls-1" d="M418.17,567.37l.73-1.3a240.86,240.86,0,0,1,121,209H299l0-66.22C359.55,708.83,409.64,647.39,418.17,567.37Z"/><path class="cls-2" d="M418.9,566.07l-.73,1.3-59.41.07a70.33,70.33,0,0,0,6.51-20.93l.84-2.88A239.29,239.29,0,0,1,418.9,566.07Z"/><path class="cls-2" d="M358.76,567.44l59.41-.07c-8.53,80-58.62,141.46-119.15,141.51l.08-102A70.88,70.88,0,0,0,358.76,567.44Z"/><path class="cls-4" d="M416.4,414.07a28.17,28.17,0,0,1,17.25,5.86c-5.23,4.34-11.63,7-17.53,7a28.22,28.22,0,0,1-17.82-6.31A28.27,28.27,0,0,1,416.4,414.07Z"/><path class="cls-4" d="M430.5,466.29a26.83,26.83,0,0,1-14.1,4.48,28.19,28.19,0,0,1-15-4.29,28.36,28.36,0,0,1,29.09-.19Z"/><path class="cls-4" d="M299.37,234.58H184.66a114.79,114.79,0,0,1,229.58,0Z"/><polygon class="cls-5" points="414.11 237.58 413.34 239.56 299.37 239.56 299.37 237.58 414.11 237.58"/><path class="cls-4" d="M413.34,239.56l-114,294.59h-.23l.22-294.59Z"/><path class="cls-2" d="M366.11,543.63l-.84,2.88-66.13.06V534.75l.23-.6A240.88,240.88,0,0,1,366.11,543.63Z"/><path class="cls-1" d="M299.14,546.57l66.13-.06a70.33,70.33,0,0,1-6.51,20.93l-59.63.06Z"/><path class="cls-1" d="M299.13,567.5l59.63-.06a70.88,70.88,0,0,1-59.66,39.47Z"/><path class="cls-5" d="M299.38,534.15l-.23.6v-.6Z"/><polygon class="cls-5" points="299.37 237.58 299.37 239.56 184.59 239.56 183.82 237.58 299.37 237.58"/><path class="cls-4" d="M299.37,239.56l-.22,294.59h-.59l-114-294.59Z"/><path class="cls-5" d="M299.15,534.15v.6l-.18.47-.41-1.07h.59Z"/><path class="cls-1" d="M299.15,534.75v11.82l-74.08.06-.27-.84a240.44,240.44,0,0,1,73.77-11.64l.41,1.07Z"/><path class="cls-2" d="M299.14,546.57V567.5l-67.5.08a70.17,70.17,0,0,1-6.57-21Z"/><path class="cls-2" d="M299.13,567.5l0,39.41c-1.3.07-2.62.11-3.94.11a70.86,70.86,0,0,1-63.53-39.44Z"/><path class="cls-1" d="M299.1,606.91l-.08,102H299c-60.49,0-110.58-61.32-119.19-141.24l51.87-.06A70.86,70.86,0,0,0,295.16,607C296.48,607,297.8,607,299.1,606.91Z"/><path class="cls-2" d="M299,708.88l0,66.22H58a240.87,240.87,0,0,1,121-209l.72,1.57c8.61,79.92,58.7,141.24,119.19,141.24Z"/><polygon class="cls-2" points="298.98 775.1 298.97 783.64 58.02 783.64 58.02 775.1 298.98 775.1"/><path class="cls-1" d="M231.63,567.58l-51.87.06-.72-1.57a239.39,239.39,0,0,1,45.75-20.28l.27.84A70.17,70.17,0,0,0,231.63,567.58Z"/><path class="cls-2" d="M202,419.92a28.29,28.29,0,0,1,11.1,22.5c0,10-6.3,18.84-14.24,23.87a28.36,28.36,0,0,0-29.09.19,28.36,28.36,0,0,1-3.11-45.89,28.19,28.19,0,0,0,17.82,6.31C190.42,426.9,196.82,424.27,202,419.92Z"/><path class="cls-3" d="M184.34,370.2h.18a28.34,28.34,0,0,1,28.34,28.35c0,8.53-4.56,16.19-10.82,21.37a28.36,28.36,0,0,0-35.34.67,28.34,28.34,0,0,1,17.64-50.39Z"/><path class="cls-3" d="M198.9,466.29a28.35,28.35,0,0,1,14,24.43c0,15.66-15.35,28.35-28.34,28.35a28.35,28.35,0,0,1-14.71-52.59,28.15,28.15,0,0,0,15,4.29A26.83,26.83,0,0,0,198.9,466.29Z"/><path class="cls-4" d="M184.79,414.07A28.22,28.22,0,0,1,202,419.92c-5.22,4.35-11.62,7-17.52,7a28.19,28.19,0,0,1-17.82-6.31A28.26,28.26,0,0,1,184.79,414.07Z"/><path class="cls-4" d="M198.9,466.29a26.83,26.83,0,0,1-14.11,4.48,28.15,28.15,0,0,1-15-4.29,28.36,28.36,0,0,1,29.09-.19Z"/><path class="cls-6" d="M415.94,370.2a28.35,28.35,0,0,0-17.64,50.39,28.36,28.36,0,0,0,3.11,45.89,28.36,28.36,0,0,0,14.71,52.59c13,0,28.35-12.69,28.35-28.35a28.31,28.31,0,0,0-14-24.43c7.94-5,14.24-13.84,14.24-23.87a28.29,28.29,0,0,0-11.09-22.49c6.26-5.19,10.82-12.85,10.82-21.38a28.35,28.35,0,0,0-28.35-28.35Zm-231.6,0a28.34,28.34,0,0,0-17.64,50.39,28.36,28.36,0,0,0,3.11,45.89,28.35,28.35,0,0,0,14.71,52.59c13,0,28.34-12.69,28.34-28.35a28.35,28.35,0,0,0-14-24.43c7.94-5,14.24-13.84,14.24-23.87a28.29,28.29,0,0,0-11.1-22.5c6.26-5.18,10.82-12.84,10.82-21.37a28.34,28.34,0,0,0-28.34-28.35Zm115-132.62H183.82l.77,2,114,294.59A240.84,240.84,0,0,0,58,775.1V75H539.91V775.1a240.68,240.68,0,0,0-240.53-241l114-294.59.77-2Zm0-3H414.24a114.79,114.79,0,0,0-229.58,0Z"/><polygon class="cls-7" points="539.91 775.1 539.91 783.64 298.97 783.64 58.02 783.64 58.02 775.1 58.02 74.98 539.91 74.98 539.91 775.1"/><path class="cls-7" d="M299.38,534.15a240.82,240.82,0,0,1,240.53,241"/><path class="cls-7" d="M58,775.1a240.72,240.72,0,0,1,240.54-241"/><path class="cls-7" d="M418.17,567.37c-8.53,80-58.62,141.46-119.15,141.51H299c-60.49,0-110.58-61.32-119.19-141.24"/><path class="cls-7" d="M365.27,546.51a70.82,70.82,0,0,1-66.17,60.4c-1.3.07-2.62.11-3.94.11a70.86,70.86,0,0,1-70.1-60.39"/><path class="cls-7" d="M401.41,466.48a28.36,28.36,0,0,1-3.11-45.89"/><path class="cls-7" d="M433.65,419.93a28.29,28.29,0,0,1,11.09,22.49c0,10-6.3,18.84-14.24,23.87"/><path class="cls-7" d="M430.5,466.29a28.31,28.31,0,0,1,14,24.43c0,15.66-15.36,28.35-28.35,28.35a28.35,28.35,0,1,1,14.38-52.78Z"/><line class="cls-7" x1="183.81" y1="242.51" x2="183.81" y2="239.56"/><line class="cls-7" x1="414.12" y1="242.51" x2="414.12" y2="239.56"/><line class="cls-7" x1="413.34" y1="239.56" x2="414.12" y2="239.56"/><line class="cls-7" x1="183.81" y1="239.56" x2="184.59" y2="239.56"/><polygon class="cls-7" points="298.56 534.15 298.97 535.22 299.15 534.75 299.38 534.15 413.34 239.56 414.11 237.58 299.37 237.58 183.82 237.58 184.59 239.56 298.56 534.15"/><path class="cls-7" d="M184.66,234.58a114.79,114.79,0,0,1,229.58,0"/><polyline class="cls-7" points="299.45 122.79 299.37 234.58 299.37 237.58 299.37 239.56 299.15 534.15 299.15 534.75 299.14 546.57 299.13 567.5 299.1 606.91 299.02 708.88 298.98 775.1 298.97 783.64"/><line class="cls-7" x1="415.94" y1="370.2" x2="415.12" y2="239.56"/><path class="cls-7" d="M169.81,466.48a28.36,28.36,0,0,1-3.11-45.89"/><path class="cls-7" d="M202,419.92a28.29,28.29,0,0,1,11.1,22.5c0,10-6.3,18.84-14.24,23.87"/><path class="cls-7" d="M198.9,466.29a28.35,28.35,0,0,1,14,24.43c0,15.66-15.35,28.35-28.34,28.35a28.35,28.35,0,1,1,14.38-52.78Z"/><line class="cls-7" x1="184.34" y1="370.2" x2="183.52" y2="239.56"/><path class="cls-7" d="M415.94,370.2h.18a28.35,28.35,0,0,1,28.35,28.35c0,8.53-4.56,16.19-10.82,21.38-5.23,4.34-11.63,7-17.53,7a28.35,28.35,0,0,1-.18-56.7Z"/><path class="cls-7" d="M184.34,370.2h.18a28.34,28.34,0,0,1,28.34,28.35c0,8.53-4.56,16.19-10.82,21.37-5.22,4.35-11.62,7-17.52,7a28.35,28.35,0,0,1-.18-56.7Z"/></g></svg>