<svg xmlns="http://www.w3.org/2000/svg" viewBox="0 0 595.28 841.89"><defs><style>.cls-1{fill:#f0f0f2;}.cls-2{fill:#cfe6cf;}.cls-3{fill:#fff;}.cls-4{fill:#a6653e;}.cls-5{fill:#592d1c;}.cls-6{fill:#8a99a6;}.cls-7{fill:#908fb2;}.cls-8{fill:none;stroke:#1d1d1b;stroke-miterlimit:10;stroke-width:6px;}</style></defs><g id="men"><path class="cls-1" d="M540.77,593v193H302.14V783.7a151.6,151.6,0,0,0,97.36-35.27l5.58,31.62h78.27l-29.2-165.58V593Z"/><path class="cls-2" d="M454.15,631.69V614.47l29.2,165.58H405.08l-5.58-31.62A151.66,151.66,0,0,0,454.15,631.69Z"/><polygon class="cls-3" points="454.15 593.04 454.15 614.47 450.37 593.04 454.15 593.04"/><path class="cls-3" d="M454.15,583.29V593h-3.84a47.69,47.69,0,0,0-1.42-9.75Z"/><path class="cls-4" d="M454.15,583.29h-5.26c-4.28-16.38-17.56-25.75-37-25.75s-33.58,9.37-38.16,25.75H302.06l0-71.48h.1a70.88,70.88,0,0,0,70.11-60.5l.74-2.55A152,152,0,0,1,454.15,583.29Z"/><path class="cls-2" d="M378.92,631.69h75.23A151.66,151.66,0,0,1,399.5,748.43Z"/><path class="cls-2" d="M450.37,593l3.78,21.43v17.22H378.92l-6.37-36.07h77.82c0-.87,0-1.74-.06-2.58Z"/><path class="cls-3" d="M450.37,595.62H372.55l-.4-2.28c0-.1,0-.2,0-.3h78.14C450.35,593.88,450.37,594.75,450.37,595.62Z"/><path class="cls-5" d="M450.31,593H372.17a43.23,43.23,0,0,1,1.53-9.75h75.19A47.69,47.69,0,0,1,450.31,593Z"/><path class="cls-5" d="M448.89,583.29H373.7c4.58-16.38,18.68-25.75,38.16-25.75S444.61,566.91,448.89,583.29Z"/><path class="cls-6" d="M373.13,120.2c47.36,10.82,74,63,63.15,110.31l-.21,0-83.8-19.14Z"/><path class="cls-6" d="M378.92,631.69,399.5,748.43A151.24,151.24,0,0,1,332,780.76l-.14-.71L300.08,720l2-1.07,48.5-87.21Z"/><path class="cls-7" d="M302.06,583.29H373.7a43.23,43.23,0,0,0-1.53,9.75h-.07l-21.49,38.65H302.08Z"/><path class="cls-1" d="M373.13,120.2l-20.86,91.12-83.73-19.13-.21-.05C279.15,144.78,325.76,109.38,373.13,120.2Z"/><path class="cls-6" d="M373,448.76l-.74,2.55-70.23.06V434.26l0-3h.16A151.39,151.39,0,0,1,373,448.76Z"/><path class="cls-3" d="M372.15,593.34l.4,2.28h-.45C372.1,594.85,372.12,594.09,372.15,593.34Z"/><path class="cls-2" d="M302,451.37l70.23-.06a70.88,70.88,0,0,1-70.11,60.5H302Z"/><path class="cls-3" d="M372.17,593c0,.1,0,.2,0,.3l0-.3Z"/><path class="cls-6" d="M372.1,595.62h.45l6.37,36.07H350.61L372.1,593l0,.3C372.12,594.09,372.1,594.85,372.1,595.62Z"/><polygon class="cls-7" points="350.61 631.69 302.11 718.9 302.08 631.69 350.61 631.69"/><path class="cls-3" d="M331.86,780.05l.14.71a153.19,153.19,0,0,1-63.11-.71Z"/><path class="cls-2" d="M187.24,654.62l-12.13-22.93h78.27L300.08,720l31.78,60.08h-63a151.26,151.26,0,0,1-18.07-5.23Z"/><path class="cls-1" d="M302.93,428.06a.15.15,0,0,1-.27-.06l49.61-216.68,83.8,19.14a.15.15,0,0,1,.09.23Z"/><path class="cls-1" d="M302.14,783.7v2.35H58.88V593h91.25v38.65A151.84,151.84,0,0,0,250.82,774.82l2.77,5.23h15.3A152.41,152.41,0,0,0,302.14,783.7Z"/><polygon class="cls-7" points="302.08 631.69 302.11 718.9 300.08 719.97 253.38 631.69 302.08 631.69"/><path class="cls-7" d="M302.06,583.29l0,48.4h-48.7L232.94,593a51,51,0,0,0-.9-9.75Z"/><path class="cls-6" d="M302,451.37l0,60.44a70.89,70.89,0,0,1-70-60.39Z"/><path class="cls-2" d="M302,434.26v17.11l-70,.05-2.35-1.8A151.48,151.48,0,0,1,302,431.28Z"/><path class="cls-3" d="M268.89,780.05h-15.3l-2.77-5.23A151.26,151.26,0,0,0,268.89,780.05Z"/><path class="cls-5" d="M268.54,192.19a.15.15,0,0,0-.18.17L302.66,428a.15.15,0,0,0,.27.06L436.16,230.69a.15.15,0,0,0-.09-.23l.21,0C447.1,183.15,420.49,131,373.13,120.2s-94,24.58-104.8,71.94ZM540.77,77.39V593H454.15v-9.75a151.92,151.92,0,0,0-152-152H302a151.91,151.91,0,0,0-151.85,152V593H58.88V77.39Zm-316,60.79A30.92,30.92,0,0,0,183.58,109a41.07,41.07,0,0,0-58.94,1.15,30.93,30.93,0,1,0,0,56.07,41.07,41.07,0,0,0,58.94,1.15,30.92,30.92,0,0,0,41.15-29.18Z"/><path class="cls-6" d="M268.36,192.36a.15.15,0,0,1,.18-.17l83.73,19.13L302.66,428Z"/><polygon class="cls-2" points="232.94 593.04 253.38 631.69 175.11 631.69 154.67 593.04 232.94 593.04"/><path class="cls-4" d="M187.24,654.62l63.58,120.2a152.2,152.2,0,0,1-98.94-120l2.79-.22Z"/><path class="cls-5" d="M232,583.29h-76.4c3.78-18,18.31-28.34,38.78-28.34S228.52,565.31,232,583.29Z"/><path class="cls-1" d="M193.8,107.25a30.93,30.93,0,1,1-10.22,60.11,41.07,41.07,0,0,1-58.94-1.15,30.93,30.93,0,1,1,0-56.07A41.07,41.07,0,0,1,183.58,109,30.89,30.89,0,0,1,193.8,107.25Z"/><path class="cls-2" d="M175.11,631.69l12.13,22.93H154.67l-2.79.22a153.66,153.66,0,0,1-1.75-23.15Z"/><polygon class="cls-2" points="154.67 593.04 175.11 631.69 150.13 631.69 150.13 593.04 154.67 593.04"/><path class="cls-3" d="M150.13,583.29h5.51a47.19,47.19,0,0,0-1,9.75h-4.54Z"/><path class="cls-5" d="M232,583.29a51,51,0,0,1,.9,9.75H154.67a47.19,47.19,0,0,1,1-9.75Z"/><path class="cls-6" d="M150.13,583.29a152,152,0,0,1,79.55-133.67l2.35,1.8a70.89,70.89,0,0,0,70,60.39l0,71.48H232c-3.52-18-17.15-28.34-37.62-28.34s-35,10.36-38.78,28.34Z"/><polygon class="cls-8" points="540.77 593.04 540.77 786.05 302.14 786.05 58.88 786.05 58.88 593.04 58.88 77.39 540.77 77.39 540.77 593.04"/><path class="cls-8" d="M150.13,583.29A151.91,151.91,0,0,1,302,431.28h.16a151.92,151.92,0,0,1,152,152"/><path class="cls-8" d="M250.82,774.82A151.84,151.84,0,0,1,150.13,631.69"/><path class="cls-8" d="M399.5,748.43a152.31,152.31,0,0,1-130.61,31.62"/><path class="cls-8" d="M372.24,451.31a70.88,70.88,0,0,1-70.11,60.5H302a70.89,70.89,0,0,1-70-60.39"/><path class="cls-8" d="M154.67,593a47.19,47.19,0,0,1,1-9.75c3.78-18,18.31-28.34,38.78-28.34s34.1,10.36,37.62,28.34a51,51,0,0,1,.9,9.75"/><path class="cls-8" d="M372.17,593a43.23,43.23,0,0,1,1.53-9.75c4.58-16.38,18.68-25.75,38.16-25.75s32.75,9.37,37,25.75a47.69,47.69,0,0,1,1.42,9.75"/><path class="cls-8" d="M372.1,595.62c0-.77,0-1.53,0-2.28"/><polyline class="cls-8" points="454.15 583.29 454.15 593.04 454.15 614.47"/><polyline class="cls-8" points="150.13 583.29 150.13 593.04 150.13 631.69"/><path class="cls-8" d="M268.54,192.19a.15.15,0,0,0-.18.17L302.66,428a.15.15,0,0,0,.27.06L436.16,230.69a.15.15,0,0,0-.09-.23"/><path class="cls-8" d="M268.33,192.14c10.82-47.36,57.43-82.76,104.8-71.94s74,63,63.15,110.31"/><polyline class="cls-8" points="373.13 120.2 352.27 211.32 302.66 428"/><polyline class="cls-8" points="302.11 718.9 302.08 631.69 302.06 583.29 302.03 511.81 302.01 451.37 302 434.26"/><polyline class="cls-8" points="450.37 593.04 454.15 593.04 540.77 593.04"/><polyline class="cls-8" points="154.67 593.04 150.13 593.04 61.63 593.04"/><line class="cls-8" x1="187.24" y1="654.62" x2="154.67" y2="654.62"/><polygon class="cls-8" points="331.86 780.05 268.89 780.05 253.59 780.05 250.82 774.82 187.24 654.62 175.11 631.69 154.67 593.04 232.94 593.04 253.38 631.69 300.08 719.97 331.86 780.05"/><polygon class="cls-8" points="454.15 614.47 483.35 780.05 405.08 780.05 399.5 748.43 378.92 631.69 372.55 595.62 372.15 593.34 372.1 593.04 372.17 593.04 450.31 593.04 450.37 593.04 454.15 614.47"/><polyline class="cls-8" points="302.11 718.9 350.61 631.69 372.1 593.04"/><path class="cls-8" d="M193.8,107.25A30.89,30.89,0,0,0,183.58,109a41.07,41.07,0,0,0-58.94,1.15,30.93,30.93,0,1,0,0,56.07,41.07,41.07,0,0,0,58.94,1.15,30.92,30.92,0,1,0,10.22-60.11Z"/></g></svg>