<svg xmlns="http://www.w3.org/2000/svg" viewBox="0 0 595.28 841.89"><defs><style>.cls-1{fill:#527ea7;}.cls-2{fill:#5f7b8c;}.cls-3{fill:#f0f2f2;}.cls-4{fill:#d0d8d9;}.cls-5{fill:#80a7bf;}.cls-6{fill:#fff;}.cls-7{fill:none;stroke:#1d1d1b;stroke-miterlimit:10;stroke-width:6px;}</style></defs><g id="snowmen"><path class="cls-1" d="M538.58,74.29V783H297.64c100,0,181-81,181-181a180.83,180.83,0,0,0-82.81-152.06,135.06,135.06,0,0,0,19.08-159.51c6-8.62,6.42-20.43.6-33.41a70.87,70.87,0,1,0-111.18-60.78c-19,2.84-29.27,13.64-29.8,28.07a135,135,0,0,0-111.88,133c0,3.81.16,7.59.47,11.32l-41.27-5.88L164,376.6a134.5,134.5,0,0,0,35.41,73.27A181,181,0,0,0,297.64,783H56.69V74.29Z"/><path class="cls-2" d="M445.28,188.48A70.86,70.86,0,0,1,415.51,257c5.82,13,5.45,24.79-.6,33.41a134.92,134.92,0,0,0-117.27-68.09,136.42,136.42,0,0,0-23.11,2c.53-14.43,10.84-25.23,29.8-28.07a70.87,70.87,0,0,1,141-7.7Z"/><path class="cls-3" d="M423.71,524c17,2.42,24.83,45.94,17.53,97.21s-27,90.85-44,88.43-24.83-45.94-17.52-97.2S406.72,521.54,423.71,524Z"/><path class="cls-4" d="M395.83,449.88a180.83,180.83,0,0,1,82.81,152.06c0,100-81,181-181,181a181,181,0,0,1-98.2-333.08,135,135,0,0,0,196.39,0Zm45.41,171.29c7.3-51.27-.54-94.79-17.53-97.21s-36.68,37.17-44,88.44.54,94.78,17.52,97.2S433.93,672.43,441.24,621.17Zm-124.84-74A18.77,18.77,0,1,0,297.64,566,18.76,18.76,0,0,0,316.4,547.19Zm0,50.83a18.77,18.77,0,1,0-18.76,18.76A18.76,18.76,0,0,0,316.4,598Zm0,50.83a18.77,18.77,0,1,0-18.76,18.76A18.76,18.76,0,0,0,316.4,648.85Zm0,50.83a18.77,18.77,0,1,0-18.76,18.76A18.76,18.76,0,0,0,316.4,699.68Z"/><path class="cls-4" d="M414.91,290.37a135.06,135.06,0,0,1-19.08,159.51,181.09,181.09,0,0,0-196.39,0A134.5,134.5,0,0,1,164,376.6L279.8,414.77l21-26.56L163.12,368.58c-.31-3.73-.47-7.51-.47-11.32a135,135,0,0,1,111.88-133c-.38,10.14,4.07,22.09,13.74,34.34,23.48,29.75,68.85,50,101.34,45.32C401.53,302.17,410.06,297.31,414.91,290.37ZM377,362.7a30.17,30.17,0,1,0-30.16,30.17A30.16,30.16,0,0,0,377,362.7Zm-84.76-30.16a30.17,30.17,0,1,0-30.17,30.16A30.17,30.17,0,0,0,292.23,332.54Z"/><path class="cls-2" d="M297.64,222.28a134.92,134.92,0,0,1,117.27,68.09c-4.85,6.94-13.38,11.8-25.3,13.54-32.49,4.72-77.86-15.57-101.34-45.32-9.67-12.25-14.12-24.2-13.74-34.34A136.42,136.42,0,0,1,297.64,222.28Z"/><path class="cls-4" d="M395.83,449.88a135,135,0,0,1-196.39,0,181.09,181.09,0,0,1,196.39,0Z"/><path class="cls-3" d="M346.83,332.54a30.17,30.17,0,1,1-30.17,30.16A30.16,30.16,0,0,1,346.83,332.54Z"/><path class="cls-2" d="M297.64,528.43a18.76,18.76,0,1,1-18.77,18.76A18.76,18.76,0,0,1,297.64,528.43Zm9.16,18.76a1.5,1.5,0,1,0-1.5,1.5A1.5,1.5,0,0,0,306.8,547.19Zm-15.74,0a1.5,1.5,0,1,0-1.5,1.5A1.5,1.5,0,0,0,291.06,547.19Z"/><path class="cls-5" d="M297.64,579.26A18.76,18.76,0,1,1,278.87,598,18.76,18.76,0,0,1,297.64,579.26ZM306.8,598a1.5,1.5,0,1,0-1.5,1.5A1.5,1.5,0,0,0,306.8,598Zm-15.74,0a1.5,1.5,0,1,0-1.5,1.5A1.5,1.5,0,0,0,291.06,598Z"/><path class="cls-2" d="M297.64,630.09a18.76,18.76,0,1,1-18.77,18.76A18.76,18.76,0,0,1,297.64,630.09Zm9.16,18.76a1.5,1.5,0,1,0-1.5,1.5A1.5,1.5,0,0,0,306.8,648.85Zm-15.74,0a1.5,1.5,0,1,0-1.5,1.5A1.5,1.5,0,0,0,291.06,648.85Z"/><path class="cls-5" d="M297.64,680.92a18.76,18.76,0,1,1-18.77,18.76A18.76,18.76,0,0,1,297.64,680.92Zm9.16,18.76a1.5,1.5,0,1,0-1.5,1.5A1.5,1.5,0,0,0,306.8,699.68Zm-15.74,0a1.5,1.5,0,1,0-1.5,1.5A1.5,1.5,0,0,0,291.06,699.68Z"/><circle class="cls-6" cx="305.3" cy="547.19" r="1.5"/><circle class="cls-6" cx="305.3" cy="598.02" r="1.5"/><circle class="cls-6" cx="305.3" cy="648.85" r="1.5"/><circle class="cls-6" cx="305.3" cy="699.68" r="1.5"/><path class="cls-5" d="M300.84,388.21l-21,26.56L164,376.6q-.59-4-.91-8Z"/><circle class="cls-6" cx="289.56" cy="547.19" r="1.5"/><circle class="cls-6" cx="289.56" cy="598.02" r="1.5"/><circle class="cls-6" cx="289.56" cy="648.85" r="1.5"/><circle class="cls-6" cx="289.56" cy="699.68" r="1.5"/><path class="cls-3" d="M262.06,302.37a30.17,30.17,0,1,1-30.16,30.17A30.17,30.17,0,0,1,262.06,302.37Z"/><path class="cls-6" d="M164,376.6l-42.18-13.9,41.27,5.88Q163.45,372.63,164,376.6Z"/><polygon class="cls-7" points="538.58 782.95 297.64 782.95 56.69 782.95 56.69 74.29 538.58 74.29 538.58 782.95"/><path class="cls-7" d="M395.83,449.88a180.83,180.83,0,0,1,82.81,152.06c0,100-81,181-181,181a181,181,0,0,1-98.2-333.08"/><path class="cls-7" d="M163.12,368.58c-.31-3.73-.47-7.51-.47-11.32a135,135,0,0,1,111.88-133"/><path class="cls-7" d="M414.91,290.37A135,135,0,1,1,164,376.6"/><path class="cls-7" d="M414.91,290.37c6-8.62,6.42-20.43.6-33.41a70.87,70.87,0,1,0-111.18-60.78c-19,2.84-29.27,13.64-29.8,28.07-.38,10.14,4.07,22.09,13.74,34.34,23.48,29.75,68.85,50,101.34,45.32C401.53,302.17,410.06,297.31,414.91,290.37Z"/><path class="cls-7" d="M316.4,547.19a18.77,18.77,0,1,1-18.76-18.76A18.76,18.76,0,0,1,316.4,547.19Z"/><path class="cls-7" d="M377,362.7a30.17,30.17,0,1,1-30.16-30.16A30.16,30.16,0,0,1,377,362.7Z"/><path class="cls-7" d="M292.23,332.54a30.17,30.17,0,1,1-30.17-30.17A30.16,30.16,0,0,1,292.23,332.54Z"/><polygon class="cls-7" points="164.03 376.6 121.85 362.7 163.12 368.58 300.84 388.21 279.8 414.77 164.03 376.6"/><path class="cls-7" d="M379.73,612.4c-7.31,51.26.54,94.78,17.52,97.2s36.68-37.17,44-88.43-.54-94.79-17.53-97.21S387,561.13,379.73,612.4Z"/><circle class="cls-7" cx="289.56" cy="547.19" r="1.5"/><circle class="cls-7" cx="305.3" cy="547.19" r="1.5"/><path class="cls-7" d="M316.4,598a18.77,18.77,0,1,1-18.76-18.76A18.76,18.76,0,0,1,316.4,598Z"/><circle class="cls-7" cx="289.56" cy="598.02" r="1.5"/><circle class="cls-7" cx="305.3" cy="598.02" r="1.5"/><path class="cls-7" d="M316.4,648.85a18.77,18.77,0,1,1-18.76-18.76A18.76,18.76,0,0,1,316.4,648.85Z"/><circle class="cls-7" cx="289.56" cy="648.85" r="1.5"/><circle class="cls-7" cx="305.3" cy="648.85" r="1.5"/><path class="cls-7" d="M316.4,699.68a18.77,18.77,0,1,1-18.76-18.76A18.76,18.76,0,0,1,316.4,699.68Z"/><circle class="cls-7" cx="289.56" cy="699.68" r="1.5"/><circle class="cls-7" cx="305.3" cy="699.68" r="1.5"/><polyline class="cls-7" points="248.84 447.4 300.08 460.95 351.32 447.4"/></g></svg>