<svg id="women" xmlns="http://www.w3.org/2000/svg" viewBox="0 0 595.28 841.89"><defs><style>.cls-1{fill:#f299aa;}.cls-2{fill:#16253f;}.cls-3{fill:#f2e7ae;}.cls-4{fill:#969cbf;}.cls-5{fill:none;stroke:#1d1d1b;stroke-miterlimit:10;stroke-width:6px;}</style></defs><polygon class="cls-1" points="545.64 784.64 63.75 784.64 63.75 782.23 304.23 782.23 545.16 782.23 545.64 782.23 545.64 784.64"/><path class="cls-2" d="M545.16,782.23H304.23l.12-167.08a70.89,70.89,0,0,0,70-60.51l.83-2.74C473.6,582.19,545.16,673.85,545.16,782.23Z"/><path class="cls-2" d="M420.37,418.52l1,0a28.26,28.26,0,0,0,21.12-9.45A28.35,28.35,0,1,1,393,428a27.28,27.28,0,0,1,7.69-18.4A28.3,28.3,0,0,0,420.37,418.52Z"/><path class="cls-3" d="M442.49,409.09a28.26,28.26,0,0,1-21.12,9.45l-1,0a28.3,28.3,0,0,1-19.66-8.93A27.28,27.28,0,0,0,393,428a28.35,28.35,0,1,0,49.47-18.9Zm-253.43-.2c-.66-.06-1.33-.08-2-.08a28.35,28.35,0,0,0-21,47.39A28.35,28.35,0,0,1,209,457.31c4.53-5.14,6.39-12.27,6.39-20.15A28.34,28.34,0,0,0,189.06,408.89Zm115.64-278A114.79,114.79,0,0,0,189.9,245.71h-.84v2h.78l113.57,293.6a240.5,240.5,0,0,0-70.16,10.61c-93.77,28.86-163.13,113.4-169.5,215V76H545.64V782.23h-.48c0-108.38-71.56-200-170-230.33A240.43,240.43,0,0,0,305,541.29l113.58-293.6.77-2h.13A114.79,114.79,0,0,0,304.7,130.92Z"/><path class="cls-1" d="M418.59,247.69,305,541.29h-.61l.22-293.59Z"/><path class="cls-2" d="M375.16,551.9l-.83,2.74-69.94.06V542.85l.61-1.56A240.43,240.43,0,0,1,375.16,551.9Z"/><path class="cls-4" d="M304.39,554.7l69.94-.06a70.89,70.89,0,0,1-70,60.51Z"/><path class="cls-4" d="M304.62,247.69l.08-116.77A114.79,114.79,0,0,1,419.49,245.71h-.13l-.77,2Z"/><path class="cls-1" d="M305,541.29l-.61,1.56v-1.57Z"/><path class="cls-4" d="M304.62,247.69l-.22,293.59h-1L189.84,247.69Z"/><path class="cls-1" d="M304.4,542.85l-.19.5-.8-2.06h1Z"/><path class="cls-4" d="M304.21,543.35l.19-.5V554.7l-70.27.06-.87-2.86a240.5,240.5,0,0,1,70.16-10.61Z"/><path class="cls-2" d="M304.39,554.7l0,60.45h-.14a70.88,70.88,0,0,1-70.09-60.39Z"/><path class="cls-4" d="M304.35,615.15l-.12,167.08H63.75v-15.3c6.37-101.63,75.73-186.17,169.5-215l.87,2.86a70.88,70.88,0,0,0,70.09,60.39Z"/><path class="cls-2" d="M189.06,408.89a28.34,28.34,0,0,1,26.34,28.27c0,7.88-1.86,15-6.39,20.15a28.35,28.35,0,0,0-42.95-1.11,28.35,28.35,0,0,1,21-47.39C187.73,408.81,188.4,408.83,189.06,408.89Z"/><path class="cls-1" d="M189.9,245.71A114.79,114.79,0,0,1,304.7,130.92l-.08,116.77H189.84l-.77-2Z"/><polygon class="cls-1" points="189.84 247.69 189.06 247.69 189.06 245.71 189.07 245.71 189.84 247.69"/><path class="cls-1" d="M63.75,766.93v15.3h-.48Q63.27,774.52,63.75,766.93Z"/><polyline class="cls-5" points="63.75 766.93 63.75 75.98 545.64 75.98 545.64 782.23 545.64 784.64 63.75 784.64 63.75 782.23"/><path class="cls-5" d="M305,541.29a240.43,240.43,0,0,1,70.15,10.61c98.44,30.29,170,122,170,230.33"/><path class="cls-5" d="M63.27,782.23q0-7.71.48-15.3c6.37-101.63,75.73-186.17,169.5-215a240.5,240.5,0,0,1,70.16-10.61"/><path class="cls-5" d="M374.33,554.64a70.89,70.89,0,0,1-70,60.51h-.14a70.88,70.88,0,0,1-70.09-60.39"/><line class="cls-5" x1="420.37" y1="418.52" x2="420.37" y2="242.97"/><polyline class="cls-5" points="189.06 247.69 189.06 245.71 189.06 242.69"/><line class="cls-5" x1="189.06" y1="408.89" x2="189.06" y2="250.65"/><path class="cls-5" d="M187.06,446.9A28.27,28.27,0,0,1,209,457.31c4.53-5.14,6.39-12.27,6.39-20.15a28.34,28.34,0,0,0-26.34-28.27c-.66-.06-1.33-.08-2-.08a28.35,28.35,0,0,0-21,47.39A28.28,28.28,0,0,1,187.06,446.9Z"/><path class="cls-5" d="M421.37,418.54l-1,0a28.3,28.3,0,0,1-19.66-8.93A27.28,27.28,0,0,0,393,428a28.35,28.35,0,1,0,49.47-18.9A28.26,28.26,0,0,1,421.37,418.54Z"/><line class="cls-5" x1="189.06" y1="250.65" x2="189.06" y2="247.69"/><line class="cls-5" x1="419.37" y1="250.65" x2="419.37" y2="247.69"/><line class="cls-5" x1="418.59" y1="247.69" x2="419.37" y2="247.69"/><line class="cls-5" x1="189.06" y1="247.69" x2="189.84" y2="247.69"/><path class="cls-5" d="M304.7,130.92A114.79,114.79,0,0,0,189.9,245.71h-.83l.77,2,113.57,293.6.8,2.06.19-.5.61-1.56,113.58-293.6.77-2h.13A114.79,114.79,0,0,0,304.7,130.92Z"/><polyline class="cls-5" points="304.7 130.92 304.62 247.69 304.4 541.28 304.4 542.85 304.39 554.7 304.35 615.15 304.23 782.23"/></svg>